%TF.GenerationSoftware,KiCad,Pcbnew,7.0.6*%
%TF.CreationDate,2023-08-14T14:17:23+01:00*%
%TF.ProjectId,canhat,63616e68-6174-42e6-9b69-6361645f7063,8*%
%TF.SameCoordinates,Original*%
%TF.FileFunction,Drillmap*%
%TF.FilePolarity,Positive*%
%FSLAX45Y45*%
G04 Gerber Fmt 4.5, Leading zero omitted, Abs format (unit mm)*
G04 Created by KiCad (PCBNEW 7.0.6) date 2023-08-14 14:17:23*
%MOMM*%
%LPD*%
G01*
G04 APERTURE LIST*
%ADD10C,0.150000*%
%ADD11C,0.200000*%
%ADD12C,0.110000*%
%ADD13C,0.270000*%
G04 APERTURE END LIST*
D10*
X10500000Y-7700000D02*
X10500000Y-5300000D01*
X10500000Y-5300000D02*
G75*
G03*
X10200000Y-5000000I-300000J0D01*
G01*
X4300000Y-5000000D02*
G75*
G03*
X4000000Y-5300000I0J-300000D01*
G01*
X10200000Y-5000000D02*
X4300000Y-5000000D01*
X4000000Y-7700000D02*
G75*
G03*
X4300000Y-8000000I300000J0D01*
G01*
X4000000Y-5300000D02*
X4000000Y-7700000D01*
X10200000Y-8000000D02*
G75*
G03*
X10500000Y-7700000I0J300000D01*
G01*
X4300000Y-8000000D02*
X10200000Y-8000000D01*
D11*
D12*
X4091000Y-5888000D02*
X4201000Y-5998000D01*
X4201000Y-5888000D02*
X4091000Y-5998000D01*
X4091000Y-6142000D02*
X4201000Y-6252000D01*
X4201000Y-6142000D02*
X4091000Y-6252000D01*
D13*
X4485000Y-5350000D02*
G75*
G03*
X4485000Y-5350000I-135000J0D01*
G01*
X4485000Y-7650000D02*
G75*
G03*
X4485000Y-7650000I-135000J0D01*
G01*
X10285000Y-5350000D02*
G75*
G03*
X10285000Y-5350000I-135000J0D01*
G01*
X10285000Y-7650000D02*
G75*
G03*
X10285000Y-7650000I-135000J0D01*
G01*
D11*
X4253277Y-8318984D02*
X4253277Y-8118984D01*
X4253277Y-8118984D02*
X4300896Y-8118984D01*
X4300896Y-8118984D02*
X4329467Y-8128508D01*
X4329467Y-8128508D02*
X4348515Y-8147555D01*
X4348515Y-8147555D02*
X4358039Y-8166603D01*
X4358039Y-8166603D02*
X4367563Y-8204698D01*
X4367563Y-8204698D02*
X4367563Y-8233269D01*
X4367563Y-8233269D02*
X4358039Y-8271365D01*
X4358039Y-8271365D02*
X4348515Y-8290412D01*
X4348515Y-8290412D02*
X4329467Y-8309460D01*
X4329467Y-8309460D02*
X4300896Y-8318984D01*
X4300896Y-8318984D02*
X4253277Y-8318984D01*
X4453277Y-8318984D02*
X4453277Y-8185650D01*
X4453277Y-8223746D02*
X4462801Y-8204698D01*
X4462801Y-8204698D02*
X4472324Y-8195174D01*
X4472324Y-8195174D02*
X4491372Y-8185650D01*
X4491372Y-8185650D02*
X4510420Y-8185650D01*
X4577086Y-8318984D02*
X4577086Y-8185650D01*
X4577086Y-8118984D02*
X4567563Y-8128508D01*
X4567563Y-8128508D02*
X4577086Y-8138031D01*
X4577086Y-8138031D02*
X4586610Y-8128508D01*
X4586610Y-8128508D02*
X4577086Y-8118984D01*
X4577086Y-8118984D02*
X4577086Y-8138031D01*
X4700896Y-8318984D02*
X4681848Y-8309460D01*
X4681848Y-8309460D02*
X4672324Y-8290412D01*
X4672324Y-8290412D02*
X4672324Y-8118984D01*
X4805658Y-8318984D02*
X4786610Y-8309460D01*
X4786610Y-8309460D02*
X4777086Y-8290412D01*
X4777086Y-8290412D02*
X4777086Y-8118984D01*
X5034229Y-8318984D02*
X5034229Y-8118984D01*
X5034229Y-8118984D02*
X5100896Y-8261841D01*
X5100896Y-8261841D02*
X5167563Y-8118984D01*
X5167563Y-8118984D02*
X5167563Y-8318984D01*
X5348515Y-8318984D02*
X5348515Y-8214222D01*
X5348515Y-8214222D02*
X5338991Y-8195174D01*
X5338991Y-8195174D02*
X5319944Y-8185650D01*
X5319944Y-8185650D02*
X5281848Y-8185650D01*
X5281848Y-8185650D02*
X5262801Y-8195174D01*
X5348515Y-8309460D02*
X5329467Y-8318984D01*
X5329467Y-8318984D02*
X5281848Y-8318984D01*
X5281848Y-8318984D02*
X5262801Y-8309460D01*
X5262801Y-8309460D02*
X5253277Y-8290412D01*
X5253277Y-8290412D02*
X5253277Y-8271365D01*
X5253277Y-8271365D02*
X5262801Y-8252317D01*
X5262801Y-8252317D02*
X5281848Y-8242793D01*
X5281848Y-8242793D02*
X5329467Y-8242793D01*
X5329467Y-8242793D02*
X5348515Y-8233269D01*
X5443753Y-8185650D02*
X5443753Y-8385650D01*
X5443753Y-8195174D02*
X5462801Y-8185650D01*
X5462801Y-8185650D02*
X5500896Y-8185650D01*
X5500896Y-8185650D02*
X5519944Y-8195174D01*
X5519944Y-8195174D02*
X5529467Y-8204698D01*
X5529467Y-8204698D02*
X5538991Y-8223746D01*
X5538991Y-8223746D02*
X5538991Y-8280888D01*
X5538991Y-8280888D02*
X5529467Y-8299936D01*
X5529467Y-8299936D02*
X5519944Y-8309460D01*
X5519944Y-8309460D02*
X5500896Y-8318984D01*
X5500896Y-8318984D02*
X5462801Y-8318984D01*
X5462801Y-8318984D02*
X5443753Y-8309460D01*
X5624705Y-8299936D02*
X5634229Y-8309460D01*
X5634229Y-8309460D02*
X5624705Y-8318984D01*
X5624705Y-8318984D02*
X5615182Y-8309460D01*
X5615182Y-8309460D02*
X5624705Y-8299936D01*
X5624705Y-8299936D02*
X5624705Y-8318984D01*
X5624705Y-8195174D02*
X5634229Y-8204698D01*
X5634229Y-8204698D02*
X5624705Y-8214222D01*
X5624705Y-8214222D02*
X5615182Y-8204698D01*
X5615182Y-8204698D02*
X5624705Y-8195174D01*
X5624705Y-8195174D02*
X5624705Y-8214222D01*
D12*
X3882500Y-8592500D02*
X3992500Y-8702500D01*
X3992500Y-8592500D02*
X3882500Y-8702500D01*
D11*
X4358039Y-8738984D02*
X4243753Y-8738984D01*
X4300896Y-8738984D02*
X4300896Y-8538984D01*
X4300896Y-8538984D02*
X4281848Y-8567555D01*
X4281848Y-8567555D02*
X4262801Y-8586603D01*
X4262801Y-8586603D02*
X4243753Y-8596127D01*
X4443753Y-8719936D02*
X4453277Y-8729460D01*
X4453277Y-8729460D02*
X4443753Y-8738984D01*
X4443753Y-8738984D02*
X4434229Y-8729460D01*
X4434229Y-8729460D02*
X4443753Y-8719936D01*
X4443753Y-8719936D02*
X4443753Y-8738984D01*
X4643753Y-8738984D02*
X4529467Y-8738984D01*
X4586610Y-8738984D02*
X4586610Y-8538984D01*
X4586610Y-8538984D02*
X4567563Y-8567555D01*
X4567563Y-8567555D02*
X4548515Y-8586603D01*
X4548515Y-8586603D02*
X4529467Y-8596127D01*
X4767563Y-8538984D02*
X4786610Y-8538984D01*
X4786610Y-8538984D02*
X4805658Y-8548508D01*
X4805658Y-8548508D02*
X4815182Y-8558031D01*
X4815182Y-8558031D02*
X4824705Y-8577079D01*
X4824705Y-8577079D02*
X4834229Y-8615174D01*
X4834229Y-8615174D02*
X4834229Y-8662793D01*
X4834229Y-8662793D02*
X4824705Y-8700889D01*
X4824705Y-8700889D02*
X4815182Y-8719936D01*
X4815182Y-8719936D02*
X4805658Y-8729460D01*
X4805658Y-8729460D02*
X4786610Y-8738984D01*
X4786610Y-8738984D02*
X4767563Y-8738984D01*
X4767563Y-8738984D02*
X4748515Y-8729460D01*
X4748515Y-8729460D02*
X4738991Y-8719936D01*
X4738991Y-8719936D02*
X4729467Y-8700889D01*
X4729467Y-8700889D02*
X4719944Y-8662793D01*
X4719944Y-8662793D02*
X4719944Y-8615174D01*
X4719944Y-8615174D02*
X4729467Y-8577079D01*
X4729467Y-8577079D02*
X4738991Y-8558031D01*
X4738991Y-8558031D02*
X4748515Y-8548508D01*
X4748515Y-8548508D02*
X4767563Y-8538984D01*
X4958039Y-8538984D02*
X4977086Y-8538984D01*
X4977086Y-8538984D02*
X4996134Y-8548508D01*
X4996134Y-8548508D02*
X5005658Y-8558031D01*
X5005658Y-8558031D02*
X5015182Y-8577079D01*
X5015182Y-8577079D02*
X5024705Y-8615174D01*
X5024705Y-8615174D02*
X5024705Y-8662793D01*
X5024705Y-8662793D02*
X5015182Y-8700889D01*
X5015182Y-8700889D02*
X5005658Y-8719936D01*
X5005658Y-8719936D02*
X4996134Y-8729460D01*
X4996134Y-8729460D02*
X4977086Y-8738984D01*
X4977086Y-8738984D02*
X4958039Y-8738984D01*
X4958039Y-8738984D02*
X4938991Y-8729460D01*
X4938991Y-8729460D02*
X4929467Y-8719936D01*
X4929467Y-8719936D02*
X4919944Y-8700889D01*
X4919944Y-8700889D02*
X4910420Y-8662793D01*
X4910420Y-8662793D02*
X4910420Y-8615174D01*
X4910420Y-8615174D02*
X4919944Y-8577079D01*
X4919944Y-8577079D02*
X4929467Y-8558031D01*
X4929467Y-8558031D02*
X4938991Y-8548508D01*
X4938991Y-8548508D02*
X4958039Y-8538984D01*
X5110420Y-8738984D02*
X5110420Y-8605650D01*
X5110420Y-8624698D02*
X5119944Y-8615174D01*
X5119944Y-8615174D02*
X5138991Y-8605650D01*
X5138991Y-8605650D02*
X5167563Y-8605650D01*
X5167563Y-8605650D02*
X5186610Y-8615174D01*
X5186610Y-8615174D02*
X5196134Y-8634222D01*
X5196134Y-8634222D02*
X5196134Y-8738984D01*
X5196134Y-8634222D02*
X5205658Y-8615174D01*
X5205658Y-8615174D02*
X5224705Y-8605650D01*
X5224705Y-8605650D02*
X5253277Y-8605650D01*
X5253277Y-8605650D02*
X5272325Y-8615174D01*
X5272325Y-8615174D02*
X5281848Y-8634222D01*
X5281848Y-8634222D02*
X5281848Y-8738984D01*
X5377086Y-8738984D02*
X5377086Y-8605650D01*
X5377086Y-8624698D02*
X5386610Y-8615174D01*
X5386610Y-8615174D02*
X5405658Y-8605650D01*
X5405658Y-8605650D02*
X5434229Y-8605650D01*
X5434229Y-8605650D02*
X5453277Y-8615174D01*
X5453277Y-8615174D02*
X5462801Y-8634222D01*
X5462801Y-8634222D02*
X5462801Y-8738984D01*
X5462801Y-8634222D02*
X5472325Y-8615174D01*
X5472325Y-8615174D02*
X5491372Y-8605650D01*
X5491372Y-8605650D02*
X5519944Y-8605650D01*
X5519944Y-8605650D02*
X5538991Y-8615174D01*
X5538991Y-8615174D02*
X5548515Y-8634222D01*
X5548515Y-8634222D02*
X5548515Y-8738984D01*
X5938991Y-8529460D02*
X5767563Y-8786603D01*
X6196134Y-8538984D02*
X6215182Y-8538984D01*
X6215182Y-8538984D02*
X6234229Y-8548508D01*
X6234229Y-8548508D02*
X6243753Y-8558031D01*
X6243753Y-8558031D02*
X6253277Y-8577079D01*
X6253277Y-8577079D02*
X6262801Y-8615174D01*
X6262801Y-8615174D02*
X6262801Y-8662793D01*
X6262801Y-8662793D02*
X6253277Y-8700889D01*
X6253277Y-8700889D02*
X6243753Y-8719936D01*
X6243753Y-8719936D02*
X6234229Y-8729460D01*
X6234229Y-8729460D02*
X6215182Y-8738984D01*
X6215182Y-8738984D02*
X6196134Y-8738984D01*
X6196134Y-8738984D02*
X6177086Y-8729460D01*
X6177086Y-8729460D02*
X6167563Y-8719936D01*
X6167563Y-8719936D02*
X6158039Y-8700889D01*
X6158039Y-8700889D02*
X6148515Y-8662793D01*
X6148515Y-8662793D02*
X6148515Y-8615174D01*
X6148515Y-8615174D02*
X6158039Y-8577079D01*
X6158039Y-8577079D02*
X6167563Y-8558031D01*
X6167563Y-8558031D02*
X6177086Y-8548508D01*
X6177086Y-8548508D02*
X6196134Y-8538984D01*
X6348515Y-8719936D02*
X6358039Y-8729460D01*
X6358039Y-8729460D02*
X6348515Y-8738984D01*
X6348515Y-8738984D02*
X6338991Y-8729460D01*
X6338991Y-8729460D02*
X6348515Y-8719936D01*
X6348515Y-8719936D02*
X6348515Y-8738984D01*
X6481848Y-8538984D02*
X6500896Y-8538984D01*
X6500896Y-8538984D02*
X6519944Y-8548508D01*
X6519944Y-8548508D02*
X6529467Y-8558031D01*
X6529467Y-8558031D02*
X6538991Y-8577079D01*
X6538991Y-8577079D02*
X6548515Y-8615174D01*
X6548515Y-8615174D02*
X6548515Y-8662793D01*
X6548515Y-8662793D02*
X6538991Y-8700889D01*
X6538991Y-8700889D02*
X6529467Y-8719936D01*
X6529467Y-8719936D02*
X6519944Y-8729460D01*
X6519944Y-8729460D02*
X6500896Y-8738984D01*
X6500896Y-8738984D02*
X6481848Y-8738984D01*
X6481848Y-8738984D02*
X6462801Y-8729460D01*
X6462801Y-8729460D02*
X6453277Y-8719936D01*
X6453277Y-8719936D02*
X6443753Y-8700889D01*
X6443753Y-8700889D02*
X6434229Y-8662793D01*
X6434229Y-8662793D02*
X6434229Y-8615174D01*
X6434229Y-8615174D02*
X6443753Y-8577079D01*
X6443753Y-8577079D02*
X6453277Y-8558031D01*
X6453277Y-8558031D02*
X6462801Y-8548508D01*
X6462801Y-8548508D02*
X6481848Y-8538984D01*
X6719944Y-8605650D02*
X6719944Y-8738984D01*
X6672325Y-8529460D02*
X6624706Y-8672317D01*
X6624706Y-8672317D02*
X6748515Y-8672317D01*
X6805658Y-8538984D02*
X6929467Y-8538984D01*
X6929467Y-8538984D02*
X6862801Y-8615174D01*
X6862801Y-8615174D02*
X6891372Y-8615174D01*
X6891372Y-8615174D02*
X6910420Y-8624698D01*
X6910420Y-8624698D02*
X6919944Y-8634222D01*
X6919944Y-8634222D02*
X6929467Y-8653270D01*
X6929467Y-8653270D02*
X6929467Y-8700889D01*
X6929467Y-8700889D02*
X6919944Y-8719936D01*
X6919944Y-8719936D02*
X6910420Y-8729460D01*
X6910420Y-8729460D02*
X6891372Y-8738984D01*
X6891372Y-8738984D02*
X6834229Y-8738984D01*
X6834229Y-8738984D02*
X6815182Y-8729460D01*
X6815182Y-8729460D02*
X6805658Y-8719936D01*
X6996134Y-8538984D02*
X7119944Y-8538984D01*
X7119944Y-8538984D02*
X7053277Y-8615174D01*
X7053277Y-8615174D02*
X7081848Y-8615174D01*
X7081848Y-8615174D02*
X7100896Y-8624698D01*
X7100896Y-8624698D02*
X7110420Y-8634222D01*
X7110420Y-8634222D02*
X7119944Y-8653270D01*
X7119944Y-8653270D02*
X7119944Y-8700889D01*
X7119944Y-8700889D02*
X7110420Y-8719936D01*
X7110420Y-8719936D02*
X7100896Y-8729460D01*
X7100896Y-8729460D02*
X7081848Y-8738984D01*
X7081848Y-8738984D02*
X7024706Y-8738984D01*
X7024706Y-8738984D02*
X7005658Y-8729460D01*
X7005658Y-8729460D02*
X6996134Y-8719936D01*
X7196134Y-8538984D02*
X7196134Y-8577079D01*
X7272325Y-8538984D02*
X7272325Y-8577079D01*
X7567563Y-8815174D02*
X7558039Y-8805650D01*
X7558039Y-8805650D02*
X7538991Y-8777079D01*
X7538991Y-8777079D02*
X7529468Y-8758031D01*
X7529468Y-8758031D02*
X7519944Y-8729460D01*
X7519944Y-8729460D02*
X7510420Y-8681841D01*
X7510420Y-8681841D02*
X7510420Y-8643746D01*
X7510420Y-8643746D02*
X7519944Y-8596127D01*
X7519944Y-8596127D02*
X7529468Y-8567555D01*
X7529468Y-8567555D02*
X7538991Y-8548508D01*
X7538991Y-8548508D02*
X7558039Y-8519936D01*
X7558039Y-8519936D02*
X7567563Y-8510412D01*
X7634229Y-8558031D02*
X7643753Y-8548508D01*
X7643753Y-8548508D02*
X7662801Y-8538984D01*
X7662801Y-8538984D02*
X7710420Y-8538984D01*
X7710420Y-8538984D02*
X7729468Y-8548508D01*
X7729468Y-8548508D02*
X7738991Y-8558031D01*
X7738991Y-8558031D02*
X7748515Y-8577079D01*
X7748515Y-8577079D02*
X7748515Y-8596127D01*
X7748515Y-8596127D02*
X7738991Y-8624698D01*
X7738991Y-8624698D02*
X7624706Y-8738984D01*
X7624706Y-8738984D02*
X7748515Y-8738984D01*
X7986610Y-8738984D02*
X7986610Y-8538984D01*
X8072325Y-8738984D02*
X8072325Y-8634222D01*
X8072325Y-8634222D02*
X8062801Y-8615174D01*
X8062801Y-8615174D02*
X8043753Y-8605650D01*
X8043753Y-8605650D02*
X8015182Y-8605650D01*
X8015182Y-8605650D02*
X7996134Y-8615174D01*
X7996134Y-8615174D02*
X7986610Y-8624698D01*
X8196134Y-8738984D02*
X8177087Y-8729460D01*
X8177087Y-8729460D02*
X8167563Y-8719936D01*
X8167563Y-8719936D02*
X8158039Y-8700889D01*
X8158039Y-8700889D02*
X8158039Y-8643746D01*
X8158039Y-8643746D02*
X8167563Y-8624698D01*
X8167563Y-8624698D02*
X8177087Y-8615174D01*
X8177087Y-8615174D02*
X8196134Y-8605650D01*
X8196134Y-8605650D02*
X8224706Y-8605650D01*
X8224706Y-8605650D02*
X8243753Y-8615174D01*
X8243753Y-8615174D02*
X8253277Y-8624698D01*
X8253277Y-8624698D02*
X8262801Y-8643746D01*
X8262801Y-8643746D02*
X8262801Y-8700889D01*
X8262801Y-8700889D02*
X8253277Y-8719936D01*
X8253277Y-8719936D02*
X8243753Y-8729460D01*
X8243753Y-8729460D02*
X8224706Y-8738984D01*
X8224706Y-8738984D02*
X8196134Y-8738984D01*
X8377087Y-8738984D02*
X8358039Y-8729460D01*
X8358039Y-8729460D02*
X8348515Y-8710412D01*
X8348515Y-8710412D02*
X8348515Y-8538984D01*
X8529468Y-8729460D02*
X8510420Y-8738984D01*
X8510420Y-8738984D02*
X8472325Y-8738984D01*
X8472325Y-8738984D02*
X8453277Y-8729460D01*
X8453277Y-8729460D02*
X8443753Y-8710412D01*
X8443753Y-8710412D02*
X8443753Y-8634222D01*
X8443753Y-8634222D02*
X8453277Y-8615174D01*
X8453277Y-8615174D02*
X8472325Y-8605650D01*
X8472325Y-8605650D02*
X8510420Y-8605650D01*
X8510420Y-8605650D02*
X8529468Y-8615174D01*
X8529468Y-8615174D02*
X8538992Y-8634222D01*
X8538992Y-8634222D02*
X8538992Y-8653270D01*
X8538992Y-8653270D02*
X8443753Y-8672317D01*
X8615182Y-8729460D02*
X8634230Y-8738984D01*
X8634230Y-8738984D02*
X8672325Y-8738984D01*
X8672325Y-8738984D02*
X8691373Y-8729460D01*
X8691373Y-8729460D02*
X8700896Y-8710412D01*
X8700896Y-8710412D02*
X8700896Y-8700889D01*
X8700896Y-8700889D02*
X8691373Y-8681841D01*
X8691373Y-8681841D02*
X8672325Y-8672317D01*
X8672325Y-8672317D02*
X8643753Y-8672317D01*
X8643753Y-8672317D02*
X8624706Y-8662793D01*
X8624706Y-8662793D02*
X8615182Y-8643746D01*
X8615182Y-8643746D02*
X8615182Y-8634222D01*
X8615182Y-8634222D02*
X8624706Y-8615174D01*
X8624706Y-8615174D02*
X8643753Y-8605650D01*
X8643753Y-8605650D02*
X8672325Y-8605650D01*
X8672325Y-8605650D02*
X8691373Y-8615174D01*
X8767563Y-8815174D02*
X8777087Y-8805650D01*
X8777087Y-8805650D02*
X8796134Y-8777079D01*
X8796134Y-8777079D02*
X8805658Y-8758031D01*
X8805658Y-8758031D02*
X8815182Y-8729460D01*
X8815182Y-8729460D02*
X8824706Y-8681841D01*
X8824706Y-8681841D02*
X8824706Y-8643746D01*
X8824706Y-8643746D02*
X8815182Y-8596127D01*
X8815182Y-8596127D02*
X8805658Y-8567555D01*
X8805658Y-8567555D02*
X8796134Y-8548508D01*
X8796134Y-8548508D02*
X8777087Y-8519936D01*
X8777087Y-8519936D02*
X8767563Y-8510412D01*
X9129468Y-8815174D02*
X9119944Y-8805650D01*
X9119944Y-8805650D02*
X9100896Y-8777079D01*
X9100896Y-8777079D02*
X9091373Y-8758031D01*
X9091373Y-8758031D02*
X9081849Y-8729460D01*
X9081849Y-8729460D02*
X9072325Y-8681841D01*
X9072325Y-8681841D02*
X9072325Y-8643746D01*
X9072325Y-8643746D02*
X9081849Y-8596127D01*
X9081849Y-8596127D02*
X9091373Y-8567555D01*
X9091373Y-8567555D02*
X9100896Y-8548508D01*
X9100896Y-8548508D02*
X9119944Y-8519936D01*
X9119944Y-8519936D02*
X9129468Y-8510412D01*
X9205658Y-8605650D02*
X9205658Y-8738984D01*
X9205658Y-8624698D02*
X9215182Y-8615174D01*
X9215182Y-8615174D02*
X9234230Y-8605650D01*
X9234230Y-8605650D02*
X9262801Y-8605650D01*
X9262801Y-8605650D02*
X9281849Y-8615174D01*
X9281849Y-8615174D02*
X9291373Y-8634222D01*
X9291373Y-8634222D02*
X9291373Y-8738984D01*
X9415182Y-8738984D02*
X9396134Y-8729460D01*
X9396134Y-8729460D02*
X9386611Y-8719936D01*
X9386611Y-8719936D02*
X9377087Y-8700889D01*
X9377087Y-8700889D02*
X9377087Y-8643746D01*
X9377087Y-8643746D02*
X9386611Y-8624698D01*
X9386611Y-8624698D02*
X9396134Y-8615174D01*
X9396134Y-8615174D02*
X9415182Y-8605650D01*
X9415182Y-8605650D02*
X9443754Y-8605650D01*
X9443754Y-8605650D02*
X9462801Y-8615174D01*
X9462801Y-8615174D02*
X9472325Y-8624698D01*
X9472325Y-8624698D02*
X9481849Y-8643746D01*
X9481849Y-8643746D02*
X9481849Y-8700889D01*
X9481849Y-8700889D02*
X9472325Y-8719936D01*
X9472325Y-8719936D02*
X9462801Y-8729460D01*
X9462801Y-8729460D02*
X9443754Y-8738984D01*
X9443754Y-8738984D02*
X9415182Y-8738984D01*
X9538992Y-8605650D02*
X9615182Y-8605650D01*
X9567563Y-8538984D02*
X9567563Y-8710412D01*
X9567563Y-8710412D02*
X9577087Y-8729460D01*
X9577087Y-8729460D02*
X9596134Y-8738984D01*
X9596134Y-8738984D02*
X9615182Y-8738984D01*
X9834230Y-8605650D02*
X9834230Y-8805650D01*
X9834230Y-8615174D02*
X9853277Y-8605650D01*
X9853277Y-8605650D02*
X9891373Y-8605650D01*
X9891373Y-8605650D02*
X9910420Y-8615174D01*
X9910420Y-8615174D02*
X9919944Y-8624698D01*
X9919944Y-8624698D02*
X9929468Y-8643746D01*
X9929468Y-8643746D02*
X9929468Y-8700889D01*
X9929468Y-8700889D02*
X9919944Y-8719936D01*
X9919944Y-8719936D02*
X9910420Y-8729460D01*
X9910420Y-8729460D02*
X9891373Y-8738984D01*
X9891373Y-8738984D02*
X9853277Y-8738984D01*
X9853277Y-8738984D02*
X9834230Y-8729460D01*
X10043754Y-8738984D02*
X10024706Y-8729460D01*
X10024706Y-8729460D02*
X10015182Y-8710412D01*
X10015182Y-8710412D02*
X10015182Y-8538984D01*
X10205658Y-8738984D02*
X10205658Y-8634222D01*
X10205658Y-8634222D02*
X10196135Y-8615174D01*
X10196135Y-8615174D02*
X10177087Y-8605650D01*
X10177087Y-8605650D02*
X10138992Y-8605650D01*
X10138992Y-8605650D02*
X10119944Y-8615174D01*
X10205658Y-8729460D02*
X10186611Y-8738984D01*
X10186611Y-8738984D02*
X10138992Y-8738984D01*
X10138992Y-8738984D02*
X10119944Y-8729460D01*
X10119944Y-8729460D02*
X10110420Y-8710412D01*
X10110420Y-8710412D02*
X10110420Y-8691365D01*
X10110420Y-8691365D02*
X10119944Y-8672317D01*
X10119944Y-8672317D02*
X10138992Y-8662793D01*
X10138992Y-8662793D02*
X10186611Y-8662793D01*
X10186611Y-8662793D02*
X10205658Y-8653270D01*
X10272325Y-8605650D02*
X10348515Y-8605650D01*
X10300896Y-8538984D02*
X10300896Y-8710412D01*
X10300896Y-8710412D02*
X10310420Y-8729460D01*
X10310420Y-8729460D02*
X10329468Y-8738984D01*
X10329468Y-8738984D02*
X10348515Y-8738984D01*
X10491373Y-8729460D02*
X10472325Y-8738984D01*
X10472325Y-8738984D02*
X10434230Y-8738984D01*
X10434230Y-8738984D02*
X10415182Y-8729460D01*
X10415182Y-8729460D02*
X10405658Y-8710412D01*
X10405658Y-8710412D02*
X10405658Y-8634222D01*
X10405658Y-8634222D02*
X10415182Y-8615174D01*
X10415182Y-8615174D02*
X10434230Y-8605650D01*
X10434230Y-8605650D02*
X10472325Y-8605650D01*
X10472325Y-8605650D02*
X10491373Y-8615174D01*
X10491373Y-8615174D02*
X10500896Y-8634222D01*
X10500896Y-8634222D02*
X10500896Y-8653270D01*
X10500896Y-8653270D02*
X10405658Y-8672317D01*
X10672325Y-8738984D02*
X10672325Y-8538984D01*
X10672325Y-8729460D02*
X10653277Y-8738984D01*
X10653277Y-8738984D02*
X10615182Y-8738984D01*
X10615182Y-8738984D02*
X10596135Y-8729460D01*
X10596135Y-8729460D02*
X10586611Y-8719936D01*
X10586611Y-8719936D02*
X10577087Y-8700889D01*
X10577087Y-8700889D02*
X10577087Y-8643746D01*
X10577087Y-8643746D02*
X10586611Y-8624698D01*
X10586611Y-8624698D02*
X10596135Y-8615174D01*
X10596135Y-8615174D02*
X10615182Y-8605650D01*
X10615182Y-8605650D02*
X10653277Y-8605650D01*
X10653277Y-8605650D02*
X10672325Y-8615174D01*
X10748516Y-8815174D02*
X10758039Y-8805650D01*
X10758039Y-8805650D02*
X10777087Y-8777079D01*
X10777087Y-8777079D02*
X10786611Y-8758031D01*
X10786611Y-8758031D02*
X10796135Y-8729460D01*
X10796135Y-8729460D02*
X10805658Y-8681841D01*
X10805658Y-8681841D02*
X10805658Y-8643746D01*
X10805658Y-8643746D02*
X10796135Y-8596127D01*
X10796135Y-8596127D02*
X10786611Y-8567555D01*
X10786611Y-8567555D02*
X10777087Y-8548508D01*
X10777087Y-8548508D02*
X10758039Y-8519936D01*
X10758039Y-8519936D02*
X10748516Y-8510412D01*
X3992500Y-8911500D02*
G75*
G03*
X3992500Y-8911500I-100000J0D01*
G01*
X4243753Y-8822031D02*
X4253277Y-8812508D01*
X4253277Y-8812508D02*
X4272324Y-8802984D01*
X4272324Y-8802984D02*
X4319944Y-8802984D01*
X4319944Y-8802984D02*
X4338991Y-8812508D01*
X4338991Y-8812508D02*
X4348515Y-8822031D01*
X4348515Y-8822031D02*
X4358039Y-8841079D01*
X4358039Y-8841079D02*
X4358039Y-8860127D01*
X4358039Y-8860127D02*
X4348515Y-8888698D01*
X4348515Y-8888698D02*
X4234229Y-9002984D01*
X4234229Y-9002984D02*
X4358039Y-9002984D01*
X4443753Y-8983936D02*
X4453277Y-8993460D01*
X4453277Y-8993460D02*
X4443753Y-9002984D01*
X4443753Y-9002984D02*
X4434229Y-8993460D01*
X4434229Y-8993460D02*
X4443753Y-8983936D01*
X4443753Y-8983936D02*
X4443753Y-9002984D01*
X4519944Y-8802984D02*
X4653277Y-8802984D01*
X4653277Y-8802984D02*
X4567563Y-9002984D01*
X4767563Y-8802984D02*
X4786610Y-8802984D01*
X4786610Y-8802984D02*
X4805658Y-8812508D01*
X4805658Y-8812508D02*
X4815182Y-8822031D01*
X4815182Y-8822031D02*
X4824705Y-8841079D01*
X4824705Y-8841079D02*
X4834229Y-8879174D01*
X4834229Y-8879174D02*
X4834229Y-8926793D01*
X4834229Y-8926793D02*
X4824705Y-8964889D01*
X4824705Y-8964889D02*
X4815182Y-8983936D01*
X4815182Y-8983936D02*
X4805658Y-8993460D01*
X4805658Y-8993460D02*
X4786610Y-9002984D01*
X4786610Y-9002984D02*
X4767563Y-9002984D01*
X4767563Y-9002984D02*
X4748515Y-8993460D01*
X4748515Y-8993460D02*
X4738991Y-8983936D01*
X4738991Y-8983936D02*
X4729467Y-8964889D01*
X4729467Y-8964889D02*
X4719944Y-8926793D01*
X4719944Y-8926793D02*
X4719944Y-8879174D01*
X4719944Y-8879174D02*
X4729467Y-8841079D01*
X4729467Y-8841079D02*
X4738991Y-8822031D01*
X4738991Y-8822031D02*
X4748515Y-8812508D01*
X4748515Y-8812508D02*
X4767563Y-8802984D01*
X4958039Y-8802984D02*
X4977086Y-8802984D01*
X4977086Y-8802984D02*
X4996134Y-8812508D01*
X4996134Y-8812508D02*
X5005658Y-8822031D01*
X5005658Y-8822031D02*
X5015182Y-8841079D01*
X5015182Y-8841079D02*
X5024705Y-8879174D01*
X5024705Y-8879174D02*
X5024705Y-8926793D01*
X5024705Y-8926793D02*
X5015182Y-8964889D01*
X5015182Y-8964889D02*
X5005658Y-8983936D01*
X5005658Y-8983936D02*
X4996134Y-8993460D01*
X4996134Y-8993460D02*
X4977086Y-9002984D01*
X4977086Y-9002984D02*
X4958039Y-9002984D01*
X4958039Y-9002984D02*
X4938991Y-8993460D01*
X4938991Y-8993460D02*
X4929467Y-8983936D01*
X4929467Y-8983936D02*
X4919944Y-8964889D01*
X4919944Y-8964889D02*
X4910420Y-8926793D01*
X4910420Y-8926793D02*
X4910420Y-8879174D01*
X4910420Y-8879174D02*
X4919944Y-8841079D01*
X4919944Y-8841079D02*
X4929467Y-8822031D01*
X4929467Y-8822031D02*
X4938991Y-8812508D01*
X4938991Y-8812508D02*
X4958039Y-8802984D01*
X5110420Y-9002984D02*
X5110420Y-8869650D01*
X5110420Y-8888698D02*
X5119944Y-8879174D01*
X5119944Y-8879174D02*
X5138991Y-8869650D01*
X5138991Y-8869650D02*
X5167563Y-8869650D01*
X5167563Y-8869650D02*
X5186610Y-8879174D01*
X5186610Y-8879174D02*
X5196134Y-8898222D01*
X5196134Y-8898222D02*
X5196134Y-9002984D01*
X5196134Y-8898222D02*
X5205658Y-8879174D01*
X5205658Y-8879174D02*
X5224705Y-8869650D01*
X5224705Y-8869650D02*
X5253277Y-8869650D01*
X5253277Y-8869650D02*
X5272325Y-8879174D01*
X5272325Y-8879174D02*
X5281848Y-8898222D01*
X5281848Y-8898222D02*
X5281848Y-9002984D01*
X5377086Y-9002984D02*
X5377086Y-8869650D01*
X5377086Y-8888698D02*
X5386610Y-8879174D01*
X5386610Y-8879174D02*
X5405658Y-8869650D01*
X5405658Y-8869650D02*
X5434229Y-8869650D01*
X5434229Y-8869650D02*
X5453277Y-8879174D01*
X5453277Y-8879174D02*
X5462801Y-8898222D01*
X5462801Y-8898222D02*
X5462801Y-9002984D01*
X5462801Y-8898222D02*
X5472325Y-8879174D01*
X5472325Y-8879174D02*
X5491372Y-8869650D01*
X5491372Y-8869650D02*
X5519944Y-8869650D01*
X5519944Y-8869650D02*
X5538991Y-8879174D01*
X5538991Y-8879174D02*
X5548515Y-8898222D01*
X5548515Y-8898222D02*
X5548515Y-9002984D01*
X5938991Y-8793460D02*
X5767563Y-9050603D01*
X6196134Y-8802984D02*
X6215182Y-8802984D01*
X6215182Y-8802984D02*
X6234229Y-8812508D01*
X6234229Y-8812508D02*
X6243753Y-8822031D01*
X6243753Y-8822031D02*
X6253277Y-8841079D01*
X6253277Y-8841079D02*
X6262801Y-8879174D01*
X6262801Y-8879174D02*
X6262801Y-8926793D01*
X6262801Y-8926793D02*
X6253277Y-8964889D01*
X6253277Y-8964889D02*
X6243753Y-8983936D01*
X6243753Y-8983936D02*
X6234229Y-8993460D01*
X6234229Y-8993460D02*
X6215182Y-9002984D01*
X6215182Y-9002984D02*
X6196134Y-9002984D01*
X6196134Y-9002984D02*
X6177086Y-8993460D01*
X6177086Y-8993460D02*
X6167563Y-8983936D01*
X6167563Y-8983936D02*
X6158039Y-8964889D01*
X6158039Y-8964889D02*
X6148515Y-8926793D01*
X6148515Y-8926793D02*
X6148515Y-8879174D01*
X6148515Y-8879174D02*
X6158039Y-8841079D01*
X6158039Y-8841079D02*
X6167563Y-8822031D01*
X6167563Y-8822031D02*
X6177086Y-8812508D01*
X6177086Y-8812508D02*
X6196134Y-8802984D01*
X6348515Y-8983936D02*
X6358039Y-8993460D01*
X6358039Y-8993460D02*
X6348515Y-9002984D01*
X6348515Y-9002984D02*
X6338991Y-8993460D01*
X6338991Y-8993460D02*
X6348515Y-8983936D01*
X6348515Y-8983936D02*
X6348515Y-9002984D01*
X6548515Y-9002984D02*
X6434229Y-9002984D01*
X6491372Y-9002984D02*
X6491372Y-8802984D01*
X6491372Y-8802984D02*
X6472325Y-8831555D01*
X6472325Y-8831555D02*
X6453277Y-8850603D01*
X6453277Y-8850603D02*
X6434229Y-8860127D01*
X6672325Y-8802984D02*
X6691372Y-8802984D01*
X6691372Y-8802984D02*
X6710420Y-8812508D01*
X6710420Y-8812508D02*
X6719944Y-8822031D01*
X6719944Y-8822031D02*
X6729467Y-8841079D01*
X6729467Y-8841079D02*
X6738991Y-8879174D01*
X6738991Y-8879174D02*
X6738991Y-8926793D01*
X6738991Y-8926793D02*
X6729467Y-8964889D01*
X6729467Y-8964889D02*
X6719944Y-8983936D01*
X6719944Y-8983936D02*
X6710420Y-8993460D01*
X6710420Y-8993460D02*
X6691372Y-9002984D01*
X6691372Y-9002984D02*
X6672325Y-9002984D01*
X6672325Y-9002984D02*
X6653277Y-8993460D01*
X6653277Y-8993460D02*
X6643753Y-8983936D01*
X6643753Y-8983936D02*
X6634229Y-8964889D01*
X6634229Y-8964889D02*
X6624706Y-8926793D01*
X6624706Y-8926793D02*
X6624706Y-8879174D01*
X6624706Y-8879174D02*
X6634229Y-8841079D01*
X6634229Y-8841079D02*
X6643753Y-8822031D01*
X6643753Y-8822031D02*
X6653277Y-8812508D01*
X6653277Y-8812508D02*
X6672325Y-8802984D01*
X6910420Y-8802984D02*
X6872325Y-8802984D01*
X6872325Y-8802984D02*
X6853277Y-8812508D01*
X6853277Y-8812508D02*
X6843753Y-8822031D01*
X6843753Y-8822031D02*
X6824706Y-8850603D01*
X6824706Y-8850603D02*
X6815182Y-8888698D01*
X6815182Y-8888698D02*
X6815182Y-8964889D01*
X6815182Y-8964889D02*
X6824706Y-8983936D01*
X6824706Y-8983936D02*
X6834229Y-8993460D01*
X6834229Y-8993460D02*
X6853277Y-9002984D01*
X6853277Y-9002984D02*
X6891372Y-9002984D01*
X6891372Y-9002984D02*
X6910420Y-8993460D01*
X6910420Y-8993460D02*
X6919944Y-8983936D01*
X6919944Y-8983936D02*
X6929467Y-8964889D01*
X6929467Y-8964889D02*
X6929467Y-8917270D01*
X6929467Y-8917270D02*
X6919944Y-8898222D01*
X6919944Y-8898222D02*
X6910420Y-8888698D01*
X6910420Y-8888698D02*
X6891372Y-8879174D01*
X6891372Y-8879174D02*
X6853277Y-8879174D01*
X6853277Y-8879174D02*
X6834229Y-8888698D01*
X6834229Y-8888698D02*
X6824706Y-8898222D01*
X6824706Y-8898222D02*
X6815182Y-8917270D01*
X6996134Y-8802984D02*
X7119944Y-8802984D01*
X7119944Y-8802984D02*
X7053277Y-8879174D01*
X7053277Y-8879174D02*
X7081848Y-8879174D01*
X7081848Y-8879174D02*
X7100896Y-8888698D01*
X7100896Y-8888698D02*
X7110420Y-8898222D01*
X7110420Y-8898222D02*
X7119944Y-8917270D01*
X7119944Y-8917270D02*
X7119944Y-8964889D01*
X7119944Y-8964889D02*
X7110420Y-8983936D01*
X7110420Y-8983936D02*
X7100896Y-8993460D01*
X7100896Y-8993460D02*
X7081848Y-9002984D01*
X7081848Y-9002984D02*
X7024706Y-9002984D01*
X7024706Y-9002984D02*
X7005658Y-8993460D01*
X7005658Y-8993460D02*
X6996134Y-8983936D01*
X7196134Y-8802984D02*
X7196134Y-8841079D01*
X7272325Y-8802984D02*
X7272325Y-8841079D01*
X7567563Y-9079174D02*
X7558039Y-9069650D01*
X7558039Y-9069650D02*
X7538991Y-9041079D01*
X7538991Y-9041079D02*
X7529468Y-9022031D01*
X7529468Y-9022031D02*
X7519944Y-8993460D01*
X7519944Y-8993460D02*
X7510420Y-8945841D01*
X7510420Y-8945841D02*
X7510420Y-8907746D01*
X7510420Y-8907746D02*
X7519944Y-8860127D01*
X7519944Y-8860127D02*
X7529468Y-8831555D01*
X7529468Y-8831555D02*
X7538991Y-8812508D01*
X7538991Y-8812508D02*
X7558039Y-8783936D01*
X7558039Y-8783936D02*
X7567563Y-8774412D01*
X7729468Y-8869650D02*
X7729468Y-9002984D01*
X7681848Y-8793460D02*
X7634229Y-8936317D01*
X7634229Y-8936317D02*
X7758039Y-8936317D01*
X7986610Y-9002984D02*
X7986610Y-8802984D01*
X8072325Y-9002984D02*
X8072325Y-8898222D01*
X8072325Y-8898222D02*
X8062801Y-8879174D01*
X8062801Y-8879174D02*
X8043753Y-8869650D01*
X8043753Y-8869650D02*
X8015182Y-8869650D01*
X8015182Y-8869650D02*
X7996134Y-8879174D01*
X7996134Y-8879174D02*
X7986610Y-8888698D01*
X8196134Y-9002984D02*
X8177087Y-8993460D01*
X8177087Y-8993460D02*
X8167563Y-8983936D01*
X8167563Y-8983936D02*
X8158039Y-8964889D01*
X8158039Y-8964889D02*
X8158039Y-8907746D01*
X8158039Y-8907746D02*
X8167563Y-8888698D01*
X8167563Y-8888698D02*
X8177087Y-8879174D01*
X8177087Y-8879174D02*
X8196134Y-8869650D01*
X8196134Y-8869650D02*
X8224706Y-8869650D01*
X8224706Y-8869650D02*
X8243753Y-8879174D01*
X8243753Y-8879174D02*
X8253277Y-8888698D01*
X8253277Y-8888698D02*
X8262801Y-8907746D01*
X8262801Y-8907746D02*
X8262801Y-8964889D01*
X8262801Y-8964889D02*
X8253277Y-8983936D01*
X8253277Y-8983936D02*
X8243753Y-8993460D01*
X8243753Y-8993460D02*
X8224706Y-9002984D01*
X8224706Y-9002984D02*
X8196134Y-9002984D01*
X8377087Y-9002984D02*
X8358039Y-8993460D01*
X8358039Y-8993460D02*
X8348515Y-8974412D01*
X8348515Y-8974412D02*
X8348515Y-8802984D01*
X8529468Y-8993460D02*
X8510420Y-9002984D01*
X8510420Y-9002984D02*
X8472325Y-9002984D01*
X8472325Y-9002984D02*
X8453277Y-8993460D01*
X8453277Y-8993460D02*
X8443753Y-8974412D01*
X8443753Y-8974412D02*
X8443753Y-8898222D01*
X8443753Y-8898222D02*
X8453277Y-8879174D01*
X8453277Y-8879174D02*
X8472325Y-8869650D01*
X8472325Y-8869650D02*
X8510420Y-8869650D01*
X8510420Y-8869650D02*
X8529468Y-8879174D01*
X8529468Y-8879174D02*
X8538992Y-8898222D01*
X8538992Y-8898222D02*
X8538992Y-8917270D01*
X8538992Y-8917270D02*
X8443753Y-8936317D01*
X8615182Y-8993460D02*
X8634230Y-9002984D01*
X8634230Y-9002984D02*
X8672325Y-9002984D01*
X8672325Y-9002984D02*
X8691373Y-8993460D01*
X8691373Y-8993460D02*
X8700896Y-8974412D01*
X8700896Y-8974412D02*
X8700896Y-8964889D01*
X8700896Y-8964889D02*
X8691373Y-8945841D01*
X8691373Y-8945841D02*
X8672325Y-8936317D01*
X8672325Y-8936317D02*
X8643753Y-8936317D01*
X8643753Y-8936317D02*
X8624706Y-8926793D01*
X8624706Y-8926793D02*
X8615182Y-8907746D01*
X8615182Y-8907746D02*
X8615182Y-8898222D01*
X8615182Y-8898222D02*
X8624706Y-8879174D01*
X8624706Y-8879174D02*
X8643753Y-8869650D01*
X8643753Y-8869650D02*
X8672325Y-8869650D01*
X8672325Y-8869650D02*
X8691373Y-8879174D01*
X8767563Y-9079174D02*
X8777087Y-9069650D01*
X8777087Y-9069650D02*
X8796134Y-9041079D01*
X8796134Y-9041079D02*
X8805658Y-9022031D01*
X8805658Y-9022031D02*
X8815182Y-8993460D01*
X8815182Y-8993460D02*
X8824706Y-8945841D01*
X8824706Y-8945841D02*
X8824706Y-8907746D01*
X8824706Y-8907746D02*
X8815182Y-8860127D01*
X8815182Y-8860127D02*
X8805658Y-8831555D01*
X8805658Y-8831555D02*
X8796134Y-8812508D01*
X8796134Y-8812508D02*
X8777087Y-8783936D01*
X8777087Y-8783936D02*
X8767563Y-8774412D01*
X9129468Y-9079174D02*
X9119944Y-9069650D01*
X9119944Y-9069650D02*
X9100896Y-9041079D01*
X9100896Y-9041079D02*
X9091373Y-9022031D01*
X9091373Y-9022031D02*
X9081849Y-8993460D01*
X9081849Y-8993460D02*
X9072325Y-8945841D01*
X9072325Y-8945841D02*
X9072325Y-8907746D01*
X9072325Y-8907746D02*
X9081849Y-8860127D01*
X9081849Y-8860127D02*
X9091373Y-8831555D01*
X9091373Y-8831555D02*
X9100896Y-8812508D01*
X9100896Y-8812508D02*
X9119944Y-8783936D01*
X9119944Y-8783936D02*
X9129468Y-8774412D01*
X9205658Y-8869650D02*
X9205658Y-9002984D01*
X9205658Y-8888698D02*
X9215182Y-8879174D01*
X9215182Y-8879174D02*
X9234230Y-8869650D01*
X9234230Y-8869650D02*
X9262801Y-8869650D01*
X9262801Y-8869650D02*
X9281849Y-8879174D01*
X9281849Y-8879174D02*
X9291373Y-8898222D01*
X9291373Y-8898222D02*
X9291373Y-9002984D01*
X9415182Y-9002984D02*
X9396134Y-8993460D01*
X9396134Y-8993460D02*
X9386611Y-8983936D01*
X9386611Y-8983936D02*
X9377087Y-8964889D01*
X9377087Y-8964889D02*
X9377087Y-8907746D01*
X9377087Y-8907746D02*
X9386611Y-8888698D01*
X9386611Y-8888698D02*
X9396134Y-8879174D01*
X9396134Y-8879174D02*
X9415182Y-8869650D01*
X9415182Y-8869650D02*
X9443754Y-8869650D01*
X9443754Y-8869650D02*
X9462801Y-8879174D01*
X9462801Y-8879174D02*
X9472325Y-8888698D01*
X9472325Y-8888698D02*
X9481849Y-8907746D01*
X9481849Y-8907746D02*
X9481849Y-8964889D01*
X9481849Y-8964889D02*
X9472325Y-8983936D01*
X9472325Y-8983936D02*
X9462801Y-8993460D01*
X9462801Y-8993460D02*
X9443754Y-9002984D01*
X9443754Y-9002984D02*
X9415182Y-9002984D01*
X9538992Y-8869650D02*
X9615182Y-8869650D01*
X9567563Y-8802984D02*
X9567563Y-8974412D01*
X9567563Y-8974412D02*
X9577087Y-8993460D01*
X9577087Y-8993460D02*
X9596134Y-9002984D01*
X9596134Y-9002984D02*
X9615182Y-9002984D01*
X9834230Y-8869650D02*
X9834230Y-9069650D01*
X9834230Y-8879174D02*
X9853277Y-8869650D01*
X9853277Y-8869650D02*
X9891373Y-8869650D01*
X9891373Y-8869650D02*
X9910420Y-8879174D01*
X9910420Y-8879174D02*
X9919944Y-8888698D01*
X9919944Y-8888698D02*
X9929468Y-8907746D01*
X9929468Y-8907746D02*
X9929468Y-8964889D01*
X9929468Y-8964889D02*
X9919944Y-8983936D01*
X9919944Y-8983936D02*
X9910420Y-8993460D01*
X9910420Y-8993460D02*
X9891373Y-9002984D01*
X9891373Y-9002984D02*
X9853277Y-9002984D01*
X9853277Y-9002984D02*
X9834230Y-8993460D01*
X10043754Y-9002984D02*
X10024706Y-8993460D01*
X10024706Y-8993460D02*
X10015182Y-8974412D01*
X10015182Y-8974412D02*
X10015182Y-8802984D01*
X10205658Y-9002984D02*
X10205658Y-8898222D01*
X10205658Y-8898222D02*
X10196135Y-8879174D01*
X10196135Y-8879174D02*
X10177087Y-8869650D01*
X10177087Y-8869650D02*
X10138992Y-8869650D01*
X10138992Y-8869650D02*
X10119944Y-8879174D01*
X10205658Y-8993460D02*
X10186611Y-9002984D01*
X10186611Y-9002984D02*
X10138992Y-9002984D01*
X10138992Y-9002984D02*
X10119944Y-8993460D01*
X10119944Y-8993460D02*
X10110420Y-8974412D01*
X10110420Y-8974412D02*
X10110420Y-8955365D01*
X10110420Y-8955365D02*
X10119944Y-8936317D01*
X10119944Y-8936317D02*
X10138992Y-8926793D01*
X10138992Y-8926793D02*
X10186611Y-8926793D01*
X10186611Y-8926793D02*
X10205658Y-8917270D01*
X10272325Y-8869650D02*
X10348515Y-8869650D01*
X10300896Y-8802984D02*
X10300896Y-8974412D01*
X10300896Y-8974412D02*
X10310420Y-8993460D01*
X10310420Y-8993460D02*
X10329468Y-9002984D01*
X10329468Y-9002984D02*
X10348515Y-9002984D01*
X10491373Y-8993460D02*
X10472325Y-9002984D01*
X10472325Y-9002984D02*
X10434230Y-9002984D01*
X10434230Y-9002984D02*
X10415182Y-8993460D01*
X10415182Y-8993460D02*
X10405658Y-8974412D01*
X10405658Y-8974412D02*
X10405658Y-8898222D01*
X10405658Y-8898222D02*
X10415182Y-8879174D01*
X10415182Y-8879174D02*
X10434230Y-8869650D01*
X10434230Y-8869650D02*
X10472325Y-8869650D01*
X10472325Y-8869650D02*
X10491373Y-8879174D01*
X10491373Y-8879174D02*
X10500896Y-8898222D01*
X10500896Y-8898222D02*
X10500896Y-8917270D01*
X10500896Y-8917270D02*
X10405658Y-8936317D01*
X10672325Y-9002984D02*
X10672325Y-8802984D01*
X10672325Y-8993460D02*
X10653277Y-9002984D01*
X10653277Y-9002984D02*
X10615182Y-9002984D01*
X10615182Y-9002984D02*
X10596135Y-8993460D01*
X10596135Y-8993460D02*
X10586611Y-8983936D01*
X10586611Y-8983936D02*
X10577087Y-8964889D01*
X10577087Y-8964889D02*
X10577087Y-8907746D01*
X10577087Y-8907746D02*
X10586611Y-8888698D01*
X10586611Y-8888698D02*
X10596135Y-8879174D01*
X10596135Y-8879174D02*
X10615182Y-8869650D01*
X10615182Y-8869650D02*
X10653277Y-8869650D01*
X10653277Y-8869650D02*
X10672325Y-8879174D01*
X10748516Y-9079174D02*
X10758039Y-9069650D01*
X10758039Y-9069650D02*
X10777087Y-9041079D01*
X10777087Y-9041079D02*
X10786611Y-9022031D01*
X10786611Y-9022031D02*
X10796135Y-8993460D01*
X10796135Y-8993460D02*
X10805658Y-8945841D01*
X10805658Y-8945841D02*
X10805658Y-8907746D01*
X10805658Y-8907746D02*
X10796135Y-8860127D01*
X10796135Y-8860127D02*
X10786611Y-8831555D01*
X10786611Y-8831555D02*
X10777087Y-8812508D01*
X10777087Y-8812508D02*
X10758039Y-8783936D01*
X10758039Y-8783936D02*
X10748516Y-8774412D01*
M02*
