%TF.GenerationSoftware,KiCad,Pcbnew,7.0.6*%
%TF.CreationDate,2023-08-14T14:17:20+01:00*%
%TF.ProjectId,canhat,63616e68-6174-42e6-9b69-6361645f7063,8*%
%TF.SameCoordinates,Original*%
%TF.FileFunction,Legend,Top*%
%TF.FilePolarity,Positive*%
%FSLAX46Y46*%
G04 Gerber Fmt 4.6, Leading zero omitted, Abs format (unit mm)*
G04 Created by KiCad (PCBNEW 7.0.6) date 2023-08-14 14:17:20*
%MOMM*%
%LPD*%
G01*
G04 APERTURE LIST*
%ADD10C,0.150000*%
%ADD11C,0.100000*%
%ADD12C,0.200000*%
%ADD13C,0.120000*%
%ADD14C,0.010000*%
G04 APERTURE END LIST*
D10*
X48186133Y-58419048D02*
X48186133Y-59180953D01*
X47805180Y-60180952D02*
X47805180Y-59609524D01*
X47805180Y-59895238D02*
X48805180Y-59895238D01*
X48805180Y-59895238D02*
X48662323Y-59800000D01*
X48662323Y-59800000D02*
X48567085Y-59704762D01*
X48567085Y-59704762D02*
X48519466Y-59609524D01*
X48709942Y-60561905D02*
X48757561Y-60609524D01*
X48757561Y-60609524D02*
X48805180Y-60704762D01*
X48805180Y-60704762D02*
X48805180Y-60942857D01*
X48805180Y-60942857D02*
X48757561Y-61038095D01*
X48757561Y-61038095D02*
X48709942Y-61085714D01*
X48709942Y-61085714D02*
X48614704Y-61133333D01*
X48614704Y-61133333D02*
X48519466Y-61133333D01*
X48519466Y-61133333D02*
X48376609Y-61085714D01*
X48376609Y-61085714D02*
X47805180Y-60514286D01*
X47805180Y-60514286D02*
X47805180Y-61133333D01*
X48805180Y-61419048D02*
X47805180Y-61752381D01*
X47805180Y-61752381D02*
X48805180Y-62085714D01*
X48186133Y-62419048D02*
X48186133Y-63180953D01*
X47805180Y-62800000D02*
X48567085Y-62800000D01*
X49161904Y-71983390D02*
X50114285Y-71983390D01*
X49352380Y-72269104D02*
X49923808Y-72269104D01*
X49638094Y-71554819D02*
X49638094Y-71983390D01*
X49733332Y-72554819D02*
X49542856Y-72554819D01*
X52780952Y-72554819D02*
X52780952Y-71554819D01*
X52780952Y-72031009D02*
X53352380Y-72031009D01*
X53352380Y-72554819D02*
X53352380Y-71554819D01*
X54209523Y-71792914D02*
X54209523Y-72554819D01*
X54399999Y-72364342D02*
X54209523Y-72554819D01*
X54209523Y-72554819D02*
X54019047Y-72364342D01*
X55542856Y-72554819D02*
X55066666Y-72554819D01*
X55066666Y-72554819D02*
X55066666Y-71554819D01*
X57876190Y-72554819D02*
X57400000Y-72554819D01*
X57400000Y-72554819D02*
X57400000Y-71554819D01*
X58590476Y-72554819D02*
X58590476Y-71792914D01*
X58400000Y-71983390D02*
X58590476Y-71792914D01*
X58590476Y-71792914D02*
X58780952Y-71983390D01*
X59447619Y-72554819D02*
X59447619Y-71554819D01*
X59447619Y-72031009D02*
X60019047Y-72031009D01*
X60019047Y-72554819D02*
X60019047Y-71554819D01*
X62685715Y-71983390D02*
X63638096Y-71983390D01*
X62876191Y-72269104D02*
X63447619Y-72269104D01*
X63161905Y-71554819D02*
X63161905Y-71983390D01*
X63257143Y-72554819D02*
X63066667Y-72554819D01*
D11*
X51426109Y-60277068D02*
X51426109Y-60515163D01*
X51426109Y-60515163D02*
X51664204Y-60538972D01*
X51664204Y-60538972D02*
X51640395Y-60515163D01*
X51640395Y-60515163D02*
X51616585Y-60467544D01*
X51616585Y-60467544D02*
X51616585Y-60348496D01*
X51616585Y-60348496D02*
X51640395Y-60300877D01*
X51640395Y-60300877D02*
X51664204Y-60277068D01*
X51664204Y-60277068D02*
X51711823Y-60253258D01*
X51711823Y-60253258D02*
X51830871Y-60253258D01*
X51830871Y-60253258D02*
X51878490Y-60277068D01*
X51878490Y-60277068D02*
X51902300Y-60300877D01*
X51902300Y-60300877D02*
X51926109Y-60348496D01*
X51926109Y-60348496D02*
X51926109Y-60467544D01*
X51926109Y-60467544D02*
X51902300Y-60515163D01*
X51902300Y-60515163D02*
X51878490Y-60538972D01*
X51426109Y-60110401D02*
X51926109Y-59943735D01*
X51926109Y-59943735D02*
X51426109Y-59777068D01*
X51926109Y-59610402D02*
X51426109Y-59610402D01*
X51926109Y-59372307D02*
X51426109Y-59372307D01*
X51426109Y-59372307D02*
X51926109Y-59086593D01*
X51926109Y-59086593D02*
X51426109Y-59086593D01*
D12*
X85541101Y-75346980D02*
X85493482Y-75394600D01*
X85493482Y-75394600D02*
X85350625Y-75442219D01*
X85350625Y-75442219D02*
X85255387Y-75442219D01*
X85255387Y-75442219D02*
X85112530Y-75394600D01*
X85112530Y-75394600D02*
X85017292Y-75299361D01*
X85017292Y-75299361D02*
X84969673Y-75204123D01*
X84969673Y-75204123D02*
X84922054Y-75013647D01*
X84922054Y-75013647D02*
X84922054Y-74870790D01*
X84922054Y-74870790D02*
X84969673Y-74680314D01*
X84969673Y-74680314D02*
X85017292Y-74585076D01*
X85017292Y-74585076D02*
X85112530Y-74489838D01*
X85112530Y-74489838D02*
X85255387Y-74442219D01*
X85255387Y-74442219D02*
X85350625Y-74442219D01*
X85350625Y-74442219D02*
X85493482Y-74489838D01*
X85493482Y-74489838D02*
X85541101Y-74537457D01*
X85922054Y-75156504D02*
X86398244Y-75156504D01*
X85826816Y-75442219D02*
X86160149Y-74442219D01*
X86160149Y-74442219D02*
X86493482Y-75442219D01*
X86826816Y-75442219D02*
X86826816Y-74442219D01*
X86826816Y-74442219D02*
X87398244Y-75442219D01*
X87398244Y-75442219D02*
X87398244Y-74442219D01*
X88636340Y-75442219D02*
X88636340Y-74442219D01*
X88636340Y-74918409D02*
X89207768Y-74918409D01*
X89207768Y-75442219D02*
X89207768Y-74442219D01*
X89636340Y-75156504D02*
X90112530Y-75156504D01*
X89541102Y-75442219D02*
X89874435Y-74442219D01*
X89874435Y-74442219D02*
X90207768Y-75442219D01*
X90398245Y-74442219D02*
X90969673Y-74442219D01*
X90683959Y-75442219D02*
X90683959Y-74442219D01*
X91922055Y-74442219D02*
X92255388Y-75442219D01*
X92255388Y-75442219D02*
X92588721Y-74442219D01*
X93064912Y-74870790D02*
X92969674Y-74823171D01*
X92969674Y-74823171D02*
X92922055Y-74775552D01*
X92922055Y-74775552D02*
X92874436Y-74680314D01*
X92874436Y-74680314D02*
X92874436Y-74632695D01*
X92874436Y-74632695D02*
X92922055Y-74537457D01*
X92922055Y-74537457D02*
X92969674Y-74489838D01*
X92969674Y-74489838D02*
X93064912Y-74442219D01*
X93064912Y-74442219D02*
X93255388Y-74442219D01*
X93255388Y-74442219D02*
X93350626Y-74489838D01*
X93350626Y-74489838D02*
X93398245Y-74537457D01*
X93398245Y-74537457D02*
X93445864Y-74632695D01*
X93445864Y-74632695D02*
X93445864Y-74680314D01*
X93445864Y-74680314D02*
X93398245Y-74775552D01*
X93398245Y-74775552D02*
X93350626Y-74823171D01*
X93350626Y-74823171D02*
X93255388Y-74870790D01*
X93255388Y-74870790D02*
X93064912Y-74870790D01*
X93064912Y-74870790D02*
X92969674Y-74918409D01*
X92969674Y-74918409D02*
X92922055Y-74966028D01*
X92922055Y-74966028D02*
X92874436Y-75061266D01*
X92874436Y-75061266D02*
X92874436Y-75251742D01*
X92874436Y-75251742D02*
X92922055Y-75346980D01*
X92922055Y-75346980D02*
X92969674Y-75394600D01*
X92969674Y-75394600D02*
X93064912Y-75442219D01*
X93064912Y-75442219D02*
X93255388Y-75442219D01*
X93255388Y-75442219D02*
X93350626Y-75394600D01*
X93350626Y-75394600D02*
X93398245Y-75346980D01*
X93398245Y-75346980D02*
X93445864Y-75251742D01*
X93445864Y-75251742D02*
X93445864Y-75061266D01*
X93445864Y-75061266D02*
X93398245Y-74966028D01*
X93398245Y-74966028D02*
X93350626Y-74918409D01*
X93350626Y-74918409D02*
X93255388Y-74870790D01*
X84826816Y-76385552D02*
X85207768Y-76385552D01*
X84969673Y-77052219D02*
X84969673Y-76195076D01*
X84969673Y-76195076D02*
X85017292Y-76099838D01*
X85017292Y-76099838D02*
X85112530Y-76052219D01*
X85112530Y-76052219D02*
X85207768Y-76052219D01*
X85683959Y-77052219D02*
X85588721Y-77004600D01*
X85588721Y-77004600D02*
X85541102Y-76956980D01*
X85541102Y-76956980D02*
X85493483Y-76861742D01*
X85493483Y-76861742D02*
X85493483Y-76576028D01*
X85493483Y-76576028D02*
X85541102Y-76480790D01*
X85541102Y-76480790D02*
X85588721Y-76433171D01*
X85588721Y-76433171D02*
X85683959Y-76385552D01*
X85683959Y-76385552D02*
X85826816Y-76385552D01*
X85826816Y-76385552D02*
X85922054Y-76433171D01*
X85922054Y-76433171D02*
X85969673Y-76480790D01*
X85969673Y-76480790D02*
X86017292Y-76576028D01*
X86017292Y-76576028D02*
X86017292Y-76861742D01*
X86017292Y-76861742D02*
X85969673Y-76956980D01*
X85969673Y-76956980D02*
X85922054Y-77004600D01*
X85922054Y-77004600D02*
X85826816Y-77052219D01*
X85826816Y-77052219D02*
X85683959Y-77052219D01*
X86445864Y-77052219D02*
X86445864Y-76385552D01*
X86445864Y-76576028D02*
X86493483Y-76480790D01*
X86493483Y-76480790D02*
X86541102Y-76433171D01*
X86541102Y-76433171D02*
X86636340Y-76385552D01*
X86636340Y-76385552D02*
X86731578Y-76385552D01*
X88398245Y-77052219D02*
X88064912Y-76576028D01*
X87826817Y-77052219D02*
X87826817Y-76052219D01*
X87826817Y-76052219D02*
X88207769Y-76052219D01*
X88207769Y-76052219D02*
X88303007Y-76099838D01*
X88303007Y-76099838D02*
X88350626Y-76147457D01*
X88350626Y-76147457D02*
X88398245Y-76242695D01*
X88398245Y-76242695D02*
X88398245Y-76385552D01*
X88398245Y-76385552D02*
X88350626Y-76480790D01*
X88350626Y-76480790D02*
X88303007Y-76528409D01*
X88303007Y-76528409D02*
X88207769Y-76576028D01*
X88207769Y-76576028D02*
X87826817Y-76576028D01*
X89255388Y-77052219D02*
X89255388Y-76528409D01*
X89255388Y-76528409D02*
X89207769Y-76433171D01*
X89207769Y-76433171D02*
X89112531Y-76385552D01*
X89112531Y-76385552D02*
X88922055Y-76385552D01*
X88922055Y-76385552D02*
X88826817Y-76433171D01*
X89255388Y-77004600D02*
X89160150Y-77052219D01*
X89160150Y-77052219D02*
X88922055Y-77052219D01*
X88922055Y-77052219D02*
X88826817Y-77004600D01*
X88826817Y-77004600D02*
X88779198Y-76909361D01*
X88779198Y-76909361D02*
X88779198Y-76814123D01*
X88779198Y-76814123D02*
X88826817Y-76718885D01*
X88826817Y-76718885D02*
X88922055Y-76671266D01*
X88922055Y-76671266D02*
X89160150Y-76671266D01*
X89160150Y-76671266D02*
X89255388Y-76623647D01*
X89683960Y-77004600D02*
X89779198Y-77052219D01*
X89779198Y-77052219D02*
X89969674Y-77052219D01*
X89969674Y-77052219D02*
X90064912Y-77004600D01*
X90064912Y-77004600D02*
X90112531Y-76909361D01*
X90112531Y-76909361D02*
X90112531Y-76861742D01*
X90112531Y-76861742D02*
X90064912Y-76766504D01*
X90064912Y-76766504D02*
X89969674Y-76718885D01*
X89969674Y-76718885D02*
X89826817Y-76718885D01*
X89826817Y-76718885D02*
X89731579Y-76671266D01*
X89731579Y-76671266D02*
X89683960Y-76576028D01*
X89683960Y-76576028D02*
X89683960Y-76528409D01*
X89683960Y-76528409D02*
X89731579Y-76433171D01*
X89731579Y-76433171D02*
X89826817Y-76385552D01*
X89826817Y-76385552D02*
X89969674Y-76385552D01*
X89969674Y-76385552D02*
X90064912Y-76433171D01*
X90541103Y-76385552D02*
X90541103Y-77385552D01*
X90541103Y-76433171D02*
X90636341Y-76385552D01*
X90636341Y-76385552D02*
X90826817Y-76385552D01*
X90826817Y-76385552D02*
X90922055Y-76433171D01*
X90922055Y-76433171D02*
X90969674Y-76480790D01*
X90969674Y-76480790D02*
X91017293Y-76576028D01*
X91017293Y-76576028D02*
X91017293Y-76861742D01*
X91017293Y-76861742D02*
X90969674Y-76956980D01*
X90969674Y-76956980D02*
X90922055Y-77004600D01*
X90922055Y-77004600D02*
X90826817Y-77052219D01*
X90826817Y-77052219D02*
X90636341Y-77052219D01*
X90636341Y-77052219D02*
X90541103Y-77004600D01*
X91445865Y-77052219D02*
X91445865Y-76052219D01*
X91445865Y-76433171D02*
X91541103Y-76385552D01*
X91541103Y-76385552D02*
X91731579Y-76385552D01*
X91731579Y-76385552D02*
X91826817Y-76433171D01*
X91826817Y-76433171D02*
X91874436Y-76480790D01*
X91874436Y-76480790D02*
X91922055Y-76576028D01*
X91922055Y-76576028D02*
X91922055Y-76861742D01*
X91922055Y-76861742D02*
X91874436Y-76956980D01*
X91874436Y-76956980D02*
X91826817Y-77004600D01*
X91826817Y-77004600D02*
X91731579Y-77052219D01*
X91731579Y-77052219D02*
X91541103Y-77052219D01*
X91541103Y-77052219D02*
X91445865Y-77004600D01*
X92731579Y-77004600D02*
X92636341Y-77052219D01*
X92636341Y-77052219D02*
X92445865Y-77052219D01*
X92445865Y-77052219D02*
X92350627Y-77004600D01*
X92350627Y-77004600D02*
X92303008Y-76909361D01*
X92303008Y-76909361D02*
X92303008Y-76528409D01*
X92303008Y-76528409D02*
X92350627Y-76433171D01*
X92350627Y-76433171D02*
X92445865Y-76385552D01*
X92445865Y-76385552D02*
X92636341Y-76385552D01*
X92636341Y-76385552D02*
X92731579Y-76433171D01*
X92731579Y-76433171D02*
X92779198Y-76528409D01*
X92779198Y-76528409D02*
X92779198Y-76623647D01*
X92779198Y-76623647D02*
X92303008Y-76718885D01*
X93207770Y-77052219D02*
X93207770Y-76385552D01*
X93207770Y-76576028D02*
X93255389Y-76480790D01*
X93255389Y-76480790D02*
X93303008Y-76433171D01*
X93303008Y-76433171D02*
X93398246Y-76385552D01*
X93398246Y-76385552D02*
X93493484Y-76385552D01*
X93826818Y-77052219D02*
X93826818Y-76385552D01*
X93826818Y-76576028D02*
X93874437Y-76480790D01*
X93874437Y-76480790D02*
X93922056Y-76433171D01*
X93922056Y-76433171D02*
X94017294Y-76385552D01*
X94017294Y-76385552D02*
X94112532Y-76385552D01*
X94350628Y-76385552D02*
X94588723Y-77052219D01*
X94826818Y-76385552D02*
X94588723Y-77052219D01*
X94588723Y-77052219D02*
X94493485Y-77290314D01*
X94493485Y-77290314D02*
X94445866Y-77337933D01*
X94445866Y-77337933D02*
X94350628Y-77385552D01*
X95969676Y-77052219D02*
X95969676Y-76052219D01*
X95969676Y-76052219D02*
X96350628Y-76052219D01*
X96350628Y-76052219D02*
X96445866Y-76099838D01*
X96445866Y-76099838D02*
X96493485Y-76147457D01*
X96493485Y-76147457D02*
X96541104Y-76242695D01*
X96541104Y-76242695D02*
X96541104Y-76385552D01*
X96541104Y-76385552D02*
X96493485Y-76480790D01*
X96493485Y-76480790D02*
X96445866Y-76528409D01*
X96445866Y-76528409D02*
X96350628Y-76576028D01*
X96350628Y-76576028D02*
X95969676Y-76576028D01*
X96969676Y-77052219D02*
X96969676Y-76385552D01*
X96969676Y-76052219D02*
X96922057Y-76099838D01*
X96922057Y-76099838D02*
X96969676Y-76147457D01*
X96969676Y-76147457D02*
X97017295Y-76099838D01*
X97017295Y-76099838D02*
X96969676Y-76052219D01*
X96969676Y-76052219D02*
X96969676Y-76147457D01*
X85779197Y-77900314D02*
X85683958Y-77852695D01*
X85683958Y-77852695D02*
X85493482Y-77852695D01*
X85493482Y-77852695D02*
X85398244Y-77900314D01*
X85398244Y-77900314D02*
X85303006Y-77995552D01*
X85303006Y-77995552D02*
X85255387Y-78090790D01*
X85255387Y-78090790D02*
X85255387Y-78281266D01*
X85255387Y-78281266D02*
X85303006Y-78376504D01*
X85303006Y-78376504D02*
X85398244Y-78471742D01*
X85398244Y-78471742D02*
X85493482Y-78519361D01*
X85493482Y-78519361D02*
X85683958Y-78519361D01*
X85683958Y-78519361D02*
X85779197Y-78471742D01*
X85588720Y-77519361D02*
X85350625Y-77566980D01*
X85350625Y-77566980D02*
X85112530Y-77709838D01*
X85112530Y-77709838D02*
X84969673Y-77947933D01*
X84969673Y-77947933D02*
X84922054Y-78186028D01*
X84922054Y-78186028D02*
X84969673Y-78424123D01*
X84969673Y-78424123D02*
X85112530Y-78662219D01*
X85112530Y-78662219D02*
X85350625Y-78805076D01*
X85350625Y-78805076D02*
X85588720Y-78852695D01*
X85588720Y-78852695D02*
X85826816Y-78805076D01*
X85826816Y-78805076D02*
X86064911Y-78662219D01*
X86064911Y-78662219D02*
X86207768Y-78424123D01*
X86207768Y-78424123D02*
X86255387Y-78186028D01*
X86255387Y-78186028D02*
X86207768Y-77947933D01*
X86207768Y-77947933D02*
X86064911Y-77709838D01*
X86064911Y-77709838D02*
X85826816Y-77566980D01*
X85826816Y-77566980D02*
X85588720Y-77519361D01*
X87398245Y-77757457D02*
X87445864Y-77709838D01*
X87445864Y-77709838D02*
X87541102Y-77662219D01*
X87541102Y-77662219D02*
X87779197Y-77662219D01*
X87779197Y-77662219D02*
X87874435Y-77709838D01*
X87874435Y-77709838D02*
X87922054Y-77757457D01*
X87922054Y-77757457D02*
X87969673Y-77852695D01*
X87969673Y-77852695D02*
X87969673Y-77947933D01*
X87969673Y-77947933D02*
X87922054Y-78090790D01*
X87922054Y-78090790D02*
X87350626Y-78662219D01*
X87350626Y-78662219D02*
X87969673Y-78662219D01*
X88588721Y-77662219D02*
X88683959Y-77662219D01*
X88683959Y-77662219D02*
X88779197Y-77709838D01*
X88779197Y-77709838D02*
X88826816Y-77757457D01*
X88826816Y-77757457D02*
X88874435Y-77852695D01*
X88874435Y-77852695D02*
X88922054Y-78043171D01*
X88922054Y-78043171D02*
X88922054Y-78281266D01*
X88922054Y-78281266D02*
X88874435Y-78471742D01*
X88874435Y-78471742D02*
X88826816Y-78566980D01*
X88826816Y-78566980D02*
X88779197Y-78614600D01*
X88779197Y-78614600D02*
X88683959Y-78662219D01*
X88683959Y-78662219D02*
X88588721Y-78662219D01*
X88588721Y-78662219D02*
X88493483Y-78614600D01*
X88493483Y-78614600D02*
X88445864Y-78566980D01*
X88445864Y-78566980D02*
X88398245Y-78471742D01*
X88398245Y-78471742D02*
X88350626Y-78281266D01*
X88350626Y-78281266D02*
X88350626Y-78043171D01*
X88350626Y-78043171D02*
X88398245Y-77852695D01*
X88398245Y-77852695D02*
X88445864Y-77757457D01*
X88445864Y-77757457D02*
X88493483Y-77709838D01*
X88493483Y-77709838D02*
X88588721Y-77662219D01*
X89303007Y-77757457D02*
X89350626Y-77709838D01*
X89350626Y-77709838D02*
X89445864Y-77662219D01*
X89445864Y-77662219D02*
X89683959Y-77662219D01*
X89683959Y-77662219D02*
X89779197Y-77709838D01*
X89779197Y-77709838D02*
X89826816Y-77757457D01*
X89826816Y-77757457D02*
X89874435Y-77852695D01*
X89874435Y-77852695D02*
X89874435Y-77947933D01*
X89874435Y-77947933D02*
X89826816Y-78090790D01*
X89826816Y-78090790D02*
X89255388Y-78662219D01*
X89255388Y-78662219D02*
X89874435Y-78662219D01*
X90207769Y-77662219D02*
X90826816Y-77662219D01*
X90826816Y-77662219D02*
X90493483Y-78043171D01*
X90493483Y-78043171D02*
X90636340Y-78043171D01*
X90636340Y-78043171D02*
X90731578Y-78090790D01*
X90731578Y-78090790D02*
X90779197Y-78138409D01*
X90779197Y-78138409D02*
X90826816Y-78233647D01*
X90826816Y-78233647D02*
X90826816Y-78471742D01*
X90826816Y-78471742D02*
X90779197Y-78566980D01*
X90779197Y-78566980D02*
X90731578Y-78614600D01*
X90731578Y-78614600D02*
X90636340Y-78662219D01*
X90636340Y-78662219D02*
X90350626Y-78662219D01*
X90350626Y-78662219D02*
X90255388Y-78614600D01*
X90255388Y-78614600D02*
X90207769Y-78566980D01*
X92160150Y-78662219D02*
X92064912Y-78614600D01*
X92064912Y-78614600D02*
X92017293Y-78566980D01*
X92017293Y-78566980D02*
X91969674Y-78471742D01*
X91969674Y-78471742D02*
X91969674Y-78186028D01*
X91969674Y-78186028D02*
X92017293Y-78090790D01*
X92017293Y-78090790D02*
X92064912Y-78043171D01*
X92064912Y-78043171D02*
X92160150Y-77995552D01*
X92160150Y-77995552D02*
X92303007Y-77995552D01*
X92303007Y-77995552D02*
X92398245Y-78043171D01*
X92398245Y-78043171D02*
X92445864Y-78090790D01*
X92445864Y-78090790D02*
X92493483Y-78186028D01*
X92493483Y-78186028D02*
X92493483Y-78471742D01*
X92493483Y-78471742D02*
X92445864Y-78566980D01*
X92445864Y-78566980D02*
X92398245Y-78614600D01*
X92398245Y-78614600D02*
X92303007Y-78662219D01*
X92303007Y-78662219D02*
X92160150Y-78662219D01*
X92922055Y-77995552D02*
X92922055Y-78662219D01*
X92922055Y-78090790D02*
X92969674Y-78043171D01*
X92969674Y-78043171D02*
X93064912Y-77995552D01*
X93064912Y-77995552D02*
X93207769Y-77995552D01*
X93207769Y-77995552D02*
X93303007Y-78043171D01*
X93303007Y-78043171D02*
X93350626Y-78138409D01*
X93350626Y-78138409D02*
X93350626Y-78662219D01*
X93826817Y-78662219D02*
X93826817Y-77995552D01*
X93826817Y-77662219D02*
X93779198Y-77709838D01*
X93779198Y-77709838D02*
X93826817Y-77757457D01*
X93826817Y-77757457D02*
X93874436Y-77709838D01*
X93874436Y-77709838D02*
X93826817Y-77662219D01*
X93826817Y-77662219D02*
X93826817Y-77757457D01*
X94160150Y-77995552D02*
X94541102Y-77995552D01*
X94303007Y-77662219D02*
X94303007Y-78519361D01*
X94303007Y-78519361D02*
X94350626Y-78614600D01*
X94350626Y-78614600D02*
X94445864Y-78662219D01*
X94445864Y-78662219D02*
X94541102Y-78662219D01*
X95303007Y-78662219D02*
X95303007Y-78138409D01*
X95303007Y-78138409D02*
X95255388Y-78043171D01*
X95255388Y-78043171D02*
X95160150Y-77995552D01*
X95160150Y-77995552D02*
X94969674Y-77995552D01*
X94969674Y-77995552D02*
X94874436Y-78043171D01*
X95303007Y-78614600D02*
X95207769Y-78662219D01*
X95207769Y-78662219D02*
X94969674Y-78662219D01*
X94969674Y-78662219D02*
X94874436Y-78614600D01*
X94874436Y-78614600D02*
X94826817Y-78519361D01*
X94826817Y-78519361D02*
X94826817Y-78424123D01*
X94826817Y-78424123D02*
X94874436Y-78328885D01*
X94874436Y-78328885D02*
X94969674Y-78281266D01*
X94969674Y-78281266D02*
X95207769Y-78281266D01*
X95207769Y-78281266D02*
X95303007Y-78233647D01*
X95779198Y-78662219D02*
X95779198Y-77662219D01*
X95874436Y-78281266D02*
X96160150Y-78662219D01*
X96160150Y-77995552D02*
X95779198Y-78376504D01*
X96969674Y-78614600D02*
X96874436Y-78662219D01*
X96874436Y-78662219D02*
X96683960Y-78662219D01*
X96683960Y-78662219D02*
X96588722Y-78614600D01*
X96588722Y-78614600D02*
X96541103Y-78519361D01*
X96541103Y-78519361D02*
X96541103Y-78138409D01*
X96541103Y-78138409D02*
X96588722Y-78043171D01*
X96588722Y-78043171D02*
X96683960Y-77995552D01*
X96683960Y-77995552D02*
X96874436Y-77995552D01*
X96874436Y-77995552D02*
X96969674Y-78043171D01*
X96969674Y-78043171D02*
X97017293Y-78138409D01*
X97017293Y-78138409D02*
X97017293Y-78233647D01*
X97017293Y-78233647D02*
X96541103Y-78328885D01*
D10*
X104054819Y-71766666D02*
X103578628Y-72099999D01*
X104054819Y-72338094D02*
X103054819Y-72338094D01*
X103054819Y-72338094D02*
X103054819Y-71957142D01*
X103054819Y-71957142D02*
X103102438Y-71861904D01*
X103102438Y-71861904D02*
X103150057Y-71814285D01*
X103150057Y-71814285D02*
X103245295Y-71766666D01*
X103245295Y-71766666D02*
X103388152Y-71766666D01*
X103388152Y-71766666D02*
X103483390Y-71814285D01*
X103483390Y-71814285D02*
X103531009Y-71861904D01*
X103531009Y-71861904D02*
X103578628Y-71957142D01*
X103578628Y-71957142D02*
X103578628Y-72338094D01*
X103054819Y-71433332D02*
X103054819Y-70814285D01*
X103054819Y-70814285D02*
X103435771Y-71147618D01*
X103435771Y-71147618D02*
X103435771Y-71004761D01*
X103435771Y-71004761D02*
X103483390Y-70909523D01*
X103483390Y-70909523D02*
X103531009Y-70861904D01*
X103531009Y-70861904D02*
X103626247Y-70814285D01*
X103626247Y-70814285D02*
X103864342Y-70814285D01*
X103864342Y-70814285D02*
X103959580Y-70861904D01*
X103959580Y-70861904D02*
X104007200Y-70909523D01*
X104007200Y-70909523D02*
X104054819Y-71004761D01*
X104054819Y-71004761D02*
X104054819Y-71290475D01*
X104054819Y-71290475D02*
X104007200Y-71385713D01*
X104007200Y-71385713D02*
X103959580Y-71433332D01*
X104054819Y-69766666D02*
X103578628Y-70099999D01*
X104054819Y-70338094D02*
X103054819Y-70338094D01*
X103054819Y-70338094D02*
X103054819Y-69957142D01*
X103054819Y-69957142D02*
X103102438Y-69861904D01*
X103102438Y-69861904D02*
X103150057Y-69814285D01*
X103150057Y-69814285D02*
X103245295Y-69766666D01*
X103245295Y-69766666D02*
X103388152Y-69766666D01*
X103388152Y-69766666D02*
X103483390Y-69814285D01*
X103483390Y-69814285D02*
X103531009Y-69861904D01*
X103531009Y-69861904D02*
X103578628Y-69957142D01*
X103578628Y-69957142D02*
X103578628Y-70338094D01*
X103388152Y-68909523D02*
X104054819Y-68909523D01*
X103007200Y-69147618D02*
X103721485Y-69385713D01*
X103721485Y-69385713D02*
X103721485Y-68766666D01*
X83333333Y-60359580D02*
X83285714Y-60407200D01*
X83285714Y-60407200D02*
X83142857Y-60454819D01*
X83142857Y-60454819D02*
X83047619Y-60454819D01*
X83047619Y-60454819D02*
X82904762Y-60407200D01*
X82904762Y-60407200D02*
X82809524Y-60311961D01*
X82809524Y-60311961D02*
X82761905Y-60216723D01*
X82761905Y-60216723D02*
X82714286Y-60026247D01*
X82714286Y-60026247D02*
X82714286Y-59883390D01*
X82714286Y-59883390D02*
X82761905Y-59692914D01*
X82761905Y-59692914D02*
X82809524Y-59597676D01*
X82809524Y-59597676D02*
X82904762Y-59502438D01*
X82904762Y-59502438D02*
X83047619Y-59454819D01*
X83047619Y-59454819D02*
X83142857Y-59454819D01*
X83142857Y-59454819D02*
X83285714Y-59502438D01*
X83285714Y-59502438D02*
X83333333Y-59550057D01*
X84285714Y-60454819D02*
X83714286Y-60454819D01*
X84000000Y-60454819D02*
X84000000Y-59454819D01*
X84000000Y-59454819D02*
X83904762Y-59597676D01*
X83904762Y-59597676D02*
X83809524Y-59692914D01*
X83809524Y-59692914D02*
X83714286Y-59740533D01*
X73733333Y-72959580D02*
X73685714Y-73007200D01*
X73685714Y-73007200D02*
X73542857Y-73054819D01*
X73542857Y-73054819D02*
X73447619Y-73054819D01*
X73447619Y-73054819D02*
X73304762Y-73007200D01*
X73304762Y-73007200D02*
X73209524Y-72911961D01*
X73209524Y-72911961D02*
X73161905Y-72816723D01*
X73161905Y-72816723D02*
X73114286Y-72626247D01*
X73114286Y-72626247D02*
X73114286Y-72483390D01*
X73114286Y-72483390D02*
X73161905Y-72292914D01*
X73161905Y-72292914D02*
X73209524Y-72197676D01*
X73209524Y-72197676D02*
X73304762Y-72102438D01*
X73304762Y-72102438D02*
X73447619Y-72054819D01*
X73447619Y-72054819D02*
X73542857Y-72054819D01*
X73542857Y-72054819D02*
X73685714Y-72102438D01*
X73685714Y-72102438D02*
X73733333Y-72150057D01*
X74590476Y-72054819D02*
X74400000Y-72054819D01*
X74400000Y-72054819D02*
X74304762Y-72102438D01*
X74304762Y-72102438D02*
X74257143Y-72150057D01*
X74257143Y-72150057D02*
X74161905Y-72292914D01*
X74161905Y-72292914D02*
X74114286Y-72483390D01*
X74114286Y-72483390D02*
X74114286Y-72864342D01*
X74114286Y-72864342D02*
X74161905Y-72959580D01*
X74161905Y-72959580D02*
X74209524Y-73007200D01*
X74209524Y-73007200D02*
X74304762Y-73054819D01*
X74304762Y-73054819D02*
X74495238Y-73054819D01*
X74495238Y-73054819D02*
X74590476Y-73007200D01*
X74590476Y-73007200D02*
X74638095Y-72959580D01*
X74638095Y-72959580D02*
X74685714Y-72864342D01*
X74685714Y-72864342D02*
X74685714Y-72626247D01*
X74685714Y-72626247D02*
X74638095Y-72531009D01*
X74638095Y-72531009D02*
X74590476Y-72483390D01*
X74590476Y-72483390D02*
X74495238Y-72435771D01*
X74495238Y-72435771D02*
X74304762Y-72435771D01*
X74304762Y-72435771D02*
X74209524Y-72483390D01*
X74209524Y-72483390D02*
X74161905Y-72531009D01*
X74161905Y-72531009D02*
X74114286Y-72626247D01*
X74333333Y-58454819D02*
X74000000Y-57978628D01*
X73761905Y-58454819D02*
X73761905Y-57454819D01*
X73761905Y-57454819D02*
X74142857Y-57454819D01*
X74142857Y-57454819D02*
X74238095Y-57502438D01*
X74238095Y-57502438D02*
X74285714Y-57550057D01*
X74285714Y-57550057D02*
X74333333Y-57645295D01*
X74333333Y-57645295D02*
X74333333Y-57788152D01*
X74333333Y-57788152D02*
X74285714Y-57883390D01*
X74285714Y-57883390D02*
X74238095Y-57931009D01*
X74238095Y-57931009D02*
X74142857Y-57978628D01*
X74142857Y-57978628D02*
X73761905Y-57978628D01*
X75285714Y-58454819D02*
X74714286Y-58454819D01*
X75000000Y-58454819D02*
X75000000Y-57454819D01*
X75000000Y-57454819D02*
X74904762Y-57597676D01*
X74904762Y-57597676D02*
X74809524Y-57692914D01*
X74809524Y-57692914D02*
X74714286Y-57740533D01*
X80638095Y-57754819D02*
X80638095Y-58564342D01*
X80638095Y-58564342D02*
X80685714Y-58659580D01*
X80685714Y-58659580D02*
X80733333Y-58707200D01*
X80733333Y-58707200D02*
X80828571Y-58754819D01*
X80828571Y-58754819D02*
X81019047Y-58754819D01*
X81019047Y-58754819D02*
X81114285Y-58707200D01*
X81114285Y-58707200D02*
X81161904Y-58659580D01*
X81161904Y-58659580D02*
X81209523Y-58564342D01*
X81209523Y-58564342D02*
X81209523Y-57754819D01*
X82209523Y-58754819D02*
X81638095Y-58754819D01*
X81923809Y-58754819D02*
X81923809Y-57754819D01*
X81923809Y-57754819D02*
X81828571Y-57897676D01*
X81828571Y-57897676D02*
X81733333Y-57992914D01*
X81733333Y-57992914D02*
X81638095Y-58040533D01*
X70138095Y-72254819D02*
X70138095Y-73064342D01*
X70138095Y-73064342D02*
X70185714Y-73159580D01*
X70185714Y-73159580D02*
X70233333Y-73207200D01*
X70233333Y-73207200D02*
X70328571Y-73254819D01*
X70328571Y-73254819D02*
X70519047Y-73254819D01*
X70519047Y-73254819D02*
X70614285Y-73207200D01*
X70614285Y-73207200D02*
X70661904Y-73159580D01*
X70661904Y-73159580D02*
X70709523Y-73064342D01*
X70709523Y-73064342D02*
X70709523Y-72254819D01*
X71138095Y-72350057D02*
X71185714Y-72302438D01*
X71185714Y-72302438D02*
X71280952Y-72254819D01*
X71280952Y-72254819D02*
X71519047Y-72254819D01*
X71519047Y-72254819D02*
X71614285Y-72302438D01*
X71614285Y-72302438D02*
X71661904Y-72350057D01*
X71661904Y-72350057D02*
X71709523Y-72445295D01*
X71709523Y-72445295D02*
X71709523Y-72540533D01*
X71709523Y-72540533D02*
X71661904Y-72683390D01*
X71661904Y-72683390D02*
X71090476Y-73254819D01*
X71090476Y-73254819D02*
X71709523Y-73254819D01*
X94533333Y-64159580D02*
X94485714Y-64207200D01*
X94485714Y-64207200D02*
X94342857Y-64254819D01*
X94342857Y-64254819D02*
X94247619Y-64254819D01*
X94247619Y-64254819D02*
X94104762Y-64207200D01*
X94104762Y-64207200D02*
X94009524Y-64111961D01*
X94009524Y-64111961D02*
X93961905Y-64016723D01*
X93961905Y-64016723D02*
X93914286Y-63826247D01*
X93914286Y-63826247D02*
X93914286Y-63683390D01*
X93914286Y-63683390D02*
X93961905Y-63492914D01*
X93961905Y-63492914D02*
X94009524Y-63397676D01*
X94009524Y-63397676D02*
X94104762Y-63302438D01*
X94104762Y-63302438D02*
X94247619Y-63254819D01*
X94247619Y-63254819D02*
X94342857Y-63254819D01*
X94342857Y-63254819D02*
X94485714Y-63302438D01*
X94485714Y-63302438D02*
X94533333Y-63350057D01*
X94866667Y-63254819D02*
X95533333Y-63254819D01*
X95533333Y-63254819D02*
X95104762Y-64254819D01*
X102954819Y-65433333D02*
X103669104Y-65433333D01*
X103669104Y-65433333D02*
X103811961Y-65480952D01*
X103811961Y-65480952D02*
X103907200Y-65576190D01*
X103907200Y-65576190D02*
X103954819Y-65719047D01*
X103954819Y-65719047D02*
X103954819Y-65814285D01*
X103954819Y-64957142D02*
X102954819Y-64957142D01*
X102954819Y-64957142D02*
X102954819Y-64576190D01*
X102954819Y-64576190D02*
X103002438Y-64480952D01*
X103002438Y-64480952D02*
X103050057Y-64433333D01*
X103050057Y-64433333D02*
X103145295Y-64385714D01*
X103145295Y-64385714D02*
X103288152Y-64385714D01*
X103288152Y-64385714D02*
X103383390Y-64433333D01*
X103383390Y-64433333D02*
X103431009Y-64480952D01*
X103431009Y-64480952D02*
X103478628Y-64576190D01*
X103478628Y-64576190D02*
X103478628Y-64957142D01*
X103954819Y-63433333D02*
X103954819Y-64004761D01*
X103954819Y-63719047D02*
X102954819Y-63719047D01*
X102954819Y-63719047D02*
X103097676Y-63814285D01*
X103097676Y-63814285D02*
X103192914Y-63909523D01*
X103192914Y-63909523D02*
X103240533Y-64004761D01*
X104054819Y-67766666D02*
X103578628Y-68099999D01*
X104054819Y-68338094D02*
X103054819Y-68338094D01*
X103054819Y-68338094D02*
X103054819Y-67957142D01*
X103054819Y-67957142D02*
X103102438Y-67861904D01*
X103102438Y-67861904D02*
X103150057Y-67814285D01*
X103150057Y-67814285D02*
X103245295Y-67766666D01*
X103245295Y-67766666D02*
X103388152Y-67766666D01*
X103388152Y-67766666D02*
X103483390Y-67814285D01*
X103483390Y-67814285D02*
X103531009Y-67861904D01*
X103531009Y-67861904D02*
X103578628Y-67957142D01*
X103578628Y-67957142D02*
X103578628Y-68338094D01*
X103150057Y-67385713D02*
X103102438Y-67338094D01*
X103102438Y-67338094D02*
X103054819Y-67242856D01*
X103054819Y-67242856D02*
X103054819Y-67004761D01*
X103054819Y-67004761D02*
X103102438Y-66909523D01*
X103102438Y-66909523D02*
X103150057Y-66861904D01*
X103150057Y-66861904D02*
X103245295Y-66814285D01*
X103245295Y-66814285D02*
X103340533Y-66814285D01*
X103340533Y-66814285D02*
X103483390Y-66861904D01*
X103483390Y-66861904D02*
X104054819Y-67433332D01*
X104054819Y-67433332D02*
X104054819Y-66814285D01*
X90938095Y-65554819D02*
X90938095Y-66364342D01*
X90938095Y-66364342D02*
X90985714Y-66459580D01*
X90985714Y-66459580D02*
X91033333Y-66507200D01*
X91033333Y-66507200D02*
X91128571Y-66554819D01*
X91128571Y-66554819D02*
X91319047Y-66554819D01*
X91319047Y-66554819D02*
X91414285Y-66507200D01*
X91414285Y-66507200D02*
X91461904Y-66459580D01*
X91461904Y-66459580D02*
X91509523Y-66364342D01*
X91509523Y-66364342D02*
X91509523Y-65554819D01*
X91890476Y-65554819D02*
X92509523Y-65554819D01*
X92509523Y-65554819D02*
X92176190Y-65935771D01*
X92176190Y-65935771D02*
X92319047Y-65935771D01*
X92319047Y-65935771D02*
X92414285Y-65983390D01*
X92414285Y-65983390D02*
X92461904Y-66031009D01*
X92461904Y-66031009D02*
X92509523Y-66126247D01*
X92509523Y-66126247D02*
X92509523Y-66364342D01*
X92509523Y-66364342D02*
X92461904Y-66459580D01*
X92461904Y-66459580D02*
X92414285Y-66507200D01*
X92414285Y-66507200D02*
X92319047Y-66554819D01*
X92319047Y-66554819D02*
X92033333Y-66554819D01*
X92033333Y-66554819D02*
X91938095Y-66507200D01*
X91938095Y-66507200D02*
X91890476Y-66459580D01*
X86623809Y-58678628D02*
X86623809Y-59154819D01*
X86290476Y-58154819D02*
X86623809Y-58678628D01*
X86623809Y-58678628D02*
X86957142Y-58154819D01*
X87814285Y-59154819D02*
X87242857Y-59154819D01*
X87528571Y-59154819D02*
X87528571Y-58154819D01*
X87528571Y-58154819D02*
X87433333Y-58297676D01*
X87433333Y-58297676D02*
X87338095Y-58392914D01*
X87338095Y-58392914D02*
X87242857Y-58440533D01*
X46866666Y-78454819D02*
X46866666Y-79169104D01*
X46866666Y-79169104D02*
X46819047Y-79311961D01*
X46819047Y-79311961D02*
X46723809Y-79407200D01*
X46723809Y-79407200D02*
X46580952Y-79454819D01*
X46580952Y-79454819D02*
X46485714Y-79454819D01*
X47295238Y-78550057D02*
X47342857Y-78502438D01*
X47342857Y-78502438D02*
X47438095Y-78454819D01*
X47438095Y-78454819D02*
X47676190Y-78454819D01*
X47676190Y-78454819D02*
X47771428Y-78502438D01*
X47771428Y-78502438D02*
X47819047Y-78550057D01*
X47819047Y-78550057D02*
X47866666Y-78645295D01*
X47866666Y-78645295D02*
X47866666Y-78740533D01*
X47866666Y-78740533D02*
X47819047Y-78883390D01*
X47819047Y-78883390D02*
X47247619Y-79454819D01*
X47247619Y-79454819D02*
X47866666Y-79454819D01*
X44666666Y-71031009D02*
X44333333Y-71031009D01*
X44333333Y-71554819D02*
X44333333Y-70554819D01*
X44333333Y-70554819D02*
X44809523Y-70554819D01*
X45714285Y-71554819D02*
X45142857Y-71554819D01*
X45428571Y-71554819D02*
X45428571Y-70554819D01*
X45428571Y-70554819D02*
X45333333Y-70697676D01*
X45333333Y-70697676D02*
X45238095Y-70792914D01*
X45238095Y-70792914D02*
X45142857Y-70840533D01*
X45366666Y-56654819D02*
X45366666Y-57369104D01*
X45366666Y-57369104D02*
X45319047Y-57511961D01*
X45319047Y-57511961D02*
X45223809Y-57607200D01*
X45223809Y-57607200D02*
X45080952Y-57654819D01*
X45080952Y-57654819D02*
X44985714Y-57654819D01*
X46319047Y-56654819D02*
X45842857Y-56654819D01*
X45842857Y-56654819D02*
X45795238Y-57131009D01*
X45795238Y-57131009D02*
X45842857Y-57083390D01*
X45842857Y-57083390D02*
X45938095Y-57035771D01*
X45938095Y-57035771D02*
X46176190Y-57035771D01*
X46176190Y-57035771D02*
X46271428Y-57083390D01*
X46271428Y-57083390D02*
X46319047Y-57131009D01*
X46319047Y-57131009D02*
X46366666Y-57226247D01*
X46366666Y-57226247D02*
X46366666Y-57464342D01*
X46366666Y-57464342D02*
X46319047Y-57559580D01*
X46319047Y-57559580D02*
X46271428Y-57607200D01*
X46271428Y-57607200D02*
X46176190Y-57654819D01*
X46176190Y-57654819D02*
X45938095Y-57654819D01*
X45938095Y-57654819D02*
X45842857Y-57607200D01*
X45842857Y-57607200D02*
X45795238Y-57559580D01*
X66659580Y-59266666D02*
X66707200Y-59314285D01*
X66707200Y-59314285D02*
X66754819Y-59457142D01*
X66754819Y-59457142D02*
X66754819Y-59552380D01*
X66754819Y-59552380D02*
X66707200Y-59695237D01*
X66707200Y-59695237D02*
X66611961Y-59790475D01*
X66611961Y-59790475D02*
X66516723Y-59838094D01*
X66516723Y-59838094D02*
X66326247Y-59885713D01*
X66326247Y-59885713D02*
X66183390Y-59885713D01*
X66183390Y-59885713D02*
X65992914Y-59838094D01*
X65992914Y-59838094D02*
X65897676Y-59790475D01*
X65897676Y-59790475D02*
X65802438Y-59695237D01*
X65802438Y-59695237D02*
X65754819Y-59552380D01*
X65754819Y-59552380D02*
X65754819Y-59457142D01*
X65754819Y-59457142D02*
X65802438Y-59314285D01*
X65802438Y-59314285D02*
X65850057Y-59266666D01*
X65754819Y-58933332D02*
X65754819Y-58314285D01*
X65754819Y-58314285D02*
X66135771Y-58647618D01*
X66135771Y-58647618D02*
X66135771Y-58504761D01*
X66135771Y-58504761D02*
X66183390Y-58409523D01*
X66183390Y-58409523D02*
X66231009Y-58361904D01*
X66231009Y-58361904D02*
X66326247Y-58314285D01*
X66326247Y-58314285D02*
X66564342Y-58314285D01*
X66564342Y-58314285D02*
X66659580Y-58361904D01*
X66659580Y-58361904D02*
X66707200Y-58409523D01*
X66707200Y-58409523D02*
X66754819Y-58504761D01*
X66754819Y-58504761D02*
X66754819Y-58790475D01*
X66754819Y-58790475D02*
X66707200Y-58885713D01*
X66707200Y-58885713D02*
X66659580Y-58933332D01*
X67459580Y-64166666D02*
X67507200Y-64214285D01*
X67507200Y-64214285D02*
X67554819Y-64357142D01*
X67554819Y-64357142D02*
X67554819Y-64452380D01*
X67554819Y-64452380D02*
X67507200Y-64595237D01*
X67507200Y-64595237D02*
X67411961Y-64690475D01*
X67411961Y-64690475D02*
X67316723Y-64738094D01*
X67316723Y-64738094D02*
X67126247Y-64785713D01*
X67126247Y-64785713D02*
X66983390Y-64785713D01*
X66983390Y-64785713D02*
X66792914Y-64738094D01*
X66792914Y-64738094D02*
X66697676Y-64690475D01*
X66697676Y-64690475D02*
X66602438Y-64595237D01*
X66602438Y-64595237D02*
X66554819Y-64452380D01*
X66554819Y-64452380D02*
X66554819Y-64357142D01*
X66554819Y-64357142D02*
X66602438Y-64214285D01*
X66602438Y-64214285D02*
X66650057Y-64166666D01*
X66888152Y-63309523D02*
X67554819Y-63309523D01*
X66507200Y-63547618D02*
X67221485Y-63785713D01*
X67221485Y-63785713D02*
X67221485Y-63166666D01*
X91966666Y-62654819D02*
X91966666Y-63369104D01*
X91966666Y-63369104D02*
X91919047Y-63511961D01*
X91919047Y-63511961D02*
X91823809Y-63607200D01*
X91823809Y-63607200D02*
X91680952Y-63654819D01*
X91680952Y-63654819D02*
X91585714Y-63654819D01*
X92347619Y-62654819D02*
X92966666Y-62654819D01*
X92966666Y-62654819D02*
X92633333Y-63035771D01*
X92633333Y-63035771D02*
X92776190Y-63035771D01*
X92776190Y-63035771D02*
X92871428Y-63083390D01*
X92871428Y-63083390D02*
X92919047Y-63131009D01*
X92919047Y-63131009D02*
X92966666Y-63226247D01*
X92966666Y-63226247D02*
X92966666Y-63464342D01*
X92966666Y-63464342D02*
X92919047Y-63559580D01*
X92919047Y-63559580D02*
X92871428Y-63607200D01*
X92871428Y-63607200D02*
X92776190Y-63654819D01*
X92776190Y-63654819D02*
X92490476Y-63654819D01*
X92490476Y-63654819D02*
X92395238Y-63607200D01*
X92395238Y-63607200D02*
X92347619Y-63559580D01*
X93557142Y-57054819D02*
X93223809Y-56578628D01*
X92985714Y-57054819D02*
X92985714Y-56054819D01*
X92985714Y-56054819D02*
X93366666Y-56054819D01*
X93366666Y-56054819D02*
X93461904Y-56102438D01*
X93461904Y-56102438D02*
X93509523Y-56150057D01*
X93509523Y-56150057D02*
X93557142Y-56245295D01*
X93557142Y-56245295D02*
X93557142Y-56388152D01*
X93557142Y-56388152D02*
X93509523Y-56483390D01*
X93509523Y-56483390D02*
X93461904Y-56531009D01*
X93461904Y-56531009D02*
X93366666Y-56578628D01*
X93366666Y-56578628D02*
X92985714Y-56578628D01*
X94509523Y-57054819D02*
X93938095Y-57054819D01*
X94223809Y-57054819D02*
X94223809Y-56054819D01*
X94223809Y-56054819D02*
X94128571Y-56197676D01*
X94128571Y-56197676D02*
X94033333Y-56292914D01*
X94033333Y-56292914D02*
X93938095Y-56340533D01*
X94890476Y-56150057D02*
X94938095Y-56102438D01*
X94938095Y-56102438D02*
X95033333Y-56054819D01*
X95033333Y-56054819D02*
X95271428Y-56054819D01*
X95271428Y-56054819D02*
X95366666Y-56102438D01*
X95366666Y-56102438D02*
X95414285Y-56150057D01*
X95414285Y-56150057D02*
X95461904Y-56245295D01*
X95461904Y-56245295D02*
X95461904Y-56340533D01*
X95461904Y-56340533D02*
X95414285Y-56483390D01*
X95414285Y-56483390D02*
X94842857Y-57054819D01*
X94842857Y-57054819D02*
X95461904Y-57054819D01*
X97057142Y-57004819D02*
X96723809Y-56528628D01*
X96485714Y-57004819D02*
X96485714Y-56004819D01*
X96485714Y-56004819D02*
X96866666Y-56004819D01*
X96866666Y-56004819D02*
X96961904Y-56052438D01*
X96961904Y-56052438D02*
X97009523Y-56100057D01*
X97009523Y-56100057D02*
X97057142Y-56195295D01*
X97057142Y-56195295D02*
X97057142Y-56338152D01*
X97057142Y-56338152D02*
X97009523Y-56433390D01*
X97009523Y-56433390D02*
X96961904Y-56481009D01*
X96961904Y-56481009D02*
X96866666Y-56528628D01*
X96866666Y-56528628D02*
X96485714Y-56528628D01*
X98009523Y-57004819D02*
X97438095Y-57004819D01*
X97723809Y-57004819D02*
X97723809Y-56004819D01*
X97723809Y-56004819D02*
X97628571Y-56147676D01*
X97628571Y-56147676D02*
X97533333Y-56242914D01*
X97533333Y-56242914D02*
X97438095Y-56290533D01*
X98342857Y-56004819D02*
X98961904Y-56004819D01*
X98961904Y-56004819D02*
X98628571Y-56385771D01*
X98628571Y-56385771D02*
X98771428Y-56385771D01*
X98771428Y-56385771D02*
X98866666Y-56433390D01*
X98866666Y-56433390D02*
X98914285Y-56481009D01*
X98914285Y-56481009D02*
X98961904Y-56576247D01*
X98961904Y-56576247D02*
X98961904Y-56814342D01*
X98961904Y-56814342D02*
X98914285Y-56909580D01*
X98914285Y-56909580D02*
X98866666Y-56957200D01*
X98866666Y-56957200D02*
X98771428Y-57004819D01*
X98771428Y-57004819D02*
X98485714Y-57004819D01*
X98485714Y-57004819D02*
X98390476Y-56957200D01*
X98390476Y-56957200D02*
X98342857Y-56909580D01*
X104654819Y-58342857D02*
X104178628Y-58676190D01*
X104654819Y-58914285D02*
X103654819Y-58914285D01*
X103654819Y-58914285D02*
X103654819Y-58533333D01*
X103654819Y-58533333D02*
X103702438Y-58438095D01*
X103702438Y-58438095D02*
X103750057Y-58390476D01*
X103750057Y-58390476D02*
X103845295Y-58342857D01*
X103845295Y-58342857D02*
X103988152Y-58342857D01*
X103988152Y-58342857D02*
X104083390Y-58390476D01*
X104083390Y-58390476D02*
X104131009Y-58438095D01*
X104131009Y-58438095D02*
X104178628Y-58533333D01*
X104178628Y-58533333D02*
X104178628Y-58914285D01*
X104654819Y-57390476D02*
X104654819Y-57961904D01*
X104654819Y-57676190D02*
X103654819Y-57676190D01*
X103654819Y-57676190D02*
X103797676Y-57771428D01*
X103797676Y-57771428D02*
X103892914Y-57866666D01*
X103892914Y-57866666D02*
X103940533Y-57961904D01*
X103988152Y-56533333D02*
X104654819Y-56533333D01*
X103607200Y-56771428D02*
X104321485Y-57009523D01*
X104321485Y-57009523D02*
X104321485Y-56390476D01*
X65657142Y-70159580D02*
X65609523Y-70207200D01*
X65609523Y-70207200D02*
X65466666Y-70254819D01*
X65466666Y-70254819D02*
X65371428Y-70254819D01*
X65371428Y-70254819D02*
X65228571Y-70207200D01*
X65228571Y-70207200D02*
X65133333Y-70111961D01*
X65133333Y-70111961D02*
X65085714Y-70016723D01*
X65085714Y-70016723D02*
X65038095Y-69826247D01*
X65038095Y-69826247D02*
X65038095Y-69683390D01*
X65038095Y-69683390D02*
X65085714Y-69492914D01*
X65085714Y-69492914D02*
X65133333Y-69397676D01*
X65133333Y-69397676D02*
X65228571Y-69302438D01*
X65228571Y-69302438D02*
X65371428Y-69254819D01*
X65371428Y-69254819D02*
X65466666Y-69254819D01*
X65466666Y-69254819D02*
X65609523Y-69302438D01*
X65609523Y-69302438D02*
X65657142Y-69350057D01*
X66609523Y-70254819D02*
X66038095Y-70254819D01*
X66323809Y-70254819D02*
X66323809Y-69254819D01*
X66323809Y-69254819D02*
X66228571Y-69397676D01*
X66228571Y-69397676D02*
X66133333Y-69492914D01*
X66133333Y-69492914D02*
X66038095Y-69540533D01*
X66990476Y-69350057D02*
X67038095Y-69302438D01*
X67038095Y-69302438D02*
X67133333Y-69254819D01*
X67133333Y-69254819D02*
X67371428Y-69254819D01*
X67371428Y-69254819D02*
X67466666Y-69302438D01*
X67466666Y-69302438D02*
X67514285Y-69350057D01*
X67514285Y-69350057D02*
X67561904Y-69445295D01*
X67561904Y-69445295D02*
X67561904Y-69540533D01*
X67561904Y-69540533D02*
X67514285Y-69683390D01*
X67514285Y-69683390D02*
X66942857Y-70254819D01*
X66942857Y-70254819D02*
X67561904Y-70254819D01*
X59808333Y-58454819D02*
X59332143Y-58454819D01*
X59332143Y-58454819D02*
X59332143Y-57454819D01*
X60665476Y-58454819D02*
X60094048Y-58454819D01*
X60379762Y-58454819D02*
X60379762Y-57454819D01*
X60379762Y-57454819D02*
X60284524Y-57597676D01*
X60284524Y-57597676D02*
X60189286Y-57692914D01*
X60189286Y-57692914D02*
X60094048Y-57740533D01*
X50354819Y-63961904D02*
X51164342Y-63961904D01*
X51164342Y-63961904D02*
X51259580Y-63914285D01*
X51259580Y-63914285D02*
X51307200Y-63866666D01*
X51307200Y-63866666D02*
X51354819Y-63771428D01*
X51354819Y-63771428D02*
X51354819Y-63580952D01*
X51354819Y-63580952D02*
X51307200Y-63485714D01*
X51307200Y-63485714D02*
X51259580Y-63438095D01*
X51259580Y-63438095D02*
X51164342Y-63390476D01*
X51164342Y-63390476D02*
X50354819Y-63390476D01*
X50688152Y-62485714D02*
X51354819Y-62485714D01*
X50307200Y-62723809D02*
X51021485Y-62961904D01*
X51021485Y-62961904D02*
X51021485Y-62342857D01*
X65657142Y-68059580D02*
X65609523Y-68107200D01*
X65609523Y-68107200D02*
X65466666Y-68154819D01*
X65466666Y-68154819D02*
X65371428Y-68154819D01*
X65371428Y-68154819D02*
X65228571Y-68107200D01*
X65228571Y-68107200D02*
X65133333Y-68011961D01*
X65133333Y-68011961D02*
X65085714Y-67916723D01*
X65085714Y-67916723D02*
X65038095Y-67726247D01*
X65038095Y-67726247D02*
X65038095Y-67583390D01*
X65038095Y-67583390D02*
X65085714Y-67392914D01*
X65085714Y-67392914D02*
X65133333Y-67297676D01*
X65133333Y-67297676D02*
X65228571Y-67202438D01*
X65228571Y-67202438D02*
X65371428Y-67154819D01*
X65371428Y-67154819D02*
X65466666Y-67154819D01*
X65466666Y-67154819D02*
X65609523Y-67202438D01*
X65609523Y-67202438D02*
X65657142Y-67250057D01*
X66609523Y-68154819D02*
X66038095Y-68154819D01*
X66323809Y-68154819D02*
X66323809Y-67154819D01*
X66323809Y-67154819D02*
X66228571Y-67297676D01*
X66228571Y-67297676D02*
X66133333Y-67392914D01*
X66133333Y-67392914D02*
X66038095Y-67440533D01*
X66942857Y-67154819D02*
X67561904Y-67154819D01*
X67561904Y-67154819D02*
X67228571Y-67535771D01*
X67228571Y-67535771D02*
X67371428Y-67535771D01*
X67371428Y-67535771D02*
X67466666Y-67583390D01*
X67466666Y-67583390D02*
X67514285Y-67631009D01*
X67514285Y-67631009D02*
X67561904Y-67726247D01*
X67561904Y-67726247D02*
X67561904Y-67964342D01*
X67561904Y-67964342D02*
X67514285Y-68059580D01*
X67514285Y-68059580D02*
X67466666Y-68107200D01*
X67466666Y-68107200D02*
X67371428Y-68154819D01*
X67371428Y-68154819D02*
X67085714Y-68154819D01*
X67085714Y-68154819D02*
X66990476Y-68107200D01*
X66990476Y-68107200D02*
X66942857Y-68059580D01*
X60054819Y-70238094D02*
X59054819Y-70238094D01*
X59054819Y-70238094D02*
X59054819Y-69999999D01*
X59054819Y-69999999D02*
X59102438Y-69857142D01*
X59102438Y-69857142D02*
X59197676Y-69761904D01*
X59197676Y-69761904D02*
X59292914Y-69714285D01*
X59292914Y-69714285D02*
X59483390Y-69666666D01*
X59483390Y-69666666D02*
X59626247Y-69666666D01*
X59626247Y-69666666D02*
X59816723Y-69714285D01*
X59816723Y-69714285D02*
X59911961Y-69761904D01*
X59911961Y-69761904D02*
X60007200Y-69857142D01*
X60007200Y-69857142D02*
X60054819Y-69999999D01*
X60054819Y-69999999D02*
X60054819Y-70238094D01*
X59150057Y-69285713D02*
X59102438Y-69238094D01*
X59102438Y-69238094D02*
X59054819Y-69142856D01*
X59054819Y-69142856D02*
X59054819Y-68904761D01*
X59054819Y-68904761D02*
X59102438Y-68809523D01*
X59102438Y-68809523D02*
X59150057Y-68761904D01*
X59150057Y-68761904D02*
X59245295Y-68714285D01*
X59245295Y-68714285D02*
X59340533Y-68714285D01*
X59340533Y-68714285D02*
X59483390Y-68761904D01*
X59483390Y-68761904D02*
X60054819Y-69333332D01*
X60054819Y-69333332D02*
X60054819Y-68714285D01*
X51733333Y-67059580D02*
X51685714Y-67107200D01*
X51685714Y-67107200D02*
X51542857Y-67154819D01*
X51542857Y-67154819D02*
X51447619Y-67154819D01*
X51447619Y-67154819D02*
X51304762Y-67107200D01*
X51304762Y-67107200D02*
X51209524Y-67011961D01*
X51209524Y-67011961D02*
X51161905Y-66916723D01*
X51161905Y-66916723D02*
X51114286Y-66726247D01*
X51114286Y-66726247D02*
X51114286Y-66583390D01*
X51114286Y-66583390D02*
X51161905Y-66392914D01*
X51161905Y-66392914D02*
X51209524Y-66297676D01*
X51209524Y-66297676D02*
X51304762Y-66202438D01*
X51304762Y-66202438D02*
X51447619Y-66154819D01*
X51447619Y-66154819D02*
X51542857Y-66154819D01*
X51542857Y-66154819D02*
X51685714Y-66202438D01*
X51685714Y-66202438D02*
X51733333Y-66250057D01*
X52209524Y-67154819D02*
X52400000Y-67154819D01*
X52400000Y-67154819D02*
X52495238Y-67107200D01*
X52495238Y-67107200D02*
X52542857Y-67059580D01*
X52542857Y-67059580D02*
X52638095Y-66916723D01*
X52638095Y-66916723D02*
X52685714Y-66726247D01*
X52685714Y-66726247D02*
X52685714Y-66345295D01*
X52685714Y-66345295D02*
X52638095Y-66250057D01*
X52638095Y-66250057D02*
X52590476Y-66202438D01*
X52590476Y-66202438D02*
X52495238Y-66154819D01*
X52495238Y-66154819D02*
X52304762Y-66154819D01*
X52304762Y-66154819D02*
X52209524Y-66202438D01*
X52209524Y-66202438D02*
X52161905Y-66250057D01*
X52161905Y-66250057D02*
X52114286Y-66345295D01*
X52114286Y-66345295D02*
X52114286Y-66583390D01*
X52114286Y-66583390D02*
X52161905Y-66678628D01*
X52161905Y-66678628D02*
X52209524Y-66726247D01*
X52209524Y-66726247D02*
X52304762Y-66773866D01*
X52304762Y-66773866D02*
X52495238Y-66773866D01*
X52495238Y-66773866D02*
X52590476Y-66726247D01*
X52590476Y-66726247D02*
X52638095Y-66678628D01*
X52638095Y-66678628D02*
X52685714Y-66583390D01*
X89457142Y-57054819D02*
X89123809Y-56578628D01*
X88885714Y-57054819D02*
X88885714Y-56054819D01*
X88885714Y-56054819D02*
X89266666Y-56054819D01*
X89266666Y-56054819D02*
X89361904Y-56102438D01*
X89361904Y-56102438D02*
X89409523Y-56150057D01*
X89409523Y-56150057D02*
X89457142Y-56245295D01*
X89457142Y-56245295D02*
X89457142Y-56388152D01*
X89457142Y-56388152D02*
X89409523Y-56483390D01*
X89409523Y-56483390D02*
X89361904Y-56531009D01*
X89361904Y-56531009D02*
X89266666Y-56578628D01*
X89266666Y-56578628D02*
X88885714Y-56578628D01*
X90409523Y-57054819D02*
X89838095Y-57054819D01*
X90123809Y-57054819D02*
X90123809Y-56054819D01*
X90123809Y-56054819D02*
X90028571Y-56197676D01*
X90028571Y-56197676D02*
X89933333Y-56292914D01*
X89933333Y-56292914D02*
X89838095Y-56340533D01*
X91361904Y-57054819D02*
X90790476Y-57054819D01*
X91076190Y-57054819D02*
X91076190Y-56054819D01*
X91076190Y-56054819D02*
X90980952Y-56197676D01*
X90980952Y-56197676D02*
X90885714Y-56292914D01*
X90885714Y-56292914D02*
X90790476Y-56340533D01*
X46054819Y-73288094D02*
X45054819Y-73288094D01*
X45054819Y-73288094D02*
X45054819Y-73049999D01*
X45054819Y-73049999D02*
X45102438Y-72907142D01*
X45102438Y-72907142D02*
X45197676Y-72811904D01*
X45197676Y-72811904D02*
X45292914Y-72764285D01*
X45292914Y-72764285D02*
X45483390Y-72716666D01*
X45483390Y-72716666D02*
X45626247Y-72716666D01*
X45626247Y-72716666D02*
X45816723Y-72764285D01*
X45816723Y-72764285D02*
X45911961Y-72811904D01*
X45911961Y-72811904D02*
X46007200Y-72907142D01*
X46007200Y-72907142D02*
X46054819Y-73049999D01*
X46054819Y-73049999D02*
X46054819Y-73288094D01*
X46054819Y-71764285D02*
X46054819Y-72335713D01*
X46054819Y-72049999D02*
X45054819Y-72049999D01*
X45054819Y-72049999D02*
X45197676Y-72145237D01*
X45197676Y-72145237D02*
X45292914Y-72240475D01*
X45292914Y-72240475D02*
X45340533Y-72335713D01*
X53857142Y-59079580D02*
X53809523Y-59127200D01*
X53809523Y-59127200D02*
X53666666Y-59174819D01*
X53666666Y-59174819D02*
X53571428Y-59174819D01*
X53571428Y-59174819D02*
X53428571Y-59127200D01*
X53428571Y-59127200D02*
X53333333Y-59031961D01*
X53333333Y-59031961D02*
X53285714Y-58936723D01*
X53285714Y-58936723D02*
X53238095Y-58746247D01*
X53238095Y-58746247D02*
X53238095Y-58603390D01*
X53238095Y-58603390D02*
X53285714Y-58412914D01*
X53285714Y-58412914D02*
X53333333Y-58317676D01*
X53333333Y-58317676D02*
X53428571Y-58222438D01*
X53428571Y-58222438D02*
X53571428Y-58174819D01*
X53571428Y-58174819D02*
X53666666Y-58174819D01*
X53666666Y-58174819D02*
X53809523Y-58222438D01*
X53809523Y-58222438D02*
X53857142Y-58270057D01*
X54809523Y-59174819D02*
X54238095Y-59174819D01*
X54523809Y-59174819D02*
X54523809Y-58174819D01*
X54523809Y-58174819D02*
X54428571Y-58317676D01*
X54428571Y-58317676D02*
X54333333Y-58412914D01*
X54333333Y-58412914D02*
X54238095Y-58460533D01*
X55428571Y-58174819D02*
X55523809Y-58174819D01*
X55523809Y-58174819D02*
X55619047Y-58222438D01*
X55619047Y-58222438D02*
X55666666Y-58270057D01*
X55666666Y-58270057D02*
X55714285Y-58365295D01*
X55714285Y-58365295D02*
X55761904Y-58555771D01*
X55761904Y-58555771D02*
X55761904Y-58793866D01*
X55761904Y-58793866D02*
X55714285Y-58984342D01*
X55714285Y-58984342D02*
X55666666Y-59079580D01*
X55666666Y-59079580D02*
X55619047Y-59127200D01*
X55619047Y-59127200D02*
X55523809Y-59174819D01*
X55523809Y-59174819D02*
X55428571Y-59174819D01*
X55428571Y-59174819D02*
X55333333Y-59127200D01*
X55333333Y-59127200D02*
X55285714Y-59079580D01*
X55285714Y-59079580D02*
X55238095Y-58984342D01*
X55238095Y-58984342D02*
X55190476Y-58793866D01*
X55190476Y-58793866D02*
X55190476Y-58555771D01*
X55190476Y-58555771D02*
X55238095Y-58365295D01*
X55238095Y-58365295D02*
X55285714Y-58270057D01*
X55285714Y-58270057D02*
X55333333Y-58222438D01*
X55333333Y-58222438D02*
X55428571Y-58174819D01*
X66054819Y-74166666D02*
X65578628Y-74499999D01*
X66054819Y-74738094D02*
X65054819Y-74738094D01*
X65054819Y-74738094D02*
X65054819Y-74357142D01*
X65054819Y-74357142D02*
X65102438Y-74261904D01*
X65102438Y-74261904D02*
X65150057Y-74214285D01*
X65150057Y-74214285D02*
X65245295Y-74166666D01*
X65245295Y-74166666D02*
X65388152Y-74166666D01*
X65388152Y-74166666D02*
X65483390Y-74214285D01*
X65483390Y-74214285D02*
X65531009Y-74261904D01*
X65531009Y-74261904D02*
X65578628Y-74357142D01*
X65578628Y-74357142D02*
X65578628Y-74738094D01*
X65054819Y-73261904D02*
X65054819Y-73738094D01*
X65054819Y-73738094D02*
X65531009Y-73785713D01*
X65531009Y-73785713D02*
X65483390Y-73738094D01*
X65483390Y-73738094D02*
X65435771Y-73642856D01*
X65435771Y-73642856D02*
X65435771Y-73404761D01*
X65435771Y-73404761D02*
X65483390Y-73309523D01*
X65483390Y-73309523D02*
X65531009Y-73261904D01*
X65531009Y-73261904D02*
X65626247Y-73214285D01*
X65626247Y-73214285D02*
X65864342Y-73214285D01*
X65864342Y-73214285D02*
X65959580Y-73261904D01*
X65959580Y-73261904D02*
X66007200Y-73309523D01*
X66007200Y-73309523D02*
X66054819Y-73404761D01*
X66054819Y-73404761D02*
X66054819Y-73642856D01*
X66054819Y-73642856D02*
X66007200Y-73738094D01*
X66007200Y-73738094D02*
X65959580Y-73785713D01*
X83333333Y-70559580D02*
X83285714Y-70607200D01*
X83285714Y-70607200D02*
X83142857Y-70654819D01*
X83142857Y-70654819D02*
X83047619Y-70654819D01*
X83047619Y-70654819D02*
X82904762Y-70607200D01*
X82904762Y-70607200D02*
X82809524Y-70511961D01*
X82809524Y-70511961D02*
X82761905Y-70416723D01*
X82761905Y-70416723D02*
X82714286Y-70226247D01*
X82714286Y-70226247D02*
X82714286Y-70083390D01*
X82714286Y-70083390D02*
X82761905Y-69892914D01*
X82761905Y-69892914D02*
X82809524Y-69797676D01*
X82809524Y-69797676D02*
X82904762Y-69702438D01*
X82904762Y-69702438D02*
X83047619Y-69654819D01*
X83047619Y-69654819D02*
X83142857Y-69654819D01*
X83142857Y-69654819D02*
X83285714Y-69702438D01*
X83285714Y-69702438D02*
X83333333Y-69750057D01*
X83714286Y-69750057D02*
X83761905Y-69702438D01*
X83761905Y-69702438D02*
X83857143Y-69654819D01*
X83857143Y-69654819D02*
X84095238Y-69654819D01*
X84095238Y-69654819D02*
X84190476Y-69702438D01*
X84190476Y-69702438D02*
X84238095Y-69750057D01*
X84238095Y-69750057D02*
X84285714Y-69845295D01*
X84285714Y-69845295D02*
X84285714Y-69940533D01*
X84285714Y-69940533D02*
X84238095Y-70083390D01*
X84238095Y-70083390D02*
X83666667Y-70654819D01*
X83666667Y-70654819D02*
X84285714Y-70654819D01*
X49266666Y-57054819D02*
X49266666Y-57769104D01*
X49266666Y-57769104D02*
X49219047Y-57911961D01*
X49219047Y-57911961D02*
X49123809Y-58007200D01*
X49123809Y-58007200D02*
X48980952Y-58054819D01*
X48980952Y-58054819D02*
X48885714Y-58054819D01*
X49742857Y-58054819D02*
X49742857Y-57054819D01*
X49742857Y-57054819D02*
X50123809Y-57054819D01*
X50123809Y-57054819D02*
X50219047Y-57102438D01*
X50219047Y-57102438D02*
X50266666Y-57150057D01*
X50266666Y-57150057D02*
X50314285Y-57245295D01*
X50314285Y-57245295D02*
X50314285Y-57388152D01*
X50314285Y-57388152D02*
X50266666Y-57483390D01*
X50266666Y-57483390D02*
X50219047Y-57531009D01*
X50219047Y-57531009D02*
X50123809Y-57578628D01*
X50123809Y-57578628D02*
X49742857Y-57578628D01*
X51219047Y-57054819D02*
X50742857Y-57054819D01*
X50742857Y-57054819D02*
X50695238Y-57531009D01*
X50695238Y-57531009D02*
X50742857Y-57483390D01*
X50742857Y-57483390D02*
X50838095Y-57435771D01*
X50838095Y-57435771D02*
X51076190Y-57435771D01*
X51076190Y-57435771D02*
X51171428Y-57483390D01*
X51171428Y-57483390D02*
X51219047Y-57531009D01*
X51219047Y-57531009D02*
X51266666Y-57626247D01*
X51266666Y-57626247D02*
X51266666Y-57864342D01*
X51266666Y-57864342D02*
X51219047Y-57959580D01*
X51219047Y-57959580D02*
X51171428Y-58007200D01*
X51171428Y-58007200D02*
X51076190Y-58054819D01*
X51076190Y-58054819D02*
X50838095Y-58054819D01*
X50838095Y-58054819D02*
X50742857Y-58007200D01*
X50742857Y-58007200D02*
X50695238Y-57959580D01*
D13*
%TO.C,R3*%
X101252064Y-72335000D02*
X100797936Y-72335000D01*
X101252064Y-70865000D02*
X100797936Y-70865000D01*
%TO.C,R4*%
X101252064Y-70335000D02*
X100797936Y-70335000D01*
X101252064Y-68865000D02*
X100797936Y-68865000D01*
%TO.C,C1*%
X82765000Y-63261252D02*
X82765000Y-62738748D01*
X84235000Y-63261252D02*
X84235000Y-62738748D01*
%TO.C,C6*%
X76635000Y-74138748D02*
X76635000Y-74661252D01*
X75165000Y-74138748D02*
X75165000Y-74661252D01*
%TO.C,R1*%
X71927064Y-58735000D02*
X71472936Y-58735000D01*
X71927064Y-57265000D02*
X71472936Y-57265000D01*
%TO.C,U1*%
X70115000Y-68860000D02*
X70360000Y-68860000D01*
X70360000Y-68860000D02*
X70360000Y-70675000D01*
X81885000Y-68860000D02*
X81640000Y-68860000D01*
X70115000Y-65000000D02*
X70115000Y-68860000D01*
X70115000Y-65000000D02*
X70115000Y-61140000D01*
X81885000Y-65000000D02*
X81885000Y-68860000D01*
X81885000Y-65000000D02*
X81885000Y-61140000D01*
X70115000Y-61140000D02*
X70360000Y-61140000D01*
X81885000Y-61140000D02*
X81640000Y-61140000D01*
%TO.C,U2*%
X70900000Y-78660000D02*
X74350000Y-78660000D01*
X70900000Y-78660000D02*
X68950000Y-78660000D01*
X70900000Y-73540000D02*
X72850000Y-73540000D01*
X70900000Y-73540000D02*
X68950000Y-73540000D01*
%TO.C,C7*%
X94961252Y-66135000D02*
X94438748Y-66135000D01*
X94961252Y-64665000D02*
X94438748Y-64665000D01*
%TO.C,JP1*%
X97130000Y-65930000D02*
X97130000Y-64600000D01*
X98460000Y-65930000D02*
X97130000Y-65930000D01*
X99730000Y-65930000D02*
X102330000Y-65930000D01*
X99730000Y-65930000D02*
X99730000Y-63270000D01*
X102330000Y-65930000D02*
X102330000Y-63270000D01*
X99730000Y-63270000D02*
X102330000Y-63270000D01*
%TO.C,R2*%
X101252064Y-68335000D02*
X100797936Y-68335000D01*
X101252064Y-66865000D02*
X100797936Y-66865000D01*
%TO.C,U3*%
X94500000Y-67040000D02*
X91050000Y-67040000D01*
X94500000Y-67040000D02*
X96450000Y-67040000D01*
X94500000Y-72160000D02*
X92550000Y-72160000D01*
X94500000Y-72160000D02*
X96450000Y-72160000D01*
%TO.C,OSHW1*%
D14*
X83199460Y-77558030D02*
X83242711Y-77571245D01*
X83270558Y-77587941D01*
X83279629Y-77601145D01*
X83277132Y-77616797D01*
X83260931Y-77641385D01*
X83247232Y-77658800D01*
X83218992Y-77690283D01*
X83197775Y-77703529D01*
X83179688Y-77702664D01*
X83126035Y-77689010D01*
X83086630Y-77689630D01*
X83054632Y-77705104D01*
X83043890Y-77714161D01*
X83009505Y-77746027D01*
X83009505Y-78162179D01*
X82871188Y-78162179D01*
X82871188Y-77558614D01*
X82940347Y-77558614D01*
X82981869Y-77560256D01*
X83003291Y-77566087D01*
X83009502Y-77577461D01*
X83009505Y-77577798D01*
X83012439Y-77589713D01*
X83025704Y-77588159D01*
X83044084Y-77579563D01*
X83082046Y-77563568D01*
X83112872Y-77553945D01*
X83152536Y-77551478D01*
X83199460Y-77558030D01*
G36*
X83199460Y-77558030D02*
G01*
X83242711Y-77571245D01*
X83270558Y-77587941D01*
X83279629Y-77601145D01*
X83277132Y-77616797D01*
X83260931Y-77641385D01*
X83247232Y-77658800D01*
X83218992Y-77690283D01*
X83197775Y-77703529D01*
X83179688Y-77702664D01*
X83126035Y-77689010D01*
X83086630Y-77689630D01*
X83054632Y-77705104D01*
X83043890Y-77714161D01*
X83009505Y-77746027D01*
X83009505Y-78162179D01*
X82871188Y-78162179D01*
X82871188Y-77558614D01*
X82940347Y-77558614D01*
X82981869Y-77560256D01*
X83003291Y-77566087D01*
X83009502Y-77577461D01*
X83009505Y-77577798D01*
X83012439Y-77589713D01*
X83025704Y-77588159D01*
X83044084Y-77579563D01*
X83082046Y-77563568D01*
X83112872Y-77553945D01*
X83152536Y-77551478D01*
X83199460Y-77558030D01*
G37*
X83035255Y-78501486D02*
X83083595Y-78511015D01*
X83111114Y-78525125D01*
X83140064Y-78548568D01*
X83098876Y-78600571D01*
X83073482Y-78632064D01*
X83056238Y-78647428D01*
X83039102Y-78649776D01*
X83014027Y-78642217D01*
X83002257Y-78637941D01*
X82954270Y-78631631D01*
X82910324Y-78645156D01*
X82878060Y-78675710D01*
X82872819Y-78685452D01*
X82867112Y-78711258D01*
X82862706Y-78758817D01*
X82859811Y-78824758D01*
X82858631Y-78905710D01*
X82858614Y-78917226D01*
X82858614Y-79117822D01*
X82720297Y-79117822D01*
X82720297Y-78501683D01*
X82789456Y-78501683D01*
X82829333Y-78502725D01*
X82850107Y-78507358D01*
X82857789Y-78517849D01*
X82858614Y-78527745D01*
X82858614Y-78553806D01*
X82891745Y-78527745D01*
X82929735Y-78509965D01*
X82980770Y-78501174D01*
X83035255Y-78501486D01*
G36*
X83035255Y-78501486D02*
G01*
X83083595Y-78511015D01*
X83111114Y-78525125D01*
X83140064Y-78548568D01*
X83098876Y-78600571D01*
X83073482Y-78632064D01*
X83056238Y-78647428D01*
X83039102Y-78649776D01*
X83014027Y-78642217D01*
X83002257Y-78637941D01*
X82954270Y-78631631D01*
X82910324Y-78645156D01*
X82878060Y-78675710D01*
X82872819Y-78685452D01*
X82867112Y-78711258D01*
X82862706Y-78758817D01*
X82859811Y-78824758D01*
X82858631Y-78905710D01*
X82858614Y-78917226D01*
X82858614Y-79117822D01*
X82720297Y-79117822D01*
X82720297Y-78501683D01*
X82789456Y-78501683D01*
X82829333Y-78502725D01*
X82850107Y-78507358D01*
X82857789Y-78517849D01*
X82858614Y-78527745D01*
X82858614Y-78553806D01*
X82891745Y-78527745D01*
X82929735Y-78509965D01*
X82980770Y-78501174D01*
X83035255Y-78501486D01*
G37*
X80406644Y-78503020D02*
X80425461Y-78508660D01*
X80431527Y-78521053D01*
X80431782Y-78526647D01*
X80432871Y-78542230D01*
X80440368Y-78544676D01*
X80460619Y-78533993D01*
X80472649Y-78526694D01*
X80510600Y-78511063D01*
X80555928Y-78503334D01*
X80603456Y-78502740D01*
X80648005Y-78508513D01*
X80684398Y-78519884D01*
X80707457Y-78536088D01*
X80712004Y-78556355D01*
X80709709Y-78561843D01*
X80692980Y-78584626D01*
X80667037Y-78612647D01*
X80662345Y-78617177D01*
X80637617Y-78638005D01*
X80616282Y-78644735D01*
X80586445Y-78640038D01*
X80574492Y-78636917D01*
X80537295Y-78629421D01*
X80511141Y-78632792D01*
X80489054Y-78644681D01*
X80468822Y-78660635D01*
X80453921Y-78680700D01*
X80443566Y-78708702D01*
X80436971Y-78748467D01*
X80433351Y-78803823D01*
X80431922Y-78878594D01*
X80431782Y-78923740D01*
X80431782Y-79117822D01*
X80306040Y-79117822D01*
X80306040Y-78501683D01*
X80368911Y-78501683D01*
X80406644Y-78503020D01*
G36*
X80406644Y-78503020D02*
G01*
X80425461Y-78508660D01*
X80431527Y-78521053D01*
X80431782Y-78526647D01*
X80432871Y-78542230D01*
X80440368Y-78544676D01*
X80460619Y-78533993D01*
X80472649Y-78526694D01*
X80510600Y-78511063D01*
X80555928Y-78503334D01*
X80603456Y-78502740D01*
X80648005Y-78508513D01*
X80684398Y-78519884D01*
X80707457Y-78536088D01*
X80712004Y-78556355D01*
X80709709Y-78561843D01*
X80692980Y-78584626D01*
X80667037Y-78612647D01*
X80662345Y-78617177D01*
X80637617Y-78638005D01*
X80616282Y-78644735D01*
X80586445Y-78640038D01*
X80574492Y-78636917D01*
X80537295Y-78629421D01*
X80511141Y-78632792D01*
X80489054Y-78644681D01*
X80468822Y-78660635D01*
X80453921Y-78680700D01*
X80443566Y-78708702D01*
X80436971Y-78748467D01*
X80433351Y-78803823D01*
X80431922Y-78878594D01*
X80431782Y-78923740D01*
X80431782Y-79117822D01*
X80306040Y-79117822D01*
X80306040Y-78501683D01*
X80368911Y-78501683D01*
X80406644Y-78503020D01*
G37*
X82393367Y-77754342D02*
X82394555Y-77846563D01*
X82398897Y-77916610D01*
X82407558Y-77967381D01*
X82421704Y-78001772D01*
X82442500Y-78022679D01*
X82471110Y-78033000D01*
X82506535Y-78035636D01*
X82543636Y-78032682D01*
X82571818Y-78021889D01*
X82592243Y-78000360D01*
X82606079Y-77965199D01*
X82614491Y-77913510D01*
X82618643Y-77842394D01*
X82619703Y-77754342D01*
X82619703Y-77558614D01*
X82758020Y-77558614D01*
X82758020Y-78162179D01*
X82688862Y-78162179D01*
X82647170Y-78160489D01*
X82625701Y-78154556D01*
X82619703Y-78143293D01*
X82616091Y-78133261D01*
X82601714Y-78135383D01*
X82572736Y-78149580D01*
X82506319Y-78171480D01*
X82435875Y-78169928D01*
X82368377Y-78146147D01*
X82336233Y-78127362D01*
X82311715Y-78107022D01*
X82293804Y-78081573D01*
X82281479Y-78047458D01*
X82273723Y-78001121D01*
X82269516Y-77939007D01*
X82267840Y-77857561D01*
X82267624Y-77794578D01*
X82267624Y-77558614D01*
X82393367Y-77558614D01*
X82393367Y-77754342D01*
G36*
X82393367Y-77754342D02*
G01*
X82394555Y-77846563D01*
X82398897Y-77916610D01*
X82407558Y-77967381D01*
X82421704Y-78001772D01*
X82442500Y-78022679D01*
X82471110Y-78033000D01*
X82506535Y-78035636D01*
X82543636Y-78032682D01*
X82571818Y-78021889D01*
X82592243Y-78000360D01*
X82606079Y-77965199D01*
X82614491Y-77913510D01*
X82618643Y-77842394D01*
X82619703Y-77754342D01*
X82619703Y-77558614D01*
X82758020Y-77558614D01*
X82758020Y-78162179D01*
X82688862Y-78162179D01*
X82647170Y-78160489D01*
X82625701Y-78154556D01*
X82619703Y-78143293D01*
X82616091Y-78133261D01*
X82601714Y-78135383D01*
X82572736Y-78149580D01*
X82506319Y-78171480D01*
X82435875Y-78169928D01*
X82368377Y-78146147D01*
X82336233Y-78127362D01*
X82311715Y-78107022D01*
X82293804Y-78081573D01*
X82281479Y-78047458D01*
X82273723Y-78001121D01*
X82269516Y-77939007D01*
X82267840Y-77857561D01*
X82267624Y-77794578D01*
X82267624Y-77558614D01*
X82393367Y-77558614D01*
X82393367Y-77754342D01*
G37*
X80645988Y-77569002D02*
X80677283Y-77583950D01*
X80707591Y-77605541D01*
X80730682Y-77630391D01*
X80747500Y-77662087D01*
X80758994Y-77704214D01*
X80766109Y-77760358D01*
X80769793Y-77834106D01*
X80770992Y-77929044D01*
X80771011Y-77938985D01*
X80771287Y-78162179D01*
X80632970Y-78162179D01*
X80632970Y-77956418D01*
X80632872Y-77880189D01*
X80632191Y-77824939D01*
X80630349Y-77786501D01*
X80626767Y-77760706D01*
X80620868Y-77743384D01*
X80612073Y-77730368D01*
X80599820Y-77717507D01*
X80556953Y-77689873D01*
X80510157Y-77684745D01*
X80465576Y-77702217D01*
X80450072Y-77715221D01*
X80438690Y-77727447D01*
X80430519Y-77740540D01*
X80425026Y-77758615D01*
X80421680Y-77785787D01*
X80419949Y-77826170D01*
X80419303Y-77883879D01*
X80419208Y-77954132D01*
X80419208Y-78162179D01*
X80280891Y-78162179D01*
X80280891Y-77558614D01*
X80350050Y-77558614D01*
X80391572Y-77560256D01*
X80412994Y-77566087D01*
X80419205Y-77577461D01*
X80419208Y-77577798D01*
X80422090Y-77588938D01*
X80434801Y-77587674D01*
X80460074Y-77575434D01*
X80517395Y-77557424D01*
X80582963Y-77555421D01*
X80645988Y-77569002D01*
G36*
X80645988Y-77569002D02*
G01*
X80677283Y-77583950D01*
X80707591Y-77605541D01*
X80730682Y-77630391D01*
X80747500Y-77662087D01*
X80758994Y-77704214D01*
X80766109Y-77760358D01*
X80769793Y-77834106D01*
X80770992Y-77929044D01*
X80771011Y-77938985D01*
X80771287Y-78162179D01*
X80632970Y-78162179D01*
X80632970Y-77956418D01*
X80632872Y-77880189D01*
X80632191Y-77824939D01*
X80630349Y-77786501D01*
X80626767Y-77760706D01*
X80620868Y-77743384D01*
X80612073Y-77730368D01*
X80599820Y-77717507D01*
X80556953Y-77689873D01*
X80510157Y-77684745D01*
X80465576Y-77702217D01*
X80450072Y-77715221D01*
X80438690Y-77727447D01*
X80430519Y-77740540D01*
X80425026Y-77758615D01*
X80421680Y-77785787D01*
X80419949Y-77826170D01*
X80419303Y-77883879D01*
X80419208Y-77954132D01*
X80419208Y-78162179D01*
X80280891Y-78162179D01*
X80280891Y-77558614D01*
X80350050Y-77558614D01*
X80391572Y-77560256D01*
X80412994Y-77566087D01*
X80419205Y-77577461D01*
X80419208Y-77577798D01*
X80422090Y-77588938D01*
X80434801Y-77587674D01*
X80460074Y-77575434D01*
X80517395Y-77557424D01*
X80582963Y-77555421D01*
X80645988Y-77569002D01*
G37*
X83617226Y-77563880D02*
X83690080Y-77594830D01*
X83713027Y-77609895D01*
X83742354Y-77633048D01*
X83760764Y-77651253D01*
X83763961Y-77657183D01*
X83754935Y-77670340D01*
X83731837Y-77692667D01*
X83713344Y-77708250D01*
X83662728Y-77748926D01*
X83622760Y-77715295D01*
X83591874Y-77693584D01*
X83561759Y-77686090D01*
X83527292Y-77687920D01*
X83472561Y-77701528D01*
X83434886Y-77729772D01*
X83411991Y-77775433D01*
X83401597Y-77841289D01*
X83401595Y-77841331D01*
X83402494Y-77914939D01*
X83416463Y-77968946D01*
X83444328Y-78005716D01*
X83463325Y-78018168D01*
X83513776Y-78033673D01*
X83567663Y-78033683D01*
X83614546Y-78018638D01*
X83625644Y-78011287D01*
X83653476Y-77992511D01*
X83675236Y-77989434D01*
X83698704Y-78003409D01*
X83724649Y-78028510D01*
X83765716Y-78070880D01*
X83720121Y-78108464D01*
X83649674Y-78150882D01*
X83570233Y-78171785D01*
X83487215Y-78170272D01*
X83432694Y-78156411D01*
X83368970Y-78122135D01*
X83318005Y-78068212D01*
X83294851Y-78030149D01*
X83276099Y-77975536D01*
X83266715Y-77906369D01*
X83266643Y-77831407D01*
X83275824Y-77759409D01*
X83294199Y-77699137D01*
X83297093Y-77692958D01*
X83339952Y-77632351D01*
X83397979Y-77588224D01*
X83466591Y-77561493D01*
X83541201Y-77553073D01*
X83617226Y-77563880D01*
G36*
X83617226Y-77563880D02*
G01*
X83690080Y-77594830D01*
X83713027Y-77609895D01*
X83742354Y-77633048D01*
X83760764Y-77651253D01*
X83763961Y-77657183D01*
X83754935Y-77670340D01*
X83731837Y-77692667D01*
X83713344Y-77708250D01*
X83662728Y-77748926D01*
X83622760Y-77715295D01*
X83591874Y-77693584D01*
X83561759Y-77686090D01*
X83527292Y-77687920D01*
X83472561Y-77701528D01*
X83434886Y-77729772D01*
X83411991Y-77775433D01*
X83401597Y-77841289D01*
X83401595Y-77841331D01*
X83402494Y-77914939D01*
X83416463Y-77968946D01*
X83444328Y-78005716D01*
X83463325Y-78018168D01*
X83513776Y-78033673D01*
X83567663Y-78033683D01*
X83614546Y-78018638D01*
X83625644Y-78011287D01*
X83653476Y-77992511D01*
X83675236Y-77989434D01*
X83698704Y-78003409D01*
X83724649Y-78028510D01*
X83765716Y-78070880D01*
X83720121Y-78108464D01*
X83649674Y-78150882D01*
X83570233Y-78171785D01*
X83487215Y-78170272D01*
X83432694Y-78156411D01*
X83368970Y-78122135D01*
X83318005Y-78068212D01*
X83294851Y-78030149D01*
X83276099Y-77975536D01*
X83266715Y-77906369D01*
X83266643Y-77831407D01*
X83275824Y-77759409D01*
X83294199Y-77699137D01*
X83297093Y-77692958D01*
X83339952Y-77632351D01*
X83397979Y-77588224D01*
X83466591Y-77561493D01*
X83541201Y-77553073D01*
X83617226Y-77563880D01*
G37*
X82010762Y-77566055D02*
X82074363Y-77600692D01*
X82124123Y-77655372D01*
X82147568Y-77699842D01*
X82157634Y-77739121D01*
X82164156Y-77795116D01*
X82166951Y-77859621D01*
X82165836Y-77924429D01*
X82160626Y-77981334D01*
X82154541Y-78011727D01*
X82134014Y-78053306D01*
X82098463Y-78097468D01*
X82055619Y-78136087D01*
X82013211Y-78161034D01*
X82012177Y-78161430D01*
X81959553Y-78172331D01*
X81897188Y-78172601D01*
X81837924Y-78162676D01*
X81815040Y-78154722D01*
X81756102Y-78121300D01*
X81713890Y-78077511D01*
X81686156Y-78019538D01*
X81670651Y-77943565D01*
X81667143Y-77903771D01*
X81667590Y-77853766D01*
X81802376Y-77853766D01*
X81806917Y-77926732D01*
X81819986Y-77982334D01*
X81840756Y-78017861D01*
X81855552Y-78028020D01*
X81893464Y-78035104D01*
X81938527Y-78033007D01*
X81977487Y-78022812D01*
X81987704Y-78017204D01*
X82014659Y-77984538D01*
X82032451Y-77934545D01*
X82040024Y-77873705D01*
X82036325Y-77808497D01*
X82028057Y-77769253D01*
X82004320Y-77723805D01*
X81966849Y-77695396D01*
X81921720Y-77685573D01*
X81875011Y-77695887D01*
X81839132Y-77721112D01*
X81820277Y-77741925D01*
X81809272Y-77762439D01*
X81804026Y-77790203D01*
X81802449Y-77832762D01*
X81802376Y-77853766D01*
X81667590Y-77853766D01*
X81668094Y-77797580D01*
X81685388Y-77710501D01*
X81719029Y-77642530D01*
X81769018Y-77593664D01*
X81835356Y-77563899D01*
X81849601Y-77560448D01*
X81935210Y-77552345D01*
X82010762Y-77566055D01*
G36*
X82010762Y-77566055D02*
G01*
X82074363Y-77600692D01*
X82124123Y-77655372D01*
X82147568Y-77699842D01*
X82157634Y-77739121D01*
X82164156Y-77795116D01*
X82166951Y-77859621D01*
X82165836Y-77924429D01*
X82160626Y-77981334D01*
X82154541Y-78011727D01*
X82134014Y-78053306D01*
X82098463Y-78097468D01*
X82055619Y-78136087D01*
X82013211Y-78161034D01*
X82012177Y-78161430D01*
X81959553Y-78172331D01*
X81897188Y-78172601D01*
X81837924Y-78162676D01*
X81815040Y-78154722D01*
X81756102Y-78121300D01*
X81713890Y-78077511D01*
X81686156Y-78019538D01*
X81670651Y-77943565D01*
X81667143Y-77903771D01*
X81667590Y-77853766D01*
X81802376Y-77853766D01*
X81806917Y-77926732D01*
X81819986Y-77982334D01*
X81840756Y-78017861D01*
X81855552Y-78028020D01*
X81893464Y-78035104D01*
X81938527Y-78033007D01*
X81977487Y-78022812D01*
X81987704Y-78017204D01*
X82014659Y-77984538D01*
X82032451Y-77934545D01*
X82040024Y-77873705D01*
X82036325Y-77808497D01*
X82028057Y-77769253D01*
X82004320Y-77723805D01*
X81966849Y-77695396D01*
X81921720Y-77685573D01*
X81875011Y-77695887D01*
X81839132Y-77721112D01*
X81820277Y-77741925D01*
X81809272Y-77762439D01*
X81804026Y-77790203D01*
X81802449Y-77832762D01*
X81802376Y-77853766D01*
X81667590Y-77853766D01*
X81668094Y-77797580D01*
X81685388Y-77710501D01*
X81719029Y-77642530D01*
X81769018Y-77593664D01*
X81835356Y-77563899D01*
X81849601Y-77560448D01*
X81935210Y-77552345D01*
X82010762Y-77566055D01*
G37*
X81681524Y-78504237D02*
X81731255Y-78507971D01*
X81861291Y-78897773D01*
X81881678Y-78828614D01*
X81893946Y-78785874D01*
X81910085Y-78728115D01*
X81927512Y-78664625D01*
X81936726Y-78630570D01*
X81971388Y-78501683D01*
X82114391Y-78501683D01*
X82071646Y-78636857D01*
X82050596Y-78703342D01*
X82025167Y-78783539D01*
X81998610Y-78867193D01*
X81974902Y-78941782D01*
X81920902Y-79111535D01*
X81862598Y-79115328D01*
X81804295Y-79119122D01*
X81772679Y-79014734D01*
X81753182Y-78949889D01*
X81731904Y-78878400D01*
X81713308Y-78815263D01*
X81712574Y-78812750D01*
X81698684Y-78769969D01*
X81686429Y-78740779D01*
X81677846Y-78729741D01*
X81676082Y-78731018D01*
X81669891Y-78748130D01*
X81658128Y-78784787D01*
X81642225Y-78836378D01*
X81623614Y-78898294D01*
X81613543Y-78932352D01*
X81559007Y-79117822D01*
X81443264Y-79117822D01*
X81350737Y-78825471D01*
X81324744Y-78743462D01*
X81301066Y-78668987D01*
X81280820Y-78605544D01*
X81265126Y-78556632D01*
X81255102Y-78525749D01*
X81252055Y-78516726D01*
X81254467Y-78507487D01*
X81273408Y-78503441D01*
X81312823Y-78503846D01*
X81318993Y-78504152D01*
X81392086Y-78507971D01*
X81439957Y-78684010D01*
X81457553Y-78748211D01*
X81473277Y-78804649D01*
X81485746Y-78848422D01*
X81493574Y-78874630D01*
X81495020Y-78878903D01*
X81501014Y-78873990D01*
X81513101Y-78848532D01*
X81529893Y-78805997D01*
X81550003Y-78749850D01*
X81567003Y-78699130D01*
X81631794Y-78500504D01*
X81681524Y-78504237D01*
G36*
X81681524Y-78504237D02*
G01*
X81731255Y-78507971D01*
X81861291Y-78897773D01*
X81881678Y-78828614D01*
X81893946Y-78785874D01*
X81910085Y-78728115D01*
X81927512Y-78664625D01*
X81936726Y-78630570D01*
X81971388Y-78501683D01*
X82114391Y-78501683D01*
X82071646Y-78636857D01*
X82050596Y-78703342D01*
X82025167Y-78783539D01*
X81998610Y-78867193D01*
X81974902Y-78941782D01*
X81920902Y-79111535D01*
X81862598Y-79115328D01*
X81804295Y-79119122D01*
X81772679Y-79014734D01*
X81753182Y-78949889D01*
X81731904Y-78878400D01*
X81713308Y-78815263D01*
X81712574Y-78812750D01*
X81698684Y-78769969D01*
X81686429Y-78740779D01*
X81677846Y-78729741D01*
X81676082Y-78731018D01*
X81669891Y-78748130D01*
X81658128Y-78784787D01*
X81642225Y-78836378D01*
X81623614Y-78898294D01*
X81613543Y-78932352D01*
X81559007Y-79117822D01*
X81443264Y-79117822D01*
X81350737Y-78825471D01*
X81324744Y-78743462D01*
X81301066Y-78668987D01*
X81280820Y-78605544D01*
X81265126Y-78556632D01*
X81255102Y-78525749D01*
X81252055Y-78516726D01*
X81254467Y-78507487D01*
X81273408Y-78503441D01*
X81312823Y-78503846D01*
X81318993Y-78504152D01*
X81392086Y-78507971D01*
X81439957Y-78684010D01*
X81457553Y-78748211D01*
X81473277Y-78804649D01*
X81485746Y-78848422D01*
X81493574Y-78874630D01*
X81495020Y-78878903D01*
X81501014Y-78873990D01*
X81513101Y-78848532D01*
X81529893Y-78805997D01*
X81550003Y-78749850D01*
X81567003Y-78699130D01*
X81631794Y-78500504D01*
X81681524Y-78504237D01*
G37*
X78861739Y-77565148D02*
X78927521Y-77594231D01*
X78977460Y-77642793D01*
X79011626Y-77710908D01*
X79030093Y-77798651D01*
X79031417Y-77812351D01*
X79032454Y-77908939D01*
X79019007Y-77993602D01*
X78991892Y-78062221D01*
X78977373Y-78084294D01*
X78926799Y-78131011D01*
X78862391Y-78161268D01*
X78790334Y-78173824D01*
X78716815Y-78167439D01*
X78660928Y-78147772D01*
X78612868Y-78114629D01*
X78573588Y-78071175D01*
X78572908Y-78070158D01*
X78556956Y-78043338D01*
X78546590Y-78016368D01*
X78540312Y-77982332D01*
X78536627Y-77934310D01*
X78535003Y-77894931D01*
X78534328Y-77859219D01*
X78660045Y-77859219D01*
X78661274Y-77894770D01*
X78665734Y-77942094D01*
X78673603Y-77972465D01*
X78687793Y-77994072D01*
X78701083Y-78006694D01*
X78748198Y-78033122D01*
X78797495Y-78036653D01*
X78843407Y-78017639D01*
X78866362Y-77996331D01*
X78882904Y-77974859D01*
X78892579Y-77954313D01*
X78896826Y-77927574D01*
X78897080Y-77887523D01*
X78895772Y-77850638D01*
X78892957Y-77797947D01*
X78888495Y-77763772D01*
X78880452Y-77741480D01*
X78866897Y-77724442D01*
X78856155Y-77714703D01*
X78811223Y-77689123D01*
X78762751Y-77687847D01*
X78722106Y-77702999D01*
X78687433Y-77734642D01*
X78666776Y-77786620D01*
X78660045Y-77859219D01*
X78534328Y-77859219D01*
X78533521Y-77816621D01*
X78536052Y-77758056D01*
X78543638Y-77714007D01*
X78557319Y-77679248D01*
X78578135Y-77648551D01*
X78585853Y-77639436D01*
X78634111Y-77594021D01*
X78685872Y-77567493D01*
X78749172Y-77556379D01*
X78780039Y-77555471D01*
X78861739Y-77565148D01*
G36*
X78861739Y-77565148D02*
G01*
X78927521Y-77594231D01*
X78977460Y-77642793D01*
X79011626Y-77710908D01*
X79030093Y-77798651D01*
X79031417Y-77812351D01*
X79032454Y-77908939D01*
X79019007Y-77993602D01*
X78991892Y-78062221D01*
X78977373Y-78084294D01*
X78926799Y-78131011D01*
X78862391Y-78161268D01*
X78790334Y-78173824D01*
X78716815Y-78167439D01*
X78660928Y-78147772D01*
X78612868Y-78114629D01*
X78573588Y-78071175D01*
X78572908Y-78070158D01*
X78556956Y-78043338D01*
X78546590Y-78016368D01*
X78540312Y-77982332D01*
X78536627Y-77934310D01*
X78535003Y-77894931D01*
X78534328Y-77859219D01*
X78660045Y-77859219D01*
X78661274Y-77894770D01*
X78665734Y-77942094D01*
X78673603Y-77972465D01*
X78687793Y-77994072D01*
X78701083Y-78006694D01*
X78748198Y-78033122D01*
X78797495Y-78036653D01*
X78843407Y-78017639D01*
X78866362Y-77996331D01*
X78882904Y-77974859D01*
X78892579Y-77954313D01*
X78896826Y-77927574D01*
X78897080Y-77887523D01*
X78895772Y-77850638D01*
X78892957Y-77797947D01*
X78888495Y-77763772D01*
X78880452Y-77741480D01*
X78866897Y-77724442D01*
X78856155Y-77714703D01*
X78811223Y-77689123D01*
X78762751Y-77687847D01*
X78722106Y-77702999D01*
X78687433Y-77734642D01*
X78666776Y-77786620D01*
X78660045Y-77859219D01*
X78534328Y-77859219D01*
X78533521Y-77816621D01*
X78536052Y-77758056D01*
X78543638Y-77714007D01*
X78557319Y-77679248D01*
X78578135Y-77648551D01*
X78585853Y-77639436D01*
X78634111Y-77594021D01*
X78685872Y-77567493D01*
X78749172Y-77556379D01*
X78780039Y-77555471D01*
X78861739Y-77565148D01*
G37*
X81198812Y-79117822D02*
X81129654Y-79117822D01*
X81089512Y-79116645D01*
X81068606Y-79111772D01*
X81061078Y-79101186D01*
X81060495Y-79094029D01*
X81059226Y-79079676D01*
X81051221Y-79076923D01*
X81030185Y-79085771D01*
X81013827Y-79094029D01*
X80951023Y-79113597D01*
X80882752Y-79114729D01*
X80827248Y-79100135D01*
X80775562Y-79064877D01*
X80736162Y-79012835D01*
X80714587Y-78951450D01*
X80714038Y-78948018D01*
X80710833Y-78910571D01*
X80709239Y-78856813D01*
X80709367Y-78816155D01*
X80846721Y-78816155D01*
X80849903Y-78870194D01*
X80857141Y-78914735D01*
X80866940Y-78939888D01*
X80904011Y-78974260D01*
X80948026Y-78986582D01*
X80993416Y-78976618D01*
X81032203Y-78946895D01*
X81046892Y-78926905D01*
X81055481Y-78903050D01*
X81059504Y-78868230D01*
X81060495Y-78815930D01*
X81058722Y-78764139D01*
X81054037Y-78718634D01*
X81047397Y-78688181D01*
X81046290Y-78685452D01*
X81019509Y-78653000D01*
X80980421Y-78635183D01*
X80936685Y-78632306D01*
X80895962Y-78644674D01*
X80865913Y-78672593D01*
X80862796Y-78678148D01*
X80853039Y-78712022D01*
X80847723Y-78760728D01*
X80846721Y-78816155D01*
X80709367Y-78816155D01*
X80709432Y-78795540D01*
X80710336Y-78762563D01*
X80716486Y-78680981D01*
X80729267Y-78619730D01*
X80750529Y-78574449D01*
X80782122Y-78540779D01*
X80812793Y-78521014D01*
X80855646Y-78507120D01*
X80908944Y-78502354D01*
X80963520Y-78506236D01*
X81010208Y-78518282D01*
X81034876Y-78532693D01*
X81060495Y-78555878D01*
X81060495Y-78262773D01*
X81198812Y-78262773D01*
X81198812Y-79117822D01*
G36*
X81198812Y-79117822D02*
G01*
X81129654Y-79117822D01*
X81089512Y-79116645D01*
X81068606Y-79111772D01*
X81061078Y-79101186D01*
X81060495Y-79094029D01*
X81059226Y-79079676D01*
X81051221Y-79076923D01*
X81030185Y-79085771D01*
X81013827Y-79094029D01*
X80951023Y-79113597D01*
X80882752Y-79114729D01*
X80827248Y-79100135D01*
X80775562Y-79064877D01*
X80736162Y-79012835D01*
X80714587Y-78951450D01*
X80714038Y-78948018D01*
X80710833Y-78910571D01*
X80709239Y-78856813D01*
X80709367Y-78816155D01*
X80846721Y-78816155D01*
X80849903Y-78870194D01*
X80857141Y-78914735D01*
X80866940Y-78939888D01*
X80904011Y-78974260D01*
X80948026Y-78986582D01*
X80993416Y-78976618D01*
X81032203Y-78946895D01*
X81046892Y-78926905D01*
X81055481Y-78903050D01*
X81059504Y-78868230D01*
X81060495Y-78815930D01*
X81058722Y-78764139D01*
X81054037Y-78718634D01*
X81047397Y-78688181D01*
X81046290Y-78685452D01*
X81019509Y-78653000D01*
X80980421Y-78635183D01*
X80936685Y-78632306D01*
X80895962Y-78644674D01*
X80865913Y-78672593D01*
X80862796Y-78678148D01*
X80853039Y-78712022D01*
X80847723Y-78760728D01*
X80846721Y-78816155D01*
X80709367Y-78816155D01*
X80709432Y-78795540D01*
X80710336Y-78762563D01*
X80716486Y-78680981D01*
X80729267Y-78619730D01*
X80750529Y-78574449D01*
X80782122Y-78540779D01*
X80812793Y-78521014D01*
X80855646Y-78507120D01*
X80908944Y-78502354D01*
X80963520Y-78506236D01*
X81010208Y-78518282D01*
X81034876Y-78532693D01*
X81060495Y-78555878D01*
X81060495Y-78262773D01*
X81198812Y-78262773D01*
X81198812Y-79117822D01*
G37*
X84077898Y-77556457D02*
X84110096Y-77564279D01*
X84171825Y-77592921D01*
X84224610Y-77636667D01*
X84261141Y-77689117D01*
X84266160Y-77700893D01*
X84273045Y-77731740D01*
X84277864Y-77777371D01*
X84279505Y-77823492D01*
X84279505Y-77910693D01*
X84097178Y-77910693D01*
X84021979Y-77910978D01*
X83969003Y-77912704D01*
X83935325Y-77917181D01*
X83918020Y-77925720D01*
X83914163Y-77939630D01*
X83920829Y-77960222D01*
X83932770Y-77984315D01*
X83966080Y-78024525D01*
X84012368Y-78044558D01*
X84068944Y-78043905D01*
X84133031Y-78022101D01*
X84188417Y-77995193D01*
X84234375Y-78031532D01*
X84280333Y-78067872D01*
X84237096Y-78107819D01*
X84179374Y-78145563D01*
X84108386Y-78168320D01*
X84032029Y-78174688D01*
X83958199Y-78163268D01*
X83946287Y-78159393D01*
X83881399Y-78125506D01*
X83833130Y-78074986D01*
X83800465Y-78006325D01*
X83782385Y-77918014D01*
X83782175Y-77916121D01*
X83780556Y-77819878D01*
X83787100Y-77785542D01*
X83914852Y-77785542D01*
X83926584Y-77790822D01*
X83958438Y-77794867D01*
X84005397Y-77797176D01*
X84035154Y-77797525D01*
X84090648Y-77797306D01*
X84125346Y-77795916D01*
X84143601Y-77792251D01*
X84149766Y-77785210D01*
X84148195Y-77773690D01*
X84146878Y-77769233D01*
X84124382Y-77727355D01*
X84089003Y-77693604D01*
X84057780Y-77678773D01*
X84016301Y-77679668D01*
X83974269Y-77698164D01*
X83939012Y-77728786D01*
X83917854Y-77766062D01*
X83914852Y-77785542D01*
X83787100Y-77785542D01*
X83796690Y-77735229D01*
X83828698Y-77664191D01*
X83874701Y-77608779D01*
X83932821Y-77571009D01*
X84001180Y-77552896D01*
X84077898Y-77556457D01*
G36*
X84077898Y-77556457D02*
G01*
X84110096Y-77564279D01*
X84171825Y-77592921D01*
X84224610Y-77636667D01*
X84261141Y-77689117D01*
X84266160Y-77700893D01*
X84273045Y-77731740D01*
X84277864Y-77777371D01*
X84279505Y-77823492D01*
X84279505Y-77910693D01*
X84097178Y-77910693D01*
X84021979Y-77910978D01*
X83969003Y-77912704D01*
X83935325Y-77917181D01*
X83918020Y-77925720D01*
X83914163Y-77939630D01*
X83920829Y-77960222D01*
X83932770Y-77984315D01*
X83966080Y-78024525D01*
X84012368Y-78044558D01*
X84068944Y-78043905D01*
X84133031Y-78022101D01*
X84188417Y-77995193D01*
X84234375Y-78031532D01*
X84280333Y-78067872D01*
X84237096Y-78107819D01*
X84179374Y-78145563D01*
X84108386Y-78168320D01*
X84032029Y-78174688D01*
X83958199Y-78163268D01*
X83946287Y-78159393D01*
X83881399Y-78125506D01*
X83833130Y-78074986D01*
X83800465Y-78006325D01*
X83782385Y-77918014D01*
X83782175Y-77916121D01*
X83780556Y-77819878D01*
X83787100Y-77785542D01*
X83914852Y-77785542D01*
X83926584Y-77790822D01*
X83958438Y-77794867D01*
X84005397Y-77797176D01*
X84035154Y-77797525D01*
X84090648Y-77797306D01*
X84125346Y-77795916D01*
X84143601Y-77792251D01*
X84149766Y-77785210D01*
X84148195Y-77773690D01*
X84146878Y-77769233D01*
X84124382Y-77727355D01*
X84089003Y-77693604D01*
X84057780Y-77678773D01*
X84016301Y-77679668D01*
X83974269Y-77698164D01*
X83939012Y-77728786D01*
X83917854Y-77766062D01*
X83914852Y-77785542D01*
X83787100Y-77785542D01*
X83796690Y-77735229D01*
X83828698Y-77664191D01*
X83874701Y-77608779D01*
X83932821Y-77571009D01*
X84001180Y-77552896D01*
X84077898Y-77556457D01*
G37*
X81414017Y-77556452D02*
X81461634Y-77565482D01*
X81511034Y-77584370D01*
X81516312Y-77586777D01*
X81553774Y-77606476D01*
X81579717Y-77624781D01*
X81588103Y-77636508D01*
X81580117Y-77655632D01*
X81560720Y-77683850D01*
X81552110Y-77694384D01*
X81516628Y-77735847D01*
X81470885Y-77708858D01*
X81427350Y-77690878D01*
X81377050Y-77681267D01*
X81328812Y-77680660D01*
X81291467Y-77689691D01*
X81282505Y-77695327D01*
X81265437Y-77721171D01*
X81263363Y-77750941D01*
X81276134Y-77774197D01*
X81283688Y-77778708D01*
X81306325Y-77784309D01*
X81346115Y-77790892D01*
X81395166Y-77797183D01*
X81404215Y-77798170D01*
X81482996Y-77811798D01*
X81540136Y-77834946D01*
X81578030Y-77869752D01*
X81599079Y-77918354D01*
X81605635Y-77977718D01*
X81596577Y-78045198D01*
X81567164Y-78098188D01*
X81517278Y-78136783D01*
X81446800Y-78161081D01*
X81368565Y-78170667D01*
X81304766Y-78170552D01*
X81253016Y-78161845D01*
X81217673Y-78149825D01*
X81173017Y-78128880D01*
X81131747Y-78104574D01*
X81117079Y-78093876D01*
X81079357Y-78063084D01*
X81124852Y-78017049D01*
X81170347Y-77971013D01*
X81222072Y-78005243D01*
X81273952Y-78030952D01*
X81329351Y-78044399D01*
X81382605Y-78045818D01*
X81428049Y-78035443D01*
X81460016Y-78013507D01*
X81470338Y-77994998D01*
X81468789Y-77965314D01*
X81443140Y-77942615D01*
X81393460Y-77926940D01*
X81339031Y-77919695D01*
X81255264Y-77905873D01*
X81193033Y-77879796D01*
X81151507Y-77840699D01*
X81129853Y-77787820D01*
X81126853Y-77725126D01*
X81141671Y-77659642D01*
X81175454Y-77610144D01*
X81228505Y-77576408D01*
X81301126Y-77558207D01*
X81354928Y-77554639D01*
X81414017Y-77556452D01*
G36*
X81414017Y-77556452D02*
G01*
X81461634Y-77565482D01*
X81511034Y-77584370D01*
X81516312Y-77586777D01*
X81553774Y-77606476D01*
X81579717Y-77624781D01*
X81588103Y-77636508D01*
X81580117Y-77655632D01*
X81560720Y-77683850D01*
X81552110Y-77694384D01*
X81516628Y-77735847D01*
X81470885Y-77708858D01*
X81427350Y-77690878D01*
X81377050Y-77681267D01*
X81328812Y-77680660D01*
X81291467Y-77689691D01*
X81282505Y-77695327D01*
X81265437Y-77721171D01*
X81263363Y-77750941D01*
X81276134Y-77774197D01*
X81283688Y-77778708D01*
X81306325Y-77784309D01*
X81346115Y-77790892D01*
X81395166Y-77797183D01*
X81404215Y-77798170D01*
X81482996Y-77811798D01*
X81540136Y-77834946D01*
X81578030Y-77869752D01*
X81599079Y-77918354D01*
X81605635Y-77977718D01*
X81596577Y-78045198D01*
X81567164Y-78098188D01*
X81517278Y-78136783D01*
X81446800Y-78161081D01*
X81368565Y-78170667D01*
X81304766Y-78170552D01*
X81253016Y-78161845D01*
X81217673Y-78149825D01*
X81173017Y-78128880D01*
X81131747Y-78104574D01*
X81117079Y-78093876D01*
X81079357Y-78063084D01*
X81124852Y-78017049D01*
X81170347Y-77971013D01*
X81222072Y-78005243D01*
X81273952Y-78030952D01*
X81329351Y-78044399D01*
X81382605Y-78045818D01*
X81428049Y-78035443D01*
X81460016Y-78013507D01*
X81470338Y-77994998D01*
X81468789Y-77965314D01*
X81443140Y-77942615D01*
X81393460Y-77926940D01*
X81339031Y-77919695D01*
X81255264Y-77905873D01*
X81193033Y-77879796D01*
X81151507Y-77840699D01*
X81129853Y-77787820D01*
X81126853Y-77725126D01*
X81141671Y-77659642D01*
X81175454Y-77610144D01*
X81228505Y-77576408D01*
X81301126Y-77558207D01*
X81354928Y-77554639D01*
X81414017Y-77556452D01*
G37*
X83432581Y-78504970D02*
X83492685Y-78520597D01*
X83543021Y-78552848D01*
X83567393Y-78576940D01*
X83607345Y-78633895D01*
X83630242Y-78699965D01*
X83638108Y-78781182D01*
X83638148Y-78787748D01*
X83638218Y-78853763D01*
X83258264Y-78853763D01*
X83266363Y-78888342D01*
X83280987Y-78919659D01*
X83306581Y-78952291D01*
X83311935Y-78957500D01*
X83357943Y-78985694D01*
X83410410Y-78990475D01*
X83470803Y-78971926D01*
X83481040Y-78966931D01*
X83512439Y-78951745D01*
X83533470Y-78943094D01*
X83537139Y-78942293D01*
X83549948Y-78950063D01*
X83574378Y-78969072D01*
X83586779Y-78979460D01*
X83612476Y-79003321D01*
X83620915Y-79019077D01*
X83615058Y-79033571D01*
X83611928Y-79037534D01*
X83590725Y-79054879D01*
X83555738Y-79075959D01*
X83531337Y-79088265D01*
X83462072Y-79109946D01*
X83385388Y-79116971D01*
X83312765Y-79108647D01*
X83292426Y-79102686D01*
X83229476Y-79068952D01*
X83182815Y-79017045D01*
X83152173Y-78946459D01*
X83137282Y-78856692D01*
X83135647Y-78809753D01*
X83140421Y-78741413D01*
X83260990Y-78741413D01*
X83272652Y-78746465D01*
X83303998Y-78750429D01*
X83349571Y-78752768D01*
X83380446Y-78753169D01*
X83435981Y-78752783D01*
X83471033Y-78750975D01*
X83490262Y-78746773D01*
X83498330Y-78739203D01*
X83499901Y-78728218D01*
X83489121Y-78694381D01*
X83461980Y-78660940D01*
X83426277Y-78635272D01*
X83390560Y-78624772D01*
X83342048Y-78634086D01*
X83300053Y-78661013D01*
X83270936Y-78699827D01*
X83260990Y-78741413D01*
X83140421Y-78741413D01*
X83142599Y-78710236D01*
X83164055Y-78630949D01*
X83200470Y-78571263D01*
X83252297Y-78530549D01*
X83319990Y-78508179D01*
X83356662Y-78503871D01*
X83432581Y-78504970D01*
G36*
X83432581Y-78504970D02*
G01*
X83492685Y-78520597D01*
X83543021Y-78552848D01*
X83567393Y-78576940D01*
X83607345Y-78633895D01*
X83630242Y-78699965D01*
X83638108Y-78781182D01*
X83638148Y-78787748D01*
X83638218Y-78853763D01*
X83258264Y-78853763D01*
X83266363Y-78888342D01*
X83280987Y-78919659D01*
X83306581Y-78952291D01*
X83311935Y-78957500D01*
X83357943Y-78985694D01*
X83410410Y-78990475D01*
X83470803Y-78971926D01*
X83481040Y-78966931D01*
X83512439Y-78951745D01*
X83533470Y-78943094D01*
X83537139Y-78942293D01*
X83549948Y-78950063D01*
X83574378Y-78969072D01*
X83586779Y-78979460D01*
X83612476Y-79003321D01*
X83620915Y-79019077D01*
X83615058Y-79033571D01*
X83611928Y-79037534D01*
X83590725Y-79054879D01*
X83555738Y-79075959D01*
X83531337Y-79088265D01*
X83462072Y-79109946D01*
X83385388Y-79116971D01*
X83312765Y-79108647D01*
X83292426Y-79102686D01*
X83229476Y-79068952D01*
X83182815Y-79017045D01*
X83152173Y-78946459D01*
X83137282Y-78856692D01*
X83135647Y-78809753D01*
X83140421Y-78741413D01*
X83260990Y-78741413D01*
X83272652Y-78746465D01*
X83303998Y-78750429D01*
X83349571Y-78752768D01*
X83380446Y-78753169D01*
X83435981Y-78752783D01*
X83471033Y-78750975D01*
X83490262Y-78746773D01*
X83498330Y-78739203D01*
X83499901Y-78728218D01*
X83489121Y-78694381D01*
X83461980Y-78660940D01*
X83426277Y-78635272D01*
X83390560Y-78624772D01*
X83342048Y-78634086D01*
X83300053Y-78661013D01*
X83270936Y-78699827D01*
X83260990Y-78741413D01*
X83140421Y-78741413D01*
X83142599Y-78710236D01*
X83164055Y-78630949D01*
X83200470Y-78571263D01*
X83252297Y-78530549D01*
X83319990Y-78508179D01*
X83356662Y-78503871D01*
X83432581Y-78504970D01*
G37*
X80043301Y-77572614D02*
X80055832Y-77578514D01*
X80099201Y-77610283D01*
X80140210Y-77656646D01*
X80170832Y-77707696D01*
X80179541Y-77731166D01*
X80187488Y-77773091D01*
X80192226Y-77823757D01*
X80192801Y-77844679D01*
X80192871Y-77910693D01*
X79812917Y-77910693D01*
X79821017Y-77945273D01*
X79840896Y-77986170D01*
X79875653Y-78021514D01*
X79917002Y-78044282D01*
X79943351Y-78049010D01*
X79979084Y-78043273D01*
X80021718Y-78028882D01*
X80036201Y-78022262D01*
X80089760Y-77995513D01*
X80135467Y-78030376D01*
X80161842Y-78053955D01*
X80175876Y-78073417D01*
X80176586Y-78079129D01*
X80164049Y-78092973D01*
X80136572Y-78114012D01*
X80111634Y-78130425D01*
X80044336Y-78159930D01*
X79968890Y-78173284D01*
X79894112Y-78169812D01*
X79834505Y-78151663D01*
X79773059Y-78112784D01*
X79729392Y-78061595D01*
X79702074Y-77995367D01*
X79689678Y-77911371D01*
X79688579Y-77872936D01*
X79692978Y-77784861D01*
X79693518Y-77782299D01*
X79819418Y-77782299D01*
X79822885Y-77790558D01*
X79837137Y-77795113D01*
X79866530Y-77797065D01*
X79915425Y-77797517D01*
X79934252Y-77797525D01*
X79991533Y-77796843D01*
X80027859Y-77794364D01*
X80047396Y-77789443D01*
X80054310Y-77781434D01*
X80054555Y-77778862D01*
X80046664Y-77758423D01*
X80026915Y-77729789D01*
X80018425Y-77719763D01*
X79986906Y-77691408D01*
X79954051Y-77680259D01*
X79936349Y-77679327D01*
X79888461Y-77690981D01*
X79848301Y-77722285D01*
X79822827Y-77767752D01*
X79822375Y-77769233D01*
X79819418Y-77782299D01*
X79693518Y-77782299D01*
X79707608Y-77715510D01*
X79733962Y-77660025D01*
X79766193Y-77620639D01*
X79825783Y-77577931D01*
X79895832Y-77555109D01*
X79970339Y-77553046D01*
X80043301Y-77572614D01*
G36*
X80043301Y-77572614D02*
G01*
X80055832Y-77578514D01*
X80099201Y-77610283D01*
X80140210Y-77656646D01*
X80170832Y-77707696D01*
X80179541Y-77731166D01*
X80187488Y-77773091D01*
X80192226Y-77823757D01*
X80192801Y-77844679D01*
X80192871Y-77910693D01*
X79812917Y-77910693D01*
X79821017Y-77945273D01*
X79840896Y-77986170D01*
X79875653Y-78021514D01*
X79917002Y-78044282D01*
X79943351Y-78049010D01*
X79979084Y-78043273D01*
X80021718Y-78028882D01*
X80036201Y-78022262D01*
X80089760Y-77995513D01*
X80135467Y-78030376D01*
X80161842Y-78053955D01*
X80175876Y-78073417D01*
X80176586Y-78079129D01*
X80164049Y-78092973D01*
X80136572Y-78114012D01*
X80111634Y-78130425D01*
X80044336Y-78159930D01*
X79968890Y-78173284D01*
X79894112Y-78169812D01*
X79834505Y-78151663D01*
X79773059Y-78112784D01*
X79729392Y-78061595D01*
X79702074Y-77995367D01*
X79689678Y-77911371D01*
X79688579Y-77872936D01*
X79692978Y-77784861D01*
X79693518Y-77782299D01*
X79819418Y-77782299D01*
X79822885Y-77790558D01*
X79837137Y-77795113D01*
X79866530Y-77797065D01*
X79915425Y-77797517D01*
X79934252Y-77797525D01*
X79991533Y-77796843D01*
X80027859Y-77794364D01*
X80047396Y-77789443D01*
X80054310Y-77781434D01*
X80054555Y-77778862D01*
X80046664Y-77758423D01*
X80026915Y-77729789D01*
X80018425Y-77719763D01*
X79986906Y-77691408D01*
X79954051Y-77680259D01*
X79936349Y-77679327D01*
X79888461Y-77690981D01*
X79848301Y-77722285D01*
X79822827Y-77767752D01*
X79822375Y-77769233D01*
X79819418Y-77782299D01*
X79693518Y-77782299D01*
X79707608Y-77715510D01*
X79733962Y-77660025D01*
X79766193Y-77620639D01*
X79825783Y-77577931D01*
X79895832Y-77555109D01*
X79970339Y-77553046D01*
X80043301Y-77572614D01*
G37*
X82438411Y-78505417D02*
X82491411Y-78518290D01*
X82506731Y-78525110D01*
X82536428Y-78542974D01*
X82559220Y-78563093D01*
X82576083Y-78588962D01*
X82587998Y-78624073D01*
X82595942Y-78671920D01*
X82600894Y-78735996D01*
X82603831Y-78819794D01*
X82604947Y-78875768D01*
X82609052Y-79117822D01*
X82538932Y-79117822D01*
X82496393Y-79116038D01*
X82474476Y-79109942D01*
X82468812Y-79099706D01*
X82465821Y-79088637D01*
X82452451Y-79090754D01*
X82434233Y-79099629D01*
X82388624Y-79113233D01*
X82330007Y-79116899D01*
X82268354Y-79110903D01*
X82213638Y-79095521D01*
X82208730Y-79093386D01*
X82158723Y-79058255D01*
X82125756Y-79009419D01*
X82110587Y-78952333D01*
X82111746Y-78931824D01*
X82235508Y-78931824D01*
X82246413Y-78959425D01*
X82278745Y-78979204D01*
X82330910Y-78989819D01*
X82358787Y-78991228D01*
X82405247Y-78987620D01*
X82436129Y-78973597D01*
X82443664Y-78966931D01*
X82464076Y-78930666D01*
X82468812Y-78897773D01*
X82468812Y-78853763D01*
X82407513Y-78853763D01*
X82336256Y-78857395D01*
X82286276Y-78868818D01*
X82254696Y-78888824D01*
X82247626Y-78897743D01*
X82235508Y-78931824D01*
X82111746Y-78931824D01*
X82113971Y-78892456D01*
X82136663Y-78835244D01*
X82167624Y-78796580D01*
X82186376Y-78779864D01*
X82204733Y-78768878D01*
X82228619Y-78762180D01*
X82263957Y-78758326D01*
X82316669Y-78755873D01*
X82337577Y-78755168D01*
X82468812Y-78750879D01*
X82468620Y-78711158D01*
X82463537Y-78669405D01*
X82445162Y-78644158D01*
X82408039Y-78628030D01*
X82407043Y-78627742D01*
X82354410Y-78621400D01*
X82302906Y-78629684D01*
X82264630Y-78649827D01*
X82249272Y-78659773D01*
X82232730Y-78658397D01*
X82207275Y-78643987D01*
X82192328Y-78633817D01*
X82163091Y-78612088D01*
X82144980Y-78595800D01*
X82142074Y-78591137D01*
X82154040Y-78567005D01*
X82189396Y-78538185D01*
X82204753Y-78528461D01*
X82248901Y-78511714D01*
X82308398Y-78502227D01*
X82374487Y-78500095D01*
X82438411Y-78505417D01*
G36*
X82438411Y-78505417D02*
G01*
X82491411Y-78518290D01*
X82506731Y-78525110D01*
X82536428Y-78542974D01*
X82559220Y-78563093D01*
X82576083Y-78588962D01*
X82587998Y-78624073D01*
X82595942Y-78671920D01*
X82600894Y-78735996D01*
X82603831Y-78819794D01*
X82604947Y-78875768D01*
X82609052Y-79117822D01*
X82538932Y-79117822D01*
X82496393Y-79116038D01*
X82474476Y-79109942D01*
X82468812Y-79099706D01*
X82465821Y-79088637D01*
X82452451Y-79090754D01*
X82434233Y-79099629D01*
X82388624Y-79113233D01*
X82330007Y-79116899D01*
X82268354Y-79110903D01*
X82213638Y-79095521D01*
X82208730Y-79093386D01*
X82158723Y-79058255D01*
X82125756Y-79009419D01*
X82110587Y-78952333D01*
X82111746Y-78931824D01*
X82235508Y-78931824D01*
X82246413Y-78959425D01*
X82278745Y-78979204D01*
X82330910Y-78989819D01*
X82358787Y-78991228D01*
X82405247Y-78987620D01*
X82436129Y-78973597D01*
X82443664Y-78966931D01*
X82464076Y-78930666D01*
X82468812Y-78897773D01*
X82468812Y-78853763D01*
X82407513Y-78853763D01*
X82336256Y-78857395D01*
X82286276Y-78868818D01*
X82254696Y-78888824D01*
X82247626Y-78897743D01*
X82235508Y-78931824D01*
X82111746Y-78931824D01*
X82113971Y-78892456D01*
X82136663Y-78835244D01*
X82167624Y-78796580D01*
X82186376Y-78779864D01*
X82204733Y-78768878D01*
X82228619Y-78762180D01*
X82263957Y-78758326D01*
X82316669Y-78755873D01*
X82337577Y-78755168D01*
X82468812Y-78750879D01*
X82468620Y-78711158D01*
X82463537Y-78669405D01*
X82445162Y-78644158D01*
X82408039Y-78628030D01*
X82407043Y-78627742D01*
X82354410Y-78621400D01*
X82302906Y-78629684D01*
X82264630Y-78649827D01*
X82249272Y-78659773D01*
X82232730Y-78658397D01*
X82207275Y-78643987D01*
X82192328Y-78633817D01*
X82163091Y-78612088D01*
X82144980Y-78595800D01*
X82142074Y-78591137D01*
X82154040Y-78567005D01*
X82189396Y-78538185D01*
X82204753Y-78528461D01*
X82248901Y-78511714D01*
X82308398Y-78502227D01*
X82374487Y-78500095D01*
X82438411Y-78505417D01*
G37*
X80015790Y-78506555D02*
X80074945Y-78522339D01*
X80119977Y-78550948D01*
X80151754Y-78588419D01*
X80161634Y-78604411D01*
X80168927Y-78621163D01*
X80174026Y-78642592D01*
X80177321Y-78672616D01*
X80179203Y-78715154D01*
X80180063Y-78774122D01*
X80180293Y-78853440D01*
X80180297Y-78874484D01*
X80180297Y-79117822D01*
X80119941Y-79117822D01*
X80081443Y-79115126D01*
X80052977Y-79108295D01*
X80045845Y-79104083D01*
X80026348Y-79096813D01*
X80006434Y-79104083D01*
X79973647Y-79113160D01*
X79926022Y-79116813D01*
X79873236Y-79115228D01*
X79824964Y-79108589D01*
X79796782Y-79100072D01*
X79742247Y-79065063D01*
X79708165Y-79016479D01*
X79692843Y-78951882D01*
X79692701Y-78950223D01*
X79694045Y-78921566D01*
X79815644Y-78921566D01*
X79826274Y-78954161D01*
X79843590Y-78972505D01*
X79878348Y-78986379D01*
X79924227Y-78991917D01*
X79971012Y-78989191D01*
X80008486Y-78978274D01*
X80018985Y-78971269D01*
X80037332Y-78938904D01*
X80041980Y-78902111D01*
X80041980Y-78853763D01*
X79972418Y-78853763D01*
X79906333Y-78858850D01*
X79856236Y-78873263D01*
X79825071Y-78895729D01*
X79815644Y-78921566D01*
X79694045Y-78921566D01*
X79696013Y-78879647D01*
X79719290Y-78823845D01*
X79763052Y-78781647D01*
X79769101Y-78777808D01*
X79795093Y-78765309D01*
X79827265Y-78757740D01*
X79872240Y-78754061D01*
X79925669Y-78753216D01*
X80041980Y-78753169D01*
X80041980Y-78704411D01*
X80037047Y-78666581D01*
X80024457Y-78641236D01*
X80022983Y-78639887D01*
X79994966Y-78628800D01*
X79952674Y-78624503D01*
X79905936Y-78626615D01*
X79864582Y-78634756D01*
X79840043Y-78646965D01*
X79826747Y-78656746D01*
X79812706Y-78658613D01*
X79793329Y-78650600D01*
X79764024Y-78630739D01*
X79720197Y-78597063D01*
X79716175Y-78593909D01*
X79718236Y-78582236D01*
X79735432Y-78562822D01*
X79761567Y-78541248D01*
X79790448Y-78523096D01*
X79799522Y-78518809D01*
X79832620Y-78510256D01*
X79881120Y-78504155D01*
X79935305Y-78501708D01*
X79937839Y-78501703D01*
X80015790Y-78506555D01*
G36*
X80015790Y-78506555D02*
G01*
X80074945Y-78522339D01*
X80119977Y-78550948D01*
X80151754Y-78588419D01*
X80161634Y-78604411D01*
X80168927Y-78621163D01*
X80174026Y-78642592D01*
X80177321Y-78672616D01*
X80179203Y-78715154D01*
X80180063Y-78774122D01*
X80180293Y-78853440D01*
X80180297Y-78874484D01*
X80180297Y-79117822D01*
X80119941Y-79117822D01*
X80081443Y-79115126D01*
X80052977Y-79108295D01*
X80045845Y-79104083D01*
X80026348Y-79096813D01*
X80006434Y-79104083D01*
X79973647Y-79113160D01*
X79926022Y-79116813D01*
X79873236Y-79115228D01*
X79824964Y-79108589D01*
X79796782Y-79100072D01*
X79742247Y-79065063D01*
X79708165Y-79016479D01*
X79692843Y-78951882D01*
X79692701Y-78950223D01*
X79694045Y-78921566D01*
X79815644Y-78921566D01*
X79826274Y-78954161D01*
X79843590Y-78972505D01*
X79878348Y-78986379D01*
X79924227Y-78991917D01*
X79971012Y-78989191D01*
X80008486Y-78978274D01*
X80018985Y-78971269D01*
X80037332Y-78938904D01*
X80041980Y-78902111D01*
X80041980Y-78853763D01*
X79972418Y-78853763D01*
X79906333Y-78858850D01*
X79856236Y-78873263D01*
X79825071Y-78895729D01*
X79815644Y-78921566D01*
X79694045Y-78921566D01*
X79696013Y-78879647D01*
X79719290Y-78823845D01*
X79763052Y-78781647D01*
X79769101Y-78777808D01*
X79795093Y-78765309D01*
X79827265Y-78757740D01*
X79872240Y-78754061D01*
X79925669Y-78753216D01*
X80041980Y-78753169D01*
X80041980Y-78704411D01*
X80037047Y-78666581D01*
X80024457Y-78641236D01*
X80022983Y-78639887D01*
X79994966Y-78628800D01*
X79952674Y-78624503D01*
X79905936Y-78626615D01*
X79864582Y-78634756D01*
X79840043Y-78646965D01*
X79826747Y-78656746D01*
X79812706Y-78658613D01*
X79793329Y-78650600D01*
X79764024Y-78630739D01*
X79720197Y-78597063D01*
X79716175Y-78593909D01*
X79718236Y-78582236D01*
X79735432Y-78562822D01*
X79761567Y-78541248D01*
X79790448Y-78523096D01*
X79799522Y-78518809D01*
X79832620Y-78510256D01*
X79881120Y-78504155D01*
X79935305Y-78501708D01*
X79937839Y-78501703D01*
X80015790Y-78506555D01*
G37*
X79491241Y-77569184D02*
X79517753Y-77582282D01*
X79550447Y-77605106D01*
X79574275Y-77629996D01*
X79590594Y-77661249D01*
X79600760Y-77703166D01*
X79606128Y-77760044D01*
X79608056Y-77836184D01*
X79608169Y-77868917D01*
X79607839Y-77940656D01*
X79606473Y-77991927D01*
X79603500Y-78027404D01*
X79598351Y-78051763D01*
X79590457Y-78069680D01*
X79582243Y-78081902D01*
X79529813Y-78133905D01*
X79468070Y-78165184D01*
X79401464Y-78174592D01*
X79334442Y-78160980D01*
X79313208Y-78151354D01*
X79262376Y-78124859D01*
X79262376Y-78540052D01*
X79299475Y-78520868D01*
X79348357Y-78506025D01*
X79408439Y-78502222D01*
X79468436Y-78509243D01*
X79513744Y-78525013D01*
X79551325Y-78555047D01*
X79583436Y-78598024D01*
X79585850Y-78602436D01*
X79596033Y-78623221D01*
X79603470Y-78644170D01*
X79608589Y-78669548D01*
X79611819Y-78703618D01*
X79613587Y-78750641D01*
X79614323Y-78814882D01*
X79614456Y-78887176D01*
X79614456Y-79117822D01*
X79476139Y-79117822D01*
X79476139Y-78692533D01*
X79437451Y-78659979D01*
X79397262Y-78633940D01*
X79359203Y-78629205D01*
X79320934Y-78641389D01*
X79300538Y-78653320D01*
X79285358Y-78670313D01*
X79274562Y-78695995D01*
X79267317Y-78733991D01*
X79262792Y-78787926D01*
X79260156Y-78861425D01*
X79259228Y-78910347D01*
X79256089Y-79111535D01*
X79190074Y-79115336D01*
X79124060Y-79119136D01*
X79124060Y-77870650D01*
X79262376Y-77870650D01*
X79265903Y-77940254D01*
X79277785Y-77988569D01*
X79299980Y-78018631D01*
X79334441Y-78033471D01*
X79369258Y-78036436D01*
X79408671Y-78033028D01*
X79434829Y-78019617D01*
X79451186Y-78001896D01*
X79464063Y-77982835D01*
X79471728Y-77961601D01*
X79475139Y-77931849D01*
X79475251Y-77887236D01*
X79474103Y-77849880D01*
X79471468Y-77793604D01*
X79467544Y-77756658D01*
X79460937Y-77733223D01*
X79450251Y-77717480D01*
X79440167Y-77708380D01*
X79398030Y-77688537D01*
X79348160Y-77685332D01*
X79319524Y-77692168D01*
X79291172Y-77716464D01*
X79272391Y-77763728D01*
X79263288Y-77833624D01*
X79262376Y-77870650D01*
X79124060Y-77870650D01*
X79124060Y-77558614D01*
X79193218Y-77558614D01*
X79234740Y-77560256D01*
X79256162Y-77566087D01*
X79262374Y-77577461D01*
X79262376Y-77577798D01*
X79265258Y-77588938D01*
X79277970Y-77587673D01*
X79303243Y-77575433D01*
X79362131Y-77556707D01*
X79428385Y-77554739D01*
X79491241Y-77569184D01*
G36*
X79491241Y-77569184D02*
G01*
X79517753Y-77582282D01*
X79550447Y-77605106D01*
X79574275Y-77629996D01*
X79590594Y-77661249D01*
X79600760Y-77703166D01*
X79606128Y-77760044D01*
X79608056Y-77836184D01*
X79608169Y-77868917D01*
X79607839Y-77940656D01*
X79606473Y-77991927D01*
X79603500Y-78027404D01*
X79598351Y-78051763D01*
X79590457Y-78069680D01*
X79582243Y-78081902D01*
X79529813Y-78133905D01*
X79468070Y-78165184D01*
X79401464Y-78174592D01*
X79334442Y-78160980D01*
X79313208Y-78151354D01*
X79262376Y-78124859D01*
X79262376Y-78540052D01*
X79299475Y-78520868D01*
X79348357Y-78506025D01*
X79408439Y-78502222D01*
X79468436Y-78509243D01*
X79513744Y-78525013D01*
X79551325Y-78555047D01*
X79583436Y-78598024D01*
X79585850Y-78602436D01*
X79596033Y-78623221D01*
X79603470Y-78644170D01*
X79608589Y-78669548D01*
X79611819Y-78703618D01*
X79613587Y-78750641D01*
X79614323Y-78814882D01*
X79614456Y-78887176D01*
X79614456Y-79117822D01*
X79476139Y-79117822D01*
X79476139Y-78692533D01*
X79437451Y-78659979D01*
X79397262Y-78633940D01*
X79359203Y-78629205D01*
X79320934Y-78641389D01*
X79300538Y-78653320D01*
X79285358Y-78670313D01*
X79274562Y-78695995D01*
X79267317Y-78733991D01*
X79262792Y-78787926D01*
X79260156Y-78861425D01*
X79259228Y-78910347D01*
X79256089Y-79111535D01*
X79190074Y-79115336D01*
X79124060Y-79119136D01*
X79124060Y-77870650D01*
X79262376Y-77870650D01*
X79265903Y-77940254D01*
X79277785Y-77988569D01*
X79299980Y-78018631D01*
X79334441Y-78033471D01*
X79369258Y-78036436D01*
X79408671Y-78033028D01*
X79434829Y-78019617D01*
X79451186Y-78001896D01*
X79464063Y-77982835D01*
X79471728Y-77961601D01*
X79475139Y-77931849D01*
X79475251Y-77887236D01*
X79474103Y-77849880D01*
X79471468Y-77793604D01*
X79467544Y-77756658D01*
X79460937Y-77733223D01*
X79450251Y-77717480D01*
X79440167Y-77708380D01*
X79398030Y-77688537D01*
X79348160Y-77685332D01*
X79319524Y-77692168D01*
X79291172Y-77716464D01*
X79272391Y-77763728D01*
X79263288Y-77833624D01*
X79262376Y-77870650D01*
X79124060Y-77870650D01*
X79124060Y-77558614D01*
X79193218Y-77558614D01*
X79234740Y-77560256D01*
X79256162Y-77566087D01*
X79262374Y-77577461D01*
X79262376Y-77577798D01*
X79265258Y-77588938D01*
X79277970Y-77587673D01*
X79303243Y-77575433D01*
X79362131Y-77556707D01*
X79428385Y-77554739D01*
X79491241Y-77569184D01*
G37*
X81776964Y-73390018D02*
X81833812Y-73691570D01*
X82253338Y-73864512D01*
X82504984Y-73693395D01*
X82575458Y-73645750D01*
X82639163Y-73603210D01*
X82693126Y-73567715D01*
X82734373Y-73541210D01*
X82759934Y-73525636D01*
X82766895Y-73522278D01*
X82779435Y-73530914D01*
X82806231Y-73554792D01*
X82844280Y-73590859D01*
X82890579Y-73636067D01*
X82942123Y-73687364D01*
X82995909Y-73741701D01*
X83048935Y-73796028D01*
X83098195Y-73847295D01*
X83140687Y-73892451D01*
X83173407Y-73928446D01*
X83193351Y-73952230D01*
X83198119Y-73960190D01*
X83191257Y-73974865D01*
X83172020Y-74007014D01*
X83142430Y-74053492D01*
X83104510Y-74111156D01*
X83060282Y-74176860D01*
X83034654Y-74214336D01*
X82987941Y-74282768D01*
X82946432Y-74344520D01*
X82912140Y-74396519D01*
X82887080Y-74435692D01*
X82873264Y-74458965D01*
X82871188Y-74463855D01*
X82875895Y-74477755D01*
X82888723Y-74510150D01*
X82907738Y-74556485D01*
X82931003Y-74612206D01*
X82956584Y-74672758D01*
X82982545Y-74733586D01*
X83006950Y-74790136D01*
X83027863Y-74837852D01*
X83043349Y-74872181D01*
X83051472Y-74888568D01*
X83051952Y-74889212D01*
X83064707Y-74892341D01*
X83098677Y-74899321D01*
X83150340Y-74909467D01*
X83216176Y-74922092D01*
X83292664Y-74936509D01*
X83337290Y-74944823D01*
X83419021Y-74960384D01*
X83492843Y-74975192D01*
X83555021Y-74988436D01*
X83601822Y-74999305D01*
X83629509Y-75006989D01*
X83635074Y-75009427D01*
X83640526Y-75025930D01*
X83644924Y-75063200D01*
X83648272Y-75116880D01*
X83650574Y-75182612D01*
X83651832Y-75256037D01*
X83652048Y-75332796D01*
X83651227Y-75408532D01*
X83649371Y-75478886D01*
X83646482Y-75539500D01*
X83642565Y-75586016D01*
X83637622Y-75614075D01*
X83634657Y-75619916D01*
X83616934Y-75626917D01*
X83579381Y-75636927D01*
X83526964Y-75648769D01*
X83464652Y-75661267D01*
X83442900Y-75665310D01*
X83338024Y-75684520D01*
X83255180Y-75699991D01*
X83191630Y-75712337D01*
X83144637Y-75722173D01*
X83111463Y-75730114D01*
X83089371Y-75736776D01*
X83075624Y-75742773D01*
X83067484Y-75748719D01*
X83066345Y-75749894D01*
X83054977Y-75768826D01*
X83037635Y-75805669D01*
X83016050Y-75855913D01*
X82991954Y-75915046D01*
X82967079Y-75978556D01*
X82943157Y-76041932D01*
X82921919Y-76100662D01*
X82905097Y-76150235D01*
X82894422Y-76186139D01*
X82891627Y-76203862D01*
X82891860Y-76204483D01*
X82901331Y-76218970D01*
X82922818Y-76250844D01*
X82954063Y-76296789D01*
X82992807Y-76353485D01*
X83036793Y-76417617D01*
X83049319Y-76435842D01*
X83093984Y-76501914D01*
X83133288Y-76562200D01*
X83165088Y-76613235D01*
X83187245Y-76651560D01*
X83197617Y-76673711D01*
X83198119Y-76676432D01*
X83189405Y-76690736D01*
X83165325Y-76719072D01*
X83128976Y-76758396D01*
X83083453Y-76805661D01*
X83031852Y-76857823D01*
X82977267Y-76911835D01*
X82922794Y-76964653D01*
X82871529Y-77013231D01*
X82826567Y-77054523D01*
X82791004Y-77085485D01*
X82767935Y-77103070D01*
X82761554Y-77105941D01*
X82746699Y-77099178D01*
X82716286Y-77080939D01*
X82675268Y-77054297D01*
X82643709Y-77032852D01*
X82586525Y-76993503D01*
X82518806Y-76947171D01*
X82450880Y-76900913D01*
X82414361Y-76876155D01*
X82290752Y-76792547D01*
X82186991Y-76848650D01*
X82139720Y-76873228D01*
X82099523Y-76892331D01*
X82072326Y-76903227D01*
X82065402Y-76904743D01*
X82057077Y-76893549D01*
X82040654Y-76861917D01*
X82017357Y-76812765D01*
X81988414Y-76749010D01*
X81955050Y-76673571D01*
X81918491Y-76589364D01*
X81879964Y-76499308D01*
X81840694Y-76406321D01*
X81801908Y-76313320D01*
X81764830Y-76223223D01*
X81730689Y-76138948D01*
X81700708Y-76063413D01*
X81676116Y-75999534D01*
X81658136Y-75950231D01*
X81647997Y-75918421D01*
X81646366Y-75907496D01*
X81659291Y-75893561D01*
X81687589Y-75870940D01*
X81725346Y-75844333D01*
X81728515Y-75842228D01*
X81826100Y-75764114D01*
X81904786Y-75672982D01*
X81963891Y-75571745D01*
X82002732Y-75463318D01*
X82020628Y-75350614D01*
X82016897Y-75236548D01*
X81990857Y-75124034D01*
X81941825Y-75015985D01*
X81927400Y-74992345D01*
X81852369Y-74896887D01*
X81763730Y-74820232D01*
X81664549Y-74762780D01*
X81557895Y-74724929D01*
X81446836Y-74707078D01*
X81334439Y-74709625D01*
X81223773Y-74732970D01*
X81117906Y-74777510D01*
X81019905Y-74843645D01*
X80989590Y-74870487D01*
X80912438Y-74954512D01*
X80856218Y-75042966D01*
X80817653Y-75142115D01*
X80796174Y-75240303D01*
X80790872Y-75350697D01*
X80808552Y-75461640D01*
X80847419Y-75569381D01*
X80905677Y-75670169D01*
X80981531Y-75760256D01*
X81073183Y-75835892D01*
X81085228Y-75843864D01*
X81123389Y-75869974D01*
X81152399Y-75892595D01*
X81166268Y-75907039D01*
X81166469Y-75907496D01*
X81163492Y-75923121D01*
X81151689Y-75958582D01*
X81132286Y-76010962D01*
X81106512Y-76077345D01*
X81075591Y-76154814D01*
X81040751Y-76240450D01*
X81003217Y-76331337D01*
X80964217Y-76424559D01*
X80924977Y-76517197D01*
X80886724Y-76606335D01*
X80850683Y-76689055D01*
X80818083Y-76762441D01*
X80790148Y-76823575D01*
X80768105Y-76869541D01*
X80753182Y-76897421D01*
X80747172Y-76904743D01*
X80728809Y-76899041D01*
X80694448Y-76883749D01*
X80650016Y-76861599D01*
X80625583Y-76848650D01*
X80521822Y-76792547D01*
X80398213Y-76876155D01*
X80335114Y-76918987D01*
X80266030Y-76966122D01*
X80201293Y-77010503D01*
X80168866Y-77032852D01*
X80123259Y-77063477D01*
X80084640Y-77087747D01*
X80058048Y-77102587D01*
X80049410Y-77105724D01*
X80036839Y-77097261D01*
X80009016Y-77073636D01*
X79968639Y-77037302D01*
X79918405Y-76990711D01*
X79861012Y-76936317D01*
X79824714Y-76901392D01*
X79761210Y-76838996D01*
X79706327Y-76783188D01*
X79662286Y-76736354D01*
X79631305Y-76700882D01*
X79615602Y-76679161D01*
X79614095Y-76674752D01*
X79621086Y-76657985D01*
X79640406Y-76624082D01*
X79669909Y-76576476D01*
X79707455Y-76518599D01*
X79750900Y-76453884D01*
X79763255Y-76435842D01*
X79808273Y-76370267D01*
X79848660Y-76311228D01*
X79882160Y-76262042D01*
X79906514Y-76226028D01*
X79919464Y-76206502D01*
X79920715Y-76204483D01*
X79918844Y-76188922D01*
X79908913Y-76154709D01*
X79892653Y-76106355D01*
X79871795Y-76048371D01*
X79848073Y-75985270D01*
X79823216Y-75921563D01*
X79798958Y-75861761D01*
X79777029Y-75810376D01*
X79759162Y-75771919D01*
X79747087Y-75750902D01*
X79746229Y-75749894D01*
X79738846Y-75743888D01*
X79726375Y-75737948D01*
X79706080Y-75731460D01*
X79675222Y-75723809D01*
X79631066Y-75714380D01*
X79570874Y-75702559D01*
X79491907Y-75687729D01*
X79391430Y-75669277D01*
X79369675Y-75665310D01*
X79305198Y-75652853D01*
X79248989Y-75640666D01*
X79206013Y-75629926D01*
X79181240Y-75621809D01*
X79177918Y-75619916D01*
X79172444Y-75603138D01*
X79167994Y-75565645D01*
X79164572Y-75511794D01*
X79162181Y-75445944D01*
X79160823Y-75372453D01*
X79160501Y-75295680D01*
X79161219Y-75219983D01*
X79162979Y-75149720D01*
X79165784Y-75089250D01*
X79169638Y-75042930D01*
X79174543Y-75015119D01*
X79177500Y-75009427D01*
X79193963Y-75003686D01*
X79231449Y-74994345D01*
X79286225Y-74982215D01*
X79354555Y-74968107D01*
X79432706Y-74952830D01*
X79475284Y-74944823D01*
X79556071Y-74929721D01*
X79628113Y-74916040D01*
X79687889Y-74904467D01*
X79731879Y-74895687D01*
X79756561Y-74890387D01*
X79760623Y-74889212D01*
X79767489Y-74875965D01*
X79782002Y-74844057D01*
X79802229Y-74798047D01*
X79826234Y-74742492D01*
X79852082Y-74681953D01*
X79877840Y-74620986D01*
X79901573Y-74564151D01*
X79921346Y-74516006D01*
X79935224Y-74481110D01*
X79941274Y-74464021D01*
X79941386Y-74463274D01*
X79934528Y-74449793D01*
X79915302Y-74418770D01*
X79885728Y-74373289D01*
X79847827Y-74316432D01*
X79803620Y-74251283D01*
X79777921Y-74213862D01*
X79731093Y-74145247D01*
X79689501Y-74082952D01*
X79655175Y-74030129D01*
X79630143Y-73989927D01*
X79616435Y-73965500D01*
X79614456Y-73960024D01*
X79622966Y-73947278D01*
X79646493Y-73920063D01*
X79682032Y-73881428D01*
X79726577Y-73834423D01*
X79777123Y-73782095D01*
X79830664Y-73727495D01*
X79884195Y-73673670D01*
X79934711Y-73623670D01*
X79979206Y-73580543D01*
X80014675Y-73547339D01*
X80038113Y-73527106D01*
X80045954Y-73522278D01*
X80058720Y-73529067D01*
X80089256Y-73548142D01*
X80134590Y-73577561D01*
X80191756Y-73615381D01*
X80257784Y-73659661D01*
X80307590Y-73693395D01*
X80559236Y-73864512D01*
X80768999Y-73778041D01*
X80978763Y-73691570D01*
X81035611Y-73390018D01*
X81092460Y-73088466D01*
X81720115Y-73088466D01*
X81776964Y-73390018D01*
G36*
X81776964Y-73390018D02*
G01*
X81833812Y-73691570D01*
X82253338Y-73864512D01*
X82504984Y-73693395D01*
X82575458Y-73645750D01*
X82639163Y-73603210D01*
X82693126Y-73567715D01*
X82734373Y-73541210D01*
X82759934Y-73525636D01*
X82766895Y-73522278D01*
X82779435Y-73530914D01*
X82806231Y-73554792D01*
X82844280Y-73590859D01*
X82890579Y-73636067D01*
X82942123Y-73687364D01*
X82995909Y-73741701D01*
X83048935Y-73796028D01*
X83098195Y-73847295D01*
X83140687Y-73892451D01*
X83173407Y-73928446D01*
X83193351Y-73952230D01*
X83198119Y-73960190D01*
X83191257Y-73974865D01*
X83172020Y-74007014D01*
X83142430Y-74053492D01*
X83104510Y-74111156D01*
X83060282Y-74176860D01*
X83034654Y-74214336D01*
X82987941Y-74282768D01*
X82946432Y-74344520D01*
X82912140Y-74396519D01*
X82887080Y-74435692D01*
X82873264Y-74458965D01*
X82871188Y-74463855D01*
X82875895Y-74477755D01*
X82888723Y-74510150D01*
X82907738Y-74556485D01*
X82931003Y-74612206D01*
X82956584Y-74672758D01*
X82982545Y-74733586D01*
X83006950Y-74790136D01*
X83027863Y-74837852D01*
X83043349Y-74872181D01*
X83051472Y-74888568D01*
X83051952Y-74889212D01*
X83064707Y-74892341D01*
X83098677Y-74899321D01*
X83150340Y-74909467D01*
X83216176Y-74922092D01*
X83292664Y-74936509D01*
X83337290Y-74944823D01*
X83419021Y-74960384D01*
X83492843Y-74975192D01*
X83555021Y-74988436D01*
X83601822Y-74999305D01*
X83629509Y-75006989D01*
X83635074Y-75009427D01*
X83640526Y-75025930D01*
X83644924Y-75063200D01*
X83648272Y-75116880D01*
X83650574Y-75182612D01*
X83651832Y-75256037D01*
X83652048Y-75332796D01*
X83651227Y-75408532D01*
X83649371Y-75478886D01*
X83646482Y-75539500D01*
X83642565Y-75586016D01*
X83637622Y-75614075D01*
X83634657Y-75619916D01*
X83616934Y-75626917D01*
X83579381Y-75636927D01*
X83526964Y-75648769D01*
X83464652Y-75661267D01*
X83442900Y-75665310D01*
X83338024Y-75684520D01*
X83255180Y-75699991D01*
X83191630Y-75712337D01*
X83144637Y-75722173D01*
X83111463Y-75730114D01*
X83089371Y-75736776D01*
X83075624Y-75742773D01*
X83067484Y-75748719D01*
X83066345Y-75749894D01*
X83054977Y-75768826D01*
X83037635Y-75805669D01*
X83016050Y-75855913D01*
X82991954Y-75915046D01*
X82967079Y-75978556D01*
X82943157Y-76041932D01*
X82921919Y-76100662D01*
X82905097Y-76150235D01*
X82894422Y-76186139D01*
X82891627Y-76203862D01*
X82891860Y-76204483D01*
X82901331Y-76218970D01*
X82922818Y-76250844D01*
X82954063Y-76296789D01*
X82992807Y-76353485D01*
X83036793Y-76417617D01*
X83049319Y-76435842D01*
X83093984Y-76501914D01*
X83133288Y-76562200D01*
X83165088Y-76613235D01*
X83187245Y-76651560D01*
X83197617Y-76673711D01*
X83198119Y-76676432D01*
X83189405Y-76690736D01*
X83165325Y-76719072D01*
X83128976Y-76758396D01*
X83083453Y-76805661D01*
X83031852Y-76857823D01*
X82977267Y-76911835D01*
X82922794Y-76964653D01*
X82871529Y-77013231D01*
X82826567Y-77054523D01*
X82791004Y-77085485D01*
X82767935Y-77103070D01*
X82761554Y-77105941D01*
X82746699Y-77099178D01*
X82716286Y-77080939D01*
X82675268Y-77054297D01*
X82643709Y-77032852D01*
X82586525Y-76993503D01*
X82518806Y-76947171D01*
X82450880Y-76900913D01*
X82414361Y-76876155D01*
X82290752Y-76792547D01*
X82186991Y-76848650D01*
X82139720Y-76873228D01*
X82099523Y-76892331D01*
X82072326Y-76903227D01*
X82065402Y-76904743D01*
X82057077Y-76893549D01*
X82040654Y-76861917D01*
X82017357Y-76812765D01*
X81988414Y-76749010D01*
X81955050Y-76673571D01*
X81918491Y-76589364D01*
X81879964Y-76499308D01*
X81840694Y-76406321D01*
X81801908Y-76313320D01*
X81764830Y-76223223D01*
X81730689Y-76138948D01*
X81700708Y-76063413D01*
X81676116Y-75999534D01*
X81658136Y-75950231D01*
X81647997Y-75918421D01*
X81646366Y-75907496D01*
X81659291Y-75893561D01*
X81687589Y-75870940D01*
X81725346Y-75844333D01*
X81728515Y-75842228D01*
X81826100Y-75764114D01*
X81904786Y-75672982D01*
X81963891Y-75571745D01*
X82002732Y-75463318D01*
X82020628Y-75350614D01*
X82016897Y-75236548D01*
X81990857Y-75124034D01*
X81941825Y-75015985D01*
X81927400Y-74992345D01*
X81852369Y-74896887D01*
X81763730Y-74820232D01*
X81664549Y-74762780D01*
X81557895Y-74724929D01*
X81446836Y-74707078D01*
X81334439Y-74709625D01*
X81223773Y-74732970D01*
X81117906Y-74777510D01*
X81019905Y-74843645D01*
X80989590Y-74870487D01*
X80912438Y-74954512D01*
X80856218Y-75042966D01*
X80817653Y-75142115D01*
X80796174Y-75240303D01*
X80790872Y-75350697D01*
X80808552Y-75461640D01*
X80847419Y-75569381D01*
X80905677Y-75670169D01*
X80981531Y-75760256D01*
X81073183Y-75835892D01*
X81085228Y-75843864D01*
X81123389Y-75869974D01*
X81152399Y-75892595D01*
X81166268Y-75907039D01*
X81166469Y-75907496D01*
X81163492Y-75923121D01*
X81151689Y-75958582D01*
X81132286Y-76010962D01*
X81106512Y-76077345D01*
X81075591Y-76154814D01*
X81040751Y-76240450D01*
X81003217Y-76331337D01*
X80964217Y-76424559D01*
X80924977Y-76517197D01*
X80886724Y-76606335D01*
X80850683Y-76689055D01*
X80818083Y-76762441D01*
X80790148Y-76823575D01*
X80768105Y-76869541D01*
X80753182Y-76897421D01*
X80747172Y-76904743D01*
X80728809Y-76899041D01*
X80694448Y-76883749D01*
X80650016Y-76861599D01*
X80625583Y-76848650D01*
X80521822Y-76792547D01*
X80398213Y-76876155D01*
X80335114Y-76918987D01*
X80266030Y-76966122D01*
X80201293Y-77010503D01*
X80168866Y-77032852D01*
X80123259Y-77063477D01*
X80084640Y-77087747D01*
X80058048Y-77102587D01*
X80049410Y-77105724D01*
X80036839Y-77097261D01*
X80009016Y-77073636D01*
X79968639Y-77037302D01*
X79918405Y-76990711D01*
X79861012Y-76936317D01*
X79824714Y-76901392D01*
X79761210Y-76838996D01*
X79706327Y-76783188D01*
X79662286Y-76736354D01*
X79631305Y-76700882D01*
X79615602Y-76679161D01*
X79614095Y-76674752D01*
X79621086Y-76657985D01*
X79640406Y-76624082D01*
X79669909Y-76576476D01*
X79707455Y-76518599D01*
X79750900Y-76453884D01*
X79763255Y-76435842D01*
X79808273Y-76370267D01*
X79848660Y-76311228D01*
X79882160Y-76262042D01*
X79906514Y-76226028D01*
X79919464Y-76206502D01*
X79920715Y-76204483D01*
X79918844Y-76188922D01*
X79908913Y-76154709D01*
X79892653Y-76106355D01*
X79871795Y-76048371D01*
X79848073Y-75985270D01*
X79823216Y-75921563D01*
X79798958Y-75861761D01*
X79777029Y-75810376D01*
X79759162Y-75771919D01*
X79747087Y-75750902D01*
X79746229Y-75749894D01*
X79738846Y-75743888D01*
X79726375Y-75737948D01*
X79706080Y-75731460D01*
X79675222Y-75723809D01*
X79631066Y-75714380D01*
X79570874Y-75702559D01*
X79491907Y-75687729D01*
X79391430Y-75669277D01*
X79369675Y-75665310D01*
X79305198Y-75652853D01*
X79248989Y-75640666D01*
X79206013Y-75629926D01*
X79181240Y-75621809D01*
X79177918Y-75619916D01*
X79172444Y-75603138D01*
X79167994Y-75565645D01*
X79164572Y-75511794D01*
X79162181Y-75445944D01*
X79160823Y-75372453D01*
X79160501Y-75295680D01*
X79161219Y-75219983D01*
X79162979Y-75149720D01*
X79165784Y-75089250D01*
X79169638Y-75042930D01*
X79174543Y-75015119D01*
X79177500Y-75009427D01*
X79193963Y-75003686D01*
X79231449Y-74994345D01*
X79286225Y-74982215D01*
X79354555Y-74968107D01*
X79432706Y-74952830D01*
X79475284Y-74944823D01*
X79556071Y-74929721D01*
X79628113Y-74916040D01*
X79687889Y-74904467D01*
X79731879Y-74895687D01*
X79756561Y-74890387D01*
X79760623Y-74889212D01*
X79767489Y-74875965D01*
X79782002Y-74844057D01*
X79802229Y-74798047D01*
X79826234Y-74742492D01*
X79852082Y-74681953D01*
X79877840Y-74620986D01*
X79901573Y-74564151D01*
X79921346Y-74516006D01*
X79935224Y-74481110D01*
X79941274Y-74464021D01*
X79941386Y-74463274D01*
X79934528Y-74449793D01*
X79915302Y-74418770D01*
X79885728Y-74373289D01*
X79847827Y-74316432D01*
X79803620Y-74251283D01*
X79777921Y-74213862D01*
X79731093Y-74145247D01*
X79689501Y-74082952D01*
X79655175Y-74030129D01*
X79630143Y-73989927D01*
X79616435Y-73965500D01*
X79614456Y-73960024D01*
X79622966Y-73947278D01*
X79646493Y-73920063D01*
X79682032Y-73881428D01*
X79726577Y-73834423D01*
X79777123Y-73782095D01*
X79830664Y-73727495D01*
X79884195Y-73673670D01*
X79934711Y-73623670D01*
X79979206Y-73580543D01*
X80014675Y-73547339D01*
X80038113Y-73527106D01*
X80045954Y-73522278D01*
X80058720Y-73529067D01*
X80089256Y-73548142D01*
X80134590Y-73577561D01*
X80191756Y-73615381D01*
X80257784Y-73659661D01*
X80307590Y-73693395D01*
X80559236Y-73864512D01*
X80768999Y-73778041D01*
X80978763Y-73691570D01*
X81035611Y-73390018D01*
X81092460Y-73088466D01*
X81720115Y-73088466D01*
X81776964Y-73390018D01*
G37*
D13*
%TO.C,Y1*%
X84950000Y-72900000D02*
X90050000Y-72900000D01*
X90050000Y-72900000D02*
X90050000Y-60300000D01*
X84950000Y-60300000D02*
X84950000Y-72900000D01*
%TO.C,J2*%
X48400000Y-78860000D02*
X48400000Y-79600000D01*
X48400000Y-79600000D02*
X48900000Y-79600000D01*
X48640000Y-73040000D02*
X48640000Y-79360000D01*
X48640000Y-73040000D02*
X64460000Y-73040000D01*
X48640000Y-73500000D02*
X64460000Y-73500000D01*
X48640000Y-78800000D02*
X64460000Y-78800000D01*
X48640000Y-79360000D02*
X64460000Y-79360000D01*
X64460000Y-73040000D02*
X64460000Y-79360000D01*
%TO.C,F1*%
X42796248Y-64830000D02*
X47203752Y-64830000D01*
X42796248Y-70170000D02*
X47203752Y-70170000D01*
%TO.C,J5*%
X41340000Y-57630000D02*
X40600000Y-57630000D01*
X40600000Y-57630000D02*
X40600000Y-58130000D01*
X47160000Y-57870000D02*
X40840000Y-57870000D01*
X47160000Y-57870000D02*
X47160000Y-63530000D01*
X46700000Y-57870000D02*
X46700000Y-63530000D01*
X41400000Y-57870000D02*
X41400000Y-58640000D01*
X40840000Y-57870000D02*
X40840000Y-58640000D01*
X41400000Y-60220000D02*
X41400000Y-61180000D01*
X40840000Y-60220000D02*
X40840000Y-61180000D01*
X41400000Y-62760000D02*
X41400000Y-63530000D01*
X40840000Y-62760000D02*
X40840000Y-63530000D01*
X47160000Y-63530000D02*
X40840000Y-63530000D01*
%TO.C,C3*%
X68635000Y-58826248D02*
X68635000Y-59348752D01*
X67165000Y-58826248D02*
X67165000Y-59348752D01*
%TO.C,C4*%
X69435000Y-63738748D02*
X69435000Y-64261252D01*
X67965000Y-63738748D02*
X67965000Y-64261252D01*
%TO.C,J3*%
X104230000Y-59670000D02*
X104230000Y-61000000D01*
X102900000Y-59670000D02*
X104230000Y-59670000D01*
X101630000Y-59670000D02*
X91410000Y-59670000D01*
X101630000Y-59670000D02*
X101630000Y-62330000D01*
X91410000Y-59670000D02*
X91410000Y-62330000D01*
X101630000Y-62330000D02*
X91410000Y-62330000D01*
%TO.C,R12*%
X93972936Y-57465000D02*
X94427064Y-57465000D01*
X93972936Y-58935000D02*
X94427064Y-58935000D01*
%TO.C,R13*%
X97672936Y-57465000D02*
X98127064Y-57465000D01*
X97672936Y-58935000D02*
X98127064Y-58935000D01*
%TO.C,R14*%
X101372936Y-57465000D02*
X101827064Y-57465000D01*
X101372936Y-58935000D02*
X101827064Y-58935000D01*
%TO.C,C12*%
X63286252Y-70435000D02*
X62763748Y-70435000D01*
X63286252Y-68965000D02*
X62763748Y-68965000D01*
%TO.C,L1*%
X56975000Y-58700000D02*
X59308333Y-58700000D01*
X56975000Y-61033333D02*
X56975000Y-58700000D01*
X57355000Y-59080000D02*
X57355000Y-61350000D01*
X57355000Y-59080000D02*
X64595000Y-59080000D01*
X57355000Y-64050000D02*
X57355000Y-66320000D01*
X57355000Y-66320000D02*
X64595000Y-66320000D01*
X64595000Y-59080000D02*
X64595000Y-61350000D01*
X64595000Y-64050000D02*
X64595000Y-66320000D01*
%TO.C,U4*%
X53690000Y-61590000D02*
X51890000Y-61590000D01*
X53690000Y-61590000D02*
X54490000Y-61590000D01*
X53690000Y-64710000D02*
X52890000Y-64710000D01*
X53690000Y-64710000D02*
X54490000Y-64710000D01*
%TO.C,C13*%
X63286252Y-68435000D02*
X62763748Y-68435000D01*
X63286252Y-66965000D02*
X62763748Y-66965000D01*
%TO.C,D2*%
X58800000Y-71150000D02*
X58800000Y-67850000D01*
X58800000Y-71150000D02*
X51900000Y-71150000D01*
X58800000Y-67850000D02*
X51900000Y-67850000D01*
%TO.C,C9*%
X54538748Y-65965000D02*
X55061252Y-65965000D01*
X54538748Y-67435000D02*
X55061252Y-67435000D01*
%TO.C,R11*%
X90327064Y-58935000D02*
X89872936Y-58935000D01*
X90327064Y-57465000D02*
X89872936Y-57465000D01*
%TO.C,D1*%
X48050000Y-70650000D02*
X46350000Y-70650000D01*
X48050000Y-70650000D02*
X48050000Y-73800000D01*
X46350000Y-70650000D02*
X46350000Y-73800000D01*
%TO.C,C10*%
X54238748Y-59665000D02*
X54761252Y-59665000D01*
X54238748Y-61135000D02*
X54761252Y-61135000D01*
%TO.C,R5*%
X65515000Y-76927064D02*
X65515000Y-76472936D01*
X66985000Y-76927064D02*
X66985000Y-76472936D01*
%TO.C,C2*%
X84235000Y-66701248D02*
X84235000Y-67223752D01*
X82765000Y-66701248D02*
X82765000Y-67223752D01*
%TO.C,JP5*%
X49800000Y-58450000D02*
X50400000Y-58450000D01*
X51100000Y-59150000D02*
X51100000Y-60550000D01*
X49100000Y-60550000D02*
X49100000Y-59150000D01*
X50400000Y-61250000D02*
X49800000Y-61250000D01*
X51100000Y-59150000D02*
G75*
G03*
X50400000Y-58450000I-699999J1D01*
G01*
X49800000Y-58450000D02*
G75*
G03*
X49100000Y-59150000I-1J-699999D01*
G01*
X50400000Y-61250000D02*
G75*
G03*
X51100000Y-60550000I0J700000D01*
G01*
X49100000Y-60550000D02*
G75*
G03*
X49800000Y-61250000I700000J0D01*
G01*
%TD*%
M02*
