%TF.GenerationSoftware,KiCad,Pcbnew,7.0.6*%
%TF.CreationDate,2023-08-14T14:17:23+01:00*%
%TF.ProjectId,canhat,63616e68-6174-42e6-9b69-6361645f7063,8*%
%TF.SameCoordinates,Original*%
%TF.FileFunction,Drillmap*%
%TF.FilePolarity,Positive*%
%FSLAX45Y45*%
G04 Gerber Fmt 4.5, Leading zero omitted, Abs format (unit mm)*
G04 Created by KiCad (PCBNEW 7.0.6) date 2023-08-14 14:17:23*
%MOMM*%
%LPD*%
G01*
G04 APERTURE LIST*
%ADD10C,0.150000*%
%ADD11C,0.200000*%
%ADD12C,0.040000*%
%ADD13C,0.100000*%
%ADD14C,0.110000*%
G04 APERTURE END LIST*
D10*
X10500000Y-7700000D02*
X10500000Y-5300000D01*
X10500000Y-5300000D02*
G75*
G03*
X10200000Y-5000000I-300000J0D01*
G01*
X4300000Y-5000000D02*
G75*
G03*
X4000000Y-5300000I0J-300000D01*
G01*
X10200000Y-5000000D02*
X4300000Y-5000000D01*
X4000000Y-7700000D02*
G75*
G03*
X4300000Y-8000000I300000J0D01*
G01*
X4000000Y-5300000D02*
X4000000Y-7700000D01*
X10200000Y-8000000D02*
G75*
G03*
X10500000Y-7700000I0J300000D01*
G01*
X4300000Y-8000000D02*
X10200000Y-8000000D01*
D11*
D12*
X4730000Y-7440000D02*
X4770000Y-7480000D01*
X4770000Y-7440000D02*
X4730000Y-7480000D01*
X5370000Y-6390000D02*
X5410000Y-6430000D01*
X5410000Y-6390000D02*
X5370000Y-6430000D01*
X5570000Y-6510000D02*
X5610000Y-6550000D01*
X5610000Y-6510000D02*
X5570000Y-6550000D01*
X5730000Y-6680000D02*
X5770000Y-6720000D01*
X5770000Y-6680000D02*
X5730000Y-6720000D01*
X6070000Y-6750000D02*
X6110000Y-6790000D01*
X6110000Y-6750000D02*
X6070000Y-6790000D01*
X6070000Y-6850000D02*
X6110000Y-6890000D01*
X6110000Y-6850000D02*
X6070000Y-6890000D01*
X6070000Y-6940000D02*
X6110000Y-6980000D01*
X6110000Y-6940000D02*
X6070000Y-6980000D01*
X6560000Y-6620000D02*
X6600000Y-6660000D01*
X6600000Y-6620000D02*
X6560000Y-6660000D01*
X6640000Y-7450000D02*
X6680000Y-7490000D01*
X6680000Y-7450000D02*
X6640000Y-7490000D01*
X6730000Y-6100000D02*
X6770000Y-6140000D01*
X6770000Y-6100000D02*
X6730000Y-6140000D01*
X6780000Y-6880000D02*
X6820000Y-6920000D01*
X6820000Y-6880000D02*
X6780000Y-6920000D01*
X6780000Y-7330000D02*
X6820000Y-7370000D01*
X6820000Y-7330000D02*
X6780000Y-7370000D01*
X6850000Y-6580000D02*
X6890000Y-6620000D01*
X6890000Y-6580000D02*
X6850000Y-6620000D01*
X7450000Y-7650000D02*
X7490000Y-7690000D01*
X7490000Y-7650000D02*
X7450000Y-7690000D01*
X7570000Y-7220000D02*
X7610000Y-7260000D01*
X7610000Y-7220000D02*
X7570000Y-7260000D01*
X7570000Y-7620000D02*
X7610000Y-7660000D01*
X7610000Y-7620000D02*
X7570000Y-7660000D01*
X7580000Y-5830000D02*
X7620000Y-5870000D01*
X7620000Y-5830000D02*
X7580000Y-5870000D01*
X7710000Y-7240000D02*
X7750000Y-7280000D01*
X7750000Y-7240000D02*
X7710000Y-7280000D01*
X7740000Y-6190000D02*
X7780000Y-6230000D01*
X7780000Y-6190000D02*
X7740000Y-6230000D01*
X7900000Y-7290000D02*
X7940000Y-7330000D01*
X7940000Y-7290000D02*
X7900000Y-7330000D01*
X8105000Y-6805000D02*
X8145000Y-6845000D01*
X8145000Y-6805000D02*
X8105000Y-6845000D01*
X8330000Y-6080000D02*
X8370000Y-6120000D01*
X8370000Y-6080000D02*
X8330000Y-6120000D01*
X8330000Y-6880000D02*
X8370000Y-6920000D01*
X8370000Y-6880000D02*
X8330000Y-6920000D01*
X9120000Y-7210000D02*
X9160000Y-7250000D01*
X9160000Y-7210000D02*
X9120000Y-7250000D01*
X9350000Y-6750000D02*
X9390000Y-6790000D01*
X9390000Y-6750000D02*
X9350000Y-6790000D01*
X9850000Y-7140000D02*
X9890000Y-7180000D01*
X9890000Y-7140000D02*
X9850000Y-7180000D01*
X9853500Y-7003500D02*
X9893500Y-7043500D01*
X9893500Y-7003500D02*
X9853500Y-7043500D01*
D13*
X4887000Y-5223000D02*
G75*
G03*
X4887000Y-5223000I-50000J0D01*
G01*
X4887000Y-5477000D02*
G75*
G03*
X4887000Y-5477000I-50000J0D01*
G01*
X5141000Y-5223000D02*
G75*
G03*
X5141000Y-5223000I-50000J0D01*
G01*
X5141000Y-5477000D02*
G75*
G03*
X5141000Y-5477000I-50000J0D01*
G01*
X5395000Y-5223000D02*
G75*
G03*
X5395000Y-5223000I-50000J0D01*
G01*
X5395000Y-5477000D02*
G75*
G03*
X5395000Y-5477000I-50000J0D01*
G01*
X5649000Y-5223000D02*
G75*
G03*
X5649000Y-5223000I-50000J0D01*
G01*
X5649000Y-5477000D02*
G75*
G03*
X5649000Y-5477000I-50000J0D01*
G01*
X5903000Y-5223000D02*
G75*
G03*
X5903000Y-5223000I-50000J0D01*
G01*
X5903000Y-5477000D02*
G75*
G03*
X5903000Y-5477000I-50000J0D01*
G01*
X6157000Y-5223000D02*
G75*
G03*
X6157000Y-5223000I-50000J0D01*
G01*
X6157000Y-5477000D02*
G75*
G03*
X6157000Y-5477000I-50000J0D01*
G01*
X6411000Y-5223000D02*
G75*
G03*
X6411000Y-5223000I-50000J0D01*
G01*
X6411000Y-5477000D02*
G75*
G03*
X6411000Y-5477000I-50000J0D01*
G01*
X6665000Y-5223000D02*
G75*
G03*
X6665000Y-5223000I-50000J0D01*
G01*
X6665000Y-5477000D02*
G75*
G03*
X6665000Y-5477000I-50000J0D01*
G01*
X6919000Y-5223000D02*
G75*
G03*
X6919000Y-5223000I-50000J0D01*
G01*
X6919000Y-5477000D02*
G75*
G03*
X6919000Y-5477000I-50000J0D01*
G01*
X7173000Y-5223000D02*
G75*
G03*
X7173000Y-5223000I-50000J0D01*
G01*
X7173000Y-5477000D02*
G75*
G03*
X7173000Y-5477000I-50000J0D01*
G01*
X7427000Y-5223000D02*
G75*
G03*
X7427000Y-5223000I-50000J0D01*
G01*
X7427000Y-5477000D02*
G75*
G03*
X7427000Y-5477000I-50000J0D01*
G01*
X7681000Y-5223000D02*
G75*
G03*
X7681000Y-5223000I-50000J0D01*
G01*
X7681000Y-5477000D02*
G75*
G03*
X7681000Y-5477000I-50000J0D01*
G01*
X7935000Y-5223000D02*
G75*
G03*
X7935000Y-5223000I-50000J0D01*
G01*
X7935000Y-5477000D02*
G75*
G03*
X7935000Y-5477000I-50000J0D01*
G01*
X8189000Y-5223000D02*
G75*
G03*
X8189000Y-5223000I-50000J0D01*
G01*
X8189000Y-5477000D02*
G75*
G03*
X8189000Y-5477000I-50000J0D01*
G01*
X8443000Y-5223000D02*
G75*
G03*
X8443000Y-5223000I-50000J0D01*
G01*
X8443000Y-5477000D02*
G75*
G03*
X8443000Y-5477000I-50000J0D01*
G01*
X8697000Y-5223000D02*
G75*
G03*
X8697000Y-5223000I-50000J0D01*
G01*
X8697000Y-5477000D02*
G75*
G03*
X8697000Y-5477000I-50000J0D01*
G01*
X8951000Y-5223000D02*
G75*
G03*
X8951000Y-5223000I-50000J0D01*
G01*
X8951000Y-5477000D02*
G75*
G03*
X8951000Y-5477000I-50000J0D01*
G01*
X9205000Y-5223000D02*
G75*
G03*
X9205000Y-5223000I-50000J0D01*
G01*
X9205000Y-5477000D02*
G75*
G03*
X9205000Y-5477000I-50000J0D01*
G01*
X9324000Y-6100000D02*
G75*
G03*
X9324000Y-6100000I-50000J0D01*
G01*
X9459000Y-5223000D02*
G75*
G03*
X9459000Y-5223000I-50000J0D01*
G01*
X9459000Y-5477000D02*
G75*
G03*
X9459000Y-5477000I-50000J0D01*
G01*
X9578000Y-6100000D02*
G75*
G03*
X9578000Y-6100000I-50000J0D01*
G01*
X9713000Y-5223000D02*
G75*
G03*
X9713000Y-5223000I-50000J0D01*
G01*
X9713000Y-5477000D02*
G75*
G03*
X9713000Y-5477000I-50000J0D01*
G01*
X9832000Y-6100000D02*
G75*
G03*
X9832000Y-6100000I-50000J0D01*
G01*
X9896000Y-6460000D02*
G75*
G03*
X9896000Y-6460000I-50000J0D01*
G01*
X10086000Y-6100000D02*
G75*
G03*
X10086000Y-6100000I-50000J0D01*
G01*
X10150000Y-6460000D02*
G75*
G03*
X10150000Y-6460000I-50000J0D01*
G01*
X10340000Y-6100000D02*
G75*
G03*
X10340000Y-6100000I-50000J0D01*
G01*
D14*
X4400000Y-5888000D02*
X4400000Y-5998000D01*
X4345000Y-5943000D02*
X4455000Y-5943000D01*
X4400000Y-6142000D02*
X4400000Y-6252000D01*
X4345000Y-6197000D02*
X4455000Y-6197000D01*
X5020000Y-7565000D02*
X5020000Y-7675000D01*
X4965000Y-7620000D02*
X5075000Y-7620000D01*
X5274000Y-7565000D02*
X5274000Y-7675000D01*
X5219000Y-7620000D02*
X5329000Y-7620000D01*
X5528000Y-7565000D02*
X5528000Y-7675000D01*
X5473000Y-7620000D02*
X5583000Y-7620000D01*
X5782000Y-7565000D02*
X5782000Y-7675000D01*
X5727000Y-7620000D02*
X5837000Y-7620000D01*
X6036000Y-7565000D02*
X6036000Y-7675000D01*
X5981000Y-7620000D02*
X6091000Y-7620000D01*
X6290000Y-7565000D02*
X6290000Y-7675000D01*
X6235000Y-7620000D02*
X6345000Y-7620000D01*
D11*
X4253277Y-8318984D02*
X4253277Y-8118984D01*
X4253277Y-8118984D02*
X4300896Y-8118984D01*
X4300896Y-8118984D02*
X4329467Y-8128508D01*
X4329467Y-8128508D02*
X4348515Y-8147555D01*
X4348515Y-8147555D02*
X4358039Y-8166603D01*
X4358039Y-8166603D02*
X4367563Y-8204698D01*
X4367563Y-8204698D02*
X4367563Y-8233269D01*
X4367563Y-8233269D02*
X4358039Y-8271365D01*
X4358039Y-8271365D02*
X4348515Y-8290412D01*
X4348515Y-8290412D02*
X4329467Y-8309460D01*
X4329467Y-8309460D02*
X4300896Y-8318984D01*
X4300896Y-8318984D02*
X4253277Y-8318984D01*
X4453277Y-8318984D02*
X4453277Y-8185650D01*
X4453277Y-8223746D02*
X4462801Y-8204698D01*
X4462801Y-8204698D02*
X4472324Y-8195174D01*
X4472324Y-8195174D02*
X4491372Y-8185650D01*
X4491372Y-8185650D02*
X4510420Y-8185650D01*
X4577086Y-8318984D02*
X4577086Y-8185650D01*
X4577086Y-8118984D02*
X4567563Y-8128508D01*
X4567563Y-8128508D02*
X4577086Y-8138031D01*
X4577086Y-8138031D02*
X4586610Y-8128508D01*
X4586610Y-8128508D02*
X4577086Y-8118984D01*
X4577086Y-8118984D02*
X4577086Y-8138031D01*
X4700896Y-8318984D02*
X4681848Y-8309460D01*
X4681848Y-8309460D02*
X4672324Y-8290412D01*
X4672324Y-8290412D02*
X4672324Y-8118984D01*
X4805658Y-8318984D02*
X4786610Y-8309460D01*
X4786610Y-8309460D02*
X4777086Y-8290412D01*
X4777086Y-8290412D02*
X4777086Y-8118984D01*
X5034229Y-8318984D02*
X5034229Y-8118984D01*
X5034229Y-8118984D02*
X5100896Y-8261841D01*
X5100896Y-8261841D02*
X5167563Y-8118984D01*
X5167563Y-8118984D02*
X5167563Y-8318984D01*
X5348515Y-8318984D02*
X5348515Y-8214222D01*
X5348515Y-8214222D02*
X5338991Y-8195174D01*
X5338991Y-8195174D02*
X5319944Y-8185650D01*
X5319944Y-8185650D02*
X5281848Y-8185650D01*
X5281848Y-8185650D02*
X5262801Y-8195174D01*
X5348515Y-8309460D02*
X5329467Y-8318984D01*
X5329467Y-8318984D02*
X5281848Y-8318984D01*
X5281848Y-8318984D02*
X5262801Y-8309460D01*
X5262801Y-8309460D02*
X5253277Y-8290412D01*
X5253277Y-8290412D02*
X5253277Y-8271365D01*
X5253277Y-8271365D02*
X5262801Y-8252317D01*
X5262801Y-8252317D02*
X5281848Y-8242793D01*
X5281848Y-8242793D02*
X5329467Y-8242793D01*
X5329467Y-8242793D02*
X5348515Y-8233269D01*
X5443753Y-8185650D02*
X5443753Y-8385650D01*
X5443753Y-8195174D02*
X5462801Y-8185650D01*
X5462801Y-8185650D02*
X5500896Y-8185650D01*
X5500896Y-8185650D02*
X5519944Y-8195174D01*
X5519944Y-8195174D02*
X5529467Y-8204698D01*
X5529467Y-8204698D02*
X5538991Y-8223746D01*
X5538991Y-8223746D02*
X5538991Y-8280888D01*
X5538991Y-8280888D02*
X5529467Y-8299936D01*
X5529467Y-8299936D02*
X5519944Y-8309460D01*
X5519944Y-8309460D02*
X5500896Y-8318984D01*
X5500896Y-8318984D02*
X5462801Y-8318984D01*
X5462801Y-8318984D02*
X5443753Y-8309460D01*
X5624705Y-8299936D02*
X5634229Y-8309460D01*
X5634229Y-8309460D02*
X5624705Y-8318984D01*
X5624705Y-8318984D02*
X5615182Y-8309460D01*
X5615182Y-8309460D02*
X5624705Y-8299936D01*
X5624705Y-8299936D02*
X5624705Y-8318984D01*
X5624705Y-8195174D02*
X5634229Y-8204698D01*
X5634229Y-8204698D02*
X5624705Y-8214222D01*
X5624705Y-8214222D02*
X5615182Y-8204698D01*
X5615182Y-8204698D02*
X5624705Y-8195174D01*
X5624705Y-8195174D02*
X5624705Y-8214222D01*
D12*
X3952500Y-8627500D02*
X3992500Y-8667500D01*
X3992500Y-8627500D02*
X3952500Y-8667500D01*
D11*
X4291372Y-8538984D02*
X4310420Y-8538984D01*
X4310420Y-8538984D02*
X4329467Y-8548508D01*
X4329467Y-8548508D02*
X4338991Y-8558031D01*
X4338991Y-8558031D02*
X4348515Y-8577079D01*
X4348515Y-8577079D02*
X4358039Y-8615174D01*
X4358039Y-8615174D02*
X4358039Y-8662793D01*
X4358039Y-8662793D02*
X4348515Y-8700889D01*
X4348515Y-8700889D02*
X4338991Y-8719936D01*
X4338991Y-8719936D02*
X4329467Y-8729460D01*
X4329467Y-8729460D02*
X4310420Y-8738984D01*
X4310420Y-8738984D02*
X4291372Y-8738984D01*
X4291372Y-8738984D02*
X4272324Y-8729460D01*
X4272324Y-8729460D02*
X4262801Y-8719936D01*
X4262801Y-8719936D02*
X4253277Y-8700889D01*
X4253277Y-8700889D02*
X4243753Y-8662793D01*
X4243753Y-8662793D02*
X4243753Y-8615174D01*
X4243753Y-8615174D02*
X4253277Y-8577079D01*
X4253277Y-8577079D02*
X4262801Y-8558031D01*
X4262801Y-8558031D02*
X4272324Y-8548508D01*
X4272324Y-8548508D02*
X4291372Y-8538984D01*
X4443753Y-8719936D02*
X4453277Y-8729460D01*
X4453277Y-8729460D02*
X4443753Y-8738984D01*
X4443753Y-8738984D02*
X4434229Y-8729460D01*
X4434229Y-8729460D02*
X4443753Y-8719936D01*
X4443753Y-8719936D02*
X4443753Y-8738984D01*
X4624705Y-8605650D02*
X4624705Y-8738984D01*
X4577086Y-8529460D02*
X4529467Y-8672317D01*
X4529467Y-8672317D02*
X4653277Y-8672317D01*
X4767563Y-8538984D02*
X4786610Y-8538984D01*
X4786610Y-8538984D02*
X4805658Y-8548508D01*
X4805658Y-8548508D02*
X4815182Y-8558031D01*
X4815182Y-8558031D02*
X4824705Y-8577079D01*
X4824705Y-8577079D02*
X4834229Y-8615174D01*
X4834229Y-8615174D02*
X4834229Y-8662793D01*
X4834229Y-8662793D02*
X4824705Y-8700889D01*
X4824705Y-8700889D02*
X4815182Y-8719936D01*
X4815182Y-8719936D02*
X4805658Y-8729460D01*
X4805658Y-8729460D02*
X4786610Y-8738984D01*
X4786610Y-8738984D02*
X4767563Y-8738984D01*
X4767563Y-8738984D02*
X4748515Y-8729460D01*
X4748515Y-8729460D02*
X4738991Y-8719936D01*
X4738991Y-8719936D02*
X4729467Y-8700889D01*
X4729467Y-8700889D02*
X4719944Y-8662793D01*
X4719944Y-8662793D02*
X4719944Y-8615174D01*
X4719944Y-8615174D02*
X4729467Y-8577079D01*
X4729467Y-8577079D02*
X4738991Y-8558031D01*
X4738991Y-8558031D02*
X4748515Y-8548508D01*
X4748515Y-8548508D02*
X4767563Y-8538984D01*
X4958039Y-8538984D02*
X4977086Y-8538984D01*
X4977086Y-8538984D02*
X4996134Y-8548508D01*
X4996134Y-8548508D02*
X5005658Y-8558031D01*
X5005658Y-8558031D02*
X5015182Y-8577079D01*
X5015182Y-8577079D02*
X5024705Y-8615174D01*
X5024705Y-8615174D02*
X5024705Y-8662793D01*
X5024705Y-8662793D02*
X5015182Y-8700889D01*
X5015182Y-8700889D02*
X5005658Y-8719936D01*
X5005658Y-8719936D02*
X4996134Y-8729460D01*
X4996134Y-8729460D02*
X4977086Y-8738984D01*
X4977086Y-8738984D02*
X4958039Y-8738984D01*
X4958039Y-8738984D02*
X4938991Y-8729460D01*
X4938991Y-8729460D02*
X4929467Y-8719936D01*
X4929467Y-8719936D02*
X4919944Y-8700889D01*
X4919944Y-8700889D02*
X4910420Y-8662793D01*
X4910420Y-8662793D02*
X4910420Y-8615174D01*
X4910420Y-8615174D02*
X4919944Y-8577079D01*
X4919944Y-8577079D02*
X4929467Y-8558031D01*
X4929467Y-8558031D02*
X4938991Y-8548508D01*
X4938991Y-8548508D02*
X4958039Y-8538984D01*
X5110420Y-8738984D02*
X5110420Y-8605650D01*
X5110420Y-8624698D02*
X5119944Y-8615174D01*
X5119944Y-8615174D02*
X5138991Y-8605650D01*
X5138991Y-8605650D02*
X5167563Y-8605650D01*
X5167563Y-8605650D02*
X5186610Y-8615174D01*
X5186610Y-8615174D02*
X5196134Y-8634222D01*
X5196134Y-8634222D02*
X5196134Y-8738984D01*
X5196134Y-8634222D02*
X5205658Y-8615174D01*
X5205658Y-8615174D02*
X5224705Y-8605650D01*
X5224705Y-8605650D02*
X5253277Y-8605650D01*
X5253277Y-8605650D02*
X5272325Y-8615174D01*
X5272325Y-8615174D02*
X5281848Y-8634222D01*
X5281848Y-8634222D02*
X5281848Y-8738984D01*
X5377086Y-8738984D02*
X5377086Y-8605650D01*
X5377086Y-8624698D02*
X5386610Y-8615174D01*
X5386610Y-8615174D02*
X5405658Y-8605650D01*
X5405658Y-8605650D02*
X5434229Y-8605650D01*
X5434229Y-8605650D02*
X5453277Y-8615174D01*
X5453277Y-8615174D02*
X5462801Y-8634222D01*
X5462801Y-8634222D02*
X5462801Y-8738984D01*
X5462801Y-8634222D02*
X5472325Y-8615174D01*
X5472325Y-8615174D02*
X5491372Y-8605650D01*
X5491372Y-8605650D02*
X5519944Y-8605650D01*
X5519944Y-8605650D02*
X5538991Y-8615174D01*
X5538991Y-8615174D02*
X5548515Y-8634222D01*
X5548515Y-8634222D02*
X5548515Y-8738984D01*
X5938991Y-8529460D02*
X5767563Y-8786603D01*
X6196134Y-8538984D02*
X6215182Y-8538984D01*
X6215182Y-8538984D02*
X6234229Y-8548508D01*
X6234229Y-8548508D02*
X6243753Y-8558031D01*
X6243753Y-8558031D02*
X6253277Y-8577079D01*
X6253277Y-8577079D02*
X6262801Y-8615174D01*
X6262801Y-8615174D02*
X6262801Y-8662793D01*
X6262801Y-8662793D02*
X6253277Y-8700889D01*
X6253277Y-8700889D02*
X6243753Y-8719936D01*
X6243753Y-8719936D02*
X6234229Y-8729460D01*
X6234229Y-8729460D02*
X6215182Y-8738984D01*
X6215182Y-8738984D02*
X6196134Y-8738984D01*
X6196134Y-8738984D02*
X6177086Y-8729460D01*
X6177086Y-8729460D02*
X6167563Y-8719936D01*
X6167563Y-8719936D02*
X6158039Y-8700889D01*
X6158039Y-8700889D02*
X6148515Y-8662793D01*
X6148515Y-8662793D02*
X6148515Y-8615174D01*
X6148515Y-8615174D02*
X6158039Y-8577079D01*
X6158039Y-8577079D02*
X6167563Y-8558031D01*
X6167563Y-8558031D02*
X6177086Y-8548508D01*
X6177086Y-8548508D02*
X6196134Y-8538984D01*
X6348515Y-8719936D02*
X6358039Y-8729460D01*
X6358039Y-8729460D02*
X6348515Y-8738984D01*
X6348515Y-8738984D02*
X6338991Y-8729460D01*
X6338991Y-8729460D02*
X6348515Y-8719936D01*
X6348515Y-8719936D02*
X6348515Y-8738984D01*
X6481848Y-8538984D02*
X6500896Y-8538984D01*
X6500896Y-8538984D02*
X6519944Y-8548508D01*
X6519944Y-8548508D02*
X6529467Y-8558031D01*
X6529467Y-8558031D02*
X6538991Y-8577079D01*
X6538991Y-8577079D02*
X6548515Y-8615174D01*
X6548515Y-8615174D02*
X6548515Y-8662793D01*
X6548515Y-8662793D02*
X6538991Y-8700889D01*
X6538991Y-8700889D02*
X6529467Y-8719936D01*
X6529467Y-8719936D02*
X6519944Y-8729460D01*
X6519944Y-8729460D02*
X6500896Y-8738984D01*
X6500896Y-8738984D02*
X6481848Y-8738984D01*
X6481848Y-8738984D02*
X6462801Y-8729460D01*
X6462801Y-8729460D02*
X6453277Y-8719936D01*
X6453277Y-8719936D02*
X6443753Y-8700889D01*
X6443753Y-8700889D02*
X6434229Y-8662793D01*
X6434229Y-8662793D02*
X6434229Y-8615174D01*
X6434229Y-8615174D02*
X6443753Y-8577079D01*
X6443753Y-8577079D02*
X6453277Y-8558031D01*
X6453277Y-8558031D02*
X6462801Y-8548508D01*
X6462801Y-8548508D02*
X6481848Y-8538984D01*
X6738991Y-8738984D02*
X6624706Y-8738984D01*
X6681848Y-8738984D02*
X6681848Y-8538984D01*
X6681848Y-8538984D02*
X6662801Y-8567555D01*
X6662801Y-8567555D02*
X6643753Y-8586603D01*
X6643753Y-8586603D02*
X6624706Y-8596127D01*
X6919944Y-8538984D02*
X6824706Y-8538984D01*
X6824706Y-8538984D02*
X6815182Y-8634222D01*
X6815182Y-8634222D02*
X6824706Y-8624698D01*
X6824706Y-8624698D02*
X6843753Y-8615174D01*
X6843753Y-8615174D02*
X6891372Y-8615174D01*
X6891372Y-8615174D02*
X6910420Y-8624698D01*
X6910420Y-8624698D02*
X6919944Y-8634222D01*
X6919944Y-8634222D02*
X6929467Y-8653270D01*
X6929467Y-8653270D02*
X6929467Y-8700889D01*
X6929467Y-8700889D02*
X6919944Y-8719936D01*
X6919944Y-8719936D02*
X6910420Y-8729460D01*
X6910420Y-8729460D02*
X6891372Y-8738984D01*
X6891372Y-8738984D02*
X6843753Y-8738984D01*
X6843753Y-8738984D02*
X6824706Y-8729460D01*
X6824706Y-8729460D02*
X6815182Y-8719936D01*
X6996134Y-8538984D02*
X7129467Y-8538984D01*
X7129467Y-8538984D02*
X7043753Y-8738984D01*
X7196134Y-8538984D02*
X7196134Y-8577079D01*
X7272325Y-8538984D02*
X7272325Y-8577079D01*
X7567563Y-8815174D02*
X7558039Y-8805650D01*
X7558039Y-8805650D02*
X7538991Y-8777079D01*
X7538991Y-8777079D02*
X7529468Y-8758031D01*
X7529468Y-8758031D02*
X7519944Y-8729460D01*
X7519944Y-8729460D02*
X7510420Y-8681841D01*
X7510420Y-8681841D02*
X7510420Y-8643746D01*
X7510420Y-8643746D02*
X7519944Y-8596127D01*
X7519944Y-8596127D02*
X7529468Y-8567555D01*
X7529468Y-8567555D02*
X7538991Y-8548508D01*
X7538991Y-8548508D02*
X7558039Y-8519936D01*
X7558039Y-8519936D02*
X7567563Y-8510412D01*
X7634229Y-8558031D02*
X7643753Y-8548508D01*
X7643753Y-8548508D02*
X7662801Y-8538984D01*
X7662801Y-8538984D02*
X7710420Y-8538984D01*
X7710420Y-8538984D02*
X7729468Y-8548508D01*
X7729468Y-8548508D02*
X7738991Y-8558031D01*
X7738991Y-8558031D02*
X7748515Y-8577079D01*
X7748515Y-8577079D02*
X7748515Y-8596127D01*
X7748515Y-8596127D02*
X7738991Y-8624698D01*
X7738991Y-8624698D02*
X7624706Y-8738984D01*
X7624706Y-8738984D02*
X7748515Y-8738984D01*
X7815182Y-8538984D02*
X7948515Y-8538984D01*
X7948515Y-8538984D02*
X7862801Y-8738984D01*
X8177087Y-8738984D02*
X8177087Y-8538984D01*
X8262801Y-8738984D02*
X8262801Y-8634222D01*
X8262801Y-8634222D02*
X8253277Y-8615174D01*
X8253277Y-8615174D02*
X8234230Y-8605650D01*
X8234230Y-8605650D02*
X8205658Y-8605650D01*
X8205658Y-8605650D02*
X8186610Y-8615174D01*
X8186610Y-8615174D02*
X8177087Y-8624698D01*
X8386610Y-8738984D02*
X8367563Y-8729460D01*
X8367563Y-8729460D02*
X8358039Y-8719936D01*
X8358039Y-8719936D02*
X8348515Y-8700889D01*
X8348515Y-8700889D02*
X8348515Y-8643746D01*
X8348515Y-8643746D02*
X8358039Y-8624698D01*
X8358039Y-8624698D02*
X8367563Y-8615174D01*
X8367563Y-8615174D02*
X8386610Y-8605650D01*
X8386610Y-8605650D02*
X8415182Y-8605650D01*
X8415182Y-8605650D02*
X8434230Y-8615174D01*
X8434230Y-8615174D02*
X8443753Y-8624698D01*
X8443753Y-8624698D02*
X8453277Y-8643746D01*
X8453277Y-8643746D02*
X8453277Y-8700889D01*
X8453277Y-8700889D02*
X8443753Y-8719936D01*
X8443753Y-8719936D02*
X8434230Y-8729460D01*
X8434230Y-8729460D02*
X8415182Y-8738984D01*
X8415182Y-8738984D02*
X8386610Y-8738984D01*
X8567563Y-8738984D02*
X8548515Y-8729460D01*
X8548515Y-8729460D02*
X8538992Y-8710412D01*
X8538992Y-8710412D02*
X8538992Y-8538984D01*
X8719944Y-8729460D02*
X8700896Y-8738984D01*
X8700896Y-8738984D02*
X8662801Y-8738984D01*
X8662801Y-8738984D02*
X8643753Y-8729460D01*
X8643753Y-8729460D02*
X8634230Y-8710412D01*
X8634230Y-8710412D02*
X8634230Y-8634222D01*
X8634230Y-8634222D02*
X8643753Y-8615174D01*
X8643753Y-8615174D02*
X8662801Y-8605650D01*
X8662801Y-8605650D02*
X8700896Y-8605650D01*
X8700896Y-8605650D02*
X8719944Y-8615174D01*
X8719944Y-8615174D02*
X8729468Y-8634222D01*
X8729468Y-8634222D02*
X8729468Y-8653270D01*
X8729468Y-8653270D02*
X8634230Y-8672317D01*
X8805658Y-8729460D02*
X8824706Y-8738984D01*
X8824706Y-8738984D02*
X8862801Y-8738984D01*
X8862801Y-8738984D02*
X8881849Y-8729460D01*
X8881849Y-8729460D02*
X8891373Y-8710412D01*
X8891373Y-8710412D02*
X8891373Y-8700889D01*
X8891373Y-8700889D02*
X8881849Y-8681841D01*
X8881849Y-8681841D02*
X8862801Y-8672317D01*
X8862801Y-8672317D02*
X8834230Y-8672317D01*
X8834230Y-8672317D02*
X8815182Y-8662793D01*
X8815182Y-8662793D02*
X8805658Y-8643746D01*
X8805658Y-8643746D02*
X8805658Y-8634222D01*
X8805658Y-8634222D02*
X8815182Y-8615174D01*
X8815182Y-8615174D02*
X8834230Y-8605650D01*
X8834230Y-8605650D02*
X8862801Y-8605650D01*
X8862801Y-8605650D02*
X8881849Y-8615174D01*
X8958039Y-8815174D02*
X8967563Y-8805650D01*
X8967563Y-8805650D02*
X8986611Y-8777079D01*
X8986611Y-8777079D02*
X8996134Y-8758031D01*
X8996134Y-8758031D02*
X9005658Y-8729460D01*
X9005658Y-8729460D02*
X9015182Y-8681841D01*
X9015182Y-8681841D02*
X9015182Y-8643746D01*
X9015182Y-8643746D02*
X9005658Y-8596127D01*
X9005658Y-8596127D02*
X8996134Y-8567555D01*
X8996134Y-8567555D02*
X8986611Y-8548508D01*
X8986611Y-8548508D02*
X8967563Y-8519936D01*
X8967563Y-8519936D02*
X8958039Y-8510412D01*
D13*
X3992500Y-8911500D02*
G75*
G03*
X3992500Y-8911500I-50000J0D01*
G01*
D11*
X4358039Y-9002984D02*
X4243753Y-9002984D01*
X4300896Y-9002984D02*
X4300896Y-8802984D01*
X4300896Y-8802984D02*
X4281848Y-8831555D01*
X4281848Y-8831555D02*
X4262801Y-8850603D01*
X4262801Y-8850603D02*
X4243753Y-8860127D01*
X4443753Y-8983936D02*
X4453277Y-8993460D01*
X4453277Y-8993460D02*
X4443753Y-9002984D01*
X4443753Y-9002984D02*
X4434229Y-8993460D01*
X4434229Y-8993460D02*
X4443753Y-8983936D01*
X4443753Y-8983936D02*
X4443753Y-9002984D01*
X4577086Y-8802984D02*
X4596134Y-8802984D01*
X4596134Y-8802984D02*
X4615182Y-8812508D01*
X4615182Y-8812508D02*
X4624705Y-8822031D01*
X4624705Y-8822031D02*
X4634229Y-8841079D01*
X4634229Y-8841079D02*
X4643753Y-8879174D01*
X4643753Y-8879174D02*
X4643753Y-8926793D01*
X4643753Y-8926793D02*
X4634229Y-8964889D01*
X4634229Y-8964889D02*
X4624705Y-8983936D01*
X4624705Y-8983936D02*
X4615182Y-8993460D01*
X4615182Y-8993460D02*
X4596134Y-9002984D01*
X4596134Y-9002984D02*
X4577086Y-9002984D01*
X4577086Y-9002984D02*
X4558039Y-8993460D01*
X4558039Y-8993460D02*
X4548515Y-8983936D01*
X4548515Y-8983936D02*
X4538991Y-8964889D01*
X4538991Y-8964889D02*
X4529467Y-8926793D01*
X4529467Y-8926793D02*
X4529467Y-8879174D01*
X4529467Y-8879174D02*
X4538991Y-8841079D01*
X4538991Y-8841079D02*
X4548515Y-8822031D01*
X4548515Y-8822031D02*
X4558039Y-8812508D01*
X4558039Y-8812508D02*
X4577086Y-8802984D01*
X4767563Y-8802984D02*
X4786610Y-8802984D01*
X4786610Y-8802984D02*
X4805658Y-8812508D01*
X4805658Y-8812508D02*
X4815182Y-8822031D01*
X4815182Y-8822031D02*
X4824705Y-8841079D01*
X4824705Y-8841079D02*
X4834229Y-8879174D01*
X4834229Y-8879174D02*
X4834229Y-8926793D01*
X4834229Y-8926793D02*
X4824705Y-8964889D01*
X4824705Y-8964889D02*
X4815182Y-8983936D01*
X4815182Y-8983936D02*
X4805658Y-8993460D01*
X4805658Y-8993460D02*
X4786610Y-9002984D01*
X4786610Y-9002984D02*
X4767563Y-9002984D01*
X4767563Y-9002984D02*
X4748515Y-8993460D01*
X4748515Y-8993460D02*
X4738991Y-8983936D01*
X4738991Y-8983936D02*
X4729467Y-8964889D01*
X4729467Y-8964889D02*
X4719944Y-8926793D01*
X4719944Y-8926793D02*
X4719944Y-8879174D01*
X4719944Y-8879174D02*
X4729467Y-8841079D01*
X4729467Y-8841079D02*
X4738991Y-8822031D01*
X4738991Y-8822031D02*
X4748515Y-8812508D01*
X4748515Y-8812508D02*
X4767563Y-8802984D01*
X4958039Y-8802984D02*
X4977086Y-8802984D01*
X4977086Y-8802984D02*
X4996134Y-8812508D01*
X4996134Y-8812508D02*
X5005658Y-8822031D01*
X5005658Y-8822031D02*
X5015182Y-8841079D01*
X5015182Y-8841079D02*
X5024705Y-8879174D01*
X5024705Y-8879174D02*
X5024705Y-8926793D01*
X5024705Y-8926793D02*
X5015182Y-8964889D01*
X5015182Y-8964889D02*
X5005658Y-8983936D01*
X5005658Y-8983936D02*
X4996134Y-8993460D01*
X4996134Y-8993460D02*
X4977086Y-9002984D01*
X4977086Y-9002984D02*
X4958039Y-9002984D01*
X4958039Y-9002984D02*
X4938991Y-8993460D01*
X4938991Y-8993460D02*
X4929467Y-8983936D01*
X4929467Y-8983936D02*
X4919944Y-8964889D01*
X4919944Y-8964889D02*
X4910420Y-8926793D01*
X4910420Y-8926793D02*
X4910420Y-8879174D01*
X4910420Y-8879174D02*
X4919944Y-8841079D01*
X4919944Y-8841079D02*
X4929467Y-8822031D01*
X4929467Y-8822031D02*
X4938991Y-8812508D01*
X4938991Y-8812508D02*
X4958039Y-8802984D01*
X5110420Y-9002984D02*
X5110420Y-8869650D01*
X5110420Y-8888698D02*
X5119944Y-8879174D01*
X5119944Y-8879174D02*
X5138991Y-8869650D01*
X5138991Y-8869650D02*
X5167563Y-8869650D01*
X5167563Y-8869650D02*
X5186610Y-8879174D01*
X5186610Y-8879174D02*
X5196134Y-8898222D01*
X5196134Y-8898222D02*
X5196134Y-9002984D01*
X5196134Y-8898222D02*
X5205658Y-8879174D01*
X5205658Y-8879174D02*
X5224705Y-8869650D01*
X5224705Y-8869650D02*
X5253277Y-8869650D01*
X5253277Y-8869650D02*
X5272325Y-8879174D01*
X5272325Y-8879174D02*
X5281848Y-8898222D01*
X5281848Y-8898222D02*
X5281848Y-9002984D01*
X5377086Y-9002984D02*
X5377086Y-8869650D01*
X5377086Y-8888698D02*
X5386610Y-8879174D01*
X5386610Y-8879174D02*
X5405658Y-8869650D01*
X5405658Y-8869650D02*
X5434229Y-8869650D01*
X5434229Y-8869650D02*
X5453277Y-8879174D01*
X5453277Y-8879174D02*
X5462801Y-8898222D01*
X5462801Y-8898222D02*
X5462801Y-9002984D01*
X5462801Y-8898222D02*
X5472325Y-8879174D01*
X5472325Y-8879174D02*
X5491372Y-8869650D01*
X5491372Y-8869650D02*
X5519944Y-8869650D01*
X5519944Y-8869650D02*
X5538991Y-8879174D01*
X5538991Y-8879174D02*
X5548515Y-8898222D01*
X5548515Y-8898222D02*
X5548515Y-9002984D01*
X5938991Y-8793460D02*
X5767563Y-9050603D01*
X6196134Y-8802984D02*
X6215182Y-8802984D01*
X6215182Y-8802984D02*
X6234229Y-8812508D01*
X6234229Y-8812508D02*
X6243753Y-8822031D01*
X6243753Y-8822031D02*
X6253277Y-8841079D01*
X6253277Y-8841079D02*
X6262801Y-8879174D01*
X6262801Y-8879174D02*
X6262801Y-8926793D01*
X6262801Y-8926793D02*
X6253277Y-8964889D01*
X6253277Y-8964889D02*
X6243753Y-8983936D01*
X6243753Y-8983936D02*
X6234229Y-8993460D01*
X6234229Y-8993460D02*
X6215182Y-9002984D01*
X6215182Y-9002984D02*
X6196134Y-9002984D01*
X6196134Y-9002984D02*
X6177086Y-8993460D01*
X6177086Y-8993460D02*
X6167563Y-8983936D01*
X6167563Y-8983936D02*
X6158039Y-8964889D01*
X6158039Y-8964889D02*
X6148515Y-8926793D01*
X6148515Y-8926793D02*
X6148515Y-8879174D01*
X6148515Y-8879174D02*
X6158039Y-8841079D01*
X6158039Y-8841079D02*
X6167563Y-8822031D01*
X6167563Y-8822031D02*
X6177086Y-8812508D01*
X6177086Y-8812508D02*
X6196134Y-8802984D01*
X6348515Y-8983936D02*
X6358039Y-8993460D01*
X6358039Y-8993460D02*
X6348515Y-9002984D01*
X6348515Y-9002984D02*
X6338991Y-8993460D01*
X6338991Y-8993460D02*
X6348515Y-8983936D01*
X6348515Y-8983936D02*
X6348515Y-9002984D01*
X6481848Y-8802984D02*
X6500896Y-8802984D01*
X6500896Y-8802984D02*
X6519944Y-8812508D01*
X6519944Y-8812508D02*
X6529467Y-8822031D01*
X6529467Y-8822031D02*
X6538991Y-8841079D01*
X6538991Y-8841079D02*
X6548515Y-8879174D01*
X6548515Y-8879174D02*
X6548515Y-8926793D01*
X6548515Y-8926793D02*
X6538991Y-8964889D01*
X6538991Y-8964889D02*
X6529467Y-8983936D01*
X6529467Y-8983936D02*
X6519944Y-8993460D01*
X6519944Y-8993460D02*
X6500896Y-9002984D01*
X6500896Y-9002984D02*
X6481848Y-9002984D01*
X6481848Y-9002984D02*
X6462801Y-8993460D01*
X6462801Y-8993460D02*
X6453277Y-8983936D01*
X6453277Y-8983936D02*
X6443753Y-8964889D01*
X6443753Y-8964889D02*
X6434229Y-8926793D01*
X6434229Y-8926793D02*
X6434229Y-8879174D01*
X6434229Y-8879174D02*
X6443753Y-8841079D01*
X6443753Y-8841079D02*
X6453277Y-8822031D01*
X6453277Y-8822031D02*
X6462801Y-8812508D01*
X6462801Y-8812508D02*
X6481848Y-8802984D01*
X6615182Y-8802984D02*
X6738991Y-8802984D01*
X6738991Y-8802984D02*
X6672325Y-8879174D01*
X6672325Y-8879174D02*
X6700896Y-8879174D01*
X6700896Y-8879174D02*
X6719944Y-8888698D01*
X6719944Y-8888698D02*
X6729467Y-8898222D01*
X6729467Y-8898222D02*
X6738991Y-8917270D01*
X6738991Y-8917270D02*
X6738991Y-8964889D01*
X6738991Y-8964889D02*
X6729467Y-8983936D01*
X6729467Y-8983936D02*
X6719944Y-8993460D01*
X6719944Y-8993460D02*
X6700896Y-9002984D01*
X6700896Y-9002984D02*
X6643753Y-9002984D01*
X6643753Y-9002984D02*
X6624706Y-8993460D01*
X6624706Y-8993460D02*
X6615182Y-8983936D01*
X6834229Y-9002984D02*
X6872325Y-9002984D01*
X6872325Y-9002984D02*
X6891372Y-8993460D01*
X6891372Y-8993460D02*
X6900896Y-8983936D01*
X6900896Y-8983936D02*
X6919944Y-8955365D01*
X6919944Y-8955365D02*
X6929467Y-8917270D01*
X6929467Y-8917270D02*
X6929467Y-8841079D01*
X6929467Y-8841079D02*
X6919944Y-8822031D01*
X6919944Y-8822031D02*
X6910420Y-8812508D01*
X6910420Y-8812508D02*
X6891372Y-8802984D01*
X6891372Y-8802984D02*
X6853277Y-8802984D01*
X6853277Y-8802984D02*
X6834229Y-8812508D01*
X6834229Y-8812508D02*
X6824706Y-8822031D01*
X6824706Y-8822031D02*
X6815182Y-8841079D01*
X6815182Y-8841079D02*
X6815182Y-8888698D01*
X6815182Y-8888698D02*
X6824706Y-8907746D01*
X6824706Y-8907746D02*
X6834229Y-8917270D01*
X6834229Y-8917270D02*
X6853277Y-8926793D01*
X6853277Y-8926793D02*
X6891372Y-8926793D01*
X6891372Y-8926793D02*
X6910420Y-8917270D01*
X6910420Y-8917270D02*
X6919944Y-8907746D01*
X6919944Y-8907746D02*
X6929467Y-8888698D01*
X7100896Y-8869650D02*
X7100896Y-9002984D01*
X7053277Y-8793460D02*
X7005658Y-8936317D01*
X7005658Y-8936317D02*
X7129467Y-8936317D01*
X7196134Y-8802984D02*
X7196134Y-8841079D01*
X7272325Y-8802984D02*
X7272325Y-8841079D01*
X7567563Y-9079174D02*
X7558039Y-9069650D01*
X7558039Y-9069650D02*
X7538991Y-9041079D01*
X7538991Y-9041079D02*
X7529468Y-9022031D01*
X7529468Y-9022031D02*
X7519944Y-8993460D01*
X7519944Y-8993460D02*
X7510420Y-8945841D01*
X7510420Y-8945841D02*
X7510420Y-8907746D01*
X7510420Y-8907746D02*
X7519944Y-8860127D01*
X7519944Y-8860127D02*
X7529468Y-8831555D01*
X7529468Y-8831555D02*
X7538991Y-8812508D01*
X7538991Y-8812508D02*
X7558039Y-8783936D01*
X7558039Y-8783936D02*
X7567563Y-8774412D01*
X7729468Y-8869650D02*
X7729468Y-9002984D01*
X7681848Y-8793460D02*
X7634229Y-8936317D01*
X7634229Y-8936317D02*
X7758039Y-8936317D01*
X7815182Y-8802984D02*
X7948515Y-8802984D01*
X7948515Y-8802984D02*
X7862801Y-9002984D01*
X8177087Y-9002984D02*
X8177087Y-8802984D01*
X8262801Y-9002984D02*
X8262801Y-8898222D01*
X8262801Y-8898222D02*
X8253277Y-8879174D01*
X8253277Y-8879174D02*
X8234230Y-8869650D01*
X8234230Y-8869650D02*
X8205658Y-8869650D01*
X8205658Y-8869650D02*
X8186610Y-8879174D01*
X8186610Y-8879174D02*
X8177087Y-8888698D01*
X8386610Y-9002984D02*
X8367563Y-8993460D01*
X8367563Y-8993460D02*
X8358039Y-8983936D01*
X8358039Y-8983936D02*
X8348515Y-8964889D01*
X8348515Y-8964889D02*
X8348515Y-8907746D01*
X8348515Y-8907746D02*
X8358039Y-8888698D01*
X8358039Y-8888698D02*
X8367563Y-8879174D01*
X8367563Y-8879174D02*
X8386610Y-8869650D01*
X8386610Y-8869650D02*
X8415182Y-8869650D01*
X8415182Y-8869650D02*
X8434230Y-8879174D01*
X8434230Y-8879174D02*
X8443753Y-8888698D01*
X8443753Y-8888698D02*
X8453277Y-8907746D01*
X8453277Y-8907746D02*
X8453277Y-8964889D01*
X8453277Y-8964889D02*
X8443753Y-8983936D01*
X8443753Y-8983936D02*
X8434230Y-8993460D01*
X8434230Y-8993460D02*
X8415182Y-9002984D01*
X8415182Y-9002984D02*
X8386610Y-9002984D01*
X8567563Y-9002984D02*
X8548515Y-8993460D01*
X8548515Y-8993460D02*
X8538992Y-8974412D01*
X8538992Y-8974412D02*
X8538992Y-8802984D01*
X8719944Y-8993460D02*
X8700896Y-9002984D01*
X8700896Y-9002984D02*
X8662801Y-9002984D01*
X8662801Y-9002984D02*
X8643753Y-8993460D01*
X8643753Y-8993460D02*
X8634230Y-8974412D01*
X8634230Y-8974412D02*
X8634230Y-8898222D01*
X8634230Y-8898222D02*
X8643753Y-8879174D01*
X8643753Y-8879174D02*
X8662801Y-8869650D01*
X8662801Y-8869650D02*
X8700896Y-8869650D01*
X8700896Y-8869650D02*
X8719944Y-8879174D01*
X8719944Y-8879174D02*
X8729468Y-8898222D01*
X8729468Y-8898222D02*
X8729468Y-8917270D01*
X8729468Y-8917270D02*
X8634230Y-8936317D01*
X8805658Y-8993460D02*
X8824706Y-9002984D01*
X8824706Y-9002984D02*
X8862801Y-9002984D01*
X8862801Y-9002984D02*
X8881849Y-8993460D01*
X8881849Y-8993460D02*
X8891373Y-8974412D01*
X8891373Y-8974412D02*
X8891373Y-8964889D01*
X8891373Y-8964889D02*
X8881849Y-8945841D01*
X8881849Y-8945841D02*
X8862801Y-8936317D01*
X8862801Y-8936317D02*
X8834230Y-8936317D01*
X8834230Y-8936317D02*
X8815182Y-8926793D01*
X8815182Y-8926793D02*
X8805658Y-8907746D01*
X8805658Y-8907746D02*
X8805658Y-8898222D01*
X8805658Y-8898222D02*
X8815182Y-8879174D01*
X8815182Y-8879174D02*
X8834230Y-8869650D01*
X8834230Y-8869650D02*
X8862801Y-8869650D01*
X8862801Y-8869650D02*
X8881849Y-8879174D01*
X8958039Y-9079174D02*
X8967563Y-9069650D01*
X8967563Y-9069650D02*
X8986611Y-9041079D01*
X8986611Y-9041079D02*
X8996134Y-9022031D01*
X8996134Y-9022031D02*
X9005658Y-8993460D01*
X9005658Y-8993460D02*
X9015182Y-8945841D01*
X9015182Y-8945841D02*
X9015182Y-8907746D01*
X9015182Y-8907746D02*
X9005658Y-8860127D01*
X9005658Y-8860127D02*
X8996134Y-8831555D01*
X8996134Y-8831555D02*
X8986611Y-8812508D01*
X8986611Y-8812508D02*
X8967563Y-8783936D01*
X8967563Y-8783936D02*
X8958039Y-8774412D01*
D14*
X3937500Y-9120500D02*
X3937500Y-9230500D01*
X3882500Y-9175500D02*
X3992500Y-9175500D01*
D11*
X4358039Y-9266984D02*
X4243753Y-9266984D01*
X4300896Y-9266984D02*
X4300896Y-9066984D01*
X4300896Y-9066984D02*
X4281848Y-9095555D01*
X4281848Y-9095555D02*
X4262801Y-9114603D01*
X4262801Y-9114603D02*
X4243753Y-9124127D01*
X4443753Y-9247936D02*
X4453277Y-9257460D01*
X4453277Y-9257460D02*
X4443753Y-9266984D01*
X4443753Y-9266984D02*
X4434229Y-9257460D01*
X4434229Y-9257460D02*
X4443753Y-9247936D01*
X4443753Y-9247936D02*
X4443753Y-9266984D01*
X4643753Y-9266984D02*
X4529467Y-9266984D01*
X4586610Y-9266984D02*
X4586610Y-9066984D01*
X4586610Y-9066984D02*
X4567563Y-9095555D01*
X4567563Y-9095555D02*
X4548515Y-9114603D01*
X4548515Y-9114603D02*
X4529467Y-9124127D01*
X4767563Y-9066984D02*
X4786610Y-9066984D01*
X4786610Y-9066984D02*
X4805658Y-9076508D01*
X4805658Y-9076508D02*
X4815182Y-9086031D01*
X4815182Y-9086031D02*
X4824705Y-9105079D01*
X4824705Y-9105079D02*
X4834229Y-9143174D01*
X4834229Y-9143174D02*
X4834229Y-9190793D01*
X4834229Y-9190793D02*
X4824705Y-9228889D01*
X4824705Y-9228889D02*
X4815182Y-9247936D01*
X4815182Y-9247936D02*
X4805658Y-9257460D01*
X4805658Y-9257460D02*
X4786610Y-9266984D01*
X4786610Y-9266984D02*
X4767563Y-9266984D01*
X4767563Y-9266984D02*
X4748515Y-9257460D01*
X4748515Y-9257460D02*
X4738991Y-9247936D01*
X4738991Y-9247936D02*
X4729467Y-9228889D01*
X4729467Y-9228889D02*
X4719944Y-9190793D01*
X4719944Y-9190793D02*
X4719944Y-9143174D01*
X4719944Y-9143174D02*
X4729467Y-9105079D01*
X4729467Y-9105079D02*
X4738991Y-9086031D01*
X4738991Y-9086031D02*
X4748515Y-9076508D01*
X4748515Y-9076508D02*
X4767563Y-9066984D01*
X4958039Y-9066984D02*
X4977086Y-9066984D01*
X4977086Y-9066984D02*
X4996134Y-9076508D01*
X4996134Y-9076508D02*
X5005658Y-9086031D01*
X5005658Y-9086031D02*
X5015182Y-9105079D01*
X5015182Y-9105079D02*
X5024705Y-9143174D01*
X5024705Y-9143174D02*
X5024705Y-9190793D01*
X5024705Y-9190793D02*
X5015182Y-9228889D01*
X5015182Y-9228889D02*
X5005658Y-9247936D01*
X5005658Y-9247936D02*
X4996134Y-9257460D01*
X4996134Y-9257460D02*
X4977086Y-9266984D01*
X4977086Y-9266984D02*
X4958039Y-9266984D01*
X4958039Y-9266984D02*
X4938991Y-9257460D01*
X4938991Y-9257460D02*
X4929467Y-9247936D01*
X4929467Y-9247936D02*
X4919944Y-9228889D01*
X4919944Y-9228889D02*
X4910420Y-9190793D01*
X4910420Y-9190793D02*
X4910420Y-9143174D01*
X4910420Y-9143174D02*
X4919944Y-9105079D01*
X4919944Y-9105079D02*
X4929467Y-9086031D01*
X4929467Y-9086031D02*
X4938991Y-9076508D01*
X4938991Y-9076508D02*
X4958039Y-9066984D01*
X5110420Y-9266984D02*
X5110420Y-9133650D01*
X5110420Y-9152698D02*
X5119944Y-9143174D01*
X5119944Y-9143174D02*
X5138991Y-9133650D01*
X5138991Y-9133650D02*
X5167563Y-9133650D01*
X5167563Y-9133650D02*
X5186610Y-9143174D01*
X5186610Y-9143174D02*
X5196134Y-9162222D01*
X5196134Y-9162222D02*
X5196134Y-9266984D01*
X5196134Y-9162222D02*
X5205658Y-9143174D01*
X5205658Y-9143174D02*
X5224705Y-9133650D01*
X5224705Y-9133650D02*
X5253277Y-9133650D01*
X5253277Y-9133650D02*
X5272325Y-9143174D01*
X5272325Y-9143174D02*
X5281848Y-9162222D01*
X5281848Y-9162222D02*
X5281848Y-9266984D01*
X5377086Y-9266984D02*
X5377086Y-9133650D01*
X5377086Y-9152698D02*
X5386610Y-9143174D01*
X5386610Y-9143174D02*
X5405658Y-9133650D01*
X5405658Y-9133650D02*
X5434229Y-9133650D01*
X5434229Y-9133650D02*
X5453277Y-9143174D01*
X5453277Y-9143174D02*
X5462801Y-9162222D01*
X5462801Y-9162222D02*
X5462801Y-9266984D01*
X5462801Y-9162222D02*
X5472325Y-9143174D01*
X5472325Y-9143174D02*
X5491372Y-9133650D01*
X5491372Y-9133650D02*
X5519944Y-9133650D01*
X5519944Y-9133650D02*
X5538991Y-9143174D01*
X5538991Y-9143174D02*
X5548515Y-9162222D01*
X5548515Y-9162222D02*
X5548515Y-9266984D01*
X5938991Y-9057460D02*
X5767563Y-9314603D01*
X6196134Y-9066984D02*
X6215182Y-9066984D01*
X6215182Y-9066984D02*
X6234229Y-9076508D01*
X6234229Y-9076508D02*
X6243753Y-9086031D01*
X6243753Y-9086031D02*
X6253277Y-9105079D01*
X6253277Y-9105079D02*
X6262801Y-9143174D01*
X6262801Y-9143174D02*
X6262801Y-9190793D01*
X6262801Y-9190793D02*
X6253277Y-9228889D01*
X6253277Y-9228889D02*
X6243753Y-9247936D01*
X6243753Y-9247936D02*
X6234229Y-9257460D01*
X6234229Y-9257460D02*
X6215182Y-9266984D01*
X6215182Y-9266984D02*
X6196134Y-9266984D01*
X6196134Y-9266984D02*
X6177086Y-9257460D01*
X6177086Y-9257460D02*
X6167563Y-9247936D01*
X6167563Y-9247936D02*
X6158039Y-9228889D01*
X6158039Y-9228889D02*
X6148515Y-9190793D01*
X6148515Y-9190793D02*
X6148515Y-9143174D01*
X6148515Y-9143174D02*
X6158039Y-9105079D01*
X6158039Y-9105079D02*
X6167563Y-9086031D01*
X6167563Y-9086031D02*
X6177086Y-9076508D01*
X6177086Y-9076508D02*
X6196134Y-9066984D01*
X6348515Y-9247936D02*
X6358039Y-9257460D01*
X6358039Y-9257460D02*
X6348515Y-9266984D01*
X6348515Y-9266984D02*
X6338991Y-9257460D01*
X6338991Y-9257460D02*
X6348515Y-9247936D01*
X6348515Y-9247936D02*
X6348515Y-9266984D01*
X6481848Y-9066984D02*
X6500896Y-9066984D01*
X6500896Y-9066984D02*
X6519944Y-9076508D01*
X6519944Y-9076508D02*
X6529467Y-9086031D01*
X6529467Y-9086031D02*
X6538991Y-9105079D01*
X6538991Y-9105079D02*
X6548515Y-9143174D01*
X6548515Y-9143174D02*
X6548515Y-9190793D01*
X6548515Y-9190793D02*
X6538991Y-9228889D01*
X6538991Y-9228889D02*
X6529467Y-9247936D01*
X6529467Y-9247936D02*
X6519944Y-9257460D01*
X6519944Y-9257460D02*
X6500896Y-9266984D01*
X6500896Y-9266984D02*
X6481848Y-9266984D01*
X6481848Y-9266984D02*
X6462801Y-9257460D01*
X6462801Y-9257460D02*
X6453277Y-9247936D01*
X6453277Y-9247936D02*
X6443753Y-9228889D01*
X6443753Y-9228889D02*
X6434229Y-9190793D01*
X6434229Y-9190793D02*
X6434229Y-9143174D01*
X6434229Y-9143174D02*
X6443753Y-9105079D01*
X6443753Y-9105079D02*
X6453277Y-9086031D01*
X6453277Y-9086031D02*
X6462801Y-9076508D01*
X6462801Y-9076508D02*
X6481848Y-9066984D01*
X6719944Y-9133650D02*
X6719944Y-9266984D01*
X6672325Y-9057460D02*
X6624706Y-9200317D01*
X6624706Y-9200317D02*
X6748515Y-9200317D01*
X6805658Y-9066984D02*
X6929467Y-9066984D01*
X6929467Y-9066984D02*
X6862801Y-9143174D01*
X6862801Y-9143174D02*
X6891372Y-9143174D01*
X6891372Y-9143174D02*
X6910420Y-9152698D01*
X6910420Y-9152698D02*
X6919944Y-9162222D01*
X6919944Y-9162222D02*
X6929467Y-9181270D01*
X6929467Y-9181270D02*
X6929467Y-9228889D01*
X6929467Y-9228889D02*
X6919944Y-9247936D01*
X6919944Y-9247936D02*
X6910420Y-9257460D01*
X6910420Y-9257460D02*
X6891372Y-9266984D01*
X6891372Y-9266984D02*
X6834229Y-9266984D01*
X6834229Y-9266984D02*
X6815182Y-9257460D01*
X6815182Y-9257460D02*
X6805658Y-9247936D01*
X6996134Y-9066984D02*
X7119944Y-9066984D01*
X7119944Y-9066984D02*
X7053277Y-9143174D01*
X7053277Y-9143174D02*
X7081848Y-9143174D01*
X7081848Y-9143174D02*
X7100896Y-9152698D01*
X7100896Y-9152698D02*
X7110420Y-9162222D01*
X7110420Y-9162222D02*
X7119944Y-9181270D01*
X7119944Y-9181270D02*
X7119944Y-9228889D01*
X7119944Y-9228889D02*
X7110420Y-9247936D01*
X7110420Y-9247936D02*
X7100896Y-9257460D01*
X7100896Y-9257460D02*
X7081848Y-9266984D01*
X7081848Y-9266984D02*
X7024706Y-9266984D01*
X7024706Y-9266984D02*
X7005658Y-9257460D01*
X7005658Y-9257460D02*
X6996134Y-9247936D01*
X7196134Y-9066984D02*
X7196134Y-9105079D01*
X7272325Y-9066984D02*
X7272325Y-9105079D01*
X7567563Y-9343174D02*
X7558039Y-9333650D01*
X7558039Y-9333650D02*
X7538991Y-9305079D01*
X7538991Y-9305079D02*
X7529468Y-9286031D01*
X7529468Y-9286031D02*
X7519944Y-9257460D01*
X7519944Y-9257460D02*
X7510420Y-9209841D01*
X7510420Y-9209841D02*
X7510420Y-9171746D01*
X7510420Y-9171746D02*
X7519944Y-9124127D01*
X7519944Y-9124127D02*
X7529468Y-9095555D01*
X7529468Y-9095555D02*
X7538991Y-9076508D01*
X7538991Y-9076508D02*
X7558039Y-9047936D01*
X7558039Y-9047936D02*
X7567563Y-9038412D01*
X7672325Y-9152698D02*
X7653277Y-9143174D01*
X7653277Y-9143174D02*
X7643753Y-9133650D01*
X7643753Y-9133650D02*
X7634229Y-9114603D01*
X7634229Y-9114603D02*
X7634229Y-9105079D01*
X7634229Y-9105079D02*
X7643753Y-9086031D01*
X7643753Y-9086031D02*
X7653277Y-9076508D01*
X7653277Y-9076508D02*
X7672325Y-9066984D01*
X7672325Y-9066984D02*
X7710420Y-9066984D01*
X7710420Y-9066984D02*
X7729468Y-9076508D01*
X7729468Y-9076508D02*
X7738991Y-9086031D01*
X7738991Y-9086031D02*
X7748515Y-9105079D01*
X7748515Y-9105079D02*
X7748515Y-9114603D01*
X7748515Y-9114603D02*
X7738991Y-9133650D01*
X7738991Y-9133650D02*
X7729468Y-9143174D01*
X7729468Y-9143174D02*
X7710420Y-9152698D01*
X7710420Y-9152698D02*
X7672325Y-9152698D01*
X7672325Y-9152698D02*
X7653277Y-9162222D01*
X7653277Y-9162222D02*
X7643753Y-9171746D01*
X7643753Y-9171746D02*
X7634229Y-9190793D01*
X7634229Y-9190793D02*
X7634229Y-9228889D01*
X7634229Y-9228889D02*
X7643753Y-9247936D01*
X7643753Y-9247936D02*
X7653277Y-9257460D01*
X7653277Y-9257460D02*
X7672325Y-9266984D01*
X7672325Y-9266984D02*
X7710420Y-9266984D01*
X7710420Y-9266984D02*
X7729468Y-9257460D01*
X7729468Y-9257460D02*
X7738991Y-9247936D01*
X7738991Y-9247936D02*
X7748515Y-9228889D01*
X7748515Y-9228889D02*
X7748515Y-9190793D01*
X7748515Y-9190793D02*
X7738991Y-9171746D01*
X7738991Y-9171746D02*
X7729468Y-9162222D01*
X7729468Y-9162222D02*
X7710420Y-9152698D01*
X7986610Y-9266984D02*
X7986610Y-9066984D01*
X8072325Y-9266984D02*
X8072325Y-9162222D01*
X8072325Y-9162222D02*
X8062801Y-9143174D01*
X8062801Y-9143174D02*
X8043753Y-9133650D01*
X8043753Y-9133650D02*
X8015182Y-9133650D01*
X8015182Y-9133650D02*
X7996134Y-9143174D01*
X7996134Y-9143174D02*
X7986610Y-9152698D01*
X8196134Y-9266984D02*
X8177087Y-9257460D01*
X8177087Y-9257460D02*
X8167563Y-9247936D01*
X8167563Y-9247936D02*
X8158039Y-9228889D01*
X8158039Y-9228889D02*
X8158039Y-9171746D01*
X8158039Y-9171746D02*
X8167563Y-9152698D01*
X8167563Y-9152698D02*
X8177087Y-9143174D01*
X8177087Y-9143174D02*
X8196134Y-9133650D01*
X8196134Y-9133650D02*
X8224706Y-9133650D01*
X8224706Y-9133650D02*
X8243753Y-9143174D01*
X8243753Y-9143174D02*
X8253277Y-9152698D01*
X8253277Y-9152698D02*
X8262801Y-9171746D01*
X8262801Y-9171746D02*
X8262801Y-9228889D01*
X8262801Y-9228889D02*
X8253277Y-9247936D01*
X8253277Y-9247936D02*
X8243753Y-9257460D01*
X8243753Y-9257460D02*
X8224706Y-9266984D01*
X8224706Y-9266984D02*
X8196134Y-9266984D01*
X8377087Y-9266984D02*
X8358039Y-9257460D01*
X8358039Y-9257460D02*
X8348515Y-9238412D01*
X8348515Y-9238412D02*
X8348515Y-9066984D01*
X8529468Y-9257460D02*
X8510420Y-9266984D01*
X8510420Y-9266984D02*
X8472325Y-9266984D01*
X8472325Y-9266984D02*
X8453277Y-9257460D01*
X8453277Y-9257460D02*
X8443753Y-9238412D01*
X8443753Y-9238412D02*
X8443753Y-9162222D01*
X8443753Y-9162222D02*
X8453277Y-9143174D01*
X8453277Y-9143174D02*
X8472325Y-9133650D01*
X8472325Y-9133650D02*
X8510420Y-9133650D01*
X8510420Y-9133650D02*
X8529468Y-9143174D01*
X8529468Y-9143174D02*
X8538992Y-9162222D01*
X8538992Y-9162222D02*
X8538992Y-9181270D01*
X8538992Y-9181270D02*
X8443753Y-9200317D01*
X8615182Y-9257460D02*
X8634230Y-9266984D01*
X8634230Y-9266984D02*
X8672325Y-9266984D01*
X8672325Y-9266984D02*
X8691373Y-9257460D01*
X8691373Y-9257460D02*
X8700896Y-9238412D01*
X8700896Y-9238412D02*
X8700896Y-9228889D01*
X8700896Y-9228889D02*
X8691373Y-9209841D01*
X8691373Y-9209841D02*
X8672325Y-9200317D01*
X8672325Y-9200317D02*
X8643753Y-9200317D01*
X8643753Y-9200317D02*
X8624706Y-9190793D01*
X8624706Y-9190793D02*
X8615182Y-9171746D01*
X8615182Y-9171746D02*
X8615182Y-9162222D01*
X8615182Y-9162222D02*
X8624706Y-9143174D01*
X8624706Y-9143174D02*
X8643753Y-9133650D01*
X8643753Y-9133650D02*
X8672325Y-9133650D01*
X8672325Y-9133650D02*
X8691373Y-9143174D01*
X8767563Y-9343174D02*
X8777087Y-9333650D01*
X8777087Y-9333650D02*
X8796134Y-9305079D01*
X8796134Y-9305079D02*
X8805658Y-9286031D01*
X8805658Y-9286031D02*
X8815182Y-9257460D01*
X8815182Y-9257460D02*
X8824706Y-9209841D01*
X8824706Y-9209841D02*
X8824706Y-9171746D01*
X8824706Y-9171746D02*
X8815182Y-9124127D01*
X8815182Y-9124127D02*
X8805658Y-9095555D01*
X8805658Y-9095555D02*
X8796134Y-9076508D01*
X8796134Y-9076508D02*
X8777087Y-9047936D01*
X8777087Y-9047936D02*
X8767563Y-9038412D01*
M02*
