M48
; DRILL file {KiCad 7.0.6} date Mon Aug 14 14:17:24 2023
; FORMAT={2:4/ absolute / inch / suppress leading zeros}
; #@! TF.CreationDate,2023-08-14T14:17:24+01:00
; #@! TF.GenerationSoftware,Kicad,Pcbnew,7.0.6
; #@! TF.FileFunction,Plated,1,2,PTH
FMAT,2
INCH,TZ
; #@! TA.AperFunction,Plated,PTH,ViaDrill
T1C0.0157
; #@! TA.AperFunction,Plated,PTH,ComponentDrill
T2C0.0394
; #@! TA.AperFunction,Plated,PTH,ComponentDrill
T3C0.0433
%
G90
G05
T1
X18701Y-29370
X21220Y-25236
X22008Y-25709
X22638Y-26378
X23976Y-26654
X23976Y-27047
X23976Y-27402
X25906Y-26142
X26220Y-29409
X26575Y-24094
X26772Y-27165
X26772Y-28937
X27047Y-25984
X29409Y-30197
X29882Y-28504
X29882Y-30079
X29921Y-23031
X30433Y-28583
X30551Y-24449
X31181Y-28780
X31988Y-26870
X32874Y-24016
X32874Y-27165
X35984Y-28465
X36890Y-26654
X38858Y-28189
X38872Y-27652
T2
X19043Y-20563
X19043Y-21563
X20043Y-20563
X20043Y-21563
X21043Y-20563
X21043Y-21563
X22043Y-20563
X22043Y-21563
X23043Y-20563
X23043Y-21563
X24043Y-20563
X24043Y-21563
X25043Y-20563
X25043Y-21563
X26043Y-20563
X26043Y-21563
X27043Y-20563
X27043Y-21563
X28043Y-20563
X28043Y-21563
X29043Y-20563
X29043Y-21563
X30043Y-20563
X30043Y-21563
X31043Y-20563
X31043Y-21563
X32043Y-20563
X32043Y-21563
X33043Y-20563
X33043Y-21563
X34043Y-20563
X34043Y-21563
X35043Y-20563
X35043Y-21563
X36043Y-20563
X36043Y-21563
X36512Y-24016
X37043Y-20563
X37043Y-21563
X37512Y-24016
X38043Y-20563
X38043Y-21563
X38512Y-24016
X38764Y-25433
X39512Y-24016
X39764Y-25433
X40512Y-24016
T3
X17323Y-23398
X17323Y-24398
X19764Y-30000
X20764Y-30000
X21764Y-30000
X22764Y-30000
X23764Y-30000
X24764Y-30000
T0
M30
