%TF.GenerationSoftware,KiCad,Pcbnew,7.0.6*%
%TF.CreationDate,2023-08-14T14:17:20+01:00*%
%TF.ProjectId,canhat,63616e68-6174-42e6-9b69-6361645f7063,8*%
%TF.SameCoordinates,Original*%
%TF.FileFunction,Copper,L2,Bot*%
%TF.FilePolarity,Positive*%
%FSLAX46Y46*%
G04 Gerber Fmt 4.6, Leading zero omitted, Abs format (unit mm)*
G04 Created by KiCad (PCBNEW 7.0.6) date 2023-08-14 14:17:20*
%MOMM*%
%LPD*%
G01*
G04 APERTURE LIST*
G04 Aperture macros list*
%AMFreePoly0*
4,1,19,0.550000,-0.750000,0.000000,-0.750000,0.000000,-0.744911,-0.071157,-0.744911,-0.207708,-0.704816,-0.327430,-0.627875,-0.420627,-0.520320,-0.479746,-0.390866,-0.500000,-0.250000,-0.500000,0.250000,-0.479746,0.390866,-0.420627,0.520320,-0.327430,0.627875,-0.207708,0.704816,-0.071157,0.744911,0.000000,0.744911,0.000000,0.750000,0.550000,0.750000,0.550000,-0.750000,0.550000,-0.750000,
$1*%
%AMFreePoly1*
4,1,19,0.000000,0.744911,0.071157,0.744911,0.207708,0.704816,0.327430,0.627875,0.420627,0.520320,0.479746,0.390866,0.500000,0.250000,0.500000,-0.250000,0.479746,-0.390866,0.420627,-0.520320,0.327430,-0.627875,0.207708,-0.704816,0.071157,-0.744911,0.000000,-0.744911,0.000000,-0.750000,-0.550000,-0.750000,-0.550000,0.750000,0.000000,0.750000,0.000000,0.744911,0.000000,0.744911,
$1*%
%AMFreePoly2*
4,1,19,0.500000,-0.750000,0.000000,-0.750000,0.000000,-0.744911,-0.071157,-0.744911,-0.207708,-0.704816,-0.327430,-0.627875,-0.420627,-0.520320,-0.479746,-0.390866,-0.500000,-0.250000,-0.500000,0.250000,-0.479746,0.390866,-0.420627,0.520320,-0.327430,0.627875,-0.207708,0.704816,-0.071157,0.744911,0.000000,0.744911,0.000000,0.750000,0.500000,0.750000,0.500000,-0.750000,0.500000,-0.750000,
$1*%
%AMFreePoly3*
4,1,19,0.000000,0.744911,0.071157,0.744911,0.207708,0.704816,0.327430,0.627875,0.420627,0.520320,0.479746,0.390866,0.500000,0.250000,0.500000,-0.250000,0.479746,-0.390866,0.420627,-0.520320,0.327430,-0.627875,0.207708,-0.704816,0.071157,-0.744911,0.000000,-0.744911,0.000000,-0.750000,-0.500000,-0.750000,-0.500000,0.750000,0.000000,0.750000,0.000000,0.744911,0.000000,0.744911,
$1*%
G04 Aperture macros list end*
%TA.AperFunction,ComponentPad*%
%ADD10R,1.700000X1.700000*%
%TD*%
%TA.AperFunction,ComponentPad*%
%ADD11O,1.700000X1.700000*%
%TD*%
%TA.AperFunction,ComponentPad*%
%ADD12R,2.200000X2.200000*%
%TD*%
%TA.AperFunction,ComponentPad*%
%ADD13C,2.200000*%
%TD*%
%TA.AperFunction,SMDPad,CuDef*%
%ADD14FreePoly0,0.000000*%
%TD*%
%TA.AperFunction,SMDPad,CuDef*%
%ADD15R,1.000000X1.500000*%
%TD*%
%TA.AperFunction,SMDPad,CuDef*%
%ADD16FreePoly1,0.000000*%
%TD*%
%TA.AperFunction,SMDPad,CuDef*%
%ADD17FreePoly0,90.000000*%
%TD*%
%TA.AperFunction,SMDPad,CuDef*%
%ADD18R,1.500000X1.000000*%
%TD*%
%TA.AperFunction,SMDPad,CuDef*%
%ADD19FreePoly1,90.000000*%
%TD*%
%TA.AperFunction,SMDPad,CuDef*%
%ADD20FreePoly2,90.000000*%
%TD*%
%TA.AperFunction,SMDPad,CuDef*%
%ADD21FreePoly3,90.000000*%
%TD*%
%TA.AperFunction,ViaPad*%
%ADD22C,0.800000*%
%TD*%
%TA.AperFunction,Conductor*%
%ADD23C,0.250000*%
%TD*%
G04 APERTURE END LIST*
%TA.AperFunction,EtchedComponent*%
%TO.C,JP4*%
G36*
X77900000Y-74900000D02*
G01*
X77400000Y-74900000D01*
X77400000Y-74300000D01*
X77900000Y-74300000D01*
X77900000Y-74900000D01*
G37*
%TD.AperFunction*%
%TA.AperFunction,EtchedComponent*%
%TO.C,JP2*%
G36*
X65700000Y-71200000D02*
G01*
X65100000Y-71200000D01*
X65100000Y-70700000D01*
X65700000Y-70700000D01*
X65700000Y-71200000D01*
G37*
%TD.AperFunction*%
%TA.AperFunction,EtchedComponent*%
%TO.C,JP3*%
G36*
X68300000Y-71150000D02*
G01*
X67700000Y-71150000D01*
X67700000Y-70650000D01*
X68300000Y-70650000D01*
X68300000Y-71150000D01*
G37*
%TD.AperFunction*%
%TD*%
D10*
%TO.P,JP1,1,A*%
%TO.N,Net-(JP1-Pad1)*%
X98460000Y-64600000D03*
D11*
%TO.P,JP1,2,B*%
%TO.N,GND*%
X101000000Y-64600000D03*
%TD*%
D12*
%TO.P,J2,1,Pin_1*%
%TO.N,GND*%
X50200000Y-76200000D03*
D13*
%TO.P,J2,2,Pin_2*%
%TO.N,/CAN_P*%
X52740000Y-76200000D03*
%TO.P,J2,3,Pin_3*%
%TO.N,/CAN_N*%
X55280000Y-76200000D03*
%TO.P,J2,4,Pin_4*%
X57820000Y-76200000D03*
%TO.P,J2,5,Pin_5*%
%TO.N,/CAN_P*%
X60360000Y-76200000D03*
%TO.P,J2,6,Pin_6*%
%TO.N,GND*%
X62900000Y-76200000D03*
%TD*%
D12*
%TO.P,J5,1,Pin_1*%
%TO.N,GND*%
X44000000Y-59430000D03*
D13*
%TO.P,J5,2,Pin_2*%
%TO.N,+12V*%
X44000000Y-61970000D03*
%TD*%
D10*
%TO.P,J3,1,Pin_1*%
%TO.N,GND*%
X102900000Y-61000000D03*
D11*
%TO.P,J3,2,Pin_2*%
%TO.N,/GPIO21*%
X100360000Y-61000000D03*
%TO.P,J3,3,Pin_3*%
%TO.N,/GPIO26*%
X97820000Y-61000000D03*
%TO.P,J3,4,Pin_4*%
%TO.N,/GPIO20*%
X95280000Y-61000000D03*
%TO.P,J3,5,Pin_5*%
%TO.N,/GPIO19*%
X92740000Y-61000000D03*
%TD*%
D10*
%TO.P,J1,1,3V3*%
%TO.N,unconnected-(J1-Pad1)*%
X48370000Y-54770000D03*
D11*
%TO.P,J1,2,5V*%
%TO.N,+5V*%
X48370000Y-52230000D03*
%TO.P,J1,3,SDA/GPIO2*%
%TO.N,unconnected-(J1-Pad3)*%
X50910000Y-54770000D03*
%TO.P,J1,4,5V*%
%TO.N,+5V*%
X50910000Y-52230000D03*
%TO.P,J1,5,SCL/GPIO3*%
%TO.N,unconnected-(J1-Pad5)*%
X53450000Y-54770000D03*
%TO.P,J1,6,GND*%
%TO.N,GND*%
X53450000Y-52230000D03*
%TO.P,J1,7,GCLK0/GPIO4*%
%TO.N,unconnected-(J1-Pad7)*%
X55990000Y-54770000D03*
%TO.P,J1,8,GPIO14/TXD*%
%TO.N,unconnected-(J1-Pad8)*%
X55990000Y-52230000D03*
%TO.P,J1,9,GND*%
%TO.N,GND*%
X58530000Y-54770000D03*
%TO.P,J1,10,GPIO15/RXD*%
%TO.N,unconnected-(J1-Pad10)*%
X58530000Y-52230000D03*
%TO.P,J1,11,GPIO17*%
%TO.N,unconnected-(J1-Pad11)*%
X61070000Y-54770000D03*
%TO.P,J1,12,GPIO18/PWM0*%
%TO.N,unconnected-(J1-Pad12)*%
X61070000Y-52230000D03*
%TO.P,J1,13,GPIO27*%
%TO.N,unconnected-(J1-Pad13)*%
X63610000Y-54770000D03*
%TO.P,J1,14,GND*%
%TO.N,GND*%
X63610000Y-52230000D03*
%TO.P,J1,15,GPIO22*%
%TO.N,/TRXEN*%
X66150000Y-54770000D03*
%TO.P,J1,16,GPIO23*%
%TO.N,unconnected-(J1-Pad16)*%
X66150000Y-52230000D03*
%TO.P,J1,17,3V3*%
%TO.N,+3V3*%
X68690000Y-54770000D03*
%TO.P,J1,18,GPIO24*%
%TO.N,unconnected-(J1-Pad18)*%
X68690000Y-52230000D03*
%TO.P,J1,19,MOSI0/GPIO10*%
%TO.N,/MOSI*%
X71230000Y-54770000D03*
%TO.P,J1,20,GND*%
%TO.N,GND*%
X71230000Y-52230000D03*
%TO.P,J1,21,MISO0/GPIO9*%
%TO.N,/MISO*%
X73770000Y-54770000D03*
%TO.P,J1,22,GPIO25*%
%TO.N,unconnected-(J1-Pad22)*%
X73770000Y-52230000D03*
%TO.P,J1,23,SCLK0/GPIO11*%
%TO.N,/SCK*%
X76310000Y-54770000D03*
%TO.P,J1,24,~{CE0}/GPIO8*%
%TO.N,/~{CS}*%
X76310000Y-52230000D03*
%TO.P,J1,25,GND*%
%TO.N,GND*%
X78850000Y-54770000D03*
%TO.P,J1,26,~{CE1}/GPIO7*%
%TO.N,unconnected-(J1-Pad26)*%
X78850000Y-52230000D03*
%TO.P,J1,27,ID_SD/GPIO0*%
%TO.N,/ID_SD*%
X81390000Y-54770000D03*
%TO.P,J1,28,ID_SC/GPIO1*%
%TO.N,/ID_SC*%
X81390000Y-52230000D03*
%TO.P,J1,29,GCLK1/GPIO5*%
%TO.N,unconnected-(J1-Pad29)*%
X83930000Y-54770000D03*
%TO.P,J1,30,GND*%
%TO.N,GND*%
X83930000Y-52230000D03*
%TO.P,J1,31,GCLK2/GPIO6*%
%TO.N,unconnected-(J1-Pad31)*%
X86470000Y-54770000D03*
%TO.P,J1,32,PWM0/GPIO12*%
%TO.N,/~{INT}*%
X86470000Y-52230000D03*
%TO.P,J1,33,PWM1/GPIO13*%
%TO.N,unconnected-(J1-Pad33)*%
X89010000Y-54770000D03*
%TO.P,J1,34,GND*%
%TO.N,GND*%
X89010000Y-52230000D03*
%TO.P,J1,35,GPIO19/MISO1*%
%TO.N,/GPIO19*%
X91550000Y-54770000D03*
%TO.P,J1,36,GPIO16*%
%TO.N,unconnected-(J1-Pad36)*%
X91550000Y-52230000D03*
%TO.P,J1,37,GPIO26*%
%TO.N,/GPIO26*%
X94090000Y-54770000D03*
%TO.P,J1,38,GPIO20/MOSI1*%
%TO.N,/GPIO20*%
X94090000Y-52230000D03*
%TO.P,J1,39,GND*%
%TO.N,GND*%
X96630000Y-54770000D03*
%TO.P,J1,40,GPIO21/SCLK1*%
%TO.N,/GPIO21*%
X96630000Y-52230000D03*
%TD*%
D14*
%TO.P,JP4,1,A*%
%TO.N,+5V*%
X77000000Y-74600000D03*
D15*
%TO.P,JP4,2,C*%
%TO.N,Net-(C6-Pad2)*%
X78300000Y-74600000D03*
D16*
%TO.P,JP4,3,B*%
%TO.N,+3V3*%
X79600000Y-74600000D03*
%TD*%
D17*
%TO.P,JP2,1,A*%
%TO.N,GND*%
X65400000Y-71600000D03*
D18*
%TO.P,JP2,2,C*%
%TO.N,Net-(JP2-Pad2)*%
X65400000Y-70300000D03*
D19*
%TO.P,JP2,3,B*%
%TO.N,/TRXEN*%
X65400000Y-69000000D03*
%TD*%
D20*
%TO.P,JP3,1,A*%
%TO.N,Net-(JP3-Pad1)*%
X68000000Y-71550000D03*
D21*
%TO.P,JP3,2,B*%
%TO.N,+3V3*%
X68000000Y-70250000D03*
%TD*%
D22*
%TO.N,GND*%
X57500000Y-67000000D03*
X60900000Y-69600000D03*
X60900000Y-67700000D03*
X60900000Y-68700000D03*
X75900000Y-72400000D03*
X53900000Y-64100000D03*
X83500000Y-69000000D03*
X74700000Y-76700000D03*
X47500000Y-74600000D03*
X81250000Y-68250000D03*
X68700000Y-66000000D03*
X67500000Y-61200000D03*
X91400000Y-72300000D03*
X93700000Y-67700000D03*
X83500000Y-61000000D03*
X55900000Y-65300000D03*
%TO.N,/MOSI*%
X76000000Y-58500000D03*
%TO.N,/~{CS}*%
X77600000Y-62100000D03*
%TO.N,+3V3*%
X68000000Y-69000000D03*
X79200000Y-73100000D03*
%TO.N,/ID_SD*%
X98700000Y-71600000D03*
%TO.N,/ID_SC*%
X98735000Y-70235000D03*
%TO.N,+5V*%
X77300000Y-72600000D03*
%TO.N,/TRXEN*%
X65800000Y-66400000D03*
%TO.N,Net-(C6-Pad2)*%
X75900000Y-76400000D03*
%TO.N,Net-(JP2-Pad2)*%
X66600000Y-74700000D03*
%TO.N,Net-(JP3-Pad1)*%
X68000000Y-73500000D03*
%TD*%
D23*
%TO.N,/MOSI*%
X74960000Y-58500000D02*
X71230000Y-54770000D01*
X76000000Y-58500000D02*
X74960000Y-58500000D01*
%TO.N,/~{CS}*%
X77600000Y-62000000D02*
X77600000Y-62100000D01*
X77600000Y-53520000D02*
X77600000Y-62000000D01*
X76310000Y-52230000D02*
X77600000Y-53520000D01*
%TO.N,+3V3*%
X79600000Y-74600000D02*
X79200000Y-74200000D01*
X68000000Y-70250000D02*
X68000000Y-69000000D01*
X79200000Y-74200000D02*
X79200000Y-73100000D01*
%TO.N,/ID_SD*%
X84500000Y-58000000D02*
X88300000Y-58000000D01*
X81390000Y-54770000D02*
X81390000Y-54890000D01*
X81390000Y-54890000D02*
X84500000Y-58000000D01*
X88300000Y-58000000D02*
X90600000Y-60300000D01*
X97800000Y-69200000D02*
X97800000Y-70700000D01*
X90600000Y-62000000D02*
X94800000Y-66200000D01*
X90600000Y-60300000D02*
X90600000Y-62000000D01*
X97800000Y-70700000D02*
X98700000Y-71600000D01*
X94800000Y-66200000D02*
X97800000Y-69200000D01*
%TO.N,/ID_SC*%
X98735000Y-69435000D02*
X98735000Y-70235000D01*
X91100000Y-61800000D02*
X95500000Y-66200000D01*
X88500000Y-57500000D02*
X91100000Y-60100000D01*
X91100000Y-60100000D02*
X91100000Y-61800000D01*
X82700000Y-53540000D02*
X82700000Y-55400000D01*
X95500000Y-66200000D02*
X98735000Y-69435000D01*
X84800000Y-57500000D02*
X88500000Y-57500000D01*
X82700000Y-55400000D02*
X84800000Y-57500000D01*
X81390000Y-52230000D02*
X82700000Y-53540000D01*
%TO.N,+5V*%
X77300000Y-74300000D02*
X77300000Y-72600000D01*
X77000000Y-74600000D02*
X77300000Y-74300000D01*
%TO.N,/TRXEN*%
X65800000Y-68400000D02*
X65800000Y-66400000D01*
X65800000Y-68400000D02*
X65800000Y-68600000D01*
X65800000Y-68600000D02*
X65400000Y-69000000D01*
%TO.N,Net-(C6-Pad2)*%
X77500000Y-76400000D02*
X78300000Y-75600000D01*
X75900000Y-76400000D02*
X77500000Y-76400000D01*
X78300000Y-75600000D02*
X78300000Y-74600000D01*
%TO.N,Net-(JP2-Pad2)*%
X66300000Y-70300000D02*
X66600000Y-70600000D01*
X65400000Y-70300000D02*
X66300000Y-70300000D01*
X66600000Y-70600000D02*
X66600000Y-74700000D01*
%TO.N,Net-(JP3-Pad1)*%
X68000000Y-73500000D02*
X68000000Y-71550000D01*
%TD*%
%TA.AperFunction,Conductor*%
%TO.N,GND*%
G36*
X100745538Y-50095185D02*
G01*
X100791293Y-50147989D01*
X100801237Y-50217147D01*
X100772212Y-50280703D01*
X100713434Y-50318477D01*
X100712265Y-50318813D01*
X100687517Y-50325812D01*
X100434831Y-50397264D01*
X100434818Y-50397268D01*
X100099968Y-50533273D01*
X100099962Y-50533276D01*
X99782108Y-50705290D01*
X99782107Y-50705291D01*
X99485081Y-50911244D01*
X99212530Y-51148609D01*
X98967740Y-51414522D01*
X98753691Y-51705747D01*
X98753690Y-51705748D01*
X98572977Y-52018752D01*
X98427792Y-52349741D01*
X98427791Y-52349742D01*
X98319901Y-52694686D01*
X98250611Y-53049410D01*
X98250609Y-53049424D01*
X98220765Y-53409599D01*
X98220765Y-53409602D01*
X98230723Y-53770893D01*
X98230723Y-53770894D01*
X98232275Y-53782085D01*
X98254665Y-53943555D01*
X98280368Y-54128908D01*
X98369093Y-54479273D01*
X98369093Y-54479275D01*
X98495819Y-54817746D01*
X98495822Y-54817753D01*
X98495823Y-54817754D01*
X98659020Y-55140240D01*
X98856703Y-55442816D01*
X99022948Y-55644676D01*
X99086473Y-55721810D01*
X99086478Y-55721815D01*
X99345539Y-55973834D01*
X99630753Y-56195826D01*
X99630755Y-56195827D01*
X99938664Y-56385097D01*
X100265524Y-56539346D01*
X100607370Y-56656702D01*
X100960051Y-56735740D01*
X101319286Y-56775500D01*
X101590286Y-56775500D01*
X101626975Y-56773475D01*
X101860880Y-56760571D01*
X102217379Y-56701081D01*
X102565170Y-56602735D01*
X102565176Y-56602732D01*
X102565181Y-56602731D01*
X102744414Y-56529932D01*
X102900032Y-56466726D01*
X103217899Y-56294705D01*
X103514913Y-56088760D01*
X103787469Y-55851391D01*
X104032258Y-55585480D01*
X104246309Y-55294253D01*
X104427023Y-54981247D01*
X104572207Y-54650260D01*
X104680099Y-54305310D01*
X104680100Y-54305301D01*
X104680293Y-54304546D01*
X104680390Y-54304381D01*
X104681120Y-54302048D01*
X104681667Y-54302219D01*
X104715829Y-54244388D01*
X104778248Y-54212993D01*
X104847732Y-54220328D01*
X104902220Y-54264064D01*
X104924412Y-54330315D01*
X104924500Y-54334980D01*
X104924500Y-75685311D01*
X104904815Y-75752350D01*
X104852011Y-75798105D01*
X104782853Y-75808049D01*
X104719297Y-75779024D01*
X104681523Y-75720246D01*
X104680294Y-75715751D01*
X104651108Y-75600500D01*
X104630907Y-75520728D01*
X104628610Y-75514594D01*
X104504180Y-75182253D01*
X104504178Y-75182250D01*
X104504177Y-75182246D01*
X104340980Y-74859760D01*
X104143297Y-74557184D01*
X103913528Y-74278191D01*
X103900449Y-74265468D01*
X103654460Y-74026165D01*
X103369246Y-73804173D01*
X103369244Y-73804172D01*
X103061333Y-73614901D01*
X103061329Y-73614899D01*
X102734489Y-73460660D01*
X102734485Y-73460658D01*
X102734476Y-73460654D01*
X102734470Y-73460652D01*
X102734468Y-73460651D01*
X102392638Y-73343300D01*
X102392633Y-73343299D01*
X102392630Y-73343298D01*
X102039949Y-73264260D01*
X102039945Y-73264259D01*
X102039943Y-73264259D01*
X101680714Y-73224500D01*
X101409717Y-73224500D01*
X101409714Y-73224500D01*
X101139120Y-73239429D01*
X100782619Y-73298919D01*
X100782615Y-73298920D01*
X100434831Y-73397264D01*
X100434818Y-73397268D01*
X100099968Y-73533273D01*
X100099962Y-73533276D01*
X99782108Y-73705290D01*
X99782107Y-73705291D01*
X99485081Y-73911244D01*
X99212530Y-74148609D01*
X98967740Y-74414522D01*
X98753691Y-74705747D01*
X98753690Y-74705748D01*
X98572977Y-75018752D01*
X98427792Y-75349741D01*
X98427791Y-75349742D01*
X98319901Y-75694686D01*
X98250611Y-76049410D01*
X98250609Y-76049424D01*
X98220765Y-76409599D01*
X98220765Y-76409602D01*
X98230723Y-76770893D01*
X98230723Y-76770894D01*
X98232037Y-76780367D01*
X98279901Y-77125545D01*
X98280368Y-77128908D01*
X98369093Y-77479273D01*
X98369093Y-77479275D01*
X98495819Y-77817746D01*
X98495822Y-77817753D01*
X98495823Y-77817754D01*
X98659020Y-78140240D01*
X98856703Y-78442816D01*
X98856705Y-78442818D01*
X99086473Y-78721810D01*
X99086478Y-78721815D01*
X99345539Y-78973834D01*
X99630753Y-79195826D01*
X99630755Y-79195827D01*
X99774439Y-79284149D01*
X99938666Y-79385098D01*
X99938670Y-79385100D01*
X100036722Y-79431371D01*
X100265524Y-79539346D01*
X100607370Y-79656702D01*
X100709106Y-79679501D01*
X100770218Y-79713370D01*
X100803318Y-79774901D01*
X100797897Y-79844560D01*
X100755676Y-79900231D01*
X100690060Y-79924237D01*
X100681989Y-79924500D01*
X44321501Y-79924500D01*
X44254462Y-79904815D01*
X44208707Y-79852011D01*
X44198763Y-79782853D01*
X44227788Y-79719297D01*
X44286566Y-79681523D01*
X44287760Y-79681179D01*
X44565170Y-79602735D01*
X44565176Y-79602732D01*
X44565181Y-79602731D01*
X44872454Y-79477927D01*
X44900032Y-79466726D01*
X45217899Y-79294705D01*
X45514913Y-79088760D01*
X45787469Y-78851391D01*
X46032258Y-78585480D01*
X46246309Y-78294253D01*
X46427023Y-77981247D01*
X46572207Y-77650260D01*
X46674057Y-77324628D01*
X48850000Y-77324628D01*
X48864503Y-77397540D01*
X48864505Y-77397544D01*
X48919760Y-77480239D01*
X49002455Y-77535494D01*
X49002459Y-77535496D01*
X49075371Y-77549999D01*
X49075374Y-77550000D01*
X49950000Y-77550000D01*
X49950000Y-76691683D01*
X49978819Y-76709209D01*
X50124404Y-76750000D01*
X50237622Y-76750000D01*
X50349783Y-76734584D01*
X50450000Y-76691053D01*
X50450000Y-77550000D01*
X51324626Y-77550000D01*
X51324628Y-77549999D01*
X51397540Y-77535496D01*
X51397544Y-77535494D01*
X51480239Y-77480239D01*
X51535494Y-77397544D01*
X51535496Y-77397540D01*
X51549999Y-77324628D01*
X51550000Y-77324626D01*
X51550000Y-77219258D01*
X51569685Y-77152219D01*
X51622489Y-77106464D01*
X51691647Y-77096520D01*
X51755203Y-77125545D01*
X51761681Y-77131577D01*
X51868599Y-77238495D01*
X51964021Y-77305310D01*
X52062165Y-77374032D01*
X52062167Y-77374033D01*
X52062170Y-77374035D01*
X52276337Y-77473903D01*
X52276343Y-77473904D01*
X52276344Y-77473905D01*
X52305716Y-77481775D01*
X52504592Y-77535063D01*
X52675319Y-77550000D01*
X52739999Y-77555659D01*
X52740000Y-77555659D01*
X52740001Y-77555659D01*
X52804681Y-77550000D01*
X52975408Y-77535063D01*
X53203663Y-77473903D01*
X53417830Y-77374035D01*
X53611401Y-77238495D01*
X53778495Y-77071401D01*
X53908424Y-76885842D01*
X53963002Y-76842217D01*
X54032500Y-76835023D01*
X54094855Y-76866546D01*
X54111575Y-76885842D01*
X54226869Y-77050500D01*
X54241505Y-77071401D01*
X54408599Y-77238495D01*
X54504021Y-77305310D01*
X54602165Y-77374032D01*
X54602167Y-77374033D01*
X54602170Y-77374035D01*
X54816337Y-77473903D01*
X54816343Y-77473904D01*
X54816344Y-77473905D01*
X54845716Y-77481775D01*
X55044592Y-77535063D01*
X55215319Y-77550000D01*
X55279999Y-77555659D01*
X55280000Y-77555659D01*
X55280001Y-77555659D01*
X55344681Y-77550000D01*
X55515408Y-77535063D01*
X55743663Y-77473903D01*
X55957830Y-77374035D01*
X56151401Y-77238495D01*
X56318495Y-77071401D01*
X56448424Y-76885842D01*
X56503002Y-76842217D01*
X56572500Y-76835023D01*
X56634855Y-76866546D01*
X56651575Y-76885842D01*
X56766869Y-77050500D01*
X56781505Y-77071401D01*
X56948599Y-77238495D01*
X57044021Y-77305310D01*
X57142165Y-77374032D01*
X57142167Y-77374033D01*
X57142170Y-77374035D01*
X57356337Y-77473903D01*
X57356343Y-77473904D01*
X57356344Y-77473905D01*
X57385716Y-77481775D01*
X57584592Y-77535063D01*
X57755319Y-77550000D01*
X57819999Y-77555659D01*
X57820000Y-77555659D01*
X57820001Y-77555659D01*
X57884681Y-77550000D01*
X58055408Y-77535063D01*
X58283663Y-77473903D01*
X58497830Y-77374035D01*
X58691401Y-77238495D01*
X58858495Y-77071401D01*
X58988424Y-76885842D01*
X59043002Y-76842217D01*
X59112500Y-76835023D01*
X59174855Y-76866546D01*
X59191575Y-76885842D01*
X59306869Y-77050500D01*
X59321505Y-77071401D01*
X59488599Y-77238495D01*
X59584021Y-77305310D01*
X59682165Y-77374032D01*
X59682167Y-77374033D01*
X59682170Y-77374035D01*
X59896337Y-77473903D01*
X59896343Y-77473904D01*
X59896344Y-77473905D01*
X59925716Y-77481775D01*
X60124592Y-77535063D01*
X60295319Y-77550000D01*
X60359999Y-77555659D01*
X60360000Y-77555659D01*
X60360001Y-77555659D01*
X60424681Y-77550000D01*
X60595408Y-77535063D01*
X60823663Y-77473903D01*
X61037830Y-77374035D01*
X61231401Y-77238495D01*
X61398495Y-77071401D01*
X61528732Y-76885403D01*
X61583307Y-76841780D01*
X61652805Y-76834586D01*
X61715160Y-76866109D01*
X61731880Y-76885405D01*
X61785073Y-76961373D01*
X62374070Y-76372374D01*
X62376884Y-76385915D01*
X62446442Y-76520156D01*
X62549638Y-76630652D01*
X62678819Y-76709209D01*
X62730002Y-76723549D01*
X62138625Y-77314925D01*
X62222421Y-77373599D01*
X62436507Y-77473429D01*
X62436516Y-77473433D01*
X62664673Y-77534567D01*
X62664684Y-77534569D01*
X62899998Y-77555157D01*
X62900002Y-77555157D01*
X63135315Y-77534569D01*
X63135326Y-77534567D01*
X63363483Y-77473433D01*
X63363492Y-77473429D01*
X63577578Y-77373600D01*
X63577582Y-77373598D01*
X63661373Y-77314926D01*
X63661373Y-77314925D01*
X63071568Y-76725121D01*
X63188458Y-76674349D01*
X63305739Y-76578934D01*
X63392928Y-76455415D01*
X63423354Y-76369802D01*
X64014925Y-76961373D01*
X64014926Y-76961373D01*
X64073598Y-76877582D01*
X64073600Y-76877578D01*
X64173429Y-76663492D01*
X64173433Y-76663483D01*
X64234567Y-76435326D01*
X64234569Y-76435315D01*
X64237659Y-76400000D01*
X75244722Y-76400000D01*
X75263762Y-76556818D01*
X75318222Y-76700416D01*
X75319780Y-76704523D01*
X75409517Y-76834530D01*
X75527760Y-76939283D01*
X75527762Y-76939284D01*
X75667634Y-77012696D01*
X75821014Y-77050500D01*
X75821015Y-77050500D01*
X75978985Y-77050500D01*
X76132365Y-77012696D01*
X76203296Y-76975468D01*
X76272240Y-76939283D01*
X76390483Y-76834530D01*
X76394257Y-76829061D01*
X76448537Y-76785071D01*
X76496308Y-76775500D01*
X77448196Y-76775500D01*
X77473641Y-76778139D01*
X77477440Y-76778935D01*
X77484268Y-76780367D01*
X77505225Y-76777754D01*
X77519492Y-76775977D01*
X77527168Y-76775500D01*
X77531112Y-76775500D01*
X77531114Y-76775500D01*
X77531116Y-76775499D01*
X77531122Y-76775499D01*
X77546487Y-76772934D01*
X77554140Y-76771657D01*
X77608626Y-76764866D01*
X77608627Y-76764865D01*
X77608629Y-76764865D01*
X77616141Y-76762628D01*
X77623606Y-76760066D01*
X77623606Y-76760065D01*
X77623610Y-76760065D01*
X77671877Y-76733944D01*
X77721211Y-76709826D01*
X77721213Y-76709823D01*
X77727594Y-76705268D01*
X77733819Y-76700422D01*
X77733826Y-76700419D01*
X77771007Y-76660029D01*
X78528892Y-75902144D01*
X78548741Y-75886025D01*
X78557836Y-75880084D01*
X78579644Y-75852062D01*
X78584721Y-75846316D01*
X78587520Y-75843518D01*
X78601094Y-75824504D01*
X78621642Y-75798105D01*
X78634807Y-75781192D01*
X78638547Y-75774280D01*
X78642006Y-75767203D01*
X78642010Y-75767199D01*
X78649195Y-75743062D01*
X78657671Y-75714595D01*
X78668093Y-75684236D01*
X78708479Y-75627221D01*
X78773279Y-75601091D01*
X78785374Y-75600500D01*
X78824676Y-75600500D01*
X78900808Y-75585356D01*
X78949192Y-75585356D01*
X79049997Y-75605408D01*
X79050000Y-75605408D01*
X79671888Y-75605408D01*
X79671889Y-75605408D01*
X79729645Y-75597103D01*
X79743840Y-75595063D01*
X79743841Y-75595062D01*
X79743845Y-75595062D01*
X79881800Y-75554555D01*
X79947927Y-75524356D01*
X79953573Y-75520728D01*
X79963795Y-75514158D01*
X80068881Y-75446624D01*
X80123824Y-75399016D01*
X80166520Y-75349742D01*
X80217969Y-75290366D01*
X80217971Y-75290363D01*
X80217978Y-75290355D01*
X80257279Y-75229201D01*
X80257282Y-75229193D01*
X80257285Y-75229189D01*
X80317004Y-75098422D01*
X80317007Y-75098416D01*
X80337488Y-75028664D01*
X80337814Y-75026401D01*
X80341525Y-75000583D01*
X80357950Y-74886349D01*
X80357950Y-74813652D01*
X80356670Y-74804748D01*
X80355408Y-74787103D01*
X80355408Y-74412896D01*
X80356670Y-74395250D01*
X80357950Y-74386348D01*
X80357950Y-74313651D01*
X80337488Y-74171336D01*
X80317007Y-74101584D01*
X80317004Y-74101577D01*
X80257285Y-73970810D01*
X80257276Y-73970794D01*
X80246584Y-73954157D01*
X80217978Y-73909645D01*
X80217974Y-73909640D01*
X80217969Y-73909633D01*
X80123822Y-73800981D01*
X80123821Y-73800980D01*
X80068885Y-73753379D01*
X80068882Y-73753377D01*
X80068881Y-73753376D01*
X80033648Y-73730733D01*
X79947932Y-73675646D01*
X79947927Y-73675644D01*
X79947926Y-73675644D01*
X79881800Y-73645445D01*
X79823581Y-73628350D01*
X79764804Y-73590577D01*
X79735779Y-73527021D01*
X79745723Y-73457862D01*
X79756462Y-73438942D01*
X79780220Y-73404523D01*
X79836237Y-73256818D01*
X79855278Y-73100000D01*
X79855204Y-73099386D01*
X79836237Y-72943181D01*
X79814992Y-72887163D01*
X79780220Y-72795477D01*
X79690483Y-72665470D01*
X79572240Y-72560717D01*
X79572238Y-72560716D01*
X79572237Y-72560715D01*
X79432365Y-72487303D01*
X79278986Y-72449500D01*
X79278985Y-72449500D01*
X79121015Y-72449500D01*
X79121014Y-72449500D01*
X78967634Y-72487303D01*
X78827762Y-72560715D01*
X78709516Y-72665471D01*
X78619781Y-72795475D01*
X78619780Y-72795476D01*
X78563762Y-72943181D01*
X78544722Y-73099999D01*
X78544722Y-73100000D01*
X78563762Y-73256818D01*
X78619780Y-73404523D01*
X78620148Y-73405056D01*
X78620297Y-73405507D01*
X78623267Y-73411167D01*
X78622326Y-73411660D01*
X78642034Y-73471409D01*
X78624571Y-73539062D01*
X78573306Y-73586534D01*
X78518101Y-73599500D01*
X77799500Y-73599500D01*
X77732461Y-73579815D01*
X77686706Y-73527011D01*
X77675500Y-73475500D01*
X77675500Y-73192202D01*
X77695185Y-73125163D01*
X77717274Y-73099386D01*
X77755561Y-73065468D01*
X77790483Y-73034530D01*
X77880220Y-72904523D01*
X77936237Y-72756818D01*
X77955278Y-72600000D01*
X77936237Y-72443182D01*
X77880220Y-72295477D01*
X77790483Y-72165470D01*
X77672240Y-72060717D01*
X77672238Y-72060716D01*
X77672237Y-72060715D01*
X77532365Y-71987303D01*
X77378986Y-71949500D01*
X77378985Y-71949500D01*
X77221015Y-71949500D01*
X77221014Y-71949500D01*
X77067634Y-71987303D01*
X76927762Y-72060715D01*
X76809516Y-72165471D01*
X76719781Y-72295475D01*
X76719780Y-72295476D01*
X76663762Y-72443181D01*
X76644722Y-72599999D01*
X76644722Y-72600000D01*
X76663762Y-72756818D01*
X76719780Y-72904523D01*
X76719781Y-72904524D01*
X76809517Y-73034531D01*
X76882726Y-73099386D01*
X76919853Y-73158574D01*
X76924500Y-73192202D01*
X76924500Y-73492044D01*
X76904815Y-73559083D01*
X76852011Y-73604838D01*
X76835436Y-73611021D01*
X76718199Y-73645445D01*
X76652072Y-73675644D01*
X76652067Y-73675646D01*
X76531125Y-73753372D01*
X76531114Y-73753379D01*
X76476178Y-73800980D01*
X76476177Y-73800981D01*
X76382030Y-73909633D01*
X76382019Y-73909649D01*
X76342723Y-73970794D01*
X76342714Y-73970810D01*
X76282995Y-74101577D01*
X76262512Y-74171334D01*
X76262510Y-74171340D01*
X76242050Y-74313651D01*
X76242050Y-74386348D01*
X76243330Y-74395250D01*
X76244592Y-74412896D01*
X76244592Y-74787103D01*
X76243330Y-74804748D01*
X76242050Y-74813648D01*
X76242050Y-74886348D01*
X76262510Y-75028659D01*
X76262512Y-75028665D01*
X76282995Y-75098422D01*
X76342714Y-75229189D01*
X76342723Y-75229205D01*
X76382019Y-75290350D01*
X76382030Y-75290366D01*
X76476177Y-75399018D01*
X76476178Y-75399019D01*
X76531114Y-75446620D01*
X76531119Y-75446624D01*
X76591596Y-75485490D01*
X76652067Y-75524353D01*
X76652070Y-75524354D01*
X76652073Y-75524356D01*
X76718200Y-75554555D01*
X76856155Y-75595062D01*
X76856156Y-75595062D01*
X76856159Y-75595063D01*
X76877613Y-75598147D01*
X76928111Y-75605408D01*
X76928112Y-75605408D01*
X77464192Y-75605408D01*
X77531231Y-75625093D01*
X77576986Y-75677897D01*
X77586930Y-75747055D01*
X77557905Y-75810611D01*
X77551873Y-75817089D01*
X77380781Y-75988181D01*
X77319458Y-76021666D01*
X77293100Y-76024500D01*
X76496308Y-76024500D01*
X76429269Y-76004815D01*
X76394257Y-75970938D01*
X76390483Y-75965470D01*
X76272240Y-75860717D01*
X76272238Y-75860716D01*
X76272237Y-75860715D01*
X76132365Y-75787303D01*
X75978986Y-75749500D01*
X75978985Y-75749500D01*
X75821015Y-75749500D01*
X75821014Y-75749500D01*
X75667634Y-75787303D01*
X75527762Y-75860715D01*
X75409516Y-75965471D01*
X75319781Y-76095475D01*
X75319780Y-76095476D01*
X75263762Y-76243181D01*
X75244722Y-76399999D01*
X75244722Y-76400000D01*
X64237659Y-76400000D01*
X64255157Y-76200001D01*
X64255157Y-76199998D01*
X64234569Y-75964684D01*
X64234567Y-75964673D01*
X64173433Y-75736516D01*
X64173429Y-75736507D01*
X64073600Y-75522423D01*
X64073599Y-75522421D01*
X64014925Y-75438626D01*
X64014925Y-75438625D01*
X63425928Y-76027621D01*
X63423116Y-76014085D01*
X63353558Y-75879844D01*
X63250362Y-75769348D01*
X63121181Y-75690791D01*
X63069996Y-75676449D01*
X63661373Y-75085073D01*
X63661373Y-75085072D01*
X63577583Y-75026402D01*
X63577579Y-75026400D01*
X63363492Y-74926570D01*
X63363483Y-74926566D01*
X63135326Y-74865432D01*
X63135315Y-74865430D01*
X62900002Y-74844843D01*
X62899998Y-74844843D01*
X62664684Y-74865430D01*
X62664673Y-74865432D01*
X62436516Y-74926566D01*
X62436507Y-74926570D01*
X62222419Y-75026401D01*
X62138625Y-75085072D01*
X62138625Y-75085073D01*
X62728430Y-75674879D01*
X62611542Y-75725651D01*
X62494261Y-75821066D01*
X62407072Y-75944585D01*
X62376644Y-76030198D01*
X61785073Y-75438625D01*
X61731881Y-75514594D01*
X61677304Y-75558219D01*
X61607806Y-75565413D01*
X61545451Y-75533891D01*
X61528730Y-75514594D01*
X61398494Y-75328597D01*
X61231402Y-75161506D01*
X61231395Y-75161501D01*
X61037834Y-75025967D01*
X61037830Y-75025965D01*
X60991850Y-75004524D01*
X60823663Y-74926097D01*
X60823659Y-74926096D01*
X60823655Y-74926094D01*
X60595413Y-74864938D01*
X60595403Y-74864936D01*
X60360001Y-74844341D01*
X60359999Y-74844341D01*
X60124596Y-74864936D01*
X60124586Y-74864938D01*
X59896344Y-74926094D01*
X59896335Y-74926098D01*
X59682171Y-75025964D01*
X59682169Y-75025965D01*
X59488597Y-75161505D01*
X59321508Y-75328594D01*
X59191574Y-75514160D01*
X59136997Y-75557784D01*
X59067498Y-75564977D01*
X59005144Y-75533455D01*
X58988429Y-75514164D01*
X58858495Y-75328599D01*
X58858493Y-75328596D01*
X58691402Y-75161506D01*
X58691395Y-75161501D01*
X58497834Y-75025967D01*
X58497830Y-75025965D01*
X58451850Y-75004524D01*
X58283663Y-74926097D01*
X58283659Y-74926096D01*
X58283655Y-74926094D01*
X58055413Y-74864938D01*
X58055403Y-74864936D01*
X57820001Y-74844341D01*
X57819999Y-74844341D01*
X57584596Y-74864936D01*
X57584586Y-74864938D01*
X57356344Y-74926094D01*
X57356335Y-74926098D01*
X57142171Y-75025964D01*
X57142169Y-75025965D01*
X56948597Y-75161505D01*
X56781505Y-75328597D01*
X56651575Y-75514158D01*
X56596998Y-75557783D01*
X56527500Y-75564977D01*
X56465145Y-75533454D01*
X56448425Y-75514158D01*
X56318494Y-75328597D01*
X56151402Y-75161506D01*
X56151395Y-75161501D01*
X55957834Y-75025967D01*
X55957830Y-75025965D01*
X55911850Y-75004524D01*
X55743663Y-74926097D01*
X55743659Y-74926096D01*
X55743655Y-74926094D01*
X55515413Y-74864938D01*
X55515403Y-74864936D01*
X55280001Y-74844341D01*
X55279999Y-74844341D01*
X55044596Y-74864936D01*
X55044586Y-74864938D01*
X54816344Y-74926094D01*
X54816335Y-74926098D01*
X54602171Y-75025964D01*
X54602169Y-75025965D01*
X54408597Y-75161505D01*
X54241508Y-75328594D01*
X54111574Y-75514160D01*
X54056997Y-75557784D01*
X53987498Y-75564977D01*
X53925144Y-75533455D01*
X53908429Y-75514164D01*
X53778495Y-75328599D01*
X53778493Y-75328596D01*
X53611402Y-75161506D01*
X53611395Y-75161501D01*
X53417834Y-75025967D01*
X53417830Y-75025965D01*
X53371850Y-75004524D01*
X53203663Y-74926097D01*
X53203659Y-74926096D01*
X53203655Y-74926094D01*
X52975413Y-74864938D01*
X52975403Y-74864936D01*
X52740001Y-74844341D01*
X52739999Y-74844341D01*
X52504596Y-74864936D01*
X52504586Y-74864938D01*
X52276344Y-74926094D01*
X52276335Y-74926098D01*
X52062171Y-75025964D01*
X52062169Y-75025965D01*
X51868600Y-75161503D01*
X51761681Y-75268422D01*
X51700358Y-75301906D01*
X51630666Y-75296922D01*
X51574733Y-75255050D01*
X51550316Y-75189586D01*
X51550000Y-75180740D01*
X51550000Y-75075373D01*
X51549999Y-75075371D01*
X51535496Y-75002459D01*
X51535494Y-75002455D01*
X51480239Y-74919760D01*
X51397544Y-74864505D01*
X51397540Y-74864503D01*
X51324627Y-74850000D01*
X50450000Y-74850000D01*
X50450000Y-75708316D01*
X50421181Y-75690791D01*
X50275596Y-75650000D01*
X50162378Y-75650000D01*
X50050217Y-75665416D01*
X49950000Y-75708946D01*
X49950000Y-74850000D01*
X49075373Y-74850000D01*
X49002459Y-74864503D01*
X49002455Y-74864505D01*
X48919760Y-74919760D01*
X48864505Y-75002455D01*
X48864503Y-75002459D01*
X48850000Y-75075371D01*
X48850000Y-75950000D01*
X49705148Y-75950000D01*
X49656441Y-76087047D01*
X49646123Y-76237886D01*
X49676884Y-76385915D01*
X49710090Y-76450000D01*
X48850000Y-76450000D01*
X48850000Y-77324628D01*
X46674057Y-77324628D01*
X46680099Y-77305310D01*
X46749389Y-76950586D01*
X46750326Y-76939284D01*
X46763493Y-76780367D01*
X46779235Y-76590391D01*
X46769276Y-76229100D01*
X46719633Y-75871097D01*
X46630907Y-75520728D01*
X46628610Y-75514594D01*
X46504180Y-75182253D01*
X46504178Y-75182250D01*
X46504177Y-75182246D01*
X46340980Y-74859760D01*
X46143297Y-74557184D01*
X45913528Y-74278191D01*
X45900449Y-74265468D01*
X45654460Y-74026165D01*
X45369246Y-73804173D01*
X45369244Y-73804172D01*
X45061333Y-73614901D01*
X45061329Y-73614899D01*
X44734489Y-73460660D01*
X44734485Y-73460658D01*
X44734476Y-73460654D01*
X44734470Y-73460652D01*
X44734468Y-73460651D01*
X44392638Y-73343300D01*
X44392633Y-73343299D01*
X44392630Y-73343298D01*
X44039949Y-73264260D01*
X44039945Y-73264259D01*
X44039943Y-73264259D01*
X43680714Y-73224500D01*
X43409717Y-73224500D01*
X43409714Y-73224500D01*
X43139120Y-73239429D01*
X42782619Y-73298919D01*
X42782615Y-73298920D01*
X42434831Y-73397264D01*
X42434818Y-73397268D01*
X42099968Y-73533273D01*
X42099962Y-73533276D01*
X41782108Y-73705290D01*
X41782107Y-73705291D01*
X41485081Y-73911244D01*
X41212530Y-74148609D01*
X40967740Y-74414522D01*
X40753691Y-74705747D01*
X40753690Y-74705748D01*
X40572977Y-75018752D01*
X40427792Y-75349741D01*
X40427791Y-75349742D01*
X40319898Y-75694694D01*
X40319705Y-75695460D01*
X40319608Y-75695623D01*
X40318880Y-75697952D01*
X40318333Y-75697781D01*
X40284165Y-75755616D01*
X40221745Y-75787007D01*
X40152261Y-75779669D01*
X40097776Y-75735929D01*
X40075587Y-75669676D01*
X40075500Y-75665019D01*
X40075500Y-69550004D01*
X64394592Y-69550004D01*
X64414643Y-69650808D01*
X64414644Y-69699189D01*
X64399500Y-69775326D01*
X64399500Y-70824678D01*
X64414032Y-70897735D01*
X64414033Y-70897739D01*
X64414034Y-70897740D01*
X64469399Y-70980601D01*
X64552259Y-71035966D01*
X64552260Y-71035966D01*
X64552264Y-71035967D01*
X64625321Y-71050499D01*
X64625324Y-71050500D01*
X66100500Y-71050500D01*
X66167539Y-71070185D01*
X66213294Y-71122989D01*
X66224500Y-71174500D01*
X66224500Y-74107796D01*
X66204815Y-74174835D01*
X66182727Y-74200611D01*
X66109518Y-74265468D01*
X66019781Y-74395475D01*
X66019780Y-74395476D01*
X65963762Y-74543181D01*
X65944722Y-74699999D01*
X65944722Y-74700000D01*
X65963762Y-74856818D01*
X65990216Y-74926570D01*
X66019780Y-75004523D01*
X66109517Y-75134530D01*
X66227760Y-75239283D01*
X66227762Y-75239284D01*
X66367634Y-75312696D01*
X66521014Y-75350500D01*
X66521015Y-75350500D01*
X66678985Y-75350500D01*
X66832365Y-75312696D01*
X66862419Y-75296922D01*
X66972240Y-75239283D01*
X67090483Y-75134530D01*
X67180220Y-75004523D01*
X67236237Y-74856818D01*
X67255278Y-74700000D01*
X67236237Y-74543182D01*
X67180220Y-74395477D01*
X67090483Y-74265470D01*
X67090481Y-74265468D01*
X67017273Y-74200611D01*
X66980146Y-74141422D01*
X66975500Y-74107796D01*
X66975500Y-72146058D01*
X66995185Y-72079019D01*
X67047989Y-72033264D01*
X67117147Y-72023320D01*
X67180703Y-72052345D01*
X67193216Y-72064859D01*
X67200982Y-72073823D01*
X67309633Y-72167969D01*
X67309640Y-72167974D01*
X67309645Y-72167978D01*
X67354157Y-72196584D01*
X67370794Y-72207276D01*
X67370810Y-72207285D01*
X67465439Y-72250500D01*
X67501584Y-72267007D01*
X67535434Y-72276946D01*
X67594213Y-72314720D01*
X67623238Y-72378275D01*
X67624500Y-72395923D01*
X67624500Y-72907796D01*
X67604815Y-72974835D01*
X67582727Y-73000611D01*
X67509518Y-73065468D01*
X67419781Y-73195475D01*
X67419780Y-73195476D01*
X67363762Y-73343181D01*
X67344722Y-73499999D01*
X67344722Y-73500000D01*
X67363762Y-73656818D01*
X67418436Y-73800980D01*
X67419780Y-73804523D01*
X67509517Y-73934530D01*
X67627760Y-74039283D01*
X67627762Y-74039284D01*
X67767634Y-74112696D01*
X67921014Y-74150500D01*
X67921015Y-74150500D01*
X68078985Y-74150500D01*
X68232365Y-74112696D01*
X68253550Y-74101577D01*
X68372240Y-74039283D01*
X68490483Y-73934530D01*
X68580220Y-73804523D01*
X68636237Y-73656818D01*
X68655278Y-73500000D01*
X68651807Y-73471409D01*
X68636237Y-73343181D01*
X68606306Y-73264260D01*
X68580220Y-73195477D01*
X68490483Y-73065470D01*
X68490481Y-73065468D01*
X68417273Y-73000611D01*
X68380146Y-72941422D01*
X68375500Y-72907796D01*
X68375500Y-72395923D01*
X68395185Y-72328884D01*
X68447989Y-72283129D01*
X68464562Y-72276947D01*
X68498416Y-72267007D01*
X68617340Y-72212696D01*
X68629189Y-72207285D01*
X68629193Y-72207282D01*
X68629201Y-72207279D01*
X68690355Y-72167978D01*
X68690363Y-72167971D01*
X68690366Y-72167969D01*
X68762682Y-72105306D01*
X68799016Y-72073824D01*
X68846624Y-72018881D01*
X68914668Y-71913000D01*
X68924353Y-71897932D01*
X68924353Y-71897931D01*
X68924356Y-71897927D01*
X68954555Y-71831800D01*
X68995062Y-71693845D01*
X69005408Y-71621889D01*
X69005408Y-71050000D01*
X69005408Y-71049997D01*
X69005407Y-71049995D01*
X68985967Y-70952264D01*
X68985966Y-70952263D01*
X68985966Y-70952260D01*
X68985964Y-70952257D01*
X68983976Y-70947457D01*
X68976504Y-70877988D01*
X68983978Y-70852536D01*
X68985962Y-70847745D01*
X68985966Y-70847740D01*
X68990554Y-70824678D01*
X69005407Y-70750004D01*
X69005408Y-70750002D01*
X69005408Y-70178112D01*
X69005408Y-70178111D01*
X68995062Y-70106158D01*
X68995060Y-70106149D01*
X68984772Y-70071111D01*
X68954555Y-69968200D01*
X68924356Y-69902073D01*
X68924354Y-69902070D01*
X68924353Y-69902067D01*
X68885490Y-69841596D01*
X68846624Y-69781119D01*
X68846620Y-69781114D01*
X68799019Y-69726178D01*
X68799018Y-69726177D01*
X68690366Y-69632030D01*
X68690357Y-69632024D01*
X68690355Y-69632022D01*
X68673713Y-69621327D01*
X68629205Y-69592723D01*
X68629200Y-69592720D01*
X68598839Y-69578855D01*
X68575297Y-69568104D01*
X68522495Y-69522350D01*
X68502810Y-69455310D01*
X68522494Y-69388271D01*
X68524740Y-69384898D01*
X68580220Y-69304523D01*
X68636237Y-69156818D01*
X68655278Y-69000000D01*
X68637812Y-68856149D01*
X68636237Y-68843181D01*
X68614992Y-68787164D01*
X68580220Y-68695477D01*
X68490483Y-68565470D01*
X68372240Y-68460717D01*
X68372238Y-68460716D01*
X68372237Y-68460715D01*
X68232365Y-68387303D01*
X68078986Y-68349500D01*
X68078985Y-68349500D01*
X67921015Y-68349500D01*
X67921014Y-68349500D01*
X67767634Y-68387303D01*
X67627762Y-68460715D01*
X67509516Y-68565471D01*
X67419781Y-68695475D01*
X67419780Y-68695476D01*
X67363762Y-68843181D01*
X67344722Y-68999999D01*
X67344722Y-69000000D01*
X67363762Y-69156818D01*
X67419780Y-69304523D01*
X67429662Y-69318840D01*
X67475239Y-69384870D01*
X67497122Y-69451225D01*
X67479656Y-69518876D01*
X67428388Y-69566346D01*
X67424701Y-69568104D01*
X67370805Y-69592717D01*
X67370794Y-69592723D01*
X67309649Y-69632019D01*
X67309633Y-69632030D01*
X67200981Y-69726177D01*
X67200980Y-69726178D01*
X67153379Y-69781114D01*
X67153372Y-69781125D01*
X67075646Y-69902067D01*
X67075644Y-69902072D01*
X67045445Y-69968200D01*
X67004939Y-70106149D01*
X67004937Y-70106158D01*
X66993964Y-70182475D01*
X66964938Y-70246030D01*
X66906160Y-70283804D01*
X66836290Y-70283804D01*
X66783545Y-70252508D01*
X66713512Y-70182475D01*
X66602149Y-70071111D01*
X66586022Y-70051252D01*
X66580086Y-70042167D01*
X66580083Y-70042163D01*
X66552074Y-70020363D01*
X66546310Y-70015272D01*
X66543515Y-70012477D01*
X66524505Y-69998906D01*
X66481189Y-69965190D01*
X66474274Y-69961448D01*
X66470024Y-69959370D01*
X66466285Y-69955953D01*
X66459323Y-69952364D01*
X66459196Y-69952274D01*
X66460400Y-69950574D01*
X66418448Y-69912234D01*
X66400500Y-69847977D01*
X66400500Y-69775323D01*
X66385356Y-69699191D01*
X66385356Y-69650807D01*
X66405408Y-69550002D01*
X66405408Y-68928112D01*
X66405408Y-68928111D01*
X66395062Y-68856155D01*
X66354555Y-68718200D01*
X66324356Y-68652073D01*
X66324354Y-68652070D01*
X66324353Y-68652067D01*
X66285490Y-68591596D01*
X66246624Y-68531119D01*
X66205785Y-68483988D01*
X66176762Y-68420434D01*
X66175500Y-68402788D01*
X66175500Y-68368886D01*
X66175499Y-66992203D01*
X66195184Y-66925164D01*
X66217273Y-66899387D01*
X66290482Y-66834531D01*
X66290483Y-66834530D01*
X66380220Y-66704523D01*
X66436237Y-66556818D01*
X66455278Y-66400000D01*
X66436237Y-66243182D01*
X66380220Y-66095477D01*
X66290483Y-65965470D01*
X66172240Y-65860717D01*
X66172238Y-65860716D01*
X66172237Y-65860715D01*
X66032365Y-65787303D01*
X65878986Y-65749500D01*
X65878985Y-65749500D01*
X65721015Y-65749500D01*
X65721014Y-65749500D01*
X65567634Y-65787303D01*
X65427762Y-65860715D01*
X65309516Y-65965471D01*
X65219781Y-66095475D01*
X65219780Y-66095476D01*
X65163762Y-66243181D01*
X65144722Y-66399999D01*
X65144722Y-66400000D01*
X65163762Y-66556818D01*
X65219780Y-66704523D01*
X65219781Y-66704524D01*
X65309517Y-66834531D01*
X65382726Y-66899386D01*
X65419853Y-66958574D01*
X65424500Y-66992202D01*
X65424500Y-68120592D01*
X65404815Y-68187631D01*
X65352011Y-68233386D01*
X65300500Y-68244592D01*
X65212897Y-68244592D01*
X65195252Y-68243330D01*
X65186351Y-68242050D01*
X65186348Y-68242050D01*
X65113651Y-68242050D01*
X64971340Y-68262510D01*
X64971334Y-68262512D01*
X64901577Y-68282995D01*
X64770810Y-68342714D01*
X64770794Y-68342723D01*
X64709649Y-68382019D01*
X64709633Y-68382030D01*
X64600981Y-68476177D01*
X64600980Y-68476178D01*
X64553379Y-68531114D01*
X64553372Y-68531125D01*
X64475646Y-68652067D01*
X64475644Y-68652072D01*
X64445445Y-68718200D01*
X64404939Y-68856149D01*
X64404936Y-68856159D01*
X64394592Y-68928111D01*
X64394592Y-69550004D01*
X40075500Y-69550004D01*
X40075500Y-61970003D01*
X40654435Y-61970003D01*
X40674630Y-62149249D01*
X40674631Y-62149254D01*
X40734211Y-62319523D01*
X40805931Y-62433664D01*
X40830184Y-62472262D01*
X40957738Y-62599816D01*
X41110478Y-62695789D01*
X41266833Y-62750500D01*
X41280745Y-62755368D01*
X41280750Y-62755369D01*
X41371246Y-62765565D01*
X41415040Y-62770499D01*
X41415043Y-62770500D01*
X41415046Y-62770500D01*
X41504957Y-62770500D01*
X41504958Y-62770499D01*
X41572104Y-62762933D01*
X41639249Y-62755369D01*
X41639252Y-62755368D01*
X41639255Y-62755368D01*
X41809522Y-62695789D01*
X41962262Y-62599816D01*
X42089816Y-62472262D01*
X42185789Y-62319522D01*
X42245368Y-62149255D01*
X42245369Y-62149249D01*
X42265565Y-61970003D01*
X42265565Y-61970000D01*
X42644341Y-61970000D01*
X42664936Y-62205403D01*
X42664938Y-62205413D01*
X42726094Y-62433655D01*
X42726096Y-62433659D01*
X42726097Y-62433663D01*
X42773132Y-62534530D01*
X42825965Y-62647830D01*
X42825967Y-62647834D01*
X42934281Y-62802521D01*
X42961505Y-62841401D01*
X43128599Y-63008495D01*
X43225384Y-63076264D01*
X43322165Y-63144032D01*
X43322167Y-63144033D01*
X43322170Y-63144035D01*
X43536337Y-63243903D01*
X43764592Y-63305063D01*
X43952918Y-63321539D01*
X43999999Y-63325659D01*
X44000000Y-63325659D01*
X44000001Y-63325659D01*
X44039234Y-63322226D01*
X44235408Y-63305063D01*
X44463663Y-63243903D01*
X44677830Y-63144035D01*
X44871401Y-63008495D01*
X45038495Y-62841401D01*
X45174035Y-62647830D01*
X45273903Y-62433663D01*
X45335063Y-62205408D01*
X45355659Y-61970000D01*
X45354876Y-61961056D01*
X45340390Y-61795476D01*
X45335063Y-61734592D01*
X45273903Y-61506337D01*
X45174035Y-61292171D01*
X45140453Y-61244211D01*
X45038496Y-61098600D01*
X45011785Y-61071889D01*
X44931575Y-60991679D01*
X44898092Y-60930359D01*
X44903076Y-60860667D01*
X44944947Y-60804733D01*
X45010411Y-60780316D01*
X45019258Y-60780000D01*
X45124626Y-60780000D01*
X45124628Y-60779999D01*
X45197540Y-60765496D01*
X45197544Y-60765494D01*
X45280239Y-60710239D01*
X45335494Y-60627544D01*
X45335496Y-60627540D01*
X45349999Y-60554628D01*
X45350000Y-60554626D01*
X45350000Y-59680000D01*
X44494852Y-59680000D01*
X44543559Y-59542953D01*
X44553877Y-59392114D01*
X44523116Y-59244085D01*
X44489910Y-59180000D01*
X45350000Y-59180000D01*
X45350000Y-58305373D01*
X45349999Y-58305371D01*
X45335496Y-58232459D01*
X45335494Y-58232455D01*
X45280239Y-58149760D01*
X45197544Y-58094505D01*
X45197540Y-58094503D01*
X45124627Y-58080000D01*
X44250000Y-58080000D01*
X44250000Y-58938316D01*
X44221181Y-58920791D01*
X44075596Y-58880000D01*
X43962378Y-58880000D01*
X43850217Y-58895416D01*
X43750000Y-58938946D01*
X43750000Y-58080000D01*
X42875373Y-58080000D01*
X42802459Y-58094503D01*
X42802455Y-58094505D01*
X42719760Y-58149760D01*
X42664505Y-58232455D01*
X42664503Y-58232459D01*
X42650000Y-58305371D01*
X42650000Y-59180000D01*
X43505148Y-59180000D01*
X43456441Y-59317047D01*
X43446123Y-59467886D01*
X43476884Y-59615915D01*
X43510090Y-59680000D01*
X42650000Y-59680000D01*
X42650000Y-60554628D01*
X42664503Y-60627540D01*
X42664505Y-60627544D01*
X42719760Y-60710239D01*
X42802455Y-60765494D01*
X42802459Y-60765496D01*
X42875371Y-60779999D01*
X42875374Y-60780000D01*
X42980741Y-60780000D01*
X43047780Y-60799685D01*
X43093535Y-60852489D01*
X43103479Y-60921647D01*
X43074454Y-60985203D01*
X43068422Y-60991681D01*
X42961505Y-61098597D01*
X42825965Y-61292169D01*
X42825964Y-61292171D01*
X42726098Y-61506335D01*
X42726094Y-61506344D01*
X42664938Y-61734586D01*
X42664936Y-61734596D01*
X42644341Y-61969999D01*
X42644341Y-61970000D01*
X42265565Y-61970000D01*
X42265565Y-61969996D01*
X42245369Y-61790750D01*
X42245368Y-61790745D01*
X42239747Y-61774682D01*
X42185789Y-61620478D01*
X42089816Y-61467738D01*
X41962262Y-61340184D01*
X41885847Y-61292169D01*
X41809523Y-61244211D01*
X41639254Y-61184631D01*
X41639249Y-61184630D01*
X41504960Y-61169500D01*
X41504954Y-61169500D01*
X41415046Y-61169500D01*
X41415039Y-61169500D01*
X41280750Y-61184630D01*
X41280745Y-61184631D01*
X41110476Y-61244211D01*
X40957737Y-61340184D01*
X40830184Y-61467737D01*
X40734211Y-61620476D01*
X40674631Y-61790745D01*
X40674630Y-61790750D01*
X40654435Y-61969996D01*
X40654435Y-61970003D01*
X40075500Y-61970003D01*
X40075500Y-59430003D01*
X40654435Y-59430003D01*
X40674630Y-59609249D01*
X40674631Y-59609254D01*
X40734211Y-59779523D01*
X40827578Y-59928114D01*
X40830184Y-59932262D01*
X40957738Y-60059816D01*
X41110478Y-60155789D01*
X41280744Y-60215368D01*
X41280745Y-60215368D01*
X41280750Y-60215369D01*
X41371246Y-60225565D01*
X41415040Y-60230499D01*
X41415043Y-60230500D01*
X41415046Y-60230500D01*
X41504957Y-60230500D01*
X41504958Y-60230499D01*
X41572104Y-60222933D01*
X41639249Y-60215369D01*
X41639252Y-60215368D01*
X41639255Y-60215368D01*
X41809522Y-60155789D01*
X41962262Y-60059816D01*
X42089816Y-59932262D01*
X42185789Y-59779522D01*
X42245368Y-59609255D01*
X42245369Y-59609249D01*
X42265565Y-59430003D01*
X42265565Y-59429996D01*
X42245369Y-59250750D01*
X42245368Y-59250745D01*
X42210291Y-59150500D01*
X42185789Y-59080478D01*
X42159904Y-59039283D01*
X42107355Y-58955651D01*
X42089816Y-58927738D01*
X41962262Y-58800184D01*
X41962262Y-58800183D01*
X41809523Y-58704211D01*
X41639254Y-58644631D01*
X41639249Y-58644630D01*
X41504960Y-58629500D01*
X41504954Y-58629500D01*
X41415046Y-58629500D01*
X41415039Y-58629500D01*
X41280750Y-58644630D01*
X41280745Y-58644631D01*
X41110476Y-58704211D01*
X40957737Y-58800184D01*
X40830184Y-58927737D01*
X40734211Y-59080476D01*
X40674631Y-59250745D01*
X40674630Y-59250750D01*
X40654435Y-59429996D01*
X40654435Y-59430003D01*
X40075500Y-59430003D01*
X40075500Y-54314688D01*
X40095185Y-54247649D01*
X40147989Y-54201894D01*
X40217147Y-54191950D01*
X40280703Y-54220975D01*
X40318477Y-54279753D01*
X40319706Y-54284248D01*
X40369093Y-54479273D01*
X40369093Y-54479275D01*
X40495819Y-54817746D01*
X40495822Y-54817753D01*
X40495823Y-54817754D01*
X40659020Y-55140240D01*
X40856703Y-55442816D01*
X41022948Y-55644676D01*
X41086473Y-55721810D01*
X41086478Y-55721815D01*
X41345539Y-55973834D01*
X41630753Y-56195826D01*
X41630755Y-56195827D01*
X41938664Y-56385097D01*
X42265524Y-56539346D01*
X42607370Y-56656702D01*
X42960051Y-56735740D01*
X43319286Y-56775500D01*
X43590286Y-56775500D01*
X43626975Y-56773475D01*
X43860880Y-56760571D01*
X44217379Y-56701081D01*
X44565170Y-56602735D01*
X44565176Y-56602732D01*
X44565181Y-56602731D01*
X44744414Y-56529932D01*
X44900032Y-56466726D01*
X45217899Y-56294705D01*
X45514913Y-56088760D01*
X45787469Y-55851391D01*
X45977762Y-55644678D01*
X47269500Y-55644678D01*
X47284032Y-55717735D01*
X47284033Y-55717739D01*
X47300311Y-55742101D01*
X47339399Y-55800601D01*
X47415413Y-55851391D01*
X47422260Y-55855966D01*
X47422264Y-55855967D01*
X47495321Y-55870499D01*
X47495324Y-55870500D01*
X47495326Y-55870500D01*
X49244676Y-55870500D01*
X49244677Y-55870499D01*
X49317740Y-55855966D01*
X49400601Y-55800601D01*
X49455966Y-55717740D01*
X49470500Y-55644674D01*
X49470500Y-54770000D01*
X49804785Y-54770000D01*
X49823602Y-54973082D01*
X49879417Y-55169247D01*
X49879422Y-55169260D01*
X49970327Y-55351821D01*
X50093237Y-55514581D01*
X50243958Y-55651980D01*
X50243960Y-55651982D01*
X50331710Y-55706314D01*
X50417363Y-55759348D01*
X50607544Y-55833024D01*
X50808024Y-55870500D01*
X50808026Y-55870500D01*
X51011974Y-55870500D01*
X51011976Y-55870500D01*
X51212456Y-55833024D01*
X51402637Y-55759348D01*
X51576041Y-55651981D01*
X51726764Y-55514579D01*
X51849673Y-55351821D01*
X51940582Y-55169250D01*
X51996397Y-54973083D01*
X52015215Y-54770000D01*
X52344785Y-54770000D01*
X52363602Y-54973082D01*
X52419417Y-55169247D01*
X52419422Y-55169260D01*
X52510327Y-55351821D01*
X52633237Y-55514581D01*
X52783958Y-55651980D01*
X52783960Y-55651982D01*
X52871710Y-55706314D01*
X52957363Y-55759348D01*
X53147544Y-55833024D01*
X53348024Y-55870500D01*
X53348026Y-55870500D01*
X53551974Y-55870500D01*
X53551976Y-55870500D01*
X53752456Y-55833024D01*
X53942637Y-55759348D01*
X54116041Y-55651981D01*
X54266764Y-55514579D01*
X54389673Y-55351821D01*
X54480582Y-55169250D01*
X54536397Y-54973083D01*
X54555215Y-54770000D01*
X54884785Y-54770000D01*
X54903602Y-54973082D01*
X54959417Y-55169247D01*
X54959422Y-55169260D01*
X55050327Y-55351821D01*
X55173237Y-55514581D01*
X55323958Y-55651980D01*
X55323960Y-55651982D01*
X55411710Y-55706314D01*
X55497363Y-55759348D01*
X55687544Y-55833024D01*
X55888024Y-55870500D01*
X55888026Y-55870500D01*
X56091974Y-55870500D01*
X56091976Y-55870500D01*
X56292456Y-55833024D01*
X56482637Y-55759348D01*
X56656041Y-55651981D01*
X56806764Y-55514579D01*
X56929673Y-55351821D01*
X57020582Y-55169250D01*
X57076397Y-54973083D01*
X57095215Y-54770000D01*
X57076397Y-54566917D01*
X57063048Y-54519999D01*
X57457471Y-54519999D01*
X57457472Y-54520000D01*
X58096314Y-54520000D01*
X58070507Y-54560156D01*
X58030000Y-54698111D01*
X58030000Y-54841889D01*
X58070507Y-54979844D01*
X58096314Y-55020000D01*
X57457472Y-55020000D01*
X57499885Y-55169065D01*
X57499890Y-55169078D01*
X57590754Y-55351556D01*
X57713608Y-55514242D01*
X57864260Y-55651578D01*
X58037584Y-55758897D01*
X58227678Y-55832539D01*
X58280000Y-55842320D01*
X58280000Y-55205501D01*
X58387685Y-55254680D01*
X58494237Y-55270000D01*
X58565763Y-55270000D01*
X58672315Y-55254680D01*
X58779999Y-55205501D01*
X58780000Y-55842320D01*
X58832321Y-55832539D01*
X59022415Y-55758897D01*
X59195739Y-55651578D01*
X59346391Y-55514242D01*
X59469245Y-55351556D01*
X59560109Y-55169078D01*
X59560114Y-55169065D01*
X59602528Y-55020000D01*
X58963686Y-55020000D01*
X58989493Y-54979844D01*
X59030000Y-54841889D01*
X59030000Y-54770000D01*
X59964785Y-54770000D01*
X59983602Y-54973082D01*
X60039417Y-55169247D01*
X60039422Y-55169260D01*
X60130327Y-55351821D01*
X60253237Y-55514581D01*
X60403958Y-55651980D01*
X60403960Y-55651982D01*
X60491710Y-55706314D01*
X60577363Y-55759348D01*
X60767544Y-55833024D01*
X60968024Y-55870500D01*
X60968026Y-55870500D01*
X61171974Y-55870500D01*
X61171976Y-55870500D01*
X61372456Y-55833024D01*
X61562637Y-55759348D01*
X61736041Y-55651981D01*
X61886764Y-55514579D01*
X62009673Y-55351821D01*
X62100582Y-55169250D01*
X62156397Y-54973083D01*
X62175215Y-54770000D01*
X62504785Y-54770000D01*
X62523602Y-54973082D01*
X62579417Y-55169247D01*
X62579422Y-55169260D01*
X62670327Y-55351821D01*
X62793237Y-55514581D01*
X62943958Y-55651980D01*
X62943960Y-55651982D01*
X63031710Y-55706314D01*
X63117363Y-55759348D01*
X63307544Y-55833024D01*
X63508024Y-55870500D01*
X63508026Y-55870500D01*
X63711974Y-55870500D01*
X63711976Y-55870500D01*
X63912456Y-55833024D01*
X64102637Y-55759348D01*
X64276041Y-55651981D01*
X64426764Y-55514579D01*
X64549673Y-55351821D01*
X64640582Y-55169250D01*
X64696397Y-54973083D01*
X64715215Y-54770000D01*
X65044785Y-54770000D01*
X65063602Y-54973082D01*
X65119417Y-55169247D01*
X65119422Y-55169260D01*
X65210327Y-55351821D01*
X65333237Y-55514581D01*
X65483958Y-55651980D01*
X65483960Y-55651982D01*
X65571710Y-55706314D01*
X65657363Y-55759348D01*
X65847544Y-55833024D01*
X66048024Y-55870500D01*
X66048026Y-55870500D01*
X66251974Y-55870500D01*
X66251976Y-55870500D01*
X66452456Y-55833024D01*
X66642637Y-55759348D01*
X66816041Y-55651981D01*
X66966764Y-55514579D01*
X67089673Y-55351821D01*
X67180582Y-55169250D01*
X67236397Y-54973083D01*
X67255215Y-54770000D01*
X67584785Y-54770000D01*
X67603602Y-54973082D01*
X67659417Y-55169247D01*
X67659422Y-55169260D01*
X67750327Y-55351821D01*
X67873237Y-55514581D01*
X68023958Y-55651980D01*
X68023960Y-55651982D01*
X68111710Y-55706314D01*
X68197363Y-55759348D01*
X68387544Y-55833024D01*
X68588024Y-55870500D01*
X68588026Y-55870500D01*
X68791974Y-55870500D01*
X68791976Y-55870500D01*
X68992456Y-55833024D01*
X69182637Y-55759348D01*
X69356041Y-55651981D01*
X69506764Y-55514579D01*
X69629673Y-55351821D01*
X69720582Y-55169250D01*
X69776397Y-54973083D01*
X69795215Y-54770000D01*
X70124785Y-54770000D01*
X70143602Y-54973082D01*
X70199417Y-55169247D01*
X70199422Y-55169260D01*
X70290327Y-55351821D01*
X70413237Y-55514581D01*
X70563958Y-55651980D01*
X70563960Y-55651982D01*
X70651710Y-55706314D01*
X70737363Y-55759348D01*
X70927544Y-55833024D01*
X71128024Y-55870500D01*
X71128026Y-55870500D01*
X71331974Y-55870500D01*
X71331976Y-55870500D01*
X71532456Y-55833024D01*
X71622556Y-55798118D01*
X71692174Y-55792256D01*
X71753914Y-55824965D01*
X71755027Y-55826064D01*
X74657849Y-58728886D01*
X74673978Y-58748747D01*
X74679916Y-58757836D01*
X74707929Y-58779639D01*
X74713691Y-58784728D01*
X74716483Y-58787520D01*
X74735486Y-58801088D01*
X74778811Y-58834809D01*
X74778813Y-58834809D01*
X74785735Y-58838555D01*
X74792798Y-58842008D01*
X74792801Y-58842010D01*
X74845412Y-58857673D01*
X74871376Y-58866586D01*
X74897339Y-58875500D01*
X74905101Y-58876795D01*
X74912911Y-58877768D01*
X74912912Y-58877769D01*
X74912912Y-58877768D01*
X74912913Y-58877769D01*
X74940340Y-58876634D01*
X74967769Y-58875500D01*
X75403692Y-58875500D01*
X75470731Y-58895185D01*
X75505742Y-58929061D01*
X75508163Y-58932569D01*
X75509515Y-58934528D01*
X75509517Y-58934530D01*
X75627760Y-59039283D01*
X75627762Y-59039284D01*
X75767634Y-59112696D01*
X75921014Y-59150500D01*
X75921015Y-59150500D01*
X76078985Y-59150500D01*
X76232365Y-59112696D01*
X76293754Y-59080476D01*
X76372240Y-59039283D01*
X76490483Y-58934530D01*
X76580220Y-58804523D01*
X76636237Y-58656818D01*
X76655278Y-58500000D01*
X76640437Y-58377768D01*
X76636237Y-58343181D01*
X76612138Y-58279638D01*
X76580220Y-58195477D01*
X76490483Y-58065470D01*
X76372240Y-57960717D01*
X76372238Y-57960716D01*
X76372237Y-57960715D01*
X76232365Y-57887303D01*
X76078986Y-57849500D01*
X76078985Y-57849500D01*
X75921015Y-57849500D01*
X75921014Y-57849500D01*
X75767634Y-57887303D01*
X75627762Y-57960715D01*
X75509516Y-58065470D01*
X75507089Y-58068987D01*
X75505742Y-58070938D01*
X75451463Y-58114929D01*
X75403692Y-58124500D01*
X75166899Y-58124500D01*
X75099860Y-58104815D01*
X75079218Y-58088181D01*
X72289710Y-55298672D01*
X72256225Y-55237349D01*
X72260667Y-55175234D01*
X72259013Y-55174764D01*
X72268837Y-55140237D01*
X72316397Y-54973083D01*
X72335215Y-54770000D01*
X72664785Y-54770000D01*
X72683602Y-54973082D01*
X72739417Y-55169247D01*
X72739422Y-55169260D01*
X72830327Y-55351821D01*
X72953237Y-55514581D01*
X73103958Y-55651980D01*
X73103960Y-55651982D01*
X73191710Y-55706314D01*
X73277363Y-55759348D01*
X73467544Y-55833024D01*
X73668024Y-55870500D01*
X73668026Y-55870500D01*
X73871974Y-55870500D01*
X73871976Y-55870500D01*
X74072456Y-55833024D01*
X74262637Y-55759348D01*
X74436041Y-55651981D01*
X74586764Y-55514579D01*
X74709673Y-55351821D01*
X74800582Y-55169250D01*
X74856397Y-54973083D01*
X74875215Y-54770000D01*
X75204785Y-54770000D01*
X75223602Y-54973082D01*
X75279417Y-55169247D01*
X75279422Y-55169260D01*
X75370327Y-55351821D01*
X75493237Y-55514581D01*
X75643958Y-55651980D01*
X75643960Y-55651982D01*
X75731710Y-55706314D01*
X75817363Y-55759348D01*
X76007544Y-55833024D01*
X76208024Y-55870500D01*
X76208026Y-55870500D01*
X76411974Y-55870500D01*
X76411976Y-55870500D01*
X76612456Y-55833024D01*
X76802637Y-55759348D01*
X76976041Y-55651981D01*
X77005811Y-55624841D01*
X77016962Y-55614677D01*
X77079766Y-55584060D01*
X77149153Y-55592258D01*
X77203093Y-55636667D01*
X77224461Y-55703190D01*
X77224500Y-55706314D01*
X77224500Y-61507796D01*
X77204815Y-61574835D01*
X77182727Y-61600611D01*
X77109518Y-61665468D01*
X77019781Y-61795475D01*
X77019780Y-61795476D01*
X76963762Y-61943181D01*
X76944722Y-62099999D01*
X76944722Y-62100000D01*
X76963762Y-62256818D01*
X77019780Y-62404523D01*
X77109517Y-62534530D01*
X77227760Y-62639283D01*
X77227762Y-62639284D01*
X77367634Y-62712696D01*
X77521014Y-62750500D01*
X77521015Y-62750500D01*
X77678985Y-62750500D01*
X77832365Y-62712696D01*
X77864580Y-62695788D01*
X77972240Y-62639283D01*
X78090483Y-62534530D01*
X78180220Y-62404523D01*
X78236237Y-62256818D01*
X78255278Y-62100000D01*
X78236237Y-61943182D01*
X78180220Y-61795477D01*
X78090483Y-61665470D01*
X78066770Y-61644462D01*
X78017273Y-61600611D01*
X77980146Y-61541422D01*
X77975500Y-61507796D01*
X77975500Y-55742101D01*
X77995185Y-55675062D01*
X78047989Y-55629307D01*
X78117147Y-55619363D01*
X78180703Y-55648388D01*
X78183043Y-55650469D01*
X78184260Y-55651578D01*
X78357584Y-55758897D01*
X78547678Y-55832539D01*
X78600000Y-55842320D01*
X78600000Y-55205501D01*
X78707685Y-55254680D01*
X78814237Y-55270000D01*
X78885763Y-55270000D01*
X78992315Y-55254680D01*
X79100000Y-55205501D01*
X79100000Y-55842320D01*
X79152321Y-55832539D01*
X79342415Y-55758897D01*
X79515739Y-55651578D01*
X79666391Y-55514242D01*
X79789245Y-55351556D01*
X79880109Y-55169078D01*
X79880114Y-55169065D01*
X79922528Y-55020000D01*
X79283686Y-55020000D01*
X79309493Y-54979844D01*
X79350000Y-54841889D01*
X79350000Y-54770000D01*
X80284785Y-54770000D01*
X80303602Y-54973082D01*
X80359417Y-55169247D01*
X80359422Y-55169260D01*
X80450327Y-55351821D01*
X80573237Y-55514581D01*
X80723958Y-55651980D01*
X80723960Y-55651982D01*
X80811710Y-55706314D01*
X80897363Y-55759348D01*
X81087544Y-55833024D01*
X81288024Y-55870500D01*
X81288026Y-55870500D01*
X81491974Y-55870500D01*
X81491976Y-55870500D01*
X81692456Y-55833024D01*
X81696052Y-55831630D01*
X81697902Y-55831474D01*
X81697971Y-55831455D01*
X81697974Y-55831468D01*
X81765670Y-55825762D01*
X81827414Y-55858464D01*
X81828535Y-55859572D01*
X84197849Y-58228886D01*
X84213977Y-58248745D01*
X84219916Y-58257836D01*
X84247932Y-58279641D01*
X84253693Y-58284730D01*
X84256482Y-58287519D01*
X84275483Y-58301085D01*
X84318811Y-58334809D01*
X84325704Y-58338539D01*
X84332796Y-58342006D01*
X84332801Y-58342010D01*
X84336738Y-58343182D01*
X84385403Y-58357670D01*
X84437338Y-58375500D01*
X84445072Y-58376790D01*
X84452910Y-58377767D01*
X84452912Y-58377768D01*
X84452913Y-58377767D01*
X84452914Y-58377768D01*
X84507756Y-58375500D01*
X88093101Y-58375500D01*
X88160140Y-58395185D01*
X88180782Y-58411819D01*
X90188181Y-60419218D01*
X90221666Y-60480541D01*
X90224500Y-60506899D01*
X90224500Y-61948196D01*
X90221862Y-61973634D01*
X90219633Y-61984268D01*
X90219633Y-61984269D01*
X90219633Y-61984271D01*
X90224023Y-62019491D01*
X90224500Y-62027167D01*
X90224500Y-62031116D01*
X90228342Y-62054141D01*
X90235134Y-62108627D01*
X90237373Y-62116147D01*
X90239934Y-62123608D01*
X90239935Y-62123610D01*
X90253813Y-62149255D01*
X90266055Y-62171877D01*
X90290174Y-62221211D01*
X90294742Y-62227609D01*
X90299581Y-62233826D01*
X90339971Y-62271008D01*
X91077456Y-63008493D01*
X94558616Y-66489655D01*
X94558638Y-66489675D01*
X97388181Y-69319218D01*
X97421666Y-69380541D01*
X97424500Y-69406899D01*
X97424500Y-70648196D01*
X97421861Y-70673641D01*
X97419633Y-70684266D01*
X97419633Y-70684270D01*
X97424023Y-70719493D01*
X97424499Y-70727156D01*
X97424499Y-70731105D01*
X97424500Y-70731114D01*
X97428342Y-70754142D01*
X97435134Y-70808627D01*
X97437373Y-70816147D01*
X97439934Y-70823608D01*
X97439935Y-70823610D01*
X97466055Y-70871876D01*
X97466055Y-70871877D01*
X97490174Y-70921211D01*
X97494742Y-70927609D01*
X97499582Y-70933827D01*
X97539971Y-70971009D01*
X98015481Y-71446518D01*
X98048966Y-71507841D01*
X98050896Y-71549143D01*
X98044722Y-71599997D01*
X98044722Y-71600000D01*
X98063762Y-71756818D01*
X98117278Y-71897927D01*
X98119780Y-71904523D01*
X98209517Y-72034530D01*
X98327760Y-72139283D01*
X98327762Y-72139284D01*
X98467634Y-72212696D01*
X98621014Y-72250500D01*
X98621015Y-72250500D01*
X98778985Y-72250500D01*
X98932365Y-72212696D01*
X98942692Y-72207276D01*
X99072240Y-72139283D01*
X99190483Y-72034530D01*
X99280220Y-71904523D01*
X99336237Y-71756818D01*
X99355278Y-71600000D01*
X99336237Y-71443182D01*
X99280220Y-71295477D01*
X99190483Y-71165470D01*
X99072240Y-71060717D01*
X99068742Y-71058881D01*
X99026062Y-71036480D01*
X98975850Y-70987894D01*
X98959876Y-70919875D01*
X98983212Y-70854018D01*
X99026061Y-70816889D01*
X99107240Y-70774283D01*
X99225483Y-70669530D01*
X99315220Y-70539523D01*
X99371237Y-70391818D01*
X99390278Y-70235000D01*
X99383371Y-70178111D01*
X99371237Y-70078181D01*
X99346318Y-70012477D01*
X99315220Y-69930477D01*
X99225483Y-69800470D01*
X99203647Y-69781125D01*
X99152273Y-69735611D01*
X99115146Y-69676422D01*
X99110500Y-69642796D01*
X99110500Y-69486804D01*
X99113139Y-69461359D01*
X99114407Y-69455310D01*
X99115367Y-69450732D01*
X99113498Y-69435740D01*
X99110977Y-69415506D01*
X99110500Y-69407830D01*
X99110500Y-69403889D01*
X99110498Y-69403876D01*
X99106657Y-69380859D01*
X99099866Y-69326376D01*
X99099866Y-69326374D01*
X99099864Y-69326370D01*
X99097622Y-69318840D01*
X99095065Y-69311392D01*
X99095065Y-69311390D01*
X99068944Y-69263122D01*
X99044826Y-69213789D01*
X99044824Y-69213787D01*
X99044824Y-69213786D01*
X99040267Y-69207404D01*
X99035415Y-69201169D01*
X98995029Y-69163992D01*
X95741896Y-65910857D01*
X95741865Y-65910828D01*
X95305715Y-65474678D01*
X97359500Y-65474678D01*
X97374032Y-65547735D01*
X97374033Y-65547739D01*
X97374034Y-65547740D01*
X97429399Y-65630601D01*
X97491837Y-65672320D01*
X97512260Y-65685966D01*
X97512264Y-65685967D01*
X97585321Y-65700499D01*
X97585324Y-65700500D01*
X97585326Y-65700500D01*
X99334676Y-65700500D01*
X99334677Y-65700499D01*
X99407740Y-65685966D01*
X99490601Y-65630601D01*
X99545966Y-65547740D01*
X99560500Y-65474674D01*
X99560500Y-64349999D01*
X99927471Y-64349999D01*
X99927472Y-64350000D01*
X100566314Y-64350000D01*
X100540507Y-64390156D01*
X100500000Y-64528111D01*
X100500000Y-64671889D01*
X100540507Y-64809844D01*
X100566314Y-64850000D01*
X99927472Y-64850000D01*
X99969885Y-64999065D01*
X99969890Y-64999078D01*
X100060754Y-65181556D01*
X100183608Y-65344242D01*
X100334260Y-65481578D01*
X100507584Y-65588897D01*
X100697678Y-65662539D01*
X100750000Y-65672320D01*
X100750000Y-65035501D01*
X100857685Y-65084680D01*
X100964237Y-65100000D01*
X101035763Y-65100000D01*
X101142315Y-65084680D01*
X101250000Y-65035501D01*
X101250000Y-65672320D01*
X101302321Y-65662539D01*
X101492415Y-65588897D01*
X101665739Y-65481578D01*
X101816391Y-65344242D01*
X101939245Y-65181556D01*
X102030109Y-64999078D01*
X102030114Y-64999065D01*
X102072528Y-64850000D01*
X101433686Y-64850000D01*
X101459493Y-64809844D01*
X101500000Y-64671889D01*
X101500000Y-64528111D01*
X101459493Y-64390156D01*
X101433686Y-64350000D01*
X102072528Y-64350000D01*
X102072528Y-64349999D01*
X102030114Y-64200934D01*
X102030109Y-64200921D01*
X101939245Y-64018443D01*
X101816391Y-63855757D01*
X101665739Y-63718421D01*
X101492413Y-63611101D01*
X101302315Y-63537458D01*
X101302309Y-63537456D01*
X101250001Y-63527677D01*
X101250000Y-63527679D01*
X101250000Y-64164498D01*
X101142315Y-64115320D01*
X101035763Y-64100000D01*
X100964237Y-64100000D01*
X100857685Y-64115320D01*
X100750000Y-64164498D01*
X100750000Y-63527679D01*
X100749998Y-63527677D01*
X100697690Y-63537456D01*
X100697684Y-63537458D01*
X100507586Y-63611101D01*
X100334260Y-63718421D01*
X100183608Y-63855757D01*
X100060754Y-64018443D01*
X99969890Y-64200921D01*
X99969885Y-64200934D01*
X99927471Y-64349999D01*
X99560500Y-64349999D01*
X99560500Y-63725326D01*
X99560499Y-63725326D01*
X99560500Y-63725323D01*
X99560499Y-63725321D01*
X99545967Y-63652264D01*
X99545966Y-63652260D01*
X99545965Y-63652259D01*
X99490601Y-63569399D01*
X99407740Y-63514034D01*
X99407739Y-63514033D01*
X99407735Y-63514032D01*
X99334677Y-63499500D01*
X99334674Y-63499500D01*
X97585326Y-63499500D01*
X97585323Y-63499500D01*
X97512264Y-63514032D01*
X97512260Y-63514033D01*
X97429399Y-63569399D01*
X97374033Y-63652260D01*
X97374032Y-63652264D01*
X97359500Y-63725321D01*
X97359500Y-65474678D01*
X95305715Y-65474678D01*
X91785038Y-61954000D01*
X91766887Y-61920759D01*
X91745997Y-61913068D01*
X91732209Y-61901171D01*
X91511819Y-61680781D01*
X91478334Y-61619458D01*
X91475500Y-61593100D01*
X91475500Y-61456696D01*
X91495185Y-61389657D01*
X91547989Y-61343902D01*
X91617147Y-61333958D01*
X91680703Y-61362983D01*
X91710500Y-61401424D01*
X91800327Y-61581821D01*
X91918844Y-61738763D01*
X91925359Y-61756010D01*
X91932146Y-61757487D01*
X91956257Y-61774682D01*
X92073958Y-61881980D01*
X92073960Y-61881982D01*
X92104952Y-61901171D01*
X92247363Y-61989348D01*
X92437544Y-62063024D01*
X92638024Y-62100500D01*
X92638026Y-62100500D01*
X92841974Y-62100500D01*
X92841976Y-62100500D01*
X93042456Y-62063024D01*
X93232637Y-61989348D01*
X93406041Y-61881981D01*
X93556764Y-61744579D01*
X93679673Y-61581821D01*
X93770582Y-61399250D01*
X93826397Y-61203083D01*
X93845215Y-61000000D01*
X94174785Y-61000000D01*
X94193602Y-61203082D01*
X94249417Y-61399247D01*
X94249422Y-61399260D01*
X94340327Y-61581821D01*
X94463237Y-61744581D01*
X94613958Y-61881980D01*
X94613960Y-61881982D01*
X94644952Y-61901171D01*
X94787363Y-61989348D01*
X94977544Y-62063024D01*
X95178024Y-62100500D01*
X95178026Y-62100500D01*
X95381974Y-62100500D01*
X95381976Y-62100500D01*
X95582456Y-62063024D01*
X95772637Y-61989348D01*
X95946041Y-61881981D01*
X96096764Y-61744579D01*
X96219673Y-61581821D01*
X96310582Y-61399250D01*
X96366397Y-61203083D01*
X96385215Y-61000000D01*
X96714785Y-61000000D01*
X96733602Y-61203082D01*
X96789417Y-61399247D01*
X96789422Y-61399260D01*
X96880327Y-61581821D01*
X97003237Y-61744581D01*
X97153958Y-61881980D01*
X97153960Y-61881982D01*
X97184952Y-61901171D01*
X97327363Y-61989348D01*
X97517544Y-62063024D01*
X97718024Y-62100500D01*
X97718026Y-62100500D01*
X97921974Y-62100500D01*
X97921976Y-62100500D01*
X98122456Y-62063024D01*
X98312637Y-61989348D01*
X98486041Y-61881981D01*
X98636764Y-61744579D01*
X98759673Y-61581821D01*
X98850582Y-61399250D01*
X98906397Y-61203083D01*
X98925215Y-61000000D01*
X99254785Y-61000000D01*
X99273602Y-61203082D01*
X99329417Y-61399247D01*
X99329422Y-61399260D01*
X99420327Y-61581821D01*
X99543237Y-61744581D01*
X99693958Y-61881980D01*
X99693960Y-61881982D01*
X99724952Y-61901171D01*
X99867363Y-61989348D01*
X100057544Y-62063024D01*
X100258024Y-62100500D01*
X100258026Y-62100500D01*
X100461974Y-62100500D01*
X100461976Y-62100500D01*
X100662456Y-62063024D01*
X100852637Y-61989348D01*
X101026041Y-61881981D01*
X101034107Y-61874628D01*
X101800000Y-61874628D01*
X101814503Y-61947540D01*
X101814505Y-61947544D01*
X101869760Y-62030239D01*
X101952455Y-62085494D01*
X101952459Y-62085496D01*
X102025371Y-62099999D01*
X102025374Y-62100000D01*
X102650000Y-62100000D01*
X102650000Y-61435501D01*
X102757685Y-61484680D01*
X102864237Y-61500000D01*
X102935763Y-61500000D01*
X103042315Y-61484680D01*
X103150000Y-61435501D01*
X103150000Y-62100000D01*
X103774626Y-62100000D01*
X103774628Y-62099999D01*
X103847540Y-62085496D01*
X103847544Y-62085494D01*
X103930239Y-62030239D01*
X103985494Y-61947544D01*
X103985496Y-61947540D01*
X103999999Y-61874628D01*
X104000000Y-61874626D01*
X104000000Y-61250000D01*
X103333686Y-61250000D01*
X103359493Y-61209844D01*
X103400000Y-61071889D01*
X103400000Y-60928111D01*
X103359493Y-60790156D01*
X103333686Y-60750000D01*
X104000000Y-60750000D01*
X104000000Y-60125373D01*
X103999999Y-60125371D01*
X103985496Y-60052459D01*
X103985494Y-60052455D01*
X103930239Y-59969760D01*
X103847544Y-59914505D01*
X103847540Y-59914503D01*
X103774627Y-59900000D01*
X103150000Y-59900000D01*
X103150000Y-60564498D01*
X103042315Y-60515320D01*
X102935763Y-60500000D01*
X102864237Y-60500000D01*
X102757685Y-60515320D01*
X102650000Y-60564498D01*
X102650000Y-59900000D01*
X102025373Y-59900000D01*
X101952459Y-59914503D01*
X101952455Y-59914505D01*
X101869760Y-59969760D01*
X101814505Y-60052455D01*
X101814503Y-60052459D01*
X101800000Y-60125371D01*
X101800000Y-60750000D01*
X102466314Y-60750000D01*
X102440507Y-60790156D01*
X102400000Y-60928111D01*
X102400000Y-61071889D01*
X102440507Y-61209844D01*
X102466314Y-61250000D01*
X101800000Y-61250000D01*
X101800000Y-61874628D01*
X101034107Y-61874628D01*
X101176764Y-61744579D01*
X101299673Y-61581821D01*
X101390582Y-61399250D01*
X101446397Y-61203083D01*
X101465215Y-61000000D01*
X101446397Y-60796917D01*
X101390582Y-60600750D01*
X101385725Y-60590996D01*
X101300190Y-60419218D01*
X101299673Y-60418179D01*
X101176764Y-60255421D01*
X101176762Y-60255418D01*
X101026041Y-60118019D01*
X101026039Y-60118017D01*
X100852642Y-60010655D01*
X100852635Y-60010651D01*
X100668220Y-59939209D01*
X100662456Y-59936976D01*
X100461976Y-59899500D01*
X100258024Y-59899500D01*
X100057544Y-59936976D01*
X100057541Y-59936976D01*
X100057541Y-59936977D01*
X99867364Y-60010651D01*
X99867357Y-60010655D01*
X99693960Y-60118017D01*
X99693958Y-60118019D01*
X99543237Y-60255418D01*
X99420327Y-60418178D01*
X99329422Y-60600739D01*
X99329417Y-60600752D01*
X99273602Y-60796917D01*
X99254785Y-60999999D01*
X99254785Y-61000000D01*
X98925215Y-61000000D01*
X98906397Y-60796917D01*
X98850582Y-60600750D01*
X98845725Y-60590996D01*
X98760190Y-60419218D01*
X98759673Y-60418179D01*
X98636764Y-60255421D01*
X98636762Y-60255418D01*
X98486041Y-60118019D01*
X98486039Y-60118017D01*
X98312642Y-60010655D01*
X98312635Y-60010651D01*
X98128220Y-59939209D01*
X98122456Y-59936976D01*
X97921976Y-59899500D01*
X97718024Y-59899500D01*
X97517544Y-59936976D01*
X97517541Y-59936976D01*
X97517541Y-59936977D01*
X97327364Y-60010651D01*
X97327357Y-60010655D01*
X97153960Y-60118017D01*
X97153958Y-60118019D01*
X97003237Y-60255418D01*
X96880327Y-60418178D01*
X96789422Y-60600739D01*
X96789417Y-60600752D01*
X96733602Y-60796917D01*
X96714785Y-60999999D01*
X96714785Y-61000000D01*
X96385215Y-61000000D01*
X96366397Y-60796917D01*
X96310582Y-60600750D01*
X96305725Y-60590996D01*
X96220190Y-60419218D01*
X96219673Y-60418179D01*
X96096764Y-60255421D01*
X96096762Y-60255418D01*
X95946041Y-60118019D01*
X95946039Y-60118017D01*
X95772642Y-60010655D01*
X95772635Y-60010651D01*
X95588220Y-59939209D01*
X95582456Y-59936976D01*
X95381976Y-59899500D01*
X95178024Y-59899500D01*
X94977544Y-59936976D01*
X94977541Y-59936976D01*
X94977541Y-59936977D01*
X94787364Y-60010651D01*
X94787357Y-60010655D01*
X94613960Y-60118017D01*
X94613958Y-60118019D01*
X94463237Y-60255418D01*
X94340327Y-60418178D01*
X94249422Y-60600739D01*
X94249417Y-60600752D01*
X94193602Y-60796917D01*
X94174785Y-60999999D01*
X94174785Y-61000000D01*
X93845215Y-61000000D01*
X93826397Y-60796917D01*
X93770582Y-60600750D01*
X93765725Y-60590996D01*
X93680190Y-60419218D01*
X93679673Y-60418179D01*
X93556764Y-60255421D01*
X93556762Y-60255418D01*
X93406041Y-60118019D01*
X93406039Y-60118017D01*
X93232642Y-60010655D01*
X93232635Y-60010651D01*
X93048220Y-59939209D01*
X93042456Y-59936976D01*
X92841976Y-59899500D01*
X92638024Y-59899500D01*
X92437544Y-59936976D01*
X92437541Y-59936976D01*
X92437541Y-59936977D01*
X92247364Y-60010651D01*
X92247357Y-60010655D01*
X92073960Y-60118017D01*
X92073958Y-60118019D01*
X91923237Y-60255418D01*
X91800327Y-60418178D01*
X91710500Y-60598575D01*
X91662997Y-60649812D01*
X91595334Y-60667233D01*
X91528994Y-60645307D01*
X91485039Y-60590996D01*
X91475500Y-60543303D01*
X91475500Y-60151804D01*
X91478139Y-60126359D01*
X91479887Y-60118019D01*
X91480367Y-60115732D01*
X91478287Y-60099052D01*
X91475977Y-60080509D01*
X91475500Y-60072833D01*
X91475500Y-60068890D01*
X91475499Y-60068882D01*
X91471655Y-60045846D01*
X91464865Y-59991373D01*
X91462617Y-59983827D01*
X91460066Y-59976393D01*
X91460065Y-59976391D01*
X91460065Y-59976390D01*
X91433939Y-59928114D01*
X91409826Y-59878789D01*
X91409823Y-59878786D01*
X91409823Y-59878785D01*
X91405256Y-59872388D01*
X91400422Y-59866177D01*
X91360029Y-59828991D01*
X88802149Y-57271111D01*
X88786022Y-57251252D01*
X88780086Y-57242167D01*
X88780083Y-57242163D01*
X88752074Y-57220363D01*
X88746310Y-57215272D01*
X88743515Y-57212477D01*
X88724505Y-57198906D01*
X88681189Y-57165190D01*
X88674274Y-57161448D01*
X88667200Y-57157990D01*
X88614596Y-57142329D01*
X88562658Y-57124499D01*
X88554923Y-57123208D01*
X88547085Y-57122231D01*
X88492244Y-57124500D01*
X85006900Y-57124500D01*
X84939861Y-57104815D01*
X84919219Y-57088181D01*
X83913219Y-56082181D01*
X83879734Y-56020858D01*
X83884718Y-55951166D01*
X83926590Y-55895233D01*
X83992054Y-55870816D01*
X84000900Y-55870500D01*
X84031974Y-55870500D01*
X84031976Y-55870500D01*
X84232456Y-55833024D01*
X84422637Y-55759348D01*
X84596041Y-55651981D01*
X84746764Y-55514579D01*
X84869673Y-55351821D01*
X84960582Y-55169250D01*
X85016397Y-54973083D01*
X85035215Y-54770000D01*
X85364785Y-54770000D01*
X85383602Y-54973082D01*
X85439417Y-55169247D01*
X85439422Y-55169260D01*
X85530327Y-55351821D01*
X85653237Y-55514581D01*
X85803958Y-55651980D01*
X85803960Y-55651982D01*
X85891710Y-55706314D01*
X85977363Y-55759348D01*
X86167544Y-55833024D01*
X86368024Y-55870500D01*
X86368026Y-55870500D01*
X86571974Y-55870500D01*
X86571976Y-55870500D01*
X86772456Y-55833024D01*
X86962637Y-55759348D01*
X87136041Y-55651981D01*
X87286764Y-55514579D01*
X87409673Y-55351821D01*
X87500582Y-55169250D01*
X87556397Y-54973083D01*
X87575215Y-54770000D01*
X87904785Y-54770000D01*
X87923602Y-54973082D01*
X87979417Y-55169247D01*
X87979422Y-55169260D01*
X88070327Y-55351821D01*
X88193237Y-55514581D01*
X88343958Y-55651980D01*
X88343960Y-55651982D01*
X88431710Y-55706314D01*
X88517363Y-55759348D01*
X88707544Y-55833024D01*
X88908024Y-55870500D01*
X88908026Y-55870500D01*
X89111974Y-55870500D01*
X89111976Y-55870500D01*
X89312456Y-55833024D01*
X89502637Y-55759348D01*
X89676041Y-55651981D01*
X89826764Y-55514579D01*
X89949673Y-55351821D01*
X90040582Y-55169250D01*
X90096397Y-54973083D01*
X90115215Y-54770000D01*
X90444785Y-54770000D01*
X90463602Y-54973082D01*
X90519417Y-55169247D01*
X90519422Y-55169260D01*
X90610327Y-55351821D01*
X90733237Y-55514581D01*
X90883958Y-55651980D01*
X90883960Y-55651982D01*
X90971710Y-55706314D01*
X91057363Y-55759348D01*
X91247544Y-55833024D01*
X91448024Y-55870500D01*
X91448026Y-55870500D01*
X91651974Y-55870500D01*
X91651976Y-55870500D01*
X91852456Y-55833024D01*
X92042637Y-55759348D01*
X92216041Y-55651981D01*
X92366764Y-55514579D01*
X92489673Y-55351821D01*
X92580582Y-55169250D01*
X92636397Y-54973083D01*
X92655215Y-54770000D01*
X92984785Y-54770000D01*
X93003602Y-54973082D01*
X93059417Y-55169247D01*
X93059422Y-55169260D01*
X93150327Y-55351821D01*
X93273237Y-55514581D01*
X93423958Y-55651980D01*
X93423960Y-55651982D01*
X93511710Y-55706314D01*
X93597363Y-55759348D01*
X93787544Y-55833024D01*
X93988024Y-55870500D01*
X93988026Y-55870500D01*
X94191974Y-55870500D01*
X94191976Y-55870500D01*
X94392456Y-55833024D01*
X94582637Y-55759348D01*
X94756041Y-55651981D01*
X94906764Y-55514579D01*
X95029673Y-55351821D01*
X95120582Y-55169250D01*
X95176397Y-54973083D01*
X95195215Y-54770000D01*
X95176397Y-54566917D01*
X95163048Y-54519999D01*
X95557471Y-54519999D01*
X95557472Y-54520000D01*
X96196314Y-54520000D01*
X96170507Y-54560156D01*
X96130000Y-54698111D01*
X96130000Y-54841889D01*
X96170507Y-54979844D01*
X96196314Y-55020000D01*
X95557472Y-55020000D01*
X95599885Y-55169065D01*
X95599890Y-55169078D01*
X95690754Y-55351556D01*
X95813608Y-55514242D01*
X95964260Y-55651578D01*
X96137584Y-55758897D01*
X96327678Y-55832539D01*
X96379999Y-55842320D01*
X96379999Y-55205501D01*
X96487685Y-55254680D01*
X96594237Y-55270000D01*
X96665763Y-55270000D01*
X96772315Y-55254680D01*
X96880000Y-55205501D01*
X96880000Y-55842320D01*
X96932321Y-55832539D01*
X97122415Y-55758897D01*
X97295739Y-55651578D01*
X97446391Y-55514242D01*
X97569245Y-55351556D01*
X97660109Y-55169078D01*
X97660114Y-55169065D01*
X97702528Y-55020000D01*
X97063686Y-55020000D01*
X97089493Y-54979844D01*
X97130000Y-54841889D01*
X97130000Y-54698111D01*
X97089493Y-54560156D01*
X97063686Y-54520000D01*
X97702528Y-54520000D01*
X97702528Y-54519999D01*
X97660114Y-54370934D01*
X97660109Y-54370921D01*
X97569245Y-54188443D01*
X97446391Y-54025757D01*
X97295739Y-53888421D01*
X97122413Y-53781101D01*
X96932315Y-53707458D01*
X96932309Y-53707456D01*
X96880001Y-53697677D01*
X96880000Y-53697679D01*
X96880000Y-54334498D01*
X96772315Y-54285320D01*
X96665763Y-54270000D01*
X96594237Y-54270000D01*
X96487685Y-54285320D01*
X96380000Y-54334498D01*
X96380000Y-53697679D01*
X96379998Y-53697677D01*
X96327690Y-53707456D01*
X96327684Y-53707458D01*
X96137586Y-53781101D01*
X95964260Y-53888421D01*
X95813608Y-54025757D01*
X95690754Y-54188443D01*
X95599890Y-54370921D01*
X95599885Y-54370934D01*
X95557471Y-54519999D01*
X95163048Y-54519999D01*
X95120582Y-54370750D01*
X95087998Y-54305313D01*
X95059285Y-54247649D01*
X95029673Y-54188179D01*
X94906764Y-54025421D01*
X94906762Y-54025418D01*
X94756041Y-53888019D01*
X94756039Y-53888017D01*
X94582642Y-53780655D01*
X94582635Y-53780651D01*
X94443881Y-53726898D01*
X94392456Y-53706976D01*
X94191976Y-53669500D01*
X93988024Y-53669500D01*
X93787544Y-53706976D01*
X93787541Y-53706976D01*
X93787541Y-53706977D01*
X93597364Y-53780651D01*
X93597357Y-53780655D01*
X93423960Y-53888017D01*
X93423958Y-53888019D01*
X93273237Y-54025418D01*
X93150327Y-54188178D01*
X93059422Y-54370739D01*
X93059417Y-54370752D01*
X93003602Y-54566917D01*
X92984785Y-54769999D01*
X92984785Y-54770000D01*
X92655215Y-54770000D01*
X92636397Y-54566917D01*
X92580582Y-54370750D01*
X92547998Y-54305313D01*
X92519285Y-54247649D01*
X92489673Y-54188179D01*
X92366764Y-54025421D01*
X92366762Y-54025418D01*
X92216041Y-53888019D01*
X92216039Y-53888017D01*
X92042642Y-53780655D01*
X92042635Y-53780651D01*
X91903881Y-53726898D01*
X91852456Y-53706976D01*
X91651976Y-53669500D01*
X91448024Y-53669500D01*
X91247544Y-53706976D01*
X91247541Y-53706976D01*
X91247541Y-53706977D01*
X91057364Y-53780651D01*
X91057357Y-53780655D01*
X90883960Y-53888017D01*
X90883958Y-53888019D01*
X90733237Y-54025418D01*
X90610327Y-54188178D01*
X90519422Y-54370739D01*
X90519417Y-54370752D01*
X90463602Y-54566917D01*
X90444785Y-54769999D01*
X90444785Y-54770000D01*
X90115215Y-54770000D01*
X90096397Y-54566917D01*
X90040582Y-54370750D01*
X90007998Y-54305313D01*
X89979285Y-54247649D01*
X89949673Y-54188179D01*
X89826764Y-54025421D01*
X89826762Y-54025418D01*
X89676041Y-53888019D01*
X89676039Y-53888017D01*
X89502642Y-53780655D01*
X89502635Y-53780651D01*
X89363881Y-53726898D01*
X89312456Y-53706976D01*
X89111976Y-53669500D01*
X88908024Y-53669500D01*
X88707544Y-53706976D01*
X88707541Y-53706976D01*
X88707541Y-53706977D01*
X88517364Y-53780651D01*
X88517357Y-53780655D01*
X88343960Y-53888017D01*
X88343958Y-53888019D01*
X88193237Y-54025418D01*
X88070327Y-54188178D01*
X87979422Y-54370739D01*
X87979417Y-54370752D01*
X87923602Y-54566917D01*
X87904785Y-54769999D01*
X87904785Y-54770000D01*
X87575215Y-54770000D01*
X87556397Y-54566917D01*
X87500582Y-54370750D01*
X87467998Y-54305313D01*
X87439285Y-54247649D01*
X87409673Y-54188179D01*
X87286764Y-54025421D01*
X87286762Y-54025418D01*
X87136041Y-53888019D01*
X87136039Y-53888017D01*
X86962642Y-53780655D01*
X86962635Y-53780651D01*
X86823881Y-53726898D01*
X86772456Y-53706976D01*
X86571976Y-53669500D01*
X86368024Y-53669500D01*
X86167544Y-53706976D01*
X86167541Y-53706976D01*
X86167541Y-53706977D01*
X85977364Y-53780651D01*
X85977357Y-53780655D01*
X85803960Y-53888017D01*
X85803958Y-53888019D01*
X85653237Y-54025418D01*
X85530327Y-54188178D01*
X85439422Y-54370739D01*
X85439417Y-54370752D01*
X85383602Y-54566917D01*
X85364785Y-54769999D01*
X85364785Y-54770000D01*
X85035215Y-54770000D01*
X85016397Y-54566917D01*
X84960582Y-54370750D01*
X84927998Y-54305313D01*
X84899285Y-54247649D01*
X84869673Y-54188179D01*
X84746764Y-54025421D01*
X84746762Y-54025418D01*
X84596041Y-53888019D01*
X84596039Y-53888017D01*
X84422642Y-53780655D01*
X84422635Y-53780651D01*
X84283881Y-53726898D01*
X84232456Y-53706976D01*
X84031976Y-53669500D01*
X83828024Y-53669500D01*
X83627544Y-53706976D01*
X83627541Y-53706976D01*
X83627541Y-53706977D01*
X83437364Y-53780651D01*
X83437357Y-53780655D01*
X83264776Y-53887512D01*
X83197415Y-53906067D01*
X83130716Y-53885259D01*
X83085855Y-53831694D01*
X83075499Y-53782087D01*
X83075499Y-53591793D01*
X83078137Y-53566362D01*
X83080367Y-53555732D01*
X83077874Y-53535728D01*
X83075977Y-53520507D01*
X83075500Y-53512831D01*
X83075500Y-53508889D01*
X83075498Y-53508876D01*
X83071657Y-53485859D01*
X83069163Y-53465847D01*
X83064866Y-53431374D01*
X83064864Y-53431370D01*
X83062622Y-53423840D01*
X83060065Y-53416392D01*
X83060065Y-53416390D01*
X83033944Y-53368122D01*
X83009826Y-53318789D01*
X83009824Y-53318787D01*
X83009824Y-53318786D01*
X83005276Y-53312416D01*
X83000420Y-53306176D01*
X83000419Y-53306174D01*
X82996232Y-53302320D01*
X82960029Y-53268992D01*
X82449709Y-52758672D01*
X82416224Y-52697349D01*
X82420666Y-52635234D01*
X82419013Y-52634764D01*
X82426536Y-52608325D01*
X82476397Y-52433083D01*
X82495215Y-52230000D01*
X82476397Y-52026917D01*
X82463048Y-51979999D01*
X82857471Y-51979999D01*
X82857472Y-51980000D01*
X83496314Y-51980000D01*
X83470507Y-52020156D01*
X83430000Y-52158111D01*
X83430000Y-52301889D01*
X83470507Y-52439844D01*
X83496314Y-52480000D01*
X82857472Y-52480000D01*
X82899885Y-52629065D01*
X82899890Y-52629078D01*
X82990754Y-52811556D01*
X83113608Y-52974242D01*
X83264260Y-53111578D01*
X83437584Y-53218897D01*
X83627678Y-53292539D01*
X83680000Y-53302320D01*
X83680000Y-52665501D01*
X83787685Y-52714680D01*
X83894237Y-52730000D01*
X83965763Y-52730000D01*
X84072315Y-52714680D01*
X84180000Y-52665501D01*
X84180000Y-53302320D01*
X84232321Y-53292539D01*
X84422415Y-53218897D01*
X84595739Y-53111578D01*
X84746391Y-52974242D01*
X84869245Y-52811556D01*
X84960109Y-52629078D01*
X84960114Y-52629065D01*
X85002528Y-52480000D01*
X84363686Y-52480000D01*
X84389493Y-52439844D01*
X84430000Y-52301889D01*
X84430000Y-52230000D01*
X85364785Y-52230000D01*
X85383602Y-52433082D01*
X85439417Y-52629247D01*
X85439422Y-52629260D01*
X85530327Y-52811821D01*
X85653237Y-52974581D01*
X85803958Y-53111980D01*
X85803960Y-53111982D01*
X85903141Y-53173392D01*
X85977363Y-53219348D01*
X86167544Y-53293024D01*
X86368024Y-53330500D01*
X86368026Y-53330500D01*
X86571974Y-53330500D01*
X86571976Y-53330500D01*
X86772456Y-53293024D01*
X86962637Y-53219348D01*
X87136041Y-53111981D01*
X87286764Y-52974579D01*
X87409673Y-52811821D01*
X87500582Y-52629250D01*
X87556397Y-52433083D01*
X87575215Y-52230000D01*
X87556397Y-52026917D01*
X87543048Y-51979999D01*
X87937471Y-51979999D01*
X87937472Y-51980000D01*
X88576314Y-51980000D01*
X88550507Y-52020156D01*
X88510000Y-52158111D01*
X88510000Y-52301889D01*
X88550507Y-52439844D01*
X88576314Y-52480000D01*
X87937472Y-52480000D01*
X87979885Y-52629065D01*
X87979890Y-52629078D01*
X88070754Y-52811556D01*
X88193608Y-52974242D01*
X88344260Y-53111578D01*
X88517584Y-53218897D01*
X88707678Y-53292539D01*
X88760000Y-53302320D01*
X88759999Y-52665501D01*
X88867685Y-52714680D01*
X88974237Y-52730000D01*
X89045763Y-52730000D01*
X89152315Y-52714680D01*
X89260000Y-52665501D01*
X89260000Y-53302320D01*
X89312321Y-53292539D01*
X89502415Y-53218897D01*
X89675739Y-53111578D01*
X89826391Y-52974242D01*
X89949245Y-52811556D01*
X90040109Y-52629078D01*
X90040114Y-52629065D01*
X90082528Y-52480000D01*
X89443686Y-52480000D01*
X89469493Y-52439844D01*
X89510000Y-52301889D01*
X89510000Y-52230000D01*
X90444785Y-52230000D01*
X90463602Y-52433082D01*
X90519417Y-52629247D01*
X90519422Y-52629260D01*
X90610327Y-52811821D01*
X90733237Y-52974581D01*
X90883958Y-53111980D01*
X90883960Y-53111982D01*
X90983141Y-53173392D01*
X91057363Y-53219348D01*
X91247544Y-53293024D01*
X91448024Y-53330500D01*
X91448026Y-53330500D01*
X91651974Y-53330500D01*
X91651976Y-53330500D01*
X91852456Y-53293024D01*
X92042637Y-53219348D01*
X92216041Y-53111981D01*
X92366764Y-52974579D01*
X92489673Y-52811821D01*
X92580582Y-52629250D01*
X92636397Y-52433083D01*
X92655215Y-52230000D01*
X92984785Y-52230000D01*
X93003602Y-52433082D01*
X93059417Y-52629247D01*
X93059422Y-52629260D01*
X93150327Y-52811821D01*
X93273237Y-52974581D01*
X93423958Y-53111980D01*
X93423960Y-53111982D01*
X93523141Y-53173392D01*
X93597363Y-53219348D01*
X93787544Y-53293024D01*
X93988024Y-53330500D01*
X93988026Y-53330500D01*
X94191974Y-53330500D01*
X94191976Y-53330500D01*
X94392456Y-53293024D01*
X94582637Y-53219348D01*
X94756041Y-53111981D01*
X94906764Y-52974579D01*
X95029673Y-52811821D01*
X95120582Y-52629250D01*
X95176397Y-52433083D01*
X95195215Y-52230000D01*
X95524785Y-52230000D01*
X95543602Y-52433082D01*
X95599417Y-52629247D01*
X95599422Y-52629260D01*
X95690327Y-52811821D01*
X95813237Y-52974581D01*
X95963958Y-53111980D01*
X95963960Y-53111982D01*
X96063141Y-53173392D01*
X96137363Y-53219348D01*
X96327544Y-53293024D01*
X96528024Y-53330500D01*
X96528026Y-53330500D01*
X96731974Y-53330500D01*
X96731976Y-53330500D01*
X96932456Y-53293024D01*
X97122637Y-53219348D01*
X97296041Y-53111981D01*
X97446764Y-52974579D01*
X97569673Y-52811821D01*
X97660582Y-52629250D01*
X97716397Y-52433083D01*
X97735215Y-52230000D01*
X97716397Y-52026917D01*
X97660582Y-51830750D01*
X97569673Y-51648179D01*
X97446764Y-51485421D01*
X97446762Y-51485418D01*
X97296041Y-51348019D01*
X97296039Y-51348017D01*
X97122642Y-51240655D01*
X97122635Y-51240651D01*
X96964658Y-51179451D01*
X96932456Y-51166976D01*
X96731976Y-51129500D01*
X96528024Y-51129500D01*
X96327544Y-51166976D01*
X96327541Y-51166976D01*
X96327541Y-51166977D01*
X96137364Y-51240651D01*
X96137357Y-51240655D01*
X95963960Y-51348017D01*
X95963958Y-51348019D01*
X95813237Y-51485418D01*
X95690327Y-51648178D01*
X95599422Y-51830739D01*
X95599417Y-51830752D01*
X95543602Y-52026917D01*
X95524785Y-52229999D01*
X95524785Y-52230000D01*
X95195215Y-52230000D01*
X95176397Y-52026917D01*
X95120582Y-51830750D01*
X95029673Y-51648179D01*
X94906764Y-51485421D01*
X94906762Y-51485418D01*
X94756041Y-51348019D01*
X94756039Y-51348017D01*
X94582642Y-51240655D01*
X94582635Y-51240651D01*
X94424658Y-51179451D01*
X94392456Y-51166976D01*
X94191976Y-51129500D01*
X93988024Y-51129500D01*
X93787544Y-51166976D01*
X93787541Y-51166976D01*
X93787541Y-51166977D01*
X93597364Y-51240651D01*
X93597357Y-51240655D01*
X93423960Y-51348017D01*
X93423958Y-51348019D01*
X93273237Y-51485418D01*
X93150327Y-51648178D01*
X93059422Y-51830739D01*
X93059417Y-51830752D01*
X93003602Y-52026917D01*
X92984785Y-52229999D01*
X92984785Y-52230000D01*
X92655215Y-52230000D01*
X92636397Y-52026917D01*
X92580582Y-51830750D01*
X92489673Y-51648179D01*
X92366764Y-51485421D01*
X92366762Y-51485418D01*
X92216041Y-51348019D01*
X92216039Y-51348017D01*
X92042642Y-51240655D01*
X92042635Y-51240651D01*
X91884658Y-51179451D01*
X91852456Y-51166976D01*
X91651976Y-51129500D01*
X91448024Y-51129500D01*
X91247544Y-51166976D01*
X91247541Y-51166976D01*
X91247541Y-51166977D01*
X91057364Y-51240651D01*
X91057357Y-51240655D01*
X90883960Y-51348017D01*
X90883958Y-51348019D01*
X90733237Y-51485418D01*
X90610327Y-51648178D01*
X90519422Y-51830739D01*
X90519417Y-51830752D01*
X90463602Y-52026917D01*
X90444785Y-52229999D01*
X90444785Y-52230000D01*
X89510000Y-52230000D01*
X89510000Y-52158111D01*
X89469493Y-52020156D01*
X89443686Y-51980000D01*
X90082528Y-51980000D01*
X90082528Y-51979999D01*
X90040114Y-51830934D01*
X90040109Y-51830921D01*
X89949245Y-51648443D01*
X89826391Y-51485757D01*
X89675739Y-51348421D01*
X89502413Y-51241101D01*
X89312315Y-51167458D01*
X89312309Y-51167456D01*
X89260001Y-51157677D01*
X89260000Y-51157678D01*
X89260000Y-51794498D01*
X89152315Y-51745320D01*
X89045763Y-51730000D01*
X88974237Y-51730000D01*
X88867685Y-51745320D01*
X88760000Y-51794498D01*
X88760000Y-51157679D01*
X88759998Y-51157677D01*
X88707690Y-51167456D01*
X88707684Y-51167458D01*
X88517586Y-51241101D01*
X88344260Y-51348421D01*
X88193608Y-51485757D01*
X88070754Y-51648443D01*
X87979890Y-51830921D01*
X87979885Y-51830934D01*
X87937471Y-51979999D01*
X87543048Y-51979999D01*
X87500582Y-51830750D01*
X87409673Y-51648179D01*
X87286764Y-51485421D01*
X87286762Y-51485418D01*
X87136041Y-51348019D01*
X87136039Y-51348017D01*
X86962642Y-51240655D01*
X86962635Y-51240651D01*
X86804658Y-51179451D01*
X86772456Y-51166976D01*
X86571976Y-51129500D01*
X86368024Y-51129500D01*
X86167544Y-51166976D01*
X86167541Y-51166976D01*
X86167541Y-51166977D01*
X85977364Y-51240651D01*
X85977357Y-51240655D01*
X85803960Y-51348017D01*
X85803958Y-51348019D01*
X85653237Y-51485418D01*
X85530327Y-51648178D01*
X85439422Y-51830739D01*
X85439417Y-51830752D01*
X85383602Y-52026917D01*
X85364785Y-52229999D01*
X85364785Y-52230000D01*
X84430000Y-52230000D01*
X84430000Y-52158111D01*
X84389493Y-52020156D01*
X84363686Y-51980000D01*
X85002528Y-51980000D01*
X85002528Y-51979999D01*
X84960114Y-51830934D01*
X84960109Y-51830921D01*
X84869245Y-51648443D01*
X84746391Y-51485757D01*
X84595739Y-51348421D01*
X84422413Y-51241101D01*
X84232315Y-51167458D01*
X84232309Y-51167456D01*
X84180001Y-51157677D01*
X84180000Y-51157679D01*
X84180000Y-51794498D01*
X84072315Y-51745320D01*
X83965763Y-51730000D01*
X83894237Y-51730000D01*
X83787685Y-51745320D01*
X83680000Y-51794498D01*
X83680000Y-51157679D01*
X83679998Y-51157677D01*
X83627690Y-51167456D01*
X83627684Y-51167458D01*
X83437586Y-51241101D01*
X83264260Y-51348421D01*
X83113608Y-51485757D01*
X82990754Y-51648443D01*
X82899890Y-51830921D01*
X82899885Y-51830934D01*
X82857471Y-51979999D01*
X82463048Y-51979999D01*
X82420582Y-51830750D01*
X82329673Y-51648179D01*
X82206764Y-51485421D01*
X82206762Y-51485418D01*
X82056041Y-51348019D01*
X82056039Y-51348017D01*
X81882642Y-51240655D01*
X81882635Y-51240651D01*
X81724658Y-51179451D01*
X81692456Y-51166976D01*
X81491976Y-51129500D01*
X81288024Y-51129500D01*
X81087544Y-51166976D01*
X81087541Y-51166976D01*
X81087541Y-51166977D01*
X80897364Y-51240651D01*
X80897357Y-51240655D01*
X80723960Y-51348017D01*
X80723958Y-51348019D01*
X80573237Y-51485418D01*
X80450327Y-51648178D01*
X80359422Y-51830739D01*
X80359417Y-51830752D01*
X80303602Y-52026917D01*
X80284785Y-52229999D01*
X80284785Y-52230000D01*
X80303602Y-52433082D01*
X80359417Y-52629247D01*
X80359422Y-52629260D01*
X80450327Y-52811821D01*
X80573237Y-52974581D01*
X80723958Y-53111980D01*
X80723960Y-53111982D01*
X80823141Y-53173392D01*
X80897363Y-53219348D01*
X81087544Y-53293024D01*
X81288024Y-53330500D01*
X81288026Y-53330500D01*
X81491974Y-53330500D01*
X81491976Y-53330500D01*
X81692456Y-53293024D01*
X81782556Y-53258118D01*
X81852174Y-53252256D01*
X81913914Y-53284965D01*
X81915027Y-53286064D01*
X82288181Y-53659218D01*
X82321666Y-53720541D01*
X82324500Y-53746899D01*
X82324500Y-53851918D01*
X82304815Y-53918957D01*
X82252011Y-53964712D01*
X82182853Y-53974656D01*
X82119297Y-53945631D01*
X82116962Y-53943555D01*
X82056042Y-53888019D01*
X82056039Y-53888017D01*
X81882642Y-53780655D01*
X81882635Y-53780651D01*
X81743881Y-53726898D01*
X81692456Y-53706976D01*
X81491976Y-53669500D01*
X81288024Y-53669500D01*
X81087544Y-53706976D01*
X81087541Y-53706976D01*
X81087541Y-53706977D01*
X80897364Y-53780651D01*
X80897357Y-53780655D01*
X80723960Y-53888017D01*
X80723958Y-53888019D01*
X80573237Y-54025418D01*
X80450327Y-54188178D01*
X80359422Y-54370739D01*
X80359417Y-54370752D01*
X80303602Y-54566917D01*
X80284785Y-54769999D01*
X80284785Y-54770000D01*
X79350000Y-54770000D01*
X79350000Y-54698111D01*
X79309493Y-54560156D01*
X79283686Y-54520000D01*
X79922528Y-54520000D01*
X79922528Y-54519999D01*
X79880114Y-54370934D01*
X79880109Y-54370921D01*
X79789245Y-54188443D01*
X79666391Y-54025757D01*
X79515739Y-53888421D01*
X79342413Y-53781101D01*
X79152315Y-53707458D01*
X79152309Y-53707456D01*
X79100001Y-53697677D01*
X79100000Y-53697678D01*
X79100000Y-54334498D01*
X78992315Y-54285320D01*
X78885763Y-54270000D01*
X78814237Y-54270000D01*
X78707685Y-54285320D01*
X78600000Y-54334498D01*
X78600000Y-53697679D01*
X78599998Y-53697677D01*
X78547690Y-53707456D01*
X78547684Y-53707458D01*
X78357586Y-53781101D01*
X78184260Y-53888421D01*
X78183034Y-53889539D01*
X78182317Y-53889888D01*
X78179688Y-53891874D01*
X78179299Y-53891359D01*
X78120229Y-53920153D01*
X78050842Y-53911952D01*
X77996904Y-53867540D01*
X77975539Y-53801017D01*
X77975500Y-53797898D01*
X77975500Y-53571803D01*
X77978139Y-53546358D01*
X77978785Y-53543274D01*
X77980367Y-53535731D01*
X77977993Y-53516686D01*
X77975977Y-53500508D01*
X77975500Y-53492832D01*
X77975500Y-53488889D01*
X77975499Y-53488883D01*
X77974994Y-53485859D01*
X77971655Y-53465847D01*
X77965491Y-53416392D01*
X77964865Y-53411373D01*
X77962617Y-53403827D01*
X77960065Y-53396390D01*
X77933942Y-53348119D01*
X77909826Y-53298788D01*
X77909823Y-53298785D01*
X77909823Y-53298784D01*
X77905267Y-53292402D01*
X77900423Y-53286178D01*
X77900419Y-53286174D01*
X77860041Y-53249003D01*
X77369710Y-52758672D01*
X77336225Y-52697349D01*
X77340667Y-52635234D01*
X77339013Y-52634764D01*
X77346536Y-52608325D01*
X77396397Y-52433083D01*
X77415215Y-52230000D01*
X77744785Y-52230000D01*
X77763602Y-52433082D01*
X77819417Y-52629247D01*
X77819422Y-52629260D01*
X77910327Y-52811821D01*
X78033237Y-52974581D01*
X78183958Y-53111980D01*
X78183960Y-53111982D01*
X78283141Y-53173392D01*
X78357363Y-53219348D01*
X78547544Y-53293024D01*
X78748024Y-53330500D01*
X78748026Y-53330500D01*
X78951974Y-53330500D01*
X78951976Y-53330500D01*
X79152456Y-53293024D01*
X79342637Y-53219348D01*
X79516041Y-53111981D01*
X79666764Y-52974579D01*
X79789673Y-52811821D01*
X79880582Y-52629250D01*
X79936397Y-52433083D01*
X79955215Y-52230000D01*
X79936397Y-52026917D01*
X79880582Y-51830750D01*
X79789673Y-51648179D01*
X79666764Y-51485421D01*
X79666762Y-51485418D01*
X79516041Y-51348019D01*
X79516039Y-51348017D01*
X79342642Y-51240655D01*
X79342635Y-51240651D01*
X79184658Y-51179451D01*
X79152456Y-51166976D01*
X78951976Y-51129500D01*
X78748024Y-51129500D01*
X78547544Y-51166976D01*
X78547541Y-51166976D01*
X78547541Y-51166977D01*
X78357364Y-51240651D01*
X78357357Y-51240655D01*
X78183960Y-51348017D01*
X78183958Y-51348019D01*
X78033237Y-51485418D01*
X77910327Y-51648178D01*
X77819422Y-51830739D01*
X77819417Y-51830752D01*
X77763602Y-52026917D01*
X77744785Y-52229999D01*
X77744785Y-52230000D01*
X77415215Y-52230000D01*
X77396397Y-52026917D01*
X77340582Y-51830750D01*
X77249673Y-51648179D01*
X77126764Y-51485421D01*
X77126762Y-51485418D01*
X76976041Y-51348019D01*
X76976039Y-51348017D01*
X76802642Y-51240655D01*
X76802635Y-51240651D01*
X76644658Y-51179451D01*
X76612456Y-51166976D01*
X76411976Y-51129500D01*
X76208024Y-51129500D01*
X76007544Y-51166976D01*
X76007541Y-51166976D01*
X76007541Y-51166977D01*
X75817364Y-51240651D01*
X75817357Y-51240655D01*
X75643960Y-51348017D01*
X75643958Y-51348019D01*
X75493237Y-51485418D01*
X75370327Y-51648178D01*
X75279422Y-51830739D01*
X75279417Y-51830752D01*
X75223602Y-52026917D01*
X75204785Y-52229999D01*
X75204785Y-52230000D01*
X75223602Y-52433082D01*
X75279417Y-52629247D01*
X75279422Y-52629260D01*
X75370327Y-52811821D01*
X75493237Y-52974581D01*
X75643958Y-53111980D01*
X75643960Y-53111982D01*
X75743141Y-53173392D01*
X75817363Y-53219348D01*
X76007544Y-53293024D01*
X76208024Y-53330500D01*
X76208026Y-53330500D01*
X76411974Y-53330500D01*
X76411976Y-53330500D01*
X76612456Y-53293024D01*
X76702556Y-53258118D01*
X76772174Y-53252256D01*
X76833914Y-53284965D01*
X76835027Y-53286064D01*
X77188182Y-53639219D01*
X77221666Y-53700540D01*
X77224500Y-53726898D01*
X77224500Y-53833685D01*
X77204815Y-53900724D01*
X77152011Y-53946479D01*
X77082853Y-53956423D01*
X77019297Y-53927398D01*
X77016963Y-53925323D01*
X76976041Y-53888019D01*
X76976039Y-53888017D01*
X76802642Y-53780655D01*
X76802635Y-53780651D01*
X76663881Y-53726898D01*
X76612456Y-53706976D01*
X76411976Y-53669500D01*
X76208024Y-53669500D01*
X76007544Y-53706976D01*
X76007541Y-53706976D01*
X76007541Y-53706977D01*
X75817364Y-53780651D01*
X75817357Y-53780655D01*
X75643960Y-53888017D01*
X75643958Y-53888019D01*
X75493237Y-54025418D01*
X75370327Y-54188178D01*
X75279422Y-54370739D01*
X75279417Y-54370752D01*
X75223602Y-54566917D01*
X75204785Y-54769999D01*
X75204785Y-54770000D01*
X74875215Y-54770000D01*
X74856397Y-54566917D01*
X74800582Y-54370750D01*
X74767998Y-54305313D01*
X74739285Y-54247649D01*
X74709673Y-54188179D01*
X74586764Y-54025421D01*
X74586762Y-54025418D01*
X74436041Y-53888019D01*
X74436039Y-53888017D01*
X74262642Y-53780655D01*
X74262635Y-53780651D01*
X74123881Y-53726898D01*
X74072456Y-53706976D01*
X73871976Y-53669500D01*
X73668024Y-53669500D01*
X73467544Y-53706976D01*
X73467541Y-53706976D01*
X73467541Y-53706977D01*
X73277364Y-53780651D01*
X73277357Y-53780655D01*
X73103960Y-53888017D01*
X73103958Y-53888019D01*
X72953237Y-54025418D01*
X72830327Y-54188178D01*
X72739422Y-54370739D01*
X72739417Y-54370752D01*
X72683602Y-54566917D01*
X72664785Y-54769999D01*
X72664785Y-54770000D01*
X72335215Y-54770000D01*
X72316397Y-54566917D01*
X72260582Y-54370750D01*
X72227998Y-54305313D01*
X72199285Y-54247649D01*
X72169673Y-54188179D01*
X72046764Y-54025421D01*
X72046762Y-54025418D01*
X71896041Y-53888019D01*
X71896039Y-53888017D01*
X71722642Y-53780655D01*
X71722635Y-53780651D01*
X71583881Y-53726898D01*
X71532456Y-53706976D01*
X71331976Y-53669500D01*
X71128024Y-53669500D01*
X70927544Y-53706976D01*
X70927541Y-53706976D01*
X70927541Y-53706977D01*
X70737364Y-53780651D01*
X70737357Y-53780655D01*
X70563960Y-53888017D01*
X70563958Y-53888019D01*
X70413237Y-54025418D01*
X70290327Y-54188178D01*
X70199422Y-54370739D01*
X70199417Y-54370752D01*
X70143602Y-54566917D01*
X70124785Y-54769999D01*
X70124785Y-54770000D01*
X69795215Y-54770000D01*
X69776397Y-54566917D01*
X69720582Y-54370750D01*
X69687998Y-54305313D01*
X69659285Y-54247649D01*
X69629673Y-54188179D01*
X69506764Y-54025421D01*
X69506762Y-54025418D01*
X69356041Y-53888019D01*
X69356039Y-53888017D01*
X69182642Y-53780655D01*
X69182635Y-53780651D01*
X69043881Y-53726898D01*
X68992456Y-53706976D01*
X68791976Y-53669500D01*
X68588024Y-53669500D01*
X68387544Y-53706976D01*
X68387541Y-53706976D01*
X68387541Y-53706977D01*
X68197364Y-53780651D01*
X68197357Y-53780655D01*
X68023960Y-53888017D01*
X68023958Y-53888019D01*
X67873237Y-54025418D01*
X67750327Y-54188178D01*
X67659422Y-54370739D01*
X67659417Y-54370752D01*
X67603602Y-54566917D01*
X67584785Y-54769999D01*
X67584785Y-54770000D01*
X67255215Y-54770000D01*
X67236397Y-54566917D01*
X67180582Y-54370750D01*
X67147998Y-54305313D01*
X67119285Y-54247649D01*
X67089673Y-54188179D01*
X66966764Y-54025421D01*
X66966762Y-54025418D01*
X66816041Y-53888019D01*
X66816039Y-53888017D01*
X66642642Y-53780655D01*
X66642635Y-53780651D01*
X66503881Y-53726898D01*
X66452456Y-53706976D01*
X66251976Y-53669500D01*
X66048024Y-53669500D01*
X65847544Y-53706976D01*
X65847541Y-53706976D01*
X65847541Y-53706977D01*
X65657364Y-53780651D01*
X65657357Y-53780655D01*
X65483960Y-53888017D01*
X65483958Y-53888019D01*
X65333237Y-54025418D01*
X65210327Y-54188178D01*
X65119422Y-54370739D01*
X65119417Y-54370752D01*
X65063602Y-54566917D01*
X65044785Y-54769999D01*
X65044785Y-54770000D01*
X64715215Y-54770000D01*
X64696397Y-54566917D01*
X64640582Y-54370750D01*
X64607998Y-54305313D01*
X64579285Y-54247649D01*
X64549673Y-54188179D01*
X64426764Y-54025421D01*
X64426762Y-54025418D01*
X64276041Y-53888019D01*
X64276039Y-53888017D01*
X64102642Y-53780655D01*
X64102635Y-53780651D01*
X63963881Y-53726898D01*
X63912456Y-53706976D01*
X63711976Y-53669500D01*
X63508024Y-53669500D01*
X63307544Y-53706976D01*
X63307541Y-53706976D01*
X63307541Y-53706977D01*
X63117364Y-53780651D01*
X63117357Y-53780655D01*
X62943960Y-53888017D01*
X62943958Y-53888019D01*
X62793237Y-54025418D01*
X62670327Y-54188178D01*
X62579422Y-54370739D01*
X62579417Y-54370752D01*
X62523602Y-54566917D01*
X62504785Y-54769999D01*
X62504785Y-54770000D01*
X62175215Y-54770000D01*
X62156397Y-54566917D01*
X62100582Y-54370750D01*
X62067998Y-54305313D01*
X62039285Y-54247649D01*
X62009673Y-54188179D01*
X61886764Y-54025421D01*
X61886762Y-54025418D01*
X61736041Y-53888019D01*
X61736039Y-53888017D01*
X61562642Y-53780655D01*
X61562635Y-53780651D01*
X61423881Y-53726898D01*
X61372456Y-53706976D01*
X61171976Y-53669500D01*
X60968024Y-53669500D01*
X60767544Y-53706976D01*
X60767541Y-53706976D01*
X60767541Y-53706977D01*
X60577364Y-53780651D01*
X60577357Y-53780655D01*
X60403960Y-53888017D01*
X60403958Y-53888019D01*
X60253237Y-54025418D01*
X60130327Y-54188178D01*
X60039422Y-54370739D01*
X60039417Y-54370752D01*
X59983602Y-54566917D01*
X59964785Y-54769999D01*
X59964785Y-54770000D01*
X59030000Y-54770000D01*
X59030000Y-54698111D01*
X58989493Y-54560156D01*
X58963686Y-54520000D01*
X59602528Y-54520000D01*
X59602528Y-54519999D01*
X59560114Y-54370934D01*
X59560109Y-54370921D01*
X59469245Y-54188443D01*
X59346391Y-54025757D01*
X59195739Y-53888421D01*
X59022413Y-53781101D01*
X58832315Y-53707458D01*
X58832309Y-53707456D01*
X58780001Y-53697677D01*
X58780000Y-53697679D01*
X58780000Y-54334498D01*
X58672315Y-54285320D01*
X58565763Y-54270000D01*
X58494237Y-54270000D01*
X58387685Y-54285320D01*
X58280000Y-54334498D01*
X58280000Y-53697679D01*
X58279998Y-53697677D01*
X58227690Y-53707456D01*
X58227684Y-53707458D01*
X58037586Y-53781101D01*
X57864260Y-53888421D01*
X57713608Y-54025757D01*
X57590754Y-54188443D01*
X57499890Y-54370921D01*
X57499885Y-54370934D01*
X57457471Y-54519999D01*
X57063048Y-54519999D01*
X57020582Y-54370750D01*
X56987998Y-54305313D01*
X56959285Y-54247649D01*
X56929673Y-54188179D01*
X56806764Y-54025421D01*
X56806762Y-54025418D01*
X56656041Y-53888019D01*
X56656039Y-53888017D01*
X56482642Y-53780655D01*
X56482635Y-53780651D01*
X56343881Y-53726898D01*
X56292456Y-53706976D01*
X56091976Y-53669500D01*
X55888024Y-53669500D01*
X55687544Y-53706976D01*
X55687541Y-53706976D01*
X55687541Y-53706977D01*
X55497364Y-53780651D01*
X55497357Y-53780655D01*
X55323960Y-53888017D01*
X55323958Y-53888019D01*
X55173237Y-54025418D01*
X55050327Y-54188178D01*
X54959422Y-54370739D01*
X54959417Y-54370752D01*
X54903602Y-54566917D01*
X54884785Y-54769999D01*
X54884785Y-54770000D01*
X54555215Y-54770000D01*
X54536397Y-54566917D01*
X54480582Y-54370750D01*
X54447998Y-54305313D01*
X54419285Y-54247649D01*
X54389673Y-54188179D01*
X54266764Y-54025421D01*
X54266762Y-54025418D01*
X54116041Y-53888019D01*
X54116039Y-53888017D01*
X53942642Y-53780655D01*
X53942635Y-53780651D01*
X53803881Y-53726898D01*
X53752456Y-53706976D01*
X53551976Y-53669500D01*
X53348024Y-53669500D01*
X53147544Y-53706976D01*
X53147541Y-53706976D01*
X53147541Y-53706977D01*
X52957364Y-53780651D01*
X52957357Y-53780655D01*
X52783960Y-53888017D01*
X52783958Y-53888019D01*
X52633237Y-54025418D01*
X52510327Y-54188178D01*
X52419422Y-54370739D01*
X52419417Y-54370752D01*
X52363602Y-54566917D01*
X52344785Y-54769999D01*
X52344785Y-54770000D01*
X52015215Y-54770000D01*
X51996397Y-54566917D01*
X51940582Y-54370750D01*
X51907998Y-54305313D01*
X51879285Y-54247649D01*
X51849673Y-54188179D01*
X51726764Y-54025421D01*
X51726762Y-54025418D01*
X51576041Y-53888019D01*
X51576039Y-53888017D01*
X51402642Y-53780655D01*
X51402635Y-53780651D01*
X51263881Y-53726898D01*
X51212456Y-53706976D01*
X51011976Y-53669500D01*
X50808024Y-53669500D01*
X50607544Y-53706976D01*
X50607541Y-53706976D01*
X50607541Y-53706977D01*
X50417364Y-53780651D01*
X50417357Y-53780655D01*
X50243960Y-53888017D01*
X50243958Y-53888019D01*
X50093237Y-54025418D01*
X49970327Y-54188178D01*
X49879422Y-54370739D01*
X49879417Y-54370752D01*
X49823602Y-54566917D01*
X49804785Y-54769999D01*
X49804785Y-54770000D01*
X49470500Y-54770000D01*
X49470500Y-53895326D01*
X49470500Y-53895323D01*
X49470499Y-53895321D01*
X49455967Y-53822264D01*
X49455966Y-53822260D01*
X49429122Y-53782085D01*
X49400601Y-53739399D01*
X49317740Y-53684034D01*
X49317739Y-53684033D01*
X49317735Y-53684032D01*
X49244677Y-53669500D01*
X49244674Y-53669500D01*
X47495326Y-53669500D01*
X47495323Y-53669500D01*
X47422264Y-53684032D01*
X47422260Y-53684033D01*
X47339399Y-53739399D01*
X47284033Y-53822260D01*
X47284032Y-53822264D01*
X47269500Y-53895321D01*
X47269500Y-55644678D01*
X45977762Y-55644678D01*
X46032258Y-55585480D01*
X46246309Y-55294253D01*
X46427023Y-54981247D01*
X46572207Y-54650260D01*
X46680099Y-54305310D01*
X46749389Y-53950586D01*
X46754419Y-53889888D01*
X46769535Y-53707456D01*
X46779235Y-53590391D01*
X46769276Y-53229100D01*
X46719633Y-52871097D01*
X46630907Y-52520728D01*
X46620312Y-52492431D01*
X46522057Y-52230000D01*
X47264785Y-52230000D01*
X47283602Y-52433082D01*
X47339417Y-52629247D01*
X47339422Y-52629260D01*
X47430327Y-52811821D01*
X47553237Y-52974581D01*
X47703958Y-53111980D01*
X47703960Y-53111982D01*
X47803141Y-53173392D01*
X47877363Y-53219348D01*
X48067544Y-53293024D01*
X48268024Y-53330500D01*
X48268026Y-53330500D01*
X48471974Y-53330500D01*
X48471976Y-53330500D01*
X48672456Y-53293024D01*
X48862637Y-53219348D01*
X49036041Y-53111981D01*
X49186764Y-52974579D01*
X49309673Y-52811821D01*
X49400582Y-52629250D01*
X49456397Y-52433083D01*
X49475215Y-52230000D01*
X49804785Y-52230000D01*
X49823602Y-52433082D01*
X49879417Y-52629247D01*
X49879422Y-52629260D01*
X49970327Y-52811821D01*
X50093237Y-52974581D01*
X50243958Y-53111980D01*
X50243960Y-53111982D01*
X50343141Y-53173392D01*
X50417363Y-53219348D01*
X50607544Y-53293024D01*
X50808024Y-53330500D01*
X50808026Y-53330500D01*
X51011974Y-53330500D01*
X51011976Y-53330500D01*
X51212456Y-53293024D01*
X51402637Y-53219348D01*
X51576041Y-53111981D01*
X51726764Y-52974579D01*
X51849673Y-52811821D01*
X51940582Y-52629250D01*
X51996397Y-52433083D01*
X52015215Y-52230000D01*
X51996397Y-52026917D01*
X51983048Y-51979999D01*
X52377471Y-51979999D01*
X52377472Y-51980000D01*
X53016314Y-51980000D01*
X52990507Y-52020156D01*
X52950000Y-52158111D01*
X52950000Y-52301889D01*
X52990507Y-52439844D01*
X53016314Y-52480000D01*
X52377472Y-52480000D01*
X52419885Y-52629065D01*
X52419890Y-52629078D01*
X52510754Y-52811556D01*
X52633608Y-52974242D01*
X52784260Y-53111578D01*
X52957584Y-53218897D01*
X53147678Y-53292539D01*
X53200000Y-53302320D01*
X53200000Y-52665501D01*
X53307685Y-52714680D01*
X53414237Y-52730000D01*
X53485763Y-52730000D01*
X53592315Y-52714680D01*
X53700000Y-52665501D01*
X53700000Y-53302320D01*
X53752321Y-53292539D01*
X53942415Y-53218897D01*
X54115739Y-53111578D01*
X54266391Y-52974242D01*
X54389245Y-52811556D01*
X54480109Y-52629078D01*
X54480114Y-52629065D01*
X54522528Y-52480000D01*
X53883686Y-52480000D01*
X53909493Y-52439844D01*
X53950000Y-52301889D01*
X53950000Y-52230000D01*
X54884785Y-52230000D01*
X54903602Y-52433082D01*
X54959417Y-52629247D01*
X54959422Y-52629260D01*
X55050327Y-52811821D01*
X55173237Y-52974581D01*
X55323958Y-53111980D01*
X55323960Y-53111982D01*
X55423141Y-53173392D01*
X55497363Y-53219348D01*
X55687544Y-53293024D01*
X55888024Y-53330500D01*
X55888026Y-53330500D01*
X56091974Y-53330500D01*
X56091976Y-53330500D01*
X56292456Y-53293024D01*
X56482637Y-53219348D01*
X56656041Y-53111981D01*
X56806764Y-52974579D01*
X56929673Y-52811821D01*
X57020582Y-52629250D01*
X57076397Y-52433083D01*
X57095215Y-52230000D01*
X57424785Y-52230000D01*
X57443602Y-52433082D01*
X57499417Y-52629247D01*
X57499422Y-52629260D01*
X57590327Y-52811821D01*
X57713237Y-52974581D01*
X57863958Y-53111980D01*
X57863960Y-53111982D01*
X57963141Y-53173392D01*
X58037363Y-53219348D01*
X58227544Y-53293024D01*
X58428024Y-53330500D01*
X58428026Y-53330500D01*
X58631974Y-53330500D01*
X58631976Y-53330500D01*
X58832456Y-53293024D01*
X59022637Y-53219348D01*
X59196041Y-53111981D01*
X59346764Y-52974579D01*
X59469673Y-52811821D01*
X59560582Y-52629250D01*
X59616397Y-52433083D01*
X59635215Y-52230000D01*
X59964785Y-52230000D01*
X59983602Y-52433082D01*
X60039417Y-52629247D01*
X60039422Y-52629260D01*
X60130327Y-52811821D01*
X60253237Y-52974581D01*
X60403958Y-53111980D01*
X60403960Y-53111982D01*
X60503141Y-53173392D01*
X60577363Y-53219348D01*
X60767544Y-53293024D01*
X60968024Y-53330500D01*
X60968026Y-53330500D01*
X61171974Y-53330500D01*
X61171976Y-53330500D01*
X61372456Y-53293024D01*
X61562637Y-53219348D01*
X61736041Y-53111981D01*
X61886764Y-52974579D01*
X62009673Y-52811821D01*
X62100582Y-52629250D01*
X62156397Y-52433083D01*
X62175215Y-52230000D01*
X62156397Y-52026917D01*
X62143048Y-51979999D01*
X62537471Y-51979999D01*
X62537472Y-51980000D01*
X63176314Y-51980000D01*
X63150507Y-52020156D01*
X63110000Y-52158111D01*
X63110000Y-52301889D01*
X63150507Y-52439844D01*
X63176314Y-52480000D01*
X62537472Y-52480000D01*
X62579885Y-52629065D01*
X62579890Y-52629078D01*
X62670754Y-52811556D01*
X62793608Y-52974242D01*
X62944260Y-53111578D01*
X63117584Y-53218897D01*
X63307678Y-53292539D01*
X63360000Y-53302320D01*
X63360000Y-52665501D01*
X63467685Y-52714680D01*
X63574237Y-52730000D01*
X63645763Y-52730000D01*
X63752315Y-52714680D01*
X63860000Y-52665501D01*
X63860000Y-53302320D01*
X63912321Y-53292539D01*
X64102415Y-53218897D01*
X64275739Y-53111578D01*
X64426391Y-52974242D01*
X64549245Y-52811556D01*
X64640109Y-52629078D01*
X64640114Y-52629065D01*
X64682528Y-52480000D01*
X64043686Y-52480000D01*
X64069493Y-52439844D01*
X64110000Y-52301889D01*
X64110000Y-52230000D01*
X65044785Y-52230000D01*
X65063602Y-52433082D01*
X65119417Y-52629247D01*
X65119422Y-52629260D01*
X65210327Y-52811821D01*
X65333237Y-52974581D01*
X65483958Y-53111980D01*
X65483960Y-53111982D01*
X65583141Y-53173392D01*
X65657363Y-53219348D01*
X65847544Y-53293024D01*
X66048024Y-53330500D01*
X66048026Y-53330500D01*
X66251974Y-53330500D01*
X66251976Y-53330500D01*
X66452456Y-53293024D01*
X66642637Y-53219348D01*
X66816041Y-53111981D01*
X66966764Y-52974579D01*
X67089673Y-52811821D01*
X67180582Y-52629250D01*
X67236397Y-52433083D01*
X67255215Y-52230000D01*
X67584785Y-52230000D01*
X67603602Y-52433082D01*
X67659417Y-52629247D01*
X67659422Y-52629260D01*
X67750327Y-52811821D01*
X67873237Y-52974581D01*
X68023958Y-53111980D01*
X68023960Y-53111982D01*
X68123141Y-53173392D01*
X68197363Y-53219348D01*
X68387544Y-53293024D01*
X68588024Y-53330500D01*
X68588026Y-53330500D01*
X68791974Y-53330500D01*
X68791976Y-53330500D01*
X68992456Y-53293024D01*
X69182637Y-53219348D01*
X69356041Y-53111981D01*
X69506764Y-52974579D01*
X69629673Y-52811821D01*
X69720582Y-52629250D01*
X69776397Y-52433083D01*
X69795215Y-52230000D01*
X69776397Y-52026917D01*
X69763048Y-51979999D01*
X70157471Y-51979999D01*
X70157472Y-51980000D01*
X70796314Y-51980000D01*
X70770507Y-52020156D01*
X70730000Y-52158111D01*
X70730000Y-52301889D01*
X70770507Y-52439844D01*
X70796314Y-52480000D01*
X70157472Y-52480000D01*
X70199885Y-52629065D01*
X70199890Y-52629078D01*
X70290754Y-52811556D01*
X70413608Y-52974242D01*
X70564260Y-53111578D01*
X70737584Y-53218897D01*
X70927678Y-53292539D01*
X70980000Y-53302320D01*
X70980000Y-52665501D01*
X71087685Y-52714680D01*
X71194237Y-52730000D01*
X71265763Y-52730000D01*
X71372315Y-52714680D01*
X71480000Y-52665501D01*
X71480000Y-53302320D01*
X71532321Y-53292539D01*
X71722415Y-53218897D01*
X71895739Y-53111578D01*
X72046391Y-52974242D01*
X72169245Y-52811556D01*
X72260109Y-52629078D01*
X72260114Y-52629065D01*
X72302528Y-52480000D01*
X71663686Y-52480000D01*
X71689493Y-52439844D01*
X71730000Y-52301889D01*
X71730000Y-52230000D01*
X72664785Y-52230000D01*
X72683602Y-52433082D01*
X72739417Y-52629247D01*
X72739422Y-52629260D01*
X72830327Y-52811821D01*
X72953237Y-52974581D01*
X73103958Y-53111980D01*
X73103960Y-53111982D01*
X73203141Y-53173392D01*
X73277363Y-53219348D01*
X73467544Y-53293024D01*
X73668024Y-53330500D01*
X73668026Y-53330500D01*
X73871974Y-53330500D01*
X73871976Y-53330500D01*
X74072456Y-53293024D01*
X74262637Y-53219348D01*
X74436041Y-53111981D01*
X74586764Y-52974579D01*
X74709673Y-52811821D01*
X74800582Y-52629250D01*
X74856397Y-52433083D01*
X74875215Y-52230000D01*
X74856397Y-52026917D01*
X74800582Y-51830750D01*
X74709673Y-51648179D01*
X74586764Y-51485421D01*
X74586762Y-51485418D01*
X74436041Y-51348019D01*
X74436039Y-51348017D01*
X74262642Y-51240655D01*
X74262635Y-51240651D01*
X74104658Y-51179451D01*
X74072456Y-51166976D01*
X73871976Y-51129500D01*
X73668024Y-51129500D01*
X73467544Y-51166976D01*
X73467541Y-51166976D01*
X73467541Y-51166977D01*
X73277364Y-51240651D01*
X73277357Y-51240655D01*
X73103960Y-51348017D01*
X73103958Y-51348019D01*
X72953237Y-51485418D01*
X72830327Y-51648178D01*
X72739422Y-51830739D01*
X72739417Y-51830752D01*
X72683602Y-52026917D01*
X72664785Y-52229999D01*
X72664785Y-52230000D01*
X71730000Y-52230000D01*
X71730000Y-52158111D01*
X71689493Y-52020156D01*
X71663686Y-51980000D01*
X72302528Y-51980000D01*
X72302528Y-51979999D01*
X72260114Y-51830934D01*
X72260109Y-51830921D01*
X72169245Y-51648443D01*
X72046391Y-51485757D01*
X71895739Y-51348421D01*
X71722413Y-51241101D01*
X71532315Y-51167458D01*
X71532309Y-51167456D01*
X71480001Y-51157677D01*
X71480000Y-51157679D01*
X71480000Y-51794498D01*
X71372315Y-51745320D01*
X71265763Y-51730000D01*
X71194237Y-51730000D01*
X71087685Y-51745320D01*
X70980000Y-51794498D01*
X70980000Y-51157679D01*
X70979998Y-51157677D01*
X70927690Y-51167456D01*
X70927684Y-51167458D01*
X70737586Y-51241101D01*
X70564260Y-51348421D01*
X70413608Y-51485757D01*
X70290754Y-51648443D01*
X70199890Y-51830921D01*
X70199885Y-51830934D01*
X70157471Y-51979999D01*
X69763048Y-51979999D01*
X69720582Y-51830750D01*
X69629673Y-51648179D01*
X69506764Y-51485421D01*
X69506762Y-51485418D01*
X69356041Y-51348019D01*
X69356039Y-51348017D01*
X69182642Y-51240655D01*
X69182635Y-51240651D01*
X69024658Y-51179451D01*
X68992456Y-51166976D01*
X68791976Y-51129500D01*
X68588024Y-51129500D01*
X68387544Y-51166976D01*
X68387541Y-51166976D01*
X68387541Y-51166977D01*
X68197364Y-51240651D01*
X68197357Y-51240655D01*
X68023960Y-51348017D01*
X68023958Y-51348019D01*
X67873237Y-51485418D01*
X67750327Y-51648178D01*
X67659422Y-51830739D01*
X67659417Y-51830752D01*
X67603602Y-52026917D01*
X67584785Y-52229999D01*
X67584785Y-52230000D01*
X67255215Y-52230000D01*
X67236397Y-52026917D01*
X67180582Y-51830750D01*
X67089673Y-51648179D01*
X66966764Y-51485421D01*
X66966762Y-51485418D01*
X66816041Y-51348019D01*
X66816039Y-51348017D01*
X66642642Y-51240655D01*
X66642635Y-51240651D01*
X66484658Y-51179451D01*
X66452456Y-51166976D01*
X66251976Y-51129500D01*
X66048024Y-51129500D01*
X65847544Y-51166976D01*
X65847541Y-51166976D01*
X65847541Y-51166977D01*
X65657364Y-51240651D01*
X65657357Y-51240655D01*
X65483960Y-51348017D01*
X65483958Y-51348019D01*
X65333237Y-51485418D01*
X65210327Y-51648178D01*
X65119422Y-51830739D01*
X65119417Y-51830752D01*
X65063602Y-52026917D01*
X65044785Y-52229999D01*
X65044785Y-52230000D01*
X64110000Y-52230000D01*
X64110000Y-52158111D01*
X64069493Y-52020156D01*
X64043686Y-51980000D01*
X64682528Y-51980000D01*
X64682528Y-51979999D01*
X64640114Y-51830934D01*
X64640109Y-51830921D01*
X64549245Y-51648443D01*
X64426391Y-51485757D01*
X64275739Y-51348421D01*
X64102413Y-51241101D01*
X63912315Y-51167458D01*
X63912309Y-51167456D01*
X63860001Y-51157677D01*
X63860000Y-51157679D01*
X63860000Y-51794498D01*
X63752315Y-51745320D01*
X63645763Y-51730000D01*
X63574237Y-51730000D01*
X63467685Y-51745320D01*
X63360000Y-51794498D01*
X63360000Y-51157679D01*
X63359998Y-51157677D01*
X63307690Y-51167456D01*
X63307684Y-51167458D01*
X63117586Y-51241101D01*
X62944260Y-51348421D01*
X62793608Y-51485757D01*
X62670754Y-51648443D01*
X62579890Y-51830921D01*
X62579885Y-51830934D01*
X62537471Y-51979999D01*
X62143048Y-51979999D01*
X62100582Y-51830750D01*
X62009673Y-51648179D01*
X61886764Y-51485421D01*
X61886762Y-51485418D01*
X61736041Y-51348019D01*
X61736039Y-51348017D01*
X61562642Y-51240655D01*
X61562635Y-51240651D01*
X61404658Y-51179451D01*
X61372456Y-51166976D01*
X61171976Y-51129500D01*
X60968024Y-51129500D01*
X60767544Y-51166976D01*
X60767541Y-51166976D01*
X60767541Y-51166977D01*
X60577364Y-51240651D01*
X60577357Y-51240655D01*
X60403960Y-51348017D01*
X60403958Y-51348019D01*
X60253237Y-51485418D01*
X60130327Y-51648178D01*
X60039422Y-51830739D01*
X60039417Y-51830752D01*
X59983602Y-52026917D01*
X59964785Y-52229999D01*
X59964785Y-52230000D01*
X59635215Y-52230000D01*
X59616397Y-52026917D01*
X59560582Y-51830750D01*
X59469673Y-51648179D01*
X59346764Y-51485421D01*
X59346762Y-51485418D01*
X59196041Y-51348019D01*
X59196039Y-51348017D01*
X59022642Y-51240655D01*
X59022635Y-51240651D01*
X58864658Y-51179451D01*
X58832456Y-51166976D01*
X58631976Y-51129500D01*
X58428024Y-51129500D01*
X58227544Y-51166976D01*
X58227541Y-51166976D01*
X58227541Y-51166977D01*
X58037364Y-51240651D01*
X58037357Y-51240655D01*
X57863960Y-51348017D01*
X57863958Y-51348019D01*
X57713237Y-51485418D01*
X57590327Y-51648178D01*
X57499422Y-51830739D01*
X57499417Y-51830752D01*
X57443602Y-52026917D01*
X57424785Y-52229999D01*
X57424785Y-52230000D01*
X57095215Y-52230000D01*
X57076397Y-52026917D01*
X57020582Y-51830750D01*
X56929673Y-51648179D01*
X56806764Y-51485421D01*
X56806762Y-51485418D01*
X56656041Y-51348019D01*
X56656039Y-51348017D01*
X56482642Y-51240655D01*
X56482635Y-51240651D01*
X56324658Y-51179451D01*
X56292456Y-51166976D01*
X56091976Y-51129500D01*
X55888024Y-51129500D01*
X55687544Y-51166976D01*
X55687541Y-51166976D01*
X55687541Y-51166977D01*
X55497364Y-51240651D01*
X55497357Y-51240655D01*
X55323960Y-51348017D01*
X55323958Y-51348019D01*
X55173237Y-51485418D01*
X55050327Y-51648178D01*
X54959422Y-51830739D01*
X54959417Y-51830752D01*
X54903602Y-52026917D01*
X54884785Y-52229999D01*
X54884785Y-52230000D01*
X53950000Y-52230000D01*
X53950000Y-52158111D01*
X53909493Y-52020156D01*
X53883686Y-51980000D01*
X54522528Y-51980000D01*
X54522528Y-51979999D01*
X54480114Y-51830934D01*
X54480109Y-51830921D01*
X54389245Y-51648443D01*
X54266391Y-51485757D01*
X54115739Y-51348421D01*
X53942413Y-51241101D01*
X53752315Y-51167458D01*
X53752309Y-51167456D01*
X53700001Y-51157677D01*
X53700000Y-51157679D01*
X53700000Y-51794498D01*
X53592315Y-51745320D01*
X53485763Y-51730000D01*
X53414237Y-51730000D01*
X53307685Y-51745320D01*
X53199999Y-51794498D01*
X53200000Y-51157679D01*
X53199998Y-51157677D01*
X53147690Y-51167456D01*
X53147684Y-51167458D01*
X52957586Y-51241101D01*
X52784260Y-51348421D01*
X52633608Y-51485757D01*
X52510754Y-51648443D01*
X52419890Y-51830921D01*
X52419885Y-51830934D01*
X52377471Y-51979999D01*
X51983048Y-51979999D01*
X51940582Y-51830750D01*
X51849673Y-51648179D01*
X51726764Y-51485421D01*
X51726762Y-51485418D01*
X51576041Y-51348019D01*
X51576039Y-51348017D01*
X51402642Y-51240655D01*
X51402635Y-51240651D01*
X51244658Y-51179451D01*
X51212456Y-51166976D01*
X51011976Y-51129500D01*
X50808024Y-51129500D01*
X50607544Y-51166976D01*
X50607541Y-51166976D01*
X50607541Y-51166977D01*
X50417364Y-51240651D01*
X50417357Y-51240655D01*
X50243960Y-51348017D01*
X50243958Y-51348019D01*
X50093237Y-51485418D01*
X49970327Y-51648178D01*
X49879422Y-51830739D01*
X49879417Y-51830752D01*
X49823602Y-52026917D01*
X49804785Y-52229999D01*
X49804785Y-52230000D01*
X49475215Y-52230000D01*
X49456397Y-52026917D01*
X49400582Y-51830750D01*
X49309673Y-51648179D01*
X49186764Y-51485421D01*
X49186762Y-51485418D01*
X49036041Y-51348019D01*
X49036039Y-51348017D01*
X48862642Y-51240655D01*
X48862635Y-51240651D01*
X48704658Y-51179451D01*
X48672456Y-51166976D01*
X48471976Y-51129500D01*
X48268024Y-51129500D01*
X48067544Y-51166976D01*
X48067541Y-51166976D01*
X48067541Y-51166977D01*
X47877364Y-51240651D01*
X47877357Y-51240655D01*
X47703960Y-51348017D01*
X47703958Y-51348019D01*
X47553237Y-51485418D01*
X47430327Y-51648178D01*
X47339422Y-51830739D01*
X47339417Y-51830752D01*
X47283602Y-52026917D01*
X47264785Y-52229999D01*
X47264785Y-52230000D01*
X46522057Y-52230000D01*
X46504180Y-52182253D01*
X46504178Y-52182250D01*
X46504177Y-52182246D01*
X46340980Y-51859760D01*
X46143297Y-51557184D01*
X45913528Y-51278191D01*
X45809102Y-51176604D01*
X45654460Y-51026165D01*
X45369246Y-50804173D01*
X45369244Y-50804172D01*
X45061333Y-50614901D01*
X45061329Y-50614899D01*
X44734489Y-50460660D01*
X44734485Y-50460658D01*
X44734476Y-50460654D01*
X44734470Y-50460652D01*
X44734468Y-50460651D01*
X44392638Y-50343300D01*
X44392631Y-50343298D01*
X44392630Y-50343298D01*
X44290893Y-50320498D01*
X44229782Y-50286630D01*
X44196682Y-50225099D01*
X44202103Y-50155440D01*
X44244324Y-50099769D01*
X44309940Y-50075763D01*
X44318011Y-50075500D01*
X100678499Y-50075500D01*
X100745538Y-50095185D01*
G37*
%TD.AperFunction*%
%TD*%
M02*
