%TF.GenerationSoftware,KiCad,Pcbnew,7.0.6*%
%TF.CreationDate,2023-08-14T14:17:20+01:00*%
%TF.ProjectId,canhat,63616e68-6174-42e6-9b69-6361645f7063,8*%
%TF.SameCoordinates,Original*%
%TF.FileFunction,Copper,L1,Top*%
%TF.FilePolarity,Positive*%
%FSLAX46Y46*%
G04 Gerber Fmt 4.6, Leading zero omitted, Abs format (unit mm)*
G04 Created by KiCad (PCBNEW 7.0.6) date 2023-08-14 14:17:20*
%MOMM*%
%LPD*%
G01*
G04 APERTURE LIST*
G04 Aperture macros list*
%AMRoundRect*
0 Rectangle with rounded corners*
0 $1 Rounding radius*
0 $2 $3 $4 $5 $6 $7 $8 $9 X,Y pos of 4 corners*
0 Add a 4 corners polygon primitive as box body*
4,1,4,$2,$3,$4,$5,$6,$7,$8,$9,$2,$3,0*
0 Add four circle primitives for the rounded corners*
1,1,$1+$1,$2,$3*
1,1,$1+$1,$4,$5*
1,1,$1+$1,$6,$7*
1,1,$1+$1,$8,$9*
0 Add four rect primitives between the rounded corners*
20,1,$1+$1,$2,$3,$4,$5,0*
20,1,$1+$1,$4,$5,$6,$7,0*
20,1,$1+$1,$6,$7,$8,$9,0*
20,1,$1+$1,$8,$9,$2,$3,0*%
%AMFreePoly0*
4,1,19,0.500000,-0.750000,0.000000,-0.750000,0.000000,-0.744911,-0.071157,-0.744911,-0.207708,-0.704816,-0.327430,-0.627875,-0.420627,-0.520320,-0.479746,-0.390866,-0.500000,-0.250000,-0.500000,0.250000,-0.479746,0.390866,-0.420627,0.520320,-0.327430,0.627875,-0.207708,0.704816,-0.071157,0.744911,0.000000,0.744911,0.000000,0.750000,0.500000,0.750000,0.500000,-0.750000,0.500000,-0.750000,
$1*%
%AMFreePoly1*
4,1,19,0.000000,0.744911,0.071157,0.744911,0.207708,0.704816,0.327430,0.627875,0.420627,0.520320,0.479746,0.390866,0.500000,0.250000,0.500000,-0.250000,0.479746,-0.390866,0.420627,-0.520320,0.327430,-0.627875,0.207708,-0.704816,0.071157,-0.744911,0.000000,-0.744911,0.000000,-0.750000,-0.500000,-0.750000,-0.500000,0.750000,0.000000,0.750000,0.000000,0.744911,0.000000,0.744911,
$1*%
G04 Aperture macros list end*
%TA.AperFunction,SMDPad,CuDef*%
%ADD10RoundRect,0.250000X0.350000X0.450000X-0.350000X0.450000X-0.350000X-0.450000X0.350000X-0.450000X0*%
%TD*%
%TA.AperFunction,SMDPad,CuDef*%
%ADD11RoundRect,0.250000X0.475000X-0.337500X0.475000X0.337500X-0.475000X0.337500X-0.475000X-0.337500X0*%
%TD*%
%TA.AperFunction,SMDPad,CuDef*%
%ADD12RoundRect,0.250000X-0.475000X0.337500X-0.475000X-0.337500X0.475000X-0.337500X0.475000X0.337500X0*%
%TD*%
%TA.AperFunction,SMDPad,CuDef*%
%ADD13RoundRect,0.150000X0.150000X-0.875000X0.150000X0.875000X-0.150000X0.875000X-0.150000X-0.875000X0*%
%TD*%
%TA.AperFunction,SMDPad,CuDef*%
%ADD14RoundRect,0.150000X0.825000X0.150000X-0.825000X0.150000X-0.825000X-0.150000X0.825000X-0.150000X0*%
%TD*%
%TA.AperFunction,SMDPad,CuDef*%
%ADD15RoundRect,0.250000X0.337500X0.475000X-0.337500X0.475000X-0.337500X-0.475000X0.337500X-0.475000X0*%
%TD*%
%TA.AperFunction,ComponentPad*%
%ADD16R,1.700000X1.700000*%
%TD*%
%TA.AperFunction,ComponentPad*%
%ADD17O,1.700000X1.700000*%
%TD*%
%TA.AperFunction,SMDPad,CuDef*%
%ADD18RoundRect,0.150000X-0.825000X-0.150000X0.825000X-0.150000X0.825000X0.150000X-0.825000X0.150000X0*%
%TD*%
%TA.AperFunction,SMDPad,CuDef*%
%ADD19R,2.000000X4.500000*%
%TD*%
%TA.AperFunction,ComponentPad*%
%ADD20R,2.200000X2.200000*%
%TD*%
%TA.AperFunction,ComponentPad*%
%ADD21C,2.200000*%
%TD*%
%TA.AperFunction,SMDPad,CuDef*%
%ADD22RoundRect,0.250001X-0.799999X-2.474999X0.799999X-2.474999X0.799999X2.474999X-0.799999X2.474999X0*%
%TD*%
%TA.AperFunction,SMDPad,CuDef*%
%ADD23RoundRect,0.250000X-0.350000X-0.450000X0.350000X-0.450000X0.350000X0.450000X-0.350000X0.450000X0*%
%TD*%
%TA.AperFunction,SMDPad,CuDef*%
%ADD24RoundRect,0.375000X-0.375000X-0.725000X0.375000X-0.725000X0.375000X0.725000X-0.375000X0.725000X0*%
%TD*%
%TA.AperFunction,SMDPad,CuDef*%
%ADD25RoundRect,0.150000X-0.512500X-0.150000X0.512500X-0.150000X0.512500X0.150000X-0.512500X0.150000X0*%
%TD*%
%TA.AperFunction,SMDPad,CuDef*%
%ADD26R,3.500000X1.800000*%
%TD*%
%TA.AperFunction,SMDPad,CuDef*%
%ADD27RoundRect,0.250000X-0.337500X-0.475000X0.337500X-0.475000X0.337500X0.475000X-0.337500X0.475000X0*%
%TD*%
%TA.AperFunction,SMDPad,CuDef*%
%ADD28R,1.000000X1.000000*%
%TD*%
%TA.AperFunction,SMDPad,CuDef*%
%ADD29RoundRect,0.250000X0.450000X-0.350000X0.450000X0.350000X-0.450000X0.350000X-0.450000X-0.350000X0*%
%TD*%
%TA.AperFunction,SMDPad,CuDef*%
%ADD30FreePoly0,270.000000*%
%TD*%
%TA.AperFunction,SMDPad,CuDef*%
%ADD31FreePoly1,270.000000*%
%TD*%
%TA.AperFunction,ViaPad*%
%ADD32C,0.800000*%
%TD*%
%TA.AperFunction,Conductor*%
%ADD33C,0.250000*%
%TD*%
%TA.AperFunction,Conductor*%
%ADD34C,0.200000*%
%TD*%
%TA.AperFunction,Conductor*%
%ADD35C,0.500000*%
%TD*%
G04 APERTURE END LIST*
D10*
%TO.P,R3,1*%
%TO.N,+3V3*%
X102025000Y-71600000D03*
%TO.P,R3,2*%
%TO.N,/ID_SD*%
X100025000Y-71600000D03*
%TD*%
%TO.P,R4,1*%
%TO.N,+3V3*%
X102025000Y-69600000D03*
%TO.P,R4,2*%
%TO.N,/ID_SC*%
X100025000Y-69600000D03*
%TD*%
D11*
%TO.P,C1,1*%
%TO.N,Net-(C1-Pad1)*%
X83500000Y-64037500D03*
%TO.P,C1,2*%
%TO.N,GND*%
X83500000Y-61962500D03*
%TD*%
D12*
%TO.P,C6,1*%
%TO.N,GND*%
X75900000Y-73362500D03*
%TO.P,C6,2*%
%TO.N,Net-(C6-Pad2)*%
X75900000Y-75437500D03*
%TD*%
D10*
%TO.P,R1,1*%
%TO.N,Net-(R1-Pad1)*%
X72700000Y-58000000D03*
%TO.P,R1,2*%
%TO.N,+3V3*%
X70700000Y-58000000D03*
%TD*%
D13*
%TO.P,U1,1,TXCAN*%
%TO.N,/TX*%
X70920000Y-69650000D03*
%TO.P,U1,2,RXCAN*%
%TO.N,/RX*%
X72190000Y-69650000D03*
%TO.P,U1,3,CLKOUT/SOF*%
%TO.N,unconnected-(U1-Pad3)*%
X73460000Y-69650000D03*
%TO.P,U1,4,~{TX0RTS}*%
%TO.N,unconnected-(U1-Pad4)*%
X74730000Y-69650000D03*
%TO.P,U1,5,~{TX1RTS}*%
%TO.N,unconnected-(U1-Pad5)*%
X76000000Y-69650000D03*
%TO.P,U1,6,~{TX2RTS}*%
%TO.N,unconnected-(U1-Pad6)*%
X77270000Y-69650000D03*
%TO.P,U1,7,OSC2*%
%TO.N,Net-(C1-Pad1)*%
X78540000Y-69650000D03*
%TO.P,U1,8,OSC1*%
%TO.N,Net-(C2-Pad1)*%
X79810000Y-69650000D03*
%TO.P,U1,9,VSS*%
%TO.N,GND*%
X81080000Y-69650000D03*
%TO.P,U1,10,~{RX1BF}*%
%TO.N,unconnected-(U1-Pad10)*%
X81080000Y-60350000D03*
%TO.P,U1,11,~{RX0BF}*%
%TO.N,unconnected-(U1-Pad11)*%
X79810000Y-60350000D03*
%TO.P,U1,12,~{INT}*%
%TO.N,/~{INT}*%
X78540000Y-60350000D03*
%TO.P,U1,13,SCK*%
%TO.N,/SCK*%
X77270000Y-60350000D03*
%TO.P,U1,14,SI*%
%TO.N,/MOSI*%
X76000000Y-60350000D03*
%TO.P,U1,15,SO*%
%TO.N,/MISO*%
X74730000Y-60350000D03*
%TO.P,U1,16,~{CS}*%
%TO.N,/~{CS}*%
X73460000Y-60350000D03*
%TO.P,U1,17,~{RESET}*%
%TO.N,Net-(R1-Pad1)*%
X72190000Y-60350000D03*
%TO.P,U1,18,VDD*%
%TO.N,+3V3*%
X70920000Y-60350000D03*
%TD*%
D14*
%TO.P,U2,1,D*%
%TO.N,/TX*%
X73375000Y-78005000D03*
%TO.P,U2,2,GND*%
%TO.N,GND*%
X73375000Y-76735000D03*
%TO.P,U2,3,VCC*%
%TO.N,Net-(C6-Pad2)*%
X73375000Y-75465000D03*
%TO.P,U2,4,R*%
%TO.N,/RX*%
X73375000Y-74195000D03*
%TO.P,U2,5,EN*%
%TO.N,Net-(JP3-Pad1)*%
X68425000Y-74195000D03*
%TO.P,U2,6,CANL*%
%TO.N,/CAN_N*%
X68425000Y-75465000D03*
%TO.P,U2,7,CANH*%
%TO.N,/CAN_P*%
X68425000Y-76735000D03*
%TO.P,U2,8,Rs*%
%TO.N,Net-(U2-Pad8)*%
X68425000Y-78005000D03*
%TD*%
D15*
%TO.P,C7,1*%
%TO.N,+3V3*%
X95737500Y-65400000D03*
%TO.P,C7,2*%
%TO.N,GND*%
X93662500Y-65400000D03*
%TD*%
D16*
%TO.P,JP1,1,A*%
%TO.N,Net-(JP1-Pad1)*%
X98460000Y-64600000D03*
D17*
%TO.P,JP1,2,B*%
%TO.N,GND*%
X101000000Y-64600000D03*
%TD*%
D10*
%TO.P,R2,1*%
%TO.N,+3V3*%
X102025000Y-67600000D03*
%TO.P,R2,2*%
%TO.N,Net-(JP1-Pad1)*%
X100025000Y-67600000D03*
%TD*%
D18*
%TO.P,U3,1,A0*%
%TO.N,GND*%
X92025000Y-67695000D03*
%TO.P,U3,2,A1*%
X92025000Y-68965000D03*
%TO.P,U3,3,A2*%
X92025000Y-70235000D03*
%TO.P,U3,4,GND*%
X92025000Y-71505000D03*
%TO.P,U3,5,SDA*%
%TO.N,/ID_SD*%
X96975000Y-71505000D03*
%TO.P,U3,6,SCL*%
%TO.N,/ID_SC*%
X96975000Y-70235000D03*
%TO.P,U3,7,WP*%
%TO.N,Net-(JP1-Pad1)*%
X96975000Y-68965000D03*
%TO.P,U3,8,VCC*%
%TO.N,+3V3*%
X96975000Y-67695000D03*
%TD*%
D19*
%TO.P,Y1,1,1*%
%TO.N,Net-(C2-Pad1)*%
X87500000Y-70450000D03*
%TO.P,Y1,2,2*%
%TO.N,Net-(C1-Pad1)*%
X87500000Y-61950000D03*
%TD*%
D20*
%TO.P,J2,1,Pin_1*%
%TO.N,GND*%
X50200000Y-76200000D03*
D21*
%TO.P,J2,2,Pin_2*%
%TO.N,/CAN_P*%
X52740000Y-76200000D03*
%TO.P,J2,3,Pin_3*%
%TO.N,/CAN_N*%
X55280000Y-76200000D03*
%TO.P,J2,4,Pin_4*%
X57820000Y-76200000D03*
%TO.P,J2,5,Pin_5*%
%TO.N,/CAN_P*%
X60360000Y-76200000D03*
%TO.P,J2,6,Pin_6*%
%TO.N,GND*%
X62900000Y-76200000D03*
%TD*%
D22*
%TO.P,F1,1*%
%TO.N,+12V*%
X41525000Y-67500000D03*
%TO.P,F1,2*%
%TO.N,+12LF*%
X48475000Y-67500000D03*
%TD*%
D20*
%TO.P,J5,1,Pin_1*%
%TO.N,GND*%
X44000000Y-59430000D03*
D21*
%TO.P,J5,2,Pin_2*%
%TO.N,+12V*%
X44000000Y-61970000D03*
%TD*%
D12*
%TO.P,C3,1*%
%TO.N,+3V3*%
X67900000Y-58050000D03*
%TO.P,C3,2*%
%TO.N,GND*%
X67900000Y-60125000D03*
%TD*%
%TO.P,C4,1*%
%TO.N,+3V3*%
X68700000Y-62962500D03*
%TO.P,C4,2*%
%TO.N,GND*%
X68700000Y-65037500D03*
%TD*%
D16*
%TO.P,J3,1,Pin_1*%
%TO.N,GND*%
X102900000Y-61000000D03*
D17*
%TO.P,J3,2,Pin_2*%
%TO.N,/GPIO21*%
X100360000Y-61000000D03*
%TO.P,J3,3,Pin_3*%
%TO.N,/GPIO26*%
X97820000Y-61000000D03*
%TO.P,J3,4,Pin_4*%
%TO.N,/GPIO20*%
X95280000Y-61000000D03*
%TO.P,J3,5,Pin_5*%
%TO.N,/GPIO19*%
X92740000Y-61000000D03*
%TD*%
D23*
%TO.P,R12,1*%
%TO.N,/GPIO20*%
X93200000Y-58200000D03*
%TO.P,R12,2*%
%TO.N,+3V3*%
X95200000Y-58200000D03*
%TD*%
%TO.P,R13,1*%
%TO.N,/GPIO26*%
X96900000Y-58200000D03*
%TO.P,R13,2*%
%TO.N,+3V3*%
X98900000Y-58200000D03*
%TD*%
%TO.P,R14,1*%
%TO.N,/GPIO21*%
X100600000Y-58200000D03*
%TO.P,R14,2*%
%TO.N,+3V3*%
X102600000Y-58200000D03*
%TD*%
D15*
%TO.P,C12,1*%
%TO.N,+5V*%
X64062500Y-69700000D03*
%TO.P,C12,2*%
%TO.N,GND*%
X61987500Y-69700000D03*
%TD*%
D24*
%TO.P,L1,1,1*%
%TO.N,Net-(C10-Pad2)*%
X57825000Y-62700000D03*
%TO.P,L1,2,2*%
%TO.N,+5V*%
X64125000Y-62700000D03*
%TD*%
D25*
%TO.P,U4,1,FB*%
%TO.N,+5V*%
X52552500Y-62200000D03*
%TO.P,U4,2,EN*%
%TO.N,Net-(C9-Pad1)*%
X52552500Y-63150000D03*
%TO.P,U4,3,VIN*%
X52552500Y-64100000D03*
%TO.P,U4,4,GND*%
%TO.N,GND*%
X54827500Y-64100000D03*
%TO.P,U4,5,SW*%
%TO.N,Net-(C10-Pad2)*%
X54827500Y-63150000D03*
%TO.P,U4,6,BST*%
%TO.N,Net-(C10-Pad1)*%
X54827500Y-62200000D03*
%TD*%
D15*
%TO.P,C13,1*%
%TO.N,+5V*%
X64062500Y-67700000D03*
%TO.P,C13,2*%
%TO.N,GND*%
X61987500Y-67700000D03*
%TD*%
D26*
%TO.P,D2,1,K*%
%TO.N,Net-(C9-Pad1)*%
X56900000Y-69500000D03*
%TO.P,D2,2,A*%
%TO.N,+12LF*%
X51900000Y-69500000D03*
%TD*%
D27*
%TO.P,C9,1*%
%TO.N,Net-(C9-Pad1)*%
X53762500Y-66700000D03*
%TO.P,C9,2*%
%TO.N,GND*%
X55837500Y-66700000D03*
%TD*%
D10*
%TO.P,R11,1*%
%TO.N,/GPIO19*%
X91100000Y-58200000D03*
%TO.P,R11,2*%
%TO.N,+3V3*%
X89100000Y-58200000D03*
%TD*%
D28*
%TO.P,D1,1,A1*%
%TO.N,+12LF*%
X47200000Y-71300000D03*
%TO.P,D1,2,A2*%
%TO.N,GND*%
X47200000Y-73800000D03*
%TD*%
D27*
%TO.P,C10,1*%
%TO.N,Net-(C10-Pad1)*%
X53462500Y-60400000D03*
%TO.P,C10,2*%
%TO.N,Net-(C10-Pad2)*%
X55537500Y-60400000D03*
%TD*%
D29*
%TO.P,R5,1*%
%TO.N,Net-(U2-Pad8)*%
X66250000Y-77700000D03*
%TO.P,R5,2*%
%TO.N,Net-(JP2-Pad2)*%
X66250000Y-75700000D03*
%TD*%
D12*
%TO.P,C2,1*%
%TO.N,Net-(C2-Pad1)*%
X83500000Y-65925000D03*
%TO.P,C2,2*%
%TO.N,GND*%
X83500000Y-68000000D03*
%TD*%
D30*
%TO.P,JP5,1,A*%
%TO.N,+5V*%
X50100000Y-59200000D03*
D31*
%TO.P,JP5,2,B*%
%TO.N,+12LF*%
X50100000Y-60500000D03*
%TD*%
D16*
%TO.P,J1,1,3V3*%
%TO.N,unconnected-(J1-Pad1)*%
X48370000Y-54770000D03*
D17*
%TO.P,J1,2,5V*%
%TO.N,+5V*%
X48370000Y-52230000D03*
%TO.P,J1,3,SDA/GPIO2*%
%TO.N,unconnected-(J1-Pad3)*%
X50910000Y-54770000D03*
%TO.P,J1,4,5V*%
%TO.N,+5V*%
X50910000Y-52230000D03*
%TO.P,J1,5,SCL/GPIO3*%
%TO.N,unconnected-(J1-Pad5)*%
X53450000Y-54770000D03*
%TO.P,J1,6,GND*%
%TO.N,GND*%
X53450000Y-52230000D03*
%TO.P,J1,7,GCLK0/GPIO4*%
%TO.N,unconnected-(J1-Pad7)*%
X55990000Y-54770000D03*
%TO.P,J1,8,GPIO14/TXD*%
%TO.N,unconnected-(J1-Pad8)*%
X55990000Y-52230000D03*
%TO.P,J1,9,GND*%
%TO.N,GND*%
X58530000Y-54770000D03*
%TO.P,J1,10,GPIO15/RXD*%
%TO.N,unconnected-(J1-Pad10)*%
X58530000Y-52230000D03*
%TO.P,J1,11,GPIO17*%
%TO.N,unconnected-(J1-Pad11)*%
X61070000Y-54770000D03*
%TO.P,J1,12,GPIO18/PWM0*%
%TO.N,unconnected-(J1-Pad12)*%
X61070000Y-52230000D03*
%TO.P,J1,13,GPIO27*%
%TO.N,unconnected-(J1-Pad13)*%
X63610000Y-54770000D03*
%TO.P,J1,14,GND*%
%TO.N,GND*%
X63610000Y-52230000D03*
%TO.P,J1,15,GPIO22*%
%TO.N,/TRXEN*%
X66150000Y-54770000D03*
%TO.P,J1,16,GPIO23*%
%TO.N,unconnected-(J1-Pad16)*%
X66150000Y-52230000D03*
%TO.P,J1,17,3V3*%
%TO.N,+3V3*%
X68690000Y-54770000D03*
%TO.P,J1,18,GPIO24*%
%TO.N,unconnected-(J1-Pad18)*%
X68690000Y-52230000D03*
%TO.P,J1,19,MOSI0/GPIO10*%
%TO.N,/MOSI*%
X71230000Y-54770000D03*
%TO.P,J1,20,GND*%
%TO.N,GND*%
X71230000Y-52230000D03*
%TO.P,J1,21,MISO0/GPIO9*%
%TO.N,/MISO*%
X73770000Y-54770000D03*
%TO.P,J1,22,GPIO25*%
%TO.N,unconnected-(J1-Pad22)*%
X73770000Y-52230000D03*
%TO.P,J1,23,SCLK0/GPIO11*%
%TO.N,/SCK*%
X76310000Y-54770000D03*
%TO.P,J1,24,~{CE0}/GPIO8*%
%TO.N,/~{CS}*%
X76310000Y-52230000D03*
%TO.P,J1,25,GND*%
%TO.N,GND*%
X78850000Y-54770000D03*
%TO.P,J1,26,~{CE1}/GPIO7*%
%TO.N,unconnected-(J1-Pad26)*%
X78850000Y-52230000D03*
%TO.P,J1,27,ID_SD/GPIO0*%
%TO.N,/ID_SD*%
X81390000Y-54770000D03*
%TO.P,J1,28,ID_SC/GPIO1*%
%TO.N,/ID_SC*%
X81390000Y-52230000D03*
%TO.P,J1,29,GCLK1/GPIO5*%
%TO.N,unconnected-(J1-Pad29)*%
X83930000Y-54770000D03*
%TO.P,J1,30,GND*%
%TO.N,GND*%
X83930000Y-52230000D03*
%TO.P,J1,31,GCLK2/GPIO6*%
%TO.N,unconnected-(J1-Pad31)*%
X86470000Y-54770000D03*
%TO.P,J1,32,PWM0/GPIO12*%
%TO.N,/~{INT}*%
X86470000Y-52230000D03*
%TO.P,J1,33,PWM1/GPIO13*%
%TO.N,unconnected-(J1-Pad33)*%
X89010000Y-54770000D03*
%TO.P,J1,34,GND*%
%TO.N,GND*%
X89010000Y-52230000D03*
%TO.P,J1,35,GPIO19/MISO1*%
%TO.N,/GPIO19*%
X91550000Y-54770000D03*
%TO.P,J1,36,GPIO16*%
%TO.N,unconnected-(J1-Pad36)*%
X91550000Y-52230000D03*
%TO.P,J1,37,GPIO26*%
%TO.N,/GPIO26*%
X94090000Y-54770000D03*
%TO.P,J1,38,GPIO20/MOSI1*%
%TO.N,/GPIO20*%
X94090000Y-52230000D03*
%TO.P,J1,39,GND*%
%TO.N,GND*%
X96630000Y-54770000D03*
%TO.P,J1,40,GPIO21/SCLK1*%
%TO.N,/GPIO21*%
X96630000Y-52230000D03*
%TD*%
D32*
%TO.N,GND*%
X57500000Y-67000000D03*
X60900000Y-69600000D03*
X60900000Y-67700000D03*
X60900000Y-68700000D03*
X75900000Y-72400000D03*
X53900000Y-64100000D03*
X83500000Y-69000000D03*
X74700000Y-76700000D03*
X47500000Y-74600000D03*
X81250000Y-68250000D03*
X68700000Y-66000000D03*
X67500000Y-61200000D03*
X91400000Y-72300000D03*
X93700000Y-67700000D03*
X83500000Y-61000000D03*
X55900000Y-65300000D03*
%TO.N,/MOSI*%
X76000000Y-58500000D03*
%TO.N,/~{CS}*%
X77600000Y-62100000D03*
%TO.N,+3V3*%
X68000000Y-69000000D03*
X79200000Y-73100000D03*
%TO.N,/ID_SD*%
X98700000Y-71600000D03*
%TO.N,/ID_SC*%
X98735000Y-70235000D03*
%TO.N,+5V*%
X77300000Y-72600000D03*
%TO.N,/TRXEN*%
X65800000Y-66400000D03*
%TO.N,Net-(C6-Pad2)*%
X75900000Y-76400000D03*
%TO.N,Net-(JP2-Pad2)*%
X66600000Y-74700000D03*
%TO.N,Net-(JP3-Pad1)*%
X68000000Y-73500000D03*
%TD*%
D33*
%TO.N,Net-(C1-Pad1)*%
X78540000Y-69700000D02*
X78540000Y-68985000D01*
X87500000Y-61950000D02*
X87500000Y-63600000D01*
X87062500Y-64037500D02*
X83500000Y-64037500D01*
X78540000Y-68985000D02*
X82876628Y-64648372D01*
X87500000Y-63600000D02*
X87062500Y-64037500D01*
X82876628Y-64648372D02*
X83500000Y-64025000D01*
%TO.N,Net-(C2-Pad1)*%
X83500000Y-65950000D02*
X82450000Y-65950000D01*
X82450000Y-65950000D02*
X79810000Y-68590000D01*
X84225000Y-65925000D02*
X83500000Y-65925000D01*
X79810000Y-69700000D02*
X79810000Y-68590000D01*
X87500000Y-69200000D02*
X84225000Y-65925000D01*
X87500000Y-70450000D02*
X87500000Y-69200000D01*
%TO.N,GND*%
X83500000Y-61975000D02*
X83500000Y-61000000D01*
X47200000Y-73800000D02*
X47500000Y-74100000D01*
X81080000Y-68420000D02*
X81250000Y-68250000D01*
X93675000Y-67675000D02*
X93700000Y-67700000D01*
X67500000Y-61200000D02*
X67500000Y-60512500D01*
X83500000Y-68000000D02*
X83500000Y-69000000D01*
X91805000Y-67700000D02*
X91800000Y-67695000D01*
X67500000Y-60512500D02*
X67900000Y-60112500D01*
X93675000Y-65400000D02*
X93675000Y-67675000D01*
X73600000Y-76735000D02*
X74665000Y-76735000D01*
X68700000Y-65025000D02*
X68700000Y-66000000D01*
X91800000Y-71900000D02*
X91400000Y-72300000D01*
X81080000Y-69700000D02*
X81080000Y-68420000D01*
X74665000Y-76735000D02*
X74700000Y-76700000D01*
X91800000Y-71505000D02*
X91800000Y-71900000D01*
X93700000Y-67700000D02*
X91805000Y-67700000D01*
X75900000Y-73362500D02*
X75900000Y-72400000D01*
X91800000Y-71505000D02*
X91800000Y-67695000D01*
X47500000Y-74100000D02*
X47500000Y-74600000D01*
%TO.N,/~{INT}*%
X85294999Y-55144003D02*
X84219002Y-56220000D01*
X84219002Y-56220000D02*
X81920000Y-56220000D01*
X81920000Y-56220000D02*
X78540000Y-59600000D01*
X86470000Y-52230000D02*
X85294999Y-53405001D01*
X78540000Y-59600000D02*
X78540000Y-60300000D01*
X85294999Y-53405001D02*
X85294999Y-55144003D01*
%TO.N,/SCK*%
X77270000Y-59570000D02*
X76950000Y-59250000D01*
X77270000Y-60300000D02*
X77270000Y-59570000D01*
X76950000Y-55410000D02*
X76950000Y-59250000D01*
X76310000Y-54770000D02*
X76950000Y-55410000D01*
%TO.N,/MOSI*%
X76000000Y-60300000D02*
X76000000Y-58500000D01*
%TO.N,/MISO*%
X74730000Y-60300000D02*
X74730000Y-55730000D01*
X74730000Y-55730000D02*
X73770000Y-54770000D01*
%TO.N,/~{CS}*%
X74560000Y-62100000D02*
X73460000Y-61000000D01*
X73460000Y-61000000D02*
X73460000Y-60300000D01*
X77600000Y-62100000D02*
X74560000Y-62100000D01*
%TO.N,+3V3*%
X70920000Y-60300000D02*
X70920000Y-58245000D01*
X70920000Y-58245000D02*
X70675000Y-58000000D01*
X102050000Y-71600000D02*
X102050000Y-67600000D01*
%TO.N,/ID_SD*%
X98700000Y-71600000D02*
X97295000Y-71600000D01*
X100000000Y-71600000D02*
X98700000Y-71600000D01*
%TO.N,/ID_SC*%
X98735000Y-70235000D02*
X97200000Y-70235000D01*
X99376628Y-70223372D02*
X98873372Y-70223372D01*
X100000000Y-69600000D02*
X99376628Y-70223372D01*
X98873372Y-70223372D02*
X98861744Y-70235000D01*
X98861744Y-70235000D02*
X98735000Y-70235000D01*
%TO.N,/TX*%
X71500000Y-72100000D02*
X71500000Y-74000000D01*
X70920000Y-70320000D02*
X70920000Y-69650000D01*
X72705000Y-78005000D02*
X72050000Y-77350000D01*
X71500000Y-74000000D02*
X72050000Y-74550000D01*
X71500000Y-70900000D02*
X70920000Y-70320000D01*
X71500000Y-72100000D02*
X71500000Y-70900000D01*
X73375000Y-78005000D02*
X72705000Y-78005000D01*
X72050000Y-77350000D02*
X72050000Y-74550000D01*
%TO.N,/RX*%
X73600000Y-74195000D02*
X72595000Y-74195000D01*
X72595000Y-74195000D02*
X72190000Y-73790000D01*
X72190000Y-73790000D02*
X72190000Y-69700000D01*
D34*
%TO.N,/CAN_P*%
X59265000Y-75105000D02*
X60360000Y-76200000D01*
X62325000Y-78232551D02*
X62325000Y-78325000D01*
X69135000Y-76275000D02*
X68675000Y-76735000D01*
X69925000Y-78327512D02*
X69925000Y-76572488D01*
X59572488Y-78625000D02*
X60225000Y-78625000D01*
X62675000Y-78625000D02*
X69627512Y-78625000D01*
X58772488Y-74225000D02*
X59265000Y-74717512D01*
X62625000Y-78625000D02*
X62675000Y-78625000D01*
X59265000Y-78317512D02*
X59572488Y-78625000D01*
X61125000Y-78232551D02*
X61125000Y-78325000D01*
X54227512Y-74225000D02*
X58772488Y-74225000D01*
X61725000Y-78325000D02*
X61725000Y-78232551D01*
X59265000Y-74717512D02*
X59265000Y-75105000D01*
X69627512Y-78625000D02*
X69925000Y-78327512D01*
X60525000Y-78325000D02*
X60525000Y-78232551D01*
X60360000Y-76200000D02*
X59265000Y-77295000D01*
X52740000Y-76200000D02*
X53835000Y-75105000D01*
X53835000Y-75105000D02*
X53835000Y-74617512D01*
X68675000Y-76735000D02*
X68200000Y-76735000D01*
X59265000Y-77295000D02*
X59265000Y-78317512D01*
X53835000Y-74617512D02*
X54227512Y-74225000D01*
X69925000Y-76572488D02*
X69627512Y-76275000D01*
X69627512Y-76275000D02*
X69135000Y-76275000D01*
X62325049Y-78232551D02*
G75*
G03*
X62025000Y-77932551I-300049J-49D01*
G01*
X61125049Y-78232551D02*
G75*
G03*
X60825000Y-77932551I-300049J-49D01*
G01*
X60225000Y-78625000D02*
G75*
G03*
X60525000Y-78325000I0J300000D01*
G01*
X61425000Y-78625000D02*
G75*
G03*
X61725000Y-78325000I0J300000D01*
G01*
X62025000Y-77932600D02*
G75*
G03*
X61725000Y-78232551I0J-300000D01*
G01*
X61125000Y-78325000D02*
G75*
G03*
X61425000Y-78625000I300000J0D01*
G01*
X60825000Y-77932600D02*
G75*
G03*
X60525000Y-78232551I0J-300000D01*
G01*
X62325000Y-78325000D02*
G75*
G03*
X62625000Y-78625000I300000J0D01*
G01*
%TO.N,/CAN_N*%
X56394834Y-75384699D02*
X56458243Y-75406887D01*
X68675000Y-75465000D02*
X69135000Y-75925000D01*
X56525000Y-75414408D02*
X56591756Y-75406887D01*
X56225000Y-75114408D02*
X56232521Y-75181165D01*
X55280000Y-76200000D02*
X54185000Y-75105000D01*
X56795290Y-75244574D02*
X56817478Y-75181165D01*
X56759549Y-75301455D02*
X56795290Y-75244574D01*
X59427512Y-78975000D02*
X69772488Y-78975000D01*
X56055165Y-74604710D02*
X56112046Y-74640451D01*
X56712046Y-75348958D02*
X56759549Y-75301455D01*
X58915000Y-77295000D02*
X58915000Y-78462488D01*
X56825000Y-74875000D02*
X56832521Y-74808244D01*
X56195290Y-74744835D02*
X56217478Y-74808244D01*
X54372488Y-74575000D02*
X55925000Y-74575000D01*
X54185000Y-74762488D02*
X54372488Y-74575000D01*
X55925000Y-74575000D02*
X55991756Y-74582522D01*
X68200000Y-75465000D02*
X68675000Y-75465000D01*
X69772488Y-78975000D02*
X70275000Y-78472488D01*
X56854709Y-74744835D02*
X56890450Y-74687954D01*
X56591756Y-75406887D02*
X56655165Y-75384699D01*
X58915000Y-78462488D02*
X59427512Y-78975000D01*
X56825000Y-75114408D02*
X56825000Y-74875000D01*
X56112046Y-74640451D02*
X56159549Y-74687954D01*
X56655165Y-75384699D02*
X56712046Y-75348958D01*
X69135000Y-75925000D02*
X69772488Y-75925000D01*
X54185000Y-75105000D02*
X54185000Y-74762488D01*
X56458243Y-75406887D02*
X56525000Y-75414408D01*
X56890450Y-74687954D02*
X56937953Y-74640451D01*
X58627512Y-74575000D02*
X57125000Y-74575000D01*
X56832521Y-74808244D02*
X56854709Y-74744835D01*
X56225000Y-74875000D02*
X56225000Y-75114408D01*
X58915000Y-74862488D02*
X58627512Y-74575000D01*
X57058243Y-74582522D02*
X57125000Y-74575000D01*
X56232521Y-75181165D02*
X56254709Y-75244574D01*
X56937953Y-74640451D02*
X56994834Y-74604710D01*
X56217478Y-74808244D02*
X56225000Y-74875000D01*
X56159549Y-74687954D02*
X56195290Y-74744835D01*
X70275000Y-78472488D02*
X70275000Y-76427512D01*
X69772488Y-75925000D02*
X70275000Y-76427512D01*
X56290450Y-75301455D02*
X56337953Y-75348958D01*
X58915000Y-75105000D02*
X58915000Y-74862488D01*
X56817478Y-75181165D02*
X56825000Y-75114408D01*
X58915000Y-77295000D02*
X57820000Y-76200000D01*
X57820000Y-76200000D02*
X58915000Y-75105000D01*
X55991756Y-74582522D02*
X56055165Y-74604710D01*
X56254709Y-75244574D02*
X56290450Y-75301455D01*
X56994834Y-74604710D02*
X57058243Y-74582522D01*
X56337953Y-75348958D02*
X56394834Y-75384699D01*
D33*
%TO.N,Net-(U2-Pad8)*%
X68425000Y-78005000D02*
X66555000Y-78005000D01*
X66555000Y-78005000D02*
X66250000Y-77700000D01*
D35*
%TO.N,Net-(C10-Pad2)*%
X55000000Y-63150000D02*
X57325000Y-63150000D01*
X57325000Y-63150000D02*
X57775000Y-62700000D01*
%TO.N,Net-(C10-Pad1)*%
X55000000Y-62200000D02*
X53475000Y-60675000D01*
X53475000Y-60675000D02*
X53475000Y-60400000D01*
D33*
%TO.N,/GPIO19*%
X91550000Y-54770000D02*
X91550000Y-57775000D01*
X91550000Y-57775000D02*
X91125000Y-58200000D01*
X92740000Y-61000000D02*
X91325000Y-59585000D01*
X91325000Y-59585000D02*
X91325000Y-57700000D01*
%TO.N,/GPIO26*%
X96875000Y-57875000D02*
X95550000Y-56550000D01*
X96875000Y-60055000D02*
X96875000Y-58200000D01*
X94090000Y-55090000D02*
X94090000Y-54770000D01*
X96875000Y-58200000D02*
X96875000Y-57875000D01*
X97820000Y-61000000D02*
X96875000Y-60055000D01*
X95550000Y-56550000D02*
X94090000Y-55090000D01*
%TO.N,/GPIO20*%
X92900000Y-57925000D02*
X93175000Y-58200000D01*
X95280000Y-61000000D02*
X93175000Y-58895000D01*
X94090000Y-52230000D02*
X92900000Y-53420000D01*
X92900000Y-53420000D02*
X92900000Y-57925000D01*
X93175000Y-58895000D02*
X93175000Y-58200000D01*
%TO.N,/GPIO21*%
X96800000Y-57100000D02*
X95400000Y-55700000D01*
X100575000Y-58200000D02*
X100575000Y-58075000D01*
X100360000Y-61000000D02*
X100360000Y-58415000D01*
X99600000Y-57100000D02*
X96800000Y-57100000D01*
X95400000Y-53460000D02*
X96630000Y-52230000D01*
X95400000Y-55700000D02*
X95400000Y-53460000D01*
X100575000Y-58075000D02*
X99600000Y-57100000D01*
X100360000Y-58415000D02*
X100575000Y-58200000D01*
%TO.N,/TRXEN*%
X66150000Y-54770000D02*
X65800000Y-55120000D01*
X65800000Y-55120000D02*
X65800000Y-66400000D01*
%TO.N,Net-(C6-Pad2)*%
X75900000Y-75437500D02*
X75900000Y-76400000D01*
X75872500Y-75465000D02*
X75900000Y-75437500D01*
X73375000Y-75465000D02*
X75872500Y-75465000D01*
%TO.N,Net-(JP1-Pad1)*%
X100000000Y-67600000D02*
X98635000Y-68965000D01*
X98635000Y-68965000D02*
X97200000Y-68965000D01*
X98460000Y-66060000D02*
X98460000Y-64600000D01*
X100000000Y-67600000D02*
X98460000Y-66060000D01*
%TO.N,Net-(R1-Pad1)*%
X72190000Y-58535000D02*
X72725000Y-58000000D01*
X72190000Y-60300000D02*
X72190000Y-58535000D01*
%TO.N,Net-(JP2-Pad2)*%
X66600000Y-75350000D02*
X66250000Y-75700000D01*
X66600000Y-74700000D02*
X66600000Y-75350000D01*
%TO.N,Net-(JP3-Pad1)*%
X68425000Y-74195000D02*
X68000000Y-73770000D01*
X68000000Y-73770000D02*
X68000000Y-73500000D01*
%TD*%
%TA.AperFunction,Conductor*%
%TO.N,+12V*%
G36*
X40913599Y-60019685D02*
G01*
X40934241Y-60036319D01*
X40957738Y-60059816D01*
X41110478Y-60155789D01*
X41280744Y-60215368D01*
X41280745Y-60215368D01*
X41280750Y-60215369D01*
X41371246Y-60225565D01*
X41415040Y-60230499D01*
X41415043Y-60230500D01*
X41415046Y-60230500D01*
X41504957Y-60230500D01*
X41504958Y-60230499D01*
X41572104Y-60222933D01*
X41639249Y-60215369D01*
X41639252Y-60215368D01*
X41639255Y-60215368D01*
X41809522Y-60155789D01*
X41962262Y-60059816D01*
X41985759Y-60036319D01*
X42047082Y-60002834D01*
X42073440Y-60000000D01*
X42575500Y-60000000D01*
X42642539Y-60019685D01*
X42688294Y-60072489D01*
X42699500Y-60124000D01*
X42699500Y-60549752D01*
X42711131Y-60608229D01*
X42711132Y-60608230D01*
X42755447Y-60674552D01*
X42821769Y-60718867D01*
X42821770Y-60718868D01*
X42880247Y-60730499D01*
X42880250Y-60730500D01*
X43062692Y-60730500D01*
X43129731Y-60750185D01*
X43150373Y-60766819D01*
X43828431Y-61444878D01*
X43711542Y-61495651D01*
X43594261Y-61591066D01*
X43507072Y-61714585D01*
X43476644Y-61800198D01*
X42702266Y-61025820D01*
X42701568Y-61026637D01*
X42569980Y-61241368D01*
X42473603Y-61474043D01*
X42434036Y-61638853D01*
X42399245Y-61699445D01*
X42337219Y-61731609D01*
X42267650Y-61725133D01*
X42212626Y-61682073D01*
X42196420Y-61650859D01*
X42185790Y-61620479D01*
X42107355Y-61495651D01*
X42089816Y-61467738D01*
X41962262Y-61340184D01*
X41809523Y-61244211D01*
X41639254Y-61184631D01*
X41639249Y-61184630D01*
X41504960Y-61169500D01*
X41504954Y-61169500D01*
X41415046Y-61169500D01*
X41415039Y-61169500D01*
X41280750Y-61184630D01*
X41280745Y-61184631D01*
X41110476Y-61244211D01*
X40957737Y-61340184D01*
X40830184Y-61467737D01*
X40734211Y-61620476D01*
X40674631Y-61790745D01*
X40674630Y-61790750D01*
X40654435Y-61969996D01*
X40654435Y-61970003D01*
X40674630Y-62149249D01*
X40674631Y-62149254D01*
X40734211Y-62319523D01*
X40785188Y-62400652D01*
X40830184Y-62472262D01*
X40957738Y-62599816D01*
X41110478Y-62695789D01*
X41280745Y-62755367D01*
X41280745Y-62755368D01*
X41280750Y-62755369D01*
X41371246Y-62765565D01*
X41415040Y-62770499D01*
X41415043Y-62770500D01*
X41415046Y-62770500D01*
X41504957Y-62770500D01*
X41504958Y-62770499D01*
X41572104Y-62762933D01*
X41639249Y-62755369D01*
X41639252Y-62755368D01*
X41639255Y-62755368D01*
X41809522Y-62695789D01*
X41962262Y-62599816D01*
X42089816Y-62472262D01*
X42185789Y-62319522D01*
X42196419Y-62289141D01*
X42237140Y-62232364D01*
X42302092Y-62206615D01*
X42370654Y-62220070D01*
X42421058Y-62268456D01*
X42434036Y-62301146D01*
X42473603Y-62465956D01*
X42569980Y-62698631D01*
X42701566Y-62913358D01*
X42701577Y-62913374D01*
X42702264Y-62914178D01*
X42702266Y-62914178D01*
X43474070Y-62142375D01*
X43476884Y-62155915D01*
X43546442Y-62290156D01*
X43649638Y-62400652D01*
X43778819Y-62479209D01*
X43830002Y-62493549D01*
X43055819Y-63267732D01*
X43056636Y-63268430D01*
X43056638Y-63268432D01*
X43271368Y-63400019D01*
X43504043Y-63496396D01*
X43748927Y-63555187D01*
X44000000Y-63574947D01*
X44251072Y-63555187D01*
X44495956Y-63496396D01*
X44728631Y-63400019D01*
X44943360Y-63268432D01*
X44943371Y-63268424D01*
X44944179Y-63267732D01*
X44171568Y-62495121D01*
X44288458Y-62444349D01*
X44405739Y-62348934D01*
X44492928Y-62225415D01*
X44523354Y-62139802D01*
X45297732Y-62914179D01*
X45298424Y-62913371D01*
X45298432Y-62913360D01*
X45430019Y-62698631D01*
X45526396Y-62465956D01*
X45585187Y-62221072D01*
X45604947Y-61970000D01*
X45585187Y-61718927D01*
X45526396Y-61474043D01*
X45430019Y-61241368D01*
X45298432Y-61026638D01*
X45298430Y-61026636D01*
X45297732Y-61025819D01*
X44525929Y-61797622D01*
X44523116Y-61784085D01*
X44453558Y-61649844D01*
X44350362Y-61539348D01*
X44221181Y-61460791D01*
X44169995Y-61446449D01*
X44849627Y-60766819D01*
X44910950Y-60733334D01*
X44937308Y-60730500D01*
X45119750Y-60730500D01*
X45119751Y-60730499D01*
X45134568Y-60727552D01*
X45178229Y-60718868D01*
X45178229Y-60718867D01*
X45178231Y-60718867D01*
X45244552Y-60674552D01*
X45288867Y-60608231D01*
X45288867Y-60608229D01*
X45288868Y-60608229D01*
X45300499Y-60549752D01*
X45300500Y-60549750D01*
X45300500Y-60124000D01*
X45320185Y-60056961D01*
X45372989Y-60011206D01*
X45424500Y-60000000D01*
X46876000Y-60000000D01*
X46943039Y-60019685D01*
X46988794Y-60072489D01*
X47000000Y-60124000D01*
X47000000Y-70475500D01*
X46980315Y-70542539D01*
X46927511Y-70588294D01*
X46876000Y-70599500D01*
X46680247Y-70599500D01*
X46621770Y-70611131D01*
X46621769Y-70611132D01*
X46555447Y-70655447D01*
X46511132Y-70721769D01*
X46511131Y-70721770D01*
X46499500Y-70780247D01*
X46499500Y-71376000D01*
X46479815Y-71443039D01*
X46427011Y-71488794D01*
X46375500Y-71500000D01*
X40199500Y-71500000D01*
X40132461Y-71480315D01*
X40086706Y-71427511D01*
X40075500Y-71376000D01*
X40075500Y-70677752D01*
X40095185Y-70610713D01*
X40147989Y-70564958D01*
X40217147Y-70555014D01*
X40264597Y-70572214D01*
X40405870Y-70659353D01*
X40405881Y-70659358D01*
X40572303Y-70714505D01*
X40572310Y-70714506D01*
X40675014Y-70724999D01*
X40675027Y-70725000D01*
X41275000Y-70725000D01*
X41275000Y-67750000D01*
X41775000Y-67750000D01*
X41775000Y-70725000D01*
X42374973Y-70725000D01*
X42374985Y-70724999D01*
X42477689Y-70714506D01*
X42477696Y-70714505D01*
X42644118Y-70659358D01*
X42644123Y-70659356D01*
X42793344Y-70567315D01*
X42917315Y-70443344D01*
X43009356Y-70294123D01*
X43009358Y-70294118D01*
X43064505Y-70127696D01*
X43064506Y-70127689D01*
X43074999Y-70024985D01*
X43075000Y-70024972D01*
X43075000Y-67750000D01*
X41775000Y-67750000D01*
X41275000Y-67750000D01*
X41275000Y-64275000D01*
X41775000Y-64275000D01*
X41775000Y-67250000D01*
X43075000Y-67250000D01*
X43075000Y-64975027D01*
X43074999Y-64975014D01*
X43064506Y-64872310D01*
X43064505Y-64872303D01*
X43009358Y-64705881D01*
X43009356Y-64705876D01*
X42917315Y-64556655D01*
X42793344Y-64432684D01*
X42644123Y-64340643D01*
X42644118Y-64340641D01*
X42477696Y-64285494D01*
X42477689Y-64285493D01*
X42374985Y-64275000D01*
X41775000Y-64275000D01*
X41275000Y-64275000D01*
X40675014Y-64275000D01*
X40572310Y-64285493D01*
X40572303Y-64285494D01*
X40405881Y-64340641D01*
X40405876Y-64340643D01*
X40264597Y-64427786D01*
X40197204Y-64446226D01*
X40130541Y-64425303D01*
X40085771Y-64371661D01*
X40075500Y-64322247D01*
X40075500Y-60124000D01*
X40095185Y-60056961D01*
X40147989Y-60011206D01*
X40199500Y-60000000D01*
X40846560Y-60000000D01*
X40913599Y-60019685D01*
G37*
%TD.AperFunction*%
%TD*%
%TA.AperFunction,Conductor*%
%TO.N,+5V*%
G36*
X65443039Y-50095185D02*
G01*
X65488794Y-50147989D01*
X65500000Y-50199500D01*
X65500000Y-51278644D01*
X65480315Y-51345683D01*
X65459538Y-51370281D01*
X65333237Y-51485418D01*
X65210327Y-51648178D01*
X65119422Y-51830739D01*
X65119417Y-51830752D01*
X65063602Y-52026917D01*
X65044785Y-52229999D01*
X65044785Y-52230000D01*
X65063602Y-52433082D01*
X65119417Y-52629247D01*
X65119422Y-52629260D01*
X65210327Y-52811821D01*
X65333237Y-52974580D01*
X65459538Y-53089718D01*
X65495819Y-53149429D01*
X65500000Y-53181355D01*
X65500000Y-53818644D01*
X65480315Y-53885683D01*
X65459538Y-53910281D01*
X65333237Y-54025418D01*
X65210327Y-54188178D01*
X65119422Y-54370739D01*
X65119417Y-54370752D01*
X65063602Y-54566917D01*
X65044785Y-54769999D01*
X65044785Y-54770000D01*
X65063602Y-54973082D01*
X65119417Y-55169247D01*
X65119422Y-55169260D01*
X65210326Y-55351821D01*
X65210327Y-55351821D01*
X65333236Y-55514579D01*
X65384039Y-55560892D01*
X65420319Y-55620601D01*
X65424500Y-55652528D01*
X65424499Y-65807796D01*
X65404814Y-65874835D01*
X65382727Y-65900611D01*
X65309516Y-65965470D01*
X65219781Y-66095475D01*
X65219780Y-66095476D01*
X65163762Y-66243181D01*
X65144722Y-66399999D01*
X65144722Y-66400000D01*
X65163762Y-66556818D01*
X65216349Y-66695477D01*
X65219780Y-66704523D01*
X65309517Y-66834530D01*
X65427760Y-66939283D01*
X65427764Y-66939285D01*
X65433627Y-66942363D01*
X65483839Y-66990948D01*
X65499999Y-67052158D01*
X65499999Y-70999999D01*
X65500000Y-71000000D01*
X65500000Y-71500000D01*
X63200000Y-71500000D01*
X63200000Y-66700000D01*
X63199999Y-66699999D01*
X60580933Y-65729975D01*
X60524904Y-65688232D01*
X60500337Y-65622824D01*
X60500000Y-65613694D01*
X60500000Y-59400000D01*
X53400000Y-59400000D01*
X53390174Y-59400000D01*
X53350493Y-59421667D01*
X53324137Y-59424500D01*
X53077130Y-59424500D01*
X53077123Y-59424501D01*
X53017516Y-59430908D01*
X52882671Y-59481202D01*
X52882664Y-59481206D01*
X52767455Y-59567452D01*
X52767452Y-59567455D01*
X52681206Y-59682664D01*
X52681202Y-59682671D01*
X52630908Y-59817517D01*
X52624501Y-59877116D01*
X52624500Y-59877135D01*
X52624500Y-60922870D01*
X52624501Y-60922876D01*
X52630908Y-60982483D01*
X52681202Y-61117328D01*
X52681206Y-61117335D01*
X52767452Y-61232544D01*
X52767455Y-61232547D01*
X52882664Y-61318793D01*
X52882671Y-61318797D01*
X52927618Y-61335560D01*
X53017517Y-61369091D01*
X53077127Y-61375500D01*
X53275999Y-61375499D01*
X53343038Y-61395183D01*
X53388793Y-61447987D01*
X53399999Y-61499499D01*
X53400000Y-62320500D01*
X53380316Y-62387539D01*
X53327512Y-62433294D01*
X53276000Y-62444500D01*
X53102786Y-62444500D01*
X53089061Y-62444996D01*
X53089052Y-62444996D01*
X53088986Y-62444999D01*
X52016041Y-62444999D01*
X52002215Y-62444500D01*
X52002214Y-62444500D01*
X51879500Y-62444500D01*
X51812461Y-62424815D01*
X51766706Y-62372011D01*
X51755500Y-62320500D01*
X51755500Y-61232544D01*
X51755500Y-60124000D01*
X51749661Y-60069687D01*
X51738455Y-60018176D01*
X51731219Y-59991802D01*
X51727332Y-59984976D01*
X51681894Y-59905181D01*
X51681888Y-59905172D01*
X51636136Y-59852371D01*
X51603359Y-59820743D01*
X51515022Y-59774534D01*
X51515022Y-59774533D01*
X51447990Y-59754851D01*
X51447978Y-59754848D01*
X51376001Y-59744500D01*
X51376000Y-59744500D01*
X50412258Y-59744500D01*
X50394612Y-59743238D01*
X50386350Y-59742050D01*
X50386349Y-59742050D01*
X50313652Y-59742050D01*
X50313650Y-59742050D01*
X50305389Y-59743238D01*
X50287743Y-59744500D01*
X49912257Y-59744500D01*
X49894611Y-59743238D01*
X49886349Y-59742050D01*
X49886348Y-59742050D01*
X49813651Y-59742050D01*
X49813649Y-59742050D01*
X49805388Y-59743238D01*
X49787742Y-59744500D01*
X47329497Y-59744500D01*
X47275187Y-59750338D01*
X47223683Y-59761543D01*
X47223682Y-59761543D01*
X47223676Y-59761545D01*
X47212677Y-59764562D01*
X47197306Y-59768779D01*
X47197298Y-59768782D01*
X47163599Y-59787972D01*
X47095602Y-59804039D01*
X47044766Y-59790092D01*
X47015027Y-59774536D01*
X47015022Y-59774533D01*
X46947990Y-59754851D01*
X46947978Y-59754848D01*
X46876001Y-59744500D01*
X46876000Y-59744500D01*
X45474500Y-59744500D01*
X45407461Y-59724815D01*
X45361706Y-59672011D01*
X45350500Y-59620500D01*
X45350500Y-58305323D01*
X45350499Y-58305321D01*
X45335967Y-58232264D01*
X45335966Y-58232260D01*
X45335965Y-58232259D01*
X45280601Y-58149399D01*
X45197740Y-58094034D01*
X45197739Y-58094033D01*
X45197735Y-58094032D01*
X45124677Y-58079500D01*
X45124674Y-58079500D01*
X42875326Y-58079500D01*
X42875323Y-58079500D01*
X42802264Y-58094032D01*
X42802260Y-58094033D01*
X42719399Y-58149399D01*
X42664033Y-58232260D01*
X42664032Y-58232264D01*
X42649500Y-58305321D01*
X42649500Y-59620500D01*
X42629815Y-59687539D01*
X42577011Y-59733294D01*
X42525500Y-59744500D01*
X42368886Y-59744500D01*
X42301847Y-59724815D01*
X42256092Y-59672011D01*
X42245666Y-59606617D01*
X42265565Y-59430003D01*
X42265565Y-59429996D01*
X42245369Y-59250750D01*
X42245368Y-59250745D01*
X42185788Y-59080476D01*
X42089815Y-58927737D01*
X41962262Y-58800184D01*
X41809523Y-58704211D01*
X41639254Y-58644631D01*
X41639249Y-58644630D01*
X41504960Y-58629500D01*
X41504954Y-58629500D01*
X41415046Y-58629500D01*
X41415039Y-58629500D01*
X41280750Y-58644630D01*
X41280745Y-58644631D01*
X41110476Y-58704211D01*
X40957737Y-58800184D01*
X40830184Y-58927737D01*
X40734211Y-59080476D01*
X40674631Y-59250745D01*
X40674630Y-59250750D01*
X40654435Y-59429996D01*
X40654435Y-59430003D01*
X40674334Y-59606617D01*
X40662279Y-59675439D01*
X40614930Y-59726818D01*
X40551114Y-59744500D01*
X40199500Y-59744500D01*
X40132461Y-59724815D01*
X40086706Y-59672011D01*
X40075500Y-59620500D01*
X40075500Y-54314688D01*
X40095185Y-54247649D01*
X40147989Y-54201894D01*
X40217147Y-54191950D01*
X40280703Y-54220975D01*
X40318477Y-54279753D01*
X40319706Y-54284248D01*
X40369093Y-54479273D01*
X40369093Y-54479275D01*
X40495819Y-54817746D01*
X40495822Y-54817753D01*
X40495823Y-54817754D01*
X40659020Y-55140240D01*
X40856703Y-55442816D01*
X41022948Y-55644676D01*
X41086473Y-55721810D01*
X41086478Y-55721815D01*
X41345539Y-55973834D01*
X41630753Y-56195826D01*
X41630755Y-56195827D01*
X41938664Y-56385097D01*
X42265524Y-56539346D01*
X42607370Y-56656702D01*
X42960051Y-56735740D01*
X43319286Y-56775500D01*
X43590286Y-56775500D01*
X43626975Y-56773475D01*
X43860880Y-56760571D01*
X44217379Y-56701081D01*
X44565170Y-56602735D01*
X44565176Y-56602732D01*
X44565181Y-56602731D01*
X44744414Y-56529932D01*
X44900032Y-56466726D01*
X45217899Y-56294705D01*
X45514913Y-56088760D01*
X45787469Y-55851391D01*
X45977762Y-55644678D01*
X47269500Y-55644678D01*
X47284032Y-55717735D01*
X47284033Y-55717739D01*
X47302405Y-55745235D01*
X47339399Y-55800601D01*
X47415413Y-55851391D01*
X47422260Y-55855966D01*
X47422264Y-55855967D01*
X47495321Y-55870499D01*
X47495324Y-55870500D01*
X47495326Y-55870500D01*
X49244676Y-55870500D01*
X49244677Y-55870499D01*
X49317740Y-55855966D01*
X49400601Y-55800601D01*
X49455966Y-55717740D01*
X49470500Y-55644674D01*
X49470500Y-54770000D01*
X49804785Y-54770000D01*
X49823602Y-54973082D01*
X49879417Y-55169247D01*
X49879422Y-55169260D01*
X49970327Y-55351821D01*
X50093237Y-55514581D01*
X50243958Y-55651980D01*
X50243960Y-55651982D01*
X50244842Y-55652528D01*
X50417363Y-55759348D01*
X50607544Y-55833024D01*
X50808024Y-55870500D01*
X50808026Y-55870500D01*
X51011974Y-55870500D01*
X51011976Y-55870500D01*
X51212456Y-55833024D01*
X51402637Y-55759348D01*
X51576041Y-55651981D01*
X51726764Y-55514579D01*
X51849673Y-55351821D01*
X51940582Y-55169250D01*
X51996397Y-54973083D01*
X52015215Y-54770000D01*
X52344785Y-54770000D01*
X52363602Y-54973082D01*
X52419417Y-55169247D01*
X52419422Y-55169260D01*
X52510327Y-55351821D01*
X52633237Y-55514581D01*
X52783958Y-55651980D01*
X52783960Y-55651982D01*
X52784842Y-55652528D01*
X52957363Y-55759348D01*
X53147544Y-55833024D01*
X53348024Y-55870500D01*
X53348026Y-55870500D01*
X53551974Y-55870500D01*
X53551976Y-55870500D01*
X53752456Y-55833024D01*
X53942637Y-55759348D01*
X54116041Y-55651981D01*
X54266764Y-55514579D01*
X54389673Y-55351821D01*
X54480582Y-55169250D01*
X54536397Y-54973083D01*
X54555215Y-54770000D01*
X54884785Y-54770000D01*
X54903602Y-54973082D01*
X54959417Y-55169247D01*
X54959422Y-55169260D01*
X55050327Y-55351821D01*
X55173237Y-55514581D01*
X55323958Y-55651980D01*
X55323960Y-55651982D01*
X55324842Y-55652528D01*
X55497363Y-55759348D01*
X55687544Y-55833024D01*
X55888024Y-55870500D01*
X55888026Y-55870500D01*
X56091974Y-55870500D01*
X56091976Y-55870500D01*
X56292456Y-55833024D01*
X56482637Y-55759348D01*
X56656041Y-55651981D01*
X56806764Y-55514579D01*
X56929673Y-55351821D01*
X57020582Y-55169250D01*
X57076397Y-54973083D01*
X57095215Y-54770000D01*
X57424785Y-54770000D01*
X57443602Y-54973082D01*
X57499417Y-55169247D01*
X57499422Y-55169260D01*
X57590327Y-55351821D01*
X57713237Y-55514581D01*
X57863958Y-55651980D01*
X57863960Y-55651982D01*
X57864842Y-55652528D01*
X58037363Y-55759348D01*
X58227544Y-55833024D01*
X58428024Y-55870500D01*
X58428026Y-55870500D01*
X58631974Y-55870500D01*
X58631976Y-55870500D01*
X58832456Y-55833024D01*
X59022637Y-55759348D01*
X59196041Y-55651981D01*
X59346764Y-55514579D01*
X59469673Y-55351821D01*
X59560582Y-55169250D01*
X59616397Y-54973083D01*
X59635215Y-54770000D01*
X59964785Y-54770000D01*
X59983602Y-54973082D01*
X60039417Y-55169247D01*
X60039422Y-55169260D01*
X60130327Y-55351821D01*
X60253237Y-55514581D01*
X60403958Y-55651980D01*
X60403960Y-55651982D01*
X60404842Y-55652528D01*
X60577363Y-55759348D01*
X60767544Y-55833024D01*
X60968024Y-55870500D01*
X60968026Y-55870500D01*
X61171974Y-55870500D01*
X61171976Y-55870500D01*
X61372456Y-55833024D01*
X61562637Y-55759348D01*
X61736041Y-55651981D01*
X61886764Y-55514579D01*
X62009673Y-55351821D01*
X62100582Y-55169250D01*
X62156397Y-54973083D01*
X62175215Y-54770000D01*
X62504785Y-54770000D01*
X62523602Y-54973082D01*
X62579417Y-55169247D01*
X62579422Y-55169260D01*
X62670327Y-55351821D01*
X62793237Y-55514581D01*
X62943958Y-55651980D01*
X62943960Y-55651982D01*
X62944842Y-55652528D01*
X63117363Y-55759348D01*
X63307544Y-55833024D01*
X63508024Y-55870500D01*
X63508026Y-55870500D01*
X63711974Y-55870500D01*
X63711976Y-55870500D01*
X63912456Y-55833024D01*
X64102637Y-55759348D01*
X64276041Y-55651981D01*
X64426764Y-55514579D01*
X64549673Y-55351821D01*
X64640582Y-55169250D01*
X64696397Y-54973083D01*
X64715215Y-54770000D01*
X64696397Y-54566917D01*
X64640582Y-54370750D01*
X64607998Y-54305313D01*
X64556502Y-54201894D01*
X64549673Y-54188179D01*
X64426764Y-54025421D01*
X64426762Y-54025418D01*
X64276041Y-53888019D01*
X64276039Y-53888017D01*
X64102642Y-53780655D01*
X64102635Y-53780651D01*
X63996150Y-53739399D01*
X63912456Y-53706976D01*
X63711976Y-53669500D01*
X63508024Y-53669500D01*
X63307544Y-53706976D01*
X63307541Y-53706976D01*
X63307541Y-53706977D01*
X63117364Y-53780651D01*
X63117357Y-53780655D01*
X62943960Y-53888017D01*
X62943958Y-53888019D01*
X62793237Y-54025418D01*
X62670327Y-54188178D01*
X62579422Y-54370739D01*
X62579417Y-54370752D01*
X62523602Y-54566917D01*
X62504785Y-54769999D01*
X62504785Y-54770000D01*
X62175215Y-54770000D01*
X62156397Y-54566917D01*
X62100582Y-54370750D01*
X62067998Y-54305313D01*
X62016502Y-54201894D01*
X62009673Y-54188179D01*
X61886764Y-54025421D01*
X61886762Y-54025418D01*
X61736041Y-53888019D01*
X61736039Y-53888017D01*
X61562642Y-53780655D01*
X61562635Y-53780651D01*
X61456150Y-53739399D01*
X61372456Y-53706976D01*
X61171976Y-53669500D01*
X60968024Y-53669500D01*
X60767544Y-53706976D01*
X60767541Y-53706976D01*
X60767541Y-53706977D01*
X60577364Y-53780651D01*
X60577357Y-53780655D01*
X60403960Y-53888017D01*
X60403958Y-53888019D01*
X60253237Y-54025418D01*
X60130327Y-54188178D01*
X60039422Y-54370739D01*
X60039417Y-54370752D01*
X59983602Y-54566917D01*
X59964785Y-54769999D01*
X59964785Y-54770000D01*
X59635215Y-54770000D01*
X59616397Y-54566917D01*
X59560582Y-54370750D01*
X59527998Y-54305313D01*
X59476502Y-54201894D01*
X59469673Y-54188179D01*
X59346764Y-54025421D01*
X59346762Y-54025418D01*
X59196041Y-53888019D01*
X59196039Y-53888017D01*
X59022642Y-53780655D01*
X59022635Y-53780651D01*
X58916150Y-53739399D01*
X58832456Y-53706976D01*
X58631976Y-53669500D01*
X58428024Y-53669500D01*
X58227544Y-53706976D01*
X58227541Y-53706976D01*
X58227541Y-53706977D01*
X58037364Y-53780651D01*
X58037357Y-53780655D01*
X57863960Y-53888017D01*
X57863958Y-53888019D01*
X57713237Y-54025418D01*
X57590327Y-54188178D01*
X57499422Y-54370739D01*
X57499417Y-54370752D01*
X57443602Y-54566917D01*
X57424785Y-54769999D01*
X57424785Y-54770000D01*
X57095215Y-54770000D01*
X57076397Y-54566917D01*
X57020582Y-54370750D01*
X56987998Y-54305313D01*
X56936502Y-54201894D01*
X56929673Y-54188179D01*
X56806764Y-54025421D01*
X56806762Y-54025418D01*
X56656041Y-53888019D01*
X56656039Y-53888017D01*
X56482642Y-53780655D01*
X56482635Y-53780651D01*
X56376150Y-53739399D01*
X56292456Y-53706976D01*
X56091976Y-53669500D01*
X55888024Y-53669500D01*
X55687544Y-53706976D01*
X55687541Y-53706976D01*
X55687541Y-53706977D01*
X55497364Y-53780651D01*
X55497357Y-53780655D01*
X55323960Y-53888017D01*
X55323958Y-53888019D01*
X55173237Y-54025418D01*
X55050327Y-54188178D01*
X54959422Y-54370739D01*
X54959417Y-54370752D01*
X54903602Y-54566917D01*
X54884785Y-54769999D01*
X54884785Y-54770000D01*
X54555215Y-54770000D01*
X54536397Y-54566917D01*
X54480582Y-54370750D01*
X54447998Y-54305313D01*
X54396502Y-54201894D01*
X54389673Y-54188179D01*
X54266764Y-54025421D01*
X54266762Y-54025418D01*
X54116041Y-53888019D01*
X54116039Y-53888017D01*
X53942642Y-53780655D01*
X53942635Y-53780651D01*
X53836150Y-53739399D01*
X53752456Y-53706976D01*
X53551976Y-53669500D01*
X53348024Y-53669500D01*
X53147544Y-53706976D01*
X53147541Y-53706976D01*
X53147541Y-53706977D01*
X52957364Y-53780651D01*
X52957357Y-53780655D01*
X52783960Y-53888017D01*
X52783958Y-53888019D01*
X52633237Y-54025418D01*
X52510327Y-54188178D01*
X52419422Y-54370739D01*
X52419417Y-54370752D01*
X52363602Y-54566917D01*
X52344785Y-54769999D01*
X52344785Y-54770000D01*
X52015215Y-54770000D01*
X51996397Y-54566917D01*
X51940582Y-54370750D01*
X51907998Y-54305313D01*
X51856502Y-54201894D01*
X51849673Y-54188179D01*
X51726764Y-54025421D01*
X51726762Y-54025418D01*
X51576041Y-53888019D01*
X51576039Y-53888017D01*
X51402642Y-53780655D01*
X51402635Y-53780651D01*
X51296150Y-53739399D01*
X51212456Y-53706976D01*
X51011976Y-53669500D01*
X50808024Y-53669500D01*
X50607544Y-53706976D01*
X50607541Y-53706976D01*
X50607541Y-53706977D01*
X50417364Y-53780651D01*
X50417357Y-53780655D01*
X50243960Y-53888017D01*
X50243958Y-53888019D01*
X50093237Y-54025418D01*
X49970327Y-54188178D01*
X49879422Y-54370739D01*
X49879417Y-54370752D01*
X49823602Y-54566917D01*
X49804785Y-54769999D01*
X49804785Y-54770000D01*
X49470500Y-54770000D01*
X49470500Y-53895326D01*
X49470500Y-53895323D01*
X49470499Y-53895321D01*
X49455967Y-53822264D01*
X49455966Y-53822260D01*
X49453550Y-53818644D01*
X49400601Y-53739399D01*
X49317740Y-53684034D01*
X49317739Y-53684033D01*
X49317735Y-53684032D01*
X49244677Y-53669500D01*
X49244674Y-53669500D01*
X47495326Y-53669500D01*
X47495323Y-53669500D01*
X47422264Y-53684032D01*
X47422260Y-53684033D01*
X47339399Y-53739399D01*
X47284033Y-53822260D01*
X47284032Y-53822264D01*
X47269500Y-53895321D01*
X47269500Y-55644678D01*
X45977762Y-55644678D01*
X46032258Y-55585480D01*
X46246309Y-55294253D01*
X46427023Y-54981247D01*
X46572207Y-54650260D01*
X46680099Y-54305310D01*
X46749389Y-53950586D01*
X46779235Y-53590391D01*
X46769276Y-53229100D01*
X46719633Y-52871097D01*
X46630907Y-52520728D01*
X46620312Y-52492431D01*
X46522057Y-52230000D01*
X52344785Y-52230000D01*
X52363602Y-52433082D01*
X52419417Y-52629247D01*
X52419422Y-52629260D01*
X52510327Y-52811821D01*
X52633237Y-52974581D01*
X52783958Y-53111980D01*
X52783960Y-53111982D01*
X52883141Y-53173392D01*
X52957363Y-53219348D01*
X53147544Y-53293024D01*
X53348024Y-53330500D01*
X53348026Y-53330500D01*
X53551974Y-53330500D01*
X53551976Y-53330500D01*
X53752456Y-53293024D01*
X53942637Y-53219348D01*
X54116041Y-53111981D01*
X54266764Y-52974579D01*
X54389673Y-52811821D01*
X54480582Y-52629250D01*
X54536397Y-52433083D01*
X54555215Y-52230000D01*
X54884785Y-52230000D01*
X54903602Y-52433082D01*
X54959417Y-52629247D01*
X54959422Y-52629260D01*
X55050327Y-52811821D01*
X55173237Y-52974581D01*
X55323958Y-53111980D01*
X55323960Y-53111982D01*
X55423141Y-53173392D01*
X55497363Y-53219348D01*
X55687544Y-53293024D01*
X55888024Y-53330500D01*
X55888026Y-53330500D01*
X56091974Y-53330500D01*
X56091976Y-53330500D01*
X56292456Y-53293024D01*
X56482637Y-53219348D01*
X56656041Y-53111981D01*
X56806764Y-52974579D01*
X56929673Y-52811821D01*
X57020582Y-52629250D01*
X57076397Y-52433083D01*
X57095215Y-52230000D01*
X57424785Y-52230000D01*
X57443602Y-52433082D01*
X57499417Y-52629247D01*
X57499422Y-52629260D01*
X57590327Y-52811821D01*
X57713237Y-52974581D01*
X57863958Y-53111980D01*
X57863960Y-53111982D01*
X57963141Y-53173392D01*
X58037363Y-53219348D01*
X58227544Y-53293024D01*
X58428024Y-53330500D01*
X58428026Y-53330500D01*
X58631974Y-53330500D01*
X58631976Y-53330500D01*
X58832456Y-53293024D01*
X59022637Y-53219348D01*
X59196041Y-53111981D01*
X59346764Y-52974579D01*
X59469673Y-52811821D01*
X59560582Y-52629250D01*
X59616397Y-52433083D01*
X59635215Y-52230000D01*
X59964785Y-52230000D01*
X59983602Y-52433082D01*
X60039417Y-52629247D01*
X60039422Y-52629260D01*
X60130327Y-52811821D01*
X60253237Y-52974581D01*
X60403958Y-53111980D01*
X60403960Y-53111982D01*
X60503141Y-53173392D01*
X60577363Y-53219348D01*
X60767544Y-53293024D01*
X60968024Y-53330500D01*
X60968026Y-53330500D01*
X61171974Y-53330500D01*
X61171976Y-53330500D01*
X61372456Y-53293024D01*
X61562637Y-53219348D01*
X61736041Y-53111981D01*
X61886764Y-52974579D01*
X62009673Y-52811821D01*
X62100582Y-52629250D01*
X62156397Y-52433083D01*
X62175215Y-52230000D01*
X62504785Y-52230000D01*
X62523602Y-52433082D01*
X62579417Y-52629247D01*
X62579422Y-52629260D01*
X62670327Y-52811821D01*
X62793237Y-52974581D01*
X62943958Y-53111980D01*
X62943960Y-53111982D01*
X63043141Y-53173392D01*
X63117363Y-53219348D01*
X63307544Y-53293024D01*
X63508024Y-53330500D01*
X63508026Y-53330500D01*
X63711974Y-53330500D01*
X63711976Y-53330500D01*
X63912456Y-53293024D01*
X64102637Y-53219348D01*
X64276041Y-53111981D01*
X64426764Y-52974579D01*
X64549673Y-52811821D01*
X64640582Y-52629250D01*
X64696397Y-52433083D01*
X64715215Y-52230000D01*
X64696397Y-52026917D01*
X64640582Y-51830750D01*
X64549673Y-51648179D01*
X64426764Y-51485421D01*
X64426762Y-51485418D01*
X64276041Y-51348019D01*
X64276039Y-51348017D01*
X64102642Y-51240655D01*
X64102635Y-51240651D01*
X63944658Y-51179451D01*
X63912456Y-51166976D01*
X63711976Y-51129500D01*
X63508024Y-51129500D01*
X63307544Y-51166976D01*
X63307541Y-51166976D01*
X63307541Y-51166977D01*
X63117364Y-51240651D01*
X63117357Y-51240655D01*
X62943960Y-51348017D01*
X62943958Y-51348019D01*
X62793237Y-51485418D01*
X62670327Y-51648178D01*
X62579422Y-51830739D01*
X62579417Y-51830752D01*
X62523602Y-52026917D01*
X62504785Y-52229999D01*
X62504785Y-52230000D01*
X62175215Y-52230000D01*
X62156397Y-52026917D01*
X62100582Y-51830750D01*
X62009673Y-51648179D01*
X61886764Y-51485421D01*
X61886762Y-51485418D01*
X61736041Y-51348019D01*
X61736039Y-51348017D01*
X61562642Y-51240655D01*
X61562635Y-51240651D01*
X61404658Y-51179451D01*
X61372456Y-51166976D01*
X61171976Y-51129500D01*
X60968024Y-51129500D01*
X60767544Y-51166976D01*
X60767541Y-51166976D01*
X60767541Y-51166977D01*
X60577364Y-51240651D01*
X60577357Y-51240655D01*
X60403960Y-51348017D01*
X60403958Y-51348019D01*
X60253237Y-51485418D01*
X60130327Y-51648178D01*
X60039422Y-51830739D01*
X60039417Y-51830752D01*
X59983602Y-52026917D01*
X59964785Y-52229999D01*
X59964785Y-52230000D01*
X59635215Y-52230000D01*
X59616397Y-52026917D01*
X59560582Y-51830750D01*
X59469673Y-51648179D01*
X59346764Y-51485421D01*
X59346762Y-51485418D01*
X59196041Y-51348019D01*
X59196039Y-51348017D01*
X59022642Y-51240655D01*
X59022635Y-51240651D01*
X58864658Y-51179451D01*
X58832456Y-51166976D01*
X58631976Y-51129500D01*
X58428024Y-51129500D01*
X58227544Y-51166976D01*
X58227541Y-51166976D01*
X58227541Y-51166977D01*
X58037364Y-51240651D01*
X58037357Y-51240655D01*
X57863960Y-51348017D01*
X57863958Y-51348019D01*
X57713237Y-51485418D01*
X57590327Y-51648178D01*
X57499422Y-51830739D01*
X57499417Y-51830752D01*
X57443602Y-52026917D01*
X57424785Y-52229999D01*
X57424785Y-52230000D01*
X57095215Y-52230000D01*
X57076397Y-52026917D01*
X57020582Y-51830750D01*
X56929673Y-51648179D01*
X56806764Y-51485421D01*
X56806762Y-51485418D01*
X56656041Y-51348019D01*
X56656039Y-51348017D01*
X56482642Y-51240655D01*
X56482635Y-51240651D01*
X56324658Y-51179451D01*
X56292456Y-51166976D01*
X56091976Y-51129500D01*
X55888024Y-51129500D01*
X55687544Y-51166976D01*
X55687541Y-51166976D01*
X55687541Y-51166977D01*
X55497364Y-51240651D01*
X55497357Y-51240655D01*
X55323960Y-51348017D01*
X55323958Y-51348019D01*
X55173237Y-51485418D01*
X55050327Y-51648178D01*
X54959422Y-51830739D01*
X54959417Y-51830752D01*
X54903602Y-52026917D01*
X54884785Y-52229999D01*
X54884785Y-52230000D01*
X54555215Y-52230000D01*
X54536397Y-52026917D01*
X54480582Y-51830750D01*
X54389673Y-51648179D01*
X54266764Y-51485421D01*
X54266762Y-51485418D01*
X54116041Y-51348019D01*
X54116039Y-51348017D01*
X53942642Y-51240655D01*
X53942635Y-51240651D01*
X53784658Y-51179451D01*
X53752456Y-51166976D01*
X53551976Y-51129500D01*
X53348024Y-51129500D01*
X53147544Y-51166976D01*
X53147541Y-51166976D01*
X53147541Y-51166977D01*
X52957364Y-51240651D01*
X52957357Y-51240655D01*
X52783960Y-51348017D01*
X52783958Y-51348019D01*
X52633237Y-51485418D01*
X52510327Y-51648178D01*
X52419422Y-51830739D01*
X52419417Y-51830752D01*
X52363602Y-52026917D01*
X52344785Y-52229999D01*
X52344785Y-52230000D01*
X46522057Y-52230000D01*
X46504180Y-52182253D01*
X46504178Y-52182250D01*
X46504177Y-52182246D01*
X46340980Y-51859760D01*
X46143297Y-51557184D01*
X45913528Y-51278191D01*
X45809102Y-51176604D01*
X45654460Y-51026165D01*
X45369246Y-50804173D01*
X45369244Y-50804172D01*
X45061333Y-50614901D01*
X45061329Y-50614899D01*
X44734489Y-50460660D01*
X44734485Y-50460658D01*
X44734476Y-50460654D01*
X44734470Y-50460652D01*
X44734468Y-50460651D01*
X44392638Y-50343300D01*
X44392631Y-50343298D01*
X44392630Y-50343298D01*
X44290893Y-50320498D01*
X44229782Y-50286630D01*
X44196682Y-50225099D01*
X44202103Y-50155440D01*
X44244324Y-50099769D01*
X44309940Y-50075763D01*
X44318011Y-50075500D01*
X65376000Y-50075500D01*
X65443039Y-50095185D01*
G37*
%TD.AperFunction*%
%TD*%
%TA.AperFunction,Conductor*%
%TO.N,+12LF*%
G36*
X51443039Y-60019685D02*
G01*
X51488794Y-60072489D01*
X51500000Y-60124000D01*
X51500000Y-71376000D01*
X51480315Y-71443039D01*
X51427511Y-71488794D01*
X51376000Y-71500000D01*
X46829000Y-71500000D01*
X46761961Y-71480315D01*
X46716206Y-71427511D01*
X46705000Y-71376000D01*
X46705000Y-70929000D01*
X46724685Y-70861961D01*
X46777489Y-70816206D01*
X46829000Y-70805000D01*
X46875991Y-70805000D01*
X46876000Y-70805000D01*
X46919684Y-70800303D01*
X46945439Y-70794700D01*
X46971193Y-70789098D01*
X46975374Y-70788075D01*
X46981373Y-70786610D01*
X47062085Y-70743600D01*
X47114889Y-70697845D01*
X47132843Y-70680254D01*
X47177490Y-70600437D01*
X47197175Y-70533398D01*
X47205500Y-70475500D01*
X47205500Y-60124000D01*
X47205500Y-60123999D01*
X47225185Y-60056961D01*
X47277989Y-60011206D01*
X47329500Y-60000000D01*
X51376000Y-60000000D01*
X51443039Y-60019685D01*
G37*
%TD.AperFunction*%
%TD*%
%TA.AperFunction,Conductor*%
%TO.N,GND*%
G36*
X53916430Y-63703728D02*
G01*
X53922327Y-63704309D01*
X53935674Y-63705184D01*
X53937138Y-63705280D01*
X53943862Y-63705500D01*
X55832212Y-63705500D01*
X55899251Y-63725185D01*
X55932493Y-63756565D01*
X56453266Y-64472628D01*
X57396656Y-65769790D01*
X57396669Y-65769807D01*
X57405001Y-65779278D01*
X57421795Y-65798368D01*
X57455039Y-65829750D01*
X57458389Y-65832843D01*
X57538206Y-65877490D01*
X57605245Y-65897175D01*
X57663143Y-65905500D01*
X57663147Y-65905500D01*
X60120491Y-65905500D01*
X60120500Y-65905500D01*
X60164184Y-65900803D01*
X60189939Y-65895200D01*
X60215693Y-65889598D01*
X60219874Y-65888575D01*
X60225873Y-65887110D01*
X60237142Y-65881104D01*
X60305562Y-65866947D01*
X60369542Y-65891098D01*
X60426748Y-65933717D01*
X60428286Y-65934863D01*
X60492194Y-65969570D01*
X62863568Y-66847855D01*
X62919595Y-66889597D01*
X62944162Y-66955005D01*
X62944499Y-66964135D01*
X62944500Y-71376000D01*
X62924815Y-71443039D01*
X62872011Y-71488794D01*
X62820500Y-71500000D01*
X59329500Y-71500000D01*
X59262461Y-71480315D01*
X59216706Y-71427511D01*
X59205500Y-71376000D01*
X59205500Y-68024008D01*
X59205499Y-68023992D01*
X59200803Y-67980316D01*
X59196535Y-67960701D01*
X59189598Y-67928807D01*
X59187110Y-67918629D01*
X59187110Y-67918627D01*
X59144100Y-67837915D01*
X59098345Y-67785111D01*
X59080756Y-67767159D01*
X59080750Y-67767154D01*
X59000940Y-67722511D01*
X59000935Y-67722509D01*
X58933903Y-67702826D01*
X58933899Y-67702825D01*
X58933898Y-67702825D01*
X58876000Y-67694500D01*
X58875996Y-67694500D01*
X55329500Y-67694500D01*
X55262461Y-67674815D01*
X55216706Y-67622011D01*
X55205500Y-67570500D01*
X55205500Y-65968726D01*
X55200525Y-65923785D01*
X55200524Y-65923783D01*
X55200524Y-65923778D01*
X55188660Y-65870850D01*
X55185758Y-65859443D01*
X55171608Y-65833676D01*
X55141735Y-65779278D01*
X55141732Y-65779275D01*
X55095324Y-65727061D01*
X55095322Y-65727059D01*
X55095320Y-65727057D01*
X55050636Y-65689312D01*
X53663777Y-64822524D01*
X53617363Y-64770302D01*
X53605500Y-64717377D01*
X53605500Y-64472628D01*
X53604892Y-64458033D01*
X53591244Y-64392486D01*
X53582976Y-64371101D01*
X53582529Y-64365745D01*
X53558163Y-64306921D01*
X53553274Y-64294275D01*
X53551676Y-64291261D01*
X53521409Y-64218190D01*
X53513035Y-64186935D01*
X53503721Y-64116178D01*
X53503721Y-64083815D01*
X53513034Y-64013067D01*
X53521412Y-63981803D01*
X53572101Y-63859432D01*
X53573535Y-63856230D01*
X53577490Y-63848028D01*
X53578172Y-63845706D01*
X53579247Y-63842656D01*
X53579989Y-63839516D01*
X53593532Y-63793394D01*
X53631308Y-63734618D01*
X53694864Y-63705594D01*
X53725054Y-63705594D01*
X53725084Y-63705184D01*
X53729499Y-63705499D01*
X53729500Y-63705500D01*
X53729501Y-63705500D01*
X53856137Y-63705500D01*
X53856138Y-63705500D01*
X53859500Y-63705390D01*
X53862864Y-63705280D01*
X53877673Y-63704309D01*
X53880142Y-63704065D01*
X53884334Y-63703652D01*
X53883770Y-63703728D01*
X53916206Y-63703725D01*
X53915651Y-63703651D01*
X53916430Y-63703728D01*
G37*
%TD.AperFunction*%
%TD*%
%TA.AperFunction,Conductor*%
%TO.N,Net-(C9-Pad1)*%
G36*
X52002088Y-62700162D02*
G01*
X52006736Y-62700499D01*
X52006740Y-62700500D01*
X52006744Y-62700500D01*
X53098256Y-62700500D01*
X53098260Y-62700500D01*
X53098263Y-62700499D01*
X53102912Y-62700162D01*
X53107398Y-62700000D01*
X53276000Y-62700000D01*
X53343039Y-62719685D01*
X53388794Y-62772489D01*
X53400000Y-62824000D01*
X53400000Y-63723091D01*
X53380315Y-63790130D01*
X53375878Y-63796440D01*
X53375465Y-63797156D01*
X53314956Y-63943237D01*
X53314955Y-63943239D01*
X53294318Y-64099998D01*
X53294318Y-64100001D01*
X53314955Y-64256760D01*
X53314956Y-64256762D01*
X53375462Y-64402837D01*
X53379526Y-64409875D01*
X53377987Y-64410763D01*
X53399570Y-64466589D01*
X53400000Y-64476908D01*
X53400000Y-64900000D01*
X54941721Y-65863576D01*
X54988136Y-65915798D01*
X55000000Y-65968726D01*
X55000000Y-67900000D01*
X58876000Y-67900000D01*
X58943039Y-67919685D01*
X58988794Y-67972489D01*
X59000000Y-68024000D01*
X59000000Y-71376000D01*
X58980315Y-71443039D01*
X58927511Y-71488794D01*
X58876000Y-71500000D01*
X51829500Y-71500000D01*
X51762461Y-71480315D01*
X51716706Y-71427511D01*
X51705500Y-71376000D01*
X51705500Y-70724500D01*
X51725185Y-70657461D01*
X51777989Y-70611706D01*
X51829500Y-70600500D01*
X53669750Y-70600500D01*
X53669751Y-70600499D01*
X53686544Y-70597159D01*
X53728229Y-70588868D01*
X53728229Y-70588867D01*
X53728231Y-70588867D01*
X53794552Y-70544552D01*
X53838867Y-70478231D01*
X53838867Y-70478229D01*
X53838868Y-70478229D01*
X53850499Y-70419752D01*
X53850500Y-70419750D01*
X53850500Y-68580249D01*
X53850499Y-68580247D01*
X53838868Y-68521770D01*
X53838867Y-68521769D01*
X53794552Y-68455447D01*
X53728230Y-68411132D01*
X53728229Y-68411131D01*
X53669752Y-68399500D01*
X53669748Y-68399500D01*
X51829500Y-68399500D01*
X51762461Y-68379815D01*
X51716706Y-68327011D01*
X51705500Y-68275500D01*
X51705500Y-62824000D01*
X51725185Y-62756961D01*
X51777989Y-62711206D01*
X51829500Y-62700000D01*
X51997602Y-62700000D01*
X52002088Y-62700162D01*
G37*
%TD.AperFunction*%
%TD*%
%TA.AperFunction,Conductor*%
%TO.N,Net-(C10-Pad2)*%
G36*
X60187539Y-59675185D02*
G01*
X60233294Y-59727989D01*
X60244500Y-59779500D01*
X60244500Y-65576000D01*
X60224815Y-65643039D01*
X60172011Y-65688794D01*
X60120500Y-65700000D01*
X57663143Y-65700000D01*
X57596104Y-65680315D01*
X57562860Y-65648933D01*
X57558573Y-65643039D01*
X57146097Y-65075884D01*
X56000001Y-63500000D01*
X56000000Y-63500000D01*
X53947226Y-63500000D01*
X53939127Y-63499469D01*
X53900000Y-63494318D01*
X53860872Y-63499469D01*
X53852774Y-63500000D01*
X53729500Y-63500000D01*
X53662461Y-63480315D01*
X53616706Y-63427511D01*
X53605500Y-63376000D01*
X53605500Y-62824008D01*
X53605499Y-62823992D01*
X53600803Y-62780316D01*
X53596535Y-62760701D01*
X53589598Y-62728807D01*
X53587110Y-62718629D01*
X53587110Y-62718627D01*
X53567775Y-62682344D01*
X53553619Y-62613926D01*
X53576632Y-62551500D01*
X53579256Y-62547860D01*
X53579260Y-62547856D01*
X53625467Y-62459520D01*
X53645151Y-62392481D01*
X53655500Y-62320500D01*
X53655499Y-61791962D01*
X53675183Y-61724925D01*
X53727987Y-61679170D01*
X53797146Y-61669226D01*
X53860702Y-61698251D01*
X53867158Y-61704261D01*
X53956833Y-61793937D01*
X53990317Y-61855260D01*
X53985333Y-61924951D01*
X53980554Y-61936072D01*
X53974428Y-61948603D01*
X53974425Y-61948611D01*
X53964500Y-62016739D01*
X53964500Y-62383260D01*
X53974426Y-62451391D01*
X54025803Y-62556485D01*
X54108514Y-62639196D01*
X54108515Y-62639196D01*
X54108517Y-62639198D01*
X54213607Y-62690573D01*
X54247673Y-62695536D01*
X54281739Y-62700500D01*
X54281740Y-62700500D01*
X55373261Y-62700500D01*
X55395971Y-62697190D01*
X55441393Y-62690573D01*
X55546483Y-62639198D01*
X55629198Y-62556483D01*
X55680573Y-62451393D01*
X55690500Y-62383260D01*
X55690500Y-62016740D01*
X55680573Y-61948607D01*
X55629198Y-61843517D01*
X55629196Y-61843515D01*
X55629196Y-61843514D01*
X55546485Y-61760803D01*
X55441391Y-61709426D01*
X55373261Y-61699500D01*
X55373260Y-61699500D01*
X55187965Y-61699500D01*
X55120926Y-61679815D01*
X55100284Y-61663181D01*
X54286819Y-60849716D01*
X54253334Y-60788393D01*
X54250500Y-60762035D01*
X54250500Y-59870730D01*
X54247646Y-59840301D01*
X54240702Y-59820456D01*
X54237139Y-59750678D01*
X54271867Y-59690050D01*
X54333860Y-59657822D01*
X54357743Y-59655500D01*
X60120500Y-59655500D01*
X60187539Y-59675185D01*
G37*
%TD.AperFunction*%
%TD*%
%TA.AperFunction,Conductor*%
%TO.N,+3V3*%
G36*
X100745538Y-50095185D02*
G01*
X100791293Y-50147989D01*
X100801237Y-50217147D01*
X100772212Y-50280703D01*
X100713434Y-50318477D01*
X100712240Y-50318821D01*
X100434831Y-50397264D01*
X100434818Y-50397268D01*
X100099968Y-50533273D01*
X100099962Y-50533276D01*
X99782108Y-50705290D01*
X99782107Y-50705291D01*
X99782102Y-50705294D01*
X99782101Y-50705295D01*
X99700708Y-50761732D01*
X99485081Y-50911244D01*
X99212530Y-51148609D01*
X98967740Y-51414522D01*
X98753691Y-51705747D01*
X98753690Y-51705748D01*
X98572977Y-52018752D01*
X98427792Y-52349741D01*
X98427791Y-52349742D01*
X98319901Y-52694686D01*
X98250611Y-53049410D01*
X98250609Y-53049424D01*
X98220765Y-53409599D01*
X98220765Y-53409602D01*
X98230723Y-53770893D01*
X98230723Y-53770894D01*
X98232275Y-53782085D01*
X98270541Y-54058045D01*
X98280368Y-54128908D01*
X98369093Y-54479273D01*
X98369093Y-54479275D01*
X98495819Y-54817746D01*
X98495822Y-54817753D01*
X98495823Y-54817754D01*
X98659020Y-55140240D01*
X98856703Y-55442816D01*
X99074017Y-55706686D01*
X99086473Y-55721810D01*
X99086478Y-55721815D01*
X99345539Y-55973834D01*
X99630753Y-56195826D01*
X99630755Y-56195827D01*
X99938664Y-56385097D01*
X100265524Y-56539346D01*
X100607370Y-56656702D01*
X100960051Y-56735740D01*
X101319286Y-56775500D01*
X101590286Y-56775500D01*
X101626975Y-56773475D01*
X101860880Y-56760571D01*
X102217379Y-56701081D01*
X102565170Y-56602735D01*
X102565176Y-56602732D01*
X102565181Y-56602731D01*
X102767844Y-56520416D01*
X102900032Y-56466726D01*
X103217899Y-56294705D01*
X103514913Y-56088760D01*
X103787469Y-55851391D01*
X104032258Y-55585480D01*
X104246309Y-55294253D01*
X104427023Y-54981247D01*
X104572207Y-54650260D01*
X104680099Y-54305310D01*
X104680100Y-54305301D01*
X104680293Y-54304546D01*
X104680390Y-54304381D01*
X104681120Y-54302048D01*
X104681667Y-54302219D01*
X104715829Y-54244388D01*
X104778248Y-54212993D01*
X104847732Y-54220328D01*
X104902220Y-54264064D01*
X104924412Y-54330315D01*
X104924500Y-54334980D01*
X104924500Y-75685311D01*
X104904815Y-75752350D01*
X104852011Y-75798105D01*
X104782853Y-75808049D01*
X104719297Y-75779024D01*
X104681523Y-75720246D01*
X104680294Y-75715751D01*
X104664358Y-75652822D01*
X104630907Y-75520728D01*
X104566888Y-75349741D01*
X104504180Y-75182253D01*
X104504178Y-75182250D01*
X104504177Y-75182246D01*
X104340980Y-74859760D01*
X104143297Y-74557184D01*
X103913528Y-74278191D01*
X103654463Y-74026168D01*
X103654460Y-74026165D01*
X103369246Y-73804173D01*
X103369244Y-73804172D01*
X103061333Y-73614901D01*
X103061329Y-73614899D01*
X102734489Y-73460660D01*
X102734485Y-73460658D01*
X102734476Y-73460654D01*
X102734470Y-73460652D01*
X102734468Y-73460651D01*
X102392638Y-73343300D01*
X102392633Y-73343299D01*
X102392630Y-73343298D01*
X102039949Y-73264260D01*
X102039945Y-73264259D01*
X102039943Y-73264259D01*
X101680714Y-73224500D01*
X101409717Y-73224500D01*
X101409714Y-73224500D01*
X101139120Y-73239429D01*
X100782619Y-73298919D01*
X100782615Y-73298920D01*
X100434831Y-73397264D01*
X100434818Y-73397268D01*
X100099968Y-73533273D01*
X100099962Y-73533276D01*
X99782108Y-73705290D01*
X99782107Y-73705291D01*
X99485081Y-73911244D01*
X99212530Y-74148609D01*
X98967740Y-74414522D01*
X98753691Y-74705747D01*
X98753690Y-74705748D01*
X98572977Y-75018752D01*
X98427792Y-75349741D01*
X98427791Y-75349742D01*
X98319901Y-75694686D01*
X98250611Y-76049410D01*
X98250609Y-76049424D01*
X98220765Y-76409599D01*
X98220765Y-76409602D01*
X98230723Y-76770893D01*
X98230723Y-76770894D01*
X98230724Y-76770900D01*
X98262492Y-77000000D01*
X98280368Y-77128908D01*
X98369093Y-77479273D01*
X98369093Y-77479275D01*
X98495819Y-77817746D01*
X98495822Y-77817753D01*
X98495823Y-77817754D01*
X98659020Y-78140240D01*
X98856703Y-78442816D01*
X99056804Y-78685785D01*
X99086473Y-78721810D01*
X99086478Y-78721815D01*
X99345539Y-78973834D01*
X99630753Y-79195826D01*
X99630755Y-79195827D01*
X99774439Y-79284149D01*
X99938666Y-79385098D01*
X99938670Y-79385100D01*
X100036722Y-79431371D01*
X100265524Y-79539346D01*
X100607370Y-79656702D01*
X100709106Y-79679501D01*
X100770218Y-79713370D01*
X100803318Y-79774901D01*
X100797897Y-79844560D01*
X100755676Y-79900231D01*
X100690060Y-79924237D01*
X100681989Y-79924500D01*
X78379500Y-79924500D01*
X78312461Y-79904815D01*
X78266706Y-79852011D01*
X78255500Y-79800500D01*
X78255500Y-71124000D01*
X78249661Y-71069687D01*
X78249660Y-71069684D01*
X78249607Y-71069354D01*
X78249616Y-71069275D01*
X78249306Y-71066384D01*
X78249988Y-71066310D01*
X78258303Y-71000028D01*
X78303099Y-70946408D01*
X78369773Y-70925519D01*
X78371899Y-70925499D01*
X78721518Y-70925499D01*
X78815304Y-70910646D01*
X78928342Y-70853050D01*
X79018050Y-70763342D01*
X79064516Y-70672145D01*
X79112490Y-70621352D01*
X79180311Y-70604557D01*
X79246445Y-70627094D01*
X79285482Y-70672145D01*
X79331950Y-70763342D01*
X79331951Y-70763343D01*
X79331954Y-70763347D01*
X79421652Y-70853045D01*
X79421654Y-70853046D01*
X79421658Y-70853050D01*
X79529332Y-70907913D01*
X79534698Y-70910647D01*
X79628475Y-70925499D01*
X79628481Y-70925500D01*
X79991518Y-70925499D01*
X80085304Y-70910646D01*
X80198342Y-70853050D01*
X80288050Y-70763342D01*
X80334516Y-70672145D01*
X80382490Y-70621352D01*
X80450311Y-70604557D01*
X80516445Y-70627094D01*
X80555482Y-70672145D01*
X80601950Y-70763342D01*
X80601951Y-70763343D01*
X80601954Y-70763347D01*
X80691652Y-70853045D01*
X80691654Y-70853046D01*
X80691658Y-70853050D01*
X80799332Y-70907913D01*
X80804698Y-70910647D01*
X80898475Y-70925499D01*
X80898481Y-70925500D01*
X81261518Y-70925499D01*
X81355304Y-70910646D01*
X81468342Y-70853050D01*
X81558050Y-70763342D01*
X81615646Y-70650304D01*
X81615646Y-70650302D01*
X81615647Y-70650301D01*
X81630499Y-70556524D01*
X81630500Y-70556519D01*
X81630499Y-68837773D01*
X81650184Y-68770735D01*
X81672273Y-68744958D01*
X81740482Y-68684531D01*
X81747531Y-68674319D01*
X81830220Y-68554523D01*
X81886237Y-68406818D01*
X81888841Y-68385370D01*
X82524500Y-68385370D01*
X82524501Y-68385376D01*
X82530908Y-68444983D01*
X82581202Y-68579828D01*
X82581206Y-68579835D01*
X82667452Y-68695044D01*
X82667455Y-68695047D01*
X82768561Y-68770735D01*
X82782669Y-68781296D01*
X82782671Y-68781296D01*
X82790452Y-68785546D01*
X82788855Y-68788470D01*
X82831832Y-68820642D01*
X82856250Y-68886106D01*
X82855662Y-68909899D01*
X82844722Y-68999999D01*
X82844722Y-69000000D01*
X82863762Y-69156818D01*
X82906789Y-69270268D01*
X82919780Y-69304523D01*
X83009517Y-69434530D01*
X83127760Y-69539283D01*
X83127762Y-69539284D01*
X83267634Y-69612696D01*
X83421014Y-69650500D01*
X83421015Y-69650500D01*
X83578985Y-69650500D01*
X83732365Y-69612696D01*
X83806792Y-69573633D01*
X83872240Y-69539283D01*
X83990483Y-69434530D01*
X84080220Y-69304523D01*
X84136237Y-69156818D01*
X84155278Y-69000000D01*
X84144337Y-68909896D01*
X84155797Y-68840976D01*
X84202701Y-68789189D01*
X84209682Y-68785793D01*
X84209548Y-68785546D01*
X84217325Y-68781297D01*
X84217331Y-68781296D01*
X84332546Y-68695046D01*
X84418796Y-68579831D01*
X84469091Y-68444983D01*
X84475500Y-68385373D01*
X84475499Y-67614628D01*
X84469091Y-67555017D01*
X84464676Y-67543181D01*
X84418797Y-67420171D01*
X84418793Y-67420164D01*
X84332547Y-67304955D01*
X84332544Y-67304952D01*
X84217335Y-67218706D01*
X84217328Y-67218702D01*
X84082482Y-67168408D01*
X84082483Y-67168408D01*
X84022883Y-67162001D01*
X84022881Y-67162000D01*
X84022873Y-67162000D01*
X84022864Y-67162000D01*
X82977129Y-67162000D01*
X82977123Y-67162001D01*
X82917516Y-67168408D01*
X82782671Y-67218702D01*
X82782664Y-67218706D01*
X82667455Y-67304952D01*
X82667452Y-67304955D01*
X82581206Y-67420164D01*
X82581202Y-67420171D01*
X82535323Y-67543182D01*
X82530909Y-67555017D01*
X82524500Y-67614627D01*
X82524500Y-67614634D01*
X82524500Y-67614635D01*
X82524500Y-68385370D01*
X81888841Y-68385370D01*
X81905278Y-68250000D01*
X81904732Y-68245499D01*
X81886237Y-68093181D01*
X81858255Y-68019399D01*
X81830220Y-67945477D01*
X81740483Y-67815470D01*
X81622240Y-67710717D01*
X81622237Y-67710714D01*
X81507875Y-67650692D01*
X81457662Y-67602107D01*
X81441688Y-67534088D01*
X81465024Y-67468230D01*
X81477813Y-67453222D01*
X82413659Y-66517376D01*
X82474981Y-66483893D01*
X82544673Y-66488877D01*
X82600604Y-66530747D01*
X82667454Y-66620046D01*
X82706801Y-66649501D01*
X82782664Y-66706293D01*
X82782671Y-66706297D01*
X82917517Y-66756591D01*
X82917516Y-66756591D01*
X82924444Y-66757335D01*
X82977127Y-66763000D01*
X84022872Y-66762999D01*
X84082483Y-66756591D01*
X84217331Y-66706296D01*
X84278820Y-66660264D01*
X84344285Y-66635847D01*
X84412558Y-66650698D01*
X84440813Y-66671850D01*
X86213181Y-68444218D01*
X86246666Y-68505541D01*
X86249500Y-68531899D01*
X86249500Y-72724678D01*
X86264032Y-72797735D01*
X86264033Y-72797739D01*
X86264034Y-72797740D01*
X86319399Y-72880601D01*
X86402260Y-72935966D01*
X86402264Y-72935967D01*
X86475321Y-72950499D01*
X86475324Y-72950500D01*
X86475326Y-72950500D01*
X88524676Y-72950500D01*
X88524677Y-72950499D01*
X88597740Y-72935966D01*
X88680601Y-72880601D01*
X88735966Y-72797740D01*
X88750500Y-72724674D01*
X88750500Y-72300000D01*
X90744722Y-72300000D01*
X90763762Y-72456818D01*
X90819780Y-72604522D01*
X90819780Y-72604523D01*
X90909517Y-72734530D01*
X91027760Y-72839283D01*
X91027762Y-72839284D01*
X91167634Y-72912696D01*
X91321014Y-72950500D01*
X91321015Y-72950500D01*
X91478985Y-72950500D01*
X91632365Y-72912696D01*
X91693518Y-72880600D01*
X91772240Y-72839283D01*
X91890483Y-72734530D01*
X91980220Y-72604523D01*
X92036237Y-72456818D01*
X92055278Y-72300000D01*
X92049190Y-72249866D01*
X92060650Y-72180946D01*
X92074420Y-72158775D01*
X92079647Y-72152059D01*
X92084719Y-72146317D01*
X92087519Y-72143518D01*
X92090543Y-72139283D01*
X92101085Y-72124516D01*
X92117571Y-72103336D01*
X92174282Y-72062523D01*
X92215424Y-72055499D01*
X92881517Y-72055499D01*
X92881518Y-72055499D01*
X92975304Y-72040646D01*
X93088342Y-71983050D01*
X93178050Y-71893342D01*
X93235646Y-71780304D01*
X93235646Y-71780302D01*
X93235647Y-71780301D01*
X93250499Y-71686524D01*
X93250500Y-71686519D01*
X93250500Y-71686517D01*
X95749500Y-71686517D01*
X95758046Y-71740476D01*
X95764354Y-71780304D01*
X95821950Y-71893342D01*
X95821952Y-71893344D01*
X95821954Y-71893347D01*
X95911652Y-71983045D01*
X95911654Y-71983046D01*
X95911658Y-71983050D01*
X96012691Y-72034529D01*
X96024698Y-72040647D01*
X96118475Y-72055499D01*
X96118481Y-72055500D01*
X97831518Y-72055499D01*
X97925304Y-72040646D01*
X98026636Y-71989014D01*
X98082929Y-71975500D01*
X98103692Y-71975500D01*
X98170731Y-71995185D01*
X98205742Y-72029061D01*
X98209517Y-72034530D01*
X98327760Y-72139283D01*
X98327762Y-72139284D01*
X98467634Y-72212696D01*
X98621014Y-72250500D01*
X98621015Y-72250500D01*
X98778985Y-72250500D01*
X98932365Y-72212696D01*
X99032820Y-72159972D01*
X99101325Y-72146247D01*
X99166379Y-72171739D01*
X99206626Y-72226435D01*
X99231203Y-72292330D01*
X99231206Y-72292335D01*
X99317452Y-72407544D01*
X99317455Y-72407547D01*
X99432664Y-72493793D01*
X99432671Y-72493797D01*
X99567517Y-72544091D01*
X99567516Y-72544091D01*
X99574444Y-72544835D01*
X99627127Y-72550500D01*
X100422872Y-72550499D01*
X100482483Y-72544091D01*
X100617331Y-72493796D01*
X100732546Y-72407546D01*
X100818796Y-72292331D01*
X100869091Y-72157483D01*
X100875500Y-72097873D01*
X100875500Y-71850000D01*
X101175000Y-71850000D01*
X101175000Y-72097844D01*
X101181401Y-72157372D01*
X101181403Y-72157379D01*
X101231645Y-72292086D01*
X101231649Y-72292093D01*
X101317809Y-72407187D01*
X101317812Y-72407190D01*
X101432906Y-72493350D01*
X101432913Y-72493354D01*
X101567620Y-72543596D01*
X101567627Y-72543598D01*
X101627155Y-72549999D01*
X101627172Y-72550000D01*
X101775000Y-72550000D01*
X101775000Y-71850000D01*
X102275000Y-71850000D01*
X102275000Y-72550000D01*
X102422828Y-72550000D01*
X102422844Y-72549999D01*
X102482372Y-72543598D01*
X102482379Y-72543596D01*
X102617086Y-72493354D01*
X102617093Y-72493350D01*
X102732187Y-72407190D01*
X102732190Y-72407187D01*
X102818350Y-72292093D01*
X102818354Y-72292086D01*
X102868596Y-72157379D01*
X102868598Y-72157372D01*
X102874999Y-72097844D01*
X102875000Y-72097827D01*
X102875000Y-71850000D01*
X102275000Y-71850000D01*
X101775000Y-71850000D01*
X101175000Y-71850000D01*
X100875500Y-71850000D01*
X100875499Y-71102128D01*
X100869091Y-71042517D01*
X100863286Y-71026954D01*
X100818797Y-70907671D01*
X100818793Y-70907664D01*
X100732547Y-70792455D01*
X100732544Y-70792452D01*
X100610231Y-70700888D01*
X100611930Y-70698617D01*
X100572743Y-70659435D01*
X100557886Y-70591163D01*
X100582298Y-70525697D01*
X100611311Y-70500556D01*
X100610231Y-70499112D01*
X100714428Y-70421109D01*
X100732546Y-70407546D01*
X100818796Y-70292331D01*
X100869091Y-70157483D01*
X100875500Y-70097873D01*
X100875500Y-69850000D01*
X101175000Y-69850000D01*
X101175000Y-70097844D01*
X101181401Y-70157372D01*
X101181403Y-70157379D01*
X101231645Y-70292086D01*
X101231649Y-70292093D01*
X101317809Y-70407187D01*
X101317812Y-70407190D01*
X101440011Y-70498669D01*
X101438469Y-70500727D01*
X101478318Y-70540582D01*
X101493164Y-70608857D01*
X101468742Y-70674319D01*
X101439049Y-70700047D01*
X101440011Y-70701331D01*
X101317812Y-70792809D01*
X101317809Y-70792812D01*
X101231649Y-70907906D01*
X101231645Y-70907913D01*
X101181403Y-71042620D01*
X101181401Y-71042627D01*
X101175000Y-71102155D01*
X101175000Y-71350000D01*
X102875000Y-71350000D01*
X102875000Y-71102172D01*
X102874999Y-71102155D01*
X102868598Y-71042627D01*
X102868596Y-71042620D01*
X102818354Y-70907913D01*
X102818350Y-70907906D01*
X102732190Y-70792812D01*
X102732187Y-70792809D01*
X102609989Y-70701331D01*
X102611530Y-70699271D01*
X102571687Y-70659430D01*
X102556834Y-70591157D01*
X102581249Y-70525692D01*
X102610951Y-70499954D01*
X102609989Y-70498669D01*
X102732187Y-70407190D01*
X102732190Y-70407187D01*
X102818350Y-70292093D01*
X102818354Y-70292086D01*
X102868596Y-70157379D01*
X102868598Y-70157372D01*
X102874999Y-70097844D01*
X102875000Y-70097827D01*
X102875000Y-69850000D01*
X101175000Y-69850000D01*
X100875500Y-69850000D01*
X100875499Y-69102128D01*
X100869091Y-69042517D01*
X100853233Y-69000000D01*
X100818797Y-68907671D01*
X100818793Y-68907664D01*
X100732547Y-68792455D01*
X100732544Y-68792452D01*
X100610231Y-68700888D01*
X100611930Y-68698617D01*
X100572743Y-68659435D01*
X100557886Y-68591163D01*
X100582298Y-68525697D01*
X100611311Y-68500556D01*
X100610231Y-68499112D01*
X100723255Y-68414501D01*
X100732546Y-68407546D01*
X100818796Y-68292331D01*
X100869091Y-68157483D01*
X100875500Y-68097873D01*
X100875500Y-67850000D01*
X101175000Y-67850000D01*
X101175000Y-68097844D01*
X101181401Y-68157372D01*
X101181403Y-68157379D01*
X101231645Y-68292086D01*
X101231649Y-68292093D01*
X101317809Y-68407187D01*
X101317812Y-68407190D01*
X101440011Y-68498669D01*
X101438469Y-68500727D01*
X101478318Y-68540582D01*
X101493164Y-68608857D01*
X101468742Y-68674319D01*
X101439049Y-68700047D01*
X101440011Y-68701331D01*
X101317812Y-68792809D01*
X101317809Y-68792812D01*
X101231649Y-68907906D01*
X101231645Y-68907913D01*
X101181403Y-69042620D01*
X101181401Y-69042627D01*
X101175000Y-69102155D01*
X101175000Y-69350000D01*
X102875000Y-69350000D01*
X102875000Y-69102172D01*
X102874999Y-69102155D01*
X102868598Y-69042627D01*
X102868596Y-69042620D01*
X102818354Y-68907913D01*
X102818350Y-68907906D01*
X102732190Y-68792812D01*
X102732187Y-68792809D01*
X102609989Y-68701331D01*
X102611530Y-68699271D01*
X102571687Y-68659430D01*
X102556834Y-68591157D01*
X102581249Y-68525692D01*
X102610951Y-68499954D01*
X102609989Y-68498669D01*
X102732187Y-68407190D01*
X102732190Y-68407187D01*
X102818350Y-68292093D01*
X102818354Y-68292086D01*
X102868596Y-68157379D01*
X102868598Y-68157372D01*
X102874999Y-68097844D01*
X102875000Y-68097827D01*
X102875000Y-67850000D01*
X101175000Y-67850000D01*
X100875500Y-67850000D01*
X100875499Y-67350000D01*
X101175000Y-67350000D01*
X101775000Y-67350000D01*
X101775000Y-66650000D01*
X102275000Y-66650000D01*
X102275000Y-67350000D01*
X102875000Y-67350000D01*
X102875000Y-67102172D01*
X102874999Y-67102155D01*
X102868598Y-67042627D01*
X102868596Y-67042620D01*
X102818354Y-66907913D01*
X102818350Y-66907906D01*
X102732190Y-66792812D01*
X102732187Y-66792809D01*
X102617093Y-66706649D01*
X102617086Y-66706645D01*
X102482379Y-66656403D01*
X102482372Y-66656401D01*
X102422844Y-66650000D01*
X102275000Y-66650000D01*
X101775000Y-66650000D01*
X101627155Y-66650000D01*
X101567627Y-66656401D01*
X101567620Y-66656403D01*
X101432913Y-66706645D01*
X101432906Y-66706649D01*
X101317812Y-66792809D01*
X101317809Y-66792812D01*
X101231649Y-66907906D01*
X101231645Y-66907913D01*
X101181403Y-67042620D01*
X101181401Y-67042627D01*
X101175000Y-67102155D01*
X101175000Y-67350000D01*
X100875499Y-67350000D01*
X100875499Y-67102128D01*
X100869091Y-67042517D01*
X100857968Y-67012696D01*
X100818797Y-66907671D01*
X100818793Y-66907664D01*
X100732547Y-66792455D01*
X100732544Y-66792452D01*
X100617335Y-66706206D01*
X100617328Y-66706202D01*
X100482482Y-66655908D01*
X100482483Y-66655908D01*
X100422883Y-66649501D01*
X100422881Y-66649500D01*
X100422873Y-66649500D01*
X100422865Y-66649500D01*
X99631900Y-66649500D01*
X99564861Y-66629815D01*
X99544219Y-66613181D01*
X98871819Y-65940781D01*
X98838334Y-65879458D01*
X98835500Y-65853100D01*
X98835500Y-65824500D01*
X98855185Y-65757461D01*
X98907989Y-65711706D01*
X98959500Y-65700500D01*
X99334676Y-65700500D01*
X99334677Y-65700499D01*
X99407740Y-65685966D01*
X99490601Y-65630601D01*
X99545966Y-65547740D01*
X99560500Y-65474674D01*
X99560500Y-64600000D01*
X99894785Y-64600000D01*
X99913602Y-64803082D01*
X99969417Y-64999247D01*
X99969422Y-64999260D01*
X100060327Y-65181821D01*
X100183237Y-65344581D01*
X100322638Y-65471660D01*
X100331803Y-65480016D01*
X100333958Y-65481980D01*
X100333960Y-65481982D01*
X100412420Y-65530562D01*
X100507363Y-65589348D01*
X100697544Y-65663024D01*
X100898024Y-65700500D01*
X100898026Y-65700500D01*
X101101974Y-65700500D01*
X101101976Y-65700500D01*
X101302456Y-65663024D01*
X101492637Y-65589348D01*
X101666041Y-65481981D01*
X101816764Y-65344579D01*
X101939673Y-65181821D01*
X102030582Y-64999250D01*
X102086397Y-64803083D01*
X102105215Y-64600000D01*
X102086397Y-64396917D01*
X102030582Y-64200750D01*
X102029960Y-64199501D01*
X101986272Y-64111764D01*
X101939673Y-64018179D01*
X101816764Y-63855421D01*
X101816762Y-63855418D01*
X101666041Y-63718019D01*
X101666039Y-63718017D01*
X101492642Y-63610655D01*
X101492635Y-63610651D01*
X101386150Y-63569399D01*
X101302456Y-63536976D01*
X101101976Y-63499500D01*
X100898024Y-63499500D01*
X100697544Y-63536976D01*
X100697541Y-63536976D01*
X100697541Y-63536977D01*
X100507364Y-63610651D01*
X100507357Y-63610655D01*
X100333960Y-63718017D01*
X100333958Y-63718019D01*
X100183237Y-63855418D01*
X100060327Y-64018178D01*
X99969422Y-64200739D01*
X99969417Y-64200752D01*
X99913602Y-64396917D01*
X99894785Y-64599999D01*
X99894785Y-64600000D01*
X99560500Y-64600000D01*
X99560500Y-63725326D01*
X99560499Y-63725326D01*
X99560500Y-63725323D01*
X99560499Y-63725321D01*
X99545967Y-63652264D01*
X99545966Y-63652260D01*
X99539321Y-63642315D01*
X99490601Y-63569399D01*
X99407740Y-63514034D01*
X99407739Y-63514033D01*
X99407735Y-63514032D01*
X99334677Y-63499500D01*
X99334674Y-63499500D01*
X97585326Y-63499500D01*
X97585323Y-63499500D01*
X97512264Y-63514032D01*
X97512260Y-63514033D01*
X97429399Y-63569399D01*
X97374033Y-63652260D01*
X97374032Y-63652264D01*
X97359500Y-63725321D01*
X97359500Y-65474678D01*
X97374032Y-65547735D01*
X97374033Y-65547739D01*
X97374034Y-65547740D01*
X97429399Y-65630601D01*
X97497722Y-65676252D01*
X97512260Y-65685966D01*
X97512264Y-65685967D01*
X97585321Y-65700499D01*
X97585324Y-65700500D01*
X97585326Y-65700500D01*
X97960500Y-65700500D01*
X98027539Y-65720185D01*
X98073294Y-65772989D01*
X98084500Y-65824500D01*
X98084500Y-66008196D01*
X98081861Y-66033641D01*
X98079633Y-66044266D01*
X98079633Y-66044270D01*
X98084023Y-66079493D01*
X98084499Y-66087156D01*
X98084499Y-66091105D01*
X98084500Y-66091114D01*
X98088342Y-66114142D01*
X98095134Y-66168627D01*
X98097373Y-66176147D01*
X98099934Y-66183608D01*
X98099935Y-66183610D01*
X98126055Y-66231876D01*
X98126055Y-66231877D01*
X98150174Y-66281211D01*
X98154742Y-66287609D01*
X98159582Y-66293827D01*
X98199970Y-66331008D01*
X99138181Y-67269218D01*
X99171666Y-67330541D01*
X99174500Y-67356899D01*
X99174499Y-67843099D01*
X99154814Y-67910139D01*
X99138180Y-67930780D01*
X98515781Y-68553181D01*
X98454458Y-68586666D01*
X98428100Y-68589500D01*
X98192254Y-68589500D01*
X98125215Y-68569815D01*
X98104577Y-68553185D01*
X98038342Y-68486950D01*
X98025756Y-68480537D01*
X97946598Y-68440203D01*
X97895803Y-68392228D01*
X97879008Y-68324407D01*
X97901546Y-68258273D01*
X97946600Y-68219234D01*
X98038043Y-68172641D01*
X98038050Y-68172636D01*
X98127636Y-68083050D01*
X98127639Y-68083046D01*
X98185166Y-67970143D01*
X98189149Y-67945000D01*
X95760851Y-67945000D01*
X95764833Y-67970143D01*
X95822360Y-68083046D01*
X95822363Y-68083050D01*
X95911949Y-68172636D01*
X95911956Y-68172641D01*
X96003400Y-68219234D01*
X96054197Y-68267208D01*
X96070992Y-68335029D01*
X96048455Y-68401164D01*
X96003402Y-68440203D01*
X95911659Y-68486949D01*
X95911652Y-68486954D01*
X95821954Y-68576652D01*
X95821951Y-68576657D01*
X95821950Y-68576658D01*
X95806441Y-68607096D01*
X95764352Y-68689698D01*
X95749500Y-68783475D01*
X95749500Y-69146517D01*
X95760292Y-69214657D01*
X95764354Y-69240304D01*
X95821950Y-69353342D01*
X95821952Y-69353344D01*
X95821954Y-69353347D01*
X95911652Y-69443045D01*
X95911654Y-69443046D01*
X95911658Y-69443050D01*
X96002851Y-69489515D01*
X96053647Y-69537490D01*
X96070442Y-69605311D01*
X96047904Y-69671446D01*
X96002852Y-69710484D01*
X95911658Y-69756950D01*
X95911656Y-69756951D01*
X95911657Y-69756951D01*
X95911652Y-69756954D01*
X95821954Y-69846652D01*
X95821951Y-69846657D01*
X95821950Y-69846658D01*
X95815407Y-69859500D01*
X95764352Y-69959698D01*
X95749500Y-70053475D01*
X95749500Y-70416517D01*
X95760292Y-70484657D01*
X95764354Y-70510304D01*
X95821950Y-70623342D01*
X95821952Y-70623344D01*
X95821954Y-70623347D01*
X95911652Y-70713045D01*
X95911654Y-70713046D01*
X95911658Y-70713050D01*
X96002851Y-70759515D01*
X96053647Y-70807490D01*
X96070442Y-70875311D01*
X96047904Y-70941446D01*
X96002852Y-70980484D01*
X95911658Y-71026950D01*
X95911656Y-71026951D01*
X95911657Y-71026951D01*
X95911652Y-71026954D01*
X95821954Y-71116652D01*
X95821951Y-71116657D01*
X95764352Y-71229698D01*
X95749500Y-71323475D01*
X95749500Y-71686517D01*
X93250500Y-71686517D01*
X93250499Y-71323482D01*
X93235646Y-71229696D01*
X93178050Y-71116658D01*
X93178046Y-71116654D01*
X93178045Y-71116652D01*
X93088347Y-71026954D01*
X93088343Y-71026951D01*
X93088342Y-71026950D01*
X93070995Y-71018111D01*
X92997147Y-70980483D01*
X92946352Y-70932509D01*
X92929557Y-70864687D01*
X92952095Y-70798553D01*
X92997145Y-70759517D01*
X93088342Y-70713050D01*
X93178050Y-70623342D01*
X93235646Y-70510304D01*
X93235646Y-70510302D01*
X93235647Y-70510301D01*
X93250499Y-70416524D01*
X93250500Y-70416519D01*
X93250499Y-70053482D01*
X93235646Y-69959696D01*
X93178050Y-69846658D01*
X93178046Y-69846654D01*
X93178045Y-69846652D01*
X93088347Y-69756954D01*
X93088343Y-69756951D01*
X93088342Y-69756950D01*
X93085112Y-69755304D01*
X92997147Y-69710483D01*
X92946352Y-69662509D01*
X92929557Y-69594687D01*
X92952095Y-69528553D01*
X92997145Y-69489517D01*
X93088342Y-69443050D01*
X93178050Y-69353342D01*
X93235646Y-69240304D01*
X93235646Y-69240302D01*
X93235647Y-69240301D01*
X93250499Y-69146524D01*
X93250500Y-69146519D01*
X93250499Y-68783482D01*
X93235646Y-68689696D01*
X93178050Y-68576658D01*
X93178046Y-68576654D01*
X93178045Y-68576652D01*
X93088347Y-68486954D01*
X93088343Y-68486951D01*
X93088342Y-68486950D01*
X93075756Y-68480537D01*
X92997147Y-68440483D01*
X92946352Y-68392509D01*
X92929557Y-68324687D01*
X92952095Y-68258553D01*
X92997145Y-68219517D01*
X93088342Y-68173050D01*
X93088344Y-68173047D01*
X93096241Y-68167311D01*
X93098210Y-68170022D01*
X93144439Y-68144762D01*
X93214133Y-68149727D01*
X93253058Y-68173104D01*
X93327760Y-68239283D01*
X93327762Y-68239284D01*
X93467634Y-68312696D01*
X93621014Y-68350500D01*
X93621015Y-68350500D01*
X93778985Y-68350500D01*
X93932365Y-68312696D01*
X93971159Y-68292335D01*
X94072240Y-68239283D01*
X94190483Y-68134530D01*
X94280220Y-68004523D01*
X94336237Y-67856818D01*
X94355278Y-67700000D01*
X94347666Y-67637304D01*
X94336237Y-67543181D01*
X94314992Y-67487164D01*
X94299001Y-67445000D01*
X95760851Y-67445000D01*
X96725000Y-67445000D01*
X96725000Y-67145000D01*
X97225000Y-67145000D01*
X97225000Y-67445000D01*
X98189148Y-67445000D01*
X98185166Y-67419856D01*
X98127639Y-67306953D01*
X98127636Y-67306949D01*
X98038050Y-67217363D01*
X98038046Y-67217360D01*
X97925144Y-67159833D01*
X97831486Y-67145000D01*
X97225000Y-67145000D01*
X96725000Y-67145000D01*
X96118520Y-67145000D01*
X96024850Y-67159835D01*
X96024844Y-67159837D01*
X95911958Y-67217356D01*
X95911949Y-67217363D01*
X95822363Y-67306949D01*
X95822360Y-67306953D01*
X95764833Y-67419856D01*
X95760851Y-67445000D01*
X94299001Y-67445000D01*
X94280220Y-67395477D01*
X94190483Y-67265470D01*
X94190482Y-67265468D01*
X94100499Y-67185752D01*
X94092272Y-67178463D01*
X94055146Y-67119276D01*
X94050500Y-67085656D01*
X94050500Y-66476439D01*
X94070185Y-66409399D01*
X94122989Y-66363645D01*
X94131168Y-66360257D01*
X94242326Y-66318798D01*
X94242326Y-66318797D01*
X94242331Y-66318796D01*
X94357546Y-66232546D01*
X94443796Y-66117331D01*
X94494091Y-65982483D01*
X94500500Y-65922873D01*
X94500500Y-65650000D01*
X94900000Y-65650000D01*
X94900000Y-65922844D01*
X94906401Y-65982372D01*
X94906403Y-65982379D01*
X94956645Y-66117086D01*
X94956649Y-66117093D01*
X95042809Y-66232187D01*
X95042812Y-66232190D01*
X95157906Y-66318350D01*
X95157913Y-66318354D01*
X95292620Y-66368596D01*
X95292627Y-66368598D01*
X95352155Y-66374999D01*
X95352172Y-66375000D01*
X95487500Y-66375000D01*
X95487500Y-66374999D01*
X95987499Y-66374999D01*
X95987500Y-66375000D01*
X96122828Y-66375000D01*
X96122844Y-66374999D01*
X96182372Y-66368598D01*
X96182379Y-66368596D01*
X96317086Y-66318354D01*
X96317093Y-66318350D01*
X96432187Y-66232190D01*
X96432190Y-66232187D01*
X96518350Y-66117093D01*
X96518354Y-66117086D01*
X96568596Y-65982379D01*
X96568598Y-65982372D01*
X96574999Y-65922844D01*
X96575000Y-65922827D01*
X96575000Y-65650000D01*
X95987500Y-65650000D01*
X95987499Y-66374999D01*
X95487500Y-66374999D01*
X95487500Y-65650000D01*
X94900000Y-65650000D01*
X94500500Y-65650000D01*
X94500499Y-65150000D01*
X94900000Y-65150000D01*
X95487500Y-65150000D01*
X95487500Y-65149999D01*
X95987499Y-65149999D01*
X95987500Y-65150000D01*
X96575000Y-65150000D01*
X96575000Y-64877172D01*
X96574999Y-64877155D01*
X96568598Y-64817627D01*
X96568596Y-64817620D01*
X96518354Y-64682913D01*
X96518350Y-64682906D01*
X96432190Y-64567812D01*
X96432187Y-64567809D01*
X96317093Y-64481649D01*
X96317086Y-64481645D01*
X96182379Y-64431403D01*
X96182372Y-64431401D01*
X96122844Y-64425000D01*
X95987500Y-64425000D01*
X95987499Y-65149999D01*
X95487500Y-65149999D01*
X95487500Y-64425000D01*
X95352155Y-64425000D01*
X95292627Y-64431401D01*
X95292620Y-64431403D01*
X95157913Y-64481645D01*
X95157906Y-64481649D01*
X95042812Y-64567809D01*
X95042809Y-64567812D01*
X94956649Y-64682906D01*
X94956645Y-64682913D01*
X94906403Y-64817620D01*
X94906401Y-64817627D01*
X94900000Y-64877155D01*
X94900000Y-65150000D01*
X94500499Y-65150000D01*
X94500499Y-64877128D01*
X94494229Y-64818797D01*
X94494091Y-64817516D01*
X94443797Y-64682671D01*
X94443793Y-64682664D01*
X94357547Y-64567455D01*
X94357544Y-64567452D01*
X94242335Y-64481206D01*
X94242328Y-64481202D01*
X94107486Y-64430910D01*
X94107485Y-64430909D01*
X94107483Y-64430909D01*
X94047873Y-64424500D01*
X94047863Y-64424500D01*
X93277129Y-64424500D01*
X93277123Y-64424501D01*
X93217516Y-64430908D01*
X93082671Y-64481202D01*
X93082664Y-64481206D01*
X92967455Y-64567452D01*
X92967452Y-64567455D01*
X92881206Y-64682664D01*
X92881202Y-64682671D01*
X92830908Y-64817517D01*
X92825364Y-64869091D01*
X92824501Y-64877123D01*
X92824500Y-64877135D01*
X92824500Y-65922870D01*
X92824501Y-65922876D01*
X92830908Y-65982483D01*
X92881202Y-66117328D01*
X92881206Y-66117335D01*
X92967452Y-66232544D01*
X92967455Y-66232547D01*
X93082664Y-66318793D01*
X93082671Y-66318797D01*
X93218833Y-66369582D01*
X93274767Y-66411453D01*
X93299184Y-66476917D01*
X93299500Y-66485764D01*
X93299500Y-67128745D01*
X93279815Y-67195784D01*
X93227011Y-67241539D01*
X93157853Y-67251483D01*
X93094297Y-67222458D01*
X93088525Y-67217083D01*
X93088345Y-67216953D01*
X93088342Y-67216950D01*
X93005030Y-67174500D01*
X92975301Y-67159352D01*
X92881524Y-67144500D01*
X91168482Y-67144500D01*
X91087519Y-67157323D01*
X91074696Y-67159354D01*
X90961658Y-67216950D01*
X90961657Y-67216951D01*
X90961652Y-67216954D01*
X90871954Y-67306652D01*
X90871951Y-67306657D01*
X90871950Y-67306658D01*
X90859781Y-67330541D01*
X90814352Y-67419698D01*
X90799500Y-67513475D01*
X90799500Y-67876517D01*
X90810292Y-67944657D01*
X90814354Y-67970304D01*
X90871950Y-68083342D01*
X90871952Y-68083344D01*
X90871954Y-68083347D01*
X90961652Y-68173045D01*
X90961654Y-68173046D01*
X90961658Y-68173050D01*
X91052851Y-68219515D01*
X91103647Y-68267490D01*
X91120442Y-68335311D01*
X91097904Y-68401446D01*
X91052852Y-68440484D01*
X90961658Y-68486950D01*
X90961656Y-68486951D01*
X90961657Y-68486951D01*
X90961652Y-68486954D01*
X90871954Y-68576652D01*
X90871951Y-68576657D01*
X90871950Y-68576658D01*
X90856441Y-68607096D01*
X90814352Y-68689698D01*
X90799500Y-68783475D01*
X90799500Y-69146517D01*
X90810292Y-69214657D01*
X90814354Y-69240304D01*
X90871950Y-69353342D01*
X90871952Y-69353344D01*
X90871954Y-69353347D01*
X90961652Y-69443045D01*
X90961654Y-69443046D01*
X90961658Y-69443050D01*
X91052851Y-69489515D01*
X91103647Y-69537490D01*
X91120442Y-69605311D01*
X91097904Y-69671446D01*
X91052852Y-69710484D01*
X90961658Y-69756950D01*
X90961657Y-69756951D01*
X90961652Y-69756954D01*
X90871954Y-69846652D01*
X90871951Y-69846657D01*
X90871950Y-69846658D01*
X90865407Y-69859500D01*
X90814352Y-69959698D01*
X90799500Y-70053475D01*
X90799500Y-70416517D01*
X90810292Y-70484657D01*
X90814354Y-70510304D01*
X90871950Y-70623342D01*
X90871952Y-70623344D01*
X90871954Y-70623347D01*
X90961652Y-70713045D01*
X90961654Y-70713046D01*
X90961658Y-70713050D01*
X91052851Y-70759515D01*
X91103647Y-70807490D01*
X91120442Y-70875311D01*
X91097904Y-70941446D01*
X91052852Y-70980484D01*
X90961658Y-71026950D01*
X90961656Y-71026951D01*
X90961657Y-71026951D01*
X90961652Y-71026954D01*
X90871954Y-71116652D01*
X90871951Y-71116657D01*
X90814352Y-71229698D01*
X90799500Y-71323475D01*
X90799500Y-71686517D01*
X90808046Y-71740476D01*
X90814354Y-71780304D01*
X90846165Y-71842737D01*
X90859061Y-71911404D01*
X90837733Y-71969466D01*
X90819780Y-71995477D01*
X90763762Y-72143181D01*
X90744722Y-72299999D01*
X90744722Y-72300000D01*
X88750500Y-72300000D01*
X88750500Y-68175326D01*
X88750500Y-68175323D01*
X88750499Y-68175321D01*
X88735967Y-68102264D01*
X88735966Y-68102260D01*
X88723329Y-68083347D01*
X88680601Y-68019399D01*
X88597740Y-67964034D01*
X88597739Y-67964033D01*
X88597735Y-67964032D01*
X88524677Y-67949500D01*
X88524674Y-67949500D01*
X86831900Y-67949500D01*
X86764861Y-67929815D01*
X86744219Y-67913181D01*
X84527149Y-65696111D01*
X84511022Y-65676252D01*
X84499465Y-65658563D01*
X84501620Y-65657154D01*
X84477346Y-65607964D01*
X84475499Y-65586641D01*
X84475499Y-65539629D01*
X84475498Y-65539623D01*
X84469091Y-65480016D01*
X84418797Y-65345171D01*
X84418793Y-65345164D01*
X84332547Y-65229955D01*
X84332544Y-65229952D01*
X84217335Y-65143706D01*
X84217328Y-65143702D01*
X84093269Y-65097432D01*
X84037335Y-65055561D01*
X84012918Y-64990097D01*
X84027769Y-64921824D01*
X84077174Y-64872418D01*
X84093269Y-64865068D01*
X84217328Y-64818797D01*
X84217327Y-64818797D01*
X84217331Y-64818796D01*
X84332546Y-64732546D01*
X84418796Y-64617331D01*
X84437265Y-64567812D01*
X84464920Y-64493667D01*
X84506791Y-64437733D01*
X84572255Y-64413316D01*
X84581102Y-64413000D01*
X86330274Y-64413000D01*
X86397313Y-64432685D01*
X86399165Y-64433898D01*
X86402260Y-64435966D01*
X86475323Y-64450500D01*
X86475326Y-64450500D01*
X88524676Y-64450500D01*
X88524677Y-64450499D01*
X88597740Y-64435966D01*
X88680601Y-64380601D01*
X88735966Y-64297740D01*
X88750500Y-64224674D01*
X88750500Y-59675326D01*
X88750500Y-59675325D01*
X88750500Y-59675323D01*
X88750499Y-59675321D01*
X88735967Y-59602264D01*
X88735966Y-59602260D01*
X88721452Y-59580538D01*
X88680601Y-59519399D01*
X88616897Y-59476834D01*
X88597739Y-59464033D01*
X88597735Y-59464032D01*
X88524677Y-59449500D01*
X88524674Y-59449500D01*
X86475326Y-59449500D01*
X86475323Y-59449500D01*
X86402264Y-59464032D01*
X86402260Y-59464033D01*
X86319399Y-59519399D01*
X86264033Y-59602260D01*
X86264032Y-59602264D01*
X86249500Y-59675321D01*
X86249500Y-63538000D01*
X86229815Y-63605039D01*
X86177011Y-63650794D01*
X86125500Y-63662000D01*
X84581102Y-63662000D01*
X84514063Y-63642315D01*
X84468308Y-63589511D01*
X84464920Y-63581333D01*
X84418797Y-63457671D01*
X84418793Y-63457664D01*
X84332547Y-63342455D01*
X84332544Y-63342452D01*
X84217335Y-63256206D01*
X84217328Y-63256202D01*
X84082482Y-63205908D01*
X84082483Y-63205908D01*
X84022883Y-63199501D01*
X84022881Y-63199500D01*
X84022873Y-63199500D01*
X84022864Y-63199500D01*
X82977129Y-63199500D01*
X82977123Y-63199501D01*
X82917516Y-63205908D01*
X82782671Y-63256202D01*
X82782664Y-63256206D01*
X82667455Y-63342452D01*
X82667452Y-63342455D01*
X82581206Y-63457664D01*
X82581202Y-63457671D01*
X82539531Y-63569399D01*
X82530909Y-63592517D01*
X82524500Y-63652127D01*
X82524500Y-63652134D01*
X82524500Y-63652135D01*
X82524500Y-64418098D01*
X82504815Y-64485137D01*
X82488181Y-64505779D01*
X78655779Y-68338181D01*
X78594456Y-68371666D01*
X78568099Y-68374500D01*
X78358482Y-68374500D01*
X78277519Y-68387323D01*
X78264696Y-68389354D01*
X78151658Y-68446950D01*
X78151657Y-68446951D01*
X78151652Y-68446954D01*
X78061954Y-68536652D01*
X78061949Y-68536659D01*
X78015483Y-68627852D01*
X77967508Y-68678648D01*
X77899687Y-68695442D01*
X77833552Y-68672904D01*
X77794516Y-68627852D01*
X77748050Y-68536658D01*
X77748047Y-68536655D01*
X77748045Y-68536652D01*
X77658347Y-68446954D01*
X77658344Y-68446952D01*
X77658342Y-68446950D01*
X77569036Y-68401446D01*
X77545301Y-68389352D01*
X77451524Y-68374500D01*
X77088482Y-68374500D01*
X77007519Y-68387323D01*
X76994696Y-68389354D01*
X76881658Y-68446950D01*
X76881657Y-68446951D01*
X76881652Y-68446954D01*
X76791954Y-68536652D01*
X76791949Y-68536659D01*
X76745483Y-68627852D01*
X76697508Y-68678648D01*
X76629687Y-68695442D01*
X76563552Y-68672904D01*
X76524516Y-68627852D01*
X76478050Y-68536658D01*
X76478047Y-68536655D01*
X76478045Y-68536652D01*
X76388347Y-68446954D01*
X76388344Y-68446952D01*
X76388342Y-68446950D01*
X76299036Y-68401446D01*
X76275301Y-68389352D01*
X76181524Y-68374500D01*
X75818482Y-68374500D01*
X75737519Y-68387323D01*
X75724696Y-68389354D01*
X75611658Y-68446950D01*
X75611657Y-68446951D01*
X75611652Y-68446954D01*
X75521954Y-68536652D01*
X75521949Y-68536659D01*
X75475483Y-68627852D01*
X75427508Y-68678648D01*
X75359687Y-68695442D01*
X75293552Y-68672904D01*
X75254516Y-68627852D01*
X75208050Y-68536658D01*
X75208047Y-68536655D01*
X75208045Y-68536652D01*
X75118347Y-68446954D01*
X75118344Y-68446952D01*
X75118342Y-68446950D01*
X75029036Y-68401446D01*
X75005301Y-68389352D01*
X74911524Y-68374500D01*
X74548482Y-68374500D01*
X74467519Y-68387323D01*
X74454696Y-68389354D01*
X74341658Y-68446950D01*
X74341657Y-68446951D01*
X74341652Y-68446954D01*
X74251954Y-68536652D01*
X74251949Y-68536659D01*
X74205483Y-68627852D01*
X74157508Y-68678648D01*
X74089687Y-68695442D01*
X74023552Y-68672904D01*
X73984516Y-68627852D01*
X73938050Y-68536658D01*
X73938047Y-68536655D01*
X73938045Y-68536652D01*
X73848347Y-68446954D01*
X73848344Y-68446952D01*
X73848342Y-68446950D01*
X73759036Y-68401446D01*
X73735301Y-68389352D01*
X73641524Y-68374500D01*
X73278482Y-68374500D01*
X73197519Y-68387323D01*
X73184696Y-68389354D01*
X73071658Y-68446950D01*
X73071657Y-68446951D01*
X73071652Y-68446954D01*
X72981954Y-68536652D01*
X72981949Y-68536659D01*
X72935483Y-68627852D01*
X72887508Y-68678648D01*
X72819687Y-68695442D01*
X72753552Y-68672904D01*
X72714516Y-68627852D01*
X72668050Y-68536658D01*
X72668047Y-68536655D01*
X72668045Y-68536652D01*
X72578347Y-68446954D01*
X72578344Y-68446952D01*
X72578342Y-68446950D01*
X72489036Y-68401446D01*
X72465301Y-68389352D01*
X72371524Y-68374500D01*
X72008482Y-68374500D01*
X71927519Y-68387323D01*
X71914696Y-68389354D01*
X71801658Y-68446950D01*
X71801657Y-68446951D01*
X71801652Y-68446954D01*
X71711954Y-68536652D01*
X71711949Y-68536659D01*
X71665483Y-68627852D01*
X71617508Y-68678648D01*
X71549687Y-68695442D01*
X71483552Y-68672904D01*
X71444516Y-68627852D01*
X71398050Y-68536658D01*
X71398047Y-68536655D01*
X71398045Y-68536652D01*
X71308347Y-68446954D01*
X71308344Y-68446952D01*
X71308342Y-68446950D01*
X71219036Y-68401446D01*
X71195301Y-68389352D01*
X71101524Y-68374500D01*
X70738482Y-68374500D01*
X70657519Y-68387323D01*
X70644696Y-68389354D01*
X70531658Y-68446950D01*
X70531657Y-68446951D01*
X70531652Y-68446954D01*
X70441954Y-68536652D01*
X70441951Y-68536657D01*
X70441950Y-68536658D01*
X70432847Y-68554524D01*
X70384352Y-68649698D01*
X70369500Y-68743475D01*
X70369500Y-70556518D01*
X70376562Y-70601104D01*
X70367606Y-70670397D01*
X70322609Y-70723848D01*
X70255857Y-70744487D01*
X70254088Y-70744500D01*
X65879500Y-70744500D01*
X65812461Y-70724815D01*
X65766706Y-70672011D01*
X65755500Y-70620500D01*
X65755499Y-67174500D01*
X65775184Y-67107461D01*
X65827988Y-67061706D01*
X65871637Y-67052210D01*
X65871540Y-67051404D01*
X65878985Y-67050500D01*
X66032365Y-67012696D01*
X66032365Y-67012695D01*
X66172240Y-66939283D01*
X66290483Y-66834530D01*
X66380220Y-66704523D01*
X66436237Y-66556818D01*
X66455278Y-66400000D01*
X66452243Y-66375000D01*
X66436237Y-66243181D01*
X66407962Y-66168626D01*
X66380220Y-66095477D01*
X66290483Y-65965470D01*
X66217271Y-65900611D01*
X66180146Y-65841423D01*
X66175499Y-65807796D01*
X66175499Y-65422870D01*
X67724500Y-65422870D01*
X67724501Y-65422876D01*
X67730908Y-65482483D01*
X67781202Y-65617328D01*
X67781206Y-65617335D01*
X67867452Y-65732544D01*
X67867455Y-65732547D01*
X67982663Y-65818792D01*
X67982665Y-65818793D01*
X67982669Y-65818796D01*
X67982673Y-65818797D01*
X67987691Y-65821538D01*
X68037097Y-65870943D01*
X68051949Y-65939216D01*
X68051361Y-65945316D01*
X68044722Y-65999999D01*
X68044722Y-66000000D01*
X68063762Y-66156818D01*
X68119780Y-66304522D01*
X68119780Y-66304523D01*
X68209517Y-66434530D01*
X68327760Y-66539283D01*
X68327762Y-66539284D01*
X68467634Y-66612696D01*
X68621014Y-66650500D01*
X68621015Y-66650500D01*
X68778985Y-66650500D01*
X68932365Y-66612696D01*
X68979885Y-66587755D01*
X69072240Y-66539283D01*
X69190483Y-66434530D01*
X69280220Y-66304523D01*
X69336237Y-66156818D01*
X69355278Y-66000000D01*
X69348638Y-65945316D01*
X69360098Y-65876395D01*
X69407002Y-65824608D01*
X69412312Y-65821536D01*
X69417323Y-65818798D01*
X69417331Y-65818796D01*
X69532546Y-65732546D01*
X69618796Y-65617331D01*
X69669091Y-65482483D01*
X69675500Y-65422873D01*
X69675499Y-64652128D01*
X69669091Y-64592517D01*
X69663369Y-64577176D01*
X69618797Y-64457671D01*
X69618793Y-64457664D01*
X69532547Y-64342455D01*
X69532544Y-64342452D01*
X69417335Y-64256206D01*
X69417328Y-64256202D01*
X69282482Y-64205908D01*
X69282483Y-64205908D01*
X69222883Y-64199501D01*
X69222881Y-64199500D01*
X69222873Y-64199500D01*
X69222864Y-64199500D01*
X68177129Y-64199500D01*
X68177123Y-64199501D01*
X68117516Y-64205908D01*
X67982671Y-64256202D01*
X67982664Y-64256206D01*
X67867455Y-64342452D01*
X67867452Y-64342455D01*
X67781206Y-64457664D01*
X67781202Y-64457671D01*
X67730910Y-64592513D01*
X67730909Y-64592517D01*
X67724500Y-64652127D01*
X67724500Y-64652134D01*
X67724500Y-64652135D01*
X67724500Y-65422870D01*
X66175499Y-65422870D01*
X66175499Y-63212500D01*
X67725000Y-63212500D01*
X67725000Y-63347844D01*
X67731401Y-63407372D01*
X67731403Y-63407379D01*
X67781645Y-63542086D01*
X67781649Y-63542093D01*
X67867809Y-63657187D01*
X67867812Y-63657190D01*
X67982906Y-63743350D01*
X67982913Y-63743354D01*
X68117620Y-63793596D01*
X68117627Y-63793598D01*
X68177155Y-63799999D01*
X68177172Y-63800000D01*
X68450000Y-63800000D01*
X68450000Y-63212500D01*
X68950000Y-63212500D01*
X68950000Y-63800000D01*
X69222828Y-63800000D01*
X69222844Y-63799999D01*
X69282372Y-63793598D01*
X69282379Y-63793596D01*
X69417086Y-63743354D01*
X69417093Y-63743350D01*
X69532187Y-63657190D01*
X69532190Y-63657187D01*
X69618350Y-63542093D01*
X69618354Y-63542086D01*
X69668596Y-63407379D01*
X69668598Y-63407372D01*
X69674999Y-63347844D01*
X69675000Y-63347827D01*
X69675000Y-63212500D01*
X68950000Y-63212500D01*
X68450000Y-63212500D01*
X67725000Y-63212500D01*
X66175499Y-63212500D01*
X66175499Y-62712500D01*
X67725000Y-62712500D01*
X68450000Y-62712500D01*
X68450000Y-62125000D01*
X68950000Y-62125000D01*
X68950000Y-62712500D01*
X69675000Y-62712500D01*
X69675000Y-62577172D01*
X69674999Y-62577155D01*
X69668598Y-62517627D01*
X69668596Y-62517620D01*
X69618354Y-62382913D01*
X69618350Y-62382906D01*
X69532190Y-62267812D01*
X69532187Y-62267809D01*
X69417093Y-62181649D01*
X69417086Y-62181645D01*
X69282379Y-62131403D01*
X69282372Y-62131401D01*
X69222844Y-62125000D01*
X68950000Y-62125000D01*
X68450000Y-62125000D01*
X68177155Y-62125000D01*
X68117627Y-62131401D01*
X68117620Y-62131403D01*
X67982913Y-62181645D01*
X67982906Y-62181649D01*
X67867812Y-62267809D01*
X67867809Y-62267812D01*
X67781649Y-62382906D01*
X67781645Y-62382913D01*
X67731403Y-62517620D01*
X67731401Y-62517627D01*
X67725000Y-62577155D01*
X67725000Y-62712500D01*
X66175499Y-62712500D01*
X66175499Y-61200000D01*
X66844722Y-61200000D01*
X66863762Y-61356818D01*
X66913250Y-61487304D01*
X66919780Y-61504523D01*
X67009517Y-61634530D01*
X67127760Y-61739283D01*
X67127762Y-61739284D01*
X67267634Y-61812696D01*
X67421014Y-61850500D01*
X67421015Y-61850500D01*
X67578985Y-61850500D01*
X67732365Y-61812696D01*
X67732365Y-61812695D01*
X67872240Y-61739283D01*
X67990483Y-61634530D01*
X68080220Y-61504523D01*
X68136237Y-61356818D01*
X68155278Y-61200000D01*
X68143372Y-61101945D01*
X68154832Y-61033022D01*
X68201736Y-60981236D01*
X68266468Y-60962999D01*
X68422871Y-60962999D01*
X68422872Y-60962999D01*
X68482483Y-60956591D01*
X68617331Y-60906296D01*
X68732546Y-60820046D01*
X68818796Y-60704831D01*
X68857895Y-60600000D01*
X70370001Y-60600000D01*
X70370001Y-61256479D01*
X70384835Y-61350149D01*
X70384837Y-61350155D01*
X70442356Y-61463041D01*
X70442363Y-61463050D01*
X70531949Y-61552636D01*
X70531954Y-61552639D01*
X70644854Y-61610165D01*
X70669998Y-61614147D01*
X70670000Y-61614146D01*
X70670000Y-60600000D01*
X70370001Y-60600000D01*
X68857895Y-60600000D01*
X68869091Y-60569983D01*
X68875500Y-60510373D01*
X68875499Y-59739628D01*
X68869091Y-59680017D01*
X68867341Y-59675326D01*
X68818797Y-59545171D01*
X68818793Y-59545164D01*
X68732547Y-59429955D01*
X68732544Y-59429952D01*
X68617335Y-59343706D01*
X68617328Y-59343702D01*
X68482482Y-59293408D01*
X68482483Y-59293408D01*
X68422883Y-59287001D01*
X68422881Y-59287000D01*
X68422873Y-59287000D01*
X68422864Y-59287000D01*
X67377129Y-59287000D01*
X67377123Y-59287001D01*
X67317516Y-59293408D01*
X67182671Y-59343702D01*
X67182664Y-59343706D01*
X67067455Y-59429952D01*
X67067452Y-59429955D01*
X66981206Y-59545164D01*
X66981202Y-59545171D01*
X66930910Y-59680013D01*
X66930909Y-59680017D01*
X66924500Y-59739627D01*
X66924500Y-59739634D01*
X66924500Y-59739635D01*
X66924500Y-60510370D01*
X66924501Y-60510376D01*
X66930908Y-60569983D01*
X66983227Y-60710257D01*
X66988211Y-60779949D01*
X66969096Y-60824029D01*
X66919780Y-60895476D01*
X66863762Y-61043181D01*
X66844722Y-61199999D01*
X66844722Y-61200000D01*
X66175499Y-61200000D01*
X66175499Y-60895476D01*
X66175499Y-58300000D01*
X66925000Y-58300000D01*
X66925000Y-58435344D01*
X66931401Y-58494872D01*
X66931403Y-58494879D01*
X66981645Y-58629586D01*
X66981649Y-58629593D01*
X67067809Y-58744687D01*
X67067812Y-58744690D01*
X67182906Y-58830850D01*
X67182913Y-58830854D01*
X67317620Y-58881096D01*
X67317627Y-58881098D01*
X67377155Y-58887499D01*
X67377172Y-58887500D01*
X67650000Y-58887500D01*
X67650000Y-58300000D01*
X68150000Y-58300000D01*
X68150000Y-58887500D01*
X68422828Y-58887500D01*
X68422844Y-58887499D01*
X68482372Y-58881098D01*
X68482379Y-58881096D01*
X68617086Y-58830854D01*
X68617093Y-58830850D01*
X68732187Y-58744690D01*
X68732190Y-58744687D01*
X68818350Y-58629593D01*
X68818354Y-58629586D01*
X68867490Y-58497844D01*
X69850000Y-58497844D01*
X69856401Y-58557372D01*
X69856403Y-58557379D01*
X69906645Y-58692086D01*
X69906649Y-58692093D01*
X69992809Y-58807187D01*
X69992812Y-58807190D01*
X70107906Y-58893350D01*
X70107913Y-58893354D01*
X70242620Y-58943596D01*
X70242627Y-58943598D01*
X70302155Y-58949999D01*
X70302172Y-58950000D01*
X70429951Y-58950000D01*
X70496990Y-58969685D01*
X70542745Y-59022489D01*
X70552689Y-59091647D01*
X70523664Y-59155203D01*
X70517632Y-59161681D01*
X70442363Y-59236949D01*
X70442360Y-59236953D01*
X70384833Y-59349855D01*
X70370000Y-59443513D01*
X70370000Y-60100000D01*
X71046000Y-60100000D01*
X71113039Y-60119685D01*
X71158794Y-60172489D01*
X71170000Y-60224000D01*
X71170000Y-61614146D01*
X71170001Y-61614147D01*
X71195145Y-61610165D01*
X71308045Y-61552639D01*
X71308050Y-61552636D01*
X71397636Y-61463050D01*
X71397641Y-61463044D01*
X71444234Y-61371599D01*
X71492208Y-61320803D01*
X71560029Y-61304007D01*
X71626164Y-61326544D01*
X71665203Y-61371598D01*
X71711947Y-61463338D01*
X71711954Y-61463347D01*
X71801652Y-61553045D01*
X71801654Y-61553046D01*
X71801658Y-61553050D01*
X71913752Y-61610165D01*
X71914698Y-61610647D01*
X72008475Y-61625499D01*
X72008481Y-61625500D01*
X72371518Y-61625499D01*
X72465304Y-61610646D01*
X72578342Y-61553050D01*
X72668050Y-61463342D01*
X72714516Y-61372145D01*
X72762490Y-61321352D01*
X72830311Y-61304557D01*
X72896445Y-61327094D01*
X72935482Y-61372145D01*
X72981948Y-61463338D01*
X72981951Y-61463343D01*
X72981954Y-61463347D01*
X73071652Y-61553045D01*
X73071654Y-61553046D01*
X73071658Y-61553050D01*
X73183752Y-61610165D01*
X73184698Y-61610647D01*
X73278475Y-61625499D01*
X73278481Y-61625500D01*
X73503098Y-61625499D01*
X73570138Y-61645183D01*
X73590780Y-61661818D01*
X74257850Y-62328888D01*
X74273975Y-62348744D01*
X74279913Y-62357832D01*
X74279916Y-62357836D01*
X74307925Y-62379636D01*
X74313687Y-62384725D01*
X74316482Y-62387520D01*
X74335495Y-62401094D01*
X74378811Y-62434809D01*
X74378818Y-62434811D01*
X74385720Y-62438547D01*
X74392796Y-62442006D01*
X74392801Y-62442010D01*
X74445402Y-62457670D01*
X74445403Y-62457670D01*
X74497338Y-62475500D01*
X74505072Y-62476790D01*
X74512910Y-62477767D01*
X74512912Y-62477768D01*
X74512913Y-62477767D01*
X74512914Y-62477768D01*
X74567756Y-62475500D01*
X77003692Y-62475500D01*
X77070731Y-62495185D01*
X77105742Y-62529061D01*
X77108163Y-62532569D01*
X77109515Y-62534528D01*
X77109517Y-62534530D01*
X77227760Y-62639283D01*
X77227762Y-62639284D01*
X77367634Y-62712696D01*
X77521014Y-62750500D01*
X77521015Y-62750500D01*
X77678985Y-62750500D01*
X77832365Y-62712696D01*
X77832738Y-62712500D01*
X77972240Y-62639283D01*
X78090483Y-62534530D01*
X78180220Y-62404523D01*
X78201706Y-62347870D01*
X82524500Y-62347870D01*
X82524501Y-62347876D01*
X82530908Y-62407483D01*
X82581202Y-62542328D01*
X82581206Y-62542335D01*
X82667452Y-62657544D01*
X82667455Y-62657547D01*
X82782664Y-62743793D01*
X82782671Y-62743797D01*
X82917517Y-62794091D01*
X82917516Y-62794091D01*
X82924444Y-62794835D01*
X82977127Y-62800500D01*
X84022872Y-62800499D01*
X84082483Y-62794091D01*
X84217331Y-62743796D01*
X84332546Y-62657546D01*
X84418796Y-62542331D01*
X84469091Y-62407483D01*
X84475500Y-62347873D01*
X84475499Y-61577128D01*
X84469091Y-61517517D01*
X84457822Y-61487304D01*
X84418797Y-61382671D01*
X84418793Y-61382664D01*
X84332547Y-61267455D01*
X84332544Y-61267452D01*
X84217333Y-61181204D01*
X84212305Y-61178459D01*
X84162901Y-61129053D01*
X84148050Y-61060780D01*
X84148638Y-61054681D01*
X84155278Y-61000000D01*
X84136237Y-60843182D01*
X84080220Y-60695477D01*
X83990483Y-60565470D01*
X83872240Y-60460717D01*
X83872238Y-60460716D01*
X83872237Y-60460715D01*
X83732365Y-60387303D01*
X83578986Y-60349500D01*
X83578985Y-60349500D01*
X83421015Y-60349500D01*
X83421014Y-60349500D01*
X83267634Y-60387303D01*
X83127762Y-60460715D01*
X83009516Y-60565471D01*
X82919781Y-60695475D01*
X82919780Y-60695476D01*
X82863762Y-60843181D01*
X82844722Y-60999999D01*
X82844722Y-61000000D01*
X82851361Y-61054683D01*
X82839900Y-61123606D01*
X82792996Y-61175392D01*
X82787704Y-61178454D01*
X82782673Y-61181201D01*
X82782668Y-61181204D01*
X82782669Y-61181204D01*
X82667454Y-61267454D01*
X82667453Y-61267455D01*
X82667452Y-61267456D01*
X82581206Y-61382664D01*
X82581202Y-61382671D01*
X82535755Y-61504523D01*
X82530909Y-61517517D01*
X82524500Y-61577127D01*
X82524500Y-61577134D01*
X82524500Y-61577135D01*
X82524500Y-62347870D01*
X78201706Y-62347870D01*
X78236237Y-62256818D01*
X78255278Y-62100000D01*
X78246852Y-62030600D01*
X78236237Y-61943181D01*
X78201087Y-61850500D01*
X78180220Y-61795477D01*
X78180219Y-61795476D01*
X78177560Y-61788464D01*
X78179498Y-61787728D01*
X78167841Y-61729525D01*
X78193337Y-61664473D01*
X78249955Y-61623533D01*
X78310761Y-61617942D01*
X78358481Y-61625500D01*
X78721518Y-61625499D01*
X78815304Y-61610646D01*
X78928342Y-61553050D01*
X79018050Y-61463342D01*
X79064516Y-61372145D01*
X79112490Y-61321352D01*
X79180311Y-61304557D01*
X79246445Y-61327094D01*
X79285482Y-61372145D01*
X79331948Y-61463338D01*
X79331951Y-61463343D01*
X79331954Y-61463347D01*
X79421652Y-61553045D01*
X79421654Y-61553046D01*
X79421658Y-61553050D01*
X79533752Y-61610165D01*
X79534698Y-61610647D01*
X79628475Y-61625499D01*
X79628481Y-61625500D01*
X79991518Y-61625499D01*
X80085304Y-61610646D01*
X80198342Y-61553050D01*
X80288050Y-61463342D01*
X80334516Y-61372145D01*
X80382490Y-61321352D01*
X80450311Y-61304557D01*
X80516445Y-61327094D01*
X80555482Y-61372145D01*
X80601948Y-61463338D01*
X80601951Y-61463343D01*
X80601954Y-61463347D01*
X80691652Y-61553045D01*
X80691654Y-61553046D01*
X80691658Y-61553050D01*
X80803752Y-61610165D01*
X80804698Y-61610647D01*
X80898475Y-61625499D01*
X80898481Y-61625500D01*
X81261518Y-61625499D01*
X81355304Y-61610646D01*
X81468342Y-61553050D01*
X81558050Y-61463342D01*
X81615646Y-61350304D01*
X81615646Y-61350302D01*
X81615647Y-61350301D01*
X81630499Y-61256524D01*
X81630500Y-61256519D01*
X81630499Y-59443482D01*
X81615646Y-59349696D01*
X81558050Y-59236658D01*
X81558046Y-59236654D01*
X81558045Y-59236652D01*
X81468347Y-59146954D01*
X81468344Y-59146952D01*
X81468342Y-59146950D01*
X81391517Y-59107805D01*
X81355301Y-59089352D01*
X81261524Y-59074500D01*
X80898482Y-59074500D01*
X80817519Y-59087323D01*
X80804696Y-59089354D01*
X80691658Y-59146950D01*
X80691657Y-59146950D01*
X80691657Y-59146951D01*
X80691652Y-59146954D01*
X80601954Y-59236652D01*
X80601949Y-59236659D01*
X80555483Y-59327852D01*
X80507508Y-59378648D01*
X80439687Y-59395442D01*
X80373552Y-59372904D01*
X80334516Y-59327852D01*
X80288050Y-59236658D01*
X80288047Y-59236655D01*
X80288045Y-59236652D01*
X80198347Y-59146954D01*
X80198344Y-59146952D01*
X80198342Y-59146950D01*
X80121517Y-59107805D01*
X80085301Y-59089352D01*
X79991524Y-59074500D01*
X79895897Y-59074500D01*
X79828858Y-59054815D01*
X79783103Y-59002011D01*
X79773159Y-58932853D01*
X79802184Y-58869297D01*
X79808200Y-58862836D01*
X80221036Y-58450000D01*
X88250000Y-58450000D01*
X88250000Y-58697844D01*
X88256401Y-58757372D01*
X88256403Y-58757379D01*
X88306645Y-58892086D01*
X88306649Y-58892093D01*
X88392809Y-59007187D01*
X88392812Y-59007190D01*
X88507906Y-59093350D01*
X88507913Y-59093354D01*
X88642620Y-59143596D01*
X88642627Y-59143598D01*
X88702155Y-59149999D01*
X88702172Y-59150000D01*
X88850000Y-59150000D01*
X88850000Y-58450000D01*
X89350000Y-58450000D01*
X89350000Y-59150000D01*
X89497828Y-59150000D01*
X89497844Y-59149999D01*
X89557372Y-59143598D01*
X89557379Y-59143596D01*
X89692086Y-59093354D01*
X89692093Y-59093350D01*
X89807187Y-59007190D01*
X89807190Y-59007187D01*
X89893350Y-58892093D01*
X89893354Y-58892086D01*
X89943596Y-58757379D01*
X89943598Y-58757372D01*
X89949996Y-58697870D01*
X90249500Y-58697870D01*
X90249501Y-58697876D01*
X90255908Y-58757483D01*
X90306202Y-58892328D01*
X90306206Y-58892335D01*
X90392452Y-59007544D01*
X90392455Y-59007547D01*
X90507664Y-59093793D01*
X90507671Y-59093797D01*
X90548709Y-59109103D01*
X90642517Y-59144091D01*
X90702127Y-59150500D01*
X90825500Y-59150499D01*
X90892539Y-59170183D01*
X90938294Y-59222987D01*
X90949500Y-59274499D01*
X90949500Y-59533196D01*
X90946862Y-59558634D01*
X90944633Y-59569268D01*
X90944633Y-59569269D01*
X90944633Y-59569271D01*
X90949023Y-59604491D01*
X90949500Y-59612167D01*
X90949500Y-59616116D01*
X90953342Y-59639141D01*
X90960134Y-59693627D01*
X90962373Y-59701147D01*
X90964934Y-59708608D01*
X90964935Y-59708610D01*
X90988794Y-59752698D01*
X90991055Y-59756877D01*
X91015174Y-59806211D01*
X91019742Y-59812609D01*
X91024582Y-59818827D01*
X91064971Y-59856009D01*
X91680289Y-60471326D01*
X91713774Y-60532649D01*
X91709331Y-60594765D01*
X91710986Y-60595236D01*
X91653603Y-60796915D01*
X91653602Y-60796917D01*
X91634785Y-60999999D01*
X91634785Y-61000000D01*
X91653602Y-61203082D01*
X91709417Y-61399247D01*
X91709422Y-61399260D01*
X91800327Y-61581821D01*
X91923237Y-61744581D01*
X92073958Y-61881980D01*
X92073960Y-61881982D01*
X92105929Y-61901776D01*
X92247363Y-61989348D01*
X92437544Y-62063024D01*
X92638024Y-62100500D01*
X92638026Y-62100500D01*
X92841974Y-62100500D01*
X92841976Y-62100500D01*
X93042456Y-62063024D01*
X93232637Y-61989348D01*
X93406041Y-61881981D01*
X93556764Y-61744579D01*
X93679673Y-61581821D01*
X93770582Y-61399250D01*
X93826397Y-61203083D01*
X93845215Y-61000000D01*
X93841786Y-60962999D01*
X93826397Y-60796917D01*
X93817449Y-60765470D01*
X93770582Y-60600750D01*
X93767836Y-60595236D01*
X93700853Y-60460715D01*
X93679673Y-60418179D01*
X93581990Y-60288826D01*
X93556762Y-60255418D01*
X93406041Y-60118019D01*
X93406039Y-60118017D01*
X93232642Y-60010655D01*
X93232639Y-60010653D01*
X93232637Y-60010652D01*
X93232636Y-60010651D01*
X93232635Y-60010651D01*
X93115499Y-59965273D01*
X93042456Y-59936976D01*
X92841976Y-59899500D01*
X92638024Y-59899500D01*
X92486739Y-59927779D01*
X92437538Y-59936977D01*
X92347445Y-59971879D01*
X92277821Y-59977740D01*
X92216081Y-59945030D01*
X92214971Y-59943933D01*
X91736819Y-59465781D01*
X91703334Y-59404458D01*
X91700500Y-59378100D01*
X91700500Y-59149749D01*
X91720185Y-59082710D01*
X91750190Y-59050482D01*
X91807546Y-59007546D01*
X91893796Y-58892331D01*
X91944091Y-58757483D01*
X91950500Y-58697873D01*
X91950499Y-57702128D01*
X91944091Y-57642517D01*
X91933317Y-57613632D01*
X91925500Y-57570300D01*
X91925500Y-56735740D01*
X91925500Y-55889664D01*
X91945184Y-55822629D01*
X91997987Y-55776874D01*
X92004679Y-55774052D01*
X92042637Y-55759348D01*
X92216041Y-55651981D01*
X92316964Y-55559977D01*
X92379765Y-55529362D01*
X92449153Y-55537559D01*
X92503093Y-55581969D01*
X92524461Y-55648491D01*
X92524500Y-55651616D01*
X92524500Y-57309045D01*
X92504815Y-57376084D01*
X92497504Y-57385157D01*
X92497768Y-57385355D01*
X92406206Y-57507664D01*
X92406202Y-57507671D01*
X92355908Y-57642517D01*
X92349501Y-57702116D01*
X92349501Y-57702123D01*
X92349500Y-57702135D01*
X92349500Y-58697870D01*
X92349501Y-58697876D01*
X92355908Y-58757483D01*
X92406202Y-58892328D01*
X92406206Y-58892335D01*
X92492452Y-59007544D01*
X92492455Y-59007547D01*
X92607664Y-59093793D01*
X92607671Y-59093797D01*
X92742516Y-59144091D01*
X92759119Y-59145876D01*
X92802127Y-59150500D01*
X92848098Y-59150499D01*
X92915137Y-59170182D01*
X92935781Y-59186818D01*
X94220289Y-60471326D01*
X94253774Y-60532649D01*
X94249331Y-60594765D01*
X94250986Y-60595236D01*
X94193603Y-60796915D01*
X94193602Y-60796917D01*
X94174785Y-60999999D01*
X94174785Y-61000000D01*
X94193602Y-61203082D01*
X94249417Y-61399247D01*
X94249422Y-61399260D01*
X94340327Y-61581821D01*
X94463237Y-61744581D01*
X94613958Y-61881980D01*
X94613960Y-61881982D01*
X94645929Y-61901776D01*
X94787363Y-61989348D01*
X94977544Y-62063024D01*
X95178024Y-62100500D01*
X95178026Y-62100500D01*
X95381974Y-62100500D01*
X95381976Y-62100500D01*
X95582456Y-62063024D01*
X95772637Y-61989348D01*
X95946041Y-61881981D01*
X96096764Y-61744579D01*
X96219673Y-61581821D01*
X96310582Y-61399250D01*
X96366397Y-61203083D01*
X96385215Y-61000000D01*
X96381786Y-60962999D01*
X96366397Y-60796917D01*
X96357449Y-60765470D01*
X96310582Y-60600750D01*
X96307836Y-60595236D01*
X96240853Y-60460715D01*
X96219673Y-60418179D01*
X96121990Y-60288826D01*
X96096762Y-60255418D01*
X95946041Y-60118019D01*
X95946039Y-60118017D01*
X95772642Y-60010655D01*
X95772639Y-60010653D01*
X95772637Y-60010652D01*
X95772636Y-60010651D01*
X95772635Y-60010651D01*
X95655499Y-59965273D01*
X95582456Y-59936976D01*
X95381976Y-59899500D01*
X95178024Y-59899500D01*
X95026739Y-59927779D01*
X94977538Y-59936977D01*
X94887445Y-59971879D01*
X94817821Y-59977740D01*
X94756081Y-59945030D01*
X94754971Y-59943933D01*
X93945437Y-59134399D01*
X93911952Y-59073076D01*
X93916936Y-59003384D01*
X93933851Y-58972407D01*
X93935889Y-58969685D01*
X93993796Y-58892331D01*
X94044091Y-58757483D01*
X94050500Y-58697873D01*
X94050500Y-58450000D01*
X94350000Y-58450000D01*
X94350000Y-58697844D01*
X94356401Y-58757372D01*
X94356403Y-58757379D01*
X94406645Y-58892086D01*
X94406649Y-58892093D01*
X94492809Y-59007187D01*
X94492812Y-59007190D01*
X94607906Y-59093350D01*
X94607913Y-59093354D01*
X94742620Y-59143596D01*
X94742627Y-59143598D01*
X94802155Y-59149999D01*
X94802172Y-59150000D01*
X94950000Y-59150000D01*
X94950000Y-58450000D01*
X94350000Y-58450000D01*
X94050500Y-58450000D01*
X94050499Y-57950000D01*
X94350000Y-57950000D01*
X94950000Y-57950000D01*
X94950000Y-57250000D01*
X94802155Y-57250000D01*
X94742627Y-57256401D01*
X94742620Y-57256403D01*
X94607913Y-57306645D01*
X94607906Y-57306649D01*
X94492812Y-57392809D01*
X94492809Y-57392812D01*
X94406649Y-57507906D01*
X94406645Y-57507913D01*
X94356403Y-57642620D01*
X94356401Y-57642627D01*
X94350000Y-57702155D01*
X94350000Y-57950000D01*
X94050499Y-57950000D01*
X94050499Y-57702128D01*
X94044091Y-57642517D01*
X94044089Y-57642512D01*
X93993797Y-57507671D01*
X93993793Y-57507664D01*
X93907547Y-57392455D01*
X93907544Y-57392452D01*
X93792335Y-57306206D01*
X93792328Y-57306202D01*
X93657482Y-57255908D01*
X93657483Y-57255908D01*
X93597883Y-57249501D01*
X93597881Y-57249500D01*
X93597873Y-57249500D01*
X93597865Y-57249500D01*
X93399500Y-57249500D01*
X93332461Y-57229815D01*
X93286706Y-57177011D01*
X93275500Y-57125500D01*
X93275500Y-55782681D01*
X93295185Y-55715642D01*
X93347989Y-55669887D01*
X93417147Y-55659943D01*
X93464774Y-55677252D01*
X93597363Y-55759348D01*
X93787544Y-55833024D01*
X93988024Y-55870500D01*
X93988026Y-55870500D01*
X94191975Y-55870500D01*
X94191976Y-55870500D01*
X94251985Y-55859282D01*
X94321498Y-55866312D01*
X94362451Y-55893489D01*
X95308616Y-56839655D01*
X95308638Y-56839675D01*
X95507282Y-57038319D01*
X95540767Y-57099642D01*
X95535783Y-57169334D01*
X95493911Y-57225267D01*
X95463324Y-57236675D01*
X95450000Y-57249999D01*
X95450000Y-59150000D01*
X95597828Y-59150000D01*
X95597844Y-59149999D01*
X95657372Y-59143598D01*
X95657379Y-59143596D01*
X95792086Y-59093354D01*
X95792093Y-59093350D01*
X95907187Y-59007190D01*
X95907188Y-59007189D01*
X95950420Y-58949439D01*
X96006353Y-58907567D01*
X96076045Y-58902583D01*
X96137368Y-58936068D01*
X96148953Y-58949437D01*
X96149749Y-58950500D01*
X96192187Y-59007190D01*
X96192455Y-59007547D01*
X96307664Y-59093793D01*
X96307673Y-59093798D01*
X96392262Y-59125347D01*
X96416531Y-59134399D01*
X96418832Y-59135257D01*
X96474766Y-59177127D01*
X96499184Y-59242592D01*
X96499500Y-59251439D01*
X96499500Y-60003196D01*
X96496862Y-60028634D01*
X96494633Y-60039268D01*
X96494633Y-60039269D01*
X96494633Y-60039271D01*
X96499023Y-60074491D01*
X96499500Y-60082167D01*
X96499500Y-60086116D01*
X96503342Y-60109141D01*
X96510134Y-60163627D01*
X96512373Y-60171147D01*
X96514934Y-60178608D01*
X96514935Y-60178610D01*
X96539498Y-60224000D01*
X96541055Y-60226877D01*
X96565174Y-60276211D01*
X96569742Y-60282609D01*
X96574582Y-60288827D01*
X96614970Y-60326008D01*
X96760289Y-60471327D01*
X96793774Y-60532650D01*
X96789331Y-60594765D01*
X96790986Y-60595236D01*
X96733603Y-60796915D01*
X96733602Y-60796917D01*
X96714785Y-60999999D01*
X96714785Y-61000000D01*
X96733602Y-61203082D01*
X96789417Y-61399247D01*
X96789422Y-61399260D01*
X96880327Y-61581821D01*
X97003237Y-61744581D01*
X97153958Y-61881980D01*
X97153960Y-61881982D01*
X97185929Y-61901776D01*
X97327363Y-61989348D01*
X97517544Y-62063024D01*
X97718024Y-62100500D01*
X97718026Y-62100500D01*
X97921974Y-62100500D01*
X97921976Y-62100500D01*
X98122456Y-62063024D01*
X98312637Y-61989348D01*
X98486041Y-61881981D01*
X98636764Y-61744579D01*
X98759673Y-61581821D01*
X98850582Y-61399250D01*
X98906397Y-61203083D01*
X98925215Y-61000000D01*
X98921786Y-60962999D01*
X98906397Y-60796917D01*
X98897449Y-60765470D01*
X98850582Y-60600750D01*
X98847836Y-60595236D01*
X98780853Y-60460715D01*
X98759673Y-60418179D01*
X98661990Y-60288826D01*
X98636762Y-60255418D01*
X98486041Y-60118019D01*
X98486039Y-60118017D01*
X98312642Y-60010655D01*
X98312639Y-60010653D01*
X98312637Y-60010652D01*
X98312636Y-60010651D01*
X98312635Y-60010651D01*
X98195499Y-59965273D01*
X98122456Y-59936976D01*
X97921976Y-59899500D01*
X97718024Y-59899500D01*
X97566739Y-59927779D01*
X97517538Y-59936977D01*
X97427446Y-59971879D01*
X97357823Y-59977741D01*
X97296083Y-59945030D01*
X97294972Y-59943933D01*
X97286819Y-59935780D01*
X97253334Y-59874457D01*
X97250500Y-59848099D01*
X97250500Y-59266976D01*
X97270185Y-59199937D01*
X97322989Y-59154182D01*
X97350135Y-59146736D01*
X97349932Y-59145876D01*
X97357479Y-59144092D01*
X97357481Y-59144091D01*
X97357483Y-59144091D01*
X97492331Y-59093796D01*
X97607546Y-59007546D01*
X97693796Y-58892331D01*
X97744091Y-58757483D01*
X97750500Y-58697873D01*
X97750500Y-58450000D01*
X98050000Y-58450000D01*
X98050000Y-58697844D01*
X98056401Y-58757372D01*
X98056403Y-58757379D01*
X98106645Y-58892086D01*
X98106649Y-58892093D01*
X98192809Y-59007187D01*
X98192812Y-59007190D01*
X98307906Y-59093350D01*
X98307913Y-59093354D01*
X98442620Y-59143596D01*
X98442627Y-59143598D01*
X98502155Y-59149999D01*
X98502172Y-59150000D01*
X98650000Y-59150000D01*
X98650000Y-58450000D01*
X98050000Y-58450000D01*
X97750500Y-58450000D01*
X97750499Y-57702128D01*
X97744091Y-57642517D01*
X97744090Y-57642515D01*
X97744090Y-57642512D01*
X97742308Y-57634969D01*
X97743624Y-57634657D01*
X97739225Y-57573142D01*
X97772709Y-57511819D01*
X97834032Y-57478334D01*
X97860391Y-57475500D01*
X97940142Y-57475500D01*
X98007181Y-57495185D01*
X98052936Y-57547989D01*
X98062880Y-57617147D01*
X98056718Y-57641283D01*
X98056401Y-57642627D01*
X98050000Y-57702155D01*
X98050000Y-57950000D01*
X99026000Y-57950000D01*
X99093039Y-57969685D01*
X99138794Y-58022489D01*
X99150000Y-58074000D01*
X99150000Y-59150000D01*
X99297828Y-59150000D01*
X99297844Y-59149999D01*
X99357372Y-59143598D01*
X99357379Y-59143596D01*
X99492086Y-59093354D01*
X99492093Y-59093350D01*
X99607187Y-59007190D01*
X99607188Y-59007189D01*
X99650420Y-58949439D01*
X99706353Y-58907567D01*
X99776045Y-58902583D01*
X99837368Y-58936068D01*
X99848953Y-58949438D01*
X99892448Y-59007539D01*
X99892453Y-59007545D01*
X99892454Y-59007546D01*
X99934810Y-59039253D01*
X99976682Y-59095186D01*
X99984500Y-59138520D01*
X99984500Y-59880330D01*
X99964815Y-59947369D01*
X99912011Y-59993124D01*
X99905295Y-59995956D01*
X99867371Y-60010647D01*
X99867359Y-60010653D01*
X99693960Y-60118017D01*
X99693958Y-60118019D01*
X99543237Y-60255418D01*
X99420327Y-60418178D01*
X99329422Y-60600739D01*
X99329417Y-60600752D01*
X99273602Y-60796917D01*
X99254785Y-60999999D01*
X99254785Y-61000000D01*
X99273602Y-61203082D01*
X99329417Y-61399247D01*
X99329422Y-61399260D01*
X99420327Y-61581821D01*
X99543237Y-61744581D01*
X99693958Y-61881980D01*
X99693960Y-61881982D01*
X99725929Y-61901776D01*
X99867363Y-61989348D01*
X100057544Y-62063024D01*
X100258024Y-62100500D01*
X100258026Y-62100500D01*
X100461974Y-62100500D01*
X100461976Y-62100500D01*
X100662456Y-62063024D01*
X100852637Y-61989348D01*
X101026041Y-61881981D01*
X101034052Y-61874678D01*
X101799500Y-61874678D01*
X101814032Y-61947735D01*
X101814033Y-61947739D01*
X101828261Y-61969033D01*
X101869399Y-62030601D01*
X101949524Y-62084138D01*
X101952260Y-62085966D01*
X101952264Y-62085967D01*
X102025321Y-62100499D01*
X102025324Y-62100500D01*
X102025326Y-62100500D01*
X103774676Y-62100500D01*
X103774677Y-62100499D01*
X103847740Y-62085966D01*
X103930601Y-62030601D01*
X103985966Y-61947740D01*
X104000500Y-61874674D01*
X104000500Y-60125326D01*
X104000500Y-60125323D01*
X104000499Y-60125321D01*
X103985967Y-60052264D01*
X103985966Y-60052260D01*
X103970184Y-60028640D01*
X103930601Y-59969399D01*
X103847740Y-59914034D01*
X103847739Y-59914033D01*
X103847735Y-59914032D01*
X103774677Y-59899500D01*
X103774674Y-59899500D01*
X102025326Y-59899500D01*
X102025323Y-59899500D01*
X101952264Y-59914032D01*
X101952260Y-59914033D01*
X101869399Y-59969399D01*
X101814033Y-60052260D01*
X101814032Y-60052264D01*
X101799500Y-60125321D01*
X101799500Y-61874678D01*
X101034052Y-61874678D01*
X101176764Y-61744579D01*
X101299673Y-61581821D01*
X101390582Y-61399250D01*
X101446397Y-61203083D01*
X101465215Y-61000000D01*
X101461786Y-60962999D01*
X101446397Y-60796917D01*
X101437449Y-60765470D01*
X101390582Y-60600750D01*
X101387836Y-60595236D01*
X101320853Y-60460715D01*
X101299673Y-60418179D01*
X101201990Y-60288826D01*
X101176762Y-60255418D01*
X101026041Y-60118019D01*
X101026039Y-60118017D01*
X100852640Y-60010653D01*
X100852628Y-60010647D01*
X100814705Y-59995956D01*
X100759304Y-59953383D01*
X100735714Y-59887616D01*
X100735500Y-59880330D01*
X100735500Y-59274499D01*
X100755185Y-59207460D01*
X100807989Y-59161705D01*
X100859500Y-59150499D01*
X100997871Y-59150499D01*
X100997872Y-59150499D01*
X101057483Y-59144091D01*
X101192331Y-59093796D01*
X101307546Y-59007546D01*
X101393796Y-58892331D01*
X101444091Y-58757483D01*
X101450500Y-58697873D01*
X101450500Y-58450000D01*
X101750000Y-58450000D01*
X101750000Y-58697844D01*
X101756401Y-58757372D01*
X101756403Y-58757379D01*
X101806645Y-58892086D01*
X101806649Y-58892093D01*
X101892809Y-59007187D01*
X101892812Y-59007190D01*
X102007906Y-59093350D01*
X102007913Y-59093354D01*
X102142620Y-59143596D01*
X102142627Y-59143598D01*
X102202155Y-59149999D01*
X102202172Y-59150000D01*
X102350000Y-59150000D01*
X102350000Y-58450000D01*
X102850000Y-58450000D01*
X102850000Y-59150000D01*
X102997828Y-59150000D01*
X102997844Y-59149999D01*
X103057372Y-59143598D01*
X103057379Y-59143596D01*
X103192086Y-59093354D01*
X103192093Y-59093350D01*
X103307187Y-59007190D01*
X103307190Y-59007187D01*
X103393350Y-58892093D01*
X103393354Y-58892086D01*
X103443596Y-58757379D01*
X103443598Y-58757372D01*
X103449999Y-58697844D01*
X103450000Y-58697827D01*
X103450000Y-58450000D01*
X102850000Y-58450000D01*
X102350000Y-58450000D01*
X101750000Y-58450000D01*
X101450500Y-58450000D01*
X101450499Y-57950000D01*
X101750000Y-57950000D01*
X102350000Y-57950000D01*
X102350000Y-57250000D01*
X102850000Y-57250000D01*
X102850000Y-57950000D01*
X103450000Y-57950000D01*
X103450000Y-57702172D01*
X103449999Y-57702155D01*
X103443598Y-57642627D01*
X103443596Y-57642620D01*
X103393354Y-57507913D01*
X103393350Y-57507906D01*
X103307190Y-57392812D01*
X103307187Y-57392809D01*
X103192093Y-57306649D01*
X103192086Y-57306645D01*
X103057379Y-57256403D01*
X103057372Y-57256401D01*
X102997844Y-57250000D01*
X102850000Y-57250000D01*
X102350000Y-57250000D01*
X102202155Y-57250000D01*
X102142627Y-57256401D01*
X102142620Y-57256403D01*
X102007913Y-57306645D01*
X102007906Y-57306649D01*
X101892812Y-57392809D01*
X101892809Y-57392812D01*
X101806649Y-57507906D01*
X101806645Y-57507913D01*
X101756403Y-57642620D01*
X101756401Y-57642627D01*
X101750000Y-57702155D01*
X101750000Y-57950000D01*
X101450499Y-57950000D01*
X101450499Y-57702128D01*
X101444091Y-57642517D01*
X101444089Y-57642512D01*
X101393797Y-57507671D01*
X101393793Y-57507664D01*
X101307547Y-57392455D01*
X101307544Y-57392452D01*
X101192335Y-57306206D01*
X101192328Y-57306202D01*
X101057482Y-57255908D01*
X101057483Y-57255908D01*
X100997883Y-57249501D01*
X100997881Y-57249500D01*
X100997873Y-57249500D01*
X100997865Y-57249500D01*
X100331900Y-57249500D01*
X100264861Y-57229815D01*
X100244219Y-57213181D01*
X99902149Y-56871111D01*
X99886022Y-56851252D01*
X99880086Y-56842167D01*
X99880083Y-56842163D01*
X99852074Y-56820363D01*
X99846310Y-56815272D01*
X99843515Y-56812477D01*
X99824505Y-56798906D01*
X99781189Y-56765190D01*
X99774274Y-56761448D01*
X99767200Y-56757990D01*
X99714596Y-56742329D01*
X99662658Y-56724499D01*
X99654923Y-56723208D01*
X99647085Y-56722231D01*
X99592244Y-56724500D01*
X97006899Y-56724500D01*
X96939860Y-56704815D01*
X96919218Y-56688181D01*
X96286633Y-56055595D01*
X96253148Y-55994272D01*
X96258132Y-55924580D01*
X96300004Y-55868647D01*
X96365468Y-55844230D01*
X96397091Y-55846024D01*
X96528024Y-55870500D01*
X96528026Y-55870500D01*
X96731974Y-55870500D01*
X96731976Y-55870500D01*
X96932456Y-55833024D01*
X97122637Y-55759348D01*
X97296041Y-55651981D01*
X97446764Y-55514579D01*
X97569673Y-55351821D01*
X97660582Y-55169250D01*
X97716397Y-54973083D01*
X97735215Y-54770000D01*
X97716397Y-54566917D01*
X97660582Y-54370750D01*
X97569673Y-54188179D01*
X97484500Y-54075391D01*
X97446762Y-54025418D01*
X97296041Y-53888019D01*
X97296039Y-53888017D01*
X97122642Y-53780655D01*
X97122635Y-53780651D01*
X96933700Y-53707458D01*
X96932456Y-53706976D01*
X96731976Y-53669500D01*
X96528024Y-53669500D01*
X96327544Y-53706976D01*
X96327541Y-53706976D01*
X96327541Y-53706977D01*
X96137364Y-53780651D01*
X96137357Y-53780655D01*
X95964777Y-53887512D01*
X95897417Y-53906067D01*
X95830717Y-53885259D01*
X95785856Y-53831694D01*
X95775500Y-53782085D01*
X95775500Y-53666898D01*
X95795185Y-53599859D01*
X95811819Y-53579217D01*
X95923281Y-53467755D01*
X96104972Y-53286063D01*
X96166293Y-53252580D01*
X96235984Y-53257564D01*
X96237444Y-53258119D01*
X96327544Y-53293024D01*
X96528024Y-53330500D01*
X96528026Y-53330500D01*
X96731974Y-53330500D01*
X96731976Y-53330500D01*
X96932456Y-53293024D01*
X97122637Y-53219348D01*
X97296041Y-53111981D01*
X97446764Y-52974579D01*
X97569673Y-52811821D01*
X97660582Y-52629250D01*
X97716397Y-52433083D01*
X97735215Y-52230000D01*
X97716397Y-52026917D01*
X97660582Y-51830750D01*
X97569673Y-51648179D01*
X97446764Y-51485421D01*
X97446762Y-51485418D01*
X97296041Y-51348019D01*
X97296039Y-51348017D01*
X97122642Y-51240655D01*
X97122635Y-51240651D01*
X96964658Y-51179451D01*
X96932456Y-51166976D01*
X96731976Y-51129500D01*
X96528024Y-51129500D01*
X96327544Y-51166976D01*
X96327541Y-51166976D01*
X96327541Y-51166977D01*
X96137364Y-51240651D01*
X96137357Y-51240655D01*
X95963960Y-51348017D01*
X95963958Y-51348019D01*
X95813237Y-51485418D01*
X95690327Y-51648178D01*
X95599422Y-51830739D01*
X95599417Y-51830752D01*
X95543602Y-52026917D01*
X95524785Y-52229999D01*
X95524785Y-52230000D01*
X95543602Y-52433082D01*
X95571799Y-52532182D01*
X95599417Y-52629247D01*
X95600987Y-52634763D01*
X95599012Y-52635324D01*
X95604088Y-52695862D01*
X95571357Y-52757591D01*
X95570289Y-52758671D01*
X95171108Y-53157852D01*
X95151254Y-53173976D01*
X95142165Y-53179914D01*
X95142164Y-53179915D01*
X95120363Y-53207923D01*
X95115286Y-53213674D01*
X95112484Y-53216477D01*
X95112474Y-53216488D01*
X95098905Y-53235495D01*
X95065192Y-53278808D01*
X95061447Y-53285729D01*
X95057988Y-53292804D01*
X95042329Y-53345403D01*
X95024500Y-53397338D01*
X95023206Y-53405092D01*
X95022231Y-53412911D01*
X95024500Y-53467755D01*
X95024500Y-53851918D01*
X95004815Y-53918957D01*
X94952011Y-53964712D01*
X94882853Y-53974656D01*
X94819297Y-53945631D01*
X94816962Y-53943555D01*
X94756042Y-53888019D01*
X94756039Y-53888017D01*
X94582642Y-53780655D01*
X94582635Y-53780651D01*
X94393700Y-53707458D01*
X94392456Y-53706976D01*
X94191976Y-53669500D01*
X93988024Y-53669500D01*
X93787544Y-53706976D01*
X93787541Y-53706976D01*
X93787541Y-53706977D01*
X93597364Y-53780651D01*
X93597357Y-53780655D01*
X93464777Y-53862745D01*
X93397416Y-53881300D01*
X93330717Y-53860492D01*
X93285856Y-53806927D01*
X93275500Y-53757318D01*
X93275500Y-53626898D01*
X93295185Y-53559859D01*
X93311819Y-53539217D01*
X93438280Y-53412756D01*
X93564972Y-53286063D01*
X93626293Y-53252580D01*
X93695984Y-53257564D01*
X93697444Y-53258119D01*
X93787544Y-53293024D01*
X93988024Y-53330500D01*
X93988026Y-53330500D01*
X94191974Y-53330500D01*
X94191976Y-53330500D01*
X94392456Y-53293024D01*
X94582637Y-53219348D01*
X94756041Y-53111981D01*
X94906764Y-52974579D01*
X95029673Y-52811821D01*
X95120582Y-52629250D01*
X95176397Y-52433083D01*
X95195215Y-52230000D01*
X95176397Y-52026917D01*
X95120582Y-51830750D01*
X95029673Y-51648179D01*
X94906764Y-51485421D01*
X94906762Y-51485418D01*
X94756041Y-51348019D01*
X94756039Y-51348017D01*
X94582642Y-51240655D01*
X94582635Y-51240651D01*
X94424658Y-51179451D01*
X94392456Y-51166976D01*
X94191976Y-51129500D01*
X93988024Y-51129500D01*
X93787544Y-51166976D01*
X93787541Y-51166976D01*
X93787541Y-51166977D01*
X93597364Y-51240651D01*
X93597357Y-51240655D01*
X93423960Y-51348017D01*
X93423958Y-51348019D01*
X93273237Y-51485418D01*
X93150327Y-51648178D01*
X93059422Y-51830739D01*
X93059417Y-51830752D01*
X93003602Y-52026917D01*
X92984785Y-52229999D01*
X92984785Y-52230000D01*
X93003602Y-52433082D01*
X93031799Y-52532182D01*
X93059417Y-52629247D01*
X93060987Y-52634763D01*
X93059012Y-52635324D01*
X93064088Y-52695862D01*
X93031357Y-52757591D01*
X93030289Y-52758671D01*
X92671108Y-53117852D01*
X92651254Y-53133976D01*
X92642165Y-53139914D01*
X92642164Y-53139915D01*
X92620363Y-53167923D01*
X92615286Y-53173674D01*
X92612484Y-53176477D01*
X92612474Y-53176488D01*
X92598905Y-53195495D01*
X92565192Y-53238808D01*
X92561447Y-53245729D01*
X92557988Y-53252804D01*
X92542329Y-53305403D01*
X92524500Y-53357338D01*
X92523206Y-53365092D01*
X92522231Y-53372911D01*
X92524500Y-53427755D01*
X92524500Y-53888383D01*
X92504815Y-53955422D01*
X92452011Y-54001177D01*
X92382853Y-54011121D01*
X92319297Y-53982096D01*
X92316962Y-53980020D01*
X92216041Y-53888019D01*
X92216039Y-53888017D01*
X92042642Y-53780655D01*
X92042635Y-53780651D01*
X91853700Y-53707458D01*
X91852456Y-53706976D01*
X91651976Y-53669500D01*
X91448024Y-53669500D01*
X91247544Y-53706976D01*
X91247541Y-53706976D01*
X91247541Y-53706977D01*
X91057364Y-53780651D01*
X91057357Y-53780655D01*
X90883960Y-53888017D01*
X90883958Y-53888019D01*
X90733237Y-54025418D01*
X90610327Y-54188178D01*
X90519422Y-54370739D01*
X90519417Y-54370752D01*
X90463602Y-54566917D01*
X90444785Y-54769999D01*
X90444785Y-54770000D01*
X90463602Y-54973082D01*
X90519417Y-55169247D01*
X90519422Y-55169260D01*
X90610327Y-55351821D01*
X90733237Y-55514581D01*
X90883958Y-55651980D01*
X90883960Y-55651982D01*
X90883962Y-55651983D01*
X91057363Y-55759348D01*
X91095293Y-55774042D01*
X91150694Y-55816612D01*
X91174286Y-55882378D01*
X91174500Y-55889668D01*
X91174500Y-57125500D01*
X91154815Y-57192539D01*
X91102011Y-57238294D01*
X91050500Y-57249500D01*
X90702130Y-57249500D01*
X90702123Y-57249501D01*
X90642516Y-57255908D01*
X90507671Y-57306202D01*
X90507664Y-57306206D01*
X90392455Y-57392452D01*
X90392452Y-57392455D01*
X90306206Y-57507664D01*
X90306202Y-57507671D01*
X90255908Y-57642517D01*
X90249501Y-57702116D01*
X90249501Y-57702123D01*
X90249500Y-57702135D01*
X90249500Y-58697870D01*
X89949996Y-58697870D01*
X89949999Y-58697844D01*
X89950000Y-58697827D01*
X89950000Y-58450000D01*
X89350000Y-58450000D01*
X88850000Y-58450000D01*
X88250000Y-58450000D01*
X80221036Y-58450000D01*
X80721036Y-57950000D01*
X88250000Y-57950000D01*
X88850000Y-57950000D01*
X88850000Y-57250000D01*
X89350000Y-57250000D01*
X89350000Y-57950000D01*
X89950000Y-57950000D01*
X89950000Y-57702172D01*
X89949999Y-57702155D01*
X89943598Y-57642627D01*
X89943596Y-57642620D01*
X89893354Y-57507913D01*
X89893350Y-57507906D01*
X89807190Y-57392812D01*
X89807187Y-57392809D01*
X89692093Y-57306649D01*
X89692086Y-57306645D01*
X89557379Y-57256403D01*
X89557372Y-57256401D01*
X89497844Y-57250000D01*
X89350000Y-57250000D01*
X88850000Y-57250000D01*
X88702155Y-57250000D01*
X88642627Y-57256401D01*
X88642620Y-57256403D01*
X88507913Y-57306645D01*
X88507906Y-57306649D01*
X88392812Y-57392809D01*
X88392809Y-57392812D01*
X88306649Y-57507906D01*
X88306645Y-57507913D01*
X88256403Y-57642620D01*
X88256401Y-57642627D01*
X88250000Y-57702155D01*
X88250000Y-57950000D01*
X80721036Y-57950000D01*
X82039218Y-56631819D01*
X82100542Y-56598334D01*
X82126900Y-56595500D01*
X84167198Y-56595500D01*
X84192643Y-56598139D01*
X84196442Y-56598935D01*
X84203270Y-56600367D01*
X84224227Y-56597754D01*
X84238494Y-56595977D01*
X84246170Y-56595500D01*
X84250114Y-56595500D01*
X84250116Y-56595500D01*
X84250118Y-56595499D01*
X84250124Y-56595499D01*
X84265489Y-56592934D01*
X84273142Y-56591657D01*
X84327628Y-56584866D01*
X84327629Y-56584865D01*
X84327631Y-56584865D01*
X84335143Y-56582628D01*
X84342608Y-56580066D01*
X84342608Y-56580065D01*
X84342612Y-56580065D01*
X84390879Y-56553944D01*
X84440213Y-56529826D01*
X84440215Y-56529823D01*
X84446596Y-56525268D01*
X84452821Y-56520422D01*
X84452828Y-56520419D01*
X84490010Y-56480028D01*
X85467382Y-55502655D01*
X85528703Y-55469172D01*
X85598394Y-55474156D01*
X85648285Y-55511337D01*
X85649375Y-55510344D01*
X85653236Y-55514580D01*
X85803958Y-55651980D01*
X85803960Y-55651982D01*
X85803962Y-55651983D01*
X85977363Y-55759348D01*
X86167544Y-55833024D01*
X86368024Y-55870500D01*
X86368026Y-55870500D01*
X86571974Y-55870500D01*
X86571976Y-55870500D01*
X86772456Y-55833024D01*
X86962637Y-55759348D01*
X87136041Y-55651981D01*
X87286764Y-55514579D01*
X87409673Y-55351821D01*
X87500582Y-55169250D01*
X87556397Y-54973083D01*
X87575215Y-54770000D01*
X87904785Y-54770000D01*
X87923602Y-54973082D01*
X87979417Y-55169247D01*
X87979422Y-55169260D01*
X88070327Y-55351821D01*
X88193237Y-55514581D01*
X88343958Y-55651980D01*
X88343960Y-55651982D01*
X88343962Y-55651983D01*
X88517363Y-55759348D01*
X88707544Y-55833024D01*
X88908024Y-55870500D01*
X88908026Y-55870500D01*
X89111974Y-55870500D01*
X89111976Y-55870500D01*
X89312456Y-55833024D01*
X89502637Y-55759348D01*
X89676041Y-55651981D01*
X89826764Y-55514579D01*
X89949673Y-55351821D01*
X90040582Y-55169250D01*
X90096397Y-54973083D01*
X90115215Y-54770000D01*
X90096397Y-54566917D01*
X90040582Y-54370750D01*
X89949673Y-54188179D01*
X89864500Y-54075391D01*
X89826762Y-54025418D01*
X89676041Y-53888019D01*
X89676039Y-53888017D01*
X89502642Y-53780655D01*
X89502635Y-53780651D01*
X89313700Y-53707458D01*
X89312456Y-53706976D01*
X89111976Y-53669500D01*
X88908024Y-53669500D01*
X88707544Y-53706976D01*
X88707541Y-53706976D01*
X88707541Y-53706977D01*
X88517364Y-53780651D01*
X88517357Y-53780655D01*
X88343960Y-53888017D01*
X88343958Y-53888019D01*
X88193237Y-54025418D01*
X88070327Y-54188178D01*
X87979422Y-54370739D01*
X87979417Y-54370752D01*
X87923602Y-54566917D01*
X87904785Y-54769999D01*
X87904785Y-54770000D01*
X87575215Y-54770000D01*
X87556397Y-54566917D01*
X87500582Y-54370750D01*
X87409673Y-54188179D01*
X87324500Y-54075391D01*
X87286762Y-54025418D01*
X87136041Y-53888019D01*
X87136039Y-53888017D01*
X86962642Y-53780655D01*
X86962635Y-53780651D01*
X86773700Y-53707458D01*
X86772456Y-53706976D01*
X86571976Y-53669500D01*
X86368024Y-53669500D01*
X86167544Y-53706976D01*
X86167541Y-53706976D01*
X86167541Y-53706977D01*
X85977364Y-53780651D01*
X85977357Y-53780655D01*
X85859776Y-53853458D01*
X85792415Y-53872013D01*
X85725716Y-53851205D01*
X85680855Y-53797640D01*
X85670499Y-53748031D01*
X85670499Y-53611898D01*
X85690184Y-53544859D01*
X85706813Y-53524222D01*
X85944972Y-53286063D01*
X86006293Y-53252580D01*
X86075985Y-53257564D01*
X86077444Y-53258119D01*
X86167544Y-53293024D01*
X86368024Y-53330500D01*
X86368026Y-53330500D01*
X86571974Y-53330500D01*
X86571976Y-53330500D01*
X86772456Y-53293024D01*
X86962637Y-53219348D01*
X87136041Y-53111981D01*
X87286764Y-52974579D01*
X87409673Y-52811821D01*
X87500582Y-52629250D01*
X87556397Y-52433083D01*
X87575215Y-52230000D01*
X87904785Y-52230000D01*
X87923602Y-52433082D01*
X87979417Y-52629247D01*
X87979422Y-52629260D01*
X88070327Y-52811821D01*
X88193237Y-52974581D01*
X88343958Y-53111980D01*
X88343960Y-53111982D01*
X88423908Y-53161483D01*
X88517363Y-53219348D01*
X88707544Y-53293024D01*
X88908024Y-53330500D01*
X88908026Y-53330500D01*
X89111974Y-53330500D01*
X89111976Y-53330500D01*
X89312456Y-53293024D01*
X89502637Y-53219348D01*
X89676041Y-53111981D01*
X89826764Y-52974579D01*
X89949673Y-52811821D01*
X90040582Y-52629250D01*
X90096397Y-52433083D01*
X90115215Y-52230000D01*
X90444785Y-52230000D01*
X90463602Y-52433082D01*
X90519417Y-52629247D01*
X90519422Y-52629260D01*
X90610327Y-52811821D01*
X90733237Y-52974581D01*
X90883958Y-53111980D01*
X90883960Y-53111982D01*
X90963908Y-53161483D01*
X91057363Y-53219348D01*
X91247544Y-53293024D01*
X91448024Y-53330500D01*
X91448026Y-53330500D01*
X91651974Y-53330500D01*
X91651976Y-53330500D01*
X91852456Y-53293024D01*
X92042637Y-53219348D01*
X92216041Y-53111981D01*
X92366764Y-52974579D01*
X92489673Y-52811821D01*
X92580582Y-52629250D01*
X92636397Y-52433083D01*
X92655215Y-52230000D01*
X92636397Y-52026917D01*
X92580582Y-51830750D01*
X92489673Y-51648179D01*
X92366764Y-51485421D01*
X92366762Y-51485418D01*
X92216041Y-51348019D01*
X92216039Y-51348017D01*
X92042642Y-51240655D01*
X92042635Y-51240651D01*
X91884658Y-51179451D01*
X91852456Y-51166976D01*
X91651976Y-51129500D01*
X91448024Y-51129500D01*
X91247544Y-51166976D01*
X91247541Y-51166976D01*
X91247541Y-51166977D01*
X91057364Y-51240651D01*
X91057357Y-51240655D01*
X90883960Y-51348017D01*
X90883958Y-51348019D01*
X90733237Y-51485418D01*
X90610327Y-51648178D01*
X90519422Y-51830739D01*
X90519417Y-51830752D01*
X90463602Y-52026917D01*
X90444785Y-52229999D01*
X90444785Y-52230000D01*
X90115215Y-52230000D01*
X90096397Y-52026917D01*
X90040582Y-51830750D01*
X89949673Y-51648179D01*
X89826764Y-51485421D01*
X89826762Y-51485418D01*
X89676041Y-51348019D01*
X89676039Y-51348017D01*
X89502642Y-51240655D01*
X89502635Y-51240651D01*
X89344658Y-51179451D01*
X89312456Y-51166976D01*
X89111976Y-51129500D01*
X88908024Y-51129500D01*
X88707544Y-51166976D01*
X88707541Y-51166976D01*
X88707541Y-51166977D01*
X88517364Y-51240651D01*
X88517357Y-51240655D01*
X88343960Y-51348017D01*
X88343958Y-51348019D01*
X88193237Y-51485418D01*
X88070327Y-51648178D01*
X87979422Y-51830739D01*
X87979417Y-51830752D01*
X87923602Y-52026917D01*
X87904785Y-52229999D01*
X87904785Y-52230000D01*
X87575215Y-52230000D01*
X87556397Y-52026917D01*
X87500582Y-51830750D01*
X87409673Y-51648179D01*
X87286764Y-51485421D01*
X87286762Y-51485418D01*
X87136041Y-51348019D01*
X87136039Y-51348017D01*
X86962642Y-51240655D01*
X86962635Y-51240651D01*
X86804658Y-51179451D01*
X86772456Y-51166976D01*
X86571976Y-51129500D01*
X86368024Y-51129500D01*
X86167544Y-51166976D01*
X86167541Y-51166976D01*
X86167541Y-51166977D01*
X85977364Y-51240651D01*
X85977357Y-51240655D01*
X85803960Y-51348017D01*
X85803958Y-51348019D01*
X85653237Y-51485418D01*
X85530327Y-51648178D01*
X85439422Y-51830739D01*
X85439417Y-51830752D01*
X85383602Y-52026917D01*
X85364785Y-52229999D01*
X85364785Y-52230000D01*
X85383602Y-52433082D01*
X85411799Y-52532182D01*
X85439417Y-52629247D01*
X85440987Y-52634763D01*
X85439012Y-52635324D01*
X85444088Y-52695862D01*
X85411357Y-52757591D01*
X85410289Y-52758671D01*
X85066107Y-53102853D01*
X85046253Y-53118977D01*
X85037164Y-53124915D01*
X85037163Y-53124916D01*
X85015362Y-53152924D01*
X85010285Y-53158675D01*
X85007483Y-53161478D01*
X85007473Y-53161489D01*
X84993904Y-53180496D01*
X84960191Y-53223809D01*
X84956446Y-53230730D01*
X84952987Y-53237805D01*
X84937328Y-53290404D01*
X84919499Y-53342339D01*
X84918205Y-53350093D01*
X84917230Y-53357912D01*
X84919499Y-53412756D01*
X84919499Y-53902056D01*
X84899814Y-53969095D01*
X84847010Y-54014850D01*
X84777852Y-54024794D01*
X84714296Y-53995769D01*
X84711961Y-53993693D01*
X84596041Y-53888019D01*
X84596039Y-53888017D01*
X84422642Y-53780655D01*
X84422635Y-53780651D01*
X84233700Y-53707458D01*
X84232456Y-53706976D01*
X84031976Y-53669500D01*
X83828024Y-53669500D01*
X83627544Y-53706976D01*
X83627541Y-53706976D01*
X83627541Y-53706977D01*
X83437364Y-53780651D01*
X83437357Y-53780655D01*
X83263960Y-53888017D01*
X83263958Y-53888019D01*
X83113237Y-54025418D01*
X82990327Y-54188178D01*
X82899422Y-54370739D01*
X82899417Y-54370752D01*
X82843602Y-54566917D01*
X82824785Y-54769999D01*
X82824785Y-54770000D01*
X82843602Y-54973082D01*
X82899417Y-55169247D01*
X82899422Y-55169260D01*
X82990327Y-55351821D01*
X83113237Y-55514581D01*
X83238599Y-55628863D01*
X83274881Y-55688574D01*
X83273120Y-55758422D01*
X83233877Y-55816229D01*
X83169610Y-55843644D01*
X83155061Y-55844500D01*
X82164939Y-55844500D01*
X82097900Y-55824815D01*
X82052145Y-55772011D01*
X82042201Y-55702853D01*
X82071226Y-55639297D01*
X82081401Y-55628863D01*
X82206762Y-55514581D01*
X82211136Y-55508789D01*
X82329673Y-55351821D01*
X82420582Y-55169250D01*
X82476397Y-54973083D01*
X82495215Y-54770000D01*
X82476397Y-54566917D01*
X82420582Y-54370750D01*
X82329673Y-54188179D01*
X82244500Y-54075391D01*
X82206762Y-54025418D01*
X82056041Y-53888019D01*
X82056039Y-53888017D01*
X81882642Y-53780655D01*
X81882635Y-53780651D01*
X81693700Y-53707458D01*
X81692456Y-53706976D01*
X81491976Y-53669500D01*
X81288024Y-53669500D01*
X81087544Y-53706976D01*
X81087541Y-53706976D01*
X81087541Y-53706977D01*
X80897364Y-53780651D01*
X80897357Y-53780655D01*
X80723960Y-53888017D01*
X80723958Y-53888019D01*
X80573237Y-54025418D01*
X80450327Y-54188178D01*
X80359422Y-54370739D01*
X80359417Y-54370752D01*
X80303602Y-54566917D01*
X80284785Y-54769999D01*
X80284785Y-54770000D01*
X80303602Y-54973082D01*
X80359417Y-55169247D01*
X80359422Y-55169260D01*
X80450327Y-55351821D01*
X80573237Y-55514581D01*
X80723958Y-55651980D01*
X80723960Y-55651982D01*
X80723962Y-55651983D01*
X80897363Y-55759348D01*
X81087544Y-55833024D01*
X81288024Y-55870500D01*
X81288026Y-55870500D01*
X81439099Y-55870500D01*
X81506138Y-55890185D01*
X81551893Y-55942989D01*
X81561837Y-56012147D01*
X81532812Y-56075703D01*
X81526780Y-56082181D01*
X78570779Y-59038181D01*
X78509456Y-59071666D01*
X78483099Y-59074500D01*
X78358482Y-59074500D01*
X78277519Y-59087323D01*
X78264696Y-59089354D01*
X78151658Y-59146950D01*
X78151657Y-59146951D01*
X78151652Y-59146954D01*
X78061954Y-59236652D01*
X78061949Y-59236659D01*
X78015483Y-59327852D01*
X77967508Y-59378648D01*
X77899687Y-59395442D01*
X77833552Y-59372904D01*
X77794516Y-59327852D01*
X77748050Y-59236658D01*
X77748047Y-59236655D01*
X77748045Y-59236652D01*
X77658347Y-59146954D01*
X77658344Y-59146952D01*
X77658342Y-59146950D01*
X77581517Y-59107805D01*
X77545301Y-59089352D01*
X77451524Y-59074500D01*
X77451519Y-59074500D01*
X77449500Y-59074500D01*
X77448758Y-59074282D01*
X77446669Y-59074118D01*
X77446703Y-59073678D01*
X77382461Y-59054815D01*
X77336706Y-59002011D01*
X77325500Y-58950500D01*
X77325500Y-55461803D01*
X77328139Y-55436358D01*
X77328326Y-55435468D01*
X77330367Y-55425732D01*
X77327556Y-55403177D01*
X77325977Y-55390507D01*
X77325500Y-55382831D01*
X77325500Y-55378889D01*
X77325498Y-55378876D01*
X77321657Y-55355859D01*
X77314866Y-55301378D01*
X77314866Y-55301374D01*
X77314862Y-55301367D01*
X77313827Y-55297888D01*
X77313807Y-55292885D01*
X77313595Y-55291178D01*
X77313801Y-55291152D01*
X77313560Y-55228019D01*
X77321665Y-55207238D01*
X77340582Y-55169250D01*
X77396397Y-54973083D01*
X77415215Y-54770000D01*
X77744785Y-54770000D01*
X77763602Y-54973082D01*
X77819417Y-55169247D01*
X77819422Y-55169260D01*
X77910327Y-55351821D01*
X78033237Y-55514581D01*
X78183958Y-55651980D01*
X78183960Y-55651982D01*
X78183962Y-55651983D01*
X78357363Y-55759348D01*
X78547544Y-55833024D01*
X78748024Y-55870500D01*
X78748026Y-55870500D01*
X78951974Y-55870500D01*
X78951976Y-55870500D01*
X79152456Y-55833024D01*
X79342637Y-55759348D01*
X79516041Y-55651981D01*
X79666764Y-55514579D01*
X79789673Y-55351821D01*
X79880582Y-55169250D01*
X79936397Y-54973083D01*
X79955215Y-54770000D01*
X79936397Y-54566917D01*
X79880582Y-54370750D01*
X79789673Y-54188179D01*
X79704500Y-54075391D01*
X79666762Y-54025418D01*
X79516041Y-53888019D01*
X79516039Y-53888017D01*
X79342642Y-53780655D01*
X79342635Y-53780651D01*
X79153700Y-53707458D01*
X79152456Y-53706976D01*
X78951976Y-53669500D01*
X78748024Y-53669500D01*
X78547544Y-53706976D01*
X78547541Y-53706976D01*
X78547541Y-53706977D01*
X78357364Y-53780651D01*
X78357357Y-53780655D01*
X78183960Y-53888017D01*
X78183958Y-53888019D01*
X78033237Y-54025418D01*
X77910327Y-54188178D01*
X77819422Y-54370739D01*
X77819417Y-54370752D01*
X77763602Y-54566917D01*
X77744785Y-54769999D01*
X77744785Y-54770000D01*
X77415215Y-54770000D01*
X77396397Y-54566917D01*
X77340582Y-54370750D01*
X77249673Y-54188179D01*
X77164500Y-54075391D01*
X77126762Y-54025418D01*
X76976041Y-53888019D01*
X76976039Y-53888017D01*
X76802642Y-53780655D01*
X76802635Y-53780651D01*
X76613700Y-53707458D01*
X76612456Y-53706976D01*
X76411976Y-53669500D01*
X76208024Y-53669500D01*
X76007544Y-53706976D01*
X76007541Y-53706976D01*
X76007541Y-53706977D01*
X75817364Y-53780651D01*
X75817357Y-53780655D01*
X75643960Y-53888017D01*
X75643958Y-53888019D01*
X75493237Y-54025418D01*
X75370327Y-54188178D01*
X75279422Y-54370739D01*
X75279417Y-54370752D01*
X75223602Y-54566917D01*
X75204785Y-54769999D01*
X75204785Y-54770000D01*
X75223602Y-54973082D01*
X75279417Y-55169247D01*
X75279422Y-55169260D01*
X75370327Y-55351821D01*
X75493237Y-55514581D01*
X75643958Y-55651980D01*
X75643960Y-55651982D01*
X75643962Y-55651983D01*
X75817363Y-55759348D01*
X76007544Y-55833024D01*
X76208024Y-55870500D01*
X76208026Y-55870500D01*
X76411975Y-55870500D01*
X76411976Y-55870500D01*
X76427713Y-55867558D01*
X76497227Y-55874587D01*
X76551907Y-55918083D01*
X76574391Y-55984237D01*
X76574500Y-55989446D01*
X76574500Y-57864387D01*
X76554815Y-57931426D01*
X76502011Y-57977181D01*
X76432853Y-57987125D01*
X76379836Y-57962913D01*
X76378412Y-57964977D01*
X76372238Y-57960715D01*
X76232365Y-57887303D01*
X76078986Y-57849500D01*
X76078985Y-57849500D01*
X75921015Y-57849500D01*
X75921014Y-57849500D01*
X75767634Y-57887303D01*
X75627762Y-57960715D01*
X75509516Y-58065471D01*
X75419781Y-58195475D01*
X75419780Y-58195476D01*
X75363762Y-58343181D01*
X75352596Y-58435150D01*
X75324974Y-58499328D01*
X75320956Y-58502036D01*
X75348477Y-58544860D01*
X75352596Y-58564849D01*
X75363762Y-58656818D01*
X75401940Y-58757483D01*
X75419780Y-58804523D01*
X75437952Y-58830850D01*
X75509517Y-58934531D01*
X75577711Y-58994944D01*
X75614838Y-59054133D01*
X75614072Y-59123999D01*
X75583166Y-59175441D01*
X75521954Y-59236652D01*
X75521949Y-59236659D01*
X75475483Y-59327852D01*
X75427508Y-59378648D01*
X75359687Y-59395442D01*
X75293552Y-59372904D01*
X75254516Y-59327852D01*
X75208050Y-59236658D01*
X75208047Y-59236655D01*
X75208045Y-59236652D01*
X75141819Y-59170426D01*
X75108334Y-59109103D01*
X75105500Y-59082745D01*
X75105500Y-58579795D01*
X75125185Y-58512756D01*
X75137102Y-58502429D01*
X75107179Y-58440543D01*
X75105500Y-58420204D01*
X75105500Y-55781804D01*
X75108139Y-55756359D01*
X75108785Y-55753275D01*
X75110367Y-55745732D01*
X75107386Y-55721815D01*
X75105977Y-55710506D01*
X75105500Y-55702830D01*
X75105500Y-55698889D01*
X75105498Y-55698876D01*
X75101657Y-55675859D01*
X75094866Y-55621376D01*
X75094866Y-55621374D01*
X75094864Y-55621370D01*
X75092622Y-55613840D01*
X75090065Y-55606392D01*
X75090065Y-55606390D01*
X75063944Y-55558122D01*
X75039826Y-55508789D01*
X75039824Y-55508787D01*
X75039824Y-55508786D01*
X75035276Y-55502416D01*
X75030420Y-55496176D01*
X75030419Y-55496174D01*
X74990029Y-55458992D01*
X74829707Y-55298670D01*
X74796224Y-55237349D01*
X74800666Y-55175234D01*
X74799013Y-55174764D01*
X74800583Y-55169247D01*
X74856397Y-54973083D01*
X74875215Y-54770000D01*
X74856397Y-54566917D01*
X74800582Y-54370750D01*
X74709673Y-54188179D01*
X74624500Y-54075391D01*
X74586762Y-54025418D01*
X74436041Y-53888019D01*
X74436039Y-53888017D01*
X74262642Y-53780655D01*
X74262635Y-53780651D01*
X74073700Y-53707458D01*
X74072456Y-53706976D01*
X73871976Y-53669500D01*
X73668024Y-53669500D01*
X73467544Y-53706976D01*
X73467541Y-53706976D01*
X73467541Y-53706977D01*
X73277364Y-53780651D01*
X73277357Y-53780655D01*
X73103960Y-53888017D01*
X73103958Y-53888019D01*
X72953237Y-54025418D01*
X72830327Y-54188178D01*
X72739422Y-54370739D01*
X72739417Y-54370752D01*
X72683602Y-54566917D01*
X72664785Y-54769999D01*
X72664785Y-54770000D01*
X72683602Y-54973082D01*
X72739417Y-55169247D01*
X72739422Y-55169260D01*
X72830327Y-55351821D01*
X72953237Y-55514581D01*
X73103958Y-55651980D01*
X73103960Y-55651982D01*
X73103962Y-55651983D01*
X73277363Y-55759348D01*
X73467544Y-55833024D01*
X73668024Y-55870500D01*
X73668026Y-55870500D01*
X73871974Y-55870500D01*
X73871976Y-55870500D01*
X74072456Y-55833024D01*
X74162556Y-55798118D01*
X74232174Y-55792256D01*
X74293914Y-55824965D01*
X74295027Y-55826064D01*
X74318181Y-55849218D01*
X74351666Y-55910541D01*
X74354500Y-55936899D01*
X74354500Y-59082745D01*
X74334815Y-59149784D01*
X74318181Y-59170426D01*
X74251954Y-59236652D01*
X74251949Y-59236659D01*
X74205483Y-59327852D01*
X74157508Y-59378648D01*
X74089687Y-59395442D01*
X74023552Y-59372904D01*
X73984516Y-59327852D01*
X73938050Y-59236658D01*
X73938047Y-59236655D01*
X73938045Y-59236652D01*
X73848347Y-59146954D01*
X73848344Y-59146952D01*
X73848342Y-59146950D01*
X73771517Y-59107805D01*
X73735301Y-59089352D01*
X73641524Y-59074500D01*
X73423497Y-59074500D01*
X73356458Y-59054815D01*
X73310703Y-59002011D01*
X73300759Y-58932853D01*
X73329784Y-58869297D01*
X73349183Y-58851235D01*
X73407546Y-58807546D01*
X73493796Y-58692331D01*
X73544091Y-58557483D01*
X73550500Y-58497873D01*
X73550499Y-57502128D01*
X73544091Y-57442517D01*
X73525552Y-57392812D01*
X73493797Y-57307671D01*
X73493793Y-57307664D01*
X73407547Y-57192455D01*
X73407544Y-57192452D01*
X73292335Y-57106206D01*
X73292328Y-57106202D01*
X73157482Y-57055908D01*
X73157483Y-57055908D01*
X73097883Y-57049501D01*
X73097881Y-57049500D01*
X73097873Y-57049500D01*
X73097864Y-57049500D01*
X72302129Y-57049500D01*
X72302123Y-57049501D01*
X72242516Y-57055908D01*
X72107671Y-57106202D01*
X72107664Y-57106206D01*
X71992455Y-57192452D01*
X71992452Y-57192455D01*
X71906206Y-57307664D01*
X71906202Y-57307671D01*
X71855908Y-57442517D01*
X71852058Y-57478334D01*
X71849501Y-57502123D01*
X71849500Y-57502135D01*
X71849500Y-58344661D01*
X71844345Y-58380044D01*
X71832329Y-58420403D01*
X71814500Y-58472338D01*
X71813206Y-58480092D01*
X71812231Y-58487911D01*
X71814500Y-58542755D01*
X71814500Y-59082745D01*
X71794815Y-59149784D01*
X71778181Y-59170426D01*
X71711954Y-59236652D01*
X71711949Y-59236659D01*
X71665203Y-59328401D01*
X71617228Y-59379197D01*
X71549407Y-59395991D01*
X71483272Y-59373453D01*
X71444234Y-59328400D01*
X71397639Y-59236954D01*
X71397636Y-59236949D01*
X71308050Y-59147363D01*
X71308045Y-59147360D01*
X71264843Y-59125347D01*
X71214047Y-59077372D01*
X71197252Y-59009551D01*
X71219790Y-58943416D01*
X71274505Y-58899965D01*
X71277810Y-58898678D01*
X71292089Y-58893352D01*
X71292093Y-58893350D01*
X71407187Y-58807190D01*
X71407190Y-58807187D01*
X71493350Y-58692093D01*
X71493354Y-58692086D01*
X71543596Y-58557379D01*
X71543598Y-58557372D01*
X71549999Y-58497844D01*
X71550000Y-58497827D01*
X71550000Y-58250000D01*
X69850000Y-58250000D01*
X69850000Y-58497844D01*
X68867490Y-58497844D01*
X68868596Y-58494879D01*
X68868598Y-58494872D01*
X68874999Y-58435344D01*
X68875000Y-58435327D01*
X68875000Y-58300000D01*
X68150000Y-58300000D01*
X67650000Y-58300000D01*
X66925000Y-58300000D01*
X66175499Y-58300000D01*
X66175499Y-57800000D01*
X66925000Y-57800000D01*
X67650000Y-57800000D01*
X67650000Y-57212500D01*
X68150000Y-57212500D01*
X68150000Y-57800000D01*
X68875000Y-57800000D01*
X68875000Y-57750000D01*
X69850000Y-57750000D01*
X70450000Y-57750000D01*
X70450000Y-57050000D01*
X70950000Y-57050000D01*
X70950000Y-57750000D01*
X71550000Y-57750000D01*
X71550000Y-57502172D01*
X71549999Y-57502155D01*
X71543598Y-57442627D01*
X71543596Y-57442620D01*
X71493354Y-57307913D01*
X71493350Y-57307906D01*
X71407190Y-57192812D01*
X71407187Y-57192809D01*
X71292093Y-57106649D01*
X71292086Y-57106645D01*
X71157379Y-57056403D01*
X71157372Y-57056401D01*
X71097844Y-57050000D01*
X70950000Y-57050000D01*
X70450000Y-57050000D01*
X70302155Y-57050000D01*
X70242627Y-57056401D01*
X70242620Y-57056403D01*
X70107913Y-57106645D01*
X70107906Y-57106649D01*
X69992812Y-57192809D01*
X69992809Y-57192812D01*
X69906649Y-57307906D01*
X69906645Y-57307913D01*
X69856403Y-57442620D01*
X69856401Y-57442627D01*
X69850000Y-57502155D01*
X69850000Y-57750000D01*
X68875000Y-57750000D01*
X68875000Y-57664672D01*
X68874999Y-57664655D01*
X68868598Y-57605127D01*
X68868596Y-57605120D01*
X68818354Y-57470413D01*
X68818350Y-57470406D01*
X68732190Y-57355312D01*
X68732187Y-57355309D01*
X68617093Y-57269149D01*
X68617086Y-57269145D01*
X68482379Y-57218903D01*
X68482372Y-57218901D01*
X68422844Y-57212500D01*
X68150000Y-57212500D01*
X67650000Y-57212500D01*
X67377155Y-57212500D01*
X67317627Y-57218901D01*
X67317620Y-57218903D01*
X67182913Y-57269145D01*
X67182906Y-57269149D01*
X67067812Y-57355309D01*
X67067809Y-57355312D01*
X66981649Y-57470406D01*
X66981645Y-57470413D01*
X66931403Y-57605120D01*
X66931401Y-57605127D01*
X66925000Y-57664655D01*
X66925000Y-57800000D01*
X66175499Y-57800000D01*
X66175499Y-55987760D01*
X66195184Y-55920725D01*
X66247988Y-55874970D01*
X66276708Y-55865876D01*
X66452456Y-55833024D01*
X66642637Y-55759348D01*
X66816041Y-55651981D01*
X66966764Y-55514579D01*
X67089673Y-55351821D01*
X67180582Y-55169250D01*
X67236397Y-54973083D01*
X67255215Y-54770000D01*
X67236397Y-54566917D01*
X67223048Y-54519999D01*
X67617471Y-54519999D01*
X67617472Y-54520000D01*
X68256314Y-54520000D01*
X68230507Y-54560156D01*
X68190000Y-54698111D01*
X68190000Y-54841889D01*
X68230507Y-54979844D01*
X68256314Y-55020000D01*
X67617472Y-55020000D01*
X67659885Y-55169065D01*
X67659890Y-55169078D01*
X67750754Y-55351556D01*
X67873608Y-55514242D01*
X68024260Y-55651578D01*
X68197584Y-55758897D01*
X68387678Y-55832539D01*
X68440000Y-55842320D01*
X68440000Y-55205501D01*
X68547685Y-55254680D01*
X68654237Y-55270000D01*
X68725763Y-55270000D01*
X68832315Y-55254680D01*
X68940000Y-55205501D01*
X68940000Y-55842320D01*
X68992321Y-55832539D01*
X69182415Y-55758897D01*
X69355739Y-55651578D01*
X69506391Y-55514242D01*
X69629245Y-55351556D01*
X69720109Y-55169078D01*
X69720114Y-55169065D01*
X69762528Y-55020000D01*
X69123686Y-55020000D01*
X69149493Y-54979844D01*
X69190000Y-54841889D01*
X69190000Y-54770000D01*
X70124785Y-54770000D01*
X70143602Y-54973082D01*
X70199417Y-55169247D01*
X70199422Y-55169260D01*
X70290327Y-55351821D01*
X70413237Y-55514581D01*
X70563958Y-55651980D01*
X70563960Y-55651982D01*
X70563962Y-55651983D01*
X70737363Y-55759348D01*
X70927544Y-55833024D01*
X71128024Y-55870500D01*
X71128026Y-55870500D01*
X71331974Y-55870500D01*
X71331976Y-55870500D01*
X71532456Y-55833024D01*
X71722637Y-55759348D01*
X71896041Y-55651981D01*
X72046764Y-55514579D01*
X72169673Y-55351821D01*
X72260582Y-55169250D01*
X72316397Y-54973083D01*
X72335215Y-54770000D01*
X72316397Y-54566917D01*
X72260582Y-54370750D01*
X72169673Y-54188179D01*
X72084500Y-54075391D01*
X72046762Y-54025418D01*
X71896041Y-53888019D01*
X71896039Y-53888017D01*
X71722642Y-53780655D01*
X71722635Y-53780651D01*
X71533700Y-53707458D01*
X71532456Y-53706976D01*
X71331976Y-53669500D01*
X71128024Y-53669500D01*
X70927544Y-53706976D01*
X70927541Y-53706976D01*
X70927541Y-53706977D01*
X70737364Y-53780651D01*
X70737357Y-53780655D01*
X70563960Y-53888017D01*
X70563958Y-53888019D01*
X70413237Y-54025418D01*
X70290327Y-54188178D01*
X70199422Y-54370739D01*
X70199417Y-54370752D01*
X70143602Y-54566917D01*
X70124785Y-54769999D01*
X70124785Y-54770000D01*
X69190000Y-54770000D01*
X69190000Y-54698111D01*
X69149493Y-54560156D01*
X69123686Y-54520000D01*
X69762528Y-54520000D01*
X69762528Y-54519999D01*
X69720114Y-54370934D01*
X69720109Y-54370921D01*
X69629245Y-54188443D01*
X69506391Y-54025757D01*
X69355739Y-53888421D01*
X69182413Y-53781101D01*
X68992315Y-53707458D01*
X68992309Y-53707456D01*
X68940001Y-53697677D01*
X68940000Y-53697679D01*
X68940000Y-54334498D01*
X68832315Y-54285320D01*
X68725763Y-54270000D01*
X68654237Y-54270000D01*
X68547685Y-54285320D01*
X68440000Y-54334498D01*
X68440000Y-53697679D01*
X68439998Y-53697677D01*
X68387690Y-53707456D01*
X68387684Y-53707458D01*
X68197586Y-53781101D01*
X68024260Y-53888421D01*
X67873608Y-54025757D01*
X67750754Y-54188443D01*
X67659890Y-54370921D01*
X67659885Y-54370934D01*
X67617471Y-54519999D01*
X67223048Y-54519999D01*
X67180582Y-54370750D01*
X67089673Y-54188179D01*
X67004500Y-54075391D01*
X66966762Y-54025418D01*
X66816041Y-53888019D01*
X66816039Y-53888017D01*
X66642642Y-53780655D01*
X66642635Y-53780651D01*
X66453700Y-53707458D01*
X66452456Y-53706976D01*
X66251976Y-53669500D01*
X66048024Y-53669500D01*
X65999723Y-53678528D01*
X65902284Y-53696743D01*
X65832769Y-53689712D01*
X65778091Y-53646214D01*
X65755609Y-53580060D01*
X65755500Y-53574854D01*
X65755500Y-53425145D01*
X65775185Y-53358106D01*
X65827989Y-53312351D01*
X65897147Y-53302407D01*
X65902247Y-53303249D01*
X66048024Y-53330500D01*
X66048026Y-53330500D01*
X66251974Y-53330500D01*
X66251976Y-53330500D01*
X66452456Y-53293024D01*
X66642637Y-53219348D01*
X66816041Y-53111981D01*
X66966764Y-52974579D01*
X67089673Y-52811821D01*
X67180582Y-52629250D01*
X67236397Y-52433083D01*
X67255215Y-52230000D01*
X67584785Y-52230000D01*
X67603602Y-52433082D01*
X67659417Y-52629247D01*
X67659422Y-52629260D01*
X67750327Y-52811821D01*
X67873237Y-52974581D01*
X68023958Y-53111980D01*
X68023960Y-53111982D01*
X68103908Y-53161483D01*
X68197363Y-53219348D01*
X68387544Y-53293024D01*
X68588024Y-53330500D01*
X68588026Y-53330500D01*
X68791974Y-53330500D01*
X68791976Y-53330500D01*
X68992456Y-53293024D01*
X69182637Y-53219348D01*
X69356041Y-53111981D01*
X69506764Y-52974579D01*
X69629673Y-52811821D01*
X69720582Y-52629250D01*
X69776397Y-52433083D01*
X69795215Y-52230000D01*
X70124785Y-52230000D01*
X70143602Y-52433082D01*
X70199417Y-52629247D01*
X70199422Y-52629260D01*
X70290327Y-52811821D01*
X70413237Y-52974581D01*
X70563958Y-53111980D01*
X70563960Y-53111982D01*
X70643908Y-53161483D01*
X70737363Y-53219348D01*
X70927544Y-53293024D01*
X71128024Y-53330500D01*
X71128026Y-53330500D01*
X71331974Y-53330500D01*
X71331976Y-53330500D01*
X71532456Y-53293024D01*
X71722637Y-53219348D01*
X71896041Y-53111981D01*
X72046764Y-52974579D01*
X72169673Y-52811821D01*
X72260582Y-52629250D01*
X72316397Y-52433083D01*
X72335215Y-52230000D01*
X72664785Y-52230000D01*
X72683602Y-52433082D01*
X72739417Y-52629247D01*
X72739422Y-52629260D01*
X72830327Y-52811821D01*
X72953237Y-52974581D01*
X73103958Y-53111980D01*
X73103960Y-53111982D01*
X73183908Y-53161483D01*
X73277363Y-53219348D01*
X73467544Y-53293024D01*
X73668024Y-53330500D01*
X73668026Y-53330500D01*
X73871974Y-53330500D01*
X73871976Y-53330500D01*
X74072456Y-53293024D01*
X74262637Y-53219348D01*
X74436041Y-53111981D01*
X74586764Y-52974579D01*
X74709673Y-52811821D01*
X74800582Y-52629250D01*
X74856397Y-52433083D01*
X74875215Y-52230000D01*
X75204785Y-52230000D01*
X75223602Y-52433082D01*
X75279417Y-52629247D01*
X75279422Y-52629260D01*
X75370327Y-52811821D01*
X75493237Y-52974581D01*
X75643958Y-53111980D01*
X75643960Y-53111982D01*
X75723908Y-53161483D01*
X75817363Y-53219348D01*
X76007544Y-53293024D01*
X76208024Y-53330500D01*
X76208026Y-53330500D01*
X76411974Y-53330500D01*
X76411976Y-53330500D01*
X76612456Y-53293024D01*
X76802637Y-53219348D01*
X76976041Y-53111981D01*
X77126764Y-52974579D01*
X77249673Y-52811821D01*
X77340582Y-52629250D01*
X77396397Y-52433083D01*
X77415215Y-52230000D01*
X77744785Y-52230000D01*
X77763602Y-52433082D01*
X77819417Y-52629247D01*
X77819422Y-52629260D01*
X77910327Y-52811821D01*
X78033237Y-52974581D01*
X78183958Y-53111980D01*
X78183960Y-53111982D01*
X78263908Y-53161483D01*
X78357363Y-53219348D01*
X78547544Y-53293024D01*
X78748024Y-53330500D01*
X78748026Y-53330500D01*
X78951974Y-53330500D01*
X78951976Y-53330500D01*
X79152456Y-53293024D01*
X79342637Y-53219348D01*
X79516041Y-53111981D01*
X79666764Y-52974579D01*
X79789673Y-52811821D01*
X79880582Y-52629250D01*
X79936397Y-52433083D01*
X79955215Y-52230000D01*
X80284785Y-52230000D01*
X80303602Y-52433082D01*
X80359417Y-52629247D01*
X80359422Y-52629260D01*
X80450327Y-52811821D01*
X80573237Y-52974581D01*
X80723958Y-53111980D01*
X80723960Y-53111982D01*
X80803908Y-53161483D01*
X80897363Y-53219348D01*
X81087544Y-53293024D01*
X81288024Y-53330500D01*
X81288026Y-53330500D01*
X81491974Y-53330500D01*
X81491976Y-53330500D01*
X81692456Y-53293024D01*
X81882637Y-53219348D01*
X82056041Y-53111981D01*
X82206764Y-52974579D01*
X82329673Y-52811821D01*
X82420582Y-52629250D01*
X82476397Y-52433083D01*
X82495215Y-52230000D01*
X82824785Y-52230000D01*
X82843602Y-52433082D01*
X82899417Y-52629247D01*
X82899422Y-52629260D01*
X82990327Y-52811821D01*
X83113237Y-52974581D01*
X83263958Y-53111980D01*
X83263960Y-53111982D01*
X83343908Y-53161483D01*
X83437363Y-53219348D01*
X83627544Y-53293024D01*
X83828024Y-53330500D01*
X83828026Y-53330500D01*
X84031974Y-53330500D01*
X84031976Y-53330500D01*
X84232456Y-53293024D01*
X84422637Y-53219348D01*
X84596041Y-53111981D01*
X84746764Y-52974579D01*
X84869673Y-52811821D01*
X84960582Y-52629250D01*
X85016397Y-52433083D01*
X85035215Y-52230000D01*
X85016397Y-52026917D01*
X84960582Y-51830750D01*
X84869673Y-51648179D01*
X84746764Y-51485421D01*
X84746762Y-51485418D01*
X84596041Y-51348019D01*
X84596039Y-51348017D01*
X84422642Y-51240655D01*
X84422635Y-51240651D01*
X84264658Y-51179451D01*
X84232456Y-51166976D01*
X84031976Y-51129500D01*
X83828024Y-51129500D01*
X83627544Y-51166976D01*
X83627541Y-51166976D01*
X83627541Y-51166977D01*
X83437364Y-51240651D01*
X83437357Y-51240655D01*
X83263960Y-51348017D01*
X83263958Y-51348019D01*
X83113237Y-51485418D01*
X82990327Y-51648178D01*
X82899422Y-51830739D01*
X82899417Y-51830752D01*
X82843602Y-52026917D01*
X82824785Y-52229999D01*
X82824785Y-52230000D01*
X82495215Y-52230000D01*
X82476397Y-52026917D01*
X82420582Y-51830750D01*
X82329673Y-51648179D01*
X82206764Y-51485421D01*
X82206762Y-51485418D01*
X82056041Y-51348019D01*
X82056039Y-51348017D01*
X81882642Y-51240655D01*
X81882635Y-51240651D01*
X81724658Y-51179451D01*
X81692456Y-51166976D01*
X81491976Y-51129500D01*
X81288024Y-51129500D01*
X81087544Y-51166976D01*
X81087541Y-51166976D01*
X81087541Y-51166977D01*
X80897364Y-51240651D01*
X80897357Y-51240655D01*
X80723960Y-51348017D01*
X80723958Y-51348019D01*
X80573237Y-51485418D01*
X80450327Y-51648178D01*
X80359422Y-51830739D01*
X80359417Y-51830752D01*
X80303602Y-52026917D01*
X80284785Y-52229999D01*
X80284785Y-52230000D01*
X79955215Y-52230000D01*
X79936397Y-52026917D01*
X79880582Y-51830750D01*
X79789673Y-51648179D01*
X79666764Y-51485421D01*
X79666762Y-51485418D01*
X79516041Y-51348019D01*
X79516039Y-51348017D01*
X79342642Y-51240655D01*
X79342635Y-51240651D01*
X79184658Y-51179451D01*
X79152456Y-51166976D01*
X78951976Y-51129500D01*
X78748024Y-51129500D01*
X78547544Y-51166976D01*
X78547541Y-51166976D01*
X78547541Y-51166977D01*
X78357364Y-51240651D01*
X78357357Y-51240655D01*
X78183960Y-51348017D01*
X78183958Y-51348019D01*
X78033237Y-51485418D01*
X77910327Y-51648178D01*
X77819422Y-51830739D01*
X77819417Y-51830752D01*
X77763602Y-52026917D01*
X77744785Y-52229999D01*
X77744785Y-52230000D01*
X77415215Y-52230000D01*
X77396397Y-52026917D01*
X77340582Y-51830750D01*
X77249673Y-51648179D01*
X77126764Y-51485421D01*
X77126762Y-51485418D01*
X76976041Y-51348019D01*
X76976039Y-51348017D01*
X76802642Y-51240655D01*
X76802635Y-51240651D01*
X76644658Y-51179451D01*
X76612456Y-51166976D01*
X76411976Y-51129500D01*
X76208024Y-51129500D01*
X76007544Y-51166976D01*
X76007541Y-51166976D01*
X76007541Y-51166977D01*
X75817364Y-51240651D01*
X75817357Y-51240655D01*
X75643960Y-51348017D01*
X75643958Y-51348019D01*
X75493237Y-51485418D01*
X75370327Y-51648178D01*
X75279422Y-51830739D01*
X75279417Y-51830752D01*
X75223602Y-52026917D01*
X75204785Y-52229999D01*
X75204785Y-52230000D01*
X74875215Y-52230000D01*
X74856397Y-52026917D01*
X74800582Y-51830750D01*
X74709673Y-51648179D01*
X74586764Y-51485421D01*
X74586762Y-51485418D01*
X74436041Y-51348019D01*
X74436039Y-51348017D01*
X74262642Y-51240655D01*
X74262635Y-51240651D01*
X74104658Y-51179451D01*
X74072456Y-51166976D01*
X73871976Y-51129500D01*
X73668024Y-51129500D01*
X73467544Y-51166976D01*
X73467541Y-51166976D01*
X73467541Y-51166977D01*
X73277364Y-51240651D01*
X73277357Y-51240655D01*
X73103960Y-51348017D01*
X73103958Y-51348019D01*
X72953237Y-51485418D01*
X72830327Y-51648178D01*
X72739422Y-51830739D01*
X72739417Y-51830752D01*
X72683602Y-52026917D01*
X72664785Y-52229999D01*
X72664785Y-52230000D01*
X72335215Y-52230000D01*
X72316397Y-52026917D01*
X72260582Y-51830750D01*
X72169673Y-51648179D01*
X72046764Y-51485421D01*
X72046762Y-51485418D01*
X71896041Y-51348019D01*
X71896039Y-51348017D01*
X71722642Y-51240655D01*
X71722635Y-51240651D01*
X71564658Y-51179451D01*
X71532456Y-51166976D01*
X71331976Y-51129500D01*
X71128024Y-51129500D01*
X70927544Y-51166976D01*
X70927541Y-51166976D01*
X70927541Y-51166977D01*
X70737364Y-51240651D01*
X70737357Y-51240655D01*
X70563960Y-51348017D01*
X70563958Y-51348019D01*
X70413237Y-51485418D01*
X70290327Y-51648178D01*
X70199422Y-51830739D01*
X70199417Y-51830752D01*
X70143602Y-52026917D01*
X70124785Y-52229999D01*
X70124785Y-52230000D01*
X69795215Y-52230000D01*
X69776397Y-52026917D01*
X69720582Y-51830750D01*
X69629673Y-51648179D01*
X69506764Y-51485421D01*
X69506762Y-51485418D01*
X69356041Y-51348019D01*
X69356039Y-51348017D01*
X69182642Y-51240655D01*
X69182635Y-51240651D01*
X69024658Y-51179451D01*
X68992456Y-51166976D01*
X68791976Y-51129500D01*
X68588024Y-51129500D01*
X68387544Y-51166976D01*
X68387541Y-51166976D01*
X68387541Y-51166977D01*
X68197364Y-51240651D01*
X68197357Y-51240655D01*
X68023960Y-51348017D01*
X68023958Y-51348019D01*
X67873237Y-51485418D01*
X67750327Y-51648178D01*
X67659422Y-51830739D01*
X67659417Y-51830752D01*
X67603602Y-52026917D01*
X67584785Y-52229999D01*
X67584785Y-52230000D01*
X67255215Y-52230000D01*
X67236397Y-52026917D01*
X67180582Y-51830750D01*
X67089673Y-51648179D01*
X66966764Y-51485421D01*
X66966762Y-51485418D01*
X66816041Y-51348019D01*
X66816039Y-51348017D01*
X66642642Y-51240655D01*
X66642635Y-51240651D01*
X66484658Y-51179451D01*
X66452456Y-51166976D01*
X66251976Y-51129500D01*
X66048024Y-51129500D01*
X66011746Y-51136281D01*
X65902283Y-51156743D01*
X65832768Y-51149711D01*
X65778090Y-51106214D01*
X65755608Y-51040060D01*
X65755499Y-51034854D01*
X65755500Y-50199500D01*
X65775185Y-50132460D01*
X65827989Y-50086706D01*
X65879500Y-50075500D01*
X100678499Y-50075500D01*
X100745538Y-50095185D01*
G37*
%TD.AperFunction*%
%TD*%
%TA.AperFunction,Conductor*%
%TO.N,+5V*%
G36*
X71067539Y-71019685D02*
G01*
X71113294Y-71072489D01*
X71124500Y-71124000D01*
X71124500Y-73948196D01*
X71121862Y-73973634D01*
X71119633Y-73984268D01*
X71119633Y-73984269D01*
X71119633Y-73984271D01*
X71124023Y-74019491D01*
X71124500Y-74027167D01*
X71124500Y-74031116D01*
X71128342Y-74054141D01*
X71135134Y-74108627D01*
X71137373Y-74116147D01*
X71139934Y-74123608D01*
X71139935Y-74123610D01*
X71156150Y-74153574D01*
X71166055Y-74171877D01*
X71190174Y-74221211D01*
X71194742Y-74227609D01*
X71199582Y-74233827D01*
X71239971Y-74271009D01*
X71638181Y-74669218D01*
X71671666Y-74730541D01*
X71674500Y-74756899D01*
X71674500Y-77298196D01*
X71671862Y-77323634D01*
X71669633Y-77334268D01*
X71669633Y-77334269D01*
X71669633Y-77334271D01*
X71674023Y-77369491D01*
X71674500Y-77377167D01*
X71674500Y-77381116D01*
X71678342Y-77404141D01*
X71685134Y-77458627D01*
X71687373Y-77466147D01*
X71689934Y-77473608D01*
X71689935Y-77473610D01*
X71705141Y-77501709D01*
X71716055Y-77521877D01*
X71740174Y-77571211D01*
X71744742Y-77577609D01*
X71749581Y-77583826D01*
X71789970Y-77621007D01*
X72053201Y-77884239D01*
X72113181Y-77944219D01*
X72146666Y-78005542D01*
X72149500Y-78031899D01*
X72149500Y-78186517D01*
X72156782Y-78232494D01*
X72164354Y-78280304D01*
X72221950Y-78393342D01*
X72221952Y-78393344D01*
X72221954Y-78393347D01*
X72311652Y-78483045D01*
X72311654Y-78483046D01*
X72311658Y-78483050D01*
X72405718Y-78530976D01*
X72424698Y-78540647D01*
X72518475Y-78555499D01*
X72518481Y-78555500D01*
X74231518Y-78555499D01*
X74325304Y-78540646D01*
X74438342Y-78483050D01*
X74528050Y-78393342D01*
X74585646Y-78280304D01*
X74585646Y-78280302D01*
X74585647Y-78280301D01*
X74600499Y-78186524D01*
X74600500Y-78186519D01*
X74600499Y-77823482D01*
X74585646Y-77729696D01*
X74528050Y-77616658D01*
X74528046Y-77616654D01*
X74528045Y-77616652D01*
X74458951Y-77547558D01*
X74425466Y-77486235D01*
X74430450Y-77416543D01*
X74472322Y-77360610D01*
X74537786Y-77336193D01*
X74576302Y-77339479D01*
X74621015Y-77350500D01*
X74621017Y-77350500D01*
X74778985Y-77350500D01*
X74932365Y-77312696D01*
X74984182Y-77285500D01*
X75072240Y-77239283D01*
X75190483Y-77134530D01*
X75280220Y-77004523D01*
X75297290Y-76959510D01*
X75339467Y-76903809D01*
X75405064Y-76879751D01*
X75473255Y-76894977D01*
X75495454Y-76910663D01*
X75527760Y-76939283D01*
X75527762Y-76939284D01*
X75667634Y-77012696D01*
X75821014Y-77050500D01*
X75821015Y-77050500D01*
X75978985Y-77050500D01*
X76132365Y-77012696D01*
X76132365Y-77012695D01*
X76272240Y-76939283D01*
X76390483Y-76834530D01*
X76480220Y-76704523D01*
X76536237Y-76556818D01*
X76555278Y-76400000D01*
X76548638Y-76345317D01*
X76560098Y-76276395D01*
X76607002Y-76224608D01*
X76612312Y-76221536D01*
X76617323Y-76218798D01*
X76617331Y-76218796D01*
X76732546Y-76132546D01*
X76818796Y-76017331D01*
X76869091Y-75882483D01*
X76875500Y-75822873D01*
X76875499Y-75052128D01*
X76869091Y-74992517D01*
X76869090Y-74992515D01*
X76818797Y-74857671D01*
X76818793Y-74857664D01*
X76732547Y-74742455D01*
X76732544Y-74742452D01*
X76617335Y-74656206D01*
X76617328Y-74656202D01*
X76482482Y-74605908D01*
X76482483Y-74605908D01*
X76422883Y-74599501D01*
X76422881Y-74599500D01*
X76422873Y-74599500D01*
X76422864Y-74599500D01*
X75377129Y-74599500D01*
X75377123Y-74599501D01*
X75317516Y-74605908D01*
X75182671Y-74656202D01*
X75182664Y-74656206D01*
X75067455Y-74742452D01*
X75067452Y-74742455D01*
X74981206Y-74857664D01*
X74981202Y-74857671D01*
X74930909Y-74992515D01*
X74930555Y-74994015D01*
X74929960Y-74995058D01*
X74928198Y-74999785D01*
X74927432Y-74999499D01*
X74895981Y-75054731D01*
X74834070Y-75087117D01*
X74809878Y-75089500D01*
X74592254Y-75089500D01*
X74525215Y-75069815D01*
X74504577Y-75053185D01*
X74438342Y-74986950D01*
X74385093Y-74959818D01*
X74347147Y-74940483D01*
X74296352Y-74892509D01*
X74279557Y-74824687D01*
X74302095Y-74758553D01*
X74347145Y-74719517D01*
X74438342Y-74673050D01*
X74528050Y-74583342D01*
X74585646Y-74470304D01*
X74585646Y-74470302D01*
X74585647Y-74470301D01*
X74597497Y-74395477D01*
X74600500Y-74376519D01*
X74600499Y-74013482D01*
X74585646Y-73919696D01*
X74528050Y-73806658D01*
X74528046Y-73806654D01*
X74528045Y-73806652D01*
X74469263Y-73747870D01*
X74924500Y-73747870D01*
X74924501Y-73747876D01*
X74930908Y-73807483D01*
X74981202Y-73942328D01*
X74981206Y-73942335D01*
X75067452Y-74057544D01*
X75067455Y-74057547D01*
X75182664Y-74143793D01*
X75182671Y-74143797D01*
X75317517Y-74194091D01*
X75317516Y-74194091D01*
X75324444Y-74194835D01*
X75377127Y-74200500D01*
X76422872Y-74200499D01*
X76482483Y-74194091D01*
X76617331Y-74143796D01*
X76732546Y-74057546D01*
X76818796Y-73942331D01*
X76869091Y-73807483D01*
X76875500Y-73747873D01*
X76875499Y-72977128D01*
X76869091Y-72917517D01*
X76857822Y-72887304D01*
X76818797Y-72782671D01*
X76818793Y-72782664D01*
X76732547Y-72667455D01*
X76732544Y-72667452D01*
X76617333Y-72581204D01*
X76612305Y-72578459D01*
X76562901Y-72529053D01*
X76548050Y-72460780D01*
X76548638Y-72454681D01*
X76549267Y-72449500D01*
X76555278Y-72400000D01*
X76536237Y-72243182D01*
X76480220Y-72095477D01*
X76390483Y-71965470D01*
X76272240Y-71860717D01*
X76272238Y-71860716D01*
X76272237Y-71860715D01*
X76132365Y-71787303D01*
X75978986Y-71749500D01*
X75978985Y-71749500D01*
X75821015Y-71749500D01*
X75821014Y-71749500D01*
X75667634Y-71787303D01*
X75527762Y-71860715D01*
X75409516Y-71965471D01*
X75319781Y-72095475D01*
X75319780Y-72095476D01*
X75263762Y-72243181D01*
X75244722Y-72399999D01*
X75244722Y-72400000D01*
X75251361Y-72454683D01*
X75239900Y-72523606D01*
X75192996Y-72575392D01*
X75187704Y-72578454D01*
X75182673Y-72581201D01*
X75182668Y-72581204D01*
X75182669Y-72581204D01*
X75067454Y-72667454D01*
X75067453Y-72667455D01*
X75067452Y-72667456D01*
X74981206Y-72782664D01*
X74981202Y-72782671D01*
X74930910Y-72917513D01*
X74930909Y-72917517D01*
X74924500Y-72977127D01*
X74924500Y-72977134D01*
X74924500Y-72977135D01*
X74924500Y-73747870D01*
X74469263Y-73747870D01*
X74438347Y-73716954D01*
X74438344Y-73716952D01*
X74438342Y-73716950D01*
X74361517Y-73677805D01*
X74325301Y-73659352D01*
X74231524Y-73644500D01*
X74231519Y-73644500D01*
X72689500Y-73644500D01*
X72622461Y-73624815D01*
X72576706Y-73572011D01*
X72565500Y-73520500D01*
X72565500Y-71124000D01*
X72585185Y-71056961D01*
X72637989Y-71011206D01*
X72689500Y-71000000D01*
X77876000Y-71000000D01*
X77943039Y-71019685D01*
X77988794Y-71072489D01*
X78000000Y-71124000D01*
X78000000Y-79800500D01*
X77980315Y-79867539D01*
X77927511Y-79913294D01*
X77876000Y-79924500D01*
X44321501Y-79924500D01*
X44254462Y-79904815D01*
X44208707Y-79852011D01*
X44198763Y-79782853D01*
X44227788Y-79719297D01*
X44286566Y-79681523D01*
X44287760Y-79681179D01*
X44565170Y-79602735D01*
X44565176Y-79602732D01*
X44565181Y-79602731D01*
X44872454Y-79477927D01*
X44900032Y-79466726D01*
X45217899Y-79294705D01*
X45514913Y-79088760D01*
X45787469Y-78851391D01*
X46032258Y-78585480D01*
X46246309Y-78294253D01*
X46427023Y-77981247D01*
X46572207Y-77650260D01*
X46594931Y-77577609D01*
X46649187Y-77404140D01*
X46674041Y-77324678D01*
X48849500Y-77324678D01*
X48864032Y-77397735D01*
X48864033Y-77397739D01*
X48878651Y-77419616D01*
X48919399Y-77480601D01*
X48990817Y-77528320D01*
X49002260Y-77535966D01*
X49002264Y-77535967D01*
X49075321Y-77550499D01*
X49075324Y-77550500D01*
X49075326Y-77550500D01*
X51324676Y-77550500D01*
X51324677Y-77550499D01*
X51397740Y-77535966D01*
X51480601Y-77480601D01*
X51535966Y-77397740D01*
X51550500Y-77324674D01*
X51550500Y-77219758D01*
X51570185Y-77152719D01*
X51622989Y-77106964D01*
X51692147Y-77097020D01*
X51755703Y-77126045D01*
X51762181Y-77132077D01*
X51868599Y-77238495D01*
X51935728Y-77285499D01*
X52062165Y-77374032D01*
X52062167Y-77374033D01*
X52062170Y-77374035D01*
X52276337Y-77473903D01*
X52276343Y-77473904D01*
X52276344Y-77473905D01*
X52305716Y-77481775D01*
X52504592Y-77535063D01*
X52681034Y-77550500D01*
X52739999Y-77555659D01*
X52740000Y-77555659D01*
X52740001Y-77555659D01*
X52798966Y-77550500D01*
X52975408Y-77535063D01*
X53203663Y-77473903D01*
X53417830Y-77374035D01*
X53611401Y-77238495D01*
X53778495Y-77071401D01*
X53908424Y-76885842D01*
X53963002Y-76842217D01*
X54032500Y-76835023D01*
X54094855Y-76866546D01*
X54111575Y-76885842D01*
X54241500Y-77071395D01*
X54241505Y-77071401D01*
X54408599Y-77238495D01*
X54475728Y-77285499D01*
X54602165Y-77374032D01*
X54602167Y-77374033D01*
X54602170Y-77374035D01*
X54816337Y-77473903D01*
X54816343Y-77473904D01*
X54816344Y-77473905D01*
X54845716Y-77481775D01*
X55044592Y-77535063D01*
X55221034Y-77550500D01*
X55279999Y-77555659D01*
X55280000Y-77555659D01*
X55280001Y-77555659D01*
X55338966Y-77550500D01*
X55515408Y-77535063D01*
X55743663Y-77473903D01*
X55957830Y-77374035D01*
X56151401Y-77238495D01*
X56318495Y-77071401D01*
X56448424Y-76885842D01*
X56503002Y-76842217D01*
X56572500Y-76835023D01*
X56634855Y-76866546D01*
X56651575Y-76885842D01*
X56781500Y-77071395D01*
X56781505Y-77071401D01*
X56948599Y-77238495D01*
X57015728Y-77285499D01*
X57142165Y-77374032D01*
X57142167Y-77374033D01*
X57142170Y-77374035D01*
X57356337Y-77473903D01*
X57356343Y-77473904D01*
X57356344Y-77473905D01*
X57385716Y-77481775D01*
X57584592Y-77535063D01*
X57761034Y-77550500D01*
X57819999Y-77555659D01*
X57820000Y-77555659D01*
X57820001Y-77555659D01*
X57878966Y-77550500D01*
X58055408Y-77535063D01*
X58283663Y-77473903D01*
X58388096Y-77425204D01*
X58457172Y-77414713D01*
X58520956Y-77443233D01*
X58559196Y-77501709D01*
X58564500Y-77537587D01*
X58564500Y-78413276D01*
X58561861Y-78438720D01*
X58559957Y-78447799D01*
X58559957Y-78447805D01*
X58564023Y-78480425D01*
X58564500Y-78488102D01*
X58564500Y-78491526D01*
X58568087Y-78513029D01*
X58574427Y-78563881D01*
X58576520Y-78570914D01*
X58578908Y-78577869D01*
X58603295Y-78622932D01*
X58625801Y-78668971D01*
X58630065Y-78674943D01*
X58634580Y-78680744D01*
X58672275Y-78715446D01*
X59144874Y-79188044D01*
X59161001Y-79207902D01*
X59166075Y-79215669D01*
X59166077Y-79215671D01*
X59192017Y-79235860D01*
X59197780Y-79240950D01*
X59200205Y-79243375D01*
X59200207Y-79243377D01*
X59217072Y-79255418D01*
X59217949Y-79256044D01*
X59258386Y-79287517D01*
X59258390Y-79287518D01*
X59264826Y-79291000D01*
X59264851Y-79291013D01*
X59264883Y-79291030D01*
X59271442Y-79294237D01*
X59271445Y-79294239D01*
X59320549Y-79308858D01*
X59369024Y-79325500D01*
X59369026Y-79325500D01*
X59376266Y-79326708D01*
X59383558Y-79327617D01*
X59434743Y-79325500D01*
X69723277Y-79325500D01*
X69748722Y-79328138D01*
X69757803Y-79330043D01*
X69773493Y-79328087D01*
X69790427Y-79325977D01*
X69798103Y-79325500D01*
X69801523Y-79325500D01*
X69801528Y-79325500D01*
X69805096Y-79324904D01*
X69823027Y-79321913D01*
X69850446Y-79318494D01*
X69873881Y-79315573D01*
X69873890Y-79315568D01*
X69880939Y-79313470D01*
X69887865Y-79311092D01*
X69887869Y-79311092D01*
X69932932Y-79286704D01*
X69978972Y-79264198D01*
X69978975Y-79264194D01*
X69984941Y-79259935D01*
X69990742Y-79255419D01*
X69990746Y-79255418D01*
X70025445Y-79217724D01*
X70488046Y-78755122D01*
X70507902Y-78738999D01*
X70515669Y-78733925D01*
X70535873Y-78707965D01*
X70540941Y-78702227D01*
X70543375Y-78699795D01*
X70556040Y-78682055D01*
X70566223Y-78668971D01*
X70587517Y-78641614D01*
X70587520Y-78641604D01*
X70591006Y-78635163D01*
X70594235Y-78628558D01*
X70594239Y-78628554D01*
X70608856Y-78579454D01*
X70625500Y-78530976D01*
X70625500Y-78530970D01*
X70626692Y-78523830D01*
X70626701Y-78523760D01*
X70626714Y-78523679D01*
X70627617Y-78516440D01*
X70625500Y-78465258D01*
X70625500Y-76476718D01*
X70628139Y-76451272D01*
X70628461Y-76449735D01*
X70630042Y-76442197D01*
X70627782Y-76424073D01*
X70625977Y-76409580D01*
X70625500Y-76401903D01*
X70625500Y-76398475D01*
X70625498Y-76398462D01*
X70621910Y-76376961D01*
X70617966Y-76345318D01*
X70615573Y-76326119D01*
X70615572Y-76326116D01*
X70613518Y-76319216D01*
X70613475Y-76319091D01*
X70613437Y-76318965D01*
X70611092Y-76312130D01*
X70586704Y-76267067D01*
X70564199Y-76221030D01*
X70559919Y-76215036D01*
X70555419Y-76209255D01*
X70517724Y-76174553D01*
X70055125Y-75711955D01*
X70038999Y-75692098D01*
X70033925Y-75684331D01*
X70007975Y-75664133D01*
X70002229Y-75659059D01*
X69999795Y-75656625D01*
X69999794Y-75656624D01*
X69999793Y-75656623D01*
X69993336Y-75652013D01*
X69982049Y-75643955D01*
X69941614Y-75612483D01*
X69941610Y-75612481D01*
X69935136Y-75608977D01*
X69928557Y-75605760D01*
X69879442Y-75591138D01*
X69830974Y-75574498D01*
X69823757Y-75573294D01*
X69816439Y-75572382D01*
X69779622Y-75573905D01*
X69711827Y-75557007D01*
X69663929Y-75506139D01*
X69650499Y-75450013D01*
X69650499Y-75283482D01*
X69635646Y-75189696D01*
X69578050Y-75076658D01*
X69578046Y-75076654D01*
X69578045Y-75076652D01*
X69488347Y-74986954D01*
X69488343Y-74986951D01*
X69488342Y-74986950D01*
X69435093Y-74959818D01*
X69397147Y-74940483D01*
X69346352Y-74892509D01*
X69329557Y-74824687D01*
X69352095Y-74758553D01*
X69397145Y-74719517D01*
X69488342Y-74673050D01*
X69578050Y-74583342D01*
X69635646Y-74470304D01*
X69635646Y-74470302D01*
X69635647Y-74470301D01*
X69647497Y-74395477D01*
X69650500Y-74376519D01*
X69650499Y-74013482D01*
X69635646Y-73919696D01*
X69578050Y-73806658D01*
X69578046Y-73806654D01*
X69578045Y-73806652D01*
X69488347Y-73716954D01*
X69488344Y-73716952D01*
X69488342Y-73716950D01*
X69411517Y-73677805D01*
X69375301Y-73659352D01*
X69281524Y-73644500D01*
X69281519Y-73644500D01*
X68777700Y-73644500D01*
X68710661Y-73624815D01*
X68664906Y-73572011D01*
X68654604Y-73505557D01*
X68655278Y-73500004D01*
X68655278Y-73500000D01*
X68650501Y-73460660D01*
X68636237Y-73343182D01*
X68580220Y-73195477D01*
X68490483Y-73065470D01*
X68372240Y-72960717D01*
X68372238Y-72960716D01*
X68372237Y-72960715D01*
X68232365Y-72887303D01*
X68078986Y-72849500D01*
X68078985Y-72849500D01*
X67921015Y-72849500D01*
X67921014Y-72849500D01*
X67767634Y-72887303D01*
X67627762Y-72960715D01*
X67509516Y-73065471D01*
X67419781Y-73195475D01*
X67419780Y-73195476D01*
X67363762Y-73343181D01*
X67344722Y-73499999D01*
X67344722Y-73500000D01*
X67362768Y-73648627D01*
X67351307Y-73717550D01*
X67327353Y-73751254D01*
X67271954Y-73806652D01*
X67271951Y-73806657D01*
X67271950Y-73806658D01*
X67252751Y-73844337D01*
X67214352Y-73919698D01*
X67199500Y-74013475D01*
X67199500Y-74086535D01*
X67179815Y-74153574D01*
X67127011Y-74199329D01*
X67057853Y-74209273D01*
X66994297Y-74180248D01*
X66993332Y-74179403D01*
X66972240Y-74160717D01*
X66972237Y-74160714D01*
X66832365Y-74087303D01*
X66678986Y-74049500D01*
X66678985Y-74049500D01*
X66521015Y-74049500D01*
X66521014Y-74049500D01*
X66367634Y-74087303D01*
X66227762Y-74160715D01*
X66109516Y-74265471D01*
X66019781Y-74395475D01*
X66019780Y-74395476D01*
X65963762Y-74543181D01*
X65944721Y-74699999D01*
X65944722Y-74700004D01*
X65946003Y-74710557D01*
X65934541Y-74779480D01*
X65887635Y-74831265D01*
X65822909Y-74849500D01*
X65752130Y-74849500D01*
X65752123Y-74849501D01*
X65692516Y-74855908D01*
X65557671Y-74906202D01*
X65557664Y-74906206D01*
X65442455Y-74992452D01*
X65442452Y-74992455D01*
X65356206Y-75107664D01*
X65356202Y-75107671D01*
X65305908Y-75242517D01*
X65299501Y-75302116D01*
X65299500Y-75302135D01*
X65299500Y-76097870D01*
X65299501Y-76097876D01*
X65305908Y-76157483D01*
X65356202Y-76292328D01*
X65356206Y-76292335D01*
X65442452Y-76407544D01*
X65442455Y-76407547D01*
X65557664Y-76493793D01*
X65557671Y-76493797D01*
X65692517Y-76544091D01*
X65692516Y-76544091D01*
X65699444Y-76544835D01*
X65752127Y-76550500D01*
X66747872Y-76550499D01*
X66807483Y-76544091D01*
X66942331Y-76493796D01*
X67001189Y-76449734D01*
X67066652Y-76425317D01*
X67134925Y-76440168D01*
X67184331Y-76489573D01*
X67199500Y-76549001D01*
X67199500Y-76850999D01*
X67179815Y-76918038D01*
X67127011Y-76963793D01*
X67057853Y-76973737D01*
X67001189Y-76950265D01*
X66942331Y-76906204D01*
X66942328Y-76906202D01*
X66807482Y-76855908D01*
X66807483Y-76855908D01*
X66747883Y-76849501D01*
X66747881Y-76849500D01*
X66747873Y-76849500D01*
X66747864Y-76849500D01*
X65752129Y-76849500D01*
X65752123Y-76849501D01*
X65692516Y-76855908D01*
X65557671Y-76906202D01*
X65557664Y-76906206D01*
X65442455Y-76992452D01*
X65442452Y-76992455D01*
X65356206Y-77107664D01*
X65356202Y-77107671D01*
X65305908Y-77242517D01*
X65299501Y-77302116D01*
X65299500Y-77302135D01*
X65299500Y-78097870D01*
X65299501Y-78097872D01*
X65303733Y-78137246D01*
X65291328Y-78206005D01*
X65243717Y-78257142D01*
X65180444Y-78274500D01*
X62799342Y-78274500D01*
X62732303Y-78254815D01*
X62686548Y-78202011D01*
X62676123Y-78164399D01*
X62675537Y-78159208D01*
X62675537Y-78159202D01*
X62642900Y-78016299D01*
X62579284Y-77884239D01*
X62487880Y-77769644D01*
X62487107Y-77769028D01*
X62464097Y-77750680D01*
X62420087Y-77715589D01*
X62379944Y-77658404D01*
X62377089Y-77588593D01*
X62412430Y-77528320D01*
X62474746Y-77496723D01*
X62529486Y-77498861D01*
X62664592Y-77535063D01*
X62841034Y-77550500D01*
X62899999Y-77555659D01*
X62900000Y-77555659D01*
X62900001Y-77555659D01*
X62958966Y-77550500D01*
X63135408Y-77535063D01*
X63363663Y-77473903D01*
X63577830Y-77374035D01*
X63771401Y-77238495D01*
X63938495Y-77071401D01*
X64074035Y-76877830D01*
X64173903Y-76663663D01*
X64235063Y-76435408D01*
X64255659Y-76200000D01*
X64255602Y-76199354D01*
X64246724Y-76097872D01*
X64235063Y-75964592D01*
X64173903Y-75736337D01*
X64074035Y-75522171D01*
X64073024Y-75520726D01*
X63938494Y-75328597D01*
X63771402Y-75161506D01*
X63771395Y-75161501D01*
X63577834Y-75025967D01*
X63577830Y-75025965D01*
X63544500Y-75010423D01*
X63363663Y-74926097D01*
X63363659Y-74926096D01*
X63363655Y-74926094D01*
X63135413Y-74864938D01*
X63135403Y-74864936D01*
X62900001Y-74844341D01*
X62899999Y-74844341D01*
X62664596Y-74864936D01*
X62664586Y-74864938D01*
X62436344Y-74926094D01*
X62436335Y-74926098D01*
X62222171Y-75025964D01*
X62222169Y-75025965D01*
X62028597Y-75161505D01*
X61861505Y-75328597D01*
X61731575Y-75514158D01*
X61676998Y-75557783D01*
X61607500Y-75564977D01*
X61545145Y-75533454D01*
X61528425Y-75514158D01*
X61398494Y-75328597D01*
X61231402Y-75161506D01*
X61231395Y-75161501D01*
X61037834Y-75025967D01*
X61037830Y-75025965D01*
X61004500Y-75010423D01*
X60823663Y-74926097D01*
X60823659Y-74926096D01*
X60823655Y-74926094D01*
X60595413Y-74864938D01*
X60595403Y-74864936D01*
X60360001Y-74844341D01*
X60359999Y-74844341D01*
X60124596Y-74864936D01*
X60124586Y-74864938D01*
X59896344Y-74926094D01*
X59896339Y-74926096D01*
X59791903Y-74974795D01*
X59722825Y-74985286D01*
X59659042Y-74956766D01*
X59620802Y-74898289D01*
X59615500Y-74862417D01*
X59615500Y-74766716D01*
X59618139Y-74741272D01*
X59620042Y-74732197D01*
X59617345Y-74710557D01*
X59615977Y-74699580D01*
X59615500Y-74691903D01*
X59615500Y-74688475D01*
X59615498Y-74688462D01*
X59611910Y-74666961D01*
X59610569Y-74656202D01*
X59605573Y-74616119D01*
X59605572Y-74616116D01*
X59603518Y-74609216D01*
X59603475Y-74609091D01*
X59603437Y-74608965D01*
X59601092Y-74602130D01*
X59576704Y-74557067D01*
X59554199Y-74511030D01*
X59549919Y-74505036D01*
X59545419Y-74499255D01*
X59507724Y-74464553D01*
X59055125Y-74011955D01*
X59038999Y-73992098D01*
X59033925Y-73984331D01*
X59007975Y-73964133D01*
X59002229Y-73959059D01*
X58999795Y-73956625D01*
X58999794Y-73956624D01*
X58999793Y-73956623D01*
X58993336Y-73952013D01*
X58982049Y-73943955D01*
X58941614Y-73912483D01*
X58941610Y-73912481D01*
X58935136Y-73908977D01*
X58928557Y-73905760D01*
X58879442Y-73891138D01*
X58830974Y-73874498D01*
X58823757Y-73873294D01*
X58816441Y-73872382D01*
X58767213Y-73874419D01*
X58765257Y-73874500D01*
X54276723Y-73874500D01*
X54251277Y-73871861D01*
X54242197Y-73869957D01*
X54242196Y-73869957D01*
X54242194Y-73869957D01*
X54209573Y-73874023D01*
X54201897Y-73874500D01*
X54198472Y-73874500D01*
X54176969Y-73878087D01*
X54126120Y-73884426D01*
X54119082Y-73886521D01*
X54112134Y-73888906D01*
X54067067Y-73913295D01*
X54021024Y-73935803D01*
X54015078Y-73940048D01*
X54009254Y-73944581D01*
X53974554Y-73982275D01*
X53621955Y-74334873D01*
X53602106Y-74350994D01*
X53594331Y-74356074D01*
X53574143Y-74382010D01*
X53569067Y-74387760D01*
X53566634Y-74390193D01*
X53566623Y-74390206D01*
X53553954Y-74407950D01*
X53522483Y-74448384D01*
X53518975Y-74454865D01*
X53515760Y-74461444D01*
X53501138Y-74510557D01*
X53484498Y-74559028D01*
X53483294Y-74566245D01*
X53482382Y-74573558D01*
X53484500Y-74624742D01*
X53484500Y-74862412D01*
X53464815Y-74929451D01*
X53412011Y-74975206D01*
X53342853Y-74985150D01*
X53308096Y-74974794D01*
X53203669Y-74926099D01*
X53203655Y-74926094D01*
X52975413Y-74864938D01*
X52975403Y-74864936D01*
X52740001Y-74844341D01*
X52739999Y-74844341D01*
X52504596Y-74864936D01*
X52504586Y-74864938D01*
X52276344Y-74926094D01*
X52276335Y-74926098D01*
X52062171Y-75025964D01*
X52062169Y-75025965D01*
X51868597Y-75161505D01*
X51762181Y-75267922D01*
X51700858Y-75301407D01*
X51631166Y-75296423D01*
X51575233Y-75254551D01*
X51550816Y-75189087D01*
X51550500Y-75180241D01*
X51550500Y-75075323D01*
X51550499Y-75075321D01*
X51535967Y-75002264D01*
X51535966Y-75002260D01*
X51529414Y-74992454D01*
X51480601Y-74919399D01*
X51399093Y-74864938D01*
X51397739Y-74864033D01*
X51397735Y-74864032D01*
X51324677Y-74849500D01*
X51324674Y-74849500D01*
X49075326Y-74849500D01*
X49075323Y-74849500D01*
X49002264Y-74864032D01*
X49002260Y-74864033D01*
X48919399Y-74919399D01*
X48864033Y-75002260D01*
X48864032Y-75002264D01*
X48849500Y-75075321D01*
X48849500Y-77324678D01*
X46674041Y-77324678D01*
X46680099Y-77305310D01*
X46749389Y-76950586D01*
X46750326Y-76939284D01*
X46772470Y-76672032D01*
X46779235Y-76590391D01*
X46769276Y-76229100D01*
X46719633Y-75871097D01*
X46630907Y-75520728D01*
X46628447Y-75514158D01*
X46504180Y-75182253D01*
X46504178Y-75182250D01*
X46504177Y-75182246D01*
X46340980Y-74859760D01*
X46143297Y-74557184D01*
X45951813Y-74324678D01*
X46449500Y-74324678D01*
X46464032Y-74397735D01*
X46464033Y-74397739D01*
X46464034Y-74397740D01*
X46519399Y-74480601D01*
X46602259Y-74535965D01*
X46602260Y-74535966D01*
X46602264Y-74535967D01*
X46675321Y-74550499D01*
X46675324Y-74550500D01*
X46675326Y-74550500D01*
X46728857Y-74550500D01*
X46795896Y-74570185D01*
X46841651Y-74622989D01*
X46851953Y-74659554D01*
X46863762Y-74756818D01*
X46904767Y-74864937D01*
X46919780Y-74904523D01*
X47009517Y-75034530D01*
X47127760Y-75139283D01*
X47127762Y-75139284D01*
X47267634Y-75212696D01*
X47421014Y-75250500D01*
X47421015Y-75250500D01*
X47578985Y-75250500D01*
X47732365Y-75212696D01*
X47776187Y-75189696D01*
X47872240Y-75139283D01*
X47990483Y-75034530D01*
X48080220Y-74904523D01*
X48136237Y-74756818D01*
X48155278Y-74600000D01*
X48155218Y-74599501D01*
X48136237Y-74443181D01*
X48091293Y-74324674D01*
X48080220Y-74295477D01*
X47990483Y-74165470D01*
X47990479Y-74165466D01*
X47985509Y-74159856D01*
X47986953Y-74158576D01*
X47955145Y-74107860D01*
X47950500Y-74074240D01*
X47950500Y-73275323D01*
X47950499Y-73275321D01*
X47935967Y-73202264D01*
X47935966Y-73202260D01*
X47931432Y-73195475D01*
X47880601Y-73119399D01*
X47799891Y-73065471D01*
X47797739Y-73064033D01*
X47797735Y-73064032D01*
X47724677Y-73049500D01*
X47724674Y-73049500D01*
X46675326Y-73049500D01*
X46675323Y-73049500D01*
X46602264Y-73064032D01*
X46602260Y-73064033D01*
X46519399Y-73119399D01*
X46464033Y-73202260D01*
X46464032Y-73202264D01*
X46449500Y-73275321D01*
X46449500Y-74324678D01*
X45951813Y-74324678D01*
X45913528Y-74278191D01*
X45906145Y-74271009D01*
X45654460Y-74026165D01*
X45369246Y-73804173D01*
X45369244Y-73804172D01*
X45061333Y-73614901D01*
X45061329Y-73614899D01*
X44734489Y-73460660D01*
X44734485Y-73460658D01*
X44734476Y-73460654D01*
X44734470Y-73460652D01*
X44734468Y-73460651D01*
X44392638Y-73343300D01*
X44392633Y-73343299D01*
X44392630Y-73343298D01*
X44039949Y-73264260D01*
X44039945Y-73264259D01*
X44039943Y-73264259D01*
X43680714Y-73224500D01*
X43409717Y-73224500D01*
X43409714Y-73224500D01*
X43139120Y-73239429D01*
X42782619Y-73298919D01*
X42782615Y-73298920D01*
X42434831Y-73397264D01*
X42434818Y-73397268D01*
X42099968Y-73533273D01*
X42099962Y-73533276D01*
X41782108Y-73705290D01*
X41782107Y-73705291D01*
X41782102Y-73705294D01*
X41782101Y-73705295D01*
X41720695Y-73747873D01*
X41485081Y-73911244D01*
X41212530Y-74148609D01*
X40967740Y-74414522D01*
X40753691Y-74705747D01*
X40753690Y-74705748D01*
X40572977Y-75018752D01*
X40427792Y-75349741D01*
X40427791Y-75349742D01*
X40319898Y-75694694D01*
X40319705Y-75695460D01*
X40319608Y-75695623D01*
X40318880Y-75697952D01*
X40318333Y-75697781D01*
X40284165Y-75755616D01*
X40221745Y-75787007D01*
X40152261Y-75779669D01*
X40097776Y-75735929D01*
X40075587Y-75669676D01*
X40075500Y-75665019D01*
X40075500Y-71879500D01*
X40095185Y-71812461D01*
X40147989Y-71766706D01*
X40199500Y-71755500D01*
X46333976Y-71755500D01*
X46401015Y-71775185D01*
X46446770Y-71827989D01*
X46455593Y-71855308D01*
X46464032Y-71897736D01*
X46464033Y-71897739D01*
X46464034Y-71897740D01*
X46519399Y-71980601D01*
X46602259Y-72035965D01*
X46602260Y-72035966D01*
X46602264Y-72035967D01*
X46675321Y-72050499D01*
X46675324Y-72050500D01*
X46675326Y-72050500D01*
X47724676Y-72050500D01*
X47724677Y-72050499D01*
X47797740Y-72035966D01*
X47880601Y-71980601D01*
X47935966Y-71897740D01*
X47935967Y-71897736D01*
X47944407Y-71855308D01*
X47976792Y-71793397D01*
X48037508Y-71758823D01*
X48066024Y-71755500D01*
X51376000Y-71755500D01*
X51430313Y-71749661D01*
X51450001Y-71745378D01*
X51481817Y-71738457D01*
X51481817Y-71738456D01*
X51481824Y-71738455D01*
X51508198Y-71731219D01*
X51541897Y-71712028D01*
X51609893Y-71695960D01*
X51660734Y-71709907D01*
X51690476Y-71725465D01*
X51690477Y-71725465D01*
X51690477Y-71725466D01*
X51734718Y-71738456D01*
X51757515Y-71745150D01*
X51757519Y-71745150D01*
X51757521Y-71745151D01*
X51769152Y-71746823D01*
X51829500Y-71755500D01*
X51829501Y-71755500D01*
X58876000Y-71755500D01*
X58930313Y-71749661D01*
X58950001Y-71745378D01*
X58981817Y-71738457D01*
X58981817Y-71738456D01*
X58981824Y-71738455D01*
X59008198Y-71731219D01*
X59041897Y-71712028D01*
X59109893Y-71695960D01*
X59160734Y-71709907D01*
X59190476Y-71725465D01*
X59190477Y-71725465D01*
X59190477Y-71725466D01*
X59234718Y-71738456D01*
X59257515Y-71745150D01*
X59257519Y-71745150D01*
X59257521Y-71745151D01*
X59269152Y-71746823D01*
X59329500Y-71755500D01*
X59329501Y-71755500D01*
X62820500Y-71755500D01*
X62874813Y-71749661D01*
X62894501Y-71745378D01*
X62926317Y-71738457D01*
X62926317Y-71738456D01*
X62926324Y-71738455D01*
X62952698Y-71731219D01*
X62981574Y-71714775D01*
X63039318Y-71681894D01*
X63039321Y-71681891D01*
X63039328Y-71681888D01*
X63092132Y-71636133D01*
X63123757Y-71603359D01*
X63169965Y-71515024D01*
X63171970Y-71508198D01*
X63179714Y-71481824D01*
X63189650Y-71447985D01*
X63200000Y-71376000D01*
X63200000Y-71500000D01*
X65500000Y-71500000D01*
X65500000Y-71000000D01*
X71000500Y-71000000D01*
X71067539Y-71019685D01*
G37*
%TD.AperFunction*%
%TD*%
M02*
