%TF.GenerationSoftware,KiCad,Pcbnew,7.0.6*%
%TF.CreationDate,2023-08-14T14:17:20+01:00*%
%TF.ProjectId,canhat,63616e68-6174-42e6-9b69-6361645f7063,8*%
%TF.SameCoordinates,Original*%
%TF.FileFunction,OtherDrawing,Comment*%
%FSLAX46Y46*%
G04 Gerber Fmt 4.6, Leading zero omitted, Abs format (unit mm)*
G04 Created by KiCad (PCBNEW 7.0.6) date 2023-08-14 14:17:20*
%MOMM*%
%LPD*%
G01*
G04 APERTURE LIST*
%ADD10C,0.150000*%
%ADD11C,0.300000*%
G04 APERTURE END LIST*
D10*
X107454819Y-80190475D02*
X107454819Y-79571428D01*
X107454819Y-79571428D02*
X107835771Y-79904761D01*
X107835771Y-79904761D02*
X107835771Y-79761904D01*
X107835771Y-79761904D02*
X107883390Y-79666666D01*
X107883390Y-79666666D02*
X107931009Y-79619047D01*
X107931009Y-79619047D02*
X108026247Y-79571428D01*
X108026247Y-79571428D02*
X108264342Y-79571428D01*
X108264342Y-79571428D02*
X108359580Y-79619047D01*
X108359580Y-79619047D02*
X108407200Y-79666666D01*
X108407200Y-79666666D02*
X108454819Y-79761904D01*
X108454819Y-79761904D02*
X108454819Y-80047618D01*
X108454819Y-80047618D02*
X108407200Y-80142856D01*
X108407200Y-80142856D02*
X108359580Y-80190475D01*
X108359580Y-79142856D02*
X108407200Y-79095237D01*
X108407200Y-79095237D02*
X108454819Y-79142856D01*
X108454819Y-79142856D02*
X108407200Y-79190475D01*
X108407200Y-79190475D02*
X108359580Y-79142856D01*
X108359580Y-79142856D02*
X108454819Y-79142856D01*
X107454819Y-78190476D02*
X107454819Y-78666666D01*
X107454819Y-78666666D02*
X107931009Y-78714285D01*
X107931009Y-78714285D02*
X107883390Y-78666666D01*
X107883390Y-78666666D02*
X107835771Y-78571428D01*
X107835771Y-78571428D02*
X107835771Y-78333333D01*
X107835771Y-78333333D02*
X107883390Y-78238095D01*
X107883390Y-78238095D02*
X107931009Y-78190476D01*
X107931009Y-78190476D02*
X108026247Y-78142857D01*
X108026247Y-78142857D02*
X108264342Y-78142857D01*
X108264342Y-78142857D02*
X108359580Y-78190476D01*
X108359580Y-78190476D02*
X108407200Y-78238095D01*
X108407200Y-78238095D02*
X108454819Y-78333333D01*
X108454819Y-78333333D02*
X108454819Y-78571428D01*
X108454819Y-78571428D02*
X108407200Y-78666666D01*
X108407200Y-78666666D02*
X108359580Y-78714285D01*
X107454819Y-77523809D02*
X107454819Y-77428571D01*
X107454819Y-77428571D02*
X107502438Y-77333333D01*
X107502438Y-77333333D02*
X107550057Y-77285714D01*
X107550057Y-77285714D02*
X107645295Y-77238095D01*
X107645295Y-77238095D02*
X107835771Y-77190476D01*
X107835771Y-77190476D02*
X108073866Y-77190476D01*
X108073866Y-77190476D02*
X108264342Y-77238095D01*
X108264342Y-77238095D02*
X108359580Y-77285714D01*
X108359580Y-77285714D02*
X108407200Y-77333333D01*
X108407200Y-77333333D02*
X108454819Y-77428571D01*
X108454819Y-77428571D02*
X108454819Y-77523809D01*
X108454819Y-77523809D02*
X108407200Y-77619047D01*
X108407200Y-77619047D02*
X108359580Y-77666666D01*
X108359580Y-77666666D02*
X108264342Y-77714285D01*
X108264342Y-77714285D02*
X108073866Y-77761904D01*
X108073866Y-77761904D02*
X107835771Y-77761904D01*
X107835771Y-77761904D02*
X107645295Y-77714285D01*
X107645295Y-77714285D02*
X107550057Y-77666666D01*
X107550057Y-77666666D02*
X107502438Y-77619047D01*
X107502438Y-77619047D02*
X107454819Y-77523809D01*
X107454819Y-76571428D02*
X107454819Y-76476190D01*
X107454819Y-76476190D02*
X107502438Y-76380952D01*
X107502438Y-76380952D02*
X107550057Y-76333333D01*
X107550057Y-76333333D02*
X107645295Y-76285714D01*
X107645295Y-76285714D02*
X107835771Y-76238095D01*
X107835771Y-76238095D02*
X108073866Y-76238095D01*
X108073866Y-76238095D02*
X108264342Y-76285714D01*
X108264342Y-76285714D02*
X108359580Y-76333333D01*
X108359580Y-76333333D02*
X108407200Y-76380952D01*
X108407200Y-76380952D02*
X108454819Y-76476190D01*
X108454819Y-76476190D02*
X108454819Y-76571428D01*
X108454819Y-76571428D02*
X108407200Y-76666666D01*
X108407200Y-76666666D02*
X108359580Y-76714285D01*
X108359580Y-76714285D02*
X108264342Y-76761904D01*
X108264342Y-76761904D02*
X108073866Y-76809523D01*
X108073866Y-76809523D02*
X107835771Y-76809523D01*
X107835771Y-76809523D02*
X107645295Y-76761904D01*
X107645295Y-76761904D02*
X107550057Y-76714285D01*
X107550057Y-76714285D02*
X107502438Y-76666666D01*
X107502438Y-76666666D02*
X107454819Y-76571428D01*
X107454819Y-75619047D02*
X107454819Y-75523809D01*
X107454819Y-75523809D02*
X107502438Y-75428571D01*
X107502438Y-75428571D02*
X107550057Y-75380952D01*
X107550057Y-75380952D02*
X107645295Y-75333333D01*
X107645295Y-75333333D02*
X107835771Y-75285714D01*
X107835771Y-75285714D02*
X108073866Y-75285714D01*
X108073866Y-75285714D02*
X108264342Y-75333333D01*
X108264342Y-75333333D02*
X108359580Y-75380952D01*
X108359580Y-75380952D02*
X108407200Y-75428571D01*
X108407200Y-75428571D02*
X108454819Y-75523809D01*
X108454819Y-75523809D02*
X108454819Y-75619047D01*
X108454819Y-75619047D02*
X108407200Y-75714285D01*
X108407200Y-75714285D02*
X108359580Y-75761904D01*
X108359580Y-75761904D02*
X108264342Y-75809523D01*
X108264342Y-75809523D02*
X108073866Y-75857142D01*
X108073866Y-75857142D02*
X107835771Y-75857142D01*
X107835771Y-75857142D02*
X107645295Y-75809523D01*
X107645295Y-75809523D02*
X107550057Y-75761904D01*
X107550057Y-75761904D02*
X107502438Y-75714285D01*
X107502438Y-75714285D02*
X107454819Y-75619047D01*
X108454819Y-74095237D02*
X107788152Y-74095237D01*
X107883390Y-74095237D02*
X107835771Y-74047618D01*
X107835771Y-74047618D02*
X107788152Y-73952380D01*
X107788152Y-73952380D02*
X107788152Y-73809523D01*
X107788152Y-73809523D02*
X107835771Y-73714285D01*
X107835771Y-73714285D02*
X107931009Y-73666666D01*
X107931009Y-73666666D02*
X108454819Y-73666666D01*
X107931009Y-73666666D02*
X107835771Y-73619047D01*
X107835771Y-73619047D02*
X107788152Y-73523809D01*
X107788152Y-73523809D02*
X107788152Y-73380952D01*
X107788152Y-73380952D02*
X107835771Y-73285713D01*
X107835771Y-73285713D02*
X107931009Y-73238094D01*
X107931009Y-73238094D02*
X108454819Y-73238094D01*
X108454819Y-72761904D02*
X107788152Y-72761904D01*
X107883390Y-72761904D02*
X107835771Y-72714285D01*
X107835771Y-72714285D02*
X107788152Y-72619047D01*
X107788152Y-72619047D02*
X107788152Y-72476190D01*
X107788152Y-72476190D02*
X107835771Y-72380952D01*
X107835771Y-72380952D02*
X107931009Y-72333333D01*
X107931009Y-72333333D02*
X108454819Y-72333333D01*
X107931009Y-72333333D02*
X107835771Y-72285714D01*
X107835771Y-72285714D02*
X107788152Y-72190476D01*
X107788152Y-72190476D02*
X107788152Y-72047619D01*
X107788152Y-72047619D02*
X107835771Y-71952380D01*
X107835771Y-71952380D02*
X107931009Y-71904761D01*
X107931009Y-71904761D02*
X108454819Y-71904761D01*
X101500000Y-80000000D02*
X107086420Y-80000000D01*
X101500000Y-76500000D02*
X107086420Y-76500000D01*
X106500000Y-80000000D02*
X106500000Y-76500000D01*
X106500000Y-80000000D02*
X106500000Y-76500000D01*
X106500000Y-80000000D02*
X105913579Y-78873496D01*
X106500000Y-80000000D02*
X107086421Y-78873496D01*
X106500000Y-76500000D02*
X107086421Y-77626504D01*
X106500000Y-76500000D02*
X105913579Y-77626504D01*
X96809524Y-82454819D02*
X97428571Y-82454819D01*
X97428571Y-82454819D02*
X97095238Y-82835771D01*
X97095238Y-82835771D02*
X97238095Y-82835771D01*
X97238095Y-82835771D02*
X97333333Y-82883390D01*
X97333333Y-82883390D02*
X97380952Y-82931009D01*
X97380952Y-82931009D02*
X97428571Y-83026247D01*
X97428571Y-83026247D02*
X97428571Y-83264342D01*
X97428571Y-83264342D02*
X97380952Y-83359580D01*
X97380952Y-83359580D02*
X97333333Y-83407200D01*
X97333333Y-83407200D02*
X97238095Y-83454819D01*
X97238095Y-83454819D02*
X96952381Y-83454819D01*
X96952381Y-83454819D02*
X96857143Y-83407200D01*
X96857143Y-83407200D02*
X96809524Y-83359580D01*
X97857143Y-83359580D02*
X97904762Y-83407200D01*
X97904762Y-83407200D02*
X97857143Y-83454819D01*
X97857143Y-83454819D02*
X97809524Y-83407200D01*
X97809524Y-83407200D02*
X97857143Y-83359580D01*
X97857143Y-83359580D02*
X97857143Y-83454819D01*
X98809523Y-82454819D02*
X98333333Y-82454819D01*
X98333333Y-82454819D02*
X98285714Y-82931009D01*
X98285714Y-82931009D02*
X98333333Y-82883390D01*
X98333333Y-82883390D02*
X98428571Y-82835771D01*
X98428571Y-82835771D02*
X98666666Y-82835771D01*
X98666666Y-82835771D02*
X98761904Y-82883390D01*
X98761904Y-82883390D02*
X98809523Y-82931009D01*
X98809523Y-82931009D02*
X98857142Y-83026247D01*
X98857142Y-83026247D02*
X98857142Y-83264342D01*
X98857142Y-83264342D02*
X98809523Y-83359580D01*
X98809523Y-83359580D02*
X98761904Y-83407200D01*
X98761904Y-83407200D02*
X98666666Y-83454819D01*
X98666666Y-83454819D02*
X98428571Y-83454819D01*
X98428571Y-83454819D02*
X98333333Y-83407200D01*
X98333333Y-83407200D02*
X98285714Y-83359580D01*
X99476190Y-82454819D02*
X99571428Y-82454819D01*
X99571428Y-82454819D02*
X99666666Y-82502438D01*
X99666666Y-82502438D02*
X99714285Y-82550057D01*
X99714285Y-82550057D02*
X99761904Y-82645295D01*
X99761904Y-82645295D02*
X99809523Y-82835771D01*
X99809523Y-82835771D02*
X99809523Y-83073866D01*
X99809523Y-83073866D02*
X99761904Y-83264342D01*
X99761904Y-83264342D02*
X99714285Y-83359580D01*
X99714285Y-83359580D02*
X99666666Y-83407200D01*
X99666666Y-83407200D02*
X99571428Y-83454819D01*
X99571428Y-83454819D02*
X99476190Y-83454819D01*
X99476190Y-83454819D02*
X99380952Y-83407200D01*
X99380952Y-83407200D02*
X99333333Y-83359580D01*
X99333333Y-83359580D02*
X99285714Y-83264342D01*
X99285714Y-83264342D02*
X99238095Y-83073866D01*
X99238095Y-83073866D02*
X99238095Y-82835771D01*
X99238095Y-82835771D02*
X99285714Y-82645295D01*
X99285714Y-82645295D02*
X99333333Y-82550057D01*
X99333333Y-82550057D02*
X99380952Y-82502438D01*
X99380952Y-82502438D02*
X99476190Y-82454819D01*
X100428571Y-82454819D02*
X100523809Y-82454819D01*
X100523809Y-82454819D02*
X100619047Y-82502438D01*
X100619047Y-82502438D02*
X100666666Y-82550057D01*
X100666666Y-82550057D02*
X100714285Y-82645295D01*
X100714285Y-82645295D02*
X100761904Y-82835771D01*
X100761904Y-82835771D02*
X100761904Y-83073866D01*
X100761904Y-83073866D02*
X100714285Y-83264342D01*
X100714285Y-83264342D02*
X100666666Y-83359580D01*
X100666666Y-83359580D02*
X100619047Y-83407200D01*
X100619047Y-83407200D02*
X100523809Y-83454819D01*
X100523809Y-83454819D02*
X100428571Y-83454819D01*
X100428571Y-83454819D02*
X100333333Y-83407200D01*
X100333333Y-83407200D02*
X100285714Y-83359580D01*
X100285714Y-83359580D02*
X100238095Y-83264342D01*
X100238095Y-83264342D02*
X100190476Y-83073866D01*
X100190476Y-83073866D02*
X100190476Y-82835771D01*
X100190476Y-82835771D02*
X100238095Y-82645295D01*
X100238095Y-82645295D02*
X100285714Y-82550057D01*
X100285714Y-82550057D02*
X100333333Y-82502438D01*
X100333333Y-82502438D02*
X100428571Y-82454819D01*
X101380952Y-82454819D02*
X101476190Y-82454819D01*
X101476190Y-82454819D02*
X101571428Y-82502438D01*
X101571428Y-82502438D02*
X101619047Y-82550057D01*
X101619047Y-82550057D02*
X101666666Y-82645295D01*
X101666666Y-82645295D02*
X101714285Y-82835771D01*
X101714285Y-82835771D02*
X101714285Y-83073866D01*
X101714285Y-83073866D02*
X101666666Y-83264342D01*
X101666666Y-83264342D02*
X101619047Y-83359580D01*
X101619047Y-83359580D02*
X101571428Y-83407200D01*
X101571428Y-83407200D02*
X101476190Y-83454819D01*
X101476190Y-83454819D02*
X101380952Y-83454819D01*
X101380952Y-83454819D02*
X101285714Y-83407200D01*
X101285714Y-83407200D02*
X101238095Y-83359580D01*
X101238095Y-83359580D02*
X101190476Y-83264342D01*
X101190476Y-83264342D02*
X101142857Y-83073866D01*
X101142857Y-83073866D02*
X101142857Y-82835771D01*
X101142857Y-82835771D02*
X101190476Y-82645295D01*
X101190476Y-82645295D02*
X101238095Y-82550057D01*
X101238095Y-82550057D02*
X101285714Y-82502438D01*
X101285714Y-82502438D02*
X101380952Y-82454819D01*
X102904762Y-83454819D02*
X102904762Y-82788152D01*
X102904762Y-82883390D02*
X102952381Y-82835771D01*
X102952381Y-82835771D02*
X103047619Y-82788152D01*
X103047619Y-82788152D02*
X103190476Y-82788152D01*
X103190476Y-82788152D02*
X103285714Y-82835771D01*
X103285714Y-82835771D02*
X103333333Y-82931009D01*
X103333333Y-82931009D02*
X103333333Y-83454819D01*
X103333333Y-82931009D02*
X103380952Y-82835771D01*
X103380952Y-82835771D02*
X103476190Y-82788152D01*
X103476190Y-82788152D02*
X103619047Y-82788152D01*
X103619047Y-82788152D02*
X103714286Y-82835771D01*
X103714286Y-82835771D02*
X103761905Y-82931009D01*
X103761905Y-82931009D02*
X103761905Y-83454819D01*
X104238095Y-83454819D02*
X104238095Y-82788152D01*
X104238095Y-82883390D02*
X104285714Y-82835771D01*
X104285714Y-82835771D02*
X104380952Y-82788152D01*
X104380952Y-82788152D02*
X104523809Y-82788152D01*
X104523809Y-82788152D02*
X104619047Y-82835771D01*
X104619047Y-82835771D02*
X104666666Y-82931009D01*
X104666666Y-82931009D02*
X104666666Y-83454819D01*
X104666666Y-82931009D02*
X104714285Y-82835771D01*
X104714285Y-82835771D02*
X104809523Y-82788152D01*
X104809523Y-82788152D02*
X104952380Y-82788152D01*
X104952380Y-82788152D02*
X105047619Y-82835771D01*
X105047619Y-82835771D02*
X105095238Y-82931009D01*
X105095238Y-82931009D02*
X105095238Y-83454819D01*
X105000000Y-76500000D02*
X105000000Y-82086420D01*
X101500000Y-76500000D02*
X101500000Y-82086420D01*
X105000000Y-81500000D02*
X101500000Y-81500000D01*
X105000000Y-81500000D02*
X101500000Y-81500000D01*
X105000000Y-81500000D02*
X103873496Y-82086421D01*
X105000000Y-81500000D02*
X103873496Y-80913579D01*
X101500000Y-81500000D02*
X102626504Y-80913579D01*
X101500000Y-81500000D02*
X102626504Y-82086421D01*
D11*
X32378328Y-71999998D02*
X32378328Y-71071426D01*
X32378328Y-71071426D02*
X32949757Y-71571426D01*
X32949757Y-71571426D02*
X32949757Y-71357141D01*
X32949757Y-71357141D02*
X33021185Y-71214284D01*
X33021185Y-71214284D02*
X33092614Y-71142855D01*
X33092614Y-71142855D02*
X33235471Y-71071426D01*
X33235471Y-71071426D02*
X33592614Y-71071426D01*
X33592614Y-71071426D02*
X33735471Y-71142855D01*
X33735471Y-71142855D02*
X33806900Y-71214284D01*
X33806900Y-71214284D02*
X33878328Y-71357141D01*
X33878328Y-71357141D02*
X33878328Y-71785712D01*
X33878328Y-71785712D02*
X33806900Y-71928569D01*
X33806900Y-71928569D02*
X33735471Y-71999998D01*
X32378328Y-70142855D02*
X32378328Y-69999998D01*
X32378328Y-69999998D02*
X32449757Y-69857141D01*
X32449757Y-69857141D02*
X32521185Y-69785713D01*
X32521185Y-69785713D02*
X32664042Y-69714284D01*
X32664042Y-69714284D02*
X32949757Y-69642855D01*
X32949757Y-69642855D02*
X33306900Y-69642855D01*
X33306900Y-69642855D02*
X33592614Y-69714284D01*
X33592614Y-69714284D02*
X33735471Y-69785713D01*
X33735471Y-69785713D02*
X33806900Y-69857141D01*
X33806900Y-69857141D02*
X33878328Y-69999998D01*
X33878328Y-69999998D02*
X33878328Y-70142855D01*
X33878328Y-70142855D02*
X33806900Y-70285713D01*
X33806900Y-70285713D02*
X33735471Y-70357141D01*
X33735471Y-70357141D02*
X33592614Y-70428570D01*
X33592614Y-70428570D02*
X33306900Y-70499998D01*
X33306900Y-70499998D02*
X32949757Y-70499998D01*
X32949757Y-70499998D02*
X32664042Y-70428570D01*
X32664042Y-70428570D02*
X32521185Y-70357141D01*
X32521185Y-70357141D02*
X32449757Y-70285713D01*
X32449757Y-70285713D02*
X32378328Y-70142855D01*
X33735471Y-68999999D02*
X33806900Y-68928570D01*
X33806900Y-68928570D02*
X33878328Y-68999999D01*
X33878328Y-68999999D02*
X33806900Y-69071427D01*
X33806900Y-69071427D02*
X33735471Y-68999999D01*
X33735471Y-68999999D02*
X33878328Y-68999999D01*
X32378328Y-67999998D02*
X32378328Y-67857141D01*
X32378328Y-67857141D02*
X32449757Y-67714284D01*
X32449757Y-67714284D02*
X32521185Y-67642856D01*
X32521185Y-67642856D02*
X32664042Y-67571427D01*
X32664042Y-67571427D02*
X32949757Y-67499998D01*
X32949757Y-67499998D02*
X33306900Y-67499998D01*
X33306900Y-67499998D02*
X33592614Y-67571427D01*
X33592614Y-67571427D02*
X33735471Y-67642856D01*
X33735471Y-67642856D02*
X33806900Y-67714284D01*
X33806900Y-67714284D02*
X33878328Y-67857141D01*
X33878328Y-67857141D02*
X33878328Y-67999998D01*
X33878328Y-67999998D02*
X33806900Y-68142856D01*
X33806900Y-68142856D02*
X33735471Y-68214284D01*
X33735471Y-68214284D02*
X33592614Y-68285713D01*
X33592614Y-68285713D02*
X33306900Y-68357141D01*
X33306900Y-68357141D02*
X32949757Y-68357141D01*
X32949757Y-68357141D02*
X32664042Y-68285713D01*
X32664042Y-68285713D02*
X32521185Y-68214284D01*
X32521185Y-68214284D02*
X32449757Y-68142856D01*
X32449757Y-68142856D02*
X32378328Y-67999998D01*
X32378328Y-66571427D02*
X32378328Y-66428570D01*
X32378328Y-66428570D02*
X32449757Y-66285713D01*
X32449757Y-66285713D02*
X32521185Y-66214285D01*
X32521185Y-66214285D02*
X32664042Y-66142856D01*
X32664042Y-66142856D02*
X32949757Y-66071427D01*
X32949757Y-66071427D02*
X33306900Y-66071427D01*
X33306900Y-66071427D02*
X33592614Y-66142856D01*
X33592614Y-66142856D02*
X33735471Y-66214285D01*
X33735471Y-66214285D02*
X33806900Y-66285713D01*
X33806900Y-66285713D02*
X33878328Y-66428570D01*
X33878328Y-66428570D02*
X33878328Y-66571427D01*
X33878328Y-66571427D02*
X33806900Y-66714285D01*
X33806900Y-66714285D02*
X33735471Y-66785713D01*
X33735471Y-66785713D02*
X33592614Y-66857142D01*
X33592614Y-66857142D02*
X33306900Y-66928570D01*
X33306900Y-66928570D02*
X32949757Y-66928570D01*
X32949757Y-66928570D02*
X32664042Y-66857142D01*
X32664042Y-66857142D02*
X32521185Y-66785713D01*
X32521185Y-66785713D02*
X32449757Y-66714285D01*
X32449757Y-66714285D02*
X32378328Y-66571427D01*
X32378328Y-65142856D02*
X32378328Y-64999999D01*
X32378328Y-64999999D02*
X32449757Y-64857142D01*
X32449757Y-64857142D02*
X32521185Y-64785714D01*
X32521185Y-64785714D02*
X32664042Y-64714285D01*
X32664042Y-64714285D02*
X32949757Y-64642856D01*
X32949757Y-64642856D02*
X33306900Y-64642856D01*
X33306900Y-64642856D02*
X33592614Y-64714285D01*
X33592614Y-64714285D02*
X33735471Y-64785714D01*
X33735471Y-64785714D02*
X33806900Y-64857142D01*
X33806900Y-64857142D02*
X33878328Y-64999999D01*
X33878328Y-64999999D02*
X33878328Y-65142856D01*
X33878328Y-65142856D02*
X33806900Y-65285714D01*
X33806900Y-65285714D02*
X33735471Y-65357142D01*
X33735471Y-65357142D02*
X33592614Y-65428571D01*
X33592614Y-65428571D02*
X33306900Y-65499999D01*
X33306900Y-65499999D02*
X32949757Y-65499999D01*
X32949757Y-65499999D02*
X32664042Y-65428571D01*
X32664042Y-65428571D02*
X32521185Y-65357142D01*
X32521185Y-65357142D02*
X32449757Y-65285714D01*
X32449757Y-65285714D02*
X32378328Y-65142856D01*
X32378328Y-63714285D02*
X32378328Y-63571428D01*
X32378328Y-63571428D02*
X32449757Y-63428571D01*
X32449757Y-63428571D02*
X32521185Y-63357143D01*
X32521185Y-63357143D02*
X32664042Y-63285714D01*
X32664042Y-63285714D02*
X32949757Y-63214285D01*
X32949757Y-63214285D02*
X33306900Y-63214285D01*
X33306900Y-63214285D02*
X33592614Y-63285714D01*
X33592614Y-63285714D02*
X33735471Y-63357143D01*
X33735471Y-63357143D02*
X33806900Y-63428571D01*
X33806900Y-63428571D02*
X33878328Y-63571428D01*
X33878328Y-63571428D02*
X33878328Y-63714285D01*
X33878328Y-63714285D02*
X33806900Y-63857143D01*
X33806900Y-63857143D02*
X33735471Y-63928571D01*
X33735471Y-63928571D02*
X33592614Y-64000000D01*
X33592614Y-64000000D02*
X33306900Y-64071428D01*
X33306900Y-64071428D02*
X32949757Y-64071428D01*
X32949757Y-64071428D02*
X32664042Y-64000000D01*
X32664042Y-64000000D02*
X32521185Y-63928571D01*
X32521185Y-63928571D02*
X32449757Y-63857143D01*
X32449757Y-63857143D02*
X32378328Y-63714285D01*
X33878328Y-61428572D02*
X32878328Y-61428572D01*
X33021185Y-61428572D02*
X32949757Y-61357143D01*
X32949757Y-61357143D02*
X32878328Y-61214286D01*
X32878328Y-61214286D02*
X32878328Y-61000000D01*
X32878328Y-61000000D02*
X32949757Y-60857143D01*
X32949757Y-60857143D02*
X33092614Y-60785715D01*
X33092614Y-60785715D02*
X33878328Y-60785715D01*
X33092614Y-60785715D02*
X32949757Y-60714286D01*
X32949757Y-60714286D02*
X32878328Y-60571429D01*
X32878328Y-60571429D02*
X32878328Y-60357143D01*
X32878328Y-60357143D02*
X32949757Y-60214286D01*
X32949757Y-60214286D02*
X33092614Y-60142857D01*
X33092614Y-60142857D02*
X33878328Y-60142857D01*
X33878328Y-59428572D02*
X32878328Y-59428572D01*
X33021185Y-59428572D02*
X32949757Y-59357143D01*
X32949757Y-59357143D02*
X32878328Y-59214286D01*
X32878328Y-59214286D02*
X32878328Y-59000000D01*
X32878328Y-59000000D02*
X32949757Y-58857143D01*
X32949757Y-58857143D02*
X33092614Y-58785715D01*
X33092614Y-58785715D02*
X33878328Y-58785715D01*
X33092614Y-58785715D02*
X32949757Y-58714286D01*
X32949757Y-58714286D02*
X32878328Y-58571429D01*
X32878328Y-58571429D02*
X32878328Y-58357143D01*
X32878328Y-58357143D02*
X32949757Y-58214286D01*
X32949757Y-58214286D02*
X33092614Y-58142857D01*
X33092614Y-58142857D02*
X33878328Y-58142857D01*
X43000000Y-80000000D02*
X34413580Y-80000000D01*
X43000000Y-50000000D02*
X34413580Y-50000000D01*
X35000000Y-80000000D02*
X35000000Y-50000000D01*
X35000000Y-80000000D02*
X35000000Y-50000000D01*
X35000000Y-80000000D02*
X34413579Y-78873496D01*
X35000000Y-80000000D02*
X35586421Y-78873496D01*
X35000000Y-50000000D02*
X35586421Y-51126504D01*
X35000000Y-50000000D02*
X34413579Y-51126504D01*
X66285716Y-42378328D02*
X66000001Y-42378328D01*
X66000001Y-42378328D02*
X65857144Y-42449757D01*
X65857144Y-42449757D02*
X65785716Y-42521185D01*
X65785716Y-42521185D02*
X65642858Y-42735471D01*
X65642858Y-42735471D02*
X65571430Y-43021185D01*
X65571430Y-43021185D02*
X65571430Y-43592614D01*
X65571430Y-43592614D02*
X65642858Y-43735471D01*
X65642858Y-43735471D02*
X65714287Y-43806900D01*
X65714287Y-43806900D02*
X65857144Y-43878328D01*
X65857144Y-43878328D02*
X66142858Y-43878328D01*
X66142858Y-43878328D02*
X66285716Y-43806900D01*
X66285716Y-43806900D02*
X66357144Y-43735471D01*
X66357144Y-43735471D02*
X66428573Y-43592614D01*
X66428573Y-43592614D02*
X66428573Y-43235471D01*
X66428573Y-43235471D02*
X66357144Y-43092614D01*
X66357144Y-43092614D02*
X66285716Y-43021185D01*
X66285716Y-43021185D02*
X66142858Y-42949757D01*
X66142858Y-42949757D02*
X65857144Y-42949757D01*
X65857144Y-42949757D02*
X65714287Y-43021185D01*
X65714287Y-43021185D02*
X65642858Y-43092614D01*
X65642858Y-43092614D02*
X65571430Y-43235471D01*
X67785715Y-42378328D02*
X67071429Y-42378328D01*
X67071429Y-42378328D02*
X67000001Y-43092614D01*
X67000001Y-43092614D02*
X67071429Y-43021185D01*
X67071429Y-43021185D02*
X67214287Y-42949757D01*
X67214287Y-42949757D02*
X67571429Y-42949757D01*
X67571429Y-42949757D02*
X67714287Y-43021185D01*
X67714287Y-43021185D02*
X67785715Y-43092614D01*
X67785715Y-43092614D02*
X67857144Y-43235471D01*
X67857144Y-43235471D02*
X67857144Y-43592614D01*
X67857144Y-43592614D02*
X67785715Y-43735471D01*
X67785715Y-43735471D02*
X67714287Y-43806900D01*
X67714287Y-43806900D02*
X67571429Y-43878328D01*
X67571429Y-43878328D02*
X67214287Y-43878328D01*
X67214287Y-43878328D02*
X67071429Y-43806900D01*
X67071429Y-43806900D02*
X67000001Y-43735471D01*
X68500000Y-43735471D02*
X68571429Y-43806900D01*
X68571429Y-43806900D02*
X68500000Y-43878328D01*
X68500000Y-43878328D02*
X68428572Y-43806900D01*
X68428572Y-43806900D02*
X68500000Y-43735471D01*
X68500000Y-43735471D02*
X68500000Y-43878328D01*
X69500001Y-42378328D02*
X69642858Y-42378328D01*
X69642858Y-42378328D02*
X69785715Y-42449757D01*
X69785715Y-42449757D02*
X69857144Y-42521185D01*
X69857144Y-42521185D02*
X69928572Y-42664042D01*
X69928572Y-42664042D02*
X70000001Y-42949757D01*
X70000001Y-42949757D02*
X70000001Y-43306900D01*
X70000001Y-43306900D02*
X69928572Y-43592614D01*
X69928572Y-43592614D02*
X69857144Y-43735471D01*
X69857144Y-43735471D02*
X69785715Y-43806900D01*
X69785715Y-43806900D02*
X69642858Y-43878328D01*
X69642858Y-43878328D02*
X69500001Y-43878328D01*
X69500001Y-43878328D02*
X69357144Y-43806900D01*
X69357144Y-43806900D02*
X69285715Y-43735471D01*
X69285715Y-43735471D02*
X69214286Y-43592614D01*
X69214286Y-43592614D02*
X69142858Y-43306900D01*
X69142858Y-43306900D02*
X69142858Y-42949757D01*
X69142858Y-42949757D02*
X69214286Y-42664042D01*
X69214286Y-42664042D02*
X69285715Y-42521185D01*
X69285715Y-42521185D02*
X69357144Y-42449757D01*
X69357144Y-42449757D02*
X69500001Y-42378328D01*
X70928572Y-42378328D02*
X71071429Y-42378328D01*
X71071429Y-42378328D02*
X71214286Y-42449757D01*
X71214286Y-42449757D02*
X71285715Y-42521185D01*
X71285715Y-42521185D02*
X71357143Y-42664042D01*
X71357143Y-42664042D02*
X71428572Y-42949757D01*
X71428572Y-42949757D02*
X71428572Y-43306900D01*
X71428572Y-43306900D02*
X71357143Y-43592614D01*
X71357143Y-43592614D02*
X71285715Y-43735471D01*
X71285715Y-43735471D02*
X71214286Y-43806900D01*
X71214286Y-43806900D02*
X71071429Y-43878328D01*
X71071429Y-43878328D02*
X70928572Y-43878328D01*
X70928572Y-43878328D02*
X70785715Y-43806900D01*
X70785715Y-43806900D02*
X70714286Y-43735471D01*
X70714286Y-43735471D02*
X70642857Y-43592614D01*
X70642857Y-43592614D02*
X70571429Y-43306900D01*
X70571429Y-43306900D02*
X70571429Y-42949757D01*
X70571429Y-42949757D02*
X70642857Y-42664042D01*
X70642857Y-42664042D02*
X70714286Y-42521185D01*
X70714286Y-42521185D02*
X70785715Y-42449757D01*
X70785715Y-42449757D02*
X70928572Y-42378328D01*
X72357143Y-42378328D02*
X72500000Y-42378328D01*
X72500000Y-42378328D02*
X72642857Y-42449757D01*
X72642857Y-42449757D02*
X72714286Y-42521185D01*
X72714286Y-42521185D02*
X72785714Y-42664042D01*
X72785714Y-42664042D02*
X72857143Y-42949757D01*
X72857143Y-42949757D02*
X72857143Y-43306900D01*
X72857143Y-43306900D02*
X72785714Y-43592614D01*
X72785714Y-43592614D02*
X72714286Y-43735471D01*
X72714286Y-43735471D02*
X72642857Y-43806900D01*
X72642857Y-43806900D02*
X72500000Y-43878328D01*
X72500000Y-43878328D02*
X72357143Y-43878328D01*
X72357143Y-43878328D02*
X72214286Y-43806900D01*
X72214286Y-43806900D02*
X72142857Y-43735471D01*
X72142857Y-43735471D02*
X72071428Y-43592614D01*
X72071428Y-43592614D02*
X72000000Y-43306900D01*
X72000000Y-43306900D02*
X72000000Y-42949757D01*
X72000000Y-42949757D02*
X72071428Y-42664042D01*
X72071428Y-42664042D02*
X72142857Y-42521185D01*
X72142857Y-42521185D02*
X72214286Y-42449757D01*
X72214286Y-42449757D02*
X72357143Y-42378328D01*
X73785714Y-42378328D02*
X73928571Y-42378328D01*
X73928571Y-42378328D02*
X74071428Y-42449757D01*
X74071428Y-42449757D02*
X74142857Y-42521185D01*
X74142857Y-42521185D02*
X74214285Y-42664042D01*
X74214285Y-42664042D02*
X74285714Y-42949757D01*
X74285714Y-42949757D02*
X74285714Y-43306900D01*
X74285714Y-43306900D02*
X74214285Y-43592614D01*
X74214285Y-43592614D02*
X74142857Y-43735471D01*
X74142857Y-43735471D02*
X74071428Y-43806900D01*
X74071428Y-43806900D02*
X73928571Y-43878328D01*
X73928571Y-43878328D02*
X73785714Y-43878328D01*
X73785714Y-43878328D02*
X73642857Y-43806900D01*
X73642857Y-43806900D02*
X73571428Y-43735471D01*
X73571428Y-43735471D02*
X73499999Y-43592614D01*
X73499999Y-43592614D02*
X73428571Y-43306900D01*
X73428571Y-43306900D02*
X73428571Y-42949757D01*
X73428571Y-42949757D02*
X73499999Y-42664042D01*
X73499999Y-42664042D02*
X73571428Y-42521185D01*
X73571428Y-42521185D02*
X73642857Y-42449757D01*
X73642857Y-42449757D02*
X73785714Y-42378328D01*
X76071427Y-43878328D02*
X76071427Y-42878328D01*
X76071427Y-43021185D02*
X76142856Y-42949757D01*
X76142856Y-42949757D02*
X76285713Y-42878328D01*
X76285713Y-42878328D02*
X76499999Y-42878328D01*
X76499999Y-42878328D02*
X76642856Y-42949757D01*
X76642856Y-42949757D02*
X76714285Y-43092614D01*
X76714285Y-43092614D02*
X76714285Y-43878328D01*
X76714285Y-43092614D02*
X76785713Y-42949757D01*
X76785713Y-42949757D02*
X76928570Y-42878328D01*
X76928570Y-42878328D02*
X77142856Y-42878328D01*
X77142856Y-42878328D02*
X77285713Y-42949757D01*
X77285713Y-42949757D02*
X77357142Y-43092614D01*
X77357142Y-43092614D02*
X77357142Y-43878328D01*
X78071427Y-43878328D02*
X78071427Y-42878328D01*
X78071427Y-43021185D02*
X78142856Y-42949757D01*
X78142856Y-42949757D02*
X78285713Y-42878328D01*
X78285713Y-42878328D02*
X78499999Y-42878328D01*
X78499999Y-42878328D02*
X78642856Y-42949757D01*
X78642856Y-42949757D02*
X78714285Y-43092614D01*
X78714285Y-43092614D02*
X78714285Y-43878328D01*
X78714285Y-43092614D02*
X78785713Y-42949757D01*
X78785713Y-42949757D02*
X78928570Y-42878328D01*
X78928570Y-42878328D02*
X79142856Y-42878328D01*
X79142856Y-42878328D02*
X79285713Y-42949757D01*
X79285713Y-42949757D02*
X79357142Y-43092614D01*
X79357142Y-43092614D02*
X79357142Y-43878328D01*
X105000000Y-53000000D02*
X105000000Y-44413580D01*
X40000000Y-53000000D02*
X40000000Y-44413580D01*
X105000000Y-45000000D02*
X40000000Y-45000000D01*
X105000000Y-45000000D02*
X40000000Y-45000000D01*
X105000000Y-45000000D02*
X103873496Y-45586421D01*
X105000000Y-45000000D02*
X103873496Y-44413579D01*
X40000000Y-45000000D02*
X41126504Y-44413579D01*
X40000000Y-45000000D02*
X41126504Y-45586421D01*
M02*
