%TF.GenerationSoftware,KiCad,Pcbnew,7.0.6*%
%TF.CreationDate,2023-08-14T14:17:20+01:00*%
%TF.ProjectId,canhat,63616e68-6174-42e6-9b69-6361645f7063,8*%
%TF.SameCoordinates,Original*%
%TF.FileFunction,Soldermask,Top*%
%TF.FilePolarity,Negative*%
%FSLAX46Y46*%
G04 Gerber Fmt 4.6, Leading zero omitted, Abs format (unit mm)*
G04 Created by KiCad (PCBNEW 7.0.6) date 2023-08-14 14:17:20*
%MOMM*%
%LPD*%
G01*
G04 APERTURE LIST*
G04 Aperture macros list*
%AMRoundRect*
0 Rectangle with rounded corners*
0 $1 Rounding radius*
0 $2 $3 $4 $5 $6 $7 $8 $9 X,Y pos of 4 corners*
0 Add a 4 corners polygon primitive as box body*
4,1,4,$2,$3,$4,$5,$6,$7,$8,$9,$2,$3,0*
0 Add four circle primitives for the rounded corners*
1,1,$1+$1,$2,$3*
1,1,$1+$1,$4,$5*
1,1,$1+$1,$6,$7*
1,1,$1+$1,$8,$9*
0 Add four rect primitives between the rounded corners*
20,1,$1+$1,$2,$3,$4,$5,0*
20,1,$1+$1,$4,$5,$6,$7,0*
20,1,$1+$1,$6,$7,$8,$9,0*
20,1,$1+$1,$8,$9,$2,$3,0*%
%AMFreePoly0*
4,1,19,0.500000,-0.750000,0.000000,-0.750000,0.000000,-0.744911,-0.071157,-0.744911,-0.207708,-0.704816,-0.327430,-0.627875,-0.420627,-0.520320,-0.479746,-0.390866,-0.500000,-0.250000,-0.500000,0.250000,-0.479746,0.390866,-0.420627,0.520320,-0.327430,0.627875,-0.207708,0.704816,-0.071157,0.744911,0.000000,0.744911,0.000000,0.750000,0.500000,0.750000,0.500000,-0.750000,0.500000,-0.750000,
$1*%
%AMFreePoly1*
4,1,19,0.000000,0.744911,0.071157,0.744911,0.207708,0.704816,0.327430,0.627875,0.420627,0.520320,0.479746,0.390866,0.500000,0.250000,0.500000,-0.250000,0.479746,-0.390866,0.420627,-0.520320,0.327430,-0.627875,0.207708,-0.704816,0.071157,-0.744911,0.000000,-0.744911,0.000000,-0.750000,-0.500000,-0.750000,-0.500000,0.750000,0.000000,0.750000,0.000000,0.744911,0.000000,0.744911,
$1*%
G04 Aperture macros list end*
%ADD10RoundRect,0.250000X0.350000X0.450000X-0.350000X0.450000X-0.350000X-0.450000X0.350000X-0.450000X0*%
%ADD11RoundRect,0.250000X0.475000X-0.337500X0.475000X0.337500X-0.475000X0.337500X-0.475000X-0.337500X0*%
%ADD12RoundRect,0.250000X-0.475000X0.337500X-0.475000X-0.337500X0.475000X-0.337500X0.475000X0.337500X0*%
%ADD13RoundRect,0.150000X0.150000X-0.875000X0.150000X0.875000X-0.150000X0.875000X-0.150000X-0.875000X0*%
%ADD14RoundRect,0.150000X0.825000X0.150000X-0.825000X0.150000X-0.825000X-0.150000X0.825000X-0.150000X0*%
%ADD15C,6.150000*%
%ADD16RoundRect,0.250000X0.337500X0.475000X-0.337500X0.475000X-0.337500X-0.475000X0.337500X-0.475000X0*%
%ADD17R,1.700000X1.700000*%
%ADD18O,1.700000X1.700000*%
%ADD19RoundRect,0.150000X-0.825000X-0.150000X0.825000X-0.150000X0.825000X0.150000X-0.825000X0.150000X0*%
%ADD20R,2.000000X4.500000*%
%ADD21R,2.200000X2.200000*%
%ADD22C,2.200000*%
%ADD23RoundRect,0.250001X-0.799999X-2.474999X0.799999X-2.474999X0.799999X2.474999X-0.799999X2.474999X0*%
%ADD24C,1.100000*%
%ADD25RoundRect,0.250000X-0.350000X-0.450000X0.350000X-0.450000X0.350000X0.450000X-0.350000X0.450000X0*%
%ADD26RoundRect,0.375000X-0.375000X-0.725000X0.375000X-0.725000X0.375000X0.725000X-0.375000X0.725000X0*%
%ADD27RoundRect,0.150000X-0.512500X-0.150000X0.512500X-0.150000X0.512500X0.150000X-0.512500X0.150000X0*%
%ADD28R,3.500000X1.800000*%
%ADD29RoundRect,0.250000X-0.337500X-0.475000X0.337500X-0.475000X0.337500X0.475000X-0.337500X0.475000X0*%
%ADD30R,1.000000X1.000000*%
%ADD31RoundRect,0.250000X0.450000X-0.350000X0.450000X0.350000X-0.450000X0.350000X-0.450000X-0.350000X0*%
%ADD32FreePoly0,270.000000*%
%ADD33FreePoly1,270.000000*%
G04 APERTURE END LIST*
D10*
%TO.C,R3*%
X102025000Y-71600000D03*
X100025000Y-71600000D03*
%TD*%
%TO.C,R4*%
X102025000Y-69600000D03*
X100025000Y-69600000D03*
%TD*%
D11*
%TO.C,C1*%
X83500000Y-64037500D03*
X83500000Y-61962500D03*
%TD*%
D12*
%TO.C,C6*%
X75900000Y-73362500D03*
X75900000Y-75437500D03*
%TD*%
D10*
%TO.C,R1*%
X72700000Y-58000000D03*
X70700000Y-58000000D03*
%TD*%
D13*
%TO.C,U1*%
X70920000Y-69650000D03*
X72190000Y-69650000D03*
X73460000Y-69650000D03*
X74730000Y-69650000D03*
X76000000Y-69650000D03*
X77270000Y-69650000D03*
X78540000Y-69650000D03*
X79810000Y-69650000D03*
X81080000Y-69650000D03*
X81080000Y-60350000D03*
X79810000Y-60350000D03*
X78540000Y-60350000D03*
X77270000Y-60350000D03*
X76000000Y-60350000D03*
X74730000Y-60350000D03*
X73460000Y-60350000D03*
X72190000Y-60350000D03*
X70920000Y-60350000D03*
%TD*%
D14*
%TO.C,U2*%
X73375000Y-78005000D03*
X73375000Y-76735000D03*
X73375000Y-75465000D03*
X73375000Y-74195000D03*
X68425000Y-74195000D03*
X68425000Y-75465000D03*
X68425000Y-76735000D03*
X68425000Y-78005000D03*
%TD*%
D15*
%TO.C,H1*%
X43500000Y-53500000D03*
%TD*%
%TO.C,H2*%
X43500000Y-76500000D03*
%TD*%
%TO.C,H3*%
X101500000Y-53500000D03*
%TD*%
%TO.C,H4*%
X101500000Y-76500000D03*
%TD*%
D16*
%TO.C,C7*%
X95737500Y-65400000D03*
X93662500Y-65400000D03*
%TD*%
D17*
%TO.C,JP1*%
X98460000Y-64600000D03*
D18*
X101000000Y-64600000D03*
%TD*%
D10*
%TO.C,R2*%
X102025000Y-67600000D03*
X100025000Y-67600000D03*
%TD*%
D19*
%TO.C,U3*%
X92025000Y-67695000D03*
X92025000Y-68965000D03*
X92025000Y-70235000D03*
X92025000Y-71505000D03*
X96975000Y-71505000D03*
X96975000Y-70235000D03*
X96975000Y-68965000D03*
X96975000Y-67695000D03*
%TD*%
D20*
%TO.C,Y1*%
X87500000Y-70450000D03*
X87500000Y-61950000D03*
%TD*%
D21*
%TO.C,J2*%
X50200000Y-76200000D03*
D22*
X52740000Y-76200000D03*
X55280000Y-76200000D03*
X57820000Y-76200000D03*
X60360000Y-76200000D03*
X62900000Y-76200000D03*
%TD*%
D23*
%TO.C,F1*%
X41525000Y-67500000D03*
X48475000Y-67500000D03*
%TD*%
D24*
%TO.C,J5*%
X41460000Y-59430000D03*
X41460000Y-61970000D03*
D21*
X44000000Y-59430000D03*
D22*
X44000000Y-61970000D03*
%TD*%
D12*
%TO.C,C3*%
X67900000Y-58050000D03*
X67900000Y-60125000D03*
%TD*%
%TO.C,C4*%
X68700000Y-62962500D03*
X68700000Y-65037500D03*
%TD*%
D17*
%TO.C,J3*%
X102900000Y-61000000D03*
D18*
X100360000Y-61000000D03*
X97820000Y-61000000D03*
X95280000Y-61000000D03*
X92740000Y-61000000D03*
%TD*%
D25*
%TO.C,R12*%
X93200000Y-58200000D03*
X95200000Y-58200000D03*
%TD*%
%TO.C,R13*%
X96900000Y-58200000D03*
X98900000Y-58200000D03*
%TD*%
%TO.C,R14*%
X100600000Y-58200000D03*
X102600000Y-58200000D03*
%TD*%
D16*
%TO.C,C12*%
X64062500Y-69700000D03*
X61987500Y-69700000D03*
%TD*%
D26*
%TO.C,L1*%
X57825000Y-62700000D03*
X64125000Y-62700000D03*
%TD*%
D27*
%TO.C,U4*%
X52552500Y-62200000D03*
X52552500Y-63150000D03*
X52552500Y-64100000D03*
X54827500Y-64100000D03*
X54827500Y-63150000D03*
X54827500Y-62200000D03*
%TD*%
D16*
%TO.C,C13*%
X64062500Y-67700000D03*
X61987500Y-67700000D03*
%TD*%
D28*
%TO.C,D2*%
X56900000Y-69500000D03*
X51900000Y-69500000D03*
%TD*%
D29*
%TO.C,C9*%
X53762500Y-66700000D03*
X55837500Y-66700000D03*
%TD*%
D10*
%TO.C,R11*%
X91100000Y-58200000D03*
X89100000Y-58200000D03*
%TD*%
D30*
%TO.C,D1*%
X47200000Y-71300000D03*
X47200000Y-73800000D03*
%TD*%
D29*
%TO.C,C10*%
X53462500Y-60400000D03*
X55537500Y-60400000D03*
%TD*%
D31*
%TO.C,R5*%
X66250000Y-77700000D03*
X66250000Y-75700000D03*
%TD*%
D12*
%TO.C,C2*%
X83500000Y-65925000D03*
X83500000Y-68000000D03*
%TD*%
D32*
%TO.C,JP5*%
X50100000Y-59200000D03*
D33*
X50100000Y-60500000D03*
%TD*%
D17*
%TO.C,J1*%
X48370000Y-54770000D03*
D18*
X48370000Y-52230000D03*
X50910000Y-54770000D03*
X50910000Y-52230000D03*
X53450000Y-54770000D03*
X53450000Y-52230000D03*
X55990000Y-54770000D03*
X55990000Y-52230000D03*
X58530000Y-54770000D03*
X58530000Y-52230000D03*
X61070000Y-54770000D03*
X61070000Y-52230000D03*
X63610000Y-54770000D03*
X63610000Y-52230000D03*
X66150000Y-54770000D03*
X66150000Y-52230000D03*
X68690000Y-54770000D03*
X68690000Y-52230000D03*
X71230000Y-54770000D03*
X71230000Y-52230000D03*
X73770000Y-54770000D03*
X73770000Y-52230000D03*
X76310000Y-54770000D03*
X76310000Y-52230000D03*
X78850000Y-54770000D03*
X78850000Y-52230000D03*
X81390000Y-54770000D03*
X81390000Y-52230000D03*
X83930000Y-54770000D03*
X83930000Y-52230000D03*
X86470000Y-54770000D03*
X86470000Y-52230000D03*
X89010000Y-54770000D03*
X89010000Y-52230000D03*
X91550000Y-54770000D03*
X91550000Y-52230000D03*
X94090000Y-54770000D03*
X94090000Y-52230000D03*
X96630000Y-54770000D03*
X96630000Y-52230000D03*
%TD*%
M02*
