<svg version="1.1" xmlns="http://www.w3.org/2000/svg" xmlns:xlink="http://www.w3.org/1999/xlink" stroke-linecap="round" stroke-linejoin="round" stroke-width="0" fill-rule="evenodd" width="64.189819mm" height="23.730181mm" viewBox="40540 -79660 64189.819 23730.181" id="N2bmgqs0XIt3jA13Leik"><g transform="translate(0,-135589.819) scale(1,-1)" fill="currentColor" stroke="currentColor"><path d="M 48186.133 -58419.048 48186.133 -59180.953 M 47805.18 -60180.952 47805.18 -59609.524 M 47805.18 -59895.238 48805.18 -59895.238 48662.323 -59800 48567.085 -59704.762 48519.466 -59609.524 M 48709.942 -60561.905 48757.561 -60609.524 48805.18 -60704.762 48805.18 -60942.857 48757.561 -61038.095 48709.942 -61085.714 48614.704 -61133.333 48519.466 -61133.333 48376.609 -61085.714 47805.18 -60514.286 47805.18 -61133.333 M 48805.18 -61419.048 47805.18 -61752.381 48805.18 -62085.714 M 48186.133 -62419.048 48186.133 -63180.953 M 47805.18 -62800 48567.085 -62800 M 49161.904 -71983.39 50114.285 -71983.39 M 49352.38 -72269.104 49923.808 -72269.104 M 49638.094 -71554.819 49638.094 -71983.39 M 49733.332 -72554.819 49542.856 -72554.819 M 52780.952 -72554.819 52780.952 -71554.819 M 52780.952 -72031.009 53352.38 -72031.009 M 53352.38 -72554.819 53352.38 -71554.819 M 54209.523 -71792.914 54209.523 -72554.819 M 54399.999 -72364.342 54209.523 -72554.819 54019.047 -72364.342 M 55542.856 -72554.819 55066.666 -72554.819 55066.666 -71554.819 M 57876.19 -72554.819 57400 -72554.819 57400 -71554.819 M 58590.476 -72554.819 58590.476 -71792.914 M 58400 -71983.39 58590.476 -71792.914 58780.952 -71983.39 M 59447.619 -72554.819 59447.619 -71554.819 M 59447.619 -72031.009 60019.047 -72031.009 M 60019.047 -72554.819 60019.047 -71554.819 M 62685.715 -71983.39 63638.096 -71983.39 M 62876.191 -72269.104 63447.619 -72269.104 M 63161.905 -71554.819 63161.905 -71983.39 M 63257.143 -72554.819 63066.667 -72554.819" fill="none" stroke-width="150"/><path d="M 51426.109 -60277.068 51426.109 -60515.163 51664.204 -60538.972 51640.395 -60515.163 51616.585 -60467.544 51616.585 -60348.496 51640.395 -60300.877 51664.204 -60277.068 51711.823 -60253.258 51830.871 -60253.258 51878.49 -60277.068 51902.3 -60300.877 51926.109 -60348.496 51926.109 -60467.544 51902.3 -60515.163 51878.49 -60538.972 M 51426.109 -60110.401 51926.109 -59943.735 51426.109 -59777.068 M 51926.109 -59610.402 51426.109 -59610.402 M 51926.109 -59372.307 51426.109 -59372.307 51926.109 -59086.593 51426.109 -59086.593" fill="none" stroke-width="100"/><path d="M 85541.101 -75346.98 85493.482 -75394.6 85350.625 -75442.219 85255.387 -75442.219 85112.53 -75394.6 85017.292 -75299.361 84969.673 -75204.123 84922.054 -75013.647 84922.054 -74870.79 84969.673 -74680.314 85017.292 -74585.076 85112.53 -74489.838 85255.387 -74442.219 85350.625 -74442.219 85493.482 -74489.838 85541.101 -74537.457 M 85922.054 -75156.504 86398.244 -75156.504 M 85826.816 -75442.219 86160.149 -74442.219 86493.482 -75442.219 M 86826.816 -75442.219 86826.816 -74442.219 87398.244 -75442.219 87398.244 -74442.219 M 88636.34 -75442.219 88636.34 -74442.219 M 88636.34 -74918.409 89207.768 -74918.409 M 89207.768 -75442.219 89207.768 -74442.219 M 89636.34 -75156.504 90112.53 -75156.504 M 89541.102 -75442.219 89874.435 -74442.219 90207.768 -75442.219 M 90398.245 -74442.219 90969.673 -74442.219 M 90683.959 -75442.219 90683.959 -74442.219 M 91922.055 -74442.219 92255.388 -75442.219 92588.721 -74442.219 M 93064.912 -74870.79 92969.674 -74823.171 92922.055 -74775.552 92874.436 -74680.314 92874.436 -74632.695 92922.055 -74537.457 92969.674 -74489.838 93064.912 -74442.219 93255.388 -74442.219 93350.626 -74489.838 93398.245 -74537.457 93445.864 -74632.695 93445.864 -74680.314 93398.245 -74775.552 93350.626 -74823.171 93255.388 -74870.79 93064.912 -74870.79 92969.674 -74918.409 92922.055 -74966.028 92874.436 -75061.266 92874.436 -75251.742 92922.055 -75346.98 92969.674 -75394.6 93064.912 -75442.219 93255.388 -75442.219 93350.626 -75394.6 93398.245 -75346.98 93445.864 -75251.742 93445.864 -75061.266 93398.245 -74966.028 93350.626 -74918.409 93255.388 -74870.79 M 84826.816 -76385.552 85207.768 -76385.552 M 84969.673 -77052.219 84969.673 -76195.076 85017.292 -76099.838 85112.53 -76052.219 85207.768 -76052.219 M 85683.959 -77052.219 85588.721 -77004.6 85541.102 -76956.98 85493.483 -76861.742 85493.483 -76576.028 85541.102 -76480.79 85588.721 -76433.171 85683.959 -76385.552 85826.816 -76385.552 85922.054 -76433.171 85969.673 -76480.79 86017.292 -76576.028 86017.292 -76861.742 85969.673 -76956.98 85922.054 -77004.6 85826.816 -77052.219 85683.959 -77052.219 M 86445.864 -77052.219 86445.864 -76385.552 M 86445.864 -76576.028 86493.483 -76480.79 86541.102 -76433.171 86636.34 -76385.552 86731.578 -76385.552 M 88398.245 -77052.219 88064.912 -76576.028 M 87826.817 -77052.219 87826.817 -76052.219 88207.769 -76052.219 88303.007 -76099.838 88350.626 -76147.457 88398.245 -76242.695 88398.245 -76385.552 88350.626 -76480.79 88303.007 -76528.409 88207.769 -76576.028 87826.817 -76576.028 M 89255.388 -77052.219 89255.388 -76528.409 89207.769 -76433.171 89112.531 -76385.552 88922.055 -76385.552 88826.817 -76433.171 M 89255.388 -77004.6 89160.15 -77052.219 88922.055 -77052.219 88826.817 -77004.6 88779.198 -76909.361 88779.198 -76814.123 88826.817 -76718.885 88922.055 -76671.266 89160.15 -76671.266 89255.388 -76623.647 M 89683.96 -77004.6 89779.198 -77052.219 89969.674 -77052.219 90064.912 -77004.6 90112.531 -76909.361 90112.531 -76861.742 90064.912 -76766.504 89969.674 -76718.885 89826.817 -76718.885 89731.579 -76671.266 89683.96 -76576.028 89683.96 -76528.409 89731.579 -76433.171 89826.817 -76385.552 89969.674 -76385.552 90064.912 -76433.171 M 90541.103 -76385.552 90541.103 -77385.552 M 90541.103 -76433.171 90636.341 -76385.552 90826.817 -76385.552 90922.055 -76433.171 90969.674 -76480.79 91017.293 -76576.028 91017.293 -76861.742 90969.674 -76956.98 90922.055 -77004.6 90826.817 -77052.219 90636.341 -77052.219 90541.103 -77004.6 M 91445.865 -77052.219 91445.865 -76052.219 M 91445.865 -76433.171 91541.103 -76385.552 91731.579 -76385.552 91826.817 -76433.171 91874.436 -76480.79 91922.055 -76576.028 91922.055 -76861.742 91874.436 -76956.98 91826.817 -77004.6 91731.579 -77052.219 91541.103 -77052.219 91445.865 -77004.6 M 92731.579 -77004.6 92636.341 -77052.219 92445.865 -77052.219 92350.627 -77004.6 92303.008 -76909.361 92303.008 -76528.409 92350.627 -76433.171 92445.865 -76385.552 92636.341 -76385.552 92731.579 -76433.171 92779.198 -76528.409 92779.198 -76623.647 92303.008 -76718.885 M 93207.77 -77052.219 93207.77 -76385.552 M 93207.77 -76576.028 93255.389 -76480.79 93303.008 -76433.171 93398.246 -76385.552 93493.484 -76385.552 M 93826.818 -77052.219 93826.818 -76385.552 M 93826.818 -76576.028 93874.437 -76480.79 93922.056 -76433.171 94017.294 -76385.552 94112.532 -76385.552 M 94350.628 -76385.552 94588.723 -77052.219 M 94826.818 -76385.552 94588.723 -77052.219 94493.485 -77290.314 94445.866 -77337.933 94350.628 -77385.552 M 95969.676 -77052.219 95969.676 -76052.219 96350.628 -76052.219 96445.866 -76099.838 96493.485 -76147.457 96541.104 -76242.695 96541.104 -76385.552 96493.485 -76480.79 96445.866 -76528.409 96350.628 -76576.028 95969.676 -76576.028 M 96969.676 -77052.219 96969.676 -76385.552 M 96969.676 -76052.219 96922.057 -76099.838 96969.676 -76147.457 97017.295 -76099.838 96969.676 -76052.219 96969.676 -76147.457 M 85779.197 -77900.314 85683.958 -77852.695 85493.482 -77852.695 85398.244 -77900.314 85303.006 -77995.552 85255.387 -78090.79 85255.387 -78281.266 85303.006 -78376.504 85398.244 -78471.742 85493.482 -78519.361 85683.958 -78519.361 85779.197 -78471.742 M 85588.72 -77519.361 85350.625 -77566.98 85112.53 -77709.838 84969.673 -77947.933 84922.054 -78186.028 84969.673 -78424.123 85112.53 -78662.219 85350.625 -78805.076 85588.72 -78852.695 85826.816 -78805.076 86064.911 -78662.219 86207.768 -78424.123 86255.387 -78186.028 86207.768 -77947.933 86064.911 -77709.838 85826.816 -77566.98 85588.72 -77519.361 M 87398.245 -77757.457 87445.864 -77709.838 87541.102 -77662.219 87779.197 -77662.219 87874.435 -77709.838 87922.054 -77757.457 87969.673 -77852.695 87969.673 -77947.933 87922.054 -78090.79 87350.626 -78662.219 87969.673 -78662.219 M 88588.721 -77662.219 88683.959 -77662.219 88779.197 -77709.838 88826.816 -77757.457 88874.435 -77852.695 88922.054 -78043.171 88922.054 -78281.266 88874.435 -78471.742 88826.816 -78566.98 88779.197 -78614.6 88683.959 -78662.219 88588.721 -78662.219 88493.483 -78614.6 88445.864 -78566.98 88398.245 -78471.742 88350.626 -78281.266 88350.626 -78043.171 88398.245 -77852.695 88445.864 -77757.457 88493.483 -77709.838 88588.721 -77662.219 M 89303.007 -77757.457 89350.626 -77709.838 89445.864 -77662.219 89683.959 -77662.219 89779.197 -77709.838 89826.816 -77757.457 89874.435 -77852.695 89874.435 -77947.933 89826.816 -78090.79 89255.388 -78662.219 89874.435 -78662.219 M 90207.769 -77662.219 90826.816 -77662.219 90493.483 -78043.171 90636.34 -78043.171 90731.578 -78090.79 90779.197 -78138.409 90826.816 -78233.647 90826.816 -78471.742 90779.197 -78566.98 90731.578 -78614.6 90636.34 -78662.219 90350.626 -78662.219 90255.388 -78614.6 90207.769 -78566.98 M 92160.15 -78662.219 92064.912 -78614.6 92017.293 -78566.98 91969.674 -78471.742 91969.674 -78186.028 92017.293 -78090.79 92064.912 -78043.171 92160.15 -77995.552 92303.007 -77995.552 92398.245 -78043.171 92445.864 -78090.79 92493.483 -78186.028 92493.483 -78471.742 92445.864 -78566.98 92398.245 -78614.6 92303.007 -78662.219 92160.15 -78662.219 M 92922.055 -77995.552 92922.055 -78662.219 M 92922.055 -78090.79 92969.674 -78043.171 93064.912 -77995.552 93207.769 -77995.552 93303.007 -78043.171 93350.626 -78138.409 93350.626 -78662.219 M 93826.817 -78662.219 93826.817 -77995.552 M 93826.817 -77662.219 93779.198 -77709.838 93826.817 -77757.457 93874.436 -77709.838 93826.817 -77662.219 93826.817 -77757.457 M 94160.15 -77995.552 94541.102 -77995.552 M 94303.007 -77662.219 94303.007 -78519.361 94350.626 -78614.6 94445.864 -78662.219 94541.102 -78662.219 M 95303.007 -78662.219 95303.007 -78138.409 95255.388 -78043.171 95160.15 -77995.552 94969.674 -77995.552 94874.436 -78043.171 M 95303.007 -78614.6 95207.769 -78662.219 94969.674 -78662.219 94874.436 -78614.6 94826.817 -78519.361 94826.817 -78424.123 94874.436 -78328.885 94969.674 -78281.266 95207.769 -78281.266 95303.007 -78233.647 M 95779.198 -78662.219 95779.198 -77662.219 M 95874.436 -78281.266 96160.15 -78662.219 M 96160.15 -77995.552 95779.198 -78376.504 M 96969.674 -78614.6 96874.436 -78662.219 96683.96 -78662.219 96588.722 -78614.6 96541.103 -78519.361 96541.103 -78138.409 96588.722 -78043.171 96683.96 -77995.552 96874.436 -77995.552 96969.674 -78043.171 97017.293 -78138.409 97017.293 -78233.647 96541.103 -78328.885" fill="none" stroke-width="200"/><path d="M 104054.819 -71766.666 103578.628 -72099.999 M 104054.819 -72338.094 103054.819 -72338.094 103054.819 -71957.142 103102.438 -71861.904 103150.057 -71814.285 103245.295 -71766.666 103388.152 -71766.666 103483.39 -71814.285 103531.009 -71861.904 103578.628 -71957.142 103578.628 -72338.094 M 103054.819 -71433.332 103054.819 -70814.285 103435.771 -71147.618 103435.771 -71004.761 103483.39 -70909.523 103531.009 -70861.904 103626.247 -70814.285 103864.342 -70814.285 103959.58 -70861.904 104007.2 -70909.523 104054.819 -71004.761 104054.819 -71290.475 104007.2 -71385.713 103959.58 -71433.332 M 104054.819 -69766.666 103578.628 -70099.999 M 104054.819 -70338.094 103054.819 -70338.094 103054.819 -69957.142 103102.438 -69861.904 103150.057 -69814.285 103245.295 -69766.666 103388.152 -69766.666 103483.39 -69814.285 103531.009 -69861.904 103578.628 -69957.142 103578.628 -70338.094 M 103388.152 -68909.523 104054.819 -68909.523 M 103007.2 -69147.618 103721.485 -69385.713 103721.485 -68766.666 M 83333.333 -60359.58 83285.714 -60407.2 83142.857 -60454.819 83047.619 -60454.819 82904.762 -60407.2 82809.524 -60311.961 82761.905 -60216.723 82714.286 -60026.247 82714.286 -59883.39 82761.905 -59692.914 82809.524 -59597.676 82904.762 -59502.438 83047.619 -59454.819 83142.857 -59454.819 83285.714 -59502.438 83333.333 -59550.057 M 84285.714 -60454.819 83714.286 -60454.819 M 84000 -60454.819 84000 -59454.819 83904.762 -59597.676 83809.524 -59692.914 83714.286 -59740.533 M 73733.333 -72959.58 73685.714 -73007.2 73542.857 -73054.819 73447.619 -73054.819 73304.762 -73007.2 73209.524 -72911.961 73161.905 -72816.723 73114.286 -72626.247 73114.286 -72483.39 73161.905 -72292.914 73209.524 -72197.676 73304.762 -72102.438 73447.619 -72054.819 73542.857 -72054.819 73685.714 -72102.438 73733.333 -72150.057 M 74590.476 -72054.819 74400 -72054.819 74304.762 -72102.438 74257.143 -72150.057 74161.905 -72292.914 74114.286 -72483.39 74114.286 -72864.342 74161.905 -72959.58 74209.524 -73007.2 74304.762 -73054.819 74495.238 -73054.819 74590.476 -73007.2 74638.095 -72959.58 74685.714 -72864.342 74685.714 -72626.247 74638.095 -72531.009 74590.476 -72483.39 74495.238 -72435.771 74304.762 -72435.771 74209.524 -72483.39 74161.905 -72531.009 74114.286 -72626.247 M 74333.333 -58454.819 74000 -57978.628 M 73761.905 -58454.819 73761.905 -57454.819 74142.857 -57454.819 74238.095 -57502.438 74285.714 -57550.057 74333.333 -57645.295 74333.333 -57788.152 74285.714 -57883.39 74238.095 -57931.009 74142.857 -57978.628 73761.905 -57978.628 M 75285.714 -58454.819 74714.286 -58454.819 M 75000 -58454.819 75000 -57454.819 74904.762 -57597.676 74809.524 -57692.914 74714.286 -57740.533 M 80638.095 -57754.819 80638.095 -58564.342 80685.714 -58659.58 80733.333 -58707.2 80828.571 -58754.819 81019.047 -58754.819 81114.285 -58707.2 81161.904 -58659.58 81209.523 -58564.342 81209.523 -57754.819 M 82209.523 -58754.819 81638.095 -58754.819 M 81923.809 -58754.819 81923.809 -57754.819 81828.571 -57897.676 81733.333 -57992.914 81638.095 -58040.533 M 70138.095 -72254.819 70138.095 -73064.342 70185.714 -73159.58 70233.333 -73207.2 70328.571 -73254.819 70519.047 -73254.819 70614.285 -73207.2 70661.904 -73159.58 70709.523 -73064.342 70709.523 -72254.819 M 71138.095 -72350.057 71185.714 -72302.438 71280.952 -72254.819 71519.047 -72254.819 71614.285 -72302.438 71661.904 -72350.057 71709.523 -72445.295 71709.523 -72540.533 71661.904 -72683.39 71090.476 -73254.819 71709.523 -73254.819 M 94533.333 -64159.58 94485.714 -64207.2 94342.857 -64254.819 94247.619 -64254.819 94104.762 -64207.2 94009.524 -64111.961 93961.905 -64016.723 93914.286 -63826.247 93914.286 -63683.39 93961.905 -63492.914 94009.524 -63397.676 94104.762 -63302.438 94247.619 -63254.819 94342.857 -63254.819 94485.714 -63302.438 94533.333 -63350.057 M 94866.667 -63254.819 95533.333 -63254.819 95104.762 -64254.819 M 102954.819 -65433.333 103669.104 -65433.333 103811.961 -65480.952 103907.2 -65576.19 103954.819 -65719.047 103954.819 -65814.285 M 103954.819 -64957.142 102954.819 -64957.142 102954.819 -64576.19 103002.438 -64480.952 103050.057 -64433.333 103145.295 -64385.714 103288.152 -64385.714 103383.39 -64433.333 103431.009 -64480.952 103478.628 -64576.19 103478.628 -64957.142 M 103954.819 -63433.333 103954.819 -64004.761 M 103954.819 -63719.047 102954.819 -63719.047 103097.676 -63814.285 103192.914 -63909.523 103240.533 -64004.761 M 104054.819 -67766.666 103578.628 -68099.999 M 104054.819 -68338.094 103054.819 -68338.094 103054.819 -67957.142 103102.438 -67861.904 103150.057 -67814.285 103245.295 -67766.666 103388.152 -67766.666 103483.39 -67814.285 103531.009 -67861.904 103578.628 -67957.142 103578.628 -68338.094 M 103150.057 -67385.713 103102.438 -67338.094 103054.819 -67242.856 103054.819 -67004.761 103102.438 -66909.523 103150.057 -66861.904 103245.295 -66814.285 103340.533 -66814.285 103483.39 -66861.904 104054.819 -67433.332 104054.819 -66814.285 M 90938.095 -65554.819 90938.095 -66364.342 90985.714 -66459.58 91033.333 -66507.2 91128.571 -66554.819 91319.047 -66554.819 91414.285 -66507.2 91461.904 -66459.58 91509.523 -66364.342 91509.523 -65554.819 M 91890.476 -65554.819 92509.523 -65554.819 92176.19 -65935.771 92319.047 -65935.771 92414.285 -65983.39 92461.904 -66031.009 92509.523 -66126.247 92509.523 -66364.342 92461.904 -66459.58 92414.285 -66507.2 92319.047 -66554.819 92033.333 -66554.819 91938.095 -66507.2 91890.476 -66459.58 M 86623.809 -58678.628 86623.809 -59154.819 M 86290.476 -58154.819 86623.809 -58678.628 86957.142 -58154.819 M 87814.285 -59154.819 87242.857 -59154.819 M 87528.571 -59154.819 87528.571 -58154.819 87433.333 -58297.676 87338.095 -58392.914 87242.857 -58440.533 M 46866.666 -78454.819 46866.666 -79169.104 46819.047 -79311.961 46723.809 -79407.2 46580.952 -79454.819 46485.714 -79454.819 M 47295.238 -78550.057 47342.857 -78502.438 47438.095 -78454.819 47676.19 -78454.819 47771.428 -78502.438 47819.047 -78550.057 47866.666 -78645.295 47866.666 -78740.533 47819.047 -78883.39 47247.619 -79454.819 47866.666 -79454.819 M 44666.666 -71031.009 44333.333 -71031.009 M 44333.333 -71554.819 44333.333 -70554.819 44809.523 -70554.819 M 45714.285 -71554.819 45142.857 -71554.819 M 45428.571 -71554.819 45428.571 -70554.819 45333.333 -70697.676 45238.095 -70792.914 45142.857 -70840.533 M 45366.666 -56654.819 45366.666 -57369.104 45319.047 -57511.961 45223.809 -57607.2 45080.952 -57654.819 44985.714 -57654.819 M 46319.047 -56654.819 45842.857 -56654.819 45795.238 -57131.009 45842.857 -57083.39 45938.095 -57035.771 46176.19 -57035.771 46271.428 -57083.39 46319.047 -57131.009 46366.666 -57226.247 46366.666 -57464.342 46319.047 -57559.58 46271.428 -57607.2 46176.19 -57654.819 45938.095 -57654.819 45842.857 -57607.2 45795.238 -57559.58 M 66659.58 -59266.666 66707.2 -59314.285 66754.819 -59457.142 66754.819 -59552.38 66707.2 -59695.237 66611.961 -59790.475 66516.723 -59838.094 66326.247 -59885.713 66183.39 -59885.713 65992.914 -59838.094 65897.676 -59790.475 65802.438 -59695.237 65754.819 -59552.38 65754.819 -59457.142 65802.438 -59314.285 65850.057 -59266.666 M 65754.819 -58933.332 65754.819 -58314.285 66135.771 -58647.618 66135.771 -58504.761 66183.39 -58409.523 66231.009 -58361.904 66326.247 -58314.285 66564.342 -58314.285 66659.58 -58361.904 66707.2 -58409.523 66754.819 -58504.761 66754.819 -58790.475 66707.2 -58885.713 66659.58 -58933.332 M 67459.58 -64166.666 67507.2 -64214.285 67554.819 -64357.142 67554.819 -64452.38 67507.2 -64595.237 67411.961 -64690.475 67316.723 -64738.094 67126.247 -64785.713 66983.39 -64785.713 66792.914 -64738.094 66697.676 -64690.475 66602.438 -64595.237 66554.819 -64452.38 66554.819 -64357.142 66602.438 -64214.285 66650.057 -64166.666 M 66888.152 -63309.523 67554.819 -63309.523 M 66507.2 -63547.618 67221.485 -63785.713 67221.485 -63166.666 M 91966.666 -62654.819 91966.666 -63369.104 91919.047 -63511.961 91823.809 -63607.2 91680.952 -63654.819 91585.714 -63654.819 M 92347.619 -62654.819 92966.666 -62654.819 92633.333 -63035.771 92776.19 -63035.771 92871.428 -63083.39 92919.047 -63131.009 92966.666 -63226.247 92966.666 -63464.342 92919.047 -63559.58 92871.428 -63607.2 92776.19 -63654.819 92490.476 -63654.819 92395.238 -63607.2 92347.619 -63559.58 M 93557.142 -57054.819 93223.809 -56578.628 M 92985.714 -57054.819 92985.714 -56054.819 93366.666 -56054.819 93461.904 -56102.438 93509.523 -56150.057 93557.142 -56245.295 93557.142 -56388.152 93509.523 -56483.39 93461.904 -56531.009 93366.666 -56578.628 92985.714 -56578.628 M 94509.523 -57054.819 93938.095 -57054.819 M 94223.809 -57054.819 94223.809 -56054.819 94128.571 -56197.676 94033.333 -56292.914 93938.095 -56340.533 M 94890.476 -56150.057 94938.095 -56102.438 95033.333 -56054.819 95271.428 -56054.819 95366.666 -56102.438 95414.285 -56150.057 95461.904 -56245.295 95461.904 -56340.533 95414.285 -56483.39 94842.857 -57054.819 95461.904 -57054.819 M 97057.142 -57004.819 96723.809 -56528.628 M 96485.714 -57004.819 96485.714 -56004.819 96866.666 -56004.819 96961.904 -56052.438 97009.523 -56100.057 97057.142 -56195.295 97057.142 -56338.152 97009.523 -56433.39 96961.904 -56481.009 96866.666 -56528.628 96485.714 -56528.628 M 98009.523 -57004.819 97438.095 -57004.819 M 97723.809 -57004.819 97723.809 -56004.819 97628.571 -56147.676 97533.333 -56242.914 97438.095 -56290.533 M 98342.857 -56004.819 98961.904 -56004.819 98628.571 -56385.771 98771.428 -56385.771 98866.666 -56433.39 98914.285 -56481.009 98961.904 -56576.247 98961.904 -56814.342 98914.285 -56909.58 98866.666 -56957.2 98771.428 -57004.819 98485.714 -57004.819 98390.476 -56957.2 98342.857 -56909.58 M 104654.819 -58342.857 104178.628 -58676.19 M 104654.819 -58914.285 103654.819 -58914.285 103654.819 -58533.333 103702.438 -58438.095 103750.057 -58390.476 103845.295 -58342.857 103988.152 -58342.857 104083.39 -58390.476 104131.009 -58438.095 104178.628 -58533.333 104178.628 -58914.285 M 104654.819 -57390.476 104654.819 -57961.904 M 104654.819 -57676.19 103654.819 -57676.19 103797.676 -57771.428 103892.914 -57866.666 103940.533 -57961.904 M 103988.152 -56533.333 104654.819 -56533.333 M 103607.2 -56771.428 104321.485 -57009.523 104321.485 -56390.476 M 65657.142 -70159.58 65609.523 -70207.2 65466.666 -70254.819 65371.428 -70254.819 65228.571 -70207.2 65133.333 -70111.961 65085.714 -70016.723 65038.095 -69826.247 65038.095 -69683.39 65085.714 -69492.914 65133.333 -69397.676 65228.571 -69302.438 65371.428 -69254.819 65466.666 -69254.819 65609.523 -69302.438 65657.142 -69350.057 M 66609.523 -70254.819 66038.095 -70254.819 M 66323.809 -70254.819 66323.809 -69254.819 66228.571 -69397.676 66133.333 -69492.914 66038.095 -69540.533 M 66990.476 -69350.057 67038.095 -69302.438 67133.333 -69254.819 67371.428 -69254.819 67466.666 -69302.438 67514.285 -69350.057 67561.904 -69445.295 67561.904 -69540.533 67514.285 -69683.39 66942.857 -70254.819 67561.904 -70254.819 M 59808.333 -58454.819 59332.143 -58454.819 59332.143 -57454.819 M 60665.476 -58454.819 60094.048 -58454.819 M 60379.762 -58454.819 60379.762 -57454.819 60284.524 -57597.676 60189.286 -57692.914 60094.048 -57740.533 M 50354.819 -63961.904 51164.342 -63961.904 51259.58 -63914.285 51307.2 -63866.666 51354.819 -63771.428 51354.819 -63580.952 51307.2 -63485.714 51259.58 -63438.095 51164.342 -63390.476 50354.819 -63390.476 M 50688.152 -62485.714 51354.819 -62485.714 M 50307.2 -62723.809 51021.485 -62961.904 51021.485 -62342.857 M 65657.142 -68059.58 65609.523 -68107.2 65466.666 -68154.819 65371.428 -68154.819 65228.571 -68107.2 65133.333 -68011.961 65085.714 -67916.723 65038.095 -67726.247 65038.095 -67583.39 65085.714 -67392.914 65133.333 -67297.676 65228.571 -67202.438 65371.428 -67154.819 65466.666 -67154.819 65609.523 -67202.438 65657.142 -67250.057 M 66609.523 -68154.819 66038.095 -68154.819 M 66323.809 -68154.819 66323.809 -67154.819 66228.571 -67297.676 66133.333 -67392.914 66038.095 -67440.533 M 66942.857 -67154.819 67561.904 -67154.819 67228.571 -67535.771 67371.428 -67535.771 67466.666 -67583.39 67514.285 -67631.009 67561.904 -67726.247 67561.904 -67964.342 67514.285 -68059.58 67466.666 -68107.2 67371.428 -68154.819 67085.714 -68154.819 66990.476 -68107.2 66942.857 -68059.58 M 60054.819 -70238.094 59054.819 -70238.094 59054.819 -69999.999 59102.438 -69857.142 59197.676 -69761.904 59292.914 -69714.285 59483.39 -69666.666 59626.247 -69666.666 59816.723 -69714.285 59911.961 -69761.904 60007.2 -69857.142 60054.819 -69999.999 60054.819 -70238.094 M 59150.057 -69285.713 59102.438 -69238.094 59054.819 -69142.856 59054.819 -68904.761 59102.438 -68809.523 59150.057 -68761.904 59245.295 -68714.285 59340.533 -68714.285 59483.39 -68761.904 60054.819 -69333.332 60054.819 -68714.285 M 51733.333 -67059.58 51685.714 -67107.2 51542.857 -67154.819 51447.619 -67154.819 51304.762 -67107.2 51209.524 -67011.961 51161.905 -66916.723 51114.286 -66726.247 51114.286 -66583.39 51161.905 -66392.914 51209.524 -66297.676 51304.762 -66202.438 51447.619 -66154.819 51542.857 -66154.819 51685.714 -66202.438 51733.333 -66250.057 M 52209.524 -67154.819 52400 -67154.819 52495.238 -67107.2 52542.857 -67059.58 52638.095 -66916.723 52685.714 -66726.247 52685.714 -66345.295 52638.095 -66250.057 52590.476 -66202.438 52495.238 -66154.819 52304.762 -66154.819 52209.524 -66202.438 52161.905 -66250.057 52114.286 -66345.295 52114.286 -66583.39 52161.905 -66678.628 52209.524 -66726.247 52304.762 -66773.866 52495.238 -66773.866 52590.476 -66726.247 52638.095 -66678.628 52685.714 -66583.39 M 89457.142 -57054.819 89123.809 -56578.628 M 88885.714 -57054.819 88885.714 -56054.819 89266.666 -56054.819 89361.904 -56102.438 89409.523 -56150.057 89457.142 -56245.295 89457.142 -56388.152 89409.523 -56483.39 89361.904 -56531.009 89266.666 -56578.628 88885.714 -56578.628 M 90409.523 -57054.819 89838.095 -57054.819 M 90123.809 -57054.819 90123.809 -56054.819 90028.571 -56197.676 89933.333 -56292.914 89838.095 -56340.533 M 91361.904 -57054.819 90790.476 -57054.819 M 91076.19 -57054.819 91076.19 -56054.819 90980.952 -56197.676 90885.714 -56292.914 90790.476 -56340.533 M 46054.819 -73288.094 45054.819 -73288.094 45054.819 -73049.999 45102.438 -72907.142 45197.676 -72811.904 45292.914 -72764.285 45483.39 -72716.666 45626.247 -72716.666 45816.723 -72764.285 45911.961 -72811.904 46007.2 -72907.142 46054.819 -73049.999 46054.819 -73288.094 M 46054.819 -71764.285 46054.819 -72335.713 M 46054.819 -72049.999 45054.819 -72049.999 45197.676 -72145.237 45292.914 -72240.475 45340.533 -72335.713 M 53857.142 -59079.58 53809.523 -59127.2 53666.666 -59174.819 53571.428 -59174.819 53428.571 -59127.2 53333.333 -59031.961 53285.714 -58936.723 53238.095 -58746.247 53238.095 -58603.39 53285.714 -58412.914 53333.333 -58317.676 53428.571 -58222.438 53571.428 -58174.819 53666.666 -58174.819 53809.523 -58222.438 53857.142 -58270.057 M 54809.523 -59174.819 54238.095 -59174.819 M 54523.809 -59174.819 54523.809 -58174.819 54428.571 -58317.676 54333.333 -58412.914 54238.095 -58460.533 M 55428.571 -58174.819 55523.809 -58174.819 55619.047 -58222.438 55666.666 -58270.057 55714.285 -58365.295 55761.904 -58555.771 55761.904 -58793.866 55714.285 -58984.342 55666.666 -59079.58 55619.047 -59127.2 55523.809 -59174.819 55428.571 -59174.819 55333.333 -59127.2 55285.714 -59079.58 55238.095 -58984.342 55190.476 -58793.866 55190.476 -58555.771 55238.095 -58365.295 55285.714 -58270.057 55333.333 -58222.438 55428.571 -58174.819 M 66054.819 -74166.666 65578.628 -74499.999 M 66054.819 -74738.094 65054.819 -74738.094 65054.819 -74357.142 65102.438 -74261.904 65150.057 -74214.285 65245.295 -74166.666 65388.152 -74166.666 65483.39 -74214.285 65531.009 -74261.904 65578.628 -74357.142 65578.628 -74738.094 M 65054.819 -73261.904 65054.819 -73738.094 65531.009 -73785.713 65483.39 -73738.094 65435.771 -73642.856 65435.771 -73404.761 65483.39 -73309.523 65531.009 -73261.904 65626.247 -73214.285 65864.342 -73214.285 65959.58 -73261.904 66007.2 -73309.523 66054.819 -73404.761 66054.819 -73642.856 66007.2 -73738.094 65959.58 -73785.713 M 83333.333 -70559.58 83285.714 -70607.2 83142.857 -70654.819 83047.619 -70654.819 82904.762 -70607.2 82809.524 -70511.961 82761.905 -70416.723 82714.286 -70226.247 82714.286 -70083.39 82761.905 -69892.914 82809.524 -69797.676 82904.762 -69702.438 83047.619 -69654.819 83142.857 -69654.819 83285.714 -69702.438 83333.333 -69750.057 M 83714.286 -69750.057 83761.905 -69702.438 83857.143 -69654.819 84095.238 -69654.819 84190.476 -69702.438 84238.095 -69750.057 84285.714 -69845.295 84285.714 -69940.533 84238.095 -70083.39 83666.667 -70654.819 84285.714 -70654.819 M 49266.666 -57054.819 49266.666 -57769.104 49219.047 -57911.961 49123.809 -58007.2 48980.952 -58054.819 48885.714 -58054.819 M 49742.857 -58054.819 49742.857 -57054.819 50123.809 -57054.819 50219.047 -57102.438 50266.666 -57150.057 50314.285 -57245.295 50314.285 -57388.152 50266.666 -57483.39 50219.047 -57531.009 50123.809 -57578.628 49742.857 -57578.628 M 51219.047 -57054.819 50742.857 -57054.819 50695.238 -57531.009 50742.857 -57483.39 50838.095 -57435.771 51076.19 -57435.771 51171.428 -57483.39 51219.047 -57531.009 51266.666 -57626.247 51266.666 -57864.342 51219.047 -57959.58 51171.428 -58007.2 51076.19 -58054.819 50838.095 -58054.819 50742.857 -58007.2 50695.238 -57959.58" fill="none" stroke-width="150"/><path d="M 101252.064 -72335 100797.936 -72335 M 101252.064 -70865 100797.936 -70865 M 101252.064 -70335 100797.936 -70335 M 101252.064 -68865 100797.936 -68865 M 82765 -63261.252 82765 -62738.748 M 84235 -63261.252 84235 -62738.748 M 76635 -74138.748 76635 -74661.252 M 75165 -74138.748 75165 -74661.252 M 71927.064 -58735 71472.936 -58735 M 71927.064 -57265 71472.936 -57265 M 70115 -68860 70360 -68860 70360 -70675 M 81885 -68860 81640 -68860 M 70115 -65000 70115 -68860 M 70115 -65000 70115 -61140 M 81885 -65000 81885 -68860 M 81885 -65000 81885 -61140 M 70115 -61140 70360 -61140 M 81885 -61140 81640 -61140 M 70900 -78660 74350 -78660 M 70900 -78660 68950 -78660 M 70900 -73540 72850 -73540 M 70900 -73540 68950 -73540 M 94961.252 -66135 94438.748 -66135 M 94961.252 -64665 94438.748 -64665 M 97130 -65930 97130 -64600 M 98460 -65930 97130 -65930 M 99730 -65930 102330 -65930 M 99730 -65930 99730 -63270 M 102330 -65930 102330 -63270 M 99730 -63270 102330 -63270 M 101252.064 -68335 100797.936 -68335 M 101252.064 -66865 100797.936 -66865 M 94500 -67040 91050 -67040 M 94500 -67040 96450 -67040 M 94500 -72160 92550 -72160 M 94500 -72160 96450 -72160" fill="none" stroke-width="120"/><path d="M 83199.46 -77558.03 83242.711 -77571.245 83270.558 -77587.941 83279.629 -77601.145 83277.132 -77616.797 83260.931 -77641.385 83247.232 -77658.8 83218.992 -77690.283 83197.775 -77703.529 83179.688 -77702.664 83126.035 -77689.01 83086.63 -77689.63 83054.632 -77705.104 83043.89 -77714.161 83009.505 -77746.027 83009.505 -78162.179 82871.188 -78162.179 82871.188 -77558.614 82940.347 -77558.614 82981.869 -77560.256 83003.291 -77566.087 83009.502 -77577.461 83009.505 -77577.798 83012.439 -77589.713 83025.704 -77588.159 83044.084 -77579.563 83082.046 -77563.568 83112.872 -77553.945 83152.536 -77551.478 83199.46 -77558.03" fill="none" stroke-width="10"/><path d="M 83199.46 -77558.03 83242.711 -77571.245 83270.558 -77587.941 83279.629 -77601.145 83277.132 -77616.797 83260.931 -77641.385 83247.232 -77658.8 83218.992 -77690.283 83197.775 -77703.529 83179.688 -77702.664 83126.035 -77689.01 83086.63 -77689.63 83054.632 -77705.104 83043.89 -77714.161 83009.505 -77746.027 83009.505 -78162.179 82871.188 -78162.179 82871.188 -77558.614 82940.347 -77558.614 82981.869 -77560.256 83003.291 -77566.087 83009.502 -77577.461 83009.505 -77577.798 83012.439 -77589.713 83025.704 -77588.159 83044.084 -77579.563 83082.046 -77563.568 83112.872 -77553.945 83152.536 -77551.478 83199.46 -77558.03"/><path d="M 83035.255 -78501.486 83083.595 -78511.015 83111.114 -78525.125 83140.064 -78548.568 83098.876 -78600.571 83073.482 -78632.064 83056.238 -78647.428 83039.102 -78649.776 83014.027 -78642.217 83002.257 -78637.941 82954.27 -78631.631 82910.324 -78645.156 82878.06 -78675.71 82872.819 -78685.452 82867.112 -78711.258 82862.706 -78758.817 82859.811 -78824.758 82858.631 -78905.71 82858.614 -78917.226 82858.614 -79117.822 82720.297 -79117.822 82720.297 -78501.683 82789.456 -78501.683 82829.333 -78502.725 82850.107 -78507.358 82857.789 -78517.849 82858.614 -78527.745 82858.614 -78553.806 82891.745 -78527.745 82929.735 -78509.965 82980.77 -78501.174 83035.255 -78501.486" fill="none" stroke-width="10"/><path d="M 83035.255 -78501.486 83083.595 -78511.015 83111.114 -78525.125 83140.064 -78548.568 83098.876 -78600.571 83073.482 -78632.064 83056.238 -78647.428 83039.102 -78649.776 83014.027 -78642.217 83002.257 -78637.941 82954.27 -78631.631 82910.324 -78645.156 82878.06 -78675.71 82872.819 -78685.452 82867.112 -78711.258 82862.706 -78758.817 82859.811 -78824.758 82858.631 -78905.71 82858.614 -78917.226 82858.614 -79117.822 82720.297 -79117.822 82720.297 -78501.683 82789.456 -78501.683 82829.333 -78502.725 82850.107 -78507.358 82857.789 -78517.849 82858.614 -78527.745 82858.614 -78553.806 82891.745 -78527.745 82929.735 -78509.965 82980.77 -78501.174 83035.255 -78501.486"/><path d="M 80406.644 -78503.02 80425.461 -78508.66 80431.527 -78521.053 80431.782 -78526.647 80432.871 -78542.23 80440.368 -78544.676 80460.619 -78533.993 80472.649 -78526.694 80510.6 -78511.063 80555.928 -78503.334 80603.456 -78502.74 80648.005 -78508.513 80684.398 -78519.884 80707.457 -78536.088 80712.004 -78556.355 80709.709 -78561.843 80692.98 -78584.626 80667.037 -78612.647 80662.345 -78617.177 80637.617 -78638.005 80616.282 -78644.735 80586.445 -78640.038 80574.492 -78636.917 80537.295 -78629.421 80511.141 -78632.792 80489.054 -78644.681 80468.822 -78660.635 80453.921 -78680.7 80443.566 -78708.702 80436.971 -78748.467 80433.351 -78803.823 80431.922 -78878.594 80431.782 -78923.74 80431.782 -79117.822 80306.04 -79117.822 80306.04 -78501.683 80368.911 -78501.683 80406.644 -78503.02" fill="none" stroke-width="10"/><path d="M 80406.644 -78503.02 80425.461 -78508.66 80431.527 -78521.053 80431.782 -78526.647 80432.871 -78542.23 80440.368 -78544.676 80460.619 -78533.993 80472.649 -78526.694 80510.6 -78511.063 80555.928 -78503.334 80603.456 -78502.74 80648.005 -78508.513 80684.398 -78519.884 80707.457 -78536.088 80712.004 -78556.355 80709.709 -78561.843 80692.98 -78584.626 80667.037 -78612.647 80662.345 -78617.177 80637.617 -78638.005 80616.282 -78644.735 80586.445 -78640.038 80574.492 -78636.917 80537.295 -78629.421 80511.141 -78632.792 80489.054 -78644.681 80468.822 -78660.635 80453.921 -78680.7 80443.566 -78708.702 80436.971 -78748.467 80433.351 -78803.823 80431.922 -78878.594 80431.782 -78923.74 80431.782 -79117.822 80306.04 -79117.822 80306.04 -78501.683 80368.911 -78501.683 80406.644 -78503.02"/><path d="M 82393.367 -77754.342 82394.555 -77846.563 82398.897 -77916.61 82407.558 -77967.381 82421.704 -78001.772 82442.5 -78022.679 82471.11 -78033 82506.535 -78035.636 82543.636 -78032.682 82571.818 -78021.889 82592.243 -78000.36 82606.079 -77965.199 82614.491 -77913.51 82618.643 -77842.394 82619.703 -77754.342 82619.703 -77558.614 82758.02 -77558.614 82758.02 -78162.179 82688.862 -78162.179 82647.17 -78160.489 82625.701 -78154.556 82619.703 -78143.293 82616.091 -78133.261 82601.714 -78135.383 82572.736 -78149.58 82506.319 -78171.48 82435.875 -78169.928 82368.377 -78146.147 82336.233 -78127.362 82311.715 -78107.022 82293.804 -78081.573 82281.479 -78047.458 82273.723 -78001.121 82269.516 -77939.007 82267.84 -77857.561 82267.624 -77794.578 82267.624 -77558.614 82393.367 -77558.614 82393.367 -77754.342" fill="none" stroke-width="10"/><path d="M 82393.367 -77754.342 82394.555 -77846.563 82398.897 -77916.61 82407.558 -77967.381 82421.704 -78001.772 82442.5 -78022.679 82471.11 -78033 82506.535 -78035.636 82543.636 -78032.682 82571.818 -78021.889 82592.243 -78000.36 82606.079 -77965.199 82614.491 -77913.51 82618.643 -77842.394 82619.703 -77754.342 82619.703 -77558.614 82758.02 -77558.614 82758.02 -78162.179 82688.862 -78162.179 82647.17 -78160.489 82625.701 -78154.556 82619.703 -78143.293 82616.091 -78133.261 82601.714 -78135.383 82572.736 -78149.58 82506.319 -78171.48 82435.875 -78169.928 82368.377 -78146.147 82336.233 -78127.362 82311.715 -78107.022 82293.804 -78081.573 82281.479 -78047.458 82273.723 -78001.121 82269.516 -77939.007 82267.84 -77857.561 82267.624 -77794.578 82267.624 -77558.614 82393.367 -77558.614 82393.367 -77754.342"/><path d="M 80645.988 -77569.002 80677.283 -77583.95 80707.591 -77605.541 80730.682 -77630.391 80747.5 -77662.087 80758.994 -77704.214 80766.109 -77760.358 80769.793 -77834.106 80770.992 -77929.044 80771.011 -77938.985 80771.287 -78162.179 80632.97 -78162.179 80632.97 -77956.418 80632.872 -77880.189 80632.191 -77824.939 80630.349 -77786.501 80626.767 -77760.706 80620.868 -77743.384 80612.073 -77730.368 80599.82 -77717.507 80556.953 -77689.873 80510.157 -77684.745 80465.576 -77702.217 80450.072 -77715.221 80438.69 -77727.447 80430.519 -77740.54 80425.026 -77758.615 80421.68 -77785.787 80419.949 -77826.17 80419.303 -77883.879 80419.208 -77954.132 80419.208 -78162.179 80280.891 -78162.179 80280.891 -77558.614 80350.05 -77558.614 80391.572 -77560.256 80412.994 -77566.087 80419.205 -77577.461 80419.208 -77577.798 80422.09 -77588.938 80434.801 -77587.674 80460.074 -77575.434 80517.395 -77557.424 80582.963 -77555.421 80645.988 -77569.002" fill="none" stroke-width="10"/><path d="M 80645.988 -77569.002 80677.283 -77583.95 80707.591 -77605.541 80730.682 -77630.391 80747.5 -77662.087 80758.994 -77704.214 80766.109 -77760.358 80769.793 -77834.106 80770.992 -77929.044 80771.011 -77938.985 80771.287 -78162.179 80632.97 -78162.179 80632.97 -77956.418 80632.872 -77880.189 80632.191 -77824.939 80630.349 -77786.501 80626.767 -77760.706 80620.868 -77743.384 80612.073 -77730.368 80599.82 -77717.507 80556.953 -77689.873 80510.157 -77684.745 80465.576 -77702.217 80450.072 -77715.221 80438.69 -77727.447 80430.519 -77740.54 80425.026 -77758.615 80421.68 -77785.787 80419.949 -77826.17 80419.303 -77883.879 80419.208 -77954.132 80419.208 -78162.179 80280.891 -78162.179 80280.891 -77558.614 80350.05 -77558.614 80391.572 -77560.256 80412.994 -77566.087 80419.205 -77577.461 80419.208 -77577.798 80422.09 -77588.938 80434.801 -77587.674 80460.074 -77575.434 80517.395 -77557.424 80582.963 -77555.421 80645.988 -77569.002"/><path d="M 83617.226 -77563.88 83690.08 -77594.83 83713.027 -77609.895 83742.354 -77633.048 83760.764 -77651.253 83763.961 -77657.183 83754.935 -77670.34 83731.837 -77692.667 83713.344 -77708.25 83662.728 -77748.926 83622.76 -77715.295 83591.874 -77693.584 83561.759 -77686.09 83527.292 -77687.92 83472.561 -77701.528 83434.886 -77729.772 83411.991 -77775.433 83401.597 -77841.289 83401.595 -77841.331 83402.494 -77914.939 83416.463 -77968.946 83444.328 -78005.716 83463.325 -78018.168 83513.776 -78033.673 83567.663 -78033.683 83614.546 -78018.638 83625.644 -78011.287 83653.476 -77992.511 83675.236 -77989.434 83698.704 -78003.409 83724.649 -78028.51 83765.716 -78070.88 83720.121 -78108.464 83649.674 -78150.882 83570.233 -78171.785 83487.215 -78170.272 83432.694 -78156.411 83368.97 -78122.135 83318.005 -78068.212 83294.851 -78030.149 83276.099 -77975.536 83266.715 -77906.369 83266.643 -77831.407 83275.824 -77759.409 83294.199 -77699.137 83297.093 -77692.958 83339.952 -77632.351 83397.979 -77588.224 83466.591 -77561.493 83541.201 -77553.073 83617.226 -77563.88" fill="none" stroke-width="10"/><path d="M 83617.226 -77563.88 83690.08 -77594.83 83713.027 -77609.895 83742.354 -77633.048 83760.764 -77651.253 83763.961 -77657.183 83754.935 -77670.34 83731.837 -77692.667 83713.344 -77708.25 83662.728 -77748.926 83622.76 -77715.295 83591.874 -77693.584 83561.759 -77686.09 83527.292 -77687.92 83472.561 -77701.528 83434.886 -77729.772 83411.991 -77775.433 83401.597 -77841.289 83401.595 -77841.331 83402.494 -77914.939 83416.463 -77968.946 83444.328 -78005.716 83463.325 -78018.168 83513.776 -78033.673 83567.663 -78033.683 83614.546 -78018.638 83625.644 -78011.287 83653.476 -77992.511 83675.236 -77989.434 83698.704 -78003.409 83724.649 -78028.51 83765.716 -78070.88 83720.121 -78108.464 83649.674 -78150.882 83570.233 -78171.785 83487.215 -78170.272 83432.694 -78156.411 83368.97 -78122.135 83318.005 -78068.212 83294.851 -78030.149 83276.099 -77975.536 83266.715 -77906.369 83266.643 -77831.407 83275.824 -77759.409 83294.199 -77699.137 83297.093 -77692.958 83339.952 -77632.351 83397.979 -77588.224 83466.591 -77561.493 83541.201 -77553.073 83617.226 -77563.88"/><path d="M 82010.762 -77566.055 82074.363 -77600.692 82124.123 -77655.372 82147.568 -77699.842 82157.634 -77739.121 82164.156 -77795.116 82166.951 -77859.621 82165.836 -77924.429 82160.626 -77981.334 82154.541 -78011.727 82134.014 -78053.306 82098.463 -78097.468 82055.619 -78136.087 82013.211 -78161.034 82012.177 -78161.43 81959.553 -78172.331 81897.188 -78172.601 81837.924 -78162.676 81815.04 -78154.722 81756.102 -78121.3 81713.89 -78077.511 81686.156 -78019.538 81670.651 -77943.565 81667.143 -77903.771 81667.59 -77853.766 81802.376 -77853.766 81806.917 -77926.732 81819.986 -77982.334 81840.756 -78017.861 81855.552 -78028.02 81893.464 -78035.104 81938.527 -78033.007 81977.487 -78022.812 81987.704 -78017.204 82014.659 -77984.538 82032.451 -77934.545 82040.024 -77873.705 82036.325 -77808.497 82028.057 -77769.253 82004.32 -77723.805 81966.849 -77695.396 81921.72 -77685.573 81875.011 -77695.887 81839.132 -77721.112 81820.277 -77741.925 81809.272 -77762.439 81804.026 -77790.203 81802.449 -77832.762 81802.376 -77853.766 81667.59 -77853.766 81668.094 -77797.58 81685.388 -77710.501 81719.029 -77642.53 81769.018 -77593.664 81835.356 -77563.899 81849.601 -77560.448 81935.21 -77552.345 82010.762 -77566.055" fill="none" stroke-width="10"/><path d="M 82010.762 -77566.055 82074.363 -77600.692 82124.123 -77655.372 82147.568 -77699.842 82157.634 -77739.121 82164.156 -77795.116 82166.951 -77859.621 82165.836 -77924.429 82160.626 -77981.334 82154.541 -78011.727 82134.014 -78053.306 82098.463 -78097.468 82055.619 -78136.087 82013.211 -78161.034 82012.177 -78161.43 81959.553 -78172.331 81897.188 -78172.601 81837.924 -78162.676 81815.04 -78154.722 81756.102 -78121.3 81713.89 -78077.511 81686.156 -78019.538 81670.651 -77943.565 81667.143 -77903.771 81667.59 -77853.766 81802.376 -77853.766 81806.917 -77926.732 81819.986 -77982.334 81840.756 -78017.861 81855.552 -78028.02 81893.464 -78035.104 81938.527 -78033.007 81977.487 -78022.812 81987.704 -78017.204 82014.659 -77984.538 82032.451 -77934.545 82040.024 -77873.705 82036.325 -77808.497 82028.057 -77769.253 82004.32 -77723.805 81966.849 -77695.396 81921.72 -77685.573 81875.011 -77695.887 81839.132 -77721.112 81820.277 -77741.925 81809.272 -77762.439 81804.026 -77790.203 81802.449 -77832.762 81802.376 -77853.766 81667.59 -77853.766 81668.094 -77797.58 81685.388 -77710.501 81719.029 -77642.53 81769.018 -77593.664 81835.356 -77563.899 81849.601 -77560.448 81935.21 -77552.345 82010.762 -77566.055"/><path d="M 81681.524 -78504.237 81731.255 -78507.971 81861.291 -78897.773 81881.678 -78828.614 81893.946 -78785.874 81910.085 -78728.115 81927.512 -78664.625 81936.726 -78630.57 81971.388 -78501.683 82114.391 -78501.683 82071.646 -78636.857 82050.596 -78703.342 82025.167 -78783.539 81998.61 -78867.193 81974.902 -78941.782 81920.902 -79111.535 81862.598 -79115.328 81804.295 -79119.122 81772.679 -79014.734 81753.182 -78949.889 81731.904 -78878.4 81713.308 -78815.263 81712.574 -78812.75 81698.684 -78769.969 81686.429 -78740.779 81677.846 -78729.741 81676.082 -78731.018 81669.891 -78748.13 81658.128 -78784.787 81642.225 -78836.378 81623.614 -78898.294 81613.543 -78932.352 81559.007 -79117.822 81443.264 -79117.822 81350.737 -78825.471 81324.744 -78743.462 81301.066 -78668.987 81280.82 -78605.544 81265.126 -78556.632 81255.102 -78525.749 81252.055 -78516.726 81254.467 -78507.487 81273.408 -78503.441 81312.823 -78503.846 81318.993 -78504.152 81392.086 -78507.971 81439.957 -78684.01 81457.553 -78748.211 81473.277 -78804.649 81485.746 -78848.422 81493.574 -78874.63 81495.02 -78878.903 81501.014 -78873.99 81513.101 -78848.532 81529.893 -78805.997 81550.003 -78749.85 81567.003 -78699.13 81631.794 -78500.504 81681.524 -78504.237" fill="none" stroke-width="10"/><path d="M 81681.524 -78504.237 81731.255 -78507.971 81861.291 -78897.773 81881.678 -78828.614 81893.946 -78785.874 81910.085 -78728.115 81927.512 -78664.625 81936.726 -78630.57 81971.388 -78501.683 82114.391 -78501.683 82071.646 -78636.857 82050.596 -78703.342 82025.167 -78783.539 81998.61 -78867.193 81974.902 -78941.782 81920.902 -79111.535 81862.598 -79115.328 81804.295 -79119.122 81772.679 -79014.734 81753.182 -78949.889 81731.904 -78878.4 81713.308 -78815.263 81712.574 -78812.75 81698.684 -78769.969 81686.429 -78740.779 81677.846 -78729.741 81676.082 -78731.018 81669.891 -78748.13 81658.128 -78784.787 81642.225 -78836.378 81623.614 -78898.294 81613.543 -78932.352 81559.007 -79117.822 81443.264 -79117.822 81350.737 -78825.471 81324.744 -78743.462 81301.066 -78668.987 81280.82 -78605.544 81265.126 -78556.632 81255.102 -78525.749 81252.055 -78516.726 81254.467 -78507.487 81273.408 -78503.441 81312.823 -78503.846 81318.993 -78504.152 81392.086 -78507.971 81439.957 -78684.01 81457.553 -78748.211 81473.277 -78804.649 81485.746 -78848.422 81493.574 -78874.63 81495.02 -78878.903 81501.014 -78873.99 81513.101 -78848.532 81529.893 -78805.997 81550.003 -78749.85 81567.003 -78699.13 81631.794 -78500.504 81681.524 -78504.237"/><path d="M 78861.739 -77565.148 78927.521 -77594.231 78977.46 -77642.793 79011.626 -77710.908 79030.093 -77798.651 79031.417 -77812.351 79032.454 -77908.939 79019.007 -77993.602 78991.892 -78062.221 78977.373 -78084.294 78926.799 -78131.011 78862.391 -78161.268 78790.334 -78173.824 78716.815 -78167.439 78660.928 -78147.772 78612.868 -78114.629 78573.588 -78071.175 78572.908 -78070.158 78556.956 -78043.338 78546.59 -78016.368 78540.312 -77982.332 78536.627 -77934.31 78535.003 -77894.931 78534.328 -77859.219 78660.045 -77859.219 78661.274 -77894.77 78665.734 -77942.094 78673.603 -77972.465 78687.793 -77994.072 78701.083 -78006.694 78748.198 -78033.122 78797.495 -78036.653 78843.407 -78017.639 78866.362 -77996.331 78882.904 -77974.859 78892.579 -77954.313 78896.826 -77927.574 78897.08 -77887.523 78895.772 -77850.638 78892.957 -77797.947 78888.495 -77763.772 78880.452 -77741.48 78866.897 -77724.442 78856.155 -77714.703 78811.223 -77689.123 78762.751 -77687.847 78722.106 -77702.999 78687.433 -77734.642 78666.776 -77786.62 78660.045 -77859.219 78534.328 -77859.219 78533.521 -77816.621 78536.052 -77758.056 78543.638 -77714.007 78557.319 -77679.248 78578.135 -77648.551 78585.853 -77639.436 78634.111 -77594.021 78685.872 -77567.493 78749.172 -77556.379 78780.039 -77555.471 78861.739 -77565.148" fill="none" stroke-width="10"/><path d="M 78861.739 -77565.148 78927.521 -77594.231 78977.46 -77642.793 79011.626 -77710.908 79030.093 -77798.651 79031.417 -77812.351 79032.454 -77908.939 79019.007 -77993.602 78991.892 -78062.221 78977.373 -78084.294 78926.799 -78131.011 78862.391 -78161.268 78790.334 -78173.824 78716.815 -78167.439 78660.928 -78147.772 78612.868 -78114.629 78573.588 -78071.175 78572.908 -78070.158 78556.956 -78043.338 78546.59 -78016.368 78540.312 -77982.332 78536.627 -77934.31 78535.003 -77894.931 78534.328 -77859.219 78660.045 -77859.219 78661.274 -77894.77 78665.734 -77942.094 78673.603 -77972.465 78687.793 -77994.072 78701.083 -78006.694 78748.198 -78033.122 78797.495 -78036.653 78843.407 -78017.639 78866.362 -77996.331 78882.904 -77974.859 78892.579 -77954.313 78896.826 -77927.574 78897.08 -77887.523 78895.772 -77850.638 78892.957 -77797.947 78888.495 -77763.772 78880.452 -77741.48 78866.897 -77724.442 78856.155 -77714.703 78811.223 -77689.123 78762.751 -77687.847 78722.106 -77702.999 78687.433 -77734.642 78666.776 -77786.62 78660.045 -77859.219 78534.328 -77859.219 78533.521 -77816.621 78536.052 -77758.056 78543.638 -77714.007 78557.319 -77679.248 78578.135 -77648.551 78585.853 -77639.436 78634.111 -77594.021 78685.872 -77567.493 78749.172 -77556.379 78780.039 -77555.471 78861.739 -77565.148"/><path d="M 81198.812 -79117.822 81129.654 -79117.822 81089.512 -79116.645 81068.606 -79111.772 81061.078 -79101.186 81060.495 -79094.029 81059.226 -79079.676 81051.221 -79076.923 81030.185 -79085.771 81013.827 -79094.029 80951.023 -79113.597 80882.752 -79114.729 80827.248 -79100.135 80775.562 -79064.877 80736.162 -79012.835 80714.587 -78951.45 80714.038 -78948.018 80710.833 -78910.571 80709.239 -78856.813 80709.367 -78816.155 80846.721 -78816.155 80849.903 -78870.194 80857.141 -78914.735 80866.94 -78939.888 80904.011 -78974.26 80948.026 -78986.582 80993.416 -78976.618 81032.203 -78946.895 81046.892 -78926.905 81055.481 -78903.05 81059.504 -78868.23 81060.495 -78815.93 81058.722 -78764.139 81054.037 -78718.634 81047.397 -78688.181 81046.29 -78685.452 81019.509 -78653 80980.421 -78635.183 80936.685 -78632.306 80895.962 -78644.674 80865.913 -78672.593 80862.796 -78678.148 80853.039 -78712.022 80847.723 -78760.728 80846.721 -78816.155 80709.367 -78816.155 80709.432 -78795.54 80710.336 -78762.563 80716.486 -78680.981 80729.267 -78619.73 80750.529 -78574.449 80782.122 -78540.779 80812.793 -78521.014 80855.646 -78507.12 80908.944 -78502.354 80963.52 -78506.236 81010.208 -78518.282 81034.876 -78532.693 81060.495 -78555.878 81060.495 -78262.773 81198.812 -78262.773 81198.812 -79117.822" fill="none" stroke-width="10"/><path d="M 81198.812 -79117.822 81129.654 -79117.822 81089.512 -79116.645 81068.606 -79111.772 81061.078 -79101.186 81060.495 -79094.029 81059.226 -79079.676 81051.221 -79076.923 81030.185 -79085.771 81013.827 -79094.029 80951.023 -79113.597 80882.752 -79114.729 80827.248 -79100.135 80775.562 -79064.877 80736.162 -79012.835 80714.587 -78951.45 80714.038 -78948.018 80710.833 -78910.571 80709.239 -78856.813 80709.367 -78816.155 80846.721 -78816.155 80849.903 -78870.194 80857.141 -78914.735 80866.94 -78939.888 80904.011 -78974.26 80948.026 -78986.582 80993.416 -78976.618 81032.203 -78946.895 81046.892 -78926.905 81055.481 -78903.05 81059.504 -78868.23 81060.495 -78815.93 81058.722 -78764.139 81054.037 -78718.634 81047.397 -78688.181 81046.29 -78685.452 81019.509 -78653 80980.421 -78635.183 80936.685 -78632.306 80895.962 -78644.674 80865.913 -78672.593 80862.796 -78678.148 80853.039 -78712.022 80847.723 -78760.728 80846.721 -78816.155 80709.367 -78816.155 80709.432 -78795.54 80710.336 -78762.563 80716.486 -78680.981 80729.267 -78619.73 80750.529 -78574.449 80782.122 -78540.779 80812.793 -78521.014 80855.646 -78507.12 80908.944 -78502.354 80963.52 -78506.236 81010.208 -78518.282 81034.876 -78532.693 81060.495 -78555.878 81060.495 -78262.773 81198.812 -78262.773 81198.812 -79117.822"/><path d="M 84077.898 -77556.457 84110.096 -77564.279 84171.825 -77592.921 84224.61 -77636.667 84261.141 -77689.117 84266.16 -77700.893 84273.045 -77731.74 84277.864 -77777.371 84279.505 -77823.492 84279.505 -77910.693 84097.178 -77910.693 84021.979 -77910.978 83969.003 -77912.704 83935.325 -77917.181 83918.02 -77925.72 83914.163 -77939.63 83920.829 -77960.222 83932.77 -77984.315 83966.08 -78024.525 84012.368 -78044.558 84068.944 -78043.905 84133.031 -78022.101 84188.417 -77995.193 84234.375 -78031.532 84280.333 -78067.872 84237.096 -78107.819 84179.374 -78145.563 84108.386 -78168.32 84032.029 -78174.688 83958.199 -78163.268 83946.287 -78159.393 83881.399 -78125.506 83833.13 -78074.986 83800.465 -78006.325 83782.385 -77918.014 83782.175 -77916.121 83780.556 -77819.878 83787.1 -77785.542 83914.852 -77785.542 83926.584 -77790.822 83958.438 -77794.867 84005.397 -77797.176 84035.154 -77797.525 84090.648 -77797.306 84125.346 -77795.916 84143.601 -77792.251 84149.766 -77785.21 84148.195 -77773.69 84146.878 -77769.233 84124.382 -77727.355 84089.003 -77693.604 84057.78 -77678.773 84016.301 -77679.668 83974.269 -77698.164 83939.012 -77728.786 83917.854 -77766.062 83914.852 -77785.542 83787.1 -77785.542 83796.69 -77735.229 83828.698 -77664.191 83874.701 -77608.779 83932.821 -77571.009 84001.18 -77552.896 84077.898 -77556.457" fill="none" stroke-width="10"/><path d="M 84077.898 -77556.457 84110.096 -77564.279 84171.825 -77592.921 84224.61 -77636.667 84261.141 -77689.117 84266.16 -77700.893 84273.045 -77731.74 84277.864 -77777.371 84279.505 -77823.492 84279.505 -77910.693 84097.178 -77910.693 84021.979 -77910.978 83969.003 -77912.704 83935.325 -77917.181 83918.02 -77925.72 83914.163 -77939.63 83920.829 -77960.222 83932.77 -77984.315 83966.08 -78024.525 84012.368 -78044.558 84068.944 -78043.905 84133.031 -78022.101 84188.417 -77995.193 84234.375 -78031.532 84280.333 -78067.872 84237.096 -78107.819 84179.374 -78145.563 84108.386 -78168.32 84032.029 -78174.688 83958.199 -78163.268 83946.287 -78159.393 83881.399 -78125.506 83833.13 -78074.986 83800.465 -78006.325 83782.385 -77918.014 83782.175 -77916.121 83780.556 -77819.878 83787.1 -77785.542 83914.852 -77785.542 83926.584 -77790.822 83958.438 -77794.867 84005.397 -77797.176 84035.154 -77797.525 84090.648 -77797.306 84125.346 -77795.916 84143.601 -77792.251 84149.766 -77785.21 84148.195 -77773.69 84146.878 -77769.233 84124.382 -77727.355 84089.003 -77693.604 84057.78 -77678.773 84016.301 -77679.668 83974.269 -77698.164 83939.012 -77728.786 83917.854 -77766.062 83914.852 -77785.542 83787.1 -77785.542 83796.69 -77735.229 83828.698 -77664.191 83874.701 -77608.779 83932.821 -77571.009 84001.18 -77552.896 84077.898 -77556.457"/><path d="M 81414.017 -77556.452 81461.634 -77565.482 81511.034 -77584.37 81516.312 -77586.777 81553.774 -77606.476 81579.717 -77624.781 81588.103 -77636.508 81580.117 -77655.632 81560.72 -77683.85 81552.11 -77694.384 81516.628 -77735.847 81470.885 -77708.858 81427.35 -77690.878 81377.05 -77681.267 81328.812 -77680.66 81291.467 -77689.691 81282.505 -77695.327 81265.437 -77721.171 81263.363 -77750.941 81276.134 -77774.197 81283.688 -77778.708 81306.325 -77784.309 81346.115 -77790.892 81395.166 -77797.183 81404.215 -77798.17 81482.996 -77811.798 81540.136 -77834.946 81578.03 -77869.752 81599.079 -77918.354 81605.635 -77977.718 81596.577 -78045.198 81567.164 -78098.188 81517.278 -78136.783 81446.8 -78161.081 81368.565 -78170.667 81304.766 -78170.552 81253.016 -78161.845 81217.673 -78149.825 81173.017 -78128.88 81131.747 -78104.574 81117.079 -78093.876 81079.357 -78063.084 81124.852 -78017.049 81170.347 -77971.013 81222.072 -78005.243 81273.952 -78030.952 81329.351 -78044.399 81382.605 -78045.818 81428.049 -78035.443 81460.016 -78013.507 81470.338 -77994.998 81468.789 -77965.314 81443.14 -77942.615 81393.46 -77926.94 81339.031 -77919.695 81255.264 -77905.873 81193.033 -77879.796 81151.507 -77840.699 81129.853 -77787.82 81126.853 -77725.126 81141.671 -77659.642 81175.454 -77610.144 81228.505 -77576.408 81301.126 -77558.207 81354.928 -77554.639 81414.017 -77556.452" fill="none" stroke-width="10"/><path d="M 81414.017 -77556.452 81461.634 -77565.482 81511.034 -77584.37 81516.312 -77586.777 81553.774 -77606.476 81579.717 -77624.781 81588.103 -77636.508 81580.117 -77655.632 81560.72 -77683.85 81552.11 -77694.384 81516.628 -77735.847 81470.885 -77708.858 81427.35 -77690.878 81377.05 -77681.267 81328.812 -77680.66 81291.467 -77689.691 81282.505 -77695.327 81265.437 -77721.171 81263.363 -77750.941 81276.134 -77774.197 81283.688 -77778.708 81306.325 -77784.309 81346.115 -77790.892 81395.166 -77797.183 81404.215 -77798.17 81482.996 -77811.798 81540.136 -77834.946 81578.03 -77869.752 81599.079 -77918.354 81605.635 -77977.718 81596.577 -78045.198 81567.164 -78098.188 81517.278 -78136.783 81446.8 -78161.081 81368.565 -78170.667 81304.766 -78170.552 81253.016 -78161.845 81217.673 -78149.825 81173.017 -78128.88 81131.747 -78104.574 81117.079 -78093.876 81079.357 -78063.084 81124.852 -78017.049 81170.347 -77971.013 81222.072 -78005.243 81273.952 -78030.952 81329.351 -78044.399 81382.605 -78045.818 81428.049 -78035.443 81460.016 -78013.507 81470.338 -77994.998 81468.789 -77965.314 81443.14 -77942.615 81393.46 -77926.94 81339.031 -77919.695 81255.264 -77905.873 81193.033 -77879.796 81151.507 -77840.699 81129.853 -77787.82 81126.853 -77725.126 81141.671 -77659.642 81175.454 -77610.144 81228.505 -77576.408 81301.126 -77558.207 81354.928 -77554.639 81414.017 -77556.452"/><path d="M 83432.581 -78504.97 83492.685 -78520.597 83543.021 -78552.848 83567.393 -78576.94 83607.345 -78633.895 83630.242 -78699.965 83638.108 -78781.182 83638.148 -78787.748 83638.218 -78853.763 83258.264 -78853.763 83266.363 -78888.342 83280.987 -78919.659 83306.581 -78952.291 83311.935 -78957.5 83357.943 -78985.694 83410.41 -78990.475 83470.803 -78971.926 83481.04 -78966.931 83512.439 -78951.745 83533.47 -78943.094 83537.139 -78942.293 83549.948 -78950.063 83574.378 -78969.072 83586.779 -78979.46 83612.476 -79003.321 83620.915 -79019.077 83615.058 -79033.571 83611.928 -79037.534 83590.725 -79054.879 83555.738 -79075.959 83531.337 -79088.265 83462.072 -79109.946 83385.388 -79116.971 83312.765 -79108.647 83292.426 -79102.686 83229.476 -79068.952 83182.815 -79017.045 83152.173 -78946.459 83137.282 -78856.692 83135.647 -78809.753 83140.421 -78741.413 83260.99 -78741.413 83272.652 -78746.465 83303.998 -78750.429 83349.571 -78752.768 83380.446 -78753.169 83435.981 -78752.783 83471.033 -78750.975 83490.262 -78746.773 83498.33 -78739.203 83499.901 -78728.218 83489.121 -78694.381 83461.98 -78660.94 83426.277 -78635.272 83390.56 -78624.772 83342.048 -78634.086 83300.053 -78661.013 83270.936 -78699.827 83260.99 -78741.413 83140.421 -78741.413 83142.599 -78710.236 83164.055 -78630.949 83200.47 -78571.263 83252.297 -78530.549 83319.99 -78508.179 83356.662 -78503.871 83432.581 -78504.97" fill="none" stroke-width="10"/><path d="M 83432.581 -78504.97 83492.685 -78520.597 83543.021 -78552.848 83567.393 -78576.94 83607.345 -78633.895 83630.242 -78699.965 83638.108 -78781.182 83638.148 -78787.748 83638.218 -78853.763 83258.264 -78853.763 83266.363 -78888.342 83280.987 -78919.659 83306.581 -78952.291 83311.935 -78957.5 83357.943 -78985.694 83410.41 -78990.475 83470.803 -78971.926 83481.04 -78966.931 83512.439 -78951.745 83533.47 -78943.094 83537.139 -78942.293 83549.948 -78950.063 83574.378 -78969.072 83586.779 -78979.46 83612.476 -79003.321 83620.915 -79019.077 83615.058 -79033.571 83611.928 -79037.534 83590.725 -79054.879 83555.738 -79075.959 83531.337 -79088.265 83462.072 -79109.946 83385.388 -79116.971 83312.765 -79108.647 83292.426 -79102.686 83229.476 -79068.952 83182.815 -79017.045 83152.173 -78946.459 83137.282 -78856.692 83135.647 -78809.753 83140.421 -78741.413 83260.99 -78741.413 83272.652 -78746.465 83303.998 -78750.429 83349.571 -78752.768 83380.446 -78753.169 83435.981 -78752.783 83471.033 -78750.975 83490.262 -78746.773 83498.33 -78739.203 83499.901 -78728.218 83489.121 -78694.381 83461.98 -78660.94 83426.277 -78635.272 83390.56 -78624.772 83342.048 -78634.086 83300.053 -78661.013 83270.936 -78699.827 83260.99 -78741.413 83140.421 -78741.413 83142.599 -78710.236 83164.055 -78630.949 83200.47 -78571.263 83252.297 -78530.549 83319.99 -78508.179 83356.662 -78503.871 83432.581 -78504.97"/><path d="M 80043.301 -77572.614 80055.832 -77578.514 80099.201 -77610.283 80140.21 -77656.646 80170.832 -77707.696 80179.541 -77731.166 80187.488 -77773.091 80192.226 -77823.757 80192.801 -77844.679 80192.871 -77910.693 79812.917 -77910.693 79821.017 -77945.273 79840.896 -77986.17 79875.653 -78021.514 79917.002 -78044.282 79943.351 -78049.01 79979.084 -78043.273 80021.718 -78028.882 80036.201 -78022.262 80089.76 -77995.513 80135.467 -78030.376 80161.842 -78053.955 80175.876 -78073.417 80176.586 -78079.129 80164.049 -78092.973 80136.572 -78114.012 80111.634 -78130.425 80044.336 -78159.93 79968.89 -78173.284 79894.112 -78169.812 79834.505 -78151.663 79773.059 -78112.784 79729.392 -78061.595 79702.074 -77995.367 79689.678 -77911.371 79688.579 -77872.936 79692.978 -77784.861 79693.518 -77782.299 79819.418 -77782.299 79822.885 -77790.558 79837.137 -77795.113 79866.53 -77797.065 79915.425 -77797.517 79934.252 -77797.525 79991.533 -77796.843 80027.859 -77794.364 80047.396 -77789.443 80054.31 -77781.434 80054.555 -77778.862 80046.664 -77758.423 80026.915 -77729.789 80018.425 -77719.763 79986.906 -77691.408 79954.051 -77680.259 79936.349 -77679.327 79888.461 -77690.981 79848.301 -77722.285 79822.827 -77767.752 79822.375 -77769.233 79819.418 -77782.299 79693.518 -77782.299 79707.608 -77715.51 79733.962 -77660.025 79766.193 -77620.639 79825.783 -77577.931 79895.832 -77555.109 79970.339 -77553.046 80043.301 -77572.614" fill="none" stroke-width="10"/><path d="M 80043.301 -77572.614 80055.832 -77578.514 80099.201 -77610.283 80140.21 -77656.646 80170.832 -77707.696 80179.541 -77731.166 80187.488 -77773.091 80192.226 -77823.757 80192.801 -77844.679 80192.871 -77910.693 79812.917 -77910.693 79821.017 -77945.273 79840.896 -77986.17 79875.653 -78021.514 79917.002 -78044.282 79943.351 -78049.01 79979.084 -78043.273 80021.718 -78028.882 80036.201 -78022.262 80089.76 -77995.513 80135.467 -78030.376 80161.842 -78053.955 80175.876 -78073.417 80176.586 -78079.129 80164.049 -78092.973 80136.572 -78114.012 80111.634 -78130.425 80044.336 -78159.93 79968.89 -78173.284 79894.112 -78169.812 79834.505 -78151.663 79773.059 -78112.784 79729.392 -78061.595 79702.074 -77995.367 79689.678 -77911.371 79688.579 -77872.936 79692.978 -77784.861 79693.518 -77782.299 79819.418 -77782.299 79822.885 -77790.558 79837.137 -77795.113 79866.53 -77797.065 79915.425 -77797.517 79934.252 -77797.525 79991.533 -77796.843 80027.859 -77794.364 80047.396 -77789.443 80054.31 -77781.434 80054.555 -77778.862 80046.664 -77758.423 80026.915 -77729.789 80018.425 -77719.763 79986.906 -77691.408 79954.051 -77680.259 79936.349 -77679.327 79888.461 -77690.981 79848.301 -77722.285 79822.827 -77767.752 79822.375 -77769.233 79819.418 -77782.299 79693.518 -77782.299 79707.608 -77715.51 79733.962 -77660.025 79766.193 -77620.639 79825.783 -77577.931 79895.832 -77555.109 79970.339 -77553.046 80043.301 -77572.614"/><path d="M 82438.411 -78505.417 82491.411 -78518.29 82506.731 -78525.11 82536.428 -78542.974 82559.22 -78563.093 82576.083 -78588.962 82587.998 -78624.073 82595.942 -78671.92 82600.894 -78735.996 82603.831 -78819.794 82604.947 -78875.768 82609.052 -79117.822 82538.932 -79117.822 82496.393 -79116.038 82474.476 -79109.942 82468.812 -79099.706 82465.821 -79088.637 82452.451 -79090.754 82434.233 -79099.629 82388.624 -79113.233 82330.007 -79116.899 82268.354 -79110.903 82213.638 -79095.521 82208.73 -79093.386 82158.723 -79058.255 82125.756 -79009.419 82110.587 -78952.333 82111.746 -78931.824 82235.508 -78931.824 82246.413 -78959.425 82278.745 -78979.204 82330.91 -78989.819 82358.787 -78991.228 82405.247 -78987.62 82436.129 -78973.597 82443.664 -78966.931 82464.076 -78930.666 82468.812 -78897.773 82468.812 -78853.763 82407.513 -78853.763 82336.256 -78857.395 82286.276 -78868.818 82254.696 -78888.824 82247.626 -78897.743 82235.508 -78931.824 82111.746 -78931.824 82113.971 -78892.456 82136.663 -78835.244 82167.624 -78796.58 82186.376 -78779.864 82204.733 -78768.878 82228.619 -78762.18 82263.957 -78758.326 82316.669 -78755.873 82337.577 -78755.168 82468.812 -78750.879 82468.62 -78711.158 82463.537 -78669.405 82445.162 -78644.158 82408.039 -78628.03 82407.043 -78627.742 82354.41 -78621.4 82302.906 -78629.684 82264.63 -78649.827 82249.272 -78659.773 82232.73 -78658.397 82207.275 -78643.987 82192.328 -78633.817 82163.091 -78612.088 82144.98 -78595.8 82142.074 -78591.137 82154.04 -78567.005 82189.396 -78538.185 82204.753 -78528.461 82248.901 -78511.714 82308.398 -78502.227 82374.487 -78500.095 82438.411 -78505.417" fill="none" stroke-width="10"/><path d="M 82438.411 -78505.417 82491.411 -78518.29 82506.731 -78525.11 82536.428 -78542.974 82559.22 -78563.093 82576.083 -78588.962 82587.998 -78624.073 82595.942 -78671.92 82600.894 -78735.996 82603.831 -78819.794 82604.947 -78875.768 82609.052 -79117.822 82538.932 -79117.822 82496.393 -79116.038 82474.476 -79109.942 82468.812 -79099.706 82465.821 -79088.637 82452.451 -79090.754 82434.233 -79099.629 82388.624 -79113.233 82330.007 -79116.899 82268.354 -79110.903 82213.638 -79095.521 82208.73 -79093.386 82158.723 -79058.255 82125.756 -79009.419 82110.587 -78952.333 82111.746 -78931.824 82235.508 -78931.824 82246.413 -78959.425 82278.745 -78979.204 82330.91 -78989.819 82358.787 -78991.228 82405.247 -78987.62 82436.129 -78973.597 82443.664 -78966.931 82464.076 -78930.666 82468.812 -78897.773 82468.812 -78853.763 82407.513 -78853.763 82336.256 -78857.395 82286.276 -78868.818 82254.696 -78888.824 82247.626 -78897.743 82235.508 -78931.824 82111.746 -78931.824 82113.971 -78892.456 82136.663 -78835.244 82167.624 -78796.58 82186.376 -78779.864 82204.733 -78768.878 82228.619 -78762.18 82263.957 -78758.326 82316.669 -78755.873 82337.577 -78755.168 82468.812 -78750.879 82468.62 -78711.158 82463.537 -78669.405 82445.162 -78644.158 82408.039 -78628.03 82407.043 -78627.742 82354.41 -78621.4 82302.906 -78629.684 82264.63 -78649.827 82249.272 -78659.773 82232.73 -78658.397 82207.275 -78643.987 82192.328 -78633.817 82163.091 -78612.088 82144.98 -78595.8 82142.074 -78591.137 82154.04 -78567.005 82189.396 -78538.185 82204.753 -78528.461 82248.901 -78511.714 82308.398 -78502.227 82374.487 -78500.095 82438.411 -78505.417"/><path d="M 80015.79 -78506.555 80074.945 -78522.339 80119.977 -78550.948 80151.754 -78588.419 80161.634 -78604.411 80168.927 -78621.163 80174.026 -78642.592 80177.321 -78672.616 80179.203 -78715.154 80180.063 -78774.122 80180.293 -78853.44 80180.297 -78874.484 80180.297 -79117.822 80119.941 -79117.822 80081.443 -79115.126 80052.977 -79108.295 80045.845 -79104.083 80026.348 -79096.813 80006.434 -79104.083 79973.647 -79113.16 79926.022 -79116.813 79873.236 -79115.228 79824.964 -79108.589 79796.782 -79100.072 79742.247 -79065.063 79708.165 -79016.479 79692.843 -78951.882 79692.701 -78950.223 79694.045 -78921.566 79815.644 -78921.566 79826.274 -78954.161 79843.59 -78972.505 79878.348 -78986.379 79924.227 -78991.917 79971.012 -78989.191 80008.486 -78978.274 80018.985 -78971.269 80037.332 -78938.904 80041.98 -78902.111 80041.98 -78853.763 79972.418 -78853.763 79906.333 -78858.85 79856.236 -78873.263 79825.071 -78895.729 79815.644 -78921.566 79694.045 -78921.566 79696.013 -78879.647 79719.29 -78823.845 79763.052 -78781.647 79769.101 -78777.808 79795.093 -78765.309 79827.265 -78757.74 79872.24 -78754.061 79925.669 -78753.216 80041.98 -78753.169 80041.98 -78704.411 80037.047 -78666.581 80024.457 -78641.236 80022.983 -78639.887 79994.966 -78628.8 79952.674 -78624.503 79905.936 -78626.615 79864.582 -78634.756 79840.043 -78646.965 79826.747 -78656.746 79812.706 -78658.613 79793.329 -78650.6 79764.024 -78630.739 79720.197 -78597.063 79716.175 -78593.909 79718.236 -78582.236 79735.432 -78562.822 79761.567 -78541.248 79790.448 -78523.096 79799.522 -78518.809 79832.62 -78510.256 79881.12 -78504.155 79935.305 -78501.708 79937.839 -78501.703 80015.79 -78506.555" fill="none" stroke-width="10"/><path d="M 80015.79 -78506.555 80074.945 -78522.339 80119.977 -78550.948 80151.754 -78588.419 80161.634 -78604.411 80168.927 -78621.163 80174.026 -78642.592 80177.321 -78672.616 80179.203 -78715.154 80180.063 -78774.122 80180.293 -78853.44 80180.297 -78874.484 80180.297 -79117.822 80119.941 -79117.822 80081.443 -79115.126 80052.977 -79108.295 80045.845 -79104.083 80026.348 -79096.813 80006.434 -79104.083 79973.647 -79113.16 79926.022 -79116.813 79873.236 -79115.228 79824.964 -79108.589 79796.782 -79100.072 79742.247 -79065.063 79708.165 -79016.479 79692.843 -78951.882 79692.701 -78950.223 79694.045 -78921.566 79815.644 -78921.566 79826.274 -78954.161 79843.59 -78972.505 79878.348 -78986.379 79924.227 -78991.917 79971.012 -78989.191 80008.486 -78978.274 80018.985 -78971.269 80037.332 -78938.904 80041.98 -78902.111 80041.98 -78853.763 79972.418 -78853.763 79906.333 -78858.85 79856.236 -78873.263 79825.071 -78895.729 79815.644 -78921.566 79694.045 -78921.566 79696.013 -78879.647 79719.29 -78823.845 79763.052 -78781.647 79769.101 -78777.808 79795.093 -78765.309 79827.265 -78757.74 79872.24 -78754.061 79925.669 -78753.216 80041.98 -78753.169 80041.98 -78704.411 80037.047 -78666.581 80024.457 -78641.236 80022.983 -78639.887 79994.966 -78628.8 79952.674 -78624.503 79905.936 -78626.615 79864.582 -78634.756 79840.043 -78646.965 79826.747 -78656.746 79812.706 -78658.613 79793.329 -78650.6 79764.024 -78630.739 79720.197 -78597.063 79716.175 -78593.909 79718.236 -78582.236 79735.432 -78562.822 79761.567 -78541.248 79790.448 -78523.096 79799.522 -78518.809 79832.62 -78510.256 79881.12 -78504.155 79935.305 -78501.708 79937.839 -78501.703 80015.79 -78506.555"/><path d="M 79491.241 -77569.184 79517.753 -77582.282 79550.447 -77605.106 79574.275 -77629.996 79590.594 -77661.249 79600.76 -77703.166 79606.128 -77760.044 79608.056 -77836.184 79608.169 -77868.917 79607.839 -77940.656 79606.473 -77991.927 79603.5 -78027.404 79598.351 -78051.763 79590.457 -78069.68 79582.243 -78081.902 79529.813 -78133.905 79468.07 -78165.184 79401.464 -78174.592 79334.442 -78160.98 79313.208 -78151.354 79262.376 -78124.859 79262.376 -78540.052 79299.475 -78520.868 79348.357 -78506.025 79408.439 -78502.222 79468.436 -78509.243 79513.744 -78525.013 79551.325 -78555.047 79583.436 -78598.024 79585.85 -78602.436 79596.033 -78623.221 79603.47 -78644.17 79608.589 -78669.548 79611.819 -78703.618 79613.587 -78750.641 79614.323 -78814.882 79614.456 -78887.176 79614.456 -79117.822 79476.139 -79117.822 79476.139 -78692.533 79437.451 -78659.979 79397.262 -78633.94 79359.203 -78629.205 79320.934 -78641.389 79300.538 -78653.32 79285.358 -78670.313 79274.562 -78695.995 79267.317 -78733.991 79262.792 -78787.926 79260.156 -78861.425 79259.228 -78910.347 79256.089 -79111.535 79190.074 -79115.336 79124.06 -79119.136 79124.06 -77870.65 79262.376 -77870.65 79265.903 -77940.254 79277.785 -77988.569 79299.98 -78018.631 79334.441 -78033.471 79369.258 -78036.436 79408.671 -78033.028 79434.829 -78019.617 79451.186 -78001.896 79464.063 -77982.835 79471.728 -77961.601 79475.139 -77931.849 79475.251 -77887.236 79474.103 -77849.88 79471.468 -77793.604 79467.544 -77756.658 79460.937 -77733.223 79450.251 -77717.48 79440.167 -77708.38 79398.03 -77688.537 79348.16 -77685.332 79319.524 -77692.168 79291.172 -77716.464 79272.391 -77763.728 79263.288 -77833.624 79262.376 -77870.65 79124.06 -77870.65 79124.06 -77558.614 79193.218 -77558.614 79234.74 -77560.256 79256.162 -77566.087 79262.374 -77577.461 79262.376 -77577.798 79265.258 -77588.938 79277.97 -77587.673 79303.243 -77575.433 79362.131 -77556.707 79428.385 -77554.739 79491.241 -77569.184" fill="none" stroke-width="10"/><path d="M 79491.241 -77569.184 79517.753 -77582.282 79550.447 -77605.106 79574.275 -77629.996 79590.594 -77661.249 79600.76 -77703.166 79606.128 -77760.044 79608.056 -77836.184 79608.169 -77868.917 79607.839 -77940.656 79606.473 -77991.927 79603.5 -78027.404 79598.351 -78051.763 79590.457 -78069.68 79582.243 -78081.902 79529.813 -78133.905 79468.07 -78165.184 79401.464 -78174.592 79334.442 -78160.98 79313.208 -78151.354 79262.376 -78124.859 79262.376 -78540.052 79299.475 -78520.868 79348.357 -78506.025 79408.439 -78502.222 79468.436 -78509.243 79513.744 -78525.013 79551.325 -78555.047 79583.436 -78598.024 79585.85 -78602.436 79596.033 -78623.221 79603.47 -78644.17 79608.589 -78669.548 79611.819 -78703.618 79613.587 -78750.641 79614.323 -78814.882 79614.456 -78887.176 79614.456 -79117.822 79476.139 -79117.822 79476.139 -78692.533 79437.451 -78659.979 79397.262 -78633.94 79359.203 -78629.205 79320.934 -78641.389 79300.538 -78653.32 79285.358 -78670.313 79274.562 -78695.995 79267.317 -78733.991 79262.792 -78787.926 79260.156 -78861.425 79259.228 -78910.347 79256.089 -79111.535 79190.074 -79115.336 79124.06 -79119.136 79124.06 -77870.65 79262.376 -77870.65 79265.903 -77940.254 79277.785 -77988.569 79299.98 -78018.631 79334.441 -78033.471 79369.258 -78036.436 79408.671 -78033.028 79434.829 -78019.617 79451.186 -78001.896 79464.063 -77982.835 79471.728 -77961.601 79475.139 -77931.849 79475.251 -77887.236 79474.103 -77849.88 79471.468 -77793.604 79467.544 -77756.658 79460.937 -77733.223 79450.251 -77717.48 79440.167 -77708.38 79398.03 -77688.537 79348.16 -77685.332 79319.524 -77692.168 79291.172 -77716.464 79272.391 -77763.728 79263.288 -77833.624 79262.376 -77870.65 79124.06 -77870.65 79124.06 -77558.614 79193.218 -77558.614 79234.74 -77560.256 79256.162 -77566.087 79262.374 -77577.461 79262.376 -77577.798 79265.258 -77588.938 79277.97 -77587.673 79303.243 -77575.433 79362.131 -77556.707 79428.385 -77554.739 79491.241 -77569.184"/><path d="M 81776.964 -73390.018 81833.812 -73691.57 82253.338 -73864.512 82504.984 -73693.395 82575.458 -73645.75 82639.163 -73603.21 82693.126 -73567.715 82734.373 -73541.21 82759.934 -73525.636 82766.895 -73522.278 82779.435 -73530.914 82806.231 -73554.792 82844.28 -73590.859 82890.579 -73636.067 82942.123 -73687.364 82995.909 -73741.701 83048.935 -73796.028 83098.195 -73847.295 83140.687 -73892.451 83173.407 -73928.446 83193.351 -73952.23 83198.119 -73960.19 83191.257 -73974.865 83172.02 -74007.014 83142.43 -74053.492 83104.51 -74111.156 83060.282 -74176.86 83034.654 -74214.336 82987.941 -74282.768 82946.432 -74344.52 82912.14 -74396.519 82887.08 -74435.692 82873.264 -74458.965 82871.188 -74463.855 82875.895 -74477.755 82888.723 -74510.15 82907.738 -74556.485 82931.003 -74612.206 82956.584 -74672.758 82982.545 -74733.586 83006.95 -74790.136 83027.863 -74837.852 83043.349 -74872.181 83051.472 -74888.568 83051.952 -74889.212 83064.707 -74892.341 83098.677 -74899.321 83150.34 -74909.467 83216.176 -74922.092 83292.664 -74936.509 83337.29 -74944.823 83419.021 -74960.384 83492.843 -74975.192 83555.021 -74988.436 83601.822 -74999.305 83629.509 -75006.989 83635.074 -75009.427 83640.526 -75025.93 83644.924 -75063.2 83648.272 -75116.88 83650.574 -75182.612 83651.832 -75256.037 83652.048 -75332.796 83651.227 -75408.532 83649.371 -75478.886 83646.482 -75539.5 83642.565 -75586.016 83637.622 -75614.075 83634.657 -75619.916 83616.934 -75626.917 83579.381 -75636.927 83526.964 -75648.769 83464.652 -75661.267 83442.9 -75665.31 83338.024 -75684.52 83255.18 -75699.991 83191.63 -75712.337 83144.637 -75722.173 83111.463 -75730.114 83089.371 -75736.776 83075.624 -75742.773 83067.484 -75748.719 83066.345 -75749.894 83054.977 -75768.826 83037.635 -75805.669 83016.05 -75855.913 82991.954 -75915.046 82967.079 -75978.556 82943.157 -76041.932 82921.919 -76100.662 82905.097 -76150.235 82894.422 -76186.139 82891.627 -76203.862 82891.86 -76204.483 82901.331 -76218.97 82922.818 -76250.844 82954.063 -76296.789 82992.807 -76353.485 83036.793 -76417.617 83049.319 -76435.842 83093.984 -76501.914 83133.288 -76562.2 83165.088 -76613.235 83187.245 -76651.56 83197.617 -76673.711 83198.119 -76676.432 83189.405 -76690.736 83165.325 -76719.072 83128.976 -76758.396 83083.453 -76805.661 83031.852 -76857.823 82977.267 -76911.835 82922.794 -76964.653 82871.529 -77013.231 82826.567 -77054.523 82791.004 -77085.485 82767.935 -77103.07 82761.554 -77105.941 82746.699 -77099.178 82716.286 -77080.939 82675.268 -77054.297 82643.709 -77032.852 82586.525 -76993.503 82518.806 -76947.171 82450.88 -76900.913 82414.361 -76876.155 82290.752 -76792.547 82186.991 -76848.65 82139.72 -76873.228 82099.523 -76892.331 82072.326 -76903.227 82065.402 -76904.743 82057.077 -76893.549 82040.654 -76861.917 82017.357 -76812.765 81988.414 -76749.01 81955.05 -76673.571 81918.491 -76589.364 81879.964 -76499.308 81840.694 -76406.321 81801.908 -76313.32 81764.83 -76223.223 81730.689 -76138.948 81700.708 -76063.413 81676.116 -75999.534 81658.136 -75950.231 81647.997 -75918.421 81646.366 -75907.496 81659.291 -75893.561 81687.589 -75870.94 81725.346 -75844.333 81728.515 -75842.228 81826.1 -75764.114 81904.786 -75672.982 81963.891 -75571.745 82002.732 -75463.318 82020.628 -75350.614 82016.897 -75236.548 81990.857 -75124.034 81941.825 -75015.985 81927.4 -74992.345 81852.369 -74896.887 81763.73 -74820.232 81664.549 -74762.78 81557.895 -74724.929 81446.836 -74707.078 81334.439 -74709.625 81223.773 -74732.97 81117.906 -74777.51 81019.905 -74843.645 80989.59 -74870.487 80912.438 -74954.512 80856.218 -75042.966 80817.653 -75142.115 80796.174 -75240.303 80790.872 -75350.697 80808.552 -75461.64 80847.419 -75569.381 80905.677 -75670.169 80981.531 -75760.256 81073.183 -75835.892 81085.228 -75843.864 81123.389 -75869.974 81152.399 -75892.595 81166.268 -75907.039 81166.469 -75907.496 81163.492 -75923.121 81151.689 -75958.582 81132.286 -76010.962 81106.512 -76077.345 81075.591 -76154.814 81040.751 -76240.45 81003.217 -76331.337 80964.217 -76424.559 80924.977 -76517.197 80886.724 -76606.335 80850.683 -76689.055 80818.083 -76762.441 80790.148 -76823.575 80768.105 -76869.541 80753.182 -76897.421 80747.172 -76904.743 80728.809 -76899.041 80694.448 -76883.749 80650.016 -76861.599 80625.583 -76848.65 80521.822 -76792.547 80398.213 -76876.155 80335.114 -76918.987 80266.03 -76966.122 80201.293 -77010.503 80168.866 -77032.852 80123.259 -77063.477 80084.64 -77087.747 80058.048 -77102.587 80049.41 -77105.724 80036.839 -77097.261 80009.016 -77073.636 79968.639 -77037.302 79918.405 -76990.711 79861.012 -76936.317 79824.714 -76901.392 79761.21 -76838.996 79706.327 -76783.188 79662.286 -76736.354 79631.305 -76700.882 79615.602 -76679.161 79614.095 -76674.752 79621.086 -76657.985 79640.406 -76624.082 79669.909 -76576.476 79707.455 -76518.599 79750.9 -76453.884 79763.255 -76435.842 79808.273 -76370.267 79848.66 -76311.228 79882.16 -76262.042 79906.514 -76226.028 79919.464 -76206.502 79920.715 -76204.483 79918.844 -76188.922 79908.913 -76154.709 79892.653 -76106.355 79871.795 -76048.371 79848.073 -75985.27 79823.216 -75921.563 79798.958 -75861.761 79777.029 -75810.376 79759.162 -75771.919 79747.087 -75750.902 79746.229 -75749.894 79738.846 -75743.888 79726.375 -75737.948 79706.08 -75731.46 79675.222 -75723.809 79631.066 -75714.38 79570.874 -75702.559 79491.907 -75687.729 79391.43 -75669.277 79369.675 -75665.31 79305.198 -75652.853 79248.989 -75640.666 79206.013 -75629.926 79181.24 -75621.809 79177.918 -75619.916 79172.444 -75603.138 79167.994 -75565.645 79164.572 -75511.794 79162.181 -75445.944 79160.823 -75372.453 79160.501 -75295.68 79161.219 -75219.983 79162.979 -75149.72 79165.784 -75089.25 79169.638 -75042.93 79174.543 -75015.119 79177.5 -75009.427 79193.963 -75003.686 79231.449 -74994.345 79286.225 -74982.215 79354.555 -74968.107 79432.706 -74952.83 79475.284 -74944.823 79556.071 -74929.721 79628.113 -74916.04 79687.889 -74904.467 79731.879 -74895.687 79756.561 -74890.387 79760.623 -74889.212 79767.489 -74875.965 79782.002 -74844.057 79802.229 -74798.047 79826.234 -74742.492 79852.082 -74681.953 79877.84 -74620.986 79901.573 -74564.151 79921.346 -74516.006 79935.224 -74481.11 79941.274 -74464.021 79941.386 -74463.274 79934.528 -74449.793 79915.302 -74418.77 79885.728 -74373.289 79847.827 -74316.432 79803.62 -74251.283 79777.921 -74213.862 79731.093 -74145.247 79689.501 -74082.952 79655.175 -74030.129 79630.143 -73989.927 79616.435 -73965.5 79614.456 -73960.024 79622.966 -73947.278 79646.493 -73920.063 79682.032 -73881.428 79726.577 -73834.423 79777.123 -73782.095 79830.664 -73727.495 79884.195 -73673.67 79934.711 -73623.67 79979.206 -73580.543 80014.675 -73547.339 80038.113 -73527.106 80045.954 -73522.278 80058.72 -73529.067 80089.256 -73548.142 80134.59 -73577.561 80191.756 -73615.381 80257.784 -73659.661 80307.59 -73693.395 80559.236 -73864.512 80768.999 -73778.041 80978.763 -73691.57 81035.611 -73390.018 81092.46 -73088.466 81720.115 -73088.466 81776.964 -73390.018" fill="none" stroke-width="10"/><path d="M 81776.964 -73390.018 81833.812 -73691.57 82253.338 -73864.512 82504.984 -73693.395 82575.458 -73645.75 82639.163 -73603.21 82693.126 -73567.715 82734.373 -73541.21 82759.934 -73525.636 82766.895 -73522.278 82779.435 -73530.914 82806.231 -73554.792 82844.28 -73590.859 82890.579 -73636.067 82942.123 -73687.364 82995.909 -73741.701 83048.935 -73796.028 83098.195 -73847.295 83140.687 -73892.451 83173.407 -73928.446 83193.351 -73952.23 83198.119 -73960.19 83191.257 -73974.865 83172.02 -74007.014 83142.43 -74053.492 83104.51 -74111.156 83060.282 -74176.86 83034.654 -74214.336 82987.941 -74282.768 82946.432 -74344.52 82912.14 -74396.519 82887.08 -74435.692 82873.264 -74458.965 82871.188 -74463.855 82875.895 -74477.755 82888.723 -74510.15 82907.738 -74556.485 82931.003 -74612.206 82956.584 -74672.758 82982.545 -74733.586 83006.95 -74790.136 83027.863 -74837.852 83043.349 -74872.181 83051.472 -74888.568 83051.952 -74889.212 83064.707 -74892.341 83098.677 -74899.321 83150.34 -74909.467 83216.176 -74922.092 83292.664 -74936.509 83337.29 -74944.823 83419.021 -74960.384 83492.843 -74975.192 83555.021 -74988.436 83601.822 -74999.305 83629.509 -75006.989 83635.074 -75009.427 83640.526 -75025.93 83644.924 -75063.2 83648.272 -75116.88 83650.574 -75182.612 83651.832 -75256.037 83652.048 -75332.796 83651.227 -75408.532 83649.371 -75478.886 83646.482 -75539.5 83642.565 -75586.016 83637.622 -75614.075 83634.657 -75619.916 83616.934 -75626.917 83579.381 -75636.927 83526.964 -75648.769 83464.652 -75661.267 83442.9 -75665.31 83338.024 -75684.52 83255.18 -75699.991 83191.63 -75712.337 83144.637 -75722.173 83111.463 -75730.114 83089.371 -75736.776 83075.624 -75742.773 83067.484 -75748.719 83066.345 -75749.894 83054.977 -75768.826 83037.635 -75805.669 83016.05 -75855.913 82991.954 -75915.046 82967.079 -75978.556 82943.157 -76041.932 82921.919 -76100.662 82905.097 -76150.235 82894.422 -76186.139 82891.627 -76203.862 82891.86 -76204.483 82901.331 -76218.97 82922.818 -76250.844 82954.063 -76296.789 82992.807 -76353.485 83036.793 -76417.617 83049.319 -76435.842 83093.984 -76501.914 83133.288 -76562.2 83165.088 -76613.235 83187.245 -76651.56 83197.617 -76673.711 83198.119 -76676.432 83189.405 -76690.736 83165.325 -76719.072 83128.976 -76758.396 83083.453 -76805.661 83031.852 -76857.823 82977.267 -76911.835 82922.794 -76964.653 82871.529 -77013.231 82826.567 -77054.523 82791.004 -77085.485 82767.935 -77103.07 82761.554 -77105.941 82746.699 -77099.178 82716.286 -77080.939 82675.268 -77054.297 82643.709 -77032.852 82586.525 -76993.503 82518.806 -76947.171 82450.88 -76900.913 82414.361 -76876.155 82290.752 -76792.547 82186.991 -76848.65 82139.72 -76873.228 82099.523 -76892.331 82072.326 -76903.227 82065.402 -76904.743 82057.077 -76893.549 82040.654 -76861.917 82017.357 -76812.765 81988.414 -76749.01 81955.05 -76673.571 81918.491 -76589.364 81879.964 -76499.308 81840.694 -76406.321 81801.908 -76313.32 81764.83 -76223.223 81730.689 -76138.948 81700.708 -76063.413 81676.116 -75999.534 81658.136 -75950.231 81647.997 -75918.421 81646.366 -75907.496 81659.291 -75893.561 81687.589 -75870.94 81725.346 -75844.333 81728.515 -75842.228 81826.1 -75764.114 81904.786 -75672.982 81963.891 -75571.745 82002.732 -75463.318 82020.628 -75350.614 82016.897 -75236.548 81990.857 -75124.034 81941.825 -75015.985 81927.4 -74992.345 81852.369 -74896.887 81763.73 -74820.232 81664.549 -74762.78 81557.895 -74724.929 81446.836 -74707.078 81334.439 -74709.625 81223.773 -74732.97 81117.906 -74777.51 81019.905 -74843.645 80989.59 -74870.487 80912.438 -74954.512 80856.218 -75042.966 80817.653 -75142.115 80796.174 -75240.303 80790.872 -75350.697 80808.552 -75461.64 80847.419 -75569.381 80905.677 -75670.169 80981.531 -75760.256 81073.183 -75835.892 81085.228 -75843.864 81123.389 -75869.974 81152.399 -75892.595 81166.268 -75907.039 81166.469 -75907.496 81163.492 -75923.121 81151.689 -75958.582 81132.286 -76010.962 81106.512 -76077.345 81075.591 -76154.814 81040.751 -76240.45 81003.217 -76331.337 80964.217 -76424.559 80924.977 -76517.197 80886.724 -76606.335 80850.683 -76689.055 80818.083 -76762.441 80790.148 -76823.575 80768.105 -76869.541 80753.182 -76897.421 80747.172 -76904.743 80728.809 -76899.041 80694.448 -76883.749 80650.016 -76861.599 80625.583 -76848.65 80521.822 -76792.547 80398.213 -76876.155 80335.114 -76918.987 80266.03 -76966.122 80201.293 -77010.503 80168.866 -77032.852 80123.259 -77063.477 80084.64 -77087.747 80058.048 -77102.587 80049.41 -77105.724 80036.839 -77097.261 80009.016 -77073.636 79968.639 -77037.302 79918.405 -76990.711 79861.012 -76936.317 79824.714 -76901.392 79761.21 -76838.996 79706.327 -76783.188 79662.286 -76736.354 79631.305 -76700.882 79615.602 -76679.161 79614.095 -76674.752 79621.086 -76657.985 79640.406 -76624.082 79669.909 -76576.476 79707.455 -76518.599 79750.9 -76453.884 79763.255 -76435.842 79808.273 -76370.267 79848.66 -76311.228 79882.16 -76262.042 79906.514 -76226.028 79919.464 -76206.502 79920.715 -76204.483 79918.844 -76188.922 79908.913 -76154.709 79892.653 -76106.355 79871.795 -76048.371 79848.073 -75985.27 79823.216 -75921.563 79798.958 -75861.761 79777.029 -75810.376 79759.162 -75771.919 79747.087 -75750.902 79746.229 -75749.894 79738.846 -75743.888 79726.375 -75737.948 79706.08 -75731.46 79675.222 -75723.809 79631.066 -75714.38 79570.874 -75702.559 79491.907 -75687.729 79391.43 -75669.277 79369.675 -75665.31 79305.198 -75652.853 79248.989 -75640.666 79206.013 -75629.926 79181.24 -75621.809 79177.918 -75619.916 79172.444 -75603.138 79167.994 -75565.645 79164.572 -75511.794 79162.181 -75445.944 79160.823 -75372.453 79160.501 -75295.68 79161.219 -75219.983 79162.979 -75149.72 79165.784 -75089.25 79169.638 -75042.93 79174.543 -75015.119 79177.5 -75009.427 79193.963 -75003.686 79231.449 -74994.345 79286.225 -74982.215 79354.555 -74968.107 79432.706 -74952.83 79475.284 -74944.823 79556.071 -74929.721 79628.113 -74916.04 79687.889 -74904.467 79731.879 -74895.687 79756.561 -74890.387 79760.623 -74889.212 79767.489 -74875.965 79782.002 -74844.057 79802.229 -74798.047 79826.234 -74742.492 79852.082 -74681.953 79877.84 -74620.986 79901.573 -74564.151 79921.346 -74516.006 79935.224 -74481.11 79941.274 -74464.021 79941.386 -74463.274 79934.528 -74449.793 79915.302 -74418.77 79885.728 -74373.289 79847.827 -74316.432 79803.62 -74251.283 79777.921 -74213.862 79731.093 -74145.247 79689.501 -74082.952 79655.175 -74030.129 79630.143 -73989.927 79616.435 -73965.5 79614.456 -73960.024 79622.966 -73947.278 79646.493 -73920.063 79682.032 -73881.428 79726.577 -73834.423 79777.123 -73782.095 79830.664 -73727.495 79884.195 -73673.67 79934.711 -73623.67 79979.206 -73580.543 80014.675 -73547.339 80038.113 -73527.106 80045.954 -73522.278 80058.72 -73529.067 80089.256 -73548.142 80134.59 -73577.561 80191.756 -73615.381 80257.784 -73659.661 80307.59 -73693.395 80559.236 -73864.512 80768.999 -73778.041 80978.763 -73691.57 81035.611 -73390.018 81092.46 -73088.466 81720.115 -73088.466 81776.964 -73390.018"/><path d="M 84950 -72900 90050 -72900 90050 -60300 M 84950 -60300 84950 -72900 M 48400 -78860 48400 -79600 48900 -79600 M 48640 -73040 48640 -79360 M 48640 -73040 64460 -73040 M 48640 -73500 64460 -73500 M 48640 -78800 64460 -78800 M 48640 -79360 64460 -79360 M 64460 -73040 64460 -79360 M 42796.248 -64830 47203.752 -64830 M 42796.248 -70170 47203.752 -70170 M 41340 -57630 40600 -57630 40600 -58130 M 47160 -57870 40840 -57870 M 47160 -57870 47160 -63530 M 46700 -57870 46700 -63530 M 41400 -57870 41400 -58640 M 40840 -57870 40840 -58640 M 41400 -60220 41400 -61180 M 40840 -60220 40840 -61180 M 41400 -62760 41400 -63530 M 40840 -62760 40840 -63530 M 47160 -63530 40840 -63530 M 68635 -58826.248 68635 -59348.752 M 67165 -58826.248 67165 -59348.752 M 69435 -63738.748 69435 -64261.252 M 67965 -63738.748 67965 -64261.252 M 104230 -59670 104230 -61000 M 102900 -59670 104230 -59670 M 101630 -59670 91410 -59670 M 101630 -59670 101630 -62330 M 91410 -59670 91410 -62330 M 101630 -62330 91410 -62330 M 93972.936 -57465 94427.064 -57465 M 93972.936 -58935 94427.064 -58935 M 97672.936 -57465 98127.064 -57465 M 97672.936 -58935 98127.064 -58935 M 101372.936 -57465 101827.064 -57465 M 101372.936 -58935 101827.064 -58935 M 63286.252 -70435 62763.748 -70435 M 63286.252 -68965 62763.748 -68965 M 56975 -58700 59308.333 -58700 M 56975 -61033.333 56975 -58700 M 57355 -59080 57355 -61350 M 57355 -59080 64595 -59080 M 57355 -64050 57355 -66320 64595 -66320 M 64595 -59080 64595 -61350 M 64595 -64050 64595 -66320 M 53690 -61590 51890 -61590 M 53690 -61590 54490 -61590 M 53690 -64710 52890 -64710 M 53690 -64710 54490 -64710 M 63286.252 -68435 62763.748 -68435 M 63286.252 -66965 62763.748 -66965 M 58800 -71150 58800 -67850 M 58800 -71150 51900 -71150 M 58800 -67850 51900 -67850 M 54538.748 -65965 55061.252 -65965 M 54538.748 -67435 55061.252 -67435 M 90327.064 -58935 89872.936 -58935 M 90327.064 -57465 89872.936 -57465 M 48050 -70650 46350 -70650 M 48050 -70650 48050 -73800 M 46350 -70650 46350 -73800 M 54238.748 -59665 54761.252 -59665 M 54238.748 -61135 54761.252 -61135 M 65515 -76927.064 65515 -76472.936 M 66985 -76927.064 66985 -76472.936 M 84235 -66701.248 84235 -67223.752 M 82765 -66701.248 82765 -67223.752 M 49800 -58450 50400 -58450 M 51100 -59150 51100 -60550 M 49100 -60550 49100 -59150 M 50400 -61250 49800 -61250 M 51100 -59150 A 699.999 699.999 0 0 1 50400 -58450 M 49800 -58450 A 699.999 699.999 0 0 1 49100 -59150 M 50400 -61250 A 700 700 0 0 1 51100 -60550 M 49100 -60550 A 700 700 0 0 1 49800 -61250" fill="none" stroke-width="120"/></g></svg>