<svg version="1.1" xmlns="http://www.w3.org/2000/svg" xmlns:xlink="http://www.w3.org/1999/xlink" stroke-linecap="round" stroke-linejoin="round" stroke-width="0" fill-rule="evenodd" width="51.04mm" height="25.636109mm" viewBox="46980 -76476.109 51040 25636.109" id="mgSdNDsLgUKxCkHZ5XDC"><g transform="translate(0,-127316.109) scale(1,-1)" fill="currentColor" stroke="currentColor"><path d="M 64102.3 -69261.027 64126.109 -69332.455 64126.109 -69451.503 64102.3 -69499.122 64078.49 -69522.931 64030.871 -69546.741 63983.252 -69546.741 63935.633 -69522.931 63911.823 -69499.122 63888.014 -69451.503 63864.204 -69356.265 63840.395 -69308.646 63816.585 -69284.836 63768.966 -69261.027 63721.347 -69261.027 63673.728 -69284.836 63649.919 -69308.646 63626.109 -69356.265 63626.109 -69475.312 63649.919 -69546.741 M 63626.109 -69689.598 63626.109 -69975.312 M 64126.109 -69832.455 63626.109 -69832.455 M 63864.204 -70308.645 63888.014 -70380.073 63911.823 -70403.883 63959.442 -70427.692 64030.871 -70427.692 64078.49 -70403.883 64102.3 -70380.073 64126.109 -70332.454 64126.109 -70141.978 63626.109 -70141.978 63626.109 -70308.645 63649.919 -70356.264 63673.728 -70380.073 63721.347 -70403.883 63768.966 -70403.883 63816.585 -70380.073 63840.395 -70356.264 63864.204 -70308.645 63864.204 -70141.978 M 63888.014 -70737.216 64126.109 -70737.216 M 63626.109 -70570.55 63888.014 -70737.216 63626.109 -70903.883 M 79186.591 -75926.109 79019.925 -76426.109 78853.258 -75926.109 M 78519.925 -76164.204 78448.497 -76188.014 78424.687 -76211.823 78400.878 -76259.442 78400.878 -76330.871 78424.687 -76378.49 78448.497 -76402.3 78496.116 -76426.109 78686.592 -76426.109 78686.592 -75926.109 78519.925 -75926.109 78472.306 -75949.919 78448.497 -75973.728 78424.687 -76021.347 78424.687 -76068.966 78448.497 -76116.585 78472.306 -76140.395 78519.925 -76164.204 78686.592 -76164.204 M 78186.592 -75926.109 78186.592 -76330.871 78162.782 -76378.49 78138.973 -76402.3 78091.354 -76426.109 77996.116 -76426.109 77948.497 -76402.3 77924.687 -76378.49 77900.878 -76330.871 77900.878 -75926.109 M 77686.591 -76402.3 77615.163 -76426.109 77496.115 -76426.109 77448.496 -76402.3 77424.687 -76378.49 77400.877 -76330.871 77400.877 -76283.252 77424.687 -76235.633 77448.496 -76211.823 77496.115 -76188.014 77591.353 -76164.204 77638.972 -76140.395 77662.782 -76116.585 77686.591 -76068.966 77686.591 -76021.347 77662.782 -75973.728 77638.972 -75949.919 77591.353 -75926.109 77472.306 -75926.109 77400.877 -75949.919 M 69326.109 -70137.217 69326.109 -70446.741 69516.585 -70280.074 69516.585 -70351.503 69540.395 -70399.122 69564.204 -70422.931 69611.823 -70446.741 69730.871 -70446.741 69778.49 -70422.931 69802.3 -70399.122 69826.109 -70351.503 69826.109 -70208.646 69802.3 -70161.027 69778.49 -70137.217 M 69326.109 -70589.598 69826.109 -70756.264 69326.109 -70922.931 M 69826.109 -71089.597 69326.109 -71089.597 M 69326.109 -71422.93 69326.109 -71518.168 69349.919 -71565.787 69397.538 -71613.406 69492.776 -71637.216 69659.442 -71637.216 69754.68 -71613.406 69802.3 -71565.787 69826.109 -71518.168 69826.109 -71422.93 69802.3 -71375.311 69754.68 -71327.692 69659.442 -71303.883 69492.776 -71303.883 69397.538 -71327.692 69349.919 -71375.311 69326.109 -71422.93" fill="none" stroke-width="100"/><path d="M 48703.333 -56724.819 48703.333 -57439.104 48750.952 -57581.961 48846.19 -57677.2 48989.047 -57724.819 49084.285 -57724.819 M 47703.333 -57724.819 48274.761 -57724.819 M 47989.047 -57724.819 47989.047 -56724.819 48084.285 -56867.676 48179.523 -56962.914 48274.761 -57010.533 M 82233.333 -72654.819 82233.333 -73369.104 82280.952 -73511.961 82376.19 -73607.2 82519.047 -73654.819 82614.285 -73654.819 M 81757.142 -73654.819 81757.142 -72654.819 81376.19 -72654.819 81280.952 -72702.438 81233.333 -72750.057 81185.714 -72845.295 81185.714 -72988.152 81233.333 -73083.39 81280.952 -73131.009 81376.19 -73178.628 81757.142 -73178.628 M 80328.571 -72988.152 80328.571 -73654.819 M 80566.666 -72607.2 80804.761 -73321.485 80185.714 -73321.485 M 75414.285 -75054.819 75985.713 -75054.819 M 75699.999 -75054.819 75699.999 -74054.819 75795.237 -74197.676 75890.475 -74292.914 75985.713 -74340.533 M 81233.332 -74054.819 80614.285 -74054.819 80947.618 -74435.771 80804.761 -74435.771 80709.523 -74483.39 80661.904 -74531.009 80614.285 -74626.247 80614.285 -74864.342 80661.904 -74959.58 80709.523 -75007.2 80804.761 -75054.819 81090.475 -75054.819 81185.713 -75007.2 81233.332 -74959.58 M 64033.333 -71554.819 64033.333 -72269.104 64080.952 -72411.961 64176.19 -72507.2 64319.047 -72554.819 64414.285 -72554.819 M 63557.142 -72554.819 63557.142 -71554.819 63176.19 -71554.819 63080.952 -71602.438 63033.333 -71650.057 62985.714 -71745.295 62985.714 -71888.152 63033.333 -71983.39 63080.952 -72031.009 63176.19 -72078.628 63557.142 -72078.628 M 62604.761 -71650.057 62557.142 -71602.438 62461.904 -71554.819 62223.809 -71554.819 62128.571 -71602.438 62080.952 -71650.057 62033.333 -71745.295 62033.333 -71840.533 62080.952 -71983.39 62652.38 -72554.819 62033.333 -72554.819 M 64854.819 -67366.667 64854.819 -67985.714 65235.771 -67652.381 65235.771 -67795.238 65283.39 -67890.476 65331.009 -67938.095 65426.247 -67985.714 65664.342 -67985.714 65759.58 -67938.095 65807.2 -67890.476 65854.819 -67795.238 65854.819 -67509.524 65807.2 -67414.286 65759.58 -67366.667 M 65854.819 -73185.714 65854.819 -72614.286 M 65854.819 -72900 64854.819 -72900 64997.676 -72804.762 65092.914 -72709.524 65140.533 -72614.286 M 71033.333 -68654.819 71033.333 -69369.104 71080.952 -69511.961 71176.19 -69607.2 71319.047 -69654.819 71414.285 -69654.819 M 70557.142 -69654.819 70557.142 -68654.819 70176.19 -68654.819 70080.952 -68702.438 70033.333 -68750.057 69985.714 -68845.295 69985.714 -68988.152 70033.333 -69083.39 70080.952 -69131.009 70176.19 -69178.628 70557.142 -69178.628 M 69652.38 -68654.819 69033.333 -68654.819 69366.666 -69035.771 69223.809 -69035.771 69128.571 -69083.39 69080.952 -69131.009 69033.333 -69226.247 69033.333 -69464.342 69080.952 -69559.58 69128.571 -69607.2 69223.809 -69654.819 69509.523 -69654.819 69604.761 -69607.2 69652.38 -69559.58" fill="none" stroke-width="150"/><path d="M 97960 -50900 97960 -56100 M 47040 -50900 97960 -50900 M 47040 -50900 47040 -53500 M 49640 -53500 49640 -56100 M 47040 -53500 49640 -53500 M 47040 -54770 47040 -56100 M 49640 -56100 97960 -56100 M 47040 -56100 48370 -56100 M 76250 -74300 76250 -74900 M 76900 -75600 79700 -75600 M 79700 -73600 76900 -73600 M 80350 -74900 80350 -74300 M 76950 -73600 A 699.999 699.999 0 0 1 76250 -74300 M 76250 -74900 A 699.999 699.999 0 0 1 76950 -75600 M 80350 -74300 A 700 700 0 0 1 79650 -73600 M 79650 -75600 A 700 700 0 0 1 80350 -74900 M 65100 -72350 65700 -72350 M 66400 -71700 66400 -68900 M 64400 -68900 64400 -71700 M 65700 -68250 65100 -68250 M 64400 -71650 A 699.999 699.999 0 0 1 65100 -72350 M 65700 -72350 A 699.999 699.999 0 0 1 66400 -71650 M 65100 -68250 A 700 700 0 0 1 64400 -68950 M 66400 -68950 A 700 700 0 0 1 65700 -68250 M 67700 -72300 68300 -72300 M 69000 -71600 69000 -70200 M 67000 -70200 67000 -71600 M 68300 -69500 67700 -69500 M 67000 -71600 A 699.999 699.999 0 0 1 67700 -72300 M 68300 -72300 A 699.999 699.999 0 0 1 69000 -71600 M 67700 -69500 A 700 700 0 0 1 67000 -70200 M 69000 -70200 A 700 700 0 0 1 68300 -69500" fill="none" stroke-width="120"/></g></svg>