<svg version="1.1" xmlns="http://www.w3.org/2000/svg" xmlns:xlink="http://www.w3.org/1999/xlink" stroke-linecap="round" stroke-linejoin="round" stroke-width="0" fill-rule="evenodd" width="70.33158mm" height="40.96674mm" viewBox="37825 -90891.74 70331.58 40966.74" id="QTbN6nHbOwj8goxa56Jf"><g transform="translate(0,-140816.74000000002) scale(1,-1)" fill="currentColor" stroke="currentColor"><path d="M 105000 -77000 105000 -53000 A 3000 3000 0 0 1 102000 -50000 M 43000 -50000 A 3000 3000 0 0 1 40000 -53000 M 102000 -50000 43000 -50000 M 40000 -77000 A 3000 3000 0 0 1 43000 -80000 M 40000 -53000 40000 -77000 M 102000 -80000 A 3000 3000 0 0 1 105000 -77000 M 43000 -80000 102000 -80000" fill="none" stroke-width="150"/><path d="M 40910 -58880 42010 -59980 M 42010 -58880 40910 -59980 M 40910 -61420 42010 -62520 M 42010 -61420 40910 -62520" fill="none" stroke-width="110"/><path d="M 44850 -53500 A 1350 1350 0 0 1 42150 -53500 1350 1350 0 0 1 44850 -53500 M 44850 -76500 A 1350 1350 0 0 1 42150 -76500 1350 1350 0 0 1 44850 -76500 M 102850 -53500 A 1350 1350 0 0 1 100150 -53500 1350 1350 0 0 1 102850 -53500 M 102850 -76500 A 1350 1350 0 0 1 100150 -76500 1350 1350 0 0 1 102850 -76500" fill="none" stroke-width="270"/><path d="M 42532.77 -83189.84 42532.77 -81189.84 43008.96 -81189.84 43294.67 -81285.08 43485.15 -81475.55 43580.39 -81666.03 43675.63 -82046.98 43675.63 -82332.69 43580.39 -82713.65 43485.15 -82904.12 43294.67 -83094.6 43008.96 -83189.84 42532.77 -83189.84 M 44532.77 -83189.84 44532.77 -81856.5 M 44532.77 -82237.46 44628.01 -82046.98 44723.24 -81951.74 44913.72 -81856.5 45104.2 -81856.5 M 45770.86 -83189.84 45770.86 -81856.5 M 45770.86 -81189.84 45675.63 -81285.08 45770.86 -81380.31 45866.1 -81285.08 45770.86 -81189.84 45770.86 -81380.31 M 47008.96 -83189.84 46818.48 -83094.6 46723.24 -82904.12 46723.24 -81189.84 M 48056.58 -83189.84 47866.1 -83094.6 47770.86 -82904.12 47770.86 -81189.84 M 50342.29 -83189.84 50342.29 -81189.84 51008.96 -82618.41 51675.63 -81189.84 51675.63 -83189.84 M 53485.15 -83189.84 53485.15 -82142.22 53389.91 -81951.74 53199.44 -81856.5 52818.48 -81856.5 52628.01 -81951.74 M 53485.15 -83094.6 53294.67 -83189.84 52818.48 -83189.84 52628.01 -83094.6 52532.77 -82904.12 52532.77 -82713.65 52628.01 -82523.17 52818.48 -82427.93 53294.67 -82427.93 53485.15 -82332.69 M 54437.53 -81856.5 54437.53 -83856.5 M 54437.53 -81951.74 54628.01 -81856.5 55008.96 -81856.5 55199.44 -81951.74 55294.67 -82046.98 55389.91 -82237.46 55389.91 -82808.88 55294.67 -82999.36 55199.44 -83094.6 55008.96 -83189.84 54628.01 -83189.84 54437.53 -83094.6 M 56247.05 -82999.36 56342.29 -83094.6 56247.05 -83189.84 56151.82 -83094.6 56247.05 -82999.36 56247.05 -83189.84 M 56247.05 -81951.74 56342.29 -82046.98 56247.05 -82142.22 56151.82 -82046.98 56247.05 -81951.74 56247.05 -82142.22" fill="none" stroke-width="200"/><path d="M 38825 -85925 39925 -87025 M 39925 -85925 38825 -87025" fill="none" stroke-width="110"/><path d="M 43580.39 -87389.84 42437.53 -87389.84 M 43008.96 -87389.84 43008.96 -85389.84 42818.48 -85675.55 42628.01 -85866.03 42437.53 -85961.27 M 44437.53 -87199.36 44532.77 -87294.6 44437.53 -87389.84 44342.29 -87294.6 44437.53 -87199.36 44437.53 -87389.84 M 46437.53 -87389.84 45294.67 -87389.84 M 45866.1 -87389.84 45866.1 -85389.84 45675.63 -85675.55 45485.15 -85866.03 45294.67 -85961.27 M 47675.63 -85389.84 47866.1 -85389.84 48056.58 -85485.08 48151.82 -85580.31 48247.05 -85770.79 48342.29 -86151.74 48342.29 -86627.93 48247.05 -87008.89 48151.82 -87199.36 48056.58 -87294.6 47866.1 -87389.84 47675.63 -87389.84 47485.15 -87294.6 47389.91 -87199.36 47294.67 -87008.89 47199.44 -86627.93 47199.44 -86151.74 47294.67 -85770.79 47389.91 -85580.31 47485.15 -85485.08 47675.63 -85389.84 M 49580.39 -85389.84 49770.86 -85389.84 49961.34 -85485.08 50056.58 -85580.31 50151.82 -85770.79 50247.05 -86151.74 50247.05 -86627.93 50151.82 -87008.89 50056.58 -87199.36 49961.34 -87294.6 49770.86 -87389.84 49580.39 -87389.84 49389.91 -87294.6 49294.67 -87199.36 49199.44 -87008.89 49104.2 -86627.93 49104.2 -86151.74 49199.44 -85770.79 49294.67 -85580.31 49389.91 -85485.08 49580.39 -85389.84 M 51104.2 -87389.84 51104.2 -86056.5 M 51104.2 -86246.98 51199.44 -86151.74 51389.91 -86056.5 51675.63 -86056.5 51866.1 -86151.74 51961.34 -86342.22 51961.34 -87389.84 M 51961.34 -86342.22 52056.58 -86151.74 52247.05 -86056.5 52532.77 -86056.5 52723.25 -86151.74 52818.48 -86342.22 52818.48 -87389.84 M 53770.86 -87389.84 53770.86 -86056.5 M 53770.86 -86246.98 53866.1 -86151.74 54056.58 -86056.5 54342.29 -86056.5 54532.77 -86151.74 54628.01 -86342.22 54628.01 -87389.84 M 54628.01 -86342.22 54723.25 -86151.74 54913.72 -86056.5 55199.44 -86056.5 55389.91 -86151.74 55485.15 -86342.22 55485.15 -87389.84 M 59389.91 -85294.6 57675.63 -87866.03 M 61961.34 -85389.84 62151.82 -85389.84 62342.29 -85485.08 62437.53 -85580.31 62532.77 -85770.79 62628.01 -86151.74 62628.01 -86627.93 62532.77 -87008.89 62437.53 -87199.36 62342.29 -87294.6 62151.82 -87389.84 61961.34 -87389.84 61770.86 -87294.6 61675.63 -87199.36 61580.39 -87008.89 61485.15 -86627.93 61485.15 -86151.74 61580.39 -85770.79 61675.63 -85580.31 61770.86 -85485.08 61961.34 -85389.84 M 63485.15 -87199.36 63580.39 -87294.6 63485.15 -87389.84 63389.91 -87294.6 63485.15 -87199.36 63485.15 -87389.84 M 64818.48 -85389.84 65008.96 -85389.84 65199.44 -85485.08 65294.67 -85580.31 65389.91 -85770.79 65485.15 -86151.74 65485.15 -86627.93 65389.91 -87008.89 65294.67 -87199.36 65199.44 -87294.6 65008.96 -87389.84 64818.48 -87389.84 64628.01 -87294.6 64532.77 -87199.36 64437.53 -87008.89 64342.29 -86627.93 64342.29 -86151.74 64437.53 -85770.79 64532.77 -85580.31 64628.01 -85485.08 64818.48 -85389.84 M 67199.44 -86056.5 67199.44 -87389.84 M 66723.25 -85294.6 66247.06 -86723.17 67485.15 -86723.17 M 68056.58 -85389.84 69294.67 -85389.84 68628.01 -86151.74 68913.72 -86151.74 69104.2 -86246.98 69199.44 -86342.22 69294.67 -86532.7 69294.67 -87008.89 69199.44 -87199.36 69104.2 -87294.6 68913.72 -87389.84 68342.29 -87389.84 68151.82 -87294.6 68056.58 -87199.36 M 69961.34 -85389.84 71199.44 -85389.84 70532.77 -86151.74 70818.48 -86151.74 71008.96 -86246.98 71104.2 -86342.22 71199.44 -86532.7 71199.44 -87008.89 71104.2 -87199.36 71008.96 -87294.6 70818.48 -87389.84 70247.06 -87389.84 70056.58 -87294.6 69961.34 -87199.36 M 71961.34 -85389.84 71961.34 -85770.79 M 72723.25 -85389.84 72723.25 -85770.79 M 75675.63 -88151.74 75580.39 -88056.5 75389.91 -87770.79 75294.68 -87580.31 75199.44 -87294.6 75104.2 -86818.41 75104.2 -86437.46 75199.44 -85961.27 75294.68 -85675.55 75389.91 -85485.08 75580.39 -85199.36 75675.63 -85104.12 M 76342.29 -85580.31 76437.53 -85485.08 76628.01 -85389.84 77104.2 -85389.84 77294.68 -85485.08 77389.91 -85580.31 77485.15 -85770.79 77485.15 -85961.27 77389.91 -86246.98 76247.06 -87389.84 77485.15 -87389.84 M 79866.1 -87389.84 79866.1 -85389.84 M 80723.25 -87389.84 80723.25 -86342.22 80628.01 -86151.74 80437.53 -86056.5 80151.82 -86056.5 79961.34 -86151.74 79866.1 -86246.98 M 81961.34 -87389.84 81770.87 -87294.6 81675.63 -87199.36 81580.39 -87008.89 81580.39 -86437.46 81675.63 -86246.98 81770.87 -86151.74 81961.34 -86056.5 82247.06 -86056.5 82437.53 -86151.74 82532.77 -86246.98 82628.01 -86437.46 82628.01 -87008.89 82532.77 -87199.36 82437.53 -87294.6 82247.06 -87389.84 81961.34 -87389.84 M 83770.87 -87389.84 83580.39 -87294.6 83485.15 -87104.12 83485.15 -85389.84 M 85294.68 -87294.6 85104.2 -87389.84 84723.25 -87389.84 84532.77 -87294.6 84437.53 -87104.12 84437.53 -86342.22 84532.77 -86151.74 84723.25 -86056.5 85104.2 -86056.5 85294.68 -86151.74 85389.92 -86342.22 85389.92 -86532.7 84437.53 -86723.17 M 86151.82 -87294.6 86342.3 -87389.84 86723.25 -87389.84 86913.73 -87294.6 87008.96 -87104.12 87008.96 -87008.89 86913.73 -86818.41 86723.25 -86723.17 86437.53 -86723.17 86247.06 -86627.93 86151.82 -86437.46 86151.82 -86342.22 86247.06 -86151.74 86437.53 -86056.5 86723.25 -86056.5 86913.73 -86151.74 M 87675.63 -88151.74 87770.87 -88056.5 87961.34 -87770.79 88056.58 -87580.31 88151.82 -87294.6 88247.06 -86818.41 88247.06 -86437.46 88151.82 -85961.27 88056.58 -85675.55 87961.34 -85485.08 87770.87 -85199.36 87675.63 -85104.12 M 91294.68 -88151.74 91199.44 -88056.5 91008.96 -87770.79 90913.73 -87580.31 90818.49 -87294.6 90723.25 -86818.41 90723.25 -86437.46 90818.49 -85961.27 90913.73 -85675.55 91008.96 -85485.08 91199.44 -85199.36 91294.68 -85104.12 M 92056.58 -86056.5 92056.58 -87389.84 M 92056.58 -86246.98 92151.82 -86151.74 92342.3 -86056.5 92628.01 -86056.5 92818.49 -86151.74 92913.73 -86342.22 92913.73 -87389.84 M 94151.82 -87389.84 93961.34 -87294.6 93866.11 -87199.36 93770.87 -87008.89 93770.87 -86437.46 93866.11 -86246.98 93961.34 -86151.74 94151.82 -86056.5 94437.54 -86056.5 94628.01 -86151.74 94723.25 -86246.98 94818.49 -86437.46 94818.49 -87008.89 94723.25 -87199.36 94628.01 -87294.6 94437.54 -87389.84 94151.82 -87389.84 M 95389.92 -86056.5 96151.82 -86056.5 M 95675.63 -85389.84 95675.63 -87104.12 95770.87 -87294.6 95961.34 -87389.84 96151.82 -87389.84 M 98342.3 -86056.5 98342.3 -88056.5 M 98342.3 -86151.74 98532.77 -86056.5 98913.73 -86056.5 99104.2 -86151.74 99199.44 -86246.98 99294.68 -86437.46 99294.68 -87008.89 99199.44 -87199.36 99104.2 -87294.6 98913.73 -87389.84 98532.77 -87389.84 98342.3 -87294.6 M 100437.54 -87389.84 100247.06 -87294.6 100151.82 -87104.12 100151.82 -85389.84 M 102056.58 -87389.84 102056.58 -86342.22 101961.35 -86151.74 101770.87 -86056.5 101389.92 -86056.5 101199.44 -86151.74 M 102056.58 -87294.6 101866.11 -87389.84 101389.92 -87389.84 101199.44 -87294.6 101104.2 -87104.12 101104.2 -86913.65 101199.44 -86723.17 101389.92 -86627.93 101866.11 -86627.93 102056.58 -86532.7 M 102723.25 -86056.5 103485.15 -86056.5 M 103008.96 -85389.84 103008.96 -87104.12 103104.2 -87294.6 103294.68 -87389.84 103485.15 -87389.84 M 104913.73 -87294.6 104723.25 -87389.84 104342.3 -87389.84 104151.82 -87294.6 104056.58 -87104.12 104056.58 -86342.22 104151.82 -86151.74 104342.3 -86056.5 104723.25 -86056.5 104913.73 -86151.74 105008.96 -86342.22 105008.96 -86532.7 104056.58 -86723.17 M 106723.25 -87389.84 106723.25 -85389.84 M 106723.25 -87294.6 106532.77 -87389.84 106151.82 -87389.84 105961.35 -87294.6 105866.11 -87199.36 105770.87 -87008.89 105770.87 -86437.46 105866.11 -86246.98 105961.35 -86151.74 106151.82 -86056.5 106532.77 -86056.5 106723.25 -86151.74 M 107485.16 -88151.74 107580.39 -88056.5 107770.87 -87770.79 107866.11 -87580.31 107961.35 -87294.6 108056.58 -86818.41 108056.58 -86437.46 107961.35 -85961.27 107866.11 -85675.55 107770.87 -85485.08 107580.39 -85199.36 107485.16 -85104.12 M 39925 -89115 A 1000 1000 0 0 1 37925 -89115 1000 1000 0 0 1 39925 -89115 M 42437.53 -88220.31 42532.77 -88125.08 42723.24 -88029.84 43199.44 -88029.84 43389.91 -88125.08 43485.15 -88220.31 43580.39 -88410.79 43580.39 -88601.27 43485.15 -88886.98 42342.29 -90029.84 43580.39 -90029.84 M 44437.53 -89839.36 44532.77 -89934.6 44437.53 -90029.84 44342.29 -89934.6 44437.53 -89839.36 44437.53 -90029.84 M 45199.44 -88029.84 46532.77 -88029.84 45675.63 -90029.84 M 47675.63 -88029.84 47866.1 -88029.84 48056.58 -88125.08 48151.82 -88220.31 48247.05 -88410.79 48342.29 -88791.74 48342.29 -89267.93 48247.05 -89648.89 48151.82 -89839.36 48056.58 -89934.6 47866.1 -90029.84 47675.63 -90029.84 47485.15 -89934.6 47389.91 -89839.36 47294.67 -89648.89 47199.44 -89267.93 47199.44 -88791.74 47294.67 -88410.79 47389.91 -88220.31 47485.15 -88125.08 47675.63 -88029.84 M 49580.39 -88029.84 49770.86 -88029.84 49961.34 -88125.08 50056.58 -88220.31 50151.82 -88410.79 50247.05 -88791.74 50247.05 -89267.93 50151.82 -89648.89 50056.58 -89839.36 49961.34 -89934.6 49770.86 -90029.84 49580.39 -90029.84 49389.91 -89934.6 49294.67 -89839.36 49199.44 -89648.89 49104.2 -89267.93 49104.2 -88791.74 49199.44 -88410.79 49294.67 -88220.31 49389.91 -88125.08 49580.39 -88029.84 M 51104.2 -90029.84 51104.2 -88696.5 M 51104.2 -88886.98 51199.44 -88791.74 51389.91 -88696.5 51675.63 -88696.5 51866.1 -88791.74 51961.34 -88982.22 51961.34 -90029.84 M 51961.34 -88982.22 52056.58 -88791.74 52247.05 -88696.5 52532.77 -88696.5 52723.25 -88791.74 52818.48 -88982.22 52818.48 -90029.84 M 53770.86 -90029.84 53770.86 -88696.5 M 53770.86 -88886.98 53866.1 -88791.74 54056.58 -88696.5 54342.29 -88696.5 54532.77 -88791.74 54628.01 -88982.22 54628.01 -90029.84 M 54628.01 -88982.22 54723.25 -88791.74 54913.72 -88696.5 55199.44 -88696.5 55389.91 -88791.74 55485.15 -88982.22 55485.15 -90029.84 M 59389.91 -87934.6 57675.63 -90506.03 M 61961.34 -88029.84 62151.82 -88029.84 62342.29 -88125.08 62437.53 -88220.31 62532.77 -88410.79 62628.01 -88791.74 62628.01 -89267.93 62532.77 -89648.89 62437.53 -89839.36 62342.29 -89934.6 62151.82 -90029.84 61961.34 -90029.84 61770.86 -89934.6 61675.63 -89839.36 61580.39 -89648.89 61485.15 -89267.93 61485.15 -88791.74 61580.39 -88410.79 61675.63 -88220.31 61770.86 -88125.08 61961.34 -88029.84 M 63485.15 -89839.36 63580.39 -89934.6 63485.15 -90029.84 63389.91 -89934.6 63485.15 -89839.36 63485.15 -90029.84 M 65485.15 -90029.84 64342.29 -90029.84 M 64913.72 -90029.84 64913.72 -88029.84 64723.25 -88315.55 64532.77 -88506.03 64342.29 -88601.27 M 66723.25 -88029.84 66913.72 -88029.84 67104.2 -88125.08 67199.44 -88220.31 67294.67 -88410.79 67389.91 -88791.74 67389.91 -89267.93 67294.67 -89648.89 67199.44 -89839.36 67104.2 -89934.6 66913.72 -90029.84 66723.25 -90029.84 66532.77 -89934.6 66437.53 -89839.36 66342.29 -89648.89 66247.06 -89267.93 66247.06 -88791.74 66342.29 -88410.79 66437.53 -88220.31 66532.77 -88125.08 66723.25 -88029.84 M 69104.2 -88029.84 68723.25 -88029.84 68532.77 -88125.08 68437.53 -88220.31 68247.06 -88506.03 68151.82 -88886.98 68151.82 -89648.89 68247.06 -89839.36 68342.29 -89934.6 68532.77 -90029.84 68913.72 -90029.84 69104.2 -89934.6 69199.44 -89839.36 69294.67 -89648.89 69294.67 -89172.7 69199.44 -88982.22 69104.2 -88886.98 68913.72 -88791.74 68532.77 -88791.74 68342.29 -88886.98 68247.06 -88982.22 68151.82 -89172.7 M 69961.34 -88029.84 71199.44 -88029.84 70532.77 -88791.74 70818.48 -88791.74 71008.96 -88886.98 71104.2 -88982.22 71199.44 -89172.7 71199.44 -89648.89 71104.2 -89839.36 71008.96 -89934.6 70818.48 -90029.84 70247.06 -90029.84 70056.58 -89934.6 69961.34 -89839.36 M 71961.34 -88029.84 71961.34 -88410.79 M 72723.25 -88029.84 72723.25 -88410.79 M 75675.63 -90791.74 75580.39 -90696.5 75389.91 -90410.79 75294.68 -90220.31 75199.44 -89934.6 75104.2 -89458.41 75104.2 -89077.46 75199.44 -88601.27 75294.68 -88315.55 75389.91 -88125.08 75580.39 -87839.36 75675.63 -87744.12 M 77294.68 -88696.5 77294.68 -90029.84 M 76818.48 -87934.6 76342.29 -89363.17 77580.39 -89363.17 M 79866.1 -90029.84 79866.1 -88029.84 M 80723.25 -90029.84 80723.25 -88982.22 80628.01 -88791.74 80437.53 -88696.5 80151.82 -88696.5 79961.34 -88791.74 79866.1 -88886.98 M 81961.34 -90029.84 81770.87 -89934.6 81675.63 -89839.36 81580.39 -89648.89 81580.39 -89077.46 81675.63 -88886.98 81770.87 -88791.74 81961.34 -88696.5 82247.06 -88696.5 82437.53 -88791.74 82532.77 -88886.98 82628.01 -89077.46 82628.01 -89648.89 82532.77 -89839.36 82437.53 -89934.6 82247.06 -90029.84 81961.34 -90029.84 M 83770.87 -90029.84 83580.39 -89934.6 83485.15 -89744.12 83485.15 -88029.84 M 85294.68 -89934.6 85104.2 -90029.84 84723.25 -90029.84 84532.77 -89934.6 84437.53 -89744.12 84437.53 -88982.22 84532.77 -88791.74 84723.25 -88696.5 85104.2 -88696.5 85294.68 -88791.74 85389.92 -88982.22 85389.92 -89172.7 84437.53 -89363.17 M 86151.82 -89934.6 86342.3 -90029.84 86723.25 -90029.84 86913.73 -89934.6 87008.96 -89744.12 87008.96 -89648.89 86913.73 -89458.41 86723.25 -89363.17 86437.53 -89363.17 86247.06 -89267.93 86151.82 -89077.46 86151.82 -88982.22 86247.06 -88791.74 86437.53 -88696.5 86723.25 -88696.5 86913.73 -88791.74 M 87675.63 -90791.74 87770.87 -90696.5 87961.34 -90410.79 88056.58 -90220.31 88151.82 -89934.6 88247.06 -89458.41 88247.06 -89077.46 88151.82 -88601.27 88056.58 -88315.55 87961.34 -88125.08 87770.87 -87839.36 87675.63 -87744.12 M 91294.68 -90791.74 91199.44 -90696.5 91008.96 -90410.79 90913.73 -90220.31 90818.49 -89934.6 90723.25 -89458.41 90723.25 -89077.46 90818.49 -88601.27 90913.73 -88315.55 91008.96 -88125.08 91199.44 -87839.36 91294.68 -87744.12 M 92056.58 -88696.5 92056.58 -90029.84 M 92056.58 -88886.98 92151.82 -88791.74 92342.3 -88696.5 92628.01 -88696.5 92818.49 -88791.74 92913.73 -88982.22 92913.73 -90029.84 M 94151.82 -90029.84 93961.34 -89934.6 93866.11 -89839.36 93770.87 -89648.89 93770.87 -89077.46 93866.11 -88886.98 93961.34 -88791.74 94151.82 -88696.5 94437.54 -88696.5 94628.01 -88791.74 94723.25 -88886.98 94818.49 -89077.46 94818.49 -89648.89 94723.25 -89839.36 94628.01 -89934.6 94437.54 -90029.84 94151.82 -90029.84 M 95389.92 -88696.5 96151.82 -88696.5 M 95675.63 -88029.84 95675.63 -89744.12 95770.87 -89934.6 95961.34 -90029.84 96151.82 -90029.84 M 98342.3 -88696.5 98342.3 -90696.5 M 98342.3 -88791.74 98532.77 -88696.5 98913.73 -88696.5 99104.2 -88791.74 99199.44 -88886.98 99294.68 -89077.46 99294.68 -89648.89 99199.44 -89839.36 99104.2 -89934.6 98913.73 -90029.84 98532.77 -90029.84 98342.3 -89934.6 M 100437.54 -90029.84 100247.06 -89934.6 100151.82 -89744.12 100151.82 -88029.84 M 102056.58 -90029.84 102056.58 -88982.22 101961.35 -88791.74 101770.87 -88696.5 101389.92 -88696.5 101199.44 -88791.74 M 102056.58 -89934.6 101866.11 -90029.84 101389.92 -90029.84 101199.44 -89934.6 101104.2 -89744.12 101104.2 -89553.65 101199.44 -89363.17 101389.92 -89267.93 101866.11 -89267.93 102056.58 -89172.7 M 102723.25 -88696.5 103485.15 -88696.5 M 103008.96 -88029.84 103008.96 -89744.12 103104.2 -89934.6 103294.68 -90029.84 103485.15 -90029.84 M 104913.73 -89934.6 104723.25 -90029.84 104342.3 -90029.84 104151.82 -89934.6 104056.58 -89744.12 104056.58 -88982.22 104151.82 -88791.74 104342.3 -88696.5 104723.25 -88696.5 104913.73 -88791.74 105008.96 -88982.22 105008.96 -89172.7 104056.58 -89363.17 M 106723.25 -90029.84 106723.25 -88029.84 M 106723.25 -89934.6 106532.77 -90029.84 106151.82 -90029.84 105961.35 -89934.6 105866.11 -89839.36 105770.87 -89648.89 105770.87 -89077.46 105866.11 -88886.98 105961.35 -88791.74 106151.82 -88696.5 106532.77 -88696.5 106723.25 -88791.74 M 107485.16 -90791.74 107580.39 -90696.5 107770.87 -90410.79 107866.11 -90220.31 107961.35 -89934.6 108056.58 -89458.41 108056.58 -89077.46 107961.35 -88601.27 107866.11 -88315.55 107770.87 -88125.08 107580.39 -87839.36 107485.16 -87744.12" fill="none" stroke-width="200"/></g></svg>