<svg version="1.1" xmlns="http://www.w3.org/2000/svg" xmlns:xlink="http://www.w3.org/1999/xlink" stroke-linecap="round" stroke-linejoin="round" stroke-width="0" fill-rule="evenodd" width="2.36025in" height="0.99095in" viewBox="1710.65 -3027.55 2360.25 990.95" id="RH1mJNNJ239HcZ73pMa_"><defs><circle cx="0" cy="0" r="7.85" id="RH1mJNNJ239HcZ73pMa__pad-1"/><circle cx="0" cy="0" r="19.7" id="RH1mJNNJ239HcZ73pMa__pad-2"/><circle cx="0" cy="0" r="21.65" id="RH1mJNNJ239HcZ73pMa__pad-3"/></defs><g transform="translate(0,-5064.150000000001) scale(1,-1)" fill="currentColor" stroke="currentColor"><use xlink:href="#RH1mJNNJ239HcZ73pMa__pad-1" x="1870.1" y="-2937"/><use xlink:href="#RH1mJNNJ239HcZ73pMa__pad-1" x="2122" y="-2523.6"/><use xlink:href="#RH1mJNNJ239HcZ73pMa__pad-1" x="2200.8" y="-2570.9"/><use xlink:href="#RH1mJNNJ239HcZ73pMa__pad-1" x="2263.8" y="-2637.8"/><use xlink:href="#RH1mJNNJ239HcZ73pMa__pad-1" x="2397.6" y="-2665.4"/><use xlink:href="#RH1mJNNJ239HcZ73pMa__pad-1" x="2397.6" y="-2704.7"/><use xlink:href="#RH1mJNNJ239HcZ73pMa__pad-1" x="2397.6" y="-2740.2"/><use xlink:href="#RH1mJNNJ239HcZ73pMa__pad-1" x="2590.6" y="-2614.2"/><use xlink:href="#RH1mJNNJ239HcZ73pMa__pad-1" x="2622" y="-2940.9"/><use xlink:href="#RH1mJNNJ239HcZ73pMa__pad-1" x="2657.5" y="-2409.4"/><use xlink:href="#RH1mJNNJ239HcZ73pMa__pad-1" x="2677.2" y="-2716.5"/><use xlink:href="#RH1mJNNJ239HcZ73pMa__pad-1" x="2677.2" y="-2893.7"/><use xlink:href="#RH1mJNNJ239HcZ73pMa__pad-1" x="2704.7" y="-2598.4"/><use xlink:href="#RH1mJNNJ239HcZ73pMa__pad-1" x="2940.9" y="-3019.7"/><use xlink:href="#RH1mJNNJ239HcZ73pMa__pad-1" x="2988.2" y="-2850.4"/><use xlink:href="#RH1mJNNJ239HcZ73pMa__pad-1" x="2988.2" y="-3007.9"/><use xlink:href="#RH1mJNNJ239HcZ73pMa__pad-1" x="2992.1" y="-2303.1"/><use xlink:href="#RH1mJNNJ239HcZ73pMa__pad-1" x="3043.3" y="-2858.3"/><use xlink:href="#RH1mJNNJ239HcZ73pMa__pad-1" x="3055.1" y="-2444.9"/><use xlink:href="#RH1mJNNJ239HcZ73pMa__pad-1" x="3118.1" y="-2878"/><use xlink:href="#RH1mJNNJ239HcZ73pMa__pad-1" x="3198.8" y="-2687"/><use xlink:href="#RH1mJNNJ239HcZ73pMa__pad-1" x="3287.4" y="-2401.6"/><use xlink:href="#RH1mJNNJ239HcZ73pMa__pad-1" x="3287.4" y="-2716.5"/><use xlink:href="#RH1mJNNJ239HcZ73pMa__pad-1" x="3598.4" y="-2846.5"/><use xlink:href="#RH1mJNNJ239HcZ73pMa__pad-1" x="3689" y="-2665.4"/><use xlink:href="#RH1mJNNJ239HcZ73pMa__pad-1" x="3885.8" y="-2818.9"/><use xlink:href="#RH1mJNNJ239HcZ73pMa__pad-1" x="3887.2" y="-2765.2"/><use xlink:href="#RH1mJNNJ239HcZ73pMa__pad-2" x="1904.3" y="-2056.3"/><use xlink:href="#RH1mJNNJ239HcZ73pMa__pad-2" x="1904.3" y="-2156.3"/><use xlink:href="#RH1mJNNJ239HcZ73pMa__pad-2" x="2004.3" y="-2056.3"/><use xlink:href="#RH1mJNNJ239HcZ73pMa__pad-2" x="2004.3" y="-2156.3"/><use xlink:href="#RH1mJNNJ239HcZ73pMa__pad-2" x="2104.3" y="-2056.3"/><use xlink:href="#RH1mJNNJ239HcZ73pMa__pad-2" x="2104.3" y="-2156.3"/><use xlink:href="#RH1mJNNJ239HcZ73pMa__pad-2" x="2204.3" y="-2056.3"/><use xlink:href="#RH1mJNNJ239HcZ73pMa__pad-2" x="2204.3" y="-2156.3"/><use xlink:href="#RH1mJNNJ239HcZ73pMa__pad-2" x="2304.3" y="-2056.3"/><use xlink:href="#RH1mJNNJ239HcZ73pMa__pad-2" x="2304.3" y="-2156.3"/><use xlink:href="#RH1mJNNJ239HcZ73pMa__pad-2" x="2404.3" y="-2056.3"/><use xlink:href="#RH1mJNNJ239HcZ73pMa__pad-2" x="2404.3" y="-2156.3"/><use xlink:href="#RH1mJNNJ239HcZ73pMa__pad-2" x="2504.3" y="-2056.3"/><use xlink:href="#RH1mJNNJ239HcZ73pMa__pad-2" x="2504.3" y="-2156.3"/><use xlink:href="#RH1mJNNJ239HcZ73pMa__pad-2" x="2604.3" y="-2056.3"/><use xlink:href="#RH1mJNNJ239HcZ73pMa__pad-2" x="2604.3" y="-2156.3"/><use xlink:href="#RH1mJNNJ239HcZ73pMa__pad-2" x="2704.3" y="-2056.3"/><use xlink:href="#RH1mJNNJ239HcZ73pMa__pad-2" x="2704.3" y="-2156.3"/><use xlink:href="#RH1mJNNJ239HcZ73pMa__pad-2" x="2804.3" y="-2056.3"/><use xlink:href="#RH1mJNNJ239HcZ73pMa__pad-2" x="2804.3" y="-2156.3"/><use xlink:href="#RH1mJNNJ239HcZ73pMa__pad-2" x="2904.3" y="-2056.3"/><use xlink:href="#RH1mJNNJ239HcZ73pMa__pad-2" x="2904.3" y="-2156.3"/><use xlink:href="#RH1mJNNJ239HcZ73pMa__pad-2" x="3004.3" y="-2056.3"/><use xlink:href="#RH1mJNNJ239HcZ73pMa__pad-2" x="3004.3" y="-2156.3"/><use xlink:href="#RH1mJNNJ239HcZ73pMa__pad-2" x="3104.3" y="-2056.3"/><use xlink:href="#RH1mJNNJ239HcZ73pMa__pad-2" x="3104.3" y="-2156.3"/><use xlink:href="#RH1mJNNJ239HcZ73pMa__pad-2" x="3204.3" y="-2056.3"/><use xlink:href="#RH1mJNNJ239HcZ73pMa__pad-2" x="3204.3" y="-2156.3"/><use xlink:href="#RH1mJNNJ239HcZ73pMa__pad-2" x="3304.3" y="-2056.3"/><use xlink:href="#RH1mJNNJ239HcZ73pMa__pad-2" x="3304.3" y="-2156.3"/><use xlink:href="#RH1mJNNJ239HcZ73pMa__pad-2" x="3404.3" y="-2056.3"/><use xlink:href="#RH1mJNNJ239HcZ73pMa__pad-2" x="3404.3" y="-2156.3"/><use xlink:href="#RH1mJNNJ239HcZ73pMa__pad-2" x="3504.3" y="-2056.3"/><use xlink:href="#RH1mJNNJ239HcZ73pMa__pad-2" x="3504.3" y="-2156.3"/><use xlink:href="#RH1mJNNJ239HcZ73pMa__pad-2" x="3604.3" y="-2056.3"/><use xlink:href="#RH1mJNNJ239HcZ73pMa__pad-2" x="3604.3" y="-2156.3"/><use xlink:href="#RH1mJNNJ239HcZ73pMa__pad-2" x="3651.2" y="-2401.6"/><use xlink:href="#RH1mJNNJ239HcZ73pMa__pad-2" x="3704.3" y="-2056.3"/><use xlink:href="#RH1mJNNJ239HcZ73pMa__pad-2" x="3704.3" y="-2156.3"/><use xlink:href="#RH1mJNNJ239HcZ73pMa__pad-2" x="3751.2" y="-2401.6"/><use xlink:href="#RH1mJNNJ239HcZ73pMa__pad-2" x="3804.3" y="-2056.3"/><use xlink:href="#RH1mJNNJ239HcZ73pMa__pad-2" x="3804.3" y="-2156.3"/><use xlink:href="#RH1mJNNJ239HcZ73pMa__pad-2" x="3851.2" y="-2401.6"/><use xlink:href="#RH1mJNNJ239HcZ73pMa__pad-2" x="3876.4" y="-2543.3"/><use xlink:href="#RH1mJNNJ239HcZ73pMa__pad-2" x="3951.2" y="-2401.6"/><use xlink:href="#RH1mJNNJ239HcZ73pMa__pad-2" x="3976.4" y="-2543.3"/><use xlink:href="#RH1mJNNJ239HcZ73pMa__pad-2" x="4051.2" y="-2401.6"/><use xlink:href="#RH1mJNNJ239HcZ73pMa__pad-3" x="1732.3" y="-2339.8"/><use xlink:href="#RH1mJNNJ239HcZ73pMa__pad-3" x="1732.3" y="-2439.8"/><use xlink:href="#RH1mJNNJ239HcZ73pMa__pad-3" x="1976.4" y="-3000"/><use xlink:href="#RH1mJNNJ239HcZ73pMa__pad-3" x="2076.4" y="-3000"/><use xlink:href="#RH1mJNNJ239HcZ73pMa__pad-3" x="2176.4" y="-3000"/><use xlink:href="#RH1mJNNJ239HcZ73pMa__pad-3" x="2276.4" y="-3000"/><use xlink:href="#RH1mJNNJ239HcZ73pMa__pad-3" x="2376.4" y="-3000"/><use xlink:href="#RH1mJNNJ239HcZ73pMa__pad-3" x="2476.4" y="-3000"/></g></svg>