<svg version="1.1" xmlns="http://www.w3.org/2000/svg" xmlns:xlink="http://www.w3.org/1999/xlink" stroke-linecap="round" stroke-linejoin="round" stroke-width="0" fill-rule="evenodd" width="63.55mm" height="28.55mm" viewBox="40725 -79275 63550 28550" id="gyVdq6SyZdoBg0IBUtcC"><g transform="translate(0,-130000) scale(1,-1)" fill="currentColor" stroke="currentColor"><path d="M 46200 -53500 A 2700 2700 0 0 1 40800 -53500 2700 2700 0 0 1 46200 -53500 M 46200 -76500 A 2700 2700 0 0 1 40800 -76500 2700 2700 0 0 1 46200 -76500 M 104200 -53500 A 2700 2700 0 0 1 98800 -53500 2700 2700 0 0 1 104200 -53500 M 104200 -76500 A 2700 2700 0 0 1 98800 -76500 2700 2700 0 0 1 104200 -76500" fill="none" stroke-width="150"/></g></svg>