<svg version="1.1" xmlns="http://www.w3.org/2000/svg" xmlns:xlink="http://www.w3.org/1999/xlink" stroke-linecap="round" stroke-linejoin="round" stroke-width="0" fill-rule="evenodd" width="66.305mm" height="43.606739999999995mm" viewBox="38770 -93531.74 66305 43606.74" id="zc716STmYv1CmQtQvZgX"><g transform="translate(0,-143456.74000000002) scale(1,-1)" fill="currentColor" stroke="currentColor"><path d="M 105000 -77000 105000 -53000 A 3000 3000 0 0 1 102000 -50000 M 43000 -50000 A 3000 3000 0 0 1 40000 -53000 M 102000 -50000 43000 -50000 M 40000 -77000 A 3000 3000 0 0 1 43000 -80000 M 40000 -53000 40000 -77000 M 102000 -80000 A 3000 3000 0 0 1 105000 -77000 M 43000 -80000 102000 -80000" fill="none" stroke-width="150"/><path d="M 47300 -74400 47700 -74800 M 47700 -74400 47300 -74800 M 53700 -63900 54100 -64300 M 54100 -63900 53700 -64300 M 55700 -65100 56100 -65500 M 56100 -65100 55700 -65500 M 57300 -66800 57700 -67200 M 57700 -66800 57300 -67200 M 60700 -67500 61100 -67900 M 61100 -67500 60700 -67900 M 60700 -68500 61100 -68900 M 61100 -68500 60700 -68900 M 60700 -69400 61100 -69800 M 61100 -69400 60700 -69800 M 65600 -66200 66000 -66600 M 66000 -66200 65600 -66600 M 66400 -74500 66800 -74900 M 66800 -74500 66400 -74900 M 67300 -61000 67700 -61400 M 67700 -61000 67300 -61400 M 67800 -68800 68200 -69200 M 68200 -68800 67800 -69200 M 67800 -73300 68200 -73700 M 68200 -73300 67800 -73700 M 68500 -65800 68900 -66200 M 68900 -65800 68500 -66200 M 74500 -76500 74900 -76900 M 74900 -76500 74500 -76900 M 75700 -72200 76100 -72600 M 76100 -72200 75700 -72600 M 75700 -76200 76100 -76600 M 76100 -76200 75700 -76600 M 75800 -58300 76200 -58700 M 76200 -58300 75800 -58700 M 77100 -72400 77500 -72800 M 77500 -72400 77100 -72800 M 77400 -61900 77800 -62300 M 77800 -61900 77400 -62300 M 79000 -72900 79400 -73300 M 79400 -72900 79000 -73300 M 81050 -68050 81450 -68450 M 81450 -68050 81050 -68450 M 83300 -60800 83700 -61200 M 83700 -60800 83300 -61200 M 83300 -68800 83700 -69200 M 83700 -68800 83300 -69200 M 91200 -72100 91600 -72500 M 91600 -72100 91200 -72500 M 93500 -67500 93900 -67900 M 93900 -67500 93500 -67900 M 98500 -71400 98900 -71800 M 98900 -71400 98500 -71800 M 98535 -70035 98935 -70435 M 98935 -70035 98535 -70435" fill="none" stroke-width="40"/><path d="M 48870 -52230 A 500 500 0 0 1 47870 -52230 500 500 0 0 1 48870 -52230 M 48870 -54770 A 500 500 0 0 1 47870 -54770 500 500 0 0 1 48870 -54770 M 51410 -52230 A 500 500 0 0 1 50410 -52230 500 500 0 0 1 51410 -52230 M 51410 -54770 A 500 500 0 0 1 50410 -54770 500 500 0 0 1 51410 -54770 M 53950 -52230 A 500 500 0 0 1 52950 -52230 500 500 0 0 1 53950 -52230 M 53950 -54770 A 500 500 0 0 1 52950 -54770 500 500 0 0 1 53950 -54770 M 56490 -52230 A 500 500 0 0 1 55490 -52230 500 500 0 0 1 56490 -52230 M 56490 -54770 A 500 500 0 0 1 55490 -54770 500 500 0 0 1 56490 -54770 M 59030 -52230 A 500 500 0 0 1 58030 -52230 500 500 0 0 1 59030 -52230 M 59030 -54770 A 500 500 0 0 1 58030 -54770 500 500 0 0 1 59030 -54770 M 61570 -52230 A 500 500 0 0 1 60570 -52230 500 500 0 0 1 61570 -52230 M 61570 -54770 A 500 500 0 0 1 60570 -54770 500 500 0 0 1 61570 -54770 M 64110 -52230 A 500 500 0 0 1 63110 -52230 500 500 0 0 1 64110 -52230 M 64110 -54770 A 500 500 0 0 1 63110 -54770 500 500 0 0 1 64110 -54770 M 66650 -52230 A 500 500 0 0 1 65650 -52230 500 500 0 0 1 66650 -52230 M 66650 -54770 A 500 500 0 0 1 65650 -54770 500 500 0 0 1 66650 -54770 M 69190 -52230 A 500 500 0 0 1 68190 -52230 500 500 0 0 1 69190 -52230 M 69190 -54770 A 500 500 0 0 1 68190 -54770 500 500 0 0 1 69190 -54770 M 71730 -52230 A 500 500 0 0 1 70730 -52230 500 500 0 0 1 71730 -52230 M 71730 -54770 A 500 500 0 0 1 70730 -54770 500 500 0 0 1 71730 -54770 M 74270 -52230 A 500 500 0 0 1 73270 -52230 500 500 0 0 1 74270 -52230 M 74270 -54770 A 500 500 0 0 1 73270 -54770 500 500 0 0 1 74270 -54770 M 76810 -52230 A 500 500 0 0 1 75810 -52230 500 500 0 0 1 76810 -52230 M 76810 -54770 A 500 500 0 0 1 75810 -54770 500 500 0 0 1 76810 -54770 M 79350 -52230 A 500 500 0 0 1 78350 -52230 500 500 0 0 1 79350 -52230 M 79350 -54770 A 500 500 0 0 1 78350 -54770 500 500 0 0 1 79350 -54770 M 81890 -52230 A 500 500 0 0 1 80890 -52230 500 500 0 0 1 81890 -52230 M 81890 -54770 A 500 500 0 0 1 80890 -54770 500 500 0 0 1 81890 -54770 M 84430 -52230 A 500 500 0 0 1 83430 -52230 500 500 0 0 1 84430 -52230 M 84430 -54770 A 500 500 0 0 1 83430 -54770 500 500 0 0 1 84430 -54770 M 86970 -52230 A 500 500 0 0 1 85970 -52230 500 500 0 0 1 86970 -52230 M 86970 -54770 A 500 500 0 0 1 85970 -54770 500 500 0 0 1 86970 -54770 M 89510 -52230 A 500 500 0 0 1 88510 -52230 500 500 0 0 1 89510 -52230 M 89510 -54770 A 500 500 0 0 1 88510 -54770 500 500 0 0 1 89510 -54770 M 92050 -52230 A 500 500 0 0 1 91050 -52230 500 500 0 0 1 92050 -52230 M 92050 -54770 A 500 500 0 0 1 91050 -54770 500 500 0 0 1 92050 -54770 M 93240 -61000 A 500 500 0 0 1 92240 -61000 500 500 0 0 1 93240 -61000 M 94590 -52230 A 500 500 0 0 1 93590 -52230 500 500 0 0 1 94590 -52230 M 94590 -54770 A 500 500 0 0 1 93590 -54770 500 500 0 0 1 94590 -54770 M 95780 -61000 A 500 500 0 0 1 94780 -61000 500 500 0 0 1 95780 -61000 M 97130 -52230 A 500 500 0 0 1 96130 -52230 500 500 0 0 1 97130 -52230 M 97130 -54770 A 500 500 0 0 1 96130 -54770 500 500 0 0 1 97130 -54770 M 98320 -61000 A 500 500 0 0 1 97320 -61000 500 500 0 0 1 98320 -61000 M 98960 -64600 A 500 500 0 0 1 97960 -64600 500 500 0 0 1 98960 -64600 M 100860 -61000 A 500 500 0 0 1 99860 -61000 500 500 0 0 1 100860 -61000 M 101500 -64600 A 500 500 0 0 1 100500 -64600 500 500 0 0 1 101500 -64600 M 103400 -61000 A 500 500 0 0 1 102400 -61000 500 500 0 0 1 103400 -61000" fill="none" stroke-width="100"/><path d="M 44000 -58880 44000 -59980 M 43450 -59430 44550 -59430 M 44000 -61420 44000 -62520 M 43450 -61970 44550 -61970 M 50200 -75650 50200 -76750 M 49650 -76200 50750 -76200 M 52740 -75650 52740 -76750 M 52190 -76200 53290 -76200 M 55280 -75650 55280 -76750 M 54730 -76200 55830 -76200 M 57820 -75650 57820 -76750 M 57270 -76200 58370 -76200 M 60360 -75650 60360 -76750 M 59810 -76200 60910 -76200 M 62900 -75650 62900 -76750 M 62350 -76200 63450 -76200" fill="none" stroke-width="110"/><path d="M 42532.77 -83189.84 42532.77 -81189.84 43008.96 -81189.84 43294.67 -81285.08 43485.15 -81475.55 43580.39 -81666.03 43675.63 -82046.98 43675.63 -82332.69 43580.39 -82713.65 43485.15 -82904.12 43294.67 -83094.6 43008.96 -83189.84 42532.77 -83189.84 M 44532.77 -83189.84 44532.77 -81856.5 M 44532.77 -82237.46 44628.01 -82046.98 44723.24 -81951.74 44913.72 -81856.5 45104.2 -81856.5 M 45770.86 -83189.84 45770.86 -81856.5 M 45770.86 -81189.84 45675.63 -81285.08 45770.86 -81380.31 45866.1 -81285.08 45770.86 -81189.84 45770.86 -81380.31 M 47008.96 -83189.84 46818.48 -83094.6 46723.24 -82904.12 46723.24 -81189.84 M 48056.58 -83189.84 47866.1 -83094.6 47770.86 -82904.12 47770.86 -81189.84 M 50342.29 -83189.84 50342.29 -81189.84 51008.96 -82618.41 51675.63 -81189.84 51675.63 -83189.84 M 53485.15 -83189.84 53485.15 -82142.22 53389.91 -81951.74 53199.44 -81856.5 52818.48 -81856.5 52628.01 -81951.74 M 53485.15 -83094.6 53294.67 -83189.84 52818.48 -83189.84 52628.01 -83094.6 52532.77 -82904.12 52532.77 -82713.65 52628.01 -82523.17 52818.48 -82427.93 53294.67 -82427.93 53485.15 -82332.69 M 54437.53 -81856.5 54437.53 -83856.5 M 54437.53 -81951.74 54628.01 -81856.5 55008.96 -81856.5 55199.44 -81951.74 55294.67 -82046.98 55389.91 -82237.46 55389.91 -82808.88 55294.67 -82999.36 55199.44 -83094.6 55008.96 -83189.84 54628.01 -83189.84 54437.53 -83094.6 M 56247.05 -82999.36 56342.29 -83094.6 56247.05 -83189.84 56151.82 -83094.6 56247.05 -82999.36 56247.05 -83189.84 M 56247.05 -81951.74 56342.29 -82046.98 56247.05 -82142.22 56151.82 -82046.98 56247.05 -81951.74 56247.05 -82142.22" fill="none" stroke-width="200"/><path d="M 39525 -86275 39925 -86675 M 39925 -86275 39525 -86675" fill="none" stroke-width="40"/><path d="M 42913.72 -85389.84 43104.2 -85389.84 43294.67 -85485.08 43389.91 -85580.31 43485.15 -85770.79 43580.39 -86151.74 43580.39 -86627.93 43485.15 -87008.89 43389.91 -87199.36 43294.67 -87294.6 43104.2 -87389.84 42913.72 -87389.84 42723.24 -87294.6 42628.01 -87199.36 42532.77 -87008.89 42437.53 -86627.93 42437.53 -86151.74 42532.77 -85770.79 42628.01 -85580.31 42723.24 -85485.08 42913.72 -85389.84 M 44437.53 -87199.36 44532.77 -87294.6 44437.53 -87389.84 44342.29 -87294.6 44437.53 -87199.36 44437.53 -87389.84 M 46247.05 -86056.5 46247.05 -87389.84 M 45770.86 -85294.6 45294.67 -86723.17 46532.77 -86723.17 M 47675.63 -85389.84 47866.1 -85389.84 48056.58 -85485.08 48151.82 -85580.31 48247.05 -85770.79 48342.29 -86151.74 48342.29 -86627.93 48247.05 -87008.89 48151.82 -87199.36 48056.58 -87294.6 47866.1 -87389.84 47675.63 -87389.84 47485.15 -87294.6 47389.91 -87199.36 47294.67 -87008.89 47199.44 -86627.93 47199.44 -86151.74 47294.67 -85770.79 47389.91 -85580.31 47485.15 -85485.08 47675.63 -85389.84 M 49580.39 -85389.84 49770.86 -85389.84 49961.34 -85485.08 50056.58 -85580.31 50151.82 -85770.79 50247.05 -86151.74 50247.05 -86627.93 50151.82 -87008.89 50056.58 -87199.36 49961.34 -87294.6 49770.86 -87389.84 49580.39 -87389.84 49389.91 -87294.6 49294.67 -87199.36 49199.44 -87008.89 49104.2 -86627.93 49104.2 -86151.74 49199.44 -85770.79 49294.67 -85580.31 49389.91 -85485.08 49580.39 -85389.84 M 51104.2 -87389.84 51104.2 -86056.5 M 51104.2 -86246.98 51199.44 -86151.74 51389.91 -86056.5 51675.63 -86056.5 51866.1 -86151.74 51961.34 -86342.22 51961.34 -87389.84 M 51961.34 -86342.22 52056.58 -86151.74 52247.05 -86056.5 52532.77 -86056.5 52723.25 -86151.74 52818.48 -86342.22 52818.48 -87389.84 M 53770.86 -87389.84 53770.86 -86056.5 M 53770.86 -86246.98 53866.1 -86151.74 54056.58 -86056.5 54342.29 -86056.5 54532.77 -86151.74 54628.01 -86342.22 54628.01 -87389.84 M 54628.01 -86342.22 54723.25 -86151.74 54913.72 -86056.5 55199.44 -86056.5 55389.91 -86151.74 55485.15 -86342.22 55485.15 -87389.84 M 59389.91 -85294.6 57675.63 -87866.03 M 61961.34 -85389.84 62151.82 -85389.84 62342.29 -85485.08 62437.53 -85580.31 62532.77 -85770.79 62628.01 -86151.74 62628.01 -86627.93 62532.77 -87008.89 62437.53 -87199.36 62342.29 -87294.6 62151.82 -87389.84 61961.34 -87389.84 61770.86 -87294.6 61675.63 -87199.36 61580.39 -87008.89 61485.15 -86627.93 61485.15 -86151.74 61580.39 -85770.79 61675.63 -85580.31 61770.86 -85485.08 61961.34 -85389.84 M 63485.15 -87199.36 63580.39 -87294.6 63485.15 -87389.84 63389.91 -87294.6 63485.15 -87199.36 63485.15 -87389.84 M 64818.48 -85389.84 65008.96 -85389.84 65199.44 -85485.08 65294.67 -85580.31 65389.91 -85770.79 65485.15 -86151.74 65485.15 -86627.93 65389.91 -87008.89 65294.67 -87199.36 65199.44 -87294.6 65008.96 -87389.84 64818.48 -87389.84 64628.01 -87294.6 64532.77 -87199.36 64437.53 -87008.89 64342.29 -86627.93 64342.29 -86151.74 64437.53 -85770.79 64532.77 -85580.31 64628.01 -85485.08 64818.48 -85389.84 M 67389.91 -87389.84 66247.06 -87389.84 M 66818.48 -87389.84 66818.48 -85389.84 66628.01 -85675.55 66437.53 -85866.03 66247.06 -85961.27 M 69199.44 -85389.84 68247.06 -85389.84 68151.82 -86342.22 68247.06 -86246.98 68437.53 -86151.74 68913.72 -86151.74 69104.2 -86246.98 69199.44 -86342.22 69294.67 -86532.7 69294.67 -87008.89 69199.44 -87199.36 69104.2 -87294.6 68913.72 -87389.84 68437.53 -87389.84 68247.06 -87294.6 68151.82 -87199.36 M 69961.34 -85389.84 71294.67 -85389.84 70437.53 -87389.84 M 71961.34 -85389.84 71961.34 -85770.79 M 72723.25 -85389.84 72723.25 -85770.79 M 75675.63 -88151.74 75580.39 -88056.5 75389.91 -87770.79 75294.68 -87580.31 75199.44 -87294.6 75104.2 -86818.41 75104.2 -86437.46 75199.44 -85961.27 75294.68 -85675.55 75389.91 -85485.08 75580.39 -85199.36 75675.63 -85104.12 M 76342.29 -85580.31 76437.53 -85485.08 76628.01 -85389.84 77104.2 -85389.84 77294.68 -85485.08 77389.91 -85580.31 77485.15 -85770.79 77485.15 -85961.27 77389.91 -86246.98 76247.06 -87389.84 77485.15 -87389.84 M 78151.82 -85389.84 79485.15 -85389.84 78628.01 -87389.84 M 81770.87 -87389.84 81770.87 -85389.84 M 82628.01 -87389.84 82628.01 -86342.22 82532.77 -86151.74 82342.3 -86056.5 82056.58 -86056.5 81866.1 -86151.74 81770.87 -86246.98 M 83866.1 -87389.84 83675.63 -87294.6 83580.39 -87199.36 83485.15 -87008.89 83485.15 -86437.46 83580.39 -86246.98 83675.63 -86151.74 83866.1 -86056.5 84151.82 -86056.5 84342.3 -86151.74 84437.53 -86246.98 84532.77 -86437.46 84532.77 -87008.89 84437.53 -87199.36 84342.3 -87294.6 84151.82 -87389.84 83866.1 -87389.84 M 85675.63 -87389.84 85485.15 -87294.6 85389.92 -87104.12 85389.92 -85389.84 M 87199.44 -87294.6 87008.96 -87389.84 86628.01 -87389.84 86437.53 -87294.6 86342.3 -87104.12 86342.3 -86342.22 86437.53 -86151.74 86628.01 -86056.5 87008.96 -86056.5 87199.44 -86151.74 87294.68 -86342.22 87294.68 -86532.7 86342.3 -86723.17 M 88056.58 -87294.6 88247.06 -87389.84 88628.01 -87389.84 88818.49 -87294.6 88913.73 -87104.12 88913.73 -87008.89 88818.49 -86818.41 88628.01 -86723.17 88342.3 -86723.17 88151.82 -86627.93 88056.58 -86437.46 88056.58 -86342.22 88151.82 -86151.74 88342.3 -86056.5 88628.01 -86056.5 88818.49 -86151.74 M 89580.39 -88151.74 89675.63 -88056.5 89866.11 -87770.79 89961.34 -87580.31 90056.58 -87294.6 90151.82 -86818.41 90151.82 -86437.46 90056.58 -85961.27 89961.34 -85675.55 89866.11 -85485.08 89675.63 -85199.36 89580.39 -85104.12" fill="none" stroke-width="200"/><path d="M 39925 -89115 A 500 500 0 0 1 38925 -89115 500 500 0 0 1 39925 -89115" fill="none" stroke-width="100"/><path d="M 43580.39 -90029.84 42437.53 -90029.84 M 43008.96 -90029.84 43008.96 -88029.84 42818.48 -88315.55 42628.01 -88506.03 42437.53 -88601.27 M 44437.53 -89839.36 44532.77 -89934.6 44437.53 -90029.84 44342.29 -89934.6 44437.53 -89839.36 44437.53 -90029.84 M 45770.86 -88029.84 45961.34 -88029.84 46151.82 -88125.08 46247.05 -88220.31 46342.29 -88410.79 46437.53 -88791.74 46437.53 -89267.93 46342.29 -89648.89 46247.05 -89839.36 46151.82 -89934.6 45961.34 -90029.84 45770.86 -90029.84 45580.39 -89934.6 45485.15 -89839.36 45389.91 -89648.89 45294.67 -89267.93 45294.67 -88791.74 45389.91 -88410.79 45485.15 -88220.31 45580.39 -88125.08 45770.86 -88029.84 M 47675.63 -88029.84 47866.1 -88029.84 48056.58 -88125.08 48151.82 -88220.31 48247.05 -88410.79 48342.29 -88791.74 48342.29 -89267.93 48247.05 -89648.89 48151.82 -89839.36 48056.58 -89934.6 47866.1 -90029.84 47675.63 -90029.84 47485.15 -89934.6 47389.91 -89839.36 47294.67 -89648.89 47199.44 -89267.93 47199.44 -88791.74 47294.67 -88410.79 47389.91 -88220.31 47485.15 -88125.08 47675.63 -88029.84 M 49580.39 -88029.84 49770.86 -88029.84 49961.34 -88125.08 50056.58 -88220.31 50151.82 -88410.79 50247.05 -88791.74 50247.05 -89267.93 50151.82 -89648.89 50056.58 -89839.36 49961.34 -89934.6 49770.86 -90029.84 49580.39 -90029.84 49389.91 -89934.6 49294.67 -89839.36 49199.44 -89648.89 49104.2 -89267.93 49104.2 -88791.74 49199.44 -88410.79 49294.67 -88220.31 49389.91 -88125.08 49580.39 -88029.84 M 51104.2 -90029.84 51104.2 -88696.5 M 51104.2 -88886.98 51199.44 -88791.74 51389.91 -88696.5 51675.63 -88696.5 51866.1 -88791.74 51961.34 -88982.22 51961.34 -90029.84 M 51961.34 -88982.22 52056.58 -88791.74 52247.05 -88696.5 52532.77 -88696.5 52723.25 -88791.74 52818.48 -88982.22 52818.48 -90029.84 M 53770.86 -90029.84 53770.86 -88696.5 M 53770.86 -88886.98 53866.1 -88791.74 54056.58 -88696.5 54342.29 -88696.5 54532.77 -88791.74 54628.01 -88982.22 54628.01 -90029.84 M 54628.01 -88982.22 54723.25 -88791.74 54913.72 -88696.5 55199.44 -88696.5 55389.91 -88791.74 55485.15 -88982.22 55485.15 -90029.84 M 59389.91 -87934.6 57675.63 -90506.03 M 61961.34 -88029.84 62151.82 -88029.84 62342.29 -88125.08 62437.53 -88220.31 62532.77 -88410.79 62628.01 -88791.74 62628.01 -89267.93 62532.77 -89648.89 62437.53 -89839.36 62342.29 -89934.6 62151.82 -90029.84 61961.34 -90029.84 61770.86 -89934.6 61675.63 -89839.36 61580.39 -89648.89 61485.15 -89267.93 61485.15 -88791.74 61580.39 -88410.79 61675.63 -88220.31 61770.86 -88125.08 61961.34 -88029.84 M 63485.15 -89839.36 63580.39 -89934.6 63485.15 -90029.84 63389.91 -89934.6 63485.15 -89839.36 63485.15 -90029.84 M 64818.48 -88029.84 65008.96 -88029.84 65199.44 -88125.08 65294.67 -88220.31 65389.91 -88410.79 65485.15 -88791.74 65485.15 -89267.93 65389.91 -89648.89 65294.67 -89839.36 65199.44 -89934.6 65008.96 -90029.84 64818.48 -90029.84 64628.01 -89934.6 64532.77 -89839.36 64437.53 -89648.89 64342.29 -89267.93 64342.29 -88791.74 64437.53 -88410.79 64532.77 -88220.31 64628.01 -88125.08 64818.48 -88029.84 M 66151.82 -88029.84 67389.91 -88029.84 66723.25 -88791.74 67008.96 -88791.74 67199.44 -88886.98 67294.67 -88982.22 67389.91 -89172.7 67389.91 -89648.89 67294.67 -89839.36 67199.44 -89934.6 67008.96 -90029.84 66437.53 -90029.84 66247.06 -89934.6 66151.82 -89839.36 M 68342.29 -90029.84 68723.25 -90029.84 68913.72 -89934.6 69008.96 -89839.36 69199.44 -89553.65 69294.67 -89172.7 69294.67 -88410.79 69199.44 -88220.31 69104.2 -88125.08 68913.72 -88029.84 68532.77 -88029.84 68342.29 -88125.08 68247.06 -88220.31 68151.82 -88410.79 68151.82 -88886.98 68247.06 -89077.46 68342.29 -89172.7 68532.77 -89267.93 68913.72 -89267.93 69104.2 -89172.7 69199.44 -89077.46 69294.67 -88886.98 M 71008.96 -88696.5 71008.96 -90029.84 M 70532.77 -87934.6 70056.58 -89363.17 71294.67 -89363.17 M 71961.34 -88029.84 71961.34 -88410.79 M 72723.25 -88029.84 72723.25 -88410.79 M 75675.63 -90791.74 75580.39 -90696.5 75389.91 -90410.79 75294.68 -90220.31 75199.44 -89934.6 75104.2 -89458.41 75104.2 -89077.46 75199.44 -88601.27 75294.68 -88315.55 75389.91 -88125.08 75580.39 -87839.36 75675.63 -87744.12 M 77294.68 -88696.5 77294.68 -90029.84 M 76818.48 -87934.6 76342.29 -89363.17 77580.39 -89363.17 M 78151.82 -88029.84 79485.15 -88029.84 78628.01 -90029.84 M 81770.87 -90029.84 81770.87 -88029.84 M 82628.01 -90029.84 82628.01 -88982.22 82532.77 -88791.74 82342.3 -88696.5 82056.58 -88696.5 81866.1 -88791.74 81770.87 -88886.98 M 83866.1 -90029.84 83675.63 -89934.6 83580.39 -89839.36 83485.15 -89648.89 83485.15 -89077.46 83580.39 -88886.98 83675.63 -88791.74 83866.1 -88696.5 84151.82 -88696.5 84342.3 -88791.74 84437.53 -88886.98 84532.77 -89077.46 84532.77 -89648.89 84437.53 -89839.36 84342.3 -89934.6 84151.82 -90029.84 83866.1 -90029.84 M 85675.63 -90029.84 85485.15 -89934.6 85389.92 -89744.12 85389.92 -88029.84 M 87199.44 -89934.6 87008.96 -90029.84 86628.01 -90029.84 86437.53 -89934.6 86342.3 -89744.12 86342.3 -88982.22 86437.53 -88791.74 86628.01 -88696.5 87008.96 -88696.5 87199.44 -88791.74 87294.68 -88982.22 87294.68 -89172.7 86342.3 -89363.17 M 88056.58 -89934.6 88247.06 -90029.84 88628.01 -90029.84 88818.49 -89934.6 88913.73 -89744.12 88913.73 -89648.89 88818.49 -89458.41 88628.01 -89363.17 88342.3 -89363.17 88151.82 -89267.93 88056.58 -89077.46 88056.58 -88982.22 88151.82 -88791.74 88342.3 -88696.5 88628.01 -88696.5 88818.49 -88791.74 M 89580.39 -90791.74 89675.63 -90696.5 89866.11 -90410.79 89961.34 -90220.31 90056.58 -89934.6 90151.82 -89458.41 90151.82 -89077.46 90056.58 -88601.27 89961.34 -88315.55 89866.11 -88125.08 89675.63 -87839.36 89580.39 -87744.12" fill="none" stroke-width="200"/><path d="M 39375 -91205 39375 -92305 M 38825 -91755 39925 -91755" fill="none" stroke-width="110"/><path d="M 43580.39 -92669.84 42437.53 -92669.84 M 43008.96 -92669.84 43008.96 -90669.84 42818.48 -90955.55 42628.01 -91146.03 42437.53 -91241.27 M 44437.53 -92479.36 44532.77 -92574.6 44437.53 -92669.84 44342.29 -92574.6 44437.53 -92479.36 44437.53 -92669.84 M 46437.53 -92669.84 45294.67 -92669.84 M 45866.1 -92669.84 45866.1 -90669.84 45675.63 -90955.55 45485.15 -91146.03 45294.67 -91241.27 M 47675.63 -90669.84 47866.1 -90669.84 48056.58 -90765.08 48151.82 -90860.31 48247.05 -91050.79 48342.29 -91431.74 48342.29 -91907.93 48247.05 -92288.89 48151.82 -92479.36 48056.58 -92574.6 47866.1 -92669.84 47675.63 -92669.84 47485.15 -92574.6 47389.91 -92479.36 47294.67 -92288.89 47199.44 -91907.93 47199.44 -91431.74 47294.67 -91050.79 47389.91 -90860.31 47485.15 -90765.08 47675.63 -90669.84 M 49580.39 -90669.84 49770.86 -90669.84 49961.34 -90765.08 50056.58 -90860.31 50151.82 -91050.79 50247.05 -91431.74 50247.05 -91907.93 50151.82 -92288.89 50056.58 -92479.36 49961.34 -92574.6 49770.86 -92669.84 49580.39 -92669.84 49389.91 -92574.6 49294.67 -92479.36 49199.44 -92288.89 49104.2 -91907.93 49104.2 -91431.74 49199.44 -91050.79 49294.67 -90860.31 49389.91 -90765.08 49580.39 -90669.84 M 51104.2 -92669.84 51104.2 -91336.5 M 51104.2 -91526.98 51199.44 -91431.74 51389.91 -91336.5 51675.63 -91336.5 51866.1 -91431.74 51961.34 -91622.22 51961.34 -92669.84 M 51961.34 -91622.22 52056.58 -91431.74 52247.05 -91336.5 52532.77 -91336.5 52723.25 -91431.74 52818.48 -91622.22 52818.48 -92669.84 M 53770.86 -92669.84 53770.86 -91336.5 M 53770.86 -91526.98 53866.1 -91431.74 54056.58 -91336.5 54342.29 -91336.5 54532.77 -91431.74 54628.01 -91622.22 54628.01 -92669.84 M 54628.01 -91622.22 54723.25 -91431.74 54913.72 -91336.5 55199.44 -91336.5 55389.91 -91431.74 55485.15 -91622.22 55485.15 -92669.84 M 59389.91 -90574.6 57675.63 -93146.03 M 61961.34 -90669.84 62151.82 -90669.84 62342.29 -90765.08 62437.53 -90860.31 62532.77 -91050.79 62628.01 -91431.74 62628.01 -91907.93 62532.77 -92288.89 62437.53 -92479.36 62342.29 -92574.6 62151.82 -92669.84 61961.34 -92669.84 61770.86 -92574.6 61675.63 -92479.36 61580.39 -92288.89 61485.15 -91907.93 61485.15 -91431.74 61580.39 -91050.79 61675.63 -90860.31 61770.86 -90765.08 61961.34 -90669.84 M 63485.15 -92479.36 63580.39 -92574.6 63485.15 -92669.84 63389.91 -92574.6 63485.15 -92479.36 63485.15 -92669.84 M 64818.48 -90669.84 65008.96 -90669.84 65199.44 -90765.08 65294.67 -90860.31 65389.91 -91050.79 65485.15 -91431.74 65485.15 -91907.93 65389.91 -92288.89 65294.67 -92479.36 65199.44 -92574.6 65008.96 -92669.84 64818.48 -92669.84 64628.01 -92574.6 64532.77 -92479.36 64437.53 -92288.89 64342.29 -91907.93 64342.29 -91431.74 64437.53 -91050.79 64532.77 -90860.31 64628.01 -90765.08 64818.48 -90669.84 M 67199.44 -91336.5 67199.44 -92669.84 M 66723.25 -90574.6 66247.06 -92003.17 67485.15 -92003.17 M 68056.58 -90669.84 69294.67 -90669.84 68628.01 -91431.74 68913.72 -91431.74 69104.2 -91526.98 69199.44 -91622.22 69294.67 -91812.7 69294.67 -92288.89 69199.44 -92479.36 69104.2 -92574.6 68913.72 -92669.84 68342.29 -92669.84 68151.82 -92574.6 68056.58 -92479.36 M 69961.34 -90669.84 71199.44 -90669.84 70532.77 -91431.74 70818.48 -91431.74 71008.96 -91526.98 71104.2 -91622.22 71199.44 -91812.7 71199.44 -92288.89 71104.2 -92479.36 71008.96 -92574.6 70818.48 -92669.84 70247.06 -92669.84 70056.58 -92574.6 69961.34 -92479.36 M 71961.34 -90669.84 71961.34 -91050.79 M 72723.25 -90669.84 72723.25 -91050.79 M 75675.63 -93431.74 75580.39 -93336.5 75389.91 -93050.79 75294.68 -92860.31 75199.44 -92574.6 75104.2 -92098.41 75104.2 -91717.46 75199.44 -91241.27 75294.68 -90955.55 75389.91 -90765.08 75580.39 -90479.36 75675.63 -90384.12 M 76723.25 -91526.98 76532.77 -91431.74 76437.53 -91336.5 76342.29 -91146.03 76342.29 -91050.79 76437.53 -90860.31 76532.77 -90765.08 76723.25 -90669.84 77104.2 -90669.84 77294.68 -90765.08 77389.91 -90860.31 77485.15 -91050.79 77485.15 -91146.03 77389.91 -91336.5 77294.68 -91431.74 77104.2 -91526.98 76723.25 -91526.98 76532.77 -91622.22 76437.53 -91717.46 76342.29 -91907.93 76342.29 -92288.89 76437.53 -92479.36 76532.77 -92574.6 76723.25 -92669.84 77104.2 -92669.84 77294.68 -92574.6 77389.91 -92479.36 77485.15 -92288.89 77485.15 -91907.93 77389.91 -91717.46 77294.68 -91622.22 77104.2 -91526.98 M 79866.1 -92669.84 79866.1 -90669.84 M 80723.25 -92669.84 80723.25 -91622.22 80628.01 -91431.74 80437.53 -91336.5 80151.82 -91336.5 79961.34 -91431.74 79866.1 -91526.98 M 81961.34 -92669.84 81770.87 -92574.6 81675.63 -92479.36 81580.39 -92288.89 81580.39 -91717.46 81675.63 -91526.98 81770.87 -91431.74 81961.34 -91336.5 82247.06 -91336.5 82437.53 -91431.74 82532.77 -91526.98 82628.01 -91717.46 82628.01 -92288.89 82532.77 -92479.36 82437.53 -92574.6 82247.06 -92669.84 81961.34 -92669.84 M 83770.87 -92669.84 83580.39 -92574.6 83485.15 -92384.12 83485.15 -90669.84 M 85294.68 -92574.6 85104.2 -92669.84 84723.25 -92669.84 84532.77 -92574.6 84437.53 -92384.12 84437.53 -91622.22 84532.77 -91431.74 84723.25 -91336.5 85104.2 -91336.5 85294.68 -91431.74 85389.92 -91622.22 85389.92 -91812.7 84437.53 -92003.17 M 86151.82 -92574.6 86342.3 -92669.84 86723.25 -92669.84 86913.73 -92574.6 87008.96 -92384.12 87008.96 -92288.89 86913.73 -92098.41 86723.25 -92003.17 86437.53 -92003.17 86247.06 -91907.93 86151.82 -91717.46 86151.82 -91622.22 86247.06 -91431.74 86437.53 -91336.5 86723.25 -91336.5 86913.73 -91431.74 M 87675.63 -93431.74 87770.87 -93336.5 87961.34 -93050.79 88056.58 -92860.31 88151.82 -92574.6 88247.06 -92098.41 88247.06 -91717.46 88151.82 -91241.27 88056.58 -90955.55 87961.34 -90765.08 87770.87 -90479.36 87675.63 -90384.12" fill="none" stroke-width="200"/></g></svg>