<svg version="1.1" xmlns="http://www.w3.org/2000/svg" xmlns:xlink="http://www.w3.org/1999/xlink" stroke-linecap="round" stroke-linejoin="round" stroke-width="0" fill-rule="evenodd" width="62.725mm" height="21.005mm" viewBox="40475 -78305 62725 21005" id="a4_NxRr-mpZ0PcgwbE5i"><defs><g id="a4_NxRr-mpZ0PcgwbE5i_pad-10"><polygon points="350,450 -350,450 -350,-450 350,-450"/><circle cx="350" cy="450" r="250"/><circle cx="-350" cy="450" r="250"/><circle cx="-350" cy="-450" r="250"/><circle cx="350" cy="-450" r="250"/><polygon points="350,200 -350,200 -350,700 350,700"/><polygon points="-100,450 -100,-450 -600,-450 -600,450"/><polygon points="-350,-700 350,-700 350,-200 -350,-200"/><polygon points="600,-450 600,450 100,450 100,-450"/></g><g id="a4_NxRr-mpZ0PcgwbE5i_pad-11"><polygon points="475,-337.5 475,337.5 -475,337.5 -475,-337.5"/><circle cx="475" cy="-337.5" r="250"/><circle cx="475" cy="337.5" r="250"/><circle cx="-475" cy="337.5" r="250"/><circle cx="-475" cy="-337.5" r="250"/><polygon points="725,-337.5 725,337.5 225,337.5 225,-337.5"/><polygon points="475,87.5 -475,87.5 -475,587.5 475,587.5"/><polygon points="-225,337.5 -225,-337.5 -725,-337.5 -725,337.5"/><polygon points="-475,-587.5 475,-587.5 475,-87.5 -475,-87.5"/></g><g id="a4_NxRr-mpZ0PcgwbE5i_pad-12"><polygon points="-475,337.5 -475,-337.5 475,-337.5 475,337.5"/><circle cx="-475" cy="337.5" r="250"/><circle cx="-475" cy="-337.5" r="250"/><circle cx="475" cy="-337.5" r="250"/><circle cx="475" cy="337.5" r="250"/><polygon points="-225,337.5 -225,-337.5 -725,-337.5 -725,337.5"/><polygon points="-475,-587.5 475,-587.5 475,-87.5 -475,-87.5"/><polygon points="725,-337.5 725,337.5 225,337.5 225,-337.5"/><polygon points="475,87.5 -475,87.5 -475,587.5 475,587.5"/></g><g id="a4_NxRr-mpZ0PcgwbE5i_pad-13"><polygon points="150,-875 150,875 -150,875 -150,-875"/><circle cx="150" cy="-875" r="150"/><circle cx="150" cy="875" r="150"/><circle cx="-150" cy="875" r="150"/><circle cx="-150" cy="-875" r="150"/><polygon points="300,-875 300,875 0,875 0,-875"/><polygon points="150,725 -150,725 -150,1025 150,1025"/><polygon points="0,875 0,-875 -300,-875 -300,875"/><polygon points="-150,-1025 150,-1025 150,-725 -150,-725"/></g><g id="a4_NxRr-mpZ0PcgwbE5i_pad-14"><polygon points="825,150 -825,150 -825,-150 825,-150"/><circle cx="825" cy="150" r="150"/><circle cx="-825" cy="150" r="150"/><circle cx="-825" cy="-150" r="150"/><circle cx="825" cy="-150" r="150"/><polygon points="825,0 -825,0 -825,300 825,300"/><polygon points="-675,150 -675,-150 -975,-150 -975,150"/><polygon points="-825,-300 825,-300 825,0 -825,0"/><polygon points="975,-150 975,150 675,150 675,-150"/></g><g id="a4_NxRr-mpZ0PcgwbE5i_pad-15"><polygon points="337.5,475 -337.5,475 -337.5,-475 337.5,-475"/><circle cx="337.5" cy="475" r="250"/><circle cx="-337.5" cy="475" r="250"/><circle cx="-337.5" cy="-475" r="250"/><circle cx="337.5" cy="-475" r="250"/><polygon points="337.5,225 -337.5,225 -337.5,725 337.5,725"/><polygon points="-87.5,475 -87.5,-475 -587.5,-475 -587.5,475"/><polygon points="-337.5,-725 337.5,-725 337.5,-225 -337.5,-225"/><polygon points="587.5,-475 587.5,475 87.5,475 87.5,-475"/></g><g id="a4_NxRr-mpZ0PcgwbE5i_pad-16"><polygon points="-825,-150 825,-150 825,150 -825,150"/><circle cx="-825" cy="-150" r="150"/><circle cx="825" cy="-150" r="150"/><circle cx="825" cy="150" r="150"/><circle cx="-825" cy="150" r="150"/><polygon points="-825,-300 825,-300 825,0 -825,0"/><polygon points="975,-150 975,150 675,150 675,-150"/><polygon points="825,0 -825,0 -825,300 825,300"/><polygon points="-675,150 -675,-150 -975,-150 -975,150"/></g><rect x="-1000" y="-2250" width="2000" height="4500" id="a4_NxRr-mpZ0PcgwbE5i_pad-17"/><g id="a4_NxRr-mpZ0PcgwbE5i_pad-18"><polygon points="-799.999,-2474.999 799.999,-2474.999 799.999,2474.999 -799.999,2474.999"/><circle cx="-799.999" cy="-2474.999" r="250.001"/><circle cx="799.999" cy="-2474.999" r="250.001"/><circle cx="799.999" cy="2474.999" r="250.001"/><circle cx="-799.999" cy="2474.999" r="250.001"/><polygon points="-799.999,-2725 799.999,-2725 799.999,-2224.998 -799.999,-2224.998"/><polygon points="1050,-2474.999 1050,2474.999 549.998,2474.999 549.998,-2474.999"/><polygon points="799.999,2224.998 -799.999,2224.998 -799.999,2725 799.999,2725"/><polygon points="-549.998,2474.999 -549.998,-2474.999 -1050,-2474.999 -1050,2474.999"/></g><g id="a4_NxRr-mpZ0PcgwbE5i_pad-19"><polygon points="-350,-450 350,-450 350,450 -350,450"/><circle cx="-350" cy="-450" r="250"/><circle cx="350" cy="-450" r="250"/><circle cx="350" cy="450" r="250"/><circle cx="-350" cy="450" r="250"/><polygon points="-350,-700 350,-700 350,-200 -350,-200"/><polygon points="600,-450 600,450 100,450 100,-450"/><polygon points="350,200 -350,200 -350,700 350,700"/><polygon points="-100,450 -100,-450 -600,-450 -600,450"/></g><g id="a4_NxRr-mpZ0PcgwbE5i_pad-20"><polygon points="-375,-725 375,-725 375,725 -375,725"/><circle cx="-375" cy="-725" r="375"/><circle cx="375" cy="-725" r="375"/><circle cx="375" cy="725" r="375"/><circle cx="-375" cy="725" r="375"/><polygon points="-375,-1100 375,-1100 375,-350 -375,-350"/><polygon points="750,-725 750,725 0,725 0,-725"/><polygon points="375,350 -375,350 -375,1100 375,1100"/><polygon points="0,725 0,-725 -750,-725 -750,725"/></g><g id="a4_NxRr-mpZ0PcgwbE5i_pad-21"><polygon points="-512.5,-150 512.5,-150 512.5,150 -512.5,150"/><circle cx="-512.5" cy="-150" r="150"/><circle cx="512.5" cy="-150" r="150"/><circle cx="512.5" cy="150" r="150"/><circle cx="-512.5" cy="150" r="150"/><polygon points="-512.5,-300 512.5,-300 512.5,0 -512.5,0"/><polygon points="662.5,-150 662.5,150 362.5,150 362.5,-150"/><polygon points="512.5,0 -512.5,0 -512.5,300 512.5,300"/><polygon points="-362.5,150 -362.5,-150 -662.5,-150 -662.5,150"/></g><rect x="-1750" y="-900" width="3500" height="1800" id="a4_NxRr-mpZ0PcgwbE5i_pad-22"/><g id="a4_NxRr-mpZ0PcgwbE5i_pad-23"><polygon points="-337.5,-475 337.5,-475 337.5,475 -337.5,475"/><circle cx="-337.5" cy="-475" r="250"/><circle cx="337.5" cy="-475" r="250"/><circle cx="337.5" cy="475" r="250"/><circle cx="-337.5" cy="475" r="250"/><polygon points="-337.5,-725 337.5,-725 337.5,-225 -337.5,-225"/><polygon points="587.5,-475 587.5,475 87.5,475 87.5,-475"/><polygon points="337.5,225 -337.5,225 -337.5,725 337.5,725"/><polygon points="-87.5,475 -87.5,-475 -587.5,-475 -587.5,475"/></g><rect x="-500" y="-500" width="1000" height="1000" id="a4_NxRr-mpZ0PcgwbE5i_pad-24"/><g id="a4_NxRr-mpZ0PcgwbE5i_pad-25"><polygon points="450,-350 450,350 -450,350 -450,-350"/><circle cx="450" cy="-350" r="250"/><circle cx="450" cy="350" r="250"/><circle cx="-450" cy="350" r="250"/><circle cx="-450" cy="-350" r="250"/><polygon points="700,-350 700,350 200,350 200,-350"/><polygon points="450,100 -450,100 -450,600 450,600"/><polygon points="-200,350 -200,-350 -700,-350 -700,350"/><polygon points="-450,-600 450,-600 450,-100 -450,-100"/></g></defs><g transform="translate(0,-135605) scale(1,-1)" fill="currentColor" stroke="currentColor"><use xlink:href="#a4_NxRr-mpZ0PcgwbE5i_pad-10" x="102025" y="-71600"/><use xlink:href="#a4_NxRr-mpZ0PcgwbE5i_pad-10" x="100025" y="-71600"/><use xlink:href="#a4_NxRr-mpZ0PcgwbE5i_pad-10" x="102025" y="-69600"/><use xlink:href="#a4_NxRr-mpZ0PcgwbE5i_pad-10" x="100025" y="-69600"/><use xlink:href="#a4_NxRr-mpZ0PcgwbE5i_pad-11" x="83500" y="-64037.5"/><use xlink:href="#a4_NxRr-mpZ0PcgwbE5i_pad-11" x="83500" y="-61962.5"/><use xlink:href="#a4_NxRr-mpZ0PcgwbE5i_pad-12" x="75900" y="-73362.5"/><use xlink:href="#a4_NxRr-mpZ0PcgwbE5i_pad-12" x="75900" y="-75437.5"/><use xlink:href="#a4_NxRr-mpZ0PcgwbE5i_pad-10" x="72700" y="-58000"/><use xlink:href="#a4_NxRr-mpZ0PcgwbE5i_pad-10" x="70700" y="-58000"/><use xlink:href="#a4_NxRr-mpZ0PcgwbE5i_pad-13" x="70920" y="-69650"/><use xlink:href="#a4_NxRr-mpZ0PcgwbE5i_pad-13" x="72190" y="-69650"/><use xlink:href="#a4_NxRr-mpZ0PcgwbE5i_pad-13" x="73460" y="-69650"/><use xlink:href="#a4_NxRr-mpZ0PcgwbE5i_pad-13" x="74730" y="-69650"/><use xlink:href="#a4_NxRr-mpZ0PcgwbE5i_pad-13" x="76000" y="-69650"/><use xlink:href="#a4_NxRr-mpZ0PcgwbE5i_pad-13" x="77270" y="-69650"/><use xlink:href="#a4_NxRr-mpZ0PcgwbE5i_pad-13" x="78540" y="-69650"/><use xlink:href="#a4_NxRr-mpZ0PcgwbE5i_pad-13" x="79810" y="-69650"/><use xlink:href="#a4_NxRr-mpZ0PcgwbE5i_pad-13" x="81080" y="-69650"/><use xlink:href="#a4_NxRr-mpZ0PcgwbE5i_pad-13" x="81080" y="-60350"/><use xlink:href="#a4_NxRr-mpZ0PcgwbE5i_pad-13" x="79810" y="-60350"/><use xlink:href="#a4_NxRr-mpZ0PcgwbE5i_pad-13" x="78540" y="-60350"/><use xlink:href="#a4_NxRr-mpZ0PcgwbE5i_pad-13" x="77270" y="-60350"/><use xlink:href="#a4_NxRr-mpZ0PcgwbE5i_pad-13" x="76000" y="-60350"/><use xlink:href="#a4_NxRr-mpZ0PcgwbE5i_pad-13" x="74730" y="-60350"/><use xlink:href="#a4_NxRr-mpZ0PcgwbE5i_pad-13" x="73460" y="-60350"/><use xlink:href="#a4_NxRr-mpZ0PcgwbE5i_pad-13" x="72190" y="-60350"/><use xlink:href="#a4_NxRr-mpZ0PcgwbE5i_pad-13" x="70920" y="-60350"/><use xlink:href="#a4_NxRr-mpZ0PcgwbE5i_pad-14" x="73375" y="-78005"/><use xlink:href="#a4_NxRr-mpZ0PcgwbE5i_pad-14" x="73375" y="-76735"/><use xlink:href="#a4_NxRr-mpZ0PcgwbE5i_pad-14" x="73375" y="-75465"/><use xlink:href="#a4_NxRr-mpZ0PcgwbE5i_pad-14" x="73375" y="-74195"/><use xlink:href="#a4_NxRr-mpZ0PcgwbE5i_pad-14" x="68425" y="-74195"/><use xlink:href="#a4_NxRr-mpZ0PcgwbE5i_pad-14" x="68425" y="-75465"/><use xlink:href="#a4_NxRr-mpZ0PcgwbE5i_pad-14" x="68425" y="-76735"/><use xlink:href="#a4_NxRr-mpZ0PcgwbE5i_pad-14" x="68425" y="-78005"/><use xlink:href="#a4_NxRr-mpZ0PcgwbE5i_pad-15" x="95737.5" y="-65400"/><use xlink:href="#a4_NxRr-mpZ0PcgwbE5i_pad-15" x="93662.5" y="-65400"/><use xlink:href="#a4_NxRr-mpZ0PcgwbE5i_pad-10" x="102025" y="-67600"/><use xlink:href="#a4_NxRr-mpZ0PcgwbE5i_pad-10" x="100025" y="-67600"/><use xlink:href="#a4_NxRr-mpZ0PcgwbE5i_pad-16" x="92025" y="-67695"/><use xlink:href="#a4_NxRr-mpZ0PcgwbE5i_pad-16" x="92025" y="-68965"/><use xlink:href="#a4_NxRr-mpZ0PcgwbE5i_pad-16" x="92025" y="-70235"/><use xlink:href="#a4_NxRr-mpZ0PcgwbE5i_pad-16" x="92025" y="-71505"/><use xlink:href="#a4_NxRr-mpZ0PcgwbE5i_pad-16" x="96975" y="-71505"/><use xlink:href="#a4_NxRr-mpZ0PcgwbE5i_pad-16" x="96975" y="-70235"/><use xlink:href="#a4_NxRr-mpZ0PcgwbE5i_pad-16" x="96975" y="-68965"/><use xlink:href="#a4_NxRr-mpZ0PcgwbE5i_pad-16" x="96975" y="-67695"/><use xlink:href="#a4_NxRr-mpZ0PcgwbE5i_pad-17" x="87500" y="-70450"/><use xlink:href="#a4_NxRr-mpZ0PcgwbE5i_pad-17" x="87500" y="-61950"/><use xlink:href="#a4_NxRr-mpZ0PcgwbE5i_pad-18" x="41525" y="-67500"/><use xlink:href="#a4_NxRr-mpZ0PcgwbE5i_pad-18" x="48475" y="-67500"/><use xlink:href="#a4_NxRr-mpZ0PcgwbE5i_pad-12" x="67900" y="-58050"/><use xlink:href="#a4_NxRr-mpZ0PcgwbE5i_pad-12" x="67900" y="-60125"/><use xlink:href="#a4_NxRr-mpZ0PcgwbE5i_pad-12" x="68700" y="-62962.5"/><use xlink:href="#a4_NxRr-mpZ0PcgwbE5i_pad-12" x="68700" y="-65037.5"/><use xlink:href="#a4_NxRr-mpZ0PcgwbE5i_pad-19" x="93200" y="-58200"/><use xlink:href="#a4_NxRr-mpZ0PcgwbE5i_pad-19" x="95200" y="-58200"/><use xlink:href="#a4_NxRr-mpZ0PcgwbE5i_pad-19" x="96900" y="-58200"/><use xlink:href="#a4_NxRr-mpZ0PcgwbE5i_pad-19" x="98900" y="-58200"/><use xlink:href="#a4_NxRr-mpZ0PcgwbE5i_pad-19" x="100600" y="-58200"/><use xlink:href="#a4_NxRr-mpZ0PcgwbE5i_pad-19" x="102600" y="-58200"/><use xlink:href="#a4_NxRr-mpZ0PcgwbE5i_pad-15" x="64062.5" y="-69700"/><use xlink:href="#a4_NxRr-mpZ0PcgwbE5i_pad-15" x="61987.5" y="-69700"/><use xlink:href="#a4_NxRr-mpZ0PcgwbE5i_pad-20" x="57825" y="-62700"/><use xlink:href="#a4_NxRr-mpZ0PcgwbE5i_pad-20" x="64125" y="-62700"/><use xlink:href="#a4_NxRr-mpZ0PcgwbE5i_pad-21" x="52552.5" y="-62200"/><use xlink:href="#a4_NxRr-mpZ0PcgwbE5i_pad-21" x="52552.5" y="-63150"/><use xlink:href="#a4_NxRr-mpZ0PcgwbE5i_pad-21" x="52552.5" y="-64100"/><use xlink:href="#a4_NxRr-mpZ0PcgwbE5i_pad-21" x="54827.5" y="-64100"/><use xlink:href="#a4_NxRr-mpZ0PcgwbE5i_pad-21" x="54827.5" y="-63150"/><use xlink:href="#a4_NxRr-mpZ0PcgwbE5i_pad-21" x="54827.5" y="-62200"/><use xlink:href="#a4_NxRr-mpZ0PcgwbE5i_pad-15" x="64062.5" y="-67700"/><use xlink:href="#a4_NxRr-mpZ0PcgwbE5i_pad-15" x="61987.5" y="-67700"/><use xlink:href="#a4_NxRr-mpZ0PcgwbE5i_pad-22" x="56900" y="-69500"/><use xlink:href="#a4_NxRr-mpZ0PcgwbE5i_pad-22" x="51900" y="-69500"/><use xlink:href="#a4_NxRr-mpZ0PcgwbE5i_pad-23" x="53762.5" y="-66700"/><use xlink:href="#a4_NxRr-mpZ0PcgwbE5i_pad-23" x="55837.5" y="-66700"/><use xlink:href="#a4_NxRr-mpZ0PcgwbE5i_pad-10" x="91100" y="-58200"/><use xlink:href="#a4_NxRr-mpZ0PcgwbE5i_pad-10" x="89100" y="-58200"/><use xlink:href="#a4_NxRr-mpZ0PcgwbE5i_pad-24" x="47200" y="-71300"/><use xlink:href="#a4_NxRr-mpZ0PcgwbE5i_pad-24" x="47200" y="-73800"/><use xlink:href="#a4_NxRr-mpZ0PcgwbE5i_pad-23" x="53462.5" y="-60400"/><use xlink:href="#a4_NxRr-mpZ0PcgwbE5i_pad-23" x="55537.5" y="-60400"/><use xlink:href="#a4_NxRr-mpZ0PcgwbE5i_pad-25" x="66250" y="-77700"/><use xlink:href="#a4_NxRr-mpZ0PcgwbE5i_pad-25" x="66250" y="-75700"/><use xlink:href="#a4_NxRr-mpZ0PcgwbE5i_pad-12" x="83500" y="-65925"/><use xlink:href="#a4_NxRr-mpZ0PcgwbE5i_pad-12" x="83500" y="-68000"/></g></svg>