<svg version="1.1" xmlns="http://www.w3.org/2000/svg" xmlns:xlink="http://www.w3.org/1999/xlink" stroke-linecap="round" stroke-linejoin="round" stroke-width="0" fill-rule="evenodd" width="64.15mm" height="29.15mm" viewBox="40425 -79575 64150 29150" id="Q1QDKiN8NC_XtSLFhweq"><defs><g id="Q1QDKiN8NC_XtSLFhweq_pad-10"><polygon points="350,450 -350,450 -350,-450 350,-450"/><circle cx="350" cy="450" r="250"/><circle cx="-350" cy="450" r="250"/><circle cx="-350" cy="-450" r="250"/><circle cx="350" cy="-450" r="250"/><polygon points="350,200 -350,200 -350,700 350,700"/><polygon points="-100,450 -100,-450 -600,-450 -600,450"/><polygon points="-350,-700 350,-700 350,-200 -350,-200"/><polygon points="600,-450 600,450 100,450 100,-450"/></g><g id="Q1QDKiN8NC_XtSLFhweq_pad-11"><polygon points="475,-337.5 475,337.5 -475,337.5 -475,-337.5"/><circle cx="475" cy="-337.5" r="250"/><circle cx="475" cy="337.5" r="250"/><circle cx="-475" cy="337.5" r="250"/><circle cx="-475" cy="-337.5" r="250"/><polygon points="725,-337.5 725,337.5 225,337.5 225,-337.5"/><polygon points="475,87.5 -475,87.5 -475,587.5 475,587.5"/><polygon points="-225,337.5 -225,-337.5 -725,-337.5 -725,337.5"/><polygon points="-475,-587.5 475,-587.5 475,-87.5 -475,-87.5"/></g><g id="Q1QDKiN8NC_XtSLFhweq_pad-12"><polygon points="-475,337.5 -475,-337.5 475,-337.5 475,337.5"/><circle cx="-475" cy="337.5" r="250"/><circle cx="-475" cy="-337.5" r="250"/><circle cx="475" cy="-337.5" r="250"/><circle cx="475" cy="337.5" r="250"/><polygon points="-225,337.5 -225,-337.5 -725,-337.5 -725,337.5"/><polygon points="-475,-587.5 475,-587.5 475,-87.5 -475,-87.5"/><polygon points="725,-337.5 725,337.5 225,337.5 225,-337.5"/><polygon points="475,87.5 -475,87.5 -475,587.5 475,587.5"/></g><g id="Q1QDKiN8NC_XtSLFhweq_pad-13"><polygon points="150,-875 150,875 -150,875 -150,-875"/><circle cx="150" cy="-875" r="150"/><circle cx="150" cy="875" r="150"/><circle cx="-150" cy="875" r="150"/><circle cx="-150" cy="-875" r="150"/><polygon points="300,-875 300,875 0,875 0,-875"/><polygon points="150,725 -150,725 -150,1025 150,1025"/><polygon points="0,875 0,-875 -300,-875 -300,875"/><polygon points="-150,-1025 150,-1025 150,-725 -150,-725"/></g><g id="Q1QDKiN8NC_XtSLFhweq_pad-14"><polygon points="825,150 -825,150 -825,-150 825,-150"/><circle cx="825" cy="150" r="150"/><circle cx="-825" cy="150" r="150"/><circle cx="-825" cy="-150" r="150"/><circle cx="825" cy="-150" r="150"/><polygon points="825,0 -825,0 -825,300 825,300"/><polygon points="-675,150 -675,-150 -975,-150 -975,150"/><polygon points="-825,-300 825,-300 825,0 -825,0"/><polygon points="975,-150 975,150 675,150 675,-150"/></g><circle cx="0" cy="0" r="3075" id="Q1QDKiN8NC_XtSLFhweq_pad-15"/><g id="Q1QDKiN8NC_XtSLFhweq_pad-16"><polygon points="337.5,475 -337.5,475 -337.5,-475 337.5,-475"/><circle cx="337.5" cy="475" r="250"/><circle cx="-337.5" cy="475" r="250"/><circle cx="-337.5" cy="-475" r="250"/><circle cx="337.5" cy="-475" r="250"/><polygon points="337.5,225 -337.5,225 -337.5,725 337.5,725"/><polygon points="-87.5,475 -87.5,-475 -587.5,-475 -587.5,475"/><polygon points="-337.5,-725 337.5,-725 337.5,-225 -337.5,-225"/><polygon points="587.5,-475 587.5,475 87.5,475 87.5,-475"/></g><rect x="-850" y="-850" width="1700" height="1700" id="Q1QDKiN8NC_XtSLFhweq_pad-17"/><rect x="-850" y="-850" width="1700" height="1700" rx="850" ry="850" id="Q1QDKiN8NC_XtSLFhweq_pad-18"/><g id="Q1QDKiN8NC_XtSLFhweq_pad-19"><polygon points="-825,-150 825,-150 825,150 -825,150"/><circle cx="-825" cy="-150" r="150"/><circle cx="825" cy="-150" r="150"/><circle cx="825" cy="150" r="150"/><circle cx="-825" cy="150" r="150"/><polygon points="-825,-300 825,-300 825,0 -825,0"/><polygon points="975,-150 975,150 675,150 675,-150"/><polygon points="825,0 -825,0 -825,300 825,300"/><polygon points="-675,150 -675,-150 -975,-150 -975,150"/></g><rect x="-1000" y="-2250" width="2000" height="4500" id="Q1QDKiN8NC_XtSLFhweq_pad-20"/><rect x="-1100" y="-1100" width="2200" height="2200" id="Q1QDKiN8NC_XtSLFhweq_pad-21"/><circle cx="0" cy="0" r="1100" id="Q1QDKiN8NC_XtSLFhweq_pad-22"/><g id="Q1QDKiN8NC_XtSLFhweq_pad-23"><polygon points="-799.999,-2474.999 799.999,-2474.999 799.999,2474.999 -799.999,2474.999"/><circle cx="-799.999" cy="-2474.999" r="250.001"/><circle cx="799.999" cy="-2474.999" r="250.001"/><circle cx="799.999" cy="2474.999" r="250.001"/><circle cx="-799.999" cy="2474.999" r="250.001"/><polygon points="-799.999,-2725 799.999,-2725 799.999,-2224.998 -799.999,-2224.998"/><polygon points="1050,-2474.999 1050,2474.999 549.998,2474.999 549.998,-2474.999"/><polygon points="799.999,2224.998 -799.999,2224.998 -799.999,2725 799.999,2725"/><polygon points="-549.998,2474.999 -549.998,-2474.999 -1050,-2474.999 -1050,2474.999"/></g><circle cx="0" cy="0" r="550" id="Q1QDKiN8NC_XtSLFhweq_pad-24"/><g id="Q1QDKiN8NC_XtSLFhweq_pad-25"><polygon points="-350,-450 350,-450 350,450 -350,450"/><circle cx="-350" cy="-450" r="250"/><circle cx="350" cy="-450" r="250"/><circle cx="350" cy="450" r="250"/><circle cx="-350" cy="450" r="250"/><polygon points="-350,-700 350,-700 350,-200 -350,-200"/><polygon points="600,-450 600,450 100,450 100,-450"/><polygon points="350,200 -350,200 -350,700 350,700"/><polygon points="-100,450 -100,-450 -600,-450 -600,450"/></g><g id="Q1QDKiN8NC_XtSLFhweq_pad-26"><polygon points="-375,-725 375,-725 375,725 -375,725"/><circle cx="-375" cy="-725" r="375"/><circle cx="375" cy="-725" r="375"/><circle cx="375" cy="725" r="375"/><circle cx="-375" cy="725" r="375"/><polygon points="-375,-1100 375,-1100 375,-350 -375,-350"/><polygon points="750,-725 750,725 0,725 0,-725"/><polygon points="375,350 -375,350 -375,1100 375,1100"/><polygon points="0,725 0,-725 -750,-725 -750,725"/></g><g id="Q1QDKiN8NC_XtSLFhweq_pad-27"><polygon points="-512.5,-150 512.5,-150 512.5,150 -512.5,150"/><circle cx="-512.5" cy="-150" r="150"/><circle cx="512.5" cy="-150" r="150"/><circle cx="512.5" cy="150" r="150"/><circle cx="-512.5" cy="150" r="150"/><polygon points="-512.5,-300 512.5,-300 512.5,0 -512.5,0"/><polygon points="662.5,-150 662.5,150 362.5,150 362.5,-150"/><polygon points="512.5,0 -512.5,0 -512.5,300 512.5,300"/><polygon points="-362.5,150 -362.5,-150 -662.5,-150 -662.5,150"/></g><rect x="-1750" y="-900" width="3500" height="1800" id="Q1QDKiN8NC_XtSLFhweq_pad-28"/><g id="Q1QDKiN8NC_XtSLFhweq_pad-29"><polygon points="-337.5,-475 337.5,-475 337.5,475 -337.5,475"/><circle cx="-337.5" cy="-475" r="250"/><circle cx="337.5" cy="-475" r="250"/><circle cx="337.5" cy="475" r="250"/><circle cx="-337.5" cy="475" r="250"/><polygon points="-337.5,-725 337.5,-725 337.5,-225 -337.5,-225"/><polygon points="587.5,-475 587.5,475 87.5,475 87.5,-475"/><polygon points="337.5,225 -337.5,225 -337.5,725 337.5,725"/><polygon points="-87.5,475 -87.5,-475 -587.5,-475 -587.5,475"/></g><rect x="-500" y="-500" width="1000" height="1000" id="Q1QDKiN8NC_XtSLFhweq_pad-30"/><g id="Q1QDKiN8NC_XtSLFhweq_pad-31"><polygon points="450,-350 450,350 -450,350 -450,-350"/><circle cx="450" cy="-350" r="250"/><circle cx="450" cy="350" r="250"/><circle cx="-450" cy="350" r="250"/><circle cx="-450" cy="-350" r="250"/><polygon points="700,-350 700,350 200,350 200,-350"/><polygon points="450,100 -450,100 -450,600 450,600"/><polygon points="-200,350 -200,-350 -700,-350 -700,350"/><polygon points="-450,-600 450,-600 450,-100 -450,-100"/></g><polygon points="-750,-500 -750,0 -744.911,0 -744.911,71.157 -704.816,207.708 -627.875,327.43 -520.32,420.627 -390.866,479.746 -250,500 250,500 390.866,479.746 520.32,420.627 627.875,327.43 704.816,207.708 744.911,71.157 744.911,0 750,0 750,-500 -750,-500" id="Q1QDKiN8NC_XtSLFhweq_pad-32"/><polygon points="744.911,0 744.911,-71.157 704.816,-207.708 627.875,-327.43 520.32,-420.627 390.866,-479.746 250,-500 -250,-500 -390.866,-479.746 -520.32,-420.627 -627.875,-327.43 -704.816,-207.708 -744.911,-71.157 -744.911,0 -750,0 -750,500 750,500 750,0 744.911,0" id="Q1QDKiN8NC_XtSLFhweq_pad-33"/></defs><g transform="translate(0,-130000) scale(1,-1)" fill="currentColor" stroke="currentColor"><use xlink:href="#Q1QDKiN8NC_XtSLFhweq_pad-10" x="102025" y="-71600"/><use xlink:href="#Q1QDKiN8NC_XtSLFhweq_pad-10" x="100025" y="-71600"/><use xlink:href="#Q1QDKiN8NC_XtSLFhweq_pad-10" x="102025" y="-69600"/><use xlink:href="#Q1QDKiN8NC_XtSLFhweq_pad-10" x="100025" y="-69600"/><use xlink:href="#Q1QDKiN8NC_XtSLFhweq_pad-11" x="83500" y="-64037.5"/><use xlink:href="#Q1QDKiN8NC_XtSLFhweq_pad-11" x="83500" y="-61962.5"/><use xlink:href="#Q1QDKiN8NC_XtSLFhweq_pad-12" x="75900" y="-73362.5"/><use xlink:href="#Q1QDKiN8NC_XtSLFhweq_pad-12" x="75900" y="-75437.5"/><use xlink:href="#Q1QDKiN8NC_XtSLFhweq_pad-10" x="72700" y="-58000"/><use xlink:href="#Q1QDKiN8NC_XtSLFhweq_pad-10" x="70700" y="-58000"/><use xlink:href="#Q1QDKiN8NC_XtSLFhweq_pad-13" x="70920" y="-69650"/><use xlink:href="#Q1QDKiN8NC_XtSLFhweq_pad-13" x="72190" y="-69650"/><use xlink:href="#Q1QDKiN8NC_XtSLFhweq_pad-13" x="73460" y="-69650"/><use xlink:href="#Q1QDKiN8NC_XtSLFhweq_pad-13" x="74730" y="-69650"/><use xlink:href="#Q1QDKiN8NC_XtSLFhweq_pad-13" x="76000" y="-69650"/><use xlink:href="#Q1QDKiN8NC_XtSLFhweq_pad-13" x="77270" y="-69650"/><use xlink:href="#Q1QDKiN8NC_XtSLFhweq_pad-13" x="78540" y="-69650"/><use xlink:href="#Q1QDKiN8NC_XtSLFhweq_pad-13" x="79810" y="-69650"/><use xlink:href="#Q1QDKiN8NC_XtSLFhweq_pad-13" x="81080" y="-69650"/><use xlink:href="#Q1QDKiN8NC_XtSLFhweq_pad-13" x="81080" y="-60350"/><use xlink:href="#Q1QDKiN8NC_XtSLFhweq_pad-13" x="79810" y="-60350"/><use xlink:href="#Q1QDKiN8NC_XtSLFhweq_pad-13" x="78540" y="-60350"/><use xlink:href="#Q1QDKiN8NC_XtSLFhweq_pad-13" x="77270" y="-60350"/><use xlink:href="#Q1QDKiN8NC_XtSLFhweq_pad-13" x="76000" y="-60350"/><use xlink:href="#Q1QDKiN8NC_XtSLFhweq_pad-13" x="74730" y="-60350"/><use xlink:href="#Q1QDKiN8NC_XtSLFhweq_pad-13" x="73460" y="-60350"/><use xlink:href="#Q1QDKiN8NC_XtSLFhweq_pad-13" x="72190" y="-60350"/><use xlink:href="#Q1QDKiN8NC_XtSLFhweq_pad-13" x="70920" y="-60350"/><use xlink:href="#Q1QDKiN8NC_XtSLFhweq_pad-14" x="73375" y="-78005"/><use xlink:href="#Q1QDKiN8NC_XtSLFhweq_pad-14" x="73375" y="-76735"/><use xlink:href="#Q1QDKiN8NC_XtSLFhweq_pad-14" x="73375" y="-75465"/><use xlink:href="#Q1QDKiN8NC_XtSLFhweq_pad-14" x="73375" y="-74195"/><use xlink:href="#Q1QDKiN8NC_XtSLFhweq_pad-14" x="68425" y="-74195"/><use xlink:href="#Q1QDKiN8NC_XtSLFhweq_pad-14" x="68425" y="-75465"/><use xlink:href="#Q1QDKiN8NC_XtSLFhweq_pad-14" x="68425" y="-76735"/><use xlink:href="#Q1QDKiN8NC_XtSLFhweq_pad-14" x="68425" y="-78005"/><use xlink:href="#Q1QDKiN8NC_XtSLFhweq_pad-15" x="43500" y="-53500"/><use xlink:href="#Q1QDKiN8NC_XtSLFhweq_pad-15" x="43500" y="-76500"/><use xlink:href="#Q1QDKiN8NC_XtSLFhweq_pad-15" x="101500" y="-53500"/><use xlink:href="#Q1QDKiN8NC_XtSLFhweq_pad-15" x="101500" y="-76500"/><use xlink:href="#Q1QDKiN8NC_XtSLFhweq_pad-16" x="95737.5" y="-65400"/><use xlink:href="#Q1QDKiN8NC_XtSLFhweq_pad-16" x="93662.5" y="-65400"/><use xlink:href="#Q1QDKiN8NC_XtSLFhweq_pad-17" x="98460" y="-64600"/><use xlink:href="#Q1QDKiN8NC_XtSLFhweq_pad-18" x="101000" y="-64600"/><use xlink:href="#Q1QDKiN8NC_XtSLFhweq_pad-10" x="102025" y="-67600"/><use xlink:href="#Q1QDKiN8NC_XtSLFhweq_pad-10" x="100025" y="-67600"/><use xlink:href="#Q1QDKiN8NC_XtSLFhweq_pad-19" x="92025" y="-67695"/><use xlink:href="#Q1QDKiN8NC_XtSLFhweq_pad-19" x="92025" y="-68965"/><use xlink:href="#Q1QDKiN8NC_XtSLFhweq_pad-19" x="92025" y="-70235"/><use xlink:href="#Q1QDKiN8NC_XtSLFhweq_pad-19" x="92025" y="-71505"/><use xlink:href="#Q1QDKiN8NC_XtSLFhweq_pad-19" x="96975" y="-71505"/><use xlink:href="#Q1QDKiN8NC_XtSLFhweq_pad-19" x="96975" y="-70235"/><use xlink:href="#Q1QDKiN8NC_XtSLFhweq_pad-19" x="96975" y="-68965"/><use xlink:href="#Q1QDKiN8NC_XtSLFhweq_pad-19" x="96975" y="-67695"/><use xlink:href="#Q1QDKiN8NC_XtSLFhweq_pad-20" x="87500" y="-70450"/><use xlink:href="#Q1QDKiN8NC_XtSLFhweq_pad-20" x="87500" y="-61950"/><use xlink:href="#Q1QDKiN8NC_XtSLFhweq_pad-21" x="50200" y="-76200"/><use xlink:href="#Q1QDKiN8NC_XtSLFhweq_pad-22" x="52740" y="-76200"/><use xlink:href="#Q1QDKiN8NC_XtSLFhweq_pad-22" x="55280" y="-76200"/><use xlink:href="#Q1QDKiN8NC_XtSLFhweq_pad-22" x="57820" y="-76200"/><use xlink:href="#Q1QDKiN8NC_XtSLFhweq_pad-22" x="60360" y="-76200"/><use xlink:href="#Q1QDKiN8NC_XtSLFhweq_pad-22" x="62900" y="-76200"/><use xlink:href="#Q1QDKiN8NC_XtSLFhweq_pad-23" x="41525" y="-67500"/><use xlink:href="#Q1QDKiN8NC_XtSLFhweq_pad-23" x="48475" y="-67500"/><use xlink:href="#Q1QDKiN8NC_XtSLFhweq_pad-24" x="41460" y="-59430"/><use xlink:href="#Q1QDKiN8NC_XtSLFhweq_pad-24" x="41460" y="-61970"/><use xlink:href="#Q1QDKiN8NC_XtSLFhweq_pad-21" x="44000" y="-59430"/><use xlink:href="#Q1QDKiN8NC_XtSLFhweq_pad-22" x="44000" y="-61970"/><use xlink:href="#Q1QDKiN8NC_XtSLFhweq_pad-12" x="67900" y="-58050"/><use xlink:href="#Q1QDKiN8NC_XtSLFhweq_pad-12" x="67900" y="-60125"/><use xlink:href="#Q1QDKiN8NC_XtSLFhweq_pad-12" x="68700" y="-62962.5"/><use xlink:href="#Q1QDKiN8NC_XtSLFhweq_pad-12" x="68700" y="-65037.5"/><use xlink:href="#Q1QDKiN8NC_XtSLFhweq_pad-17" x="102900" y="-61000"/><use xlink:href="#Q1QDKiN8NC_XtSLFhweq_pad-18" x="100360" y="-61000"/><use xlink:href="#Q1QDKiN8NC_XtSLFhweq_pad-18" x="97820" y="-61000"/><use xlink:href="#Q1QDKiN8NC_XtSLFhweq_pad-18" x="95280" y="-61000"/><use xlink:href="#Q1QDKiN8NC_XtSLFhweq_pad-18" x="92740" y="-61000"/><use xlink:href="#Q1QDKiN8NC_XtSLFhweq_pad-25" x="93200" y="-58200"/><use xlink:href="#Q1QDKiN8NC_XtSLFhweq_pad-25" x="95200" y="-58200"/><use xlink:href="#Q1QDKiN8NC_XtSLFhweq_pad-25" x="96900" y="-58200"/><use xlink:href="#Q1QDKiN8NC_XtSLFhweq_pad-25" x="98900" y="-58200"/><use xlink:href="#Q1QDKiN8NC_XtSLFhweq_pad-25" x="100600" y="-58200"/><use xlink:href="#Q1QDKiN8NC_XtSLFhweq_pad-25" x="102600" y="-58200"/><use xlink:href="#Q1QDKiN8NC_XtSLFhweq_pad-16" x="64062.5" y="-69700"/><use xlink:href="#Q1QDKiN8NC_XtSLFhweq_pad-16" x="61987.5" y="-69700"/><use xlink:href="#Q1QDKiN8NC_XtSLFhweq_pad-26" x="57825" y="-62700"/><use xlink:href="#Q1QDKiN8NC_XtSLFhweq_pad-26" x="64125" y="-62700"/><use xlink:href="#Q1QDKiN8NC_XtSLFhweq_pad-27" x="52552.5" y="-62200"/><use xlink:href="#Q1QDKiN8NC_XtSLFhweq_pad-27" x="52552.5" y="-63150"/><use xlink:href="#Q1QDKiN8NC_XtSLFhweq_pad-27" x="52552.5" y="-64100"/><use xlink:href="#Q1QDKiN8NC_XtSLFhweq_pad-27" x="54827.5" y="-64100"/><use xlink:href="#Q1QDKiN8NC_XtSLFhweq_pad-27" x="54827.5" y="-63150"/><use xlink:href="#Q1QDKiN8NC_XtSLFhweq_pad-27" x="54827.5" y="-62200"/><use xlink:href="#Q1QDKiN8NC_XtSLFhweq_pad-16" x="64062.5" y="-67700"/><use xlink:href="#Q1QDKiN8NC_XtSLFhweq_pad-16" x="61987.5" y="-67700"/><use xlink:href="#Q1QDKiN8NC_XtSLFhweq_pad-28" x="56900" y="-69500"/><use xlink:href="#Q1QDKiN8NC_XtSLFhweq_pad-28" x="51900" y="-69500"/><use xlink:href="#Q1QDKiN8NC_XtSLFhweq_pad-29" x="53762.5" y="-66700"/><use xlink:href="#Q1QDKiN8NC_XtSLFhweq_pad-29" x="55837.5" y="-66700"/><use xlink:href="#Q1QDKiN8NC_XtSLFhweq_pad-10" x="91100" y="-58200"/><use xlink:href="#Q1QDKiN8NC_XtSLFhweq_pad-10" x="89100" y="-58200"/><use xlink:href="#Q1QDKiN8NC_XtSLFhweq_pad-30" x="47200" y="-71300"/><use xlink:href="#Q1QDKiN8NC_XtSLFhweq_pad-30" x="47200" y="-73800"/><use xlink:href="#Q1QDKiN8NC_XtSLFhweq_pad-29" x="53462.5" y="-60400"/><use xlink:href="#Q1QDKiN8NC_XtSLFhweq_pad-29" x="55537.5" y="-60400"/><use xlink:href="#Q1QDKiN8NC_XtSLFhweq_pad-31" x="66250" y="-77700"/><use xlink:href="#Q1QDKiN8NC_XtSLFhweq_pad-31" x="66250" y="-75700"/><use xlink:href="#Q1QDKiN8NC_XtSLFhweq_pad-12" x="83500" y="-65925"/><use xlink:href="#Q1QDKiN8NC_XtSLFhweq_pad-12" x="83500" y="-68000"/><use xlink:href="#Q1QDKiN8NC_XtSLFhweq_pad-32" x="50100" y="-59200"/><use xlink:href="#Q1QDKiN8NC_XtSLFhweq_pad-33" x="50100" y="-60500"/><use xlink:href="#Q1QDKiN8NC_XtSLFhweq_pad-17" x="48370" y="-54770"/><use xlink:href="#Q1QDKiN8NC_XtSLFhweq_pad-18" x="48370" y="-52230"/><use xlink:href="#Q1QDKiN8NC_XtSLFhweq_pad-18" x="50910" y="-54770"/><use xlink:href="#Q1QDKiN8NC_XtSLFhweq_pad-18" x="50910" y="-52230"/><use xlink:href="#Q1QDKiN8NC_XtSLFhweq_pad-18" x="53450" y="-54770"/><use xlink:href="#Q1QDKiN8NC_XtSLFhweq_pad-18" x="53450" y="-52230"/><use xlink:href="#Q1QDKiN8NC_XtSLFhweq_pad-18" x="55990" y="-54770"/><use xlink:href="#Q1QDKiN8NC_XtSLFhweq_pad-18" x="55990" y="-52230"/><use xlink:href="#Q1QDKiN8NC_XtSLFhweq_pad-18" x="58530" y="-54770"/><use xlink:href="#Q1QDKiN8NC_XtSLFhweq_pad-18" x="58530" y="-52230"/><use xlink:href="#Q1QDKiN8NC_XtSLFhweq_pad-18" x="61070" y="-54770"/><use xlink:href="#Q1QDKiN8NC_XtSLFhweq_pad-18" x="61070" y="-52230"/><use xlink:href="#Q1QDKiN8NC_XtSLFhweq_pad-18" x="63610" y="-54770"/><use xlink:href="#Q1QDKiN8NC_XtSLFhweq_pad-18" x="63610" y="-52230"/><use xlink:href="#Q1QDKiN8NC_XtSLFhweq_pad-18" x="66150" y="-54770"/><use xlink:href="#Q1QDKiN8NC_XtSLFhweq_pad-18" x="66150" y="-52230"/><use xlink:href="#Q1QDKiN8NC_XtSLFhweq_pad-18" x="68690" y="-54770"/><use xlink:href="#Q1QDKiN8NC_XtSLFhweq_pad-18" x="68690" y="-52230"/><use xlink:href="#Q1QDKiN8NC_XtSLFhweq_pad-18" x="71230" y="-54770"/><use xlink:href="#Q1QDKiN8NC_XtSLFhweq_pad-18" x="71230" y="-52230"/><use xlink:href="#Q1QDKiN8NC_XtSLFhweq_pad-18" x="73770" y="-54770"/><use xlink:href="#Q1QDKiN8NC_XtSLFhweq_pad-18" x="73770" y="-52230"/><use xlink:href="#Q1QDKiN8NC_XtSLFhweq_pad-18" x="76310" y="-54770"/><use xlink:href="#Q1QDKiN8NC_XtSLFhweq_pad-18" x="76310" y="-52230"/><use xlink:href="#Q1QDKiN8NC_XtSLFhweq_pad-18" x="78850" y="-54770"/><use xlink:href="#Q1QDKiN8NC_XtSLFhweq_pad-18" x="78850" y="-52230"/><use xlink:href="#Q1QDKiN8NC_XtSLFhweq_pad-18" x="81390" y="-54770"/><use xlink:href="#Q1QDKiN8NC_XtSLFhweq_pad-18" x="81390" y="-52230"/><use xlink:href="#Q1QDKiN8NC_XtSLFhweq_pad-18" x="83930" y="-54770"/><use xlink:href="#Q1QDKiN8NC_XtSLFhweq_pad-18" x="83930" y="-52230"/><use xlink:href="#Q1QDKiN8NC_XtSLFhweq_pad-18" x="86470" y="-54770"/><use xlink:href="#Q1QDKiN8NC_XtSLFhweq_pad-18" x="86470" y="-52230"/><use xlink:href="#Q1QDKiN8NC_XtSLFhweq_pad-18" x="89010" y="-54770"/><use xlink:href="#Q1QDKiN8NC_XtSLFhweq_pad-18" x="89010" y="-52230"/><use xlink:href="#Q1QDKiN8NC_XtSLFhweq_pad-18" x="91550" y="-54770"/><use xlink:href="#Q1QDKiN8NC_XtSLFhweq_pad-18" x="91550" y="-52230"/><use xlink:href="#Q1QDKiN8NC_XtSLFhweq_pad-18" x="94090" y="-54770"/><use xlink:href="#Q1QDKiN8NC_XtSLFhweq_pad-18" x="94090" y="-52230"/><use xlink:href="#Q1QDKiN8NC_XtSLFhweq_pad-18" x="96630" y="-54770"/><use xlink:href="#Q1QDKiN8NC_XtSLFhweq_pad-18" x="96630" y="-52230"/></g></svg>