<svg version="1.1" xmlns="http://www.w3.org/2000/svg" xmlns:xlink="http://www.w3.org/1999/xlink" stroke-linecap="round" stroke-linejoin="round" stroke-width="0" fill-rule="evenodd" width="76.301491mm" height="41.301491mm" viewBox="32228.328 -83529.819 76301.491 41301.491" id="XxohPI_3fXkk9YhIK6Ep"><g transform="translate(0,-125758.147) scale(1,-1)" fill="currentColor" stroke="currentColor"><path d="M 107454.819 -80190.475 107454.819 -79571.428 107835.771 -79904.761 107835.771 -79761.904 107883.39 -79666.666 107931.009 -79619.047 108026.247 -79571.428 108264.342 -79571.428 108359.58 -79619.047 108407.2 -79666.666 108454.819 -79761.904 108454.819 -80047.618 108407.2 -80142.856 108359.58 -80190.475 M 108359.58 -79142.856 108407.2 -79095.237 108454.819 -79142.856 108407.2 -79190.475 108359.58 -79142.856 108454.819 -79142.856 M 107454.819 -78190.476 107454.819 -78666.666 107931.009 -78714.285 107883.39 -78666.666 107835.771 -78571.428 107835.771 -78333.333 107883.39 -78238.095 107931.009 -78190.476 108026.247 -78142.857 108264.342 -78142.857 108359.58 -78190.476 108407.2 -78238.095 108454.819 -78333.333 108454.819 -78571.428 108407.2 -78666.666 108359.58 -78714.285 M 107454.819 -77523.809 107454.819 -77428.571 107502.438 -77333.333 107550.057 -77285.714 107645.295 -77238.095 107835.771 -77190.476 108073.866 -77190.476 108264.342 -77238.095 108359.58 -77285.714 108407.2 -77333.333 108454.819 -77428.571 108454.819 -77523.809 108407.2 -77619.047 108359.58 -77666.666 108264.342 -77714.285 108073.866 -77761.904 107835.771 -77761.904 107645.295 -77714.285 107550.057 -77666.666 107502.438 -77619.047 107454.819 -77523.809 M 107454.819 -76571.428 107454.819 -76476.19 107502.438 -76380.952 107550.057 -76333.333 107645.295 -76285.714 107835.771 -76238.095 108073.866 -76238.095 108264.342 -76285.714 108359.58 -76333.333 108407.2 -76380.952 108454.819 -76476.19 108454.819 -76571.428 108407.2 -76666.666 108359.58 -76714.285 108264.342 -76761.904 108073.866 -76809.523 107835.771 -76809.523 107645.295 -76761.904 107550.057 -76714.285 107502.438 -76666.666 107454.819 -76571.428 M 107454.819 -75619.047 107454.819 -75523.809 107502.438 -75428.571 107550.057 -75380.952 107645.295 -75333.333 107835.771 -75285.714 108073.866 -75285.714 108264.342 -75333.333 108359.58 -75380.952 108407.2 -75428.571 108454.819 -75523.809 108454.819 -75619.047 108407.2 -75714.285 108359.58 -75761.904 108264.342 -75809.523 108073.866 -75857.142 107835.771 -75857.142 107645.295 -75809.523 107550.057 -75761.904 107502.438 -75714.285 107454.819 -75619.047 M 108454.819 -74095.237 107788.152 -74095.237 M 107883.39 -74095.237 107835.771 -74047.618 107788.152 -73952.38 107788.152 -73809.523 107835.771 -73714.285 107931.009 -73666.666 108454.819 -73666.666 M 107931.009 -73666.666 107835.771 -73619.047 107788.152 -73523.809 107788.152 -73380.952 107835.771 -73285.713 107931.009 -73238.094 108454.819 -73238.094 M 108454.819 -72761.904 107788.152 -72761.904 M 107883.39 -72761.904 107835.771 -72714.285 107788.152 -72619.047 107788.152 -72476.19 107835.771 -72380.952 107931.009 -72333.333 108454.819 -72333.333 M 107931.009 -72333.333 107835.771 -72285.714 107788.152 -72190.476 107788.152 -72047.619 107835.771 -71952.38 107931.009 -71904.761 108454.819 -71904.761 M 101500 -80000 107086.42 -80000 M 101500 -76500 107086.42 -76500 M 106500 -80000 106500 -76500 M 106500 -80000 106500 -76500 M 106500 -80000 105913.579 -78873.496 M 106500 -80000 107086.421 -78873.496 M 106500 -76500 107086.421 -77626.504 M 106500 -76500 105913.579 -77626.504 M 96809.524 -82454.819 97428.571 -82454.819 97095.238 -82835.771 97238.095 -82835.771 97333.333 -82883.39 97380.952 -82931.009 97428.571 -83026.247 97428.571 -83264.342 97380.952 -83359.58 97333.333 -83407.2 97238.095 -83454.819 96952.381 -83454.819 96857.143 -83407.2 96809.524 -83359.58 M 97857.143 -83359.58 97904.762 -83407.2 97857.143 -83454.819 97809.524 -83407.2 97857.143 -83359.58 97857.143 -83454.819 M 98809.523 -82454.819 98333.333 -82454.819 98285.714 -82931.009 98333.333 -82883.39 98428.571 -82835.771 98666.666 -82835.771 98761.904 -82883.39 98809.523 -82931.009 98857.142 -83026.247 98857.142 -83264.342 98809.523 -83359.58 98761.904 -83407.2 98666.666 -83454.819 98428.571 -83454.819 98333.333 -83407.2 98285.714 -83359.58 M 99476.19 -82454.819 99571.428 -82454.819 99666.666 -82502.438 99714.285 -82550.057 99761.904 -82645.295 99809.523 -82835.771 99809.523 -83073.866 99761.904 -83264.342 99714.285 -83359.58 99666.666 -83407.2 99571.428 -83454.819 99476.19 -83454.819 99380.952 -83407.2 99333.333 -83359.58 99285.714 -83264.342 99238.095 -83073.866 99238.095 -82835.771 99285.714 -82645.295 99333.333 -82550.057 99380.952 -82502.438 99476.19 -82454.819 M 100428.571 -82454.819 100523.809 -82454.819 100619.047 -82502.438 100666.666 -82550.057 100714.285 -82645.295 100761.904 -82835.771 100761.904 -83073.866 100714.285 -83264.342 100666.666 -83359.58 100619.047 -83407.2 100523.809 -83454.819 100428.571 -83454.819 100333.333 -83407.2 100285.714 -83359.58 100238.095 -83264.342 100190.476 -83073.866 100190.476 -82835.771 100238.095 -82645.295 100285.714 -82550.057 100333.333 -82502.438 100428.571 -82454.819 M 101380.952 -82454.819 101476.19 -82454.819 101571.428 -82502.438 101619.047 -82550.057 101666.666 -82645.295 101714.285 -82835.771 101714.285 -83073.866 101666.666 -83264.342 101619.047 -83359.58 101571.428 -83407.2 101476.19 -83454.819 101380.952 -83454.819 101285.714 -83407.2 101238.095 -83359.58 101190.476 -83264.342 101142.857 -83073.866 101142.857 -82835.771 101190.476 -82645.295 101238.095 -82550.057 101285.714 -82502.438 101380.952 -82454.819 M 102904.762 -83454.819 102904.762 -82788.152 M 102904.762 -82883.39 102952.381 -82835.771 103047.619 -82788.152 103190.476 -82788.152 103285.714 -82835.771 103333.333 -82931.009 103333.333 -83454.819 M 103333.333 -82931.009 103380.952 -82835.771 103476.19 -82788.152 103619.047 -82788.152 103714.286 -82835.771 103761.905 -82931.009 103761.905 -83454.819 M 104238.095 -83454.819 104238.095 -82788.152 M 104238.095 -82883.39 104285.714 -82835.771 104380.952 -82788.152 104523.809 -82788.152 104619.047 -82835.771 104666.666 -82931.009 104666.666 -83454.819 M 104666.666 -82931.009 104714.285 -82835.771 104809.523 -82788.152 104952.38 -82788.152 105047.619 -82835.771 105095.238 -82931.009 105095.238 -83454.819 M 105000 -76500 105000 -82086.42 M 101500 -76500 101500 -82086.42 M 105000 -81500 101500 -81500 M 105000 -81500 101500 -81500 M 105000 -81500 103873.496 -82086.421 M 105000 -81500 103873.496 -80913.579 M 101500 -81500 102626.504 -80913.579 M 101500 -81500 102626.504 -82086.421" fill="none" stroke-width="150"/><path d="M 32378.328 -71999.998 32378.328 -71071.426 32949.757 -71571.426 32949.757 -71357.141 33021.185 -71214.284 33092.614 -71142.855 33235.471 -71071.426 33592.614 -71071.426 33735.471 -71142.855 33806.9 -71214.284 33878.328 -71357.141 33878.328 -71785.712 33806.9 -71928.569 33735.471 -71999.998 M 32378.328 -70142.855 32378.328 -69999.998 32449.757 -69857.141 32521.185 -69785.713 32664.042 -69714.284 32949.757 -69642.855 33306.9 -69642.855 33592.614 -69714.284 33735.471 -69785.713 33806.9 -69857.141 33878.328 -69999.998 33878.328 -70142.855 33806.9 -70285.713 33735.471 -70357.141 33592.614 -70428.57 33306.9 -70499.998 32949.757 -70499.998 32664.042 -70428.57 32521.185 -70357.141 32449.757 -70285.713 32378.328 -70142.855 M 33735.471 -68999.999 33806.9 -68928.57 33878.328 -68999.999 33806.9 -69071.427 33735.471 -68999.999 33878.328 -68999.999 M 32378.328 -67999.998 32378.328 -67857.141 32449.757 -67714.284 32521.185 -67642.856 32664.042 -67571.427 32949.757 -67499.998 33306.9 -67499.998 33592.614 -67571.427 33735.471 -67642.856 33806.9 -67714.284 33878.328 -67857.141 33878.328 -67999.998 33806.9 -68142.856 33735.471 -68214.284 33592.614 -68285.713 33306.9 -68357.141 32949.757 -68357.141 32664.042 -68285.713 32521.185 -68214.284 32449.757 -68142.856 32378.328 -67999.998 M 32378.328 -66571.427 32378.328 -66428.57 32449.757 -66285.713 32521.185 -66214.285 32664.042 -66142.856 32949.757 -66071.427 33306.9 -66071.427 33592.614 -66142.856 33735.471 -66214.285 33806.9 -66285.713 33878.328 -66428.57 33878.328 -66571.427 33806.9 -66714.285 33735.471 -66785.713 33592.614 -66857.142 33306.9 -66928.57 32949.757 -66928.57 32664.042 -66857.142 32521.185 -66785.713 32449.757 -66714.285 32378.328 -66571.427 M 32378.328 -65142.856 32378.328 -64999.999 32449.757 -64857.142 32521.185 -64785.714 32664.042 -64714.285 32949.757 -64642.856 33306.9 -64642.856 33592.614 -64714.285 33735.471 -64785.714 33806.9 -64857.142 33878.328 -64999.999 33878.328 -65142.856 33806.9 -65285.714 33735.471 -65357.142 33592.614 -65428.571 33306.9 -65499.999 32949.757 -65499.999 32664.042 -65428.571 32521.185 -65357.142 32449.757 -65285.714 32378.328 -65142.856 M 32378.328 -63714.285 32378.328 -63571.428 32449.757 -63428.571 32521.185 -63357.143 32664.042 -63285.714 32949.757 -63214.285 33306.9 -63214.285 33592.614 -63285.714 33735.471 -63357.143 33806.9 -63428.571 33878.328 -63571.428 33878.328 -63714.285 33806.9 -63857.143 33735.471 -63928.571 33592.614 -64000 33306.9 -64071.428 32949.757 -64071.428 32664.042 -64000 32521.185 -63928.571 32449.757 -63857.143 32378.328 -63714.285 M 33878.328 -61428.572 32878.328 -61428.572 M 33021.185 -61428.572 32949.757 -61357.143 32878.328 -61214.286 32878.328 -61000 32949.757 -60857.143 33092.614 -60785.715 33878.328 -60785.715 M 33092.614 -60785.715 32949.757 -60714.286 32878.328 -60571.429 32878.328 -60357.143 32949.757 -60214.286 33092.614 -60142.857 33878.328 -60142.857 M 33878.328 -59428.572 32878.328 -59428.572 M 33021.185 -59428.572 32949.757 -59357.143 32878.328 -59214.286 32878.328 -59000 32949.757 -58857.143 33092.614 -58785.715 33878.328 -58785.715 M 33092.614 -58785.715 32949.757 -58714.286 32878.328 -58571.429 32878.328 -58357.143 32949.757 -58214.286 33092.614 -58142.857 33878.328 -58142.857 M 43000 -80000 34413.58 -80000 M 43000 -50000 34413.58 -50000 M 35000 -80000 35000 -50000 M 35000 -80000 35000 -50000 M 35000 -80000 34413.579 -78873.496 M 35000 -80000 35586.421 -78873.496 M 35000 -50000 35586.421 -51126.504 M 35000 -50000 34413.579 -51126.504 M 66285.716 -42378.328 66000.001 -42378.328 65857.144 -42449.757 65785.716 -42521.185 65642.858 -42735.471 65571.43 -43021.185 65571.43 -43592.614 65642.858 -43735.471 65714.287 -43806.9 65857.144 -43878.328 66142.858 -43878.328 66285.716 -43806.9 66357.144 -43735.471 66428.573 -43592.614 66428.573 -43235.471 66357.144 -43092.614 66285.716 -43021.185 66142.858 -42949.757 65857.144 -42949.757 65714.287 -43021.185 65642.858 -43092.614 65571.43 -43235.471 M 67785.715 -42378.328 67071.429 -42378.328 67000.001 -43092.614 67071.429 -43021.185 67214.287 -42949.757 67571.429 -42949.757 67714.287 -43021.185 67785.715 -43092.614 67857.144 -43235.471 67857.144 -43592.614 67785.715 -43735.471 67714.287 -43806.9 67571.429 -43878.328 67214.287 -43878.328 67071.429 -43806.9 67000.001 -43735.471 M 68500 -43735.471 68571.429 -43806.9 68500 -43878.328 68428.572 -43806.9 68500 -43735.471 68500 -43878.328 M 69500.001 -42378.328 69642.858 -42378.328 69785.715 -42449.757 69857.144 -42521.185 69928.572 -42664.042 70000.001 -42949.757 70000.001 -43306.9 69928.572 -43592.614 69857.144 -43735.471 69785.715 -43806.9 69642.858 -43878.328 69500.001 -43878.328 69357.144 -43806.9 69285.715 -43735.471 69214.286 -43592.614 69142.858 -43306.9 69142.858 -42949.757 69214.286 -42664.042 69285.715 -42521.185 69357.144 -42449.757 69500.001 -42378.328 M 70928.572 -42378.328 71071.429 -42378.328 71214.286 -42449.757 71285.715 -42521.185 71357.143 -42664.042 71428.572 -42949.757 71428.572 -43306.9 71357.143 -43592.614 71285.715 -43735.471 71214.286 -43806.9 71071.429 -43878.328 70928.572 -43878.328 70785.715 -43806.9 70714.286 -43735.471 70642.857 -43592.614 70571.429 -43306.9 70571.429 -42949.757 70642.857 -42664.042 70714.286 -42521.185 70785.715 -42449.757 70928.572 -42378.328 M 72357.143 -42378.328 72500 -42378.328 72642.857 -42449.757 72714.286 -42521.185 72785.714 -42664.042 72857.143 -42949.757 72857.143 -43306.9 72785.714 -43592.614 72714.286 -43735.471 72642.857 -43806.9 72500 -43878.328 72357.143 -43878.328 72214.286 -43806.9 72142.857 -43735.471 72071.428 -43592.614 72000 -43306.9 72000 -42949.757 72071.428 -42664.042 72142.857 -42521.185 72214.286 -42449.757 72357.143 -42378.328 M 73785.714 -42378.328 73928.571 -42378.328 74071.428 -42449.757 74142.857 -42521.185 74214.285 -42664.042 74285.714 -42949.757 74285.714 -43306.9 74214.285 -43592.614 74142.857 -43735.471 74071.428 -43806.9 73928.571 -43878.328 73785.714 -43878.328 73642.857 -43806.9 73571.428 -43735.471 73499.999 -43592.614 73428.571 -43306.9 73428.571 -42949.757 73499.999 -42664.042 73571.428 -42521.185 73642.857 -42449.757 73785.714 -42378.328 M 76071.427 -43878.328 76071.427 -42878.328 M 76071.427 -43021.185 76142.856 -42949.757 76285.713 -42878.328 76499.999 -42878.328 76642.856 -42949.757 76714.285 -43092.614 76714.285 -43878.328 M 76714.285 -43092.614 76785.713 -42949.757 76928.57 -42878.328 77142.856 -42878.328 77285.713 -42949.757 77357.142 -43092.614 77357.142 -43878.328 M 78071.427 -43878.328 78071.427 -42878.328 M 78071.427 -43021.185 78142.856 -42949.757 78285.713 -42878.328 78499.999 -42878.328 78642.856 -42949.757 78714.285 -43092.614 78714.285 -43878.328 M 78714.285 -43092.614 78785.713 -42949.757 78928.57 -42878.328 79142.856 -42878.328 79285.713 -42949.757 79357.142 -43092.614 79357.142 -43878.328 M 105000 -53000 105000 -44413.58 M 40000 -53000 40000 -44413.58 M 105000 -45000 40000 -45000 M 105000 -45000 40000 -45000 M 105000 -45000 103873.496 -45586.421 M 105000 -45000 103873.496 -44413.579 M 40000 -45000 41126.504 -44413.579 M 40000 -45000 41126.504 -45586.421" fill="none" stroke-width="300"/></g></svg>