<svg version="1.1" xmlns="http://www.w3.org/2000/svg" xmlns:xlink="http://www.w3.org/1999/xlink" stroke-linecap="round" stroke-linejoin="round" stroke-width="0" fill-rule="evenodd" width="64.15mm" height="29.15mm" viewBox="40425 -79575 64150 29150" id="FkaPsD10Z1h6-KeBEiSF"><defs><circle cx="0" cy="0" r="3075" id="FkaPsD10Z1h6-KeBEiSF_pad-10"/><rect x="-850" y="-850" width="1700" height="1700" id="FkaPsD10Z1h6-KeBEiSF_pad-11"/><rect x="-850" y="-850" width="1700" height="1700" rx="850" ry="850" id="FkaPsD10Z1h6-KeBEiSF_pad-12"/><rect x="-1100" y="-1100" width="2200" height="2200" id="FkaPsD10Z1h6-KeBEiSF_pad-13"/><circle cx="0" cy="0" r="1100" id="FkaPsD10Z1h6-KeBEiSF_pad-14"/><circle cx="0" cy="0" r="550" id="FkaPsD10Z1h6-KeBEiSF_pad-15"/><polygon points="550,-750 0,-750 0,-744.911 -71.157,-744.911 -207.708,-704.816 -327.43,-627.875 -420.627,-520.32 -479.746,-390.866 -500,-250 -500,250 -479.746,390.866 -420.627,520.32 -327.43,627.875 -207.708,704.816 -71.157,744.911 0,744.911 0,750 550,750 550,-750" id="FkaPsD10Z1h6-KeBEiSF_pad-16"/><rect x="-500" y="-750" width="1000" height="1500" id="FkaPsD10Z1h6-KeBEiSF_pad-17"/><polygon points="0,744.911 71.157,744.911 207.708,704.816 327.43,627.875 420.627,520.32 479.746,390.866 500,250 500,-250 479.746,-390.866 420.627,-520.32 327.43,-627.875 207.708,-704.816 71.157,-744.911 0,-744.911 0,-750 -550,-750 -550,750 0,750 0,744.911" id="FkaPsD10Z1h6-KeBEiSF_pad-18"/><polygon points="750,550 750,0 744.911,0 744.911,-71.157 704.816,-207.708 627.875,-327.43 520.32,-420.627 390.866,-479.746 250,-500 -250,-500 -390.866,-479.746 -520.32,-420.627 -627.875,-327.43 -704.816,-207.708 -744.911,-71.157 -744.911,0 -750,0 -750,550 750,550" id="FkaPsD10Z1h6-KeBEiSF_pad-19"/><rect x="-750" y="-500" width="1500" height="1000" id="FkaPsD10Z1h6-KeBEiSF_pad-20"/><polygon points="-744.911,0 -744.911,71.157 -704.816,207.708 -627.875,327.43 -520.32,420.627 -390.866,479.746 -250,500 250,500 390.866,479.746 520.32,420.627 627.875,327.43 704.816,207.708 744.911,71.157 744.911,0 750,0 750,-550 -750,-550 -750,0 -744.911,0" id="FkaPsD10Z1h6-KeBEiSF_pad-21"/><polygon points="750,500 750,0 744.911,0 744.911,-71.157 704.816,-207.708 627.875,-327.43 520.32,-420.627 390.866,-479.746 250,-500 -250,-500 -390.866,-479.746 -520.32,-420.627 -627.875,-327.43 -704.816,-207.708 -744.911,-71.157 -744.911,0 -750,0 -750,500 750,500" id="FkaPsD10Z1h6-KeBEiSF_pad-22"/><polygon points="-744.911,0 -744.911,71.157 -704.816,207.708 -627.875,327.43 -520.32,420.627 -390.866,479.746 -250,500 250,500 390.866,479.746 520.32,420.627 627.875,327.43 704.816,207.708 744.911,71.157 744.911,0 750,0 750,-500 -750,-500 -750,0 -744.911,0" id="FkaPsD10Z1h6-KeBEiSF_pad-23"/></defs><g transform="translate(0,-130000) scale(1,-1)" fill="currentColor" stroke="currentColor"><use xlink:href="#FkaPsD10Z1h6-KeBEiSF_pad-10" x="43500" y="-53500"/><use xlink:href="#FkaPsD10Z1h6-KeBEiSF_pad-10" x="43500" y="-76500"/><use xlink:href="#FkaPsD10Z1h6-KeBEiSF_pad-10" x="101500" y="-53500"/><use xlink:href="#FkaPsD10Z1h6-KeBEiSF_pad-10" x="101500" y="-76500"/><use xlink:href="#FkaPsD10Z1h6-KeBEiSF_pad-11" x="98460" y="-64600"/><use xlink:href="#FkaPsD10Z1h6-KeBEiSF_pad-12" x="101000" y="-64600"/><use xlink:href="#FkaPsD10Z1h6-KeBEiSF_pad-13" x="50200" y="-76200"/><use xlink:href="#FkaPsD10Z1h6-KeBEiSF_pad-14" x="52740" y="-76200"/><use xlink:href="#FkaPsD10Z1h6-KeBEiSF_pad-14" x="55280" y="-76200"/><use xlink:href="#FkaPsD10Z1h6-KeBEiSF_pad-14" x="57820" y="-76200"/><use xlink:href="#FkaPsD10Z1h6-KeBEiSF_pad-14" x="60360" y="-76200"/><use xlink:href="#FkaPsD10Z1h6-KeBEiSF_pad-14" x="62900" y="-76200"/><use xlink:href="#FkaPsD10Z1h6-KeBEiSF_pad-15" x="41460" y="-59430"/><use xlink:href="#FkaPsD10Z1h6-KeBEiSF_pad-15" x="41460" y="-61970"/><use xlink:href="#FkaPsD10Z1h6-KeBEiSF_pad-13" x="44000" y="-59430"/><use xlink:href="#FkaPsD10Z1h6-KeBEiSF_pad-14" x="44000" y="-61970"/><use xlink:href="#FkaPsD10Z1h6-KeBEiSF_pad-11" x="102900" y="-61000"/><use xlink:href="#FkaPsD10Z1h6-KeBEiSF_pad-12" x="100360" y="-61000"/><use xlink:href="#FkaPsD10Z1h6-KeBEiSF_pad-12" x="97820" y="-61000"/><use xlink:href="#FkaPsD10Z1h6-KeBEiSF_pad-12" x="95280" y="-61000"/><use xlink:href="#FkaPsD10Z1h6-KeBEiSF_pad-12" x="92740" y="-61000"/><use xlink:href="#FkaPsD10Z1h6-KeBEiSF_pad-11" x="48370" y="-54770"/><use xlink:href="#FkaPsD10Z1h6-KeBEiSF_pad-12" x="48370" y="-52230"/><use xlink:href="#FkaPsD10Z1h6-KeBEiSF_pad-12" x="50910" y="-54770"/><use xlink:href="#FkaPsD10Z1h6-KeBEiSF_pad-12" x="50910" y="-52230"/><use xlink:href="#FkaPsD10Z1h6-KeBEiSF_pad-12" x="53450" y="-54770"/><use xlink:href="#FkaPsD10Z1h6-KeBEiSF_pad-12" x="53450" y="-52230"/><use xlink:href="#FkaPsD10Z1h6-KeBEiSF_pad-12" x="55990" y="-54770"/><use xlink:href="#FkaPsD10Z1h6-KeBEiSF_pad-12" x="55990" y="-52230"/><use xlink:href="#FkaPsD10Z1h6-KeBEiSF_pad-12" x="58530" y="-54770"/><use xlink:href="#FkaPsD10Z1h6-KeBEiSF_pad-12" x="58530" y="-52230"/><use xlink:href="#FkaPsD10Z1h6-KeBEiSF_pad-12" x="61070" y="-54770"/><use xlink:href="#FkaPsD10Z1h6-KeBEiSF_pad-12" x="61070" y="-52230"/><use xlink:href="#FkaPsD10Z1h6-KeBEiSF_pad-12" x="63610" y="-54770"/><use xlink:href="#FkaPsD10Z1h6-KeBEiSF_pad-12" x="63610" y="-52230"/><use xlink:href="#FkaPsD10Z1h6-KeBEiSF_pad-12" x="66150" y="-54770"/><use xlink:href="#FkaPsD10Z1h6-KeBEiSF_pad-12" x="66150" y="-52230"/><use xlink:href="#FkaPsD10Z1h6-KeBEiSF_pad-12" x="68690" y="-54770"/><use xlink:href="#FkaPsD10Z1h6-KeBEiSF_pad-12" x="68690" y="-52230"/><use xlink:href="#FkaPsD10Z1h6-KeBEiSF_pad-12" x="71230" y="-54770"/><use xlink:href="#FkaPsD10Z1h6-KeBEiSF_pad-12" x="71230" y="-52230"/><use xlink:href="#FkaPsD10Z1h6-KeBEiSF_pad-12" x="73770" y="-54770"/><use xlink:href="#FkaPsD10Z1h6-KeBEiSF_pad-12" x="73770" y="-52230"/><use xlink:href="#FkaPsD10Z1h6-KeBEiSF_pad-12" x="76310" y="-54770"/><use xlink:href="#FkaPsD10Z1h6-KeBEiSF_pad-12" x="76310" y="-52230"/><use xlink:href="#FkaPsD10Z1h6-KeBEiSF_pad-12" x="78850" y="-54770"/><use xlink:href="#FkaPsD10Z1h6-KeBEiSF_pad-12" x="78850" y="-52230"/><use xlink:href="#FkaPsD10Z1h6-KeBEiSF_pad-12" x="81390" y="-54770"/><use xlink:href="#FkaPsD10Z1h6-KeBEiSF_pad-12" x="81390" y="-52230"/><use xlink:href="#FkaPsD10Z1h6-KeBEiSF_pad-12" x="83930" y="-54770"/><use xlink:href="#FkaPsD10Z1h6-KeBEiSF_pad-12" x="83930" y="-52230"/><use xlink:href="#FkaPsD10Z1h6-KeBEiSF_pad-12" x="86470" y="-54770"/><use xlink:href="#FkaPsD10Z1h6-KeBEiSF_pad-12" x="86470" y="-52230"/><use xlink:href="#FkaPsD10Z1h6-KeBEiSF_pad-12" x="89010" y="-54770"/><use xlink:href="#FkaPsD10Z1h6-KeBEiSF_pad-12" x="89010" y="-52230"/><use xlink:href="#FkaPsD10Z1h6-KeBEiSF_pad-12" x="91550" y="-54770"/><use xlink:href="#FkaPsD10Z1h6-KeBEiSF_pad-12" x="91550" y="-52230"/><use xlink:href="#FkaPsD10Z1h6-KeBEiSF_pad-12" x="94090" y="-54770"/><use xlink:href="#FkaPsD10Z1h6-KeBEiSF_pad-12" x="94090" y="-52230"/><use xlink:href="#FkaPsD10Z1h6-KeBEiSF_pad-12" x="96630" y="-54770"/><use xlink:href="#FkaPsD10Z1h6-KeBEiSF_pad-12" x="96630" y="-52230"/><use xlink:href="#FkaPsD10Z1h6-KeBEiSF_pad-16" x="77000" y="-74600"/><use xlink:href="#FkaPsD10Z1h6-KeBEiSF_pad-17" x="78300" y="-74600"/><use xlink:href="#FkaPsD10Z1h6-KeBEiSF_pad-18" x="79600" y="-74600"/><use xlink:href="#FkaPsD10Z1h6-KeBEiSF_pad-19" x="65400" y="-71600"/><use xlink:href="#FkaPsD10Z1h6-KeBEiSF_pad-20" x="65400" y="-70300"/><use xlink:href="#FkaPsD10Z1h6-KeBEiSF_pad-21" x="65400" y="-69000"/><use xlink:href="#FkaPsD10Z1h6-KeBEiSF_pad-22" x="68000" y="-71550"/><use xlink:href="#FkaPsD10Z1h6-KeBEiSF_pad-23" x="68000" y="-70250"/></g></svg>